<svg xmlns="http://www.w3.org/2000/svg" xmlns:xlink="http://www.w3.org/1999/xlink" viewBox="0 0 1081.29 599.25"><defs><style>.cls-1{isolation:isolate;}.cls-10,.cls-11,.cls-12,.cls-13,.cls-14,.cls-15,.cls-16,.cls-19,.cls-2,.cls-21,.cls-22,.cls-23,.cls-24,.cls-25,.cls-26,.cls-27,.cls-28,.cls-29,.cls-3,.cls-30,.cls-31,.cls-32,.cls-33,.cls-34,.cls-35,.cls-36,.cls-37,.cls-38,.cls-39,.cls-40,.cls-41,.cls-42,.cls-43,.cls-44,.cls-45,.cls-46,.cls-47,.cls-48,.cls-49,.cls-5,.cls-50,.cls-51,.cls-53,.cls-54,.cls-55,.cls-56,.cls-57,.cls-58,.cls-59,.cls-6,.cls-60,.cls-61,.cls-62,.cls-63,.cls-64,.cls-65,.cls-66,.cls-67,.cls-68,.cls-69,.cls-7,.cls-70,.cls-71,.cls-72,.cls-73,.cls-74,.cls-75,.cls-76,.cls-77,.cls-78,.cls-79,.cls-8,.cls-80,.cls-81,.cls-82,.cls-83,.cls-84,.cls-85,.cls-86,.cls-87,.cls-88,.cls-89,.cls-9,.cls-90,.cls-91,.cls-92,.cls-93,.cls-94,.cls-95,.cls-96,.cls-97,.cls-98{fill-rule:evenodd;}.cls-2{fill:url(#Áåçûìÿííûé_ãðàäèåíò_638);}.cls-3{fill:#430d3b;}.cls-4,.cls-5,.cls-7{fill:#2c173b;}.cls-13,.cls-14,.cls-20,.cls-21,.cls-4,.cls-44,.cls-48,.cls-5{opacity:0.53;}.cls-6{fill:#200021;opacity:0.43;}.cls-7{opacity:0.71;}.cls-8{fill:#918fa4;}.cls-15,.cls-16,.cls-22,.cls-25,.cls-26,.cls-27,.cls-40,.cls-8,.cls-9{mix-blend-mode:soft-light;}.cls-15,.cls-16,.cls-22,.cls-26,.cls-27,.cls-40,.cls-8,.cls-9{opacity:0.84;}.cls-9{fill:#a6a4b5;}.cls-10{fill:#36002e;}.cls-10,.cls-66,.cls-93,.cls-94{opacity:0.5;}.cls-11{fill:url(#linear-gradient);}.cls-12,.cls-63,.cls-64,.cls-66,.cls-67,.cls-68,.cls-75,.cls-76,.cls-85,.cls-86,.cls-87,.cls-90,.cls-92,.cls-93,.cls-94,.cls-95,.cls-97{mix-blend-mode:multiply;}.cls-12{fill:url(#linear-gradient-2);}.cls-13{fill:#6f223e;}.cls-14{fill:#5d0726;}.cls-15{fill:#a4a49c;}.cls-16{fill:#b1867c;}.cls-17,.cls-67,.cls-68,.cls-75,.cls-76,.cls-85,.cls-86,.cls-95,.cls-97{opacity:0.6;}.cls-18{fill:#ffc138;}.cls-19{fill:url(#Áåçûìÿííûé_ãðàäèåíò_645);}.cls-20,.cls-21,.cls-24{fill:#2c002a;}.cls-22{fill:#d4a49c;}.cls-23{fill:#340a32;}.cls-24,.cls-38{opacity:0.2;}.cls-25{fill:#a29396;}.cls-26{fill:#aa8b92;}.cls-27{fill:#a96d9c;}.cls-28{fill:#623448;}.cls-29{fill:#56253b;}.cls-30{fill:#5e2f44;}.cls-31{fill:#a16844;}.cls-32{fill:#8e5b44;}.cls-33{fill:#4f1b32;}.cls-34{fill:#6b394d;}.cls-35{fill:#7b4254;}.cls-36{fill:#8b4c56;}.cls-37{fill:#a46056;}.cls-38{fill:#2c2942;}.cls-39{fill:url(#Áåçûìÿííûé_ãðàäèåíò_645-2);}.cls-40{fill:#e5b195;}.cls-41{fill:#642f44;}.cls-42{fill:#81473b;}.cls-43{fill:url(#Áåçûìÿííûé_ãðàäèåíò_667);}.cls-44{fill:#47002a;}.cls-45{fill:url(#Áåçûìÿííûé_ãðàäèåíò_667-2);}.cls-46{fill:url(#Áåçûìÿííûé_ãðàäèåíò_667-3);}.cls-47{fill:url(#Áåçûìÿííûé_ãðàäèåíò_657);}.cls-48{fill:#48002a;}.cls-49{fill:url(#Áåçûìÿííûé_ãðàäèåíò_657-2);}.cls-50{fill:url(#Áåçûìÿííûé_ãðàäèåíò_657-3);}.cls-51{fill:url(#Áåçûìÿííûé_ãðàäèåíò_657-4);}.cls-52{fill:#ffe3ba;}.cls-53{fill:#005977;}.cls-54{fill:url(#Áåçûìÿííûé_ãðàäèåíò_17);}.cls-55{fill:url(#Áåçûìÿííûé_ãðàäèåíò_295);}.cls-56{fill:url(#Áåçûìÿííûé_ãðàäèåíò_17-2);}.cls-57{fill:#904050;}.cls-58{fill:url(#Áåçûìÿííûé_ãðàäèåíò_295-2);}.cls-59{fill:#001424;}.cls-60{fill:url(#Áåçûìÿííûé_ãðàäèåíò_22);}.cls-61{fill:url(#Áåçûìÿííûé_ãðàäèåíò_16);}.cls-62{fill:url(#Áåçûìÿííûé_ãðàäèåíò_22-2);}.cls-63,.cls-64,.cls-66,.cls-68,.cls-81,.cls-87{fill:#543160;}.cls-64{opacity:0.51;}.cls-65{fill:#7a5100;}.cls-67{fill:url(#Áåçûìÿííûé_ãðàäèåíò_13);}.cls-69{fill:#002032;}.cls-70{fill:url(#Áåçûìÿííûé_ãðàäèåíò_252);}.cls-71{fill:url(#Áåçûìÿííûé_ãðàäèåíò_252-2);}.cls-72{fill:url(#Áåçûìÿííûé_ãðàäèåíò_252-3);}.cls-73{fill:#694a79;}.cls-74{fill:#4f385f;}.cls-75{fill:url(#Áåçûìÿííûé_ãðàäèåíò_13-2);}.cls-76{fill:url(#Áåçûìÿííûé_ãðàäèåíò_13-3);}.cls-77{fill:url(#Áåçûìÿííûé_ãðàäèåíò_16-2);}.cls-78{fill:url(#Áåçûìÿííûé_ãðàäèåíò_16-3);}.cls-79{fill:url(#Áåçûìÿííûé_ãðàäèåíò_15);}.cls-80{fill:url(#Áåçûìÿííûé_ãðàäèåíò_14);}.cls-82{fill:url(#Áåçûìÿííûé_ãðàäèåíò_15-2);}.cls-83{fill:url(#Áåçûìÿííûé_ãðàäèåíò_14-2);}.cls-84{fill:url(#Áåçûìÿííûé_ãðàäèåíò_21);}.cls-85{fill:url(#Áåçûìÿííûé_ãðàäèåíò_13-4);}.cls-86{fill:url(#Áåçûìÿííûé_ãðàäèåíò_13-5);}.cls-87,.cls-92{opacity:0.4;}.cls-88{fill:#006476;}.cls-89{fill:url(#Áåçûìÿííûé_ãðàäèåíò_252-4);}.cls-90,.cls-92{fill:#7f0e43;}.cls-90{opacity:0.3;}.cls-91{fill:#c46830;}.cls-93{fill:url(#Áåçûìÿííûé_ãðàäèåíò_231);}.cls-94{fill:url(#Áåçûìÿííûé_ãðàäèåíò_231-2);}.cls-95{fill:#954372;}.cls-96{fill:url(#Áåçûìÿííûé_ãðàäèåíò_252-5);}.cls-97{fill:#fc0;}.cls-98{fill:#ffbf00;mix-blend-mode:screen;opacity:0.1;}</style><linearGradient id="Áåçûìÿííûé_ãðàäèåíò_638" x1="20.62" y1="307.22" x2="20.62" y2="173.9" gradientUnits="userSpaceOnUse"><stop offset="0" stop-color="#4c3b5e"/><stop offset="0.96" stop-color="#492f4c"/></linearGradient><linearGradient id="linear-gradient" x1="621.28" y1="651.94" x2="545.7" y2="445.64" gradientUnits="userSpaceOnUse"><stop offset="0" stop-color="#e07e45"/><stop offset="0.44" stop-color="#b16d57"/><stop offset="1" stop-color="#a45958"/></linearGradient><linearGradient id="linear-gradient-2" x1="581.29" y1="568.34" x2="581.29" y2="448.74" gradientUnits="userSpaceOnUse"><stop offset="0" stop-color="#fff"/><stop offset="0.18" stop-color="#fdfcfc"/><stop offset="0.33" stop-color="#f7f1f1"/><stop offset="0.48" stop-color="#eedfdf"/><stop offset="0.62" stop-color="#e0c6c6"/><stop offset="0.76" stop-color="#cea6a5"/><stop offset="0.89" stop-color="#b97f7e"/><stop offset="1" stop-color="#a45958"/></linearGradient><linearGradient id="Áåçûìÿííûé_ãðàäèåíò_645" x1="909.78" y1="597.89" x2="909.78" y2="1.4" gradientUnits="userSpaceOnUse"><stop offset="0" stop-color="#663634"/><stop offset="1" stop-color="#300b2e"/></linearGradient><linearGradient id="Áåçûìÿííûé_ãðàäèåíò_645-2" x1="276.03" y1="597.89" x2="276.03" y2="1.39" xlink:href="#Áåçûìÿííûé_ãðàäèåíò_645"/><linearGradient id="Áåçûìÿííûé_ãðàäèåíò_667" x1="757.07" y1="599.25" x2="757.07" y2="576.01" gradientUnits="userSpaceOnUse"><stop offset="0" stop-color="#5c2c34"/><stop offset="1" stop-color="#79363e"/></linearGradient><linearGradient id="Áåçûìÿííûé_ãðàäèåíò_667-2" x1="701.37" y1="557.43" x2="701.37" y2="538.88" xlink:href="#Áåçûìÿííûé_ãðàäèåíò_667"/><linearGradient id="Áåçûìÿííûé_ãðàäèåíò_667-3" x1="683.39" y1="584.85" x2="683.39" y2="576.01" xlink:href="#Áåçûìÿííûé_ãðàäèåíò_667"/><linearGradient id="Áåçûìÿííûé_ãðàäèåíò_657" x1="7755.01" y1="529.96" x2="7755.01" y2="513.77" gradientTransform="matrix(-1, 0, 0, 1, 8124.92, 0)" gradientUnits="userSpaceOnUse"><stop offset="0" stop-color="#9a6a58"/><stop offset="1" stop-color="#c47952"/></linearGradient><linearGradient id="Áåçûìÿííûé_ãðàäèåíò_657-2" x1="7721.19" y1="528.59" x2="7721.19" y2="518.18" xlink:href="#Áåçûìÿííûé_ãðàäèåíò_657"/><linearGradient id="Áåçûìÿííûé_ãðàäèåíò_657-3" x1="7821.75" y1="531.77" x2="7821.75" y2="525.42" xlink:href="#Áåçûìÿííûé_ãðàäèåíò_657"/><linearGradient id="Áåçûìÿííûé_ãðàäèåíò_657-4" x1="7698.83" y1="529.15" x2="7698.83" y2="514.58" xlink:href="#Áåçûìÿííûé_ãðàäèåíò_657"/><linearGradient id="Áåçûìÿííûé_ãðàäèåíò_17" x1="-13769.93" y1="1012.6" x2="-13767.57" y2="989.94" gradientTransform="translate(14398.36 250.7) rotate(4.35)" gradientUnits="userSpaceOnUse"><stop offset="0.02" stop-color="#cb7070"/><stop offset="1" stop-color="#d97766"/></linearGradient><radialGradient id="Áåçûìÿííûé_ãðàäèåíò_295" cx="7062.13" cy="159.75" r="67.68" gradientTransform="matrix(-1, 0, 0, 1, 7660.23, 0)" gradientUnits="userSpaceOnUse"><stop offset="0.02" stop-color="#95b45c"/><stop offset="1" stop-color="#005977"/></radialGradient><linearGradient id="Áåçûìÿííûé_ãðàäèåíò_17-2" x1="7006.04" y1="358.82" x2="6992.05" y2="367.28" gradientTransform="matrix(-1, 0, 0, 1, 7660.23, 0)" xlink:href="#Áåçûìÿííûé_ãðàäèåíò_17"/><radialGradient id="Áåçûìÿííûé_ãðàäèåíò_295-2" cx="7147.72" cy="187.59" r="91.63" xlink:href="#Áåçûìÿííûé_ãðàäèåíò_295"/><linearGradient id="Áåçûìÿííûé_ãðàäèåíò_22" x1="7130.44" y1="484.78" x2="7003.59" y2="408.14" gradientTransform="matrix(-1, 0, 0, 1, 7660.23, 0)" gradientUnits="userSpaceOnUse"><stop offset="0" stop-color="#0d0d46"/><stop offset="1" stop-color="#1b205f"/></linearGradient><linearGradient id="Áåçûìÿííûé_ãðàäèåíò_16" x1="-13708.58" y1="1296.09" x2="-13708.76" y2="1295.98" gradientTransform="translate(14398.36 250.7) rotate(4.35)" gradientUnits="userSpaceOnUse"><stop offset="0" stop-color="#4a4aa0"/><stop offset="1" stop-color="#6066b8"/></linearGradient><linearGradient id="Áåçûìÿííûé_ãðàäèåíò_22-2" x1="7060.73" y1="467.18" x2="6928.65" y2="387.38" xlink:href="#Áåçûìÿííûé_ãðàäèåíò_22"/><linearGradient id="Áåçûìÿííûé_ãðàäèåíò_13" x1="-13772.55" y1="1145.29" x2="-13690.64" y2="1145.29" gradientTransform="translate(14398.36 250.7) rotate(4.35)" gradientUnits="userSpaceOnUse"><stop offset="0.01" stop-color="#bc6886"/><stop offset="1" stop-color="#c06157"/></linearGradient><linearGradient id="Áåçûìÿííûé_ãðàäèåíò_252" x1="-13751.88" y1="1080.11" x2="-13741.73" y2="1101.14" gradientTransform="translate(14398.36 250.7) rotate(4.35)" gradientUnits="userSpaceOnUse"><stop offset="0.01" stop-color="#b69600"/><stop offset="1" stop-color="#906600"/></linearGradient><linearGradient id="Áåçûìÿííûé_ãðàäèåíò_252-2" x1="-13788.16" y1="1093.6" x2="-13768.87" y2="1093.6" xlink:href="#Áåçûìÿííûé_ãðàäèåíò_252"/><linearGradient id="Áåçûìÿííûé_ãðàäèåíò_252-3" x1="7028.54" y1="214.1" x2="7035.36" y2="321.76" gradientTransform="matrix(-1, 0, 0, 1, 7660.23, 0)" xlink:href="#Áåçûìÿííûé_ãðàäèåíò_252"/><linearGradient id="Áåçûìÿííûé_ãðàäèåíò_13-2" x1="-13774.5" y1="1082.32" x2="-13682.7" y2="1082.32" xlink:href="#Áåçûìÿííûé_ãðàäèåíò_13"/><linearGradient id="Áåçûìÿííûé_ãðàäèåíò_13-3" x1="-13718.93" y1="1075.08" x2="-13710.88" y2="1075.08" xlink:href="#Áåçûìÿííûé_ãðàäèåíò_13"/><linearGradient id="Áåçûìÿííûé_ãðàäèåíò_16-2" x1="7082.17" y1="429.04" x2="7085.63" y2="483.67" gradientTransform="matrix(-1, 0, 0, 1, 7660.23, 0)" xlink:href="#Áåçûìÿííûé_ãðàäèåíò_16"/><linearGradient id="Áåçûìÿííûé_ãðàäèåíò_16-3" x1="7026.74" y1="442.24" x2="7029.66" y2="488.35" gradientTransform="matrix(-1, 0, 0, 1, 7660.23, 0)" xlink:href="#Áåçûìÿííûé_ãðàäèåíò_16"/><linearGradient id="Áåçûìÿííûé_ãðàäèåíò_15" x1="7055.31" y1="461.62" x2="7028.06" y2="513.6" gradientTransform="matrix(-1, 0, 0, 1, 7660.23, 0)" gradientUnits="userSpaceOnUse"><stop offset="0.01" stop-color="#3d1b40"/><stop offset="0.98" stop-color="#3b234d"/></linearGradient><linearGradient id="Áåçûìÿííûé_ãðàäèåíò_14" x1="7041.87" y1="504.93" x2="7027.87" y2="531.63" gradientTransform="matrix(-1, 0, 0, 1, 7660.23, 0)" gradientUnits="userSpaceOnUse"><stop offset="0" stop-color="#c76151"/><stop offset="0.98" stop-color="#c56834"/></linearGradient><linearGradient id="Áåçûìÿííûé_ãðàäèåíò_15-2" x1="7114.09" y1="432.4" x2="7078.5" y2="500.3" xlink:href="#Áåçûìÿííûé_ãðàäèåíò_15"/><linearGradient id="Áåçûìÿííûé_ãðàäèåíò_14-2" x1="7092.16" y1="474.92" x2="7070.78" y2="515.71" xlink:href="#Áåçûìÿííûé_ãðàäèåíò_14"/><linearGradient id="Áåçûìÿííûé_ãðàäèåíò_21" x1="6974.16" y1="447.14" x2="6956.94" y2="436.24" gradientTransform="matrix(-1, 0, 0, 1, 7660.23, 0)" gradientUnits="userSpaceOnUse"><stop offset="0" stop-color="#ac3c2a"/><stop offset="0.98" stop-color="#a9490b"/></linearGradient><linearGradient id="Áåçûìÿííûé_ãðàäèåíò_13-4" x1="6990.28" y1="265.76" x2="7062.63" y2="265.76" gradientTransform="matrix(-1, 0, 0, 1, 7660.23, 0)" xlink:href="#Áåçûìÿííûé_ãðàäèåíò_13"/><linearGradient id="Áåçûìÿííûé_ãðàäèåíò_13-5" x1="-13757.51" y1="1125.46" x2="-13693.12" y2="1125.46" xlink:href="#Áåçûìÿííûé_ãðàäèåíò_13"/><linearGradient id="Áåçûìÿííûé_ãðàäèåíò_252-4" x1="-13732.66" y1="1008.63" x2="-13723.41" y2="1024.74" xlink:href="#Áåçûìÿííûé_ãðàäèåíò_252"/><linearGradient id="Áåçûìÿííûé_ãðàäèåíò_231" x1="6670.06" y1="557.52" x2="7047.16" y2="557.52" gradientTransform="matrix(-1, 0, 0, 1, 7660.23, 0)" gradientUnits="userSpaceOnUse"><stop offset="0" stop-color="#ae4641"/><stop offset="1" stop-color="#733087"/></linearGradient><linearGradient id="Áåçûìÿííûé_ãðàäèåíò_231-2" x1="6971.42" y1="552.3" x2="7081.68" y2="552.3" xlink:href="#Áåçûìÿííûé_ãðàäèåíò_231"/><linearGradient id="Áåçûìÿííûé_ãðàäèåíò_252-5" x1="7058" y1="220.28" x2="7074.57" y2="277.3" gradientTransform="matrix(-1, 0, 0, 1, 7660.23, 0)" xlink:href="#Áåçûìÿííûé_ãðàäèåíò_252"/></defs><g class="cls-1"><g id="Layer_2" data-name="Layer 2"><g id="L1"><path class="cls-2" d="M0,242.39v41.86L6.93,258.6,11,247v-4.19L41.24,173.9C32.14,182.85,14.56,214.52,0,242.39Z"/><path class="cls-3" d="M917.41,411.55l-10.19,25.36-5.05,7.62L1079,420.2a274.78,274.78,0,0,1-5-64.28V2.76H0V247.2l41.24-73.3,48.15-26.17,24.64,2,6,35.47-8.07,122,3.37,8.72L85.76,453.32l-13.68,5.19,97.63,28.86-12.6-111.9-3.17-4.2-1.33-58.91,1.81-3L195.5,133.59l17.71-18.2S499.51,45.5,624.48,48.9c0,0,140.35,63.72,226,106.26l32,35.47L918.7,307.22l-1.29,8.72Zm0-147-3.92-39.63L1020.17,343l-9.35,17.44-22.31-18.58-44.86,36.25L935.33,376,927.84,316l7-12.91V283.36l-3.54-10.92-3.45,5.41Z"/><polygon class="cls-4" points="996.33 155.2 1074.02 202.37 1074.02 193.29 1036.69 172.09 1022.61 144.28 965.65 144.88 855.42 131.46 844.41 134 811.64 136.19 845.91 150.97 854.46 134 996.33 155.2"/><path class="cls-4" d="M1074,355.92v-67.7L1062.65,287l-27.83-15.27L956,228.92l-48.95-17.53-55-54.49,30.46,33.73,22.82,25.25,7.75,46.78,4.33,1.89-3.92-39.63,8,8.83,11.44-11.48,73.72,37.11,60,65.45-11.42,27.37L1034.82,345l-14.65-2,26.59,23.5,27.08,4.05Q1073.75,363.29,1074,355.92Z"/><path class="cls-4" d="M1074.43,385.6l-9.45-3-18.22-16.1-19.78-3-13.18-7.49-3,4.39-22.31-18.58,7.1,6.57-3.55,7.62-40.9,35H942.1l1.55-12.93L935.33,376,927.84,316l7-12.91V283.36l-3.54-10.92.38,5.62-2,3.15-1.81-3.36.93,8.36-4.93,19.65-5.14,1.36-.26,1.79,1.93-1.41,2.59-.83,2,4.3,9,65.38-4,26.17-12.54,8.93-.72,1.8,4.78-2.74L940.89,407s19.36,9.39,19.87,9.39S948.13,433,948.13,433l-38.22,7.07-2.69-3.19-5.05,7.62,159.37-21.93,17.45-2.4A267.22,267.22,0,0,1,1074.43,385.6Z"/><polygon class="cls-5" points="139.71 155.2 208.33 120.41 213.21 115.39 172.1 122.51 92.97 100.35 98.33 84.82 210.77 2.76 19 104.57 45.68 98.47 54.69 108.6 0 148.42 0 194.34 27.81 171.08 41.24 168.66 41.24 173.9 89.39 147.73 114.03 149.72 120.07 185.19 112 307.22 115.37 315.94 85.76 453.32 72.08 458.51 169.71 487.37 117.24 458.62 124.85 422.46 142.64 388.97 154.62 372.17 153.94 371.27 130.34 402.02 106.48 408.07 101.75 402.96 142.64 315.95 152.61 312.36 154.42 309.34 143.18 311.15 122.2 307.22 120.12 285.3 132.15 168.26 139.71 155.2"/><polygon class="cls-5" points="0 243.87 10.97 247.01 10.97 242.82 0 242.25 0 243.87"/><polygon class="cls-6" points="135.9 138.23 102.65 130.07 54.69 108.6 0 148.42 0 192.92 27.81 168.66 41.24 168.66 41.24 173.9 89.39 147.73 114.03 149.72 120.07 185.19 134.64 163.97 139.71 155.2 135.9 138.23"/><polygon class="cls-5" points="112 307.22 122.2 307.22 145.27 310.81 142.64 315.95 115.37 315.94 112 307.22"/><polygon class="cls-5" points="106.48 408.07 89.66 432.7 85.76 453.32 124.85 422.46 142.64 388.97 144.38 383.93 130.34 402.02 106.48 408.07"/><polygon class="cls-5" points="117.24 458.62 90.12 463.84 169.71 487.37 117.24 458.62"/><polygon class="cls-6" points="112 307.22 120.12 285.3 132.15 168.26 139.71 155.2 114.03 149.72 120.07 185.19 112 307.22"/><polygon class="cls-6" points="142.64 315.95 101.75 402.96 96.29 403.68 115.37 315.94 112 307.22 122.2 307.22 142.64 315.95"/><polygon class="cls-6" points="905.33 215.88 888.48 197.24 888.48 192.97 907.09 211.39 951.16 227.17 956.55 234.17 935.84 224.92 929.8 225.39 921.47 233.75 913.49 224.92 917.41 264.55 913.08 262.66 905.33 215.88"/><path class="cls-5" d="M1074.43,385.6l-9.45-3-17.89-15.81-18.31-3.25-15-7.49-3,4.39-18.76-4.39-40.9,35-8.51-4.59,1-8.34L935.33,376,930,402.62,940.89,407l6.09-1.1,10.76-12,37.87-6.31,35.7-4.95,44.19,15.06Q1074.82,391.68,1074.43,385.6Z"/><polygon class="cls-7" points="1074.02 142.73 935.05 93.93 926.74 85.51 988.82 78 1074.02 91.21 1074.02 84.41 976.75 74.44 781.55 2.76 752.1 1.88 901.23 51.11 921.95 57.98 928.1 72.78 921.75 81.8 777.41 72.78 634.37 2.76 612.19 2.76 701.22 37.85 736.51 59.21 721.53 58.23 528.52 2.76 480.01 1.46 606.1 31.22 624.48 48.9 669.89 69.35 660.25 59.12 713.67 69.35 911.21 93.93 1074.02 142.87 1074.02 142.73"/><polygon class="cls-7" points="1074.02 55.4 990.47 52.09 992.31 47.92 1074.02 35.21 1074.02 2.53 844.8 1.88 877.44 29.25 933.03 45.46 986.98 56.51 1074.02 59.62 1074.02 55.4"/><polygon class="cls-7" points="283.35 2.76 177.93 49.88 128.63 83.49 251.88 22.88 277.98 19.43 458.33 18.94 289.78 78 244.53 84.82 172.1 122.51 251.88 88.76 305.65 78 359.52 83.49 364.07 82.43 354.34 80.33 335.06 67.81 342.64 62.89 460.55 22.88 548.6 21.89 432.27 10.59 401.4 2.76 283.35 2.76"/><polygon class="cls-6" points="251.88 22.88 283.35 2.76 404.19 1.88 437.46 11.1 437.46 19 277.98 19.43 251.88 22.88"/><polygon class="cls-6" points="777.41 72.78 778.77 78 911.21 93.93 926.74 98.6 921.75 81.8 777.41 72.78"/><polygon class="cls-8" points="213.21 115.39 182.98 117.99 251.88 88.76 305.65 78 343.24 81.83 359.52 83.49 213.21 115.39"/><polygon class="cls-8" points="364.07 82.43 335.06 67.81 342.64 62.89 460.55 22.88 548.6 21.89 606.1 31.22 624.48 48.9 488.58 57.37 364.07 82.43"/><polygon class="cls-9" points="122.2 307.22 120.12 285.3 132.15 168.26 139.71 155.2 193.07 130.07 195.5 133.59 154.42 309.34 143.18 311.15 122.2 307.22"/><polygon class="cls-9" points="157.12 375.47 137.92 397.47 124.85 422.46 119.85 450.11 124.96 463.13 169.71 487.37 157.12 375.47"/><polygon class="cls-9" points="845.91 150.97 854.46 134 885.85 143.68 907.09 211.39 888.48 192.97 845.91 150.97"/><polygon class="cls-9" points="811.64 136.19 844.41 134 855.42 131.46 826.66 98.6 736.51 72.78 660.25 59.12 669.89 69.35 811.64 136.19"/><path class="cls-10" d="M917.41,411.55l-10.19,25.36-5.05,7.62L1079,420.2a274.78,274.78,0,0,1-5-64.28V2.76H0V247.2l41.24-73.3,48.15-26.17,24.64,2,6,35.47-8.07,122,3.37,8.72L85.76,453.32l-13.68,5.19,97.63,28.86-12.6-111.9-3.17-4.2-1.33-58.91,1.81-3L195.5,133.59l17.71-18.2S499.51,45.5,624.48,48.9c0,0,140.35,63.72,226,106.26l32,35.47L918.7,307.22l-1.29,8.72Zm0-147-3.92-39.63L1020.17,343l-9.35,17.44-22.31-18.58-44.86,36.25L935.33,376,927.84,316l7-12.91V283.36l-3.54-10.92-3.45,5.41Z"/><polygon class="cls-11" points="1081.29 487.2 1014.45 501.02 1010.33 503.99 926.69 511.56 280.89 487.92 272.07 491.24 91.09 449.51 91.09 445.35 81.29 429.88 81.29 598.34 1081.29 598.34 1081.29 487.2"/><polygon class="cls-12" points="1081.29 487.2 1014.45 501.02 1010.33 503.99 926.69 511.56 280.89 487.92 272.07 491.24 91.09 449.51 91.09 445.35 81.29 429.88 81.29 598.34 1081.29 598.34 1081.29 487.2"/><polygon class="cls-13" points="187.78 497.71 265.82 496 276.45 500.25 390.52 504.99 396 507.7 259.34 504.55 177.5 507.28 187.78 497.71"/><polygon class="cls-13" points="179.74 521.47 207.21 518.09 328.63 518.95 194.49 523.04 179.74 521.47"/><polygon class="cls-13" points="204.83 537.05 220.38 535.23 326.59 542.42 339.47 540.44 356.89 534.66 469.66 536 585.64 539.64 599.92 540.66 365.99 538.01 346.64 541.26 324.7 545.93 287.93 545.86 231.47 537.87 215.89 539.42 204.83 537.05"/><polygon class="cls-13" points="223.43 547.97 233.92 545.93 317.5 550.34 345.87 549.37 389.36 541.92 407.32 541.31 442.18 541.42 593.95 543.83 631.77 546.44 625.79 547.87 561.95 544.8 468.51 543.17 389.33 543.3 384.25 543.85 357.9 548.67 344.2 550.9 302.72 552.06 232.64 551.38 223.43 547.97"/><polygon class="cls-13" points="456.41 583.65 572.62 583.65 580.61 578.82 604.87 574.4 749.35 572.56 812.52 566.91 930.75 571.67 928.62 575.28 817.77 569.11 788.14 570.43 743.42 573.95 604.76 576.93 580.86 584.11 568.24 589.93 476.32 585.03 456.41 583.65"/><polygon class="cls-13" points="595.22 597.97 634.69 592.51 647.6 587.74 725.63 583.07 763.51 583.07 896.68 585.33 905.8 592.51 811.01 586.35 774.38 585.96 715.74 584.27 664.83 587.74 642.66 592.7 633.63 597.97 595.22 597.97"/><polygon class="cls-13" points="898.6 531.98 817.22 533.24 719.3 537.82 707.45 538.93 686.76 542.63 664 549.37 647.6 550.97 664.48 548.15 685.98 541.21 714.28 535.67 917.06 529.59 898.6 531.98"/><polygon class="cls-13" points="326.59 542.42 324.7 545.93 287.93 545.86 231.47 537.87 220.38 535.23 326.59 542.42"/><polygon class="cls-13" points="292.87 548.81 298.64 552.06 344.2 550.9 345.87 549.37 317.5 550.34 292.87 548.81"/><polygon class="cls-13" points="384.25 543.85 389.36 541.92 367.53 545.53 364.45 547.54 384.25 543.85"/><polygon class="cls-13" points="356.89 534.66 365.99 538.01 345.3 541.7 345.3 538.43 356.89 534.66"/><polygon class="cls-13" points="276.45 500.25 279.3 505.01 329.24 506.03 330.98 503.26 276.45 500.25"/><polygon class="cls-13" points="256.8 504.64 265.82 496 220.08 497.01 221.88 505.8 256.8 504.64"/><polygon class="cls-13" points="207.21 518.09 207.21 522.26 255.04 521.19 255.44 518.43 207.21 518.09"/><polygon class="cls-14" points="442.18 538.87 441.02 535.52 509.03 537.36 510.93 539.94 442.18 538.87"/><polygon class="cls-13" points="572.62 583.65 568.24 589.93 456.41 583.65 572.62 583.65"/><polygon class="cls-13" points="604.76 576.93 604.87 574.4 721.84 573.16 723.1 574.55 604.76 576.93"/><polygon class="cls-13" points="634.69 592.51 633.63 597.97 595.22 597.97 634.69 592.51"/><polygon class="cls-13" points="642.66 592.7 647.6 587.74 665.8 586.79 664.83 587.74 642.66 592.7"/><polygon class="cls-13" points="707.45 538.93 714.28 535.67 817.87 532.41 817.22 533.24 707.45 538.93"/><polygon class="cls-15" points="513.39 565.39 387.23 575.44 456.41 583.65 572.62 583.65 580.61 578.82 604.87 574.4 513.39 565.39"/><polygon class="cls-15" points="220.38 535.23 214.74 522.1 286.05 520.25 336.43 525.49 356.89 534.66 339.47 540.44 326.59 542.42 220.38 535.23"/><polygon class="cls-15" points="373.11 537.88 389.36 541.92 440.64 541.51 436.84 538.81 373.11 537.88"/><polygon class="cls-15" points="637.71 576.27 687.8 585.33 725.63 583.07 763.51 583.07 763.12 572.33 743.42 573.95 637.71 576.27"/><polygon class="cls-16" points="812.52 566.91 715 539.9 691.19 541.51 664.48 548.15 631.56 567.7 620.54 574.4 749.35 572.56 763.12 572.33 812.52 566.91"/><polygon class="cls-13" points="784.83 570.69 785.87 569.29 812.52 566.91 869.05 568.8 868.83 571.96 815.05 569.11 784.83 570.69"/><polygon class="cls-14" points="287.93 545.86 280.72 539.12 220.38 535.23 231.47 537.87 287.93 545.86"/><g class="cls-17"><path class="cls-18" d="M1029.68.4h0L951.17.55h0l-6,0h-1.46L867.3.72l3.38,47.12,8.05,30.07h0L880,82.78h0l2.3,8.6,50.46,99-6.5,3.86L910.82,177h0l-5,2.07-9,13.75L887.11,274h0l-.22,1.78h0l-6,50.61-2.35,2.46h0l-19.67,71.94-.35,1.27h0l-7.12,26.08-4.17,15.22,0,.08-2.28,8.36h0l-6,21.83h0L834,491.5l-.67,2.41L825.69,496l-.79,1.08h0l-29.63,40.43h0l-.92,1.25h0l-12.93,17.65v11.83l118.42,28.67h38.08l-.84,1.36,92.6-1.36V.4ZM896.83,463l-2.49,1.73-17.25,3.89h-1.5V451.07l-3.49-4.49,1-14.52,2.16-31.23,5.83-17.62Z"/><path class="cls-18" d="M501.94,581l-4.5-2.06-6.31.64-.32,0,6.63-.59-272-34.36-9.06,7.89-10.63-17.7-2.08-3.46-1.07-1.78-2.53-4.2-6-9.93-.69-1.15L160.5,459.46,156.41,456,151,445.14h-4l.41-5.85.87-12.56.21-3,4.41-63.33-5.4-11.22-7.74-31.38,6.51-56.55.54-4.77,9.6-83.33,7.3-3.71L177.52,51.7v0l6-51.28h0l-55.25.79L128.39,0l-6.65,1.27L41,2.42V596.89H516.93ZM120.68,317.11c0,7.42-8.85,9.13-13,5.15a7.55,7.55,0,0,1-10.22-2.39C88,305.53,86.31,286.75,87.11,270c.82-17.31,4.27-35,11.94-50.63a6.76,6.76,0,0,1,6.63-3.61V205.28c0-9.67,15-9.65,15,0Z"/></g><path class="cls-19" d="M955.92,1.56h-8.36l-76.46.15,3.41,47.12,11.8,43.54,51,99-6.57,3.86L915.11,178l-5.05,2.07L901,193.83l-16.16,133.6-2.38,2.46-45,162.61-.67,2.41L829,497l-44.78,60.41v11.83L904,597.89h131.32V1.4ZM898.44,465.77,881,469.66h-1.52V452.07L876,447.58l3.21-45.75,5.89-17.62L901,464Z"/><path class="cls-20" d="M1023.74,3.42l5.8,110.55L996.46,242.48,982.31,252,955.92,1.56v0l-6.06,0h-2.3l14.07,91.57v27l-43.49,3.75L886.31,92.38l51,99-6.57,3.86L915.11,178l7.48,18.61,9.19,164.61-8.08,7.42-38.91-41.22-2.38,2.46,7.94,6.73,5.31,24.86-19.71,32v3.18l1.14,2.05-9.79,53.61,2.08,7.22-4,28.13-27.89,4.8-.67,2.41,7-2.43,25.76,1.27,35.24,17.39-77.31,43.43-43.21,2.82v11.83L904,597.89,835.45,564.7,833.86,555l58-24.79L961,541.7l46.49,18.5-3-8.84-71.71-32.55-31.83-38-7.2-1.59,16-15.84-2.38-38.84,9.48-41.74,22-27.71-9.48-136.38,4.93-10.47,9.47,2.81,33.35,47.8,49.26,223.12,8.94,116V1.4ZM898.44,465.77,881,469.66h-1.52V452.07L876,447.58l3.21-45.75,5.89-17.62L901,464Z"/><polygon class="cls-20" points="1029.73 597.89 1008.05 445.31 956.54 361.09 938.86 355.06 931.78 361.23 948.96 386.76 1020.2 597.89 1029.73 597.89"/><polygon class="cls-21" points="817.01 577.07 827.44 554.57 895.87 516.13 897.95 507.79 869.51 493.75 843.75 492.48 850.54 490.25 859.48 488.71 866.21 481.65 869.38 459.57 875.95 458.41 879.48 452.07 879.48 469.66 881 469.66 898.44 465.77 905.91 467.17 893.76 479.19 900.96 480.78 932.79 518.81 925.38 535.76 898.18 532.79 833.86 554.95 835.45 564.7 836.33 581.69 817.01 577.07"/><polygon class="cls-21" points="961 541.7 966.52 534.12 989.31 544.46 996.27 539.29 948.96 386.76 967.65 379.25 1008.05 445.31 1000.25 479.19 1008.05 550.91 1029.73 597.89 1020.2 597.89 1009.72 568.93 993.24 554.01 961 541.7"/><polygon class="cls-21" points="875.95 393.51 862.52 401.83 862.17 403.1 875.95 396.69 879.16 401.83 885.05 384.21 895.66 361.48 875.95 393.51"/><polygon class="cls-21" points="895.66 361.48 890.35 336.62 893.46 336.62 923.7 368.65 931.78 361.23 938.86 355.06 916.88 382.76 911.55 406.25 888.03 399.15 885.05 384.21 895.66 361.48"/><polygon class="cls-21" points="922.59 196.62 930.77 195.28 937.34 191.42 918.14 123.92 961.63 120.17 961.63 93.14 963.87 77.03 982.31 252.04 988.88 268.06 1035.33 358.92 1035.33 482.94 1026.39 481.94 980.26 275.04 948.96 218.45 929.38 218.68 936.25 317.53 929.13 313.76 923.19 282.95 922.59 196.62"/><polygon class="cls-21" points="996.46 242.49 1035.33 260.96 1035.33 121.3 1029.54 113.97 996.46 242.49"/><polygon class="cls-22" points="897.95 507.79 895.87 516.13 827.44 554.57 784.23 557.39 793.33 549.13 798.24 538.49 828.21 498.06 843.75 492.48 869.51 493.75 897.95 507.79"/><polygon class="cls-22" points="862.52 401.83 875.95 393.51 893.09 365.66 893.48 351.25 890.35 336.62 882.41 329.89 862.52 401.83"/><polygon class="cls-22" points="900.95 193.83 907.02 190.01 922.59 196.62 923.19 282.95 918.14 349.18 914.1 355.06 884.79 327.44 900.95 193.83"/><polygon class="cls-22" points="874.51 48.84 903.99 62.35 907.4 66.85 918.14 123.92 937.34 191.42 886.31 92.38 874.51 48.84"/><polygon class="cls-21" points="909.78 463.35 932.79 518.81 900.96 480.78 893.76 479.19 909.78 463.35"/><polygon class="cls-23" points="875.95 447.58 867.3 452.35 856.23 448.11 850.73 444.48 851.73 440.85 852.64 445.09 867.56 450.93 874.37 447.79 876.23 443.59 875.95 447.58"/><polygon class="cls-24" points="961 541.7 971.45 552.88 945.68 592.87 932.79 595.97 892.88 591.37 889.73 594.47 904.01 597.89 1035.33 597.89 1035.33 358.92 980.26 275.04 985.47 362.56 976.74 394.6 967.65 379.25 948.96 386.76 931.78 361.23 916.88 382.76 907.4 424.51 909.78 463.35 932.79 518.81 925.38 535.76 961 541.7"/><polygon class="cls-21" points="871.1 1.72 874.51 48.84 903.99 62.35 918.14 123.92 979.76 234.78 967.76 113.97 1018.72 156 1035.33 206.52 1035.33 1.4 871.1 1.72"/><polygon class="cls-25" points="951.6 394.58 936.33 481.65 936.33 520.42 946.28 524.93 953.26 408.84 956.11 409.82 957.81 530.17 962.53 532.31 958.31 416.9 951.6 394.58"/><polygon class="cls-25" points="872.66 590.39 872.66 582.72 936.33 537.58 938.86 537.58 888.46 573.44 951.36 540.21 961 541.7 882.95 587.7 882.21 592.67 872.66 590.39"/><polygon class="cls-25" points="800.42 535.55 882.66 500.24 876.23 497.07 803.71 531.11 800.42 535.55"/><polygon class="cls-25" points="865.59 532.31 865.59 541.39 863.35 542.6 863.35 535.55 797.31 539.74 799.01 537.46 865.59 532.31"/><polygon class="cls-25" points="884.79 327.44 928.6 304.22 935.64 308.82 983.71 288.63 1005.55 310.17 1035.33 300.65 1035.33 308.82 1006.14 314.46 987.11 303.2 936.75 324.79 936.71 321.79 983.7 302.83 982.94 294.38 935.82 314.47 928.25 306.58 886.54 329.08 884.79 327.44"/><polygon class="cls-25" points="1035.33 161.92 1019.95 147.39 971.82 148.52 961.63 113.97 912.81 95.6 883.98 83.78 882.66 78.91 912.35 93.14 961.63 108.53 968.81 123.92 1026.04 127.58 1035.33 151.33 1035.33 161.92"/><polygon class="cls-25" points="890.91 276.82 923.19 260.96 922.98 252.12 891.13 275.04 890.91 276.82"/><polygon class="cls-25" points="841.79 477.07 867.93 469.66 867.93 465.77 842.38 474.67 841.79 477.07"/><polygon class="cls-26" points="909.78 463.35 913.27 431.18 907.4 424.51 909.78 463.35"/><polygon class="cls-27" points="867.56 450.93 877.09 398.74 869.04 399.9 862.17 403.1 851.73 440.85 852.64 445.09 867.56 450.93"/><polygon class="cls-8" points="869.38 459.57 867.3 452.35 856.23 448.11 850.73 444.48 837.45 492.5 859.48 488.71 866.21 481.65 869.38 459.57"/><polygon class="cls-28" points="986.99 248.88 1002.07 220.68 1000.17 244.25 986.99 248.88"/><polygon class="cls-29" points="1015.89 166.98 998.46 227.43 1002.07 223.42 1015.89 166.98"/><polygon class="cls-30" points="938.39 371.05 947.7 392.94 979.76 486.08 948.96 386.76 938.39 371.05"/><polygon class="cls-31" points="800.42 535.55 793.33 549.13 811.45 555.61 784.23 557.39 800.42 535.55"/><polygon class="cls-32" points="856.23 448.11 848.42 452.84 850.73 444.48 856.23 448.11"/><polygon class="cls-33" points="864.41 449.5 869.41 440.81 868.39 450.55 867.56 450.93 864.41 449.5"/><polygon class="cls-24" points="907.4 424.51 913.27 431.18 929.95 410.39 918.14 382.29 907.4 424.51"/><polygon class="cls-34" points="910.34 427.85 916.68 426.93 912.91 434.51 910.34 427.85"/><polygon class="cls-23" points="922.46 506.47 923.35 496.05 932.79 473.92 967.6 442.01 971.26 452.84 999.58 473.19 1000.5 473.85 1000.95 476.13 1000.53 477.56 998.26 472.91 971.45 454.51 968.29 454.7 959.45 455.64 932.63 475.3 924.33 497.13 923.66 507.9 922.46 506.47"/><polygon class="cls-35" points="932.63 475.3 969.98 457.66 971.45 454.51 959.45 455.64 932.63 475.3"/><polygon class="cls-23" points="935.26 303.28 934.22 288.33 936.33 295.81 944.16 299.76 975.38 292.13 981.43 276.82 981.43 280.27 976.74 291.56 975.17 293.35 940.43 301.98 935.26 303.28"/><polygon class="cls-21" points="962.65 427.32 941.67 465.77 967.6 442.01 962.65 427.32"/><polygon class="cls-21" points="949.66 298.42 971.95 285.37 980.94 278.06 975.38 292.13 949.66 298.42"/><polygon class="cls-23" points="901.15 597.21 850.13 584.99 847.05 570.32 847.6 565.13 928.25 546.47 931.78 548.94 1009.72 568.93 1007.76 566.87 971.95 558.23 926.25 544.73 868.56 559.55 843.87 563.3 837.68 565.13 841.54 582.94 901.15 597.21"/><polygon class="cls-35" points="847.05 570.32 865.59 560.97 847.6 565.13 847.05 570.32"/><polygon class="cls-21" points="905.39 550.09 919.53 542.6 924.93 539.79 947.43 550.99 931.78 547.39 926.25 544.73 905.39 550.09"/><polygon class="cls-21" points="926.25 544.73 924.93 539.79 906.35 549.58 926.25 544.73"/><polygon class="cls-22" points="888.03 399.15 899.15 402.51 907.4 460.62 907.4 464.83 900.96 464.04 888.03 399.15"/><polygon class="cls-22" points="828.21 498.06 823.98 511.36 811.6 537.46 793.33 549.13 800.42 535.55 828.21 498.06"/><polygon class="cls-22" points="907.02 190.01 915.11 178.01 910.06 180.08 900.95 193.83 907.02 190.01"/><polygon class="cls-29" points="919.74 195.41 922.66 206.52 925.24 196.19 919.74 195.41"/><polygon class="cls-29" points="957.83 120.5 961.63 93.14 962.87 123.62 957.83 120.5"/><polygon class="cls-25" points="948.96 574.47 952.04 570.97 957.3 570.32 948.96 574.47"/><polygon class="cls-25" points="896.79 238.98 899.87 235.47 905.13 234.83 896.79 238.98"/><polygon class="cls-25" points="993.36 91.65 1001.68 82.18 1015.89 80.42 993.36 91.65"/><polygon class="cls-36" points="900.96 584.23 916.3 584.23 938.86 589.49 900.96 584.23"/><polygon class="cls-36" points="973.21 581.98 973.21 577.85 976.74 577.85 973.21 581.98"/><polygon class="cls-36" points="910.19 283.42 910.19 279.29 913.71 279.29 910.19 283.42"/><polygon class="cls-25" points="924.65 80.97 924.65 76.84 928.17 76.84 924.65 80.97"/><polygon class="cls-36" points="960.06 336.62 967.6 361.48 967.6 352.86 960.06 336.62"/><polygon class="cls-36" points="959.08 343.38 954.64 333.51 952.04 331.91 959.08 343.38"/><polygon class="cls-36" points="864.41 418.7 867.35 412.86 869.38 408.82 869.38 412.75 867.93 413.76 864.41 418.7"/><polygon class="cls-36" points="867.3 417.15 868.47 415.56 869.41 416.36 867.3 417.15"/><polygon class="cls-37" points="837.68 522.07 848.42 514.94 853.41 516.31 850.13 517.51 837.68 522.07"/><polygon class="cls-25" points="920.3 96.7 931.04 89.57 936.04 90.94 932.75 92.14 920.3 96.7"/><polygon class="cls-37" points="863.36 514.94 856.32 516.88 859.48 516.88 863.36 514.94"/><polygon class="cls-38" points="1001.43 369.99 1025.13 343.38 1035.33 358.92 1035.33 444.99 1018.05 444.17 1001.43 369.99"/><polygon class="cls-38" points="958.31 416.9 976.74 418.76 987.91 412.38 967.65 379.25 948.96 386.76 958.31 416.9"/><polygon class="cls-8" points="907.02 190.01 900.95 193.83 884.79 327.44 923.19 282.95 922.66 206.52 919.74 195.41 907.02 190.01"/><polygon class="cls-8" points="907.4 66.85 903.99 62.35 874.51 48.84 886.31 92.38 918.14 123.92 907.4 66.85"/><polygon class="cls-38" points="932.79 518.81 925.38 535.76 900.96 530.17 904.75 511.14 888.03 502.89 900.96 480.78 932.79 518.81"/><polygon class="cls-38" points="1035.33 241.25 1008.04 197.5 1027.96 120.13 1035.33 135.19 1035.33 241.25"/><polygon class="cls-8" points="929.38 218.68 934.22 288.33 936.33 295.81 944.16 299.76 980.94 278.06 979.16 273.04 948.96 218.45 928.17 220.68 929.38 218.68"/><polygon class="cls-38" points="979.76 486.08 1000.53 477.56 1008.05 445.31 974.97 463.34 979.76 486.08"/><polygon class="cls-38" points="948.96 218.45 979.76 234.78 976.74 200.97 931.78 161.92 937.34 187.47 948.96 218.45"/><polygon class="cls-6" points="941.67 599.25 945.68 592.87 971.45 552.88 961 541.7 966.52 534.12 911.03 410.24 899.15 402.51 931.78 361.23 928.17 296.55 922.66 206.52 930.77 195.28 937.34 191.42 918.14 123.92 903.99 62.35 874.51 48.84 871.1 1.72 1035.33 1.4 1035.33 597.89 941.67 599.25"/><path class="cls-39" d="M501.56,582,221.88,545.56l-9.16,7.89-56.51-93L152.07,457l-5.47-10.86h-4l6-84.71-5.46-11.22-7.83-31.38,16.83-144.65,7.39-3.71,20-169.08-144.18,2V597.89H516.72ZM117,222.57h0l-6,101.5-9.63-50.53Z"/><polygon class="cls-21" points="497 579.91 364.33 593.24 219.65 577.85 221.88 545.56 212.72 553.45 209.2 565.64 109.22 581.98 73.34 557.39 73.34 545.18 146.6 446.14 142.56 446.14 85.09 519.69 79.02 515.52 75.36 455.42 77.13 440.8 113.89 338.31 148.53 361.43 143.07 350.21 138.52 352.61 118.44 335.31 116.41 290.06 125.13 274.48 141.82 262.28 142.37 257.51 138.58 263.5 123.74 273.32 121.59 271.67 120.07 222.57 142.5 179.45 152.07 174.18 159.46 170.47 141.62 173.53 125.64 161.06 117.01 69.67 123.74 1 117.01 2.27 110.02 83.75 81.3 228.9 101.43 273.54 85.85 279.93 101.43 302.78 98.33 330.25 35.33 522.07 35.33 597.89 516.72 597.89 501.56 581.98 497 579.91"/><polygon class="cls-21" points="35.33 337.18 69.17 291.61 52.25 305.06 35.33 312.76 35.33 337.18"/><polygon class="cls-21" points="102.83 2.47 73.24 48.84 35.33 228.9 35.33 113.41 76.25 38.88 87.04 3.31 102.83 2.47"/><polygon class="cls-21" points="142.5 179.45 141.62 173.53 131.62 165.73 121.92 121.67 120.36 35.48 113.64 41.61 110.02 83.75 84.48 213.71 101.43 273.54 117.01 222.57 111.06 324.07 98.33 330.25 74.59 402.52 81.66 428.18 109.61 350.24 120.74 342.88 137.91 354.34 138.52 352.61 124.59 340.98 118.15 320.29 116.41 290.06 125.13 274.48 134.05 266.5 126.49 271.29 120.61 263.26 120.08 226.24 125.38 213.09 142.5 179.45"/><polygon class="cls-21" points="77.13 440.8 75.36 455.42 80.16 508.2 95.66 506.16 124.22 469.61 127.32 472.21 73.34 545.18 89.92 568.76 109.22 581.98 193.51 568.21 187.56 597.89 35.33 597.89 35.33 490.73 41.51 486.48 65.66 429.71 77.13 440.8"/><polygon class="cls-21" points="73.24 48.84 73.5 43.89 39.95 105 35.33 98.39 35.33 228.9 73.24 48.84"/><polygon class="cls-21" points="69.17 291.61 78.05 246.45 101.43 273.54 102.83 280.92 90.14 284.81 69.17 291.61"/><polygon class="cls-21" points="364.33 593.24 363.94 597.89 202.98 597.89 219.65 577.85 364.33 593.24"/><polygon class="cls-22" points="156.21 460.46 140.29 464.64 122.6 484.32 73.34 545.18 109.22 581.98 200.7 567.03 206.48 556.07 199.59 531.83 156.21 460.46"/><polygon class="cls-21" points="117.01 222.57 102.83 120.31 110.02 83.75 117.01 69.67 125.64 161.06 141.62 173.53 142.5 179.45 120.08 226.24 117.01 222.57"/><polygon class="cls-21" points="49.73 92.2 57.91 121.67 73.24 48.84 73.5 43.89 49.73 92.2"/><polygon class="cls-23" points="199.59 531.83 190.11 530.17 137.38 530.17 125.26 536.91 107.32 563.77 109.22 581.98 114.42 581.13 109.85 569.31 107.95 565.09 123.68 540.49 146.41 534.2 157.47 531.11 190.44 531.39 201.97 535.75 199.59 531.83"/><polygon class="cls-23" points="94.82 391.48 101.43 387.67 133.78 393.19 137.76 403.6 144.07 424.76 143.86 427.73 135.96 403.5 119.44 393.64 102.05 389.14 94.82 392.66 92.86 396.95 94.82 391.48"/><polygon class="cls-23" points="35.33 244.39 67.28 244.39 79.07 241.25 86 254.1 99.89 268.13 101.43 273.54 76.95 252.04 66.77 249.7 50.89 245.52 35.33 247.92 35.33 244.39"/><polygon class="cls-22" points="221.88 545.56 222.59 564.71 356.78 592.44 497 579.91 221.88 545.56"/><polygon class="cls-22" points="148.53 361.43 141.07 356.45 133.78 393.19 144.07 424.76 148.53 361.43"/><polygon class="cls-22" points="135.96 403.5 126.9 449 126.9 466.19 142.56 446.14 143.86 427.73 135.96 403.5"/><polygon class="cls-22" points="135.24 318.83 118.15 320.29 124.59 340.98 138.52 352.61 143.07 350.21 135.24 318.83"/><polygon class="cls-22" points="101.43 302.78 107.64 305.93 101.43 273.54 85.85 279.93 101.43 302.78"/><polygon class="cls-21" points="137.38 530.17 118.46 534.02 105.55 556.07 107.32 563.77 125.26 536.91 137.38 530.17"/><polygon class="cls-21" points="118.46 534.02 123.68 540.49 137.38 530.17 118.46 534.02"/><polygon class="cls-21" points="133.78 393.19 114.42 385.87 104.79 384.91 101.43 387.67 133.78 393.19"/><polygon class="cls-35" points="119.44 393.64 131.54 425.61 139.9 415.57 135.96 403.5 119.44 393.64"/><polygon class="cls-25" points="246.95 548.69 312.79 587.76 312.82 597.89 318.5 597.89 318.79 588.4 249.5 549.24 246.95 548.69"/><polygon class="cls-25" points="278.33 552.61 384.88 589.93 384.46 597.89 388.24 597.89 390.15 589.46 284.99 553.44 278.33 552.61"/><polygon class="cls-25" points="126.25 480.27 187.96 512.7 190.2 516.38 137.38 489.99 125.38 487.55 105.55 507.26 196.23 526.31 199.59 531.83 132.71 518.81 96.24 516.9 126.25 480.27"/><polygon class="cls-22" points="126.49 271.29 121.47 252.04 120.08 226.24 142.5 179.45 152.07 174.18 142.37 257.51 138.58 263.5 126.49 271.29"/><polygon class="cls-22" points="131.62 165.73 173.43 52.69 159.46 170.47 141.62 173.53 131.62 165.73"/><polygon class="cls-8" points="141.82 262.28 125.13 274.48 116.41 290.06 118.15 320.29 135.24 318.83 141.82 262.28"/><polygon class="cls-25" points="75.36 455.42 128.84 439.23 142.97 440.29 142.56 446.14 128.4 441.45 77.13 459.02 75.67 460.46 126.9 449 133.78 456.68 131.37 460.46 126.9 453.08 76.25 468.59 75.36 455.42"/><polygon class="cls-25" points="97.94 382.79 89.25 357.89 35.33 345.34 35.33 342.27 90.13 354.03 98.39 381.52 97.94 382.79"/><polygon class="cls-25" points="103.12 368.33 92.34 348.48 42.28 327.83 48.96 318.83 95.02 340.32 104.62 364.16 103.12 368.33"/><polygon class="cls-25" points="61.22 105.94 109.22 87.82 118.46 105.94 156.52 98.39 166.26 113.11 167.76 100.46 162.29 82.78 120.08 82.78 112.09 65.16 66.1 82.78 61.22 105.94"/><polygon class="cls-35" points="125.13 274.48 141.16 267.96 141.82 262.28 125.13 274.48"/><polygon class="cls-40" points="117.01 222.57 102.83 120.31 84.48 213.71 81.3 228.9 101.43 273.54 117.01 222.57"/><polygon class="cls-38" points="77.13 440.8 75.36 455.42 79.02 515.52 54.41 546.97 35.33 563.77 35.33 522.07 37.48 515.52 65.66 429.71 77.13 440.8"/><polygon class="cls-38" points="209.2 565.64 187.56 597.89 108.55 597.89 109.22 581.98 209.2 565.64"/><polygon class="cls-37" points="168.78 552.61 174.42 548.69 186.16 546.97 168.78 552.61"/><polygon class="cls-37" points="166.94 536.91 168.78 538.24 172.41 542.37 165.17 538.05 166.94 536.91"/><polygon class="cls-37" points="124.25 503.51 126.9 503.51 129.05 506.05 124.25 503.51"/><polygon class="cls-25" points="132.46 435.17 137.38 428.98 141.27 432.36 132.46 435.17"/><polygon class="cls-37" points="136.86 386.26 138.04 382.79 141.16 382.39 136.86 386.26"/><polygon class="cls-37" points="139.5 380.35 139.01 379.19 140.6 377.49 139.5 380.35"/><polygon class="cls-25" points="129.67 80.97 129.12 46.58 131.62 31.18 129.67 80.97"/><polygon class="cls-25" points="136.08 73.61 144.84 65.16 147.87 65.16 136.08 73.61"/><polygon class="cls-34" points="121.43 398.89 127.78 422 131.54 425.61 121.43 398.89"/><polygon class="cls-41" points="89.92 568.76 84.15 531.83 73.34 545.18 89.92 568.76"/><polygon class="cls-22" points="140.29 464.64 158.87 492.57 199.59 531.83 156.21 460.46 140.29 464.64"/><polygon class="cls-42" points="47.03 354.65 49.88 338.2 52.43 338.21 47.03 354.65"/><polygon class="cls-42" points="65.57 407.73 61.78 398.64 63.68 391.6 65.57 407.73"/><polygon class="cls-25" points="80.92 144.46 77.13 135.37 79.02 128.33 80.92 144.46"/><polygon class="cls-25" points="59.07 31.54 55.28 22.45 57.18 15.41 59.07 31.54"/><polygon class="cls-42" points="54.77 422.54 52.25 424.63 52.25 429.85 54.77 422.54"/><polygon class="cls-38" points="80.15 385.6 89.46 406.42 83.66 422.58 76.62 396.34 80.15 385.6"/><polygon class="cls-21" points="107.32 563.77 157.47 531.11 123.68 540.49 107.32 563.77"/><path class="cls-6" d="M179.51,1.4l-144.18,2V597.89h67.51L200.7,567l-77-26.54L118.46,534,79,538.16l34.45-48.84,13.43-23.14v-13.1l4.64-27.47L127.78,422l-8.34-28.36,14.34-.44,7.29-36.76-27.18-18.13L124,337l-5.88-16.69-1.74-30.23,8.72-15.58-3.54-2.82L121.47,252l-1.39-25.8,22.42-46.8-.88-5.91-10-7.81,41.81-113ZM111.06,324.08l-12.74,6.16,3.11-27.46L85.85,279.92l-14.53,9.16L77,252l-5.63-1.59,8.24-11.7,4.25-21.62,33.2,5.44Z"/><polygon class="cls-6" points="75.36 455.42 77.13 440.8 105.55 351.81 98.32 330.24 101.43 302.78 83.04 278.51 86 262.28 76.62 253.71 71.32 250.45 79.07 241.25 109.22 87.82 117.01 2.27 35.33 3.42 35.33 522.07 75.36 455.42"/><polygon class="cls-43" points="685.44 593.95 734.25 576.01 753.53 576.01 820.61 593.95 828.69 599.25 685.72 598.26 685.44 593.95"/><polygon class="cls-21" points="820.61 593.95 764.03 594.83 711.25 588.39 687.12 593.33 685.72 598.26 828.69 599.25 820.61 593.95"/><polygon class="cls-21" points="711.25 588.39 717 598.34 762.08 598.79 762.54 594.64 711.25 588.39"/><polygon class="cls-44" points="661.95 557.43 704.3 560.09 762.67 558.33 765.11 556.39 738.24 554.21 661.95 557.43"/><polygon class="cls-45" points="742.4 557.43 736.37 543.98 706.7 538.88 669.62 551.86 660.33 557.43 742.4 557.43"/><polygon class="cls-21" points="736.37 543.98 731.92 548.38 696.14 553.39 669.62 551.86 661.95 557.43 742.4 557.43 736.37 543.98"/><polygon class="cls-21" points="697.15 553.25 699.95 557.43 737.34 557.43 731.92 548.38 697.15 553.25"/><polygon class="cls-44" points="671.54 582.58 684.26 586.11 703.66 583.64 695.24 582.58 671.54 582.58"/><polygon class="cls-46" points="671.54 582.58 677.61 577.52 684.77 576.01 686.94 576.01 695.24 582.58 684.18 584.85 671.54 582.58"/><polygon class="cls-21" points="686.94 576.01 689.12 578.9 686.94 581.06 671.54 582.58 684.18 584.85 695.24 582.58 686.94 576.01"/><polygon class="cls-21" points="686.94 581.06 684.18 584.85 671.54 582.58 686.94 581.06"/><polygon class="cls-44" points="294.89 531.25 306.87 533.04 324.57 532.15 311.46 530.13 294.89 531.25"/><polygon class="cls-44" points="360.08 529.96 407.99 531.77 439.7 529.15 446.97 527.49 373.5 526.58 360.08 529.96"/><polygon class="cls-47" points="383.44 529.35 380.99 523.82 370.23 513.77 363.15 513.77 356.39 525.66 360.08 529.96 383.44 529.35"/><polygon class="cls-48" points="370.23 513.77 376.48 520.95 375.15 522.69 360.03 526.58 356.39 525.66 360.08 529.96 383.44 529.35 380.99 523.82 370.23 513.77"/><polygon class="cls-48" points="360.03 526.58 360.08 529.96 383.44 529.35 375.15 522.69 360.03 526.58"/><polygon class="cls-49" points="386.82 528.43 395.73 519.51 415.11 518.18 420.65 523.31 416.3 528.59 386.82 528.43"/><polygon class="cls-48" points="395.73 519.51 390.24 525.01 391.7 526.81 412.71 524.13 414.85 520.98 415.11 518.18 420.65 523.31 416.3 528.59 386.82 528.43 395.73 519.51"/><polygon class="cls-48" points="391.7 526.81 393.09 528.59 416.3 528.59 412.71 524.13 391.7 526.81"/><polygon class="cls-50" points="311.46 530.13 307.16 525.42 300.6 526.13 294.89 531.25 307.72 531.77 311.46 530.13"/><polygon class="cls-48" points="307.16 525.42 307.99 528.59 299.84 529.58 294.89 531.25 307.72 531.77 311.46 530.13 307.16 525.42"/><polygon class="cls-48" points="307.99 528.59 307.72 531.77 301.86 531.53 299.84 529.58 307.99 528.59"/><polygon class="cls-51" points="416.59 527.1 417.82 520.23 431.79 514.58 435.6 515.71 431.54 528.33 418.42 529.15 416.59 527.1"/><polygon class="cls-48" points="416.59 527.1 427.57 524.64 435.6 515.71 431.54 528.33 418.42 529.15 416.59 527.1"/><polygon class="cls-48" points="428.59 523.51 431.54 528.33 418.42 529.15 416.59 527.1 428.59 523.51"/><path class="cls-52" d="M721.44,489.23S718.59,485,714.65,479s-9-13.89-13.34-21.14c-2.39-4-4.58-7.78-6.27-11a135.17,135.17,0,0,1-8.07-20c-.46-1.38-.89-2.73-1.3-4.05-2.74-8.89-4.41-16-4.41-16l-4.75-9.1L674,392.76h0l-7.33-14.07-3.82-7.32c2-2.58,4.67-6.56,4.63-7.23s-4-10.86-5.59-14.88L663,347.4a6,6,0,0,0,4-.77c1.7-1.07,12.46-27.42,14.24-31.81.17-.4.25-.62.25-.62l1.85-2.84a91.16,91.16,0,0,0-7-10.62c-3.06-4.08-9.26-15.94-12.82-22.94h0l4.12-3.85.07-.07.9-.83S658.39,251.48,656,242.62s-.1-18-1.42-19.48a15.09,15.09,0,0,0-4-1.25h0c-.44-3.37-1-7.4-1.68-11.61,0,0,0-.06,0-.09-.1-.63-.21-1.27-.31-1.92a.43.43,0,0,1,0-.05l-.3-1.77,0-.28c-.1-.61-.21-1.23-.32-1.84l0-.15c-.09-.55-.2-1.1-.3-1.65,0-.12,0-.24-.07-.36-.11-.6-.22-1.19-.34-1.77l0-.2c-.1-.52-.2-1-.31-1.55,0-.14-.05-.27-.08-.4l-.36-1.7c0-.06,0-.12,0-.18-.11-.5-.22-1-.33-1.48,0-.14-.06-.27-.1-.41-.12-.53-.25-1.06-.37-1.58a1.24,1.24,0,0,1,0-.16l-.36-1.39c0-.13-.07-.26-.1-.39-.13-.49-.26-1-.4-1.45l0-.11c-.13-.44-.25-.87-.38-1.29,0-.11-.07-.22-.11-.34l-.42-1.29,0-.06c-.14-.39-.27-.77-.41-1.14,0-.1-.08-.2-.11-.29l-.44-1.1h0a10.42,10.42,0,0,0-2.4-3.78c-1.54-1.28-4.27-2.12-7.57-2.64h0c-10.89-1.71-28.06,0-29.85,1-.46.24-1.61,2.14-3.17,5l-8.87,3.22-16,13.07-1,.8h0l-1.13-1.33-3.22,2.14-1.56.22-1.67.25L528.64,233v0c0,.71.14,14.35,1.16,18.13.1.4.64.95,1.53,1.62l.08.06c.2.15.4.3.63.45l.36.25.47.31.46.3.47.29.55.34.47.28.63.37.49.28.7.41.47.26.81.45.41.22.93.51.25.13c1.68.91,3.51,1.86,5.43,2.84h0l1.38.7.18.09,1.32.67.28.14,1.32.65.26.13,1.37.68.2.1,1.41.69.18.09c2,1,4.1,2,6.09,3l.06,0,.93.45.85.41.37.18,3.72,1.8h0l1.35.66h0l1.29.63,0,0,1.8.88h0l-.91-.45-1.51-.75s.42,2.1,1.1,5.42a32,32,0,0,1-3.16,6.14c-4.62,7-15.87,16.71-16.73,19.77a17.88,17.88,0,0,0-.33,6.58l3.5,8.12a47.61,47.61,0,0,1-.29-10.13c.47-5.16,8.69-14.1,15.23-23.38a35.12,35.12,0,0,0,2.42-4c2.4,11.46,6.67,31.23,9.07,38.27-.13,1.27-.26,2.52-.37,3.72l0,.28-.09.92c0,.24,0,.47-.07.71-.06.63-.12,1.24-.18,1.84s-.11,1.2-.16,1.78c-.07.78-.14,1.53-.21,2.27,0,.18,0,.36,0,.54,0,.55-.09,1.08-.14,1.59,0,.35-.05.69-.08,1s-.06.67-.08,1c-.18,2.15-.31,4-.4,5.57,0,.3,0,.58,0,.86-.06,1.27-.08,2.29-.06,3,0,.13,0,.25,0,.36h0c0,.05,0,.1,0,.15h0c0,.05,0,.1,0,.15s0,0,0,.05a.22.22,0,0,0,0,.08,2.24,2.24,0,0,0,0,.31c-.31,1-.64,2-1,3-1.37,4.24-2.91,9-4.43,13.74-1.59,5-3.17,9.9-4.53,14.21l-.84,2.68C560,394.34,553,412,553,412a87.86,87.86,0,0,0,13.37,5.63c-.48,2.67-.83,4.52-.93,4.94s-.34,1.18-.6,2c-.81,2.44-2.05,5.68-2.05,5.68l.06.14.33.78.75,1.85q.46,1.15,1.08,2.73c3.26,8.37,9.32,25,12.55,40.87a.68.68,0,0,1,0,.14c-2.76.67-4.78,1.22-4.78,1.22l3.84,11.87.11,21.23-.33,5.1-6.54,14.57a18.22,18.22,0,0,0,.11,3.54,19.56,19.56,0,0,0,.49,2.55l0,.1c.07.27.14.54.23.81a2,2,0,0,0,.08.22c.08.24.16.47.25.7s.08.19.12.29.17.43.27.64l.18.35a6.1,6.1,0,0,0,.29.57c.07.14.16.27.24.41l.31.5c.09.15.21.29.31.44s.21.29.32.44.26.3.4.46.21.26.33.38.32.31.48.46.22.23.34.33l.58.46c.12.09.23.19.36.28s.44.29.68.44.23.16.36.23.52.27.78.4l.38.19c.28.13.59.24.89.35l.4.15c.31.11.65.2,1,.29l.17,0,.11,0,.1,0,.14,0h0c-1.4-3.75-.22-8.53,4.75-9.9a29.39,29.39,0,0,1,10.18-.87c.18-.37.36-.75.52-1.13l.15-.33a66.68,66.68,0,0,0,2.38-6.47c0-.14.09-.29.14-.43l.09-.31.09-.31c0-.13.08-.26.12-.4s.11-.37.17-.56c.16-.57.31-1.13.45-1.66.07-.24.12-.47.18-.69.13-.5.24-1,.35-1.41,0-.14.06-.27.1-.4s.09-.41.13-.6.1-.43.14-.62l.06-.26c.24-1.13.35-1.79.35-1.79h1.66s.11-.18.26-.42a83.31,83.31,0,0,0,4.7-9.26l0,0c.06-.13.12-.26.17-.4l0-.08c.06-.13.11-.26.16-.39l.3-.76.18-.48c0-.06,0-.12.07-.19l.09-.26.2-.57c.07-.21.14-.42.2-.63s.13-.41.19-.62.12-.41.17-.62.11-.39.15-.58.09-.41.13-.61.08-.37.11-.55.05-.4.08-.59l.06-.5c0-.2,0-.39,0-.58a3.09,3.09,0,0,0,0-.43,5.22,5.22,0,0,0-.05-.58c0-.11,0-.23,0-.34a4.11,4.11,0,0,0-.23-.8,2.81,2.81,0,0,0-.58-.92l-1.13-1.23-1.48-1.56c-2.52-2.64-5.59-5.77-5.59-5.77V486.2l-2.26-2.86,0-9.25h-3c.05-10.35.12-23.5.2-24.64.12-1.89-6.21-15.09-6.21-15.09l.55-2.93-.69-1.39,2.3-6.82a110.75,110.75,0,0,0,15,.55,101.32,101.32,0,0,0,16.56-1.93c.52,4.72.92,8.26,1,9.13.41,3.31-.78,12.37-.78,12.37l.21.5.71,1.61,3.08,7s.82,3.42,1.85,8.4,2.26,11.52,3.09,17.77a93.79,93.79,0,0,1,.94,11.4,27.08,27.08,0,0,1-.37,5.1c-4.33.76-7.91,1.43-7.91,1.43l3.23,13.62-4.56,10-3.2,2.66a38.56,38.56,0,0,0-5.44.6c-2,.37-3.74,5.43-4,8.79-.13,1.55.07,2.74.69,2.95h0l.06,0,.34.09h.07l.91.21.21,0,.42.09.22,0,.3.06.26.06.36.07.91.18.54.1.56.1.38.07.32.06,1.31.24.36.06c1.13.19,2.36.4,3.66.6l.7.11,1.07.16.36.06.74.11.74.1,1.42.2.58.07.67.09h.11l.2,0h0l.71-.08.59-.08.35,0,1-.12.38,0,1-.12,2.11-.25.21,0h0l.24,0,.31,0,.22,0,.78-.09h.21l0,1.82H638l1,.08.45,0,.33,0,.31,0h.09l.72,0,.79,0,.26,0,1.33,0h.42l1.27,0h1c.83,0,1.64,0,2.42,0H649l.28,0,.51,0,.55,0h.65l.37,0,.16,0,.59-.06,1.14-.16a2.2,2.2,0,0,0,.37-.06c.56-.09,1.09-.2,1.59-.32l.17,0,.41-.11L655,532s-.25,0,.19-2.77S652.42,513,652.42,513l-2.81-1.35,2-1,2.08-16.12a23.5,23.5,0,0,0-3.14-1c.8-9.91,2.75-35,2.4-38.34-.43-4.2-4.69-14.86-4.69-14.86l.25-3.79-.85-1.37.89-7.61,1.38-14.62c2.17-1,4-2,5.52-2.83l1.09-.62.23-.13.44-.26.22-.12.45-.27.31-.19c.44-.26.81-.49,1.1-.68l.1-.06.21-.14.08-.05.38-.26L660,407l-4.82-29.88-.49-3.21,1.14,0c2.05,3.54,5.63,9.69,9.29,15.87l1.11,1.88h0c4.51,7.59,8.93,14.84,10.57,16.95,1.15,1.5,2.52,6.08,3.86,11.75.18.78.37,1.58.55,2.39.45,2,.89,4.08,1.31,6.19v0h0c.77,3.79,1.49,7.63,2.1,11.05a.6.6,0,0,0,0,.12c.94,5.49,1.87,11,2,11.8,0,.07,0,.11,0,.11l0,0h0l.35.4.44.53.26.31s0,0,0,.05l.31.37,0,0,.29.35.86,1.09c2,2.53,5.45,7,11.23,14.74.73,1,1.49,2.05,2.27,3.18l.58.87q.6.87,1.2,1.8l.3.46c1.36,2.08,2.75,4.32,4.15,6.65l.5.82,0,0,.48.81.5.84c.16.28.33.56.5.84l.41.71c.2.33.39.67.58,1l.69,1.18.63,1.1c.41.73.83,1.46,1.25,2.19l.62,1.1c.09.16.18.32.26.48l.49.86,1.08,1.95s0,0,0,0c.2.35.39.7.58,1l.3.54c.5.9,1,1.8,1.47,2.68.16.31.33.63.5.93l.91,1.69.11.21,1.25,2.32c1.86,3.5,3.51,6.68,4.86,9.28l.36.69c1,2,1.88,3.69,2.44,4.8.06.11.11.22.16.32l.37.72.09.18.17.35,2.09-1.15Zm-148-214.65.6.31.06,0,.61.32.18.1.45.25.1.06h0l.1.06,0,0h0l0,0a2.45,2.45,0,0,1,.29.18,4.12,4.12,0,0,1,.36.25l.12.14,0,0a3.31,3.31,0,0,1,.39,1,35.85,35.85,0,0,1,.85,5.26c.1.87.18,1.8.27,2.78s.16,2,.23,3.05Zm12-42.69-.52,0-.16,0-.45,0-.33,0-.38,0-.69-.06h-.15l-.56,0-.21,0-.49,0-.17,0-.58,0h-1.19l-.06,0c-.37.21-3.86,5.23-3.87,5.25l-9.29,0H563l3.58-2.11,10.69-19.88-.13-1.38-.28-3.17.15-.14h0l.08-.08,2.68-2.53-1.36-1.6h0l.8-.09.22,0,.73,0h.17l.88,0h1.19l.85,0h.32l.64,0,.94,0h.15l.81,0,.39,0h.07l.52-.08.14,0c.2,0,.42-.08.65-.13l.16,0,.8-.19h0c-4.75,10.06-8.88,19.24-8.92,19.88C579.91,226.18,583.22,229.64,585.49,231.89Z"/><path class="cls-52" d="M571.31,273.5h0c.53.26,1,.51,1.48.75l.17.08Z"/><path class="cls-52" d="M575.7,236.77c.07,0,.43,0,.92-.06l0,0Z"/><path class="cls-53" d="M576.46,249.46s1.86,21-8.13,34.9c-6.63,9.26-15,18.17-15.47,23.31a47.39,47.39,0,0,0,.21,10.11l-3.44-8.1a17.91,17.91,0,0,1,.38-6.57c.9-3.05,12.26-12.77,16.94-19.7,7.31-10.82,5.59-23,5.59-23Z"/><path class="cls-54" d="M613.66,199.53s-8.69,2.81-15.83,4.87c-4.22,1.23-7.9,2.19-8.92,2.16-2.72-.09-7.56-.46-9.65.57a1.22,1.22,0,0,1-.6.12c-1.85-.15-3.44-4.82-3.44-4.82l.55-.44,1.86-1.5,16.18-13,19.64-7.05Z"/><path class="cls-55" d="M654.41,231.83l-22.23,8.28-2.78-.37-39.29-5.2s-7.64-7.23-7.53-8.64c0-.64,4.26-9.8,9.11-19.83l.59-1.22c5.85-12.06,12.41-24.94,13.67-25.61,1.8-1,19-2.69,29.92-1h0c3.31.52,6,1.36,7.58,2.64a10.23,10.23,0,0,1,2.36,3.77h0C651.06,197.09,654.41,231.83,654.41,231.83Z"/><path class="cls-56" d="M646.35,355.14l1.07,3,.17.48h0l.66,1.86,4,11.4.81,2.26s1.34.07,3,.1H658c2.07,0,4.1-.06,4.51-.36a2.31,2.31,0,0,0,.29-.28c.35-.37.9-1,1.54-1.88,2-2.56,4.73-6.53,4.7-7.2s-3.92-10.84-5.47-14.85c-.4-1-.64-1.64-.64-1.64l-.81-.48h0l-6-3.59-1.42,1.62-2.34,2.66-.09.11-.09.1Z"/><path class="cls-57" d="M650.88,372.1s9.11-1.21,9.38-1.66l2.73-4.66s-5.54-3.63-6.86-6.58-10-.76-10-.76Z"/><path class="cls-58" d="M531.07,233.61v0c0,.71,0,14.32,1,18.09.1.4.64,1,1.52,1.62,7.28,5.55,38.16,19.43,44,22.84h0l.15.09,0,0a4.79,4.79,0,0,1,.65.43,2.51,2.51,0,0,1,.52,1.14,49.47,49.47,0,0,1,1,8c.27,3.45.47,7.57.63,11.8.11,2.89.19,5.84.26,8.66v0c.22,9.42.25,17.43.25,17.43l.27,8.93-1.13,3.35c-.58,1.74-1.36,4.07-2.26,6.78-.2.59-.41,1.19-.61,1.82-.32,1-.66,2-1,3-1.41,4.23-3,9-4.56,13.71-1.64,4.95-3.26,9.87-4.66,14.17l-.87,2.68c-5.27,16.33-12.43,33.95-12.43,33.95a87.51,87.51,0,0,0,13.35,5.63,117.78,117.78,0,0,0,25.32,5.6,109.48,109.48,0,0,0,15,.56,102.15,102.15,0,0,0,16.61-1.9,114.89,114.89,0,0,0,22.16-6.79q2.49-1.05,4.61-2.06c2.18-1,4-2,5.56-2.83l1.09-.61.23-.13.45-.26.22-.13L659,409l.32-.19c.44-.26.81-.49,1.1-.68l.1-.06.21-.13.09-.06.38-.25-.05-.37-4.58-29.82-.49-3.21-.43-2.77v-.09l-.64-4.18v-.06l-1-6.61-.27-1.76-.16-1-1.42-9.26,0-.11,0-.19-.44-2.88-2.16-14.07-.34-2.25.05-3.37.08-4.52,0-2.23.15-8.25.42-24.05,0-1.87.09-5v-.33l.09-5,.39-22.47-19.15-15.22-4.47-3.55-26.26-.12h-5.3l-5.25.67-1.74.23-3.21.41-4.9.62-1.13,2.41-10.23,0h-3.43l3.61-2.1,10.88-19.82-.37-4.54.15-.14.09-.08,2.7-2.53-1.35-1.59-4.5-5.33L575.53,200l-3.25,2.13-1.56.22-1.68.24Z"/><path class="cls-59" d="M553.94,412.21a87.51,87.51,0,0,0,13.35,5.63,117.78,117.78,0,0,0,25.32,5.6,109.48,109.48,0,0,0,15,.56,102.15,102.15,0,0,0,16.61-1.9,114.89,114.89,0,0,0,22.16-6.79q2.49-1.05,4.61-2.06c2.18-1,4-2,5.56-2.83l1.09-.61.23-.13.45-.26.22-.13L659,409l.32-.19c.44-.26.81-.49,1.1-.68l.1-.06.21-.13.09-.06.38-.25-.05-.37c-1.14-.09-2.3-.16-3.47-.23q-2.94-.18-6-.28c-6.56-.23-13.53-.25-20.61-.11a58.14,58.14,0,0,1-4.2-16.07l0-.35c0-.11,0-.23,0-.33v-.06l0-.23s0-.08,0-.12,0-.28,0-.41,0-.32-.05-.47,0-.18,0-.27l0-.34c0-.2,0-.37,0-.5v-.06a.66.66,0,0,1,0-.13v-.11l-.76,3-3.44,13.41-.84,3.3c-5.67.21-11.33.49-16.82.82-5.86.35-11.52.75-16.82,1.17-4.4.35-8.54.71-12.32,1.05s-7.3.7-10.27,1C558.24,411.69,553.94,412.21,553.94,412.21Z"/><path class="cls-60" d="M563.6,430.39a1.11,1.11,0,0,1,0,.13l.33.79.73,1.84c.31.77.66,1.68,1.06,2.73,3.2,8.35,9.13,25,12.23,40.79,0,.05,0,.09,0,.13.1.5.19,1,.28,1.49.06.27.11.55.16.83.16.92.31,1.85.46,2.76.19,1.24.37,2.39.54,3.47.12.77.24,1.51.35,2.2,1.09,6.81,1.68,9.92,2,11.21a3.29,3.29,0,0,0,.25.78l.05,0c.1-.05,0-.94,0-.94l5-1.43,1-.3,10-2.87-2.29-7.3s.06-5.64.15-12.53c.14-10.33.32-23.45.41-24.58.14-1.89-6.1-15.06-6.1-15.06l.58-2.92-.67-1.39,2.36-6.81,3.68-10.63,1.49-4.28c-10.74.64-20.83,1.46-29.14,2.22-.14.75-.28,1.49-.41,2.2-.35,1.8-.66,3.46-.94,4.89-.5,2.67-.87,4.51-1,4.92s-.34,1.18-.61,2C564.87,427.15,563.6,430.39,563.6,430.39Z"/><path class="cls-61" d="M631.26,503.78h0C631.14,504.29,631.26,503.78,631.26,503.78Z"/><path class="cls-62" d="M622.38,403.63c.11,1.07.22,2.16.33,3.26.19,1.82.37,3.66.56,5.47l.12,1.19c.31,3,.61,6,.87,8.55.48,4.71.85,8.24,1,9.11.39,3.3-.89,12.34-.89,12.34l.22.49.69,1.61,3,7S629.05,456,630,461s2.16,11.5,2.94,17.73a93.78,93.78,0,0,1,.84,11.37,26.76,26.76,0,0,1-.41,5.1l-.12.53c-1.37,5.53-1.86,7.45-2,8l2.11-.33,4.34-.68,10.95-1.7,1.91-3.41s.14-1.53.36-4c.89-9.89,3.06-34.92,2.74-38.26-.39-4.19-4.57-14.83-4.57-14.83l.28-3.78-.84-1.37,1-7.59L651,413.25l.67-6.47c-6.56-.23-13.53-.25-20.61-.11a58.14,58.14,0,0,1-4.2-16.07c0-.35-.08-.67-.11-1,0,0,0-.08,0-.12s0-.28,0-.41,0-.32-.05-.47,0-.18,0-.27l0-.34c0-.2,0-.37,0-.5v-.06a.66.66,0,0,1,0-.13v-.11l-.76,3Z"/><path class="cls-63" d="M631.26,503.78h0C631.14,504.29,631.26,503.78,631.26,503.78Z"/><path class="cls-64" d="M658.36,409.42l.39-.22Z"/><path class="cls-65" d="M670.94,273.68l-1,.89.27-.66Z"/><path class="cls-66" d="M653.38,222.62c-12.77-3-52-9.22-61.68-1.13,0,0-1.28,8.12-1.68,11.14l-5.93-6.26,10.32-1.47S630,217,639.76,207.57s6.11-22.67,6.06-22.88h0C649.34,193,652,211.43,653.38,222.62Z"/><path class="cls-67" d="M659.24,358.66c-7.68.95-71.66-3.36-71.66-3.36a32.75,32.75,0,0,1-3.58-2.4,23.44,23.44,0,0,1-5-5l.88-3s79.42,2.44,80.65,4.91C661.52,351.78,659.91,356.76,659.24,358.66Z"/><path class="cls-57" d="M592.28,204.85l-.59,1.22a15.27,15.27,0,0,1-2.78.49,48.06,48.06,0,0,0-7.76.05l-4.5-5.33,1-.79,5.33,4.78A56,56,0,0,0,592.28,204.85Z"/><path class="cls-68" d="M564.8,413l3.43-.08c5.15-.1,15.62-.26,28.06-.14,8.48.08,17.86.29,27.1.74,8,.39,15.93.95,23,1.76q2.49-1.05,4.61-2.06c2.18-1,4-2,5.56-2.83l1.09-.61.23-.13.45-.26.22-.13L659,409l.32-.19c.44-.26.81-.49,1.1-.68l.1-.06.21-.13.09-.06.38-.25-.05-.37-4.58-29.82-.47-3.2-.38-2.68,0-.19-.82-5.63-.39-2.7h0l-.63-4.27-.14-1-1.37-9.38,0-.12v-.06l-.22,0-60-8.49-8.69-1.23L581.79,345l-1.22,4.89-.75,3-3.42,13.69L565.31,411Z"/><path class="cls-69" d="M652.64,338.46c0,1.78.25,5.1,2,7.17a5.11,5.11,0,0,0,2.83,1.69,18,18,0,0,1,4.54,1.5h0c1.26.68,1.31,1.2,1.31,1.2l.19-.3,1.16-1.86a6.11,6.11,0,0,0,4-.76c1.71-1.07,12.72-27.35,14.55-31.73.17-.4.25-.62.25-.62l1.88-2.82a91.1,91.1,0,0,0-6.91-10.62c-3-4.07-9.15-15.91-12.65-22.9h0c-.34-.65-.64-1.26-.92-1.82-.41-.83-.77-1.54-1-2.1l-.69-1.4-9.31-2.49s.4,1.49,1,3.85c.31,1.21.69,2.66,1.09,4.26.58,2.24,1.21,4.77,1.84,7.35.43,1.75.86,3.53,1.25,5.25,1,4.26,1.82,8.18,2.16,10.59.5,3.64-1.33,11.6-3.41,19-2,7.24-4.31,14-4.93,15.8-.11.31-.16.48-.16.48S652.65,337.7,652.64,338.46Z"/><path class="cls-70" d="M591.43,232.86l-2.1,17.52-.5,4.12s0-.09-.08-.27c-.54-1.89-3.8-13.1-5.32-16.07-.22-.43-.41-.69-.54-.73a23.37,23.37,0,0,0-4.72-.05s3.56-5,3.93-5.23l.07,0C583,232,591.43,232.86,591.43,232.86Z"/><path class="cls-71" d="M585.88,305.79s-1.43,9.72-3.22,13.77c-.65,1.47-1.35,2.2-2,1.43-2.58-2.88-11.51-49.11-11.51-49.11l1.52.74,5,2.48Z"/><path class="cls-65" d="M583.66,319.39c.26.25-1.44.65-1,.17q.23-.53.45-1.17A3.93,3.93,0,0,0,583.66,319.39Z"/><path class="cls-65" d="M585.88,305.79a90.23,90.23,0,0,1-2.77,12.6c-.63-1.45-1.57-4.28-2.65-7.88C577,299,572,279.74,570.63,272.62l4.53,2.25.48.23h0L580.26,289l2,6.09.43,1.27Z"/><path class="cls-72" d="M577.36,343.6c0,.13,0,.25,0,.36h0v.15a.76.76,0,0,1,0,.15s0,.09,0,.13a2.24,2.24,0,0,0,.05.31c0,.11.06.23.1.35s.12.37.19.55l.13.33c0,.12.11.24.17.36l.08.18c.16.3.33.59.51.89l.13.21c.08.11.15.22.22.33l.27.37.21.28.07.08.25.32c.25.3.51.59.78.88A27.24,27.24,0,0,0,584,352.9c.54.41,1.06.79,1.53,1.1l.46.31c.46.31.85.55,1.12.71l.1.06.37.22H588l1.32.09.37,0,1.45.09.51,0h.17l.35,0,4.75.31.41,0h.1l.52,0L599,356l.55,0,1.69.1.31,0,.27,0,.59,0,1.21.07,1.22.08.63,0,.19,0,2.49.15.55,0,.31,0,1,.06h.05l1.24.07,1.44.09,1.29.07.79.05.69,0h0l6.41.37.71,0H623l.42,0,.72,0h.25l2.09.11.53,0,.7,0,1.53.08.61,0h.08l.63,0,1.53.08.58,0,.66,0h0l1.39.07.67,0,.7,0,.68,0,.66,0h0l1.1,0h.23l.66,0,.38,0h.27l.63,0,1.29.05.63,0,.86,0h.37l.6,0h.2l1.45.06h.12l.69,0,.63,0H649l.53,0,1.13,0,1,0h6l.45,0h.1l.39,0h0l.23,0,.18,0,.16,0h.11l.14,0a2.5,2.5,0,0,0,.37-.09l.17-.1.09-.06.08-.07a1.73,1.73,0,0,0,.23-.29,1,1,0,0,0,.08-.11.75.75,0,0,1,.07-.12,2.44,2.44,0,0,0,.14-.28l.12-.3h0c.06-.16.12-.34.18-.52a1.33,1.33,0,0,1,.05-.19,1.82,1.82,0,0,0,.07-.25l.09-.37c.07-.3.14-.61.2-.95,0-.15,0-.3.08-.46.08-.51.15-1.05.22-1.63l.06-.58c0-.38.07-.77.1-1.18.06-.67.1-1.37.14-2.09a1,1,0,0,1,0-.17v0c0-.12,0-.23,0-.35,0-.28,0-.56,0-.85v-.14c0-.59,0-1.18,0-1.77,0-.16,0-.33,0-.49s0-.31,0-.47v-.63c.07-6.44-.27-12.59-.27-12.59l9.27-11.05-5.31-28.91-1.24-6.71-.84-4.58,2-1.85h0l4.16-3.84.08-.06.9-.83s-10-21.53-12.29-30.37.05-17.92-1.26-19.44a15.09,15.09,0,0,0-4-1.25l-.26-.06a225,225,0,0,0-26.38-4.21c-14.38-1.45-29.54-1.48-35,3.14,0,0,0,.11-.05.34,0,0,0,.06,0,.1,0,.26-.08.63-.15,1.11,0,.11,0,.22,0,.33l-.21,1.53c0,.4-.11.84-.17,1.32s-.11.85-.17,1.31c0,.08,0,.17,0,.26-.14,1.1-.31,2.33-.48,3.67,0,.24-.07.49-.1.73-.06.49-.13,1-.2,1.52l-.12.93q-.23,1.71-.48,3.6c0,.38-.09.76-.14,1.14-.11.8-.22,1.62-.33,2.47-.08.66-.17,1.34-.26,2s-.15,1.12-.22,1.69c-.17,1.33-.35,2.69-.53,4.08s-.33,2.59-.5,3.91c0,0,0,0,0,0-.38,2.94-.77,6-1.17,9.14-.07.59-.15,1.18-.23,1.78s-.17,1.35-.26,2c-.21,1.71-.43,3.44-.65,5.18-.08.65-.17,1.31-.25,2-.39,3.11-.78,6.25-1.17,9.39-.1.79-.2,1.57-.29,2.36s-.2,1.57-.29,2.35-.2,1.56-.29,2.34c-.14,1.17-.29,2.34-.43,3.51-.06.46-.11.93-.17,1.4s-.14,1.14-.2,1.7l-.12,1c-.2,1.64-.4,3.28-.59,4.89a.88.88,0,0,1,0,.16c-.14,1.21-.28,2.4-.42,3.58-.37,3.16-.72,6.23-1.05,9.16-.27,2.34-.52,4.59-.75,6.73a2.66,2.66,0,0,1,0,.28c0,.31-.07.62-.1.92s0,.47-.07.71c-.07.62-.13,1.23-.19,1.84s-.13,1.19-.19,1.77c-.07.77-.15,1.53-.22,2.26l-.06.54q-.07.82-.15,1.59c0,.35-.06.68-.09,1l-.09,1c-.19,2.13-.34,4-.44,5.55,0,.3,0,.58-.06.85C577.38,341.85,577.35,342.87,577.36,343.6Z"/><path class="cls-65" d="M577.36,343.6c0,.13,0,.25,0,.36h0a.76.76,0,0,1,0,.15h0a.76.76,0,0,1,0,.15s0,0,0,.05a.22.22,0,0,0,0,.08,2.24,2.24,0,0,0,.05.31c0,.11.06.23.1.35s.12.37.19.55l.13.33c0,.12.11.24.17.36l.08.18c.16.3.33.59.51.89l.13.21c.08.11.15.22.22.33l.27.37.21.28.07.08.25.32c.25.3.51.59.78.88A27.24,27.24,0,0,0,584,352.9c.54.41,1.06.79,1.53,1.1l.46.31c.46.31.85.55,1.12.71l.1.06.37.22H588l1.32.09.37,0,1.45.09.51,0h.17l.35,0,4.75.31.41,0h.1l.52,0L599,356l.55,0,1.69.1.31,0,.27,0,.59,0,1.21.07,1.22.08.63,0,.19,0,2.49.15.55,0,.31,0,1,.06h.05l1.24.07,1.44.09,1.29.07.79.05.69,0h0l6.41.37.71,0H623l.42,0,.72,0h.25l2.09.11.53,0,.7,0,1.53.08.61,0h.08l.63,0,1.53.08.58,0,.66,0h0l1.39.07.67,0,.7,0,.68,0,.66,0h0l1.1,0h.23l.66,0,.38,0h.27l.63,0,1.29.05.63,0,.86,0h.37l.6,0h.2l1.45.06h.12l.69,0,.63,0H649l.53,0,1.13,0,1,0h6l.45,0h.1l.39,0h0l.23,0,.18,0,.16,0h.11l.14,0a2.5,2.5,0,0,0,.37-.09l.17-.1.09-.06.08-.07a1.73,1.73,0,0,0,.23-.29,1,1,0,0,0,.08-.11.75.75,0,0,1,.07-.12,2.44,2.44,0,0,0,.14-.28l.12-.3h0c.06-.16.12-.34.18-.52a1.33,1.33,0,0,1,.05-.19,1.82,1.82,0,0,0,.07-.25l.09-.37c.07-.3.14-.61.2-.95,0-.15,0-.3.08-.46.08-.51.15-1.05.22-1.63l.06-.58c0-.38.07-.77.1-1.18.06-.67.1-1.37.14-2.09a1,1,0,0,1,0-.17v0c0-.12,0-.23,0-.35,0-.28,0-.56,0-.85v-.14c0-.59,0-1.18,0-1.77,0-.16,0-.33,0-.49s0-.31,0-.47v-.63c.07-6.44-.27-12.59-.27-12.59l9.27-11.05s-5.5.28-13.39.48c-2.61.07-5.47.13-8.49.17-7.09.09-15,.07-22.3-.23-8.18-.33-15.55-1-20-2.27a13.17,13.17,0,0,1-3.1-1.24c-3.35-2.05.11-21.83,1.19-36.12,2.71.91,9.81,3,21.44,4.26a193.68,193.68,0,0,0,22.32,1.09l1.08,0a77.36,77.36,0,0,0,7.88-.52,59,59,0,0,0,6.84-1.22l-.84-4.58,2-1.85h0l1.72-1.59,2.44-2.25a33.56,33.56,0,0,1-5.08,2,62.09,62.09,0,0,1-8.93,2.12c-1.81.3-3.79.54-5.92.71a76.78,76.78,0,0,1-9,.18c-3.66-.14-7.36-.4-10.92-.73-14.16-1.33-26.25-3.76-26.25-3.76l-1.06-.92-1.94-1.68L603,248c0-.23,0-.56-.09-1a105.85,105.85,0,0,0-2.32-14c-1.73-6.9-4.54-13.2-8.93-11.57,0,0,0,.11-.05.34,0,0,0,.06,0,.1,0,.26-.08.63-.15,1.11,0,.1,0,.22,0,.33l-.21,1.53c-.09.76-.21,1.64-.34,2.63,0,.08,0,.17,0,.26-.14,1.1-.31,2.33-.48,3.67,0,.24-.07.49-.1.73s0,.37-.07.55-.09.64-.13,1l-.12.93c-.15,1.14-.31,2.35-.48,3.6,0,.38-.09.76-.14,1.14-.07.54-.14,1.09-.22,1.64,0,.28-.07.55-.11.83-.08.66-.17,1.34-.26,2,0,.33-.08.65-.13,1l-.09.71c-.17,1.33-.35,2.69-.53,4.08l-.18,1.41c-.1.82-.21,1.66-.32,2.5,0,0,0,0,0,0-.37,2.94-.77,6-1.17,9.14-.07.59-.15,1.18-.23,1.78s-.17,1.35-.26,2c-.21,1.71-.43,3.44-.65,5.18-.08.65-.17,1.31-.25,2-.39,3.11-.78,6.25-1.17,9.39-.1.79-.2,1.57-.29,2.36s-.2,1.57-.29,2.35-.2,1.56-.29,2.34c-.14,1.17-.29,2.34-.43,3.51-.06.46-.11.93-.17,1.4s-.14,1.14-.2,1.7l-.12,1c-.2,1.64-.39,3.28-.59,4.89a.88.88,0,0,1,0,.16c-.14,1.22-.28,2.42-.42,3.61q-.24,2.09-.48,4.11c-.2,1.71-.39,3.39-.57,5-.27,2.34-.51,4.59-.75,6.73a2.66,2.66,0,0,1,0,.28c0,.31-.06.62-.1.92s0,.47-.07.71c-.06.62-.13,1.23-.19,1.84s-.12,1.19-.19,1.77c-.07.77-.15,1.53-.22,2.26l-.06.54q-.07.82-.15,1.59c0,.35-.06.68-.09,1l-.09,1c-.19,2.13-.34,4-.44,5.55,0,.3,0,.58-.06.85C577.38,341.85,577.35,342.87,577.36,343.6Z"/><polygon class="cls-65" points="598.52 245.74 654.62 244.78 597.98 240.36 598.52 245.74"/><polygon class="cls-73" points="631.36 245.21 638.07 276.64 637.18 288.32 637.1 309.68 648.51 309.48 645.33 288.94 646.18 277.73 636.19 245.16 631.36 245.21"/><path class="cls-73" d="M653.84,322.23s-8.36,5.28-21.86-.65h0l-.69-.32v-.06l1.37-18.5,18.65,1.42,2.47,17.65Z"/><path class="cls-74" d="M649.46,308s-.51,3.52-6.06,3.1-7.31-3.76-7.31-3.76l-.21-4.41,13.35,1Z"/><path class="cls-74" d="M653.84,322.23s-8.36,5.28-21.86-.65h0l-.69-.34h0l0,0,2.82-1.66,18.34.69,1.33,1.54Z"/><path class="cls-75" d="M577.36,343.6c0,.13,0,.25,0,.36h0s0,0,0,0v.13h0a.76.76,0,0,1,0,.15s0,0,0,.05a.22.22,0,0,0,0,.08,2.24,2.24,0,0,0,.05.31c0,.11.06.23.1.35l.06.19a1.46,1.46,0,0,0,.07.19,7.12,7.12,0,0,0,.36.86l.07.15a.33.33,0,0,0,0,.06c.06.11.12.23.19.34a.53.53,0,0,0,.08.15c.07.13.14.25.22.37s.23.36.35.54a16.46,16.46,0,0,0,1.3,1.62,3.58,3.58,0,0,0,.26.29,0,0,0,0,0,0,0s0,0,0,0l.4.41.39.39,0,0c.14.14.28.28.43.41l.42.38c.59.51,1.17,1,1.74,1.42,1,.79,2,1.42,2.65,1.83l.22.14h0l.17.11.05,0,.1.06h0l.13.08h0l.1.05.11.07H588l.36,0h0l.36,0h.2l.33,0,.18,0h.19l.83.05.23,0h.08l.31,0,.25,0,.26,0h.17l.35,0,.75,0h.13l1.64.1.29,0h.19l.27,0h.17l1.31.09.51,0,.52,0L599,356l.55,0,.55,0,.28,0,.86.05.31,0,.27,0h0l.59,0,1.21.07h.07l.17,0,.37,0h.22l.39,0,4.27.26.92.05h.05l.63,0h0l.57,0,1.63.1,1.12.06.79.05.56,0h.14l6.41.37.71,0H623l.42,0,.72,0,2.34.12.35,0h.34l.54,0h.15l.56,0,1.51.08.63,0h.26l.45,0,.88,0,.5,0h0l.66,0h0l1.29.07h.1l.56,0h.11l.7,0,.68,0,.48,0h.19l1.33.06.66,0,.38,0h.27l.36,0h.27l1.29.05.63,0,.86,0h.59l.38,0h.2l.73,0,.72,0h.12l.69,0,.63,0H649l.53,0h0l.59,0h.59l1.22,0h5.63l.63,0h.67l.15,0,.16,0h.11l.14,0a2.5,2.5,0,0,0,.37-.09l.17-.1.09-.06.08-.07a1.73,1.73,0,0,0,.23-.29,1,1,0,0,0,.08-.11.75.75,0,0,1,.07-.12,2.44,2.44,0,0,0,.14-.28c0-.1.09-.2.12-.3h0c.06-.16.12-.34.18-.52a1.33,1.33,0,0,1,.05-.19,1.82,1.82,0,0,0,.07-.25l.09-.37c.07-.3.14-.61.2-.95,0-.15,0-.3.08-.46.08-.51.15-1.05.22-1.63l.06-.58c0-.38.07-.77.1-1.18.06-.67.1-1.37.14-2.09v-.08a.28.28,0,0,1,0-.09v0c0-.12,0-.23,0-.35l0-.57a2.62,2.62,0,0,1,0-.28v-.14c0-.59,0-1.18,0-1.77,0-.16,0-.33,0-.49s0-.31,0-.47v-.63c.07-6.44-.27-12.59-.27-12.59l9.27-11.05-5.31-28.91-1.24-6.71-.84-4.58,2-1.85h0l4.15-3.83h0l.08-.06.9-.83s-10-21.53-12.29-30.37.05-17.92-1.26-19.44a15.09,15.09,0,0,0-4-1.25l-.26-.06c-5.83-1.27-25-2.11-25-2.11,3.17,5.11,3.27,16.27,3.27,16.27h0l-5,6.19,3.72,31.41.46,3.88-.46.66c-1,1.39-3.17,4.68-3.62,6.64,0,.07,0,.14,0,.2-.43,2.46.69,32.45.53,35.17v.06c-.13,1.59-3.48,5.66-5.6,8.08-1,1.12-1.7,1.89-1.7,1.89l-2.34-.15c-5.86-.42-20.71-1.62-21.73-3.22a1.05,1.05,0,0,1-.12-.4c-.5-3.05,1-20.37,2.3-33,.7-7.21,1.31-12.89,1.38-13.51-.06.35-.35,2.26-.8,5.13h0c-1.87,12-6.38,40.5-7.09,42.51-.58,1.64-8,9.33-13.23,14.61ZM651.47,319l-2.13-.08L635,318.31l1.48-8.67c7,5.64,13,1,13,1Z"/><polygon class="cls-76" points="646.03 279.62 637.97 279.48 637.49 286.54 645.49 286.59 646.03 279.62"/><path class="cls-77" d="M563.6,430.39a1.11,1.11,0,0,1,0,.13l.33.79.73,1.84c.31.77.66,1.68,1.06,2.73,3.2,8.35,9.13,25,12.23,40.79,0,.05,0,.09,0,.13.1.5.19,1,.28,1.49.06.27.11.55.16.83.16.92.31,1.85.46,2.76.19,1.24.37,2.39.54,3.47.12.77.24,1.51.35,2.2,1.09,6.81,1.68,9.92,2,11.21a3.29,3.29,0,0,0,.25.78l.05,0,5.67,3.16s-.42-2.33-.65-5.53l-.06-.81c-.23-3.9-.36-7.45-.42-10.71,0-.16,0-.31,0-.46v-.48c0-.27,0-.54,0-.81,0-3,0-5.66,0-8.16,0-.3,0-.59,0-.87.34-15.37,1.74-22.48-2.06-30.45A24.37,24.37,0,0,0,563.6,430.39Z"/><path class="cls-78" d="M624.32,443.55l.22.49.69,1.61,3,7S629.05,456,630,461s2.16,11.5,2.94,17.73a93.78,93.78,0,0,1,.84,11.37,26.76,26.76,0,0,1-.41,5.1l-.12.53c-1.37,5.53-1.86,7.45-2,8l2.11-.33a51.25,51.25,0,0,0,4-5.18,9,9,0,0,0,1.07-2.15,15.18,15.18,0,0,0,.51-1.83c2.73-12.37-4-39.49-4-39.49s1.41-3,1.07-4.66S624.32,443.55,624.32,443.55Z"/><path class="cls-79" d="M611.83,535.16l0,0h0l.34.09.07,0,.91.21.21,0,.42.09.23.05.3.06.26,0,.36.07.91.18.54.1.55.11.39.07.32.06,1.31.24.35.06c1.14.19,2.37.4,3.67.6l.7.11,1.08.17.36,0,.73.11.75.1,1.42.2.57.08c.23,0,.45,0,.67.09h.12l.2,0h0l.71-.08.6-.07.34,0,1-.12.37,0,1-.12,2.11-.24.22,0h0l.25,0,.31,0,.22,0,.78-.09h.09l.12,0h0l.14,1.83,1,.08.45,0,.33,0,.31,0h.09l.72.05.8,0H642l1.33.06h.42l1.27,0h1c.82,0,1.63,0,2.42,0h.84l.51,0,.56,0,.25,0,.31,0H651l.38,0h.16l.59-.07q.6-.06,1.14-.15l.38-.06c.56-.09,1.09-.2,1.59-.32l.18,0,.4-.11-.64-6.47s-.25,0,.21-2.76-2.68-16.2-2.68-16.2l-2.79-1.35,2-1,2.23-16.09a22.71,22.71,0,0,0-3.14-1,17.67,17.67,0,0,0-1.76-.35c-.34-.05-.69-.09-1-.11a66,66,0,0,0-9.15,1.09c-1.86.29-3.79.62-5.59.93-4.35.75-7.94,1.42-7.94,1.42l3.12,13.59-4.66,10-3.23,2.65a39.8,39.8,0,0,0-5.46.59c-2,.37-3.79,5.42-4.07,8.77C611,533.77,611.21,535,611.83,535.16Z"/><path class="cls-80" d="M611.83,535.16l0,0h0l.34.09.07,0,.91.21.21,0,.42.09.23.05.3.06.26,0,.36.07.91.18.54.1.55.11.39.07.32.06,1.31.24.35.06c1.14.19,2.37.4,3.67.6l.7.11,1.08.17.36,0,.73.11.75.1,1.42.2.57.08c.23,0,.45,0,.67.09h.12l.2,0h0l.71-.08.6-.07.34,0,1-.12.37,0,1-.12,2.11-.24.22,0h0l.25,0,.31,0,.22,0,.78-.09h.09l.12,0h0v1.82H638l1,.08.45,0,.33,0,.31,0h.09l.72.05.8,0H642l1.33.06h.42l1.27,0h1c.82,0,1.63,0,2.42,0h.84l.51,0,.56,0,.25,0,.31,0H651l.38,0h.16l.59-.07q.6-.06,1.14-.15l.38-.06c.56-.09,1.09-.2,1.59-.32l.18,0,.4-.11-.64-6.47c-3.33,0-6.09,0-8.43.09-10.25.46-12.13,2.18-16.58,3.39-4.35-.23-14.42-2.35-19-3.29C611,533.77,611.21,535,611.83,535.16Z"/><path class="cls-63" d="M638.09,507.93l4.18,3.09-4.63,2.79s7.15.5,8.25,5.92a57.09,57.09,0,0,1,.84,12.39,48,48,0,0,1-.72,7.36c.82,0,1.63,0,2.42,0l.56,0h.28l.51,0,.56,0,1.18-.1.59-.07q.6-.06,1.14-.15l.38-.06c.56-.09,1.09-.2,1.59-.32l.18,0,.4-.11-.64-6.47s-.25,0,.21-2.76-2.68-16.2-2.68-16.2l-2.79-1.35,2-1,2.23-16.09a22.71,22.71,0,0,0-3.14-1,17.67,17.67,0,0,0-1.76-.35c-3.87.05-8.55,1.88-10.7,2.81-.74.32-1.18.53-1.18.53l.11,1.62.31,4.5Z"/><path class="cls-63" d="M629.35,538.2h0l.34,0,.71-.08.6-.07.34,0,1-.12.37,0,1-.12,2.11-.24.22,0h0l.25,0,.31,0,.22,0,.78-.09h.09l.12,0h0l0-2.66-6.72,2.13Z"/><path class="cls-81" d="M614.79,524.43s6.28,1.86,7.8,1.85-1.54-3-1.54-3A13.09,13.09,0,0,0,614.79,524.43Z"/><path class="cls-82" d="M569.92,534.21c.47,4.15,2.52,10.71,10.51,12.56h.15c.44.1.9.19,1.38.25a7.62,7.62,0,0,0,1.84.07,1.33,1.33,0,0,0,.28,0,1.09,1.09,0,0,0,.26,0l.21,0,.19,0,.2,0a5.73,5.73,0,0,0,.56-.14l.22-.06.51-.18.11,0,.5-.22.29-.13.23-.13.26-.14.25-.15.25-.16.25-.16c.33-.22.65-.47,1-.73l.23-.2a18.24,18.24,0,0,0,2.42-2.59c.12-.15.24-.31.35-.47q.43-.57.84-1.2l.34-.54c.2-.32.4-.64.59-1l.33-.58c.58-1,1.13-2.14,1.63-3.25l.15-.33a66.39,66.39,0,0,0,2.44-6.46c.05-.14.09-.28.14-.42l.09-.31c0-.1.07-.21.1-.31s.08-.26.13-.4l.16-.55c.17-.58.33-1.14.47-1.67.07-.23.13-.46.19-.68l.36-1.41c0-.14.07-.27.1-.4s.1-.41.14-.6.1-.42.15-.62l.06-.26c.25-1.12.37-1.78.37-1.78h1.65s6.47-14.23,6.88-19.47a2.39,2.39,0,0,0-.29-1.69c-.29-.33-.68-.75-1.12-1.22l-1.46-1.56c-2.5-2.64-5.55-5.77-5.55-5.77v-2.72L599,483.44l0-9.23h-3l-3.86,0h0a34.54,34.54,0,0,0-5.47.72c-1.86.34-3.88.78-5.78,1.22l-1.42.34-1.45.34c-2.78.68-4.8,1.22-4.8,1.22L577,489.87l-.08,21.19-.37,5.08-6.68,14.54A17.94,17.94,0,0,0,569.92,534.21Z"/><path class="cls-63" d="M569.92,534.21c.47,4.15,2.52,10.71,10.51,12.56h.15c.44.1.9.19,1.38.25a7.62,7.62,0,0,0,1.84.07,1.33,1.33,0,0,0,.28,0,1.09,1.09,0,0,0,.26,0l.21,0,.19,0,.2,0a5.73,5.73,0,0,0,.56-.14l.22-.06h0l23.93-47.5a2.39,2.39,0,0,0-.29-1.69c-.29-.33-.68-.75-1.12-1.22l-1.46-1.56c-2.5-2.64-5.55-5.77-5.55-5.77v-2.72L599,483.44l0-9.23h-3l-3.86,0h0a19.84,19.84,0,0,0-5.49,1.59,62.29,62.29,0,0,1-7.28,2.51l1.28,5.09,6,.56,3.26.31-3.23,1.44-3.88,1.73s-.53,6.14-1,11.35c-.16,1.9-.3,3.67-.4,5-.37,4.81-.79,5.46-.85,5.56.1-.1,2.26.06,3.41,4.75.29,1.16-.39,3.26-1.67,5.71a48.28,48.28,0,0,1-6.14,8.88A27.76,27.76,0,0,1,569.92,534.21Z"/><path class="cls-83" d="M572.64,537.67a8.41,8.41,0,0,0,2.94,6.58,12.48,12.48,0,0,0,4.85,2.52h.15c.44.1.9.19,1.38.25a7.62,7.62,0,0,0,1.84.07,1.33,1.33,0,0,0,.28,0,1.09,1.09,0,0,0,.26,0l.21,0,.19,0,.2,0a5.73,5.73,0,0,0,.56-.14l.22-.07a5.08,5.08,0,0,0,.51-.17l.11,0,.5-.22.29-.13.23-.13.26-.14.25-.15.25-.16.25-.16c.33-.22.65-.47,1-.73l.23-.2a18.24,18.24,0,0,0,2.42-2.59c.12-.15.24-.31.35-.47q.43-.57.84-1.2l.34-.54c.2-.32.4-.64.59-1l.33-.58c.58-1,1.13-2.14,1.63-3.25l.15-.33a66.39,66.39,0,0,0,2.44-6.46c.05-.14.09-.28.14-.42l.09-.31c0-.1.07-.21.1-.31s.08-.26.13-.4.11-.37.16-.55c.17-.58.33-1.14.47-1.67.07-.23.13-.46.19-.68l.36-1.41c0-.14.07-.27.1-.4s.1-.41.14-.6.1-.42.15-.62l.06-.26c.25-1.12.37-1.78.37-1.78h1.66l.26-.42a82.77,82.77,0,0,0,5-9.67l0-.09c.06-.12.11-.25.16-.38s.21-.5.31-.76c1.57-4,2.45-8,.83-9.83-.29-.33-.68-.75-1.12-1.22l-1.46-1.56c-6.93-5.1-13.7,5.25-16.61,11.34-.12.25-.23.48-.33.71a38.93,38.93,0,0,0-2.31,6.51s-2.38,2.7-5.23,6.41a98.37,98.37,0,0,0-6.14,8.88C574.13,532,572.65,535.32,572.64,537.67Z"/><path class="cls-63" d="M575.58,544.25a12.48,12.48,0,0,0,4.85,2.52h.15c.44.1.9.19,1.38.25a7.62,7.62,0,0,0,1.84.07,1.33,1.33,0,0,0,.28,0,1.09,1.09,0,0,0,.26,0l.21,0,.19,0,.2,0a5.73,5.73,0,0,0,.56-.14l.22-.07a5.08,5.08,0,0,0,.51-.17l.11,0,.5-.22.29-.13.23-.13.26-.14.25-.15.25-.16.25-.16c.33-.22.65-.47,1-.73l.23-.2a18.24,18.24,0,0,0,2.42-2.59c.12-.15.24-.31.35-.47q.43-.57.84-1.2l.34-.54c.2-.32.4-.64.59-1l.33-.58c.58-1,1.13-2.14,1.63-3.25l.15-.33a66.39,66.39,0,0,0,2.44-6.46c.05-.14.09-.28.14-.42l.09-.31c0-.1.07-.21.1-.31s.08-.26.13-.4.11-.37.16-.55c.17-.58.33-1.14.47-1.67.07-.23.13-.46.19-.68l.36-1.41c0-.14.07-.27.1-.4s.1-.41.14-.6.1-.42.15-.62l.06-.26c.25-1.12.37-1.78.37-1.78h1.66l.26-.42a88,88,0,0,0,5-9.67l0-.09c.06-.12.11-.25.16-.38s.21-.5.31-.76c1.36-3.46,2.22-6.89,1.41-8.91a2.75,2.75,0,0,0-.58-.92c-.29-.33-.68-.75-1.12-1.22l-1.46-1.56c-7.11-5.54-13.71,5.22-16.61,11.34-.12.25-.23.48-.33.71l3.27,2.71c-1.17,3.24-1.92,5.71-1.92,5.71l-3.08-1.08S570.58,537.44,575.58,544.25Z"/><path class="cls-81" d="M577.21,487.62a16.13,16.13,0,0,0,5.09-.57l5.57-2.35s-3.55.11-6.87.33S577.21,487.62,577.21,487.62Z"/><polygon class="cls-81" points="629.35 511.93 633.72 514.02 640.39 510.87 629.35 511.93"/><path class="cls-84" d="M654.48,362.94l0,.12h0l.34,2.67.18,1.42v.06l.51,4,.1.17a.59.59,0,0,1,0,.08.61.61,0,0,0,.07.1c.24.44.72,1.27,1.36,2.39l.17.3c2,3.54,5.56,9.68,9.17,15.85l1.1,1.87h0c4.45,7.57,8.82,14.81,10.44,16.92,1.15,1.49,2.48,6.07,3.77,11.73.18.77.36,1.57.53,2.38.43,2,.85,4.08,1.26,6.18v0h0c.74,3.79,1.43,7.61,2,11a.43.43,0,0,0,0,.11c.11.65.22,1.27.32,1.88.89,5.26,1.48,9.21,1.59,9.9,0,.07,0,.11,0,.11l0,0,0,0,.35.4c.11.13.26.3.43.52l.26.31,0,.05c.09.11.19.23.29.37a.08.08,0,0,1,0,0l.29.36.85,1.07c2,2.54,5.4,7,11.12,14.72.73,1,1.48,2,2.25,3.19.2.28.39.57.58.86.39.58.79,1.18,1.19,1.8l.29.46c1.34,2.08,2.72,4.31,4.1,6.63l.5.83,0,0c.15.27.31.53.47.8l.49.84c.17.28.33.56.49.84l.42.72c.19.32.38.66.57,1l.68,1.18.61,1.09c.42.73.83,1.46,1.24,2.19l.61,1.1c.09.16.18.32.26.48l.48.86c.36.65.72,1.3,1.07,1.95l0,0c.2.35.39.69.57,1l.3.54c.49.9,1,1.8,1.44,2.68.17.31.34.62.5.93l.9,1.68.11.21c.42.79.83,1.56,1.22,2.32,1.84,3.49,3.47,6.66,4.8,9.27.12.23.24.46.35.69,1,2,1.86,3.68,2.41,4.78l.16.33.36.71.09.19.17.34,2.1-1.15-11-32.16s-2.82-4.22-6.72-10.25-8.88-13.87-13.19-21.12c-2.36-4-4.52-7.76-6.19-11a133.24,133.24,0,0,1-7.91-20c-.45-1.38-.87-2.73-1.26-4-2.68-8.87-4.29-15.94-4.29-15.94l-4.68-9.09-2.53-4.92h0l-7.23-14-3.76-7.32-2.26-4.4Z"/><path class="cls-81" d="M629.67,538.24l.48.06-.48-.06Z"/><path class="cls-68" d="M647.77,441.06s-12.95-2.88-12.91-3.47,13.53.07,13.53.07Z"/><polygon class="cls-68" points="588.94 434.33 589.97 431.68 578.46 430.1 588.94 434.33"/><path class="cls-65" d="M591.43,232.86l-1.11,9.22-.51,4.3-.48,4-.58,3.85c-.14-.51-.48-1.68-.93-3.18-1.23-4.11-4.19-13.76-4.87-13.42l2,0-2.83-5.46c.66-.1,5.68.38,8,.61Z"/><path class="cls-85" d="M597.6,276.53a15.38,15.38,0,0,0,1.39.67c4.13,1.83,17.75,6.85,43.94,7.29,12.29.2,21.62-4.89,24.59-7.67l.74-.68,1.69-1.56h0c-.47.24-11.08,5.68-28.9,5a266.83,266.83,0,0,1-37.17-4.49l-1.06-.92-1.94-1.68L603,248c0-.23,0-.56-.09-1l-.66.67Z"/><path class="cls-86" d="M659.85,332.07s-8.61,4-28,3.56-36.2-7.85-36.2-7.85,17.58,3,34.82,4.19A206.09,206.09,0,0,0,659.85,332.07Z"/><path class="cls-87" d="M654,360.55c-13.43-.12-67.65-.6-68.79-.68-.89-.07-5.77-7.49-8.76-12.17.34-1,.68-2,1-3a10.11,10.11,0,0,0,1.53,3.2,23.44,23.44,0,0,0,5,5,32.75,32.75,0,0,0,3.58,2.4s48.57,3.27,66.16,3.49Z"/><path class="cls-88" d="M657.71,407.06q-2.94-.18-6-.28c-6.57-.23-13.54-.25-20.62-.11a58.14,58.14,0,0,1-4.2-16.07c0-.24,0-.47-.08-.68l-.23-2.68v0l.83-3a41.2,41.2,0,0,0,1.69,10.46,39.43,39.43,0,0,0,4,9.91Z"/><path class="cls-66" d="M569,235.31l-3.6,2.1h3.43c-3,1.49-10.94,3.8-25.89-1.23,0,0,16.78,1,24.74-8.45s8.06-15.41,8.06-15.41l-2.21-6.93,6.14,5.42-.15.14.37,4.54Z"/><path class="cls-66" d="M587.82,251.05c-1.7,13.17-3.72,29.06-5.53,44l-2-6.09c-.06-1.06-.13-2.08-.21-3a50.64,50.64,0,0,0-1-8,2.46,2.46,0,0,0-.52-1.14,6,6,0,0,0-.65-.43l0,0-.15-.09h0c-.5-.29-1.17-.65-2-1.08h0l-.48-.23c-9.35-4.79-35-16.53-41.57-21.52l-1.52-1.62c.25.14,34.72,12,42.8,5.27,2.74-2.27,3.1-2.27,3.74-6.66.11-1,.17-2,.19-2.89.21-8.89,1.92-10.17,1.92-10.17l2.17.16h0l.56.71h0C584.54,240.34,586.59,246.94,587.82,251.05Z"/><path class="cls-87" d="M575.64,275.1h0l-.48-.24Z"/><polygon class="cls-87" points="582.89 237.44 582.89 237.44 582.89 237.43 582.89 237.44"/><path class="cls-89" d="M639.52,220.8c-1-.12-2.4-.37-2.4-.37s-.93-8-1.7-8.92-12.66-5.11-14-4,5,12,5,12l-7.17-.9s-5.08-11.3,0-12c5.5-2.08,19,2.87,19.43,5.16.31,1.66,1.83,8.68,2.86,9.23C641.92,221.23,640.3,220.9,639.52,220.8Z"/><path class="cls-65" d="M639.52,220.8c-1-.12-2.4-.37-2.4-.37s-.93-8-1.7-8.92-12.66-5.11-14-4c.48-1.63,15.17,1.86,16.41,4.21C638.92,213.84,637.86,216.21,639.52,220.8Z"/><path class="cls-90" d="M654.48,362.94l0,.12h0l.34,2.67h0l.18,1.42v.06l.51,4,.1.17a.59.59,0,0,1,0,.08.61.61,0,0,0,.07.1c.24.44.72,1.27,1.36,2.39l.87.31h0a55.2,55.2,0,0,1,10.08,4.79l-3.76-7.32-2.26-4.4Z"/><path class="cls-90" d="M666.45,390.13l1.1,1.87a29.85,29.85,0,0,1,7.37,3.85c.56.39,1.13.8,1.71,1.25l0,0h0l1.14.9-2.53-4.92h0a27.56,27.56,0,0,0-6.82-2.62C667.82,390.35,667.14,390.23,666.45,390.13Z"/><path class="cls-90" d="M688.64,453.6c.09.11.19.23.29.37a.08.08,0,0,1,0,0l.29.36.85,1.07c2,2.54,5.4,7,11.12,14.72.73,1,1.48,2,2.25,3.19.2.28.39.57.58.86.39.58.79,1.18,1.19,1.8l.29.46c1.34,2.08,2.72,4.31,4.1,6.63.17.28.34.55.5.83l0,0c.15.27.31.53.47.8l.49.84c.17.28.33.56.49.84l.42.72.57,1,.68,1.18.61,1.09c.42.73.83,1.46,1.24,2.19l.61,1.1c.09.16.18.32.26.48l.48.86c.36.65.72,1.3,1.07,1.95l0,0c.2.35.39.69.57,1l.3.54c.49.9,1,1.8,1.44,2.68.17.31.34.62.5.93l.9,1.68.11.21c.42.79.83,1.56,1.22,2.32,1.84,3.49,3.47,6.66,4.8,9.27.12.23.24.46.35.69,1,2,1.86,3.68,2.41,4.78l.16.33.36.71.09.19.17.34,2.1-1.15-11-32.16s-2.82-4.22-6.72-10.25-8.88-13.87-13.19-21.12a59.21,59.21,0,0,0-7-4.29h0a2,2,0,0,0-.4-.13l-.52-.07a36.22,36.22,0,0,0-5.61,0Z"/><path class="cls-91" d="M667.55,392c4.45,7.57,8.82,14.81,10.44,16.92,1.15,1.49,2.48,6.07,3.77,11.73.18.77.36,1.57.53,2.38.43,2,.85,4.08,1.26,6.18-.12-.77-2.73-17.16-3.37-19.41s-12.44-16-10.55-15.88c1.25.1,3.92,1.47,5.6,2.38.77.43,1.34.76,1.45.83l0,0c-.56-.42-1.12-.81-1.66-1.18A39.6,39.6,0,0,0,667.55,392Z"/><path class="cls-92" d="M654.48,362.94l0,.12h0l.34,2.67h0l0,0a25.17,25.17,0,0,1,5.52,4.41,12.12,12.12,0,0,1,1.18,1.54l1.19,1.93c1.21,2,1.34,2.3,1.34,2.3L658,374.29h0l6.43,2.76h0l7.88,14.66a20.11,20.11,0,0,0-3.8-1.22h0c-1.35-.19,2.66.82,4,2.1a24.2,24.2,0,0,1,2.45,3.24l.05.07c.09.14.17.27.26.39.57.89,1,1.57,1,1.57l5.45,9.44s2.49,12.6,5.59,24.56c.76,2.92,1.55,5.8,2.35,8.44a138.48,138.48,0,0,0,4.64,13.26c.07.15.13.3.19.44a28.49,28.49,0,0,0,1.91,3.91s24.12,30.91,24.92,32.75-4.18,3.48-4.18,3.48l-.61.89h0c.36.65.72,1.3,1.07,1.95l0,0c.2.35.39.69.57,1l.3.54c.49.9,1,1.8,1.44,2.68.17.31.34.62.5.93l.9,1.68.11.21c.42.79.83,1.56,1.22,2.32,1.84,3.49,3.47,6.66,4.8,9.27.12.23.24.46.35.69,1,2,1.86,3.68,2.41,4.78l.16.33.36.71.09.19.17.34,2.1-1.15-11-32.16s-2.82-4.22-6.72-10.25-8.88-13.87-13.19-21.12c-2.36-4-4.52-7.76-6.19-11a133.24,133.24,0,0,1-7.91-20c-.45-1.38-.87-2.73-1.26-4-2.68-8.87-4.29-15.94-4.29-15.94l-4.68-9.09-2.53-4.92h0l-7.23-14-3.76-7.32-2.26-4.4Z"/><path class="cls-91" d="M684,430.48l1.61,9.79a.43.43,0,0,0,0,.11c.89,5.48,1.77,10.95,1.91,11.78,0,.07,0,.11,0,.11l0,0,0,0,.35.4c.11.13.26.3.43.52s.17.19.26.31l0,.05h0c.09.11.19.23.29.37a.08.08,0,0,1,0,0l.29.36.85,1.07,4.33-1.42.73-.24h0c-.09-.3-5.45-17.21-7.91-21.9a3,3,0,0,0-.84-1.18C685.36,430.18,685.84,430.62,684,430.48Z"/><polygon class="cls-93" points="717.63 562.49 689.9 562.49 900.53 592.15 990.17 582.27 926.42 567.9 895.97 572.3 882.43 570.95 733.2 522.9 730.83 522.9 828.97 562.49 655.71 538.46 613.07 535.76 717.63 562.49"/><polygon class="cls-94" points="578.55 545.23 583.53 547.51 688.81 562.34 592.47 542.26 578.55 545.23"/><path class="cls-95" d="M565.7,424.72c-.83,2.43-2.1,5.67-2.1,5.67a1.11,1.11,0,0,1,0,.13h0l9.82,15.56,7.41,30-2.89.55c0,.05,0,.09,0,.13-2.78.68-4.8,1.22-4.8,1.22L577,489.87l-.08,21.19-.37,5.08-6.68,14.54a17.94,17.94,0,0,0,.09,3.53c.47,4.12,2.49,10.64,10.38,12.52l.13,0h.15c.44.1.9.19,1.38.25a7.62,7.62,0,0,0,1.84.07,1.33,1.33,0,0,0,.28,0,1.09,1.09,0,0,0,.26,0l.21,0,.19,0,.2,0a5.73,5.73,0,0,0,.56-.14l.11,0,.11,0,.51-.18.11,0,.5-.22.29-.13.23-.13.26-.14.25-.15.25-.16.25-.16c.33-.22.65-.47,1-.73l.23-.2a18.24,18.24,0,0,0,2.42-2.59c.12-.15.24-.31.35-.47q.43-.57.84-1.2l.34-.54c.2-.32.4-.64.59-1l.33-.58c.58-1,1.13-2.14,1.63-3.25l.15-.33a66.39,66.39,0,0,0,2.44-6.46c.05-.14.09-.28.14-.42l.09-.31c0-.1.07-.21.1-.31s.08-.26.13-.4l.16-.55c.17-.58.33-1.14.47-1.67.07-.23.13-.46.19-.68l.36-1.41c0-.14.07-.27.1-.4s.1-.41.14-.6.1-.42.15-.62l.06-.26c.25-1.12.37-1.78.37-1.78h1.66l.26-.42.16-.28a86.4,86.4,0,0,0,4.12-7.8,2.87,2.87,0,0,0,.18-.4l.36-.79c0-.13.11-.26.17-.4l0-.09c.06-.12.11-.25.16-.38s.21-.5.31-.76l.18-.47c1.26-3.3,2-6.51,1.23-8.44a2.75,2.75,0,0,0-.58-.92c-.29-.33-.68-.75-1.12-1.22l-1.46-1.56c-2.5-2.64-5.55-5.77-5.55-5.77v-2.72L599,483.44l0-9.23h-3c.14-10.33.32-23.45.41-24.58.14-1.89-6.1-15.06-6.1-15.06l.58-2.92-.67-1.39,2.36-6.81a109.48,109.48,0,0,0,15,.56,102.15,102.15,0,0,0,16.61-1.9c.48,4.71.85,8.24,1,9.11.39,3.3-.89,12.34-.89,12.34l.22.49.69,1.61,3,7S629.05,456,630,461s2.16,11.5,2.94,17.73a93.78,93.78,0,0,1,.84,11.37,26.76,26.76,0,0,1-.41,5.1c-4.35.75-7.94,1.42-7.94,1.42l3.12,13.59-4.66,10-3.23,2.65a39.8,39.8,0,0,0-5.46.59c-2,.37-3.79,5.42-4.07,8.77-.14,1.55,0,2.74.66,2.94l0,0h0l.34.09.07,0,.91.21.21,0,.42.09.23.05.3.06.26,0,.36.07.91.18.54.1.55.11.39.07.32.06,1.31.24.35.06c1.14.19,2.37.4,3.67.6l.7.11,1.08.17.36,0,.73.11.75.1,1.42.2.57.08c.23,0,.45,0,.67.09h.12l.2,0h0l.71-.08.6-.07.34,0,1-.12.37,0,1-.12,2.11-.24.22,0h0l.25,0,.31,0,.22,0,.78-.09h.09l.12,0h0v1.82H638l1,.08.45,0,.33,0,.31,0h.09l.72.05.8,0H642l1.33.06h.42l1.27,0h1c.82,0,1.63,0,2.42,0h.84l.51,0,.56,0,.25,0h.13l.18,0H651l.21,0,.17,0h.16l.59-.07q.6-.06,1.14-.15l.38-.06c.56-.09,1.09-.2,1.59-.32l.18,0,.4-.11-.64-6.47s-.25,0,.21-2.76-2.68-16.2-2.68-16.2l-2.79-1.35,2-1,2.23-16.09a22.71,22.71,0,0,0-3.14-1c.89-9.89,3.06-34.92,2.74-38.26-.39-4.19-4.57-14.83-4.57-14.83l.28-3.78-.84-1.37,1-7.59L651,413.25c2.18-1,4-2,5.56-2.83l1.09-.61.23-.13.45-.26.22-.13L659,409l.32-.19c.44-.26.81-.49,1.1-.68l.1-.06.21-.13.09-.06.38-.25-.05-.37-4.58-29.82-.47-3.2h1.15c2,3.54,5.56,9.68,9.17,15.85l1.1,1.87h0c4.45,7.57,8.82,14.81,10.44,16.92,1.15,1.49,2.48,6.07,3.77,11.73.18.77.36,1.57.53,2.38.43,2,.85,4.08,1.26,6.18v0h0c.74,3.79,1.43,7.61,2,11a.43.43,0,0,0,0,.11c.86,5.31,1.72,10.61,1.9,11.69,0,0,0,.07,0,.09s0,.11,0,.11l0,0,0,0,.35.4c.11.13.26.3.43.52l.26.31,0,.05.14.17.15.2a.08.08,0,0,1,0,0l.29.36.85,1.07c2,2.54,5.4,7,11.12,14.72.73,1,1.48,2,2.25,3.19.2.28.39.57.58.86.39.58.79,1.18,1.19,1.8l.29.46c1.34,2.08,2.72,4.31,4.1,6.63l.5.83,0,0c.15.27.31.53.47.8l.49.84c.17.28.33.56.49.84l.42.72c.19.32.38.66.57,1l.68,1.18.61,1.09c.42.73.83,1.46,1.24,2.19l.61,1.1c.09.16.18.32.26.48l.48.86c.36.65.72,1.3,1.07,1.95l0,0c.2.35.39.69.57,1l.3.54c.49.9,1,1.8,1.44,2.68.17.31.34.62.5.93l.9,1.68.11.21c.42.79.83,1.56,1.22,2.32,1.84,3.49,3.47,6.66,4.8,9.27.12.23.24.46.35.69,1,2,1.86,3.68,2.41,4.78l.16.33.36.71.09.19.17.34,2.1-1.15-11-32.16s-2.82-4.22-6.72-10.25-8.88-13.87-13.19-21.12c-2.36-4-4.52-7.76-6.19-11a133.24,133.24,0,0,1-7.91-20c-.45-1.38-.87-2.73-1.26-4-2.68-8.87-4.29-15.94-4.29-15.94l-4.68-9.09-2.53-4.92h0l-7.23-14-3.76-7.32c2-2.56,4.73-6.53,4.7-7.2s-3.92-10.84-5.47-14.85l1.16-1.86a6.11,6.11,0,0,0,4-.76c1.71-1.07,12.72-27.35,14.55-31.73.17-.4.25-.62.25-.62l1.88-2.82a91.1,91.1,0,0,0-6.91-10.62c-3-4.07-9.15-15.91-12.65-22.9h0l1.72-1.59.74-.68,1.69-1.56c-.47.24-11.08,5.68-28.9,5a266.83,266.83,0,0,1-37.17-4.49l-1.06-.92H599.2l-.21,3-.6,8.56h0l-.58,8.37-2.3,33,0,.5-3.38,12.07-1.55,5.53-2.83,10.07,0,.08-3.55,3.5-7.74,7.65-9.16,9-.87,2.68c-5.27,16.33-12.43,33.95-12.43,33.95a87.51,87.51,0,0,0,13.35,5.63c-.5,2.67-.87,4.51-1,4.92S566,423.94,565.7,424.72Z"/><path class="cls-96" d="M597.5,271.47s3-16.92,3-26.39-8.12-22-9.14-22-1.69,18.27-1.69,18.27Z"/><path class="cls-97" d="M722.08,489.44s-2.82-4.22-6.72-10.25-8.88-13.87-13.19-21.12c-2.36-4-4.52-7.76-6.19-11a133.24,133.24,0,0,1-7.91-20c-.45-1.38-.87-2.73-1.26-4-2.68-8.87-4.29-15.94-4.29-15.94l-4.68-9.09-2.53-4.92h0l-7.23-14-3.76-7.32c2-2.56,4.73-6.53,4.7-7.2s-3.92-10.84-5.47-14.85l1.16-1.86a6.11,6.11,0,0,0,4-.76c1.71-1.07,12.72-27.35,14.55-31.73.17-.4.25-.62.25-.62l1.88-2.82a91.1,91.1,0,0,0-6.91-10.62c-3-4.07-9.15-15.91-12.65-22.9h0l4.16-3.84.08-.06.9-.83s-10-21.53-12.29-30.37.05-17.92-1.26-19.44a15.09,15.09,0,0,0-4-1.25h0c-.41-3.37-.94-7.39-1.58-11.59,0,0,0-.06,0-.09-.1-.63-.19-1.27-.3-1.91V209c-.1-.59-.19-1.18-.29-1.78,0-.09,0-.18,0-.27-.1-.61-.21-1.23-.31-1.84l0-.14c-.09-.56-.19-1.11-.29-1.66l-.06-.36c-.11-.59-.21-1.18-.32-1.76l0-.2-.3-1.55c0-.13,0-.27-.08-.4-.11-.57-.23-1.13-.35-1.69a1.16,1.16,0,0,0,0-.18c-.1-.5-.21-1-.32-1.48l-.09-.4q-.18-.81-.36-1.59c0-.05,0-.1,0-.15-.11-.47-.23-.93-.34-1.39,0-.13-.07-.26-.1-.39-.13-.49-.26-1-.39-1.45l0-.1c-.12-.44-.25-.87-.37-1.29,0-.11-.07-.23-.11-.34-.13-.44-.27-.88-.41-1.29a.14.14,0,0,0,0-.06c-.13-.4-.26-.77-.4-1.14,0-.1-.07-.2-.11-.29-.14-.38-.28-.75-.43-1.1h0a10.23,10.23,0,0,0-2.36-3.77c-1.54-1.28-4.27-2.12-7.58-2.64h0c-10.9-1.72-28.12,0-29.92,1-.46.25-1.64,2.14-3.23,5l-8.91,3.2-16.18,13-1,.79h0L575.53,200l-3.25,2.13-1.56.22-1.68.24-38,31.06v0c0,.71,0,14.32,1,18.09.1.4.64,1,1.52,1.62l.09.06c.19.15.39.3.62.45l.36.25.46.31.46.29.47.3.55.33.47.29.63.37.48.28.71.4.47.26.8.45.41.23.93.5.25.14c1.68.9,3.5,1.86,5.41,2.83h0l1.39.71.17.08,1.32.67.28.14,1.31.66.27.13,1.36.67.2.1,1.4.69.18.09c2.05,1,4.1,2,6.09,3l0,0,.93.45.85.41.37.18,3.72,1.8h0l1.36.65h0l1.29.62,0,0,1.8.88h0l-.91-.45-1.52-.74s.41,2.09,1.07,5.4a32.37,32.37,0,0,1-3.23,6.13c-4.68,6.93-16,16.65-16.94,19.7a17.91,17.91,0,0,0-.38,6.57l3.44,8.1a47.39,47.39,0,0,1-.21-10.11c.52-5.14,8.84-14.05,15.47-23.31a34.35,34.35,0,0,0,2.46-4c2.3,11.43,6.41,31.16,8.76,38.19-.14,1.27-.28,2.51-.41,3.71a2.66,2.66,0,0,1,0,.28c0,.31-.07.62-.1.92s0,.47-.07.71c-.07.62-.13,1.23-.19,1.84s-.13,1.19-.19,1.77c-.07.77-.15,1.53-.22,2.26l-.06.54q-.07.82-.15,1.59c0,.35-.06.68-.09,1l-.09,1c-.19,2.13-.34,4-.44,5.55,0,.3,0,.58-.06.85-.07,1.28-.1,2.3-.09,3,0,.13,0,.25,0,.36h0a.76.76,0,0,1,0,.15h0a.76.76,0,0,1,0,.15s0,0,0,.05a.22.22,0,0,0,0,.08,2.24,2.24,0,0,0,.05.31c-.32,1-.66,2-1,3-1.41,4.23-3,9-4.56,13.71-1.64,4.95-3.26,9.87-4.66,14.17l-.87,2.68c-5.27,16.33-12.43,33.95-12.43,33.95a87.51,87.51,0,0,0,13.35,5.63c-.51,2.67-.87,4.51-1,4.92s-.34,1.18-.61,2c-.83,2.43-2.1,5.67-2.1,5.67a1.11,1.11,0,0,1,0,.13l.33.79.73,1.84c.31.77.66,1.68,1.06,2.73,3.2,8.35,9.13,25,12.23,40.79,0,.05,0,.09,0,.13-2.78.68-4.8,1.22-4.8,1.22L577,489.87l-.08,21.19-.37,5.08-6.68,14.54a19.91,19.91,0,0,0,.55,6.07l0,.1c.07.26.14.53.22.8a2.09,2.09,0,0,1,.08.23c.08.23.15.46.24.7l.12.28c.09.22.17.43.27.65s.12.23.17.35l.29.57c.07.13.16.26.24.4s.19.33.3.5l.31.44c.11.14.21.29.32.44l.39.46.33.38c.15.16.32.31.48.46l.34.33c.18.16.38.31.58.46l.35.28c.21.15.45.29.68.43s.23.16.36.23.52.27.78.4a3.37,3.37,0,0,0,.38.19c.28.13.58.24.89.35l.39.16c.32.1.66.19,1,.28l.16,0,.11,0,.11,0,.13,0h.15c.44.1.9.19,1.38.25a5.85,5.85,0,0,0,.72.07l.85.39,2.11.29a6.41,6.41,0,0,1,4.19-3c2.4-.52,4.82-1,7.2-1.56l-4.56-1-.93.2c.15-.18.3-.34.45-.53s.24-.31.35-.47q.43-.57.84-1.2c.11-.18.23-.36.35-.54s.39-.64.58-1l.33-.58c.58-1,1.13-2.14,1.63-3.25,0-.11.1-.22.14-.33a64,64,0,0,0,2.45-6.46c.05-.14.09-.28.14-.42s.06-.2.1-.31l.09-.31.12-.4c.06-.18.12-.37.17-.55.17-.58.33-1.14.47-1.67.07-.23.13-.46.19-.68l.36-1.41c0-.14.07-.27.1-.4s.1-.41.14-.6.1-.42.15-.62l.06-.26c.25-1.12.37-1.78.37-1.78h1.66l.26-.42a85.81,85.81,0,0,0,4.8-9.23l0,0c0-.13.11-.26.17-.4l0-.09c.06-.12.11-.25.16-.38s.21-.5.31-.76l.18-.47c0-.07,0-.13.07-.19s.06-.18.1-.27.14-.37.2-.56.14-.43.21-.64.14-.4.2-.61.12-.41.17-.62.11-.39.16-.58.09-.41.13-.61.08-.37.11-.55.06-.39.09-.59.05-.33.06-.49,0-.39,0-.58,0-.29,0-.43,0-.39,0-.58,0-.23,0-.34a4.1,4.1,0,0,0-.22-.8,2.75,2.75,0,0,0-.58-.92c-.29-.33-.68-.75-1.12-1.22l-1.46-1.56c-2.5-2.64-5.55-5.77-5.55-5.77v-2.72L599,483.44l0-9.23h-3c.14-10.33.32-23.45.41-24.58.14-1.89-6.1-15.06-6.1-15.06l.58-2.92-.67-1.39,2.36-6.81a109.48,109.48,0,0,0,15,.56,102.15,102.15,0,0,0,16.61-1.9c.48,4.71.85,8.24,1,9.11.39,3.3-.89,12.34-.89,12.34l.21.49.7,1.61,3,7S629.05,456,630,461s2.16,11.5,2.94,17.73a93.78,93.78,0,0,1,.84,11.37,26.76,26.76,0,0,1-.41,5.1c-4.35.75-7.94,1.42-7.94,1.42l3.12,13.59-4.66,10-3.23,2.65a39.8,39.8,0,0,0-5.46.59c-2,.37-3.79,5.42-4.07,8.77-.14,1.55,0,2.74.66,2.94l0,0h0l.34.09.07,0,.91.21.21,0,.42.09.23.05.3.06.26,0,.36.07.91.18.54.1.55.11.39.07.32.06,1.31.24.35.06c1.14.19,2.37.4,3.67.6l.7.11,1.08.17.36,0,.73.11.75.1,1.42.2.57.08c.23,0,.45,0,.67.09h.12l.2,0h0l.71-.08.6-.07.34,0,1-.12.37,0,1-.12,2.11-.24.22,0h0l.25,0,.31,0,.22,0,.78-.09h.09l.12,0h0v1.82H638l1,.08.45,0,.33,0,.31,0h.09l.72.05.8,0H642l1.33.06h.42l1.27,0h1c.83,0,1.63,0,2.42,0h.85l.5,0,.56,0,.25,0H651l.38,0h.16l.59-.07q.6-.06,1.14-.15l.38-.06c.56-.09,1.09-.2,1.59-.32l.18,0,.4-.11-.64-6.47s-.25,0,.21-2.76-2.68-16.2-2.68-16.2l-2.79-1.35,2-1,2.23-16.09a22.71,22.71,0,0,0-3.14-1c.89-9.89,3.06-34.92,2.74-38.26-.39-4.19-4.57-14.83-4.57-14.83l.28-3.78-.84-1.37,1-7.59L651,413.25c2.18-1,4-2,5.56-2.83l1.09-.61.23-.13.45-.26.22-.13L659,409l.32-.19c.44-.26.81-.49,1.1-.68l.1-.06.21-.13.09-.06.38-.25-.05-.37-4.58-29.82-.47-3.2h1.15c2,3.54,5.56,9.68,9.17,15.85l1.1,1.87h0c4.45,7.57,8.82,14.81,10.44,16.92,1.15,1.49,2.48,6.07,3.77,11.73.18.77.36,1.57.53,2.38.43,2,.85,4.08,1.26,6.18v0h0c.74,3.79,1.43,7.61,2,11a.43.43,0,0,0,0,.11c.89,5.48,1.77,10.95,1.91,11.78,0,.07,0,.11,0,.11l0,0,0,0,.35.4c.11.13.26.3.43.52l.26.31,0,.05c.09.11.19.23.29.37a.08.08,0,0,1,0,0l.29.36.85,1.07c2,2.54,5.4,7,11.12,14.72.73,1,1.48,2,2.25,3.19l.58.86c.39.58.79,1.18,1.19,1.8l.29.46c1.34,2.08,2.72,4.31,4.1,6.63l.5.83,0,0c.15.27.31.53.47.8s.33.56.49.84.33.56.49.84l.42.72c.19.32.38.66.57,1l.68,1.18.61,1.09c.42.73.83,1.46,1.24,2.19l.61,1.1c.09.16.18.32.26.48l.48.86c.36.65.72,1.3,1.07,1.95l0,0c.2.35.39.69.57,1l.3.54c.49.9,1,1.8,1.44,2.68.17.31.34.62.5.93l.9,1.68.11.21c.42.79.83,1.56,1.22,2.32,1.84,3.49,3.47,6.66,4.8,9.27.12.23.24.46.35.69,1,2,1.86,3.68,2.41,4.78l.16.33.36.71.09.19.17.34,2.1-1.15ZM575.64,275.11l.59.31.07,0,.6.32.19.1.44.25.1.06h0l.1.07,0,0h0l0,0,.29.18a4.12,4.12,0,0,1,.36.25l.12.14,0,0a3.66,3.66,0,0,1,.38,1,35.41,35.41,0,0,1,.81,5.25c.08.87.16,1.79.24,2.78s.14,2,.21,3Zm6.94-49.21c-.07.93,3.22,4.38,5.47,6.63l-.52-.05h-.15l-.46,0-.33,0-.38,0-.69-.06h-.15l-.56-.05h-.22l-.48,0h-.17l-.58,0h-.07l-.41,0h-.71l-.07,0c-.37.21-3.91,5.21-3.93,5.23l-9.3,0h-3.43l3.61-2.1,10.88-19.82-.11-1.38-.26-3.16.15-.14h0l.09-.08,2.7-2.53-1.35-1.59h.05l.81-.09.22,0,.73,0h.17l.88,0h1.19l.86,0h.31l.64,0,1,0h.14l.81,0,.4,0h.07l.53-.08.14,0,.65-.13.16,0,.8-.19h0C586.84,216.1,582.63,225.26,582.58,225.9Z"/><path class="cls-98" d="M722.08,489.44s-2.82-4.22-6.72-10.25-8.88-13.87-13.19-21.12c-2.36-4-4.52-7.76-6.19-11a133.24,133.24,0,0,1-7.91-20c-.45-1.38-.87-2.73-1.26-4-2.68-8.87-4.29-15.94-4.29-15.94l-4.68-9.09-2.53-4.92h0l-7.23-14-3.76-7.32c2-2.56,4.73-6.53,4.7-7.2s-3.92-10.84-5.47-14.85l1.16-1.86a6.11,6.11,0,0,0,4-.76c1.71-1.07,12.72-27.35,14.55-31.73.17-.4.25-.62.25-.62l1.88-2.82a91.1,91.1,0,0,0-6.91-10.62c-3-4.07-9.15-15.91-12.65-22.9h0l4.16-3.84.08-.06.9-.83s-10-21.53-12.29-30.37.05-17.92-1.26-19.44a15.09,15.09,0,0,0-4-1.25h0c-.41-3.37-.94-7.39-1.58-11.59,0,0,0-.06,0-.09-.1-.63-.19-1.27-.3-1.91V209c-.1-.59-.19-1.18-.29-1.78,0-.09,0-.18,0-.27-.1-.61-.21-1.23-.31-1.84l0-.14c-.09-.56-.19-1.11-.29-1.66l-.06-.36c-.11-.59-.21-1.18-.32-1.76l0-.2-.3-1.55c0-.13,0-.27-.08-.4-.11-.57-.23-1.13-.35-1.69a1.16,1.16,0,0,0,0-.18c-.1-.5-.21-1-.32-1.48l-.09-.4q-.18-.81-.36-1.59c0-.05,0-.1,0-.15-.11-.47-.23-.93-.34-1.39,0-.13-.07-.26-.1-.39-.13-.49-.26-1-.39-1.45l0-.1c-.12-.44-.25-.87-.37-1.29,0-.11-.07-.23-.11-.34-.13-.44-.27-.88-.41-1.29a.14.14,0,0,0,0-.06c-.13-.4-.26-.77-.4-1.14,0-.1-.07-.2-.11-.29-.14-.38-.28-.75-.43-1.1h0a10.23,10.23,0,0,0-2.36-3.77c-1.54-1.28-4.27-2.12-7.58-2.64h0c-10.9-1.72-28.12,0-29.92,1-.46.25-1.64,2.14-3.23,5l-8.91,3.2-16.18,13-1,.79h0L575.53,200l-3.25,2.13-1.56.22-1.68.24-38,31.06v0c0,.71,0,14.32,1,18.09.1.4.64,1,1.52,1.62l.09.06c.19.15.39.3.62.45l.36.25.46.31.46.29.47.3.55.33.47.29.63.37.48.28.71.4.47.26.8.45.41.23.93.5.25.14c1.68.9,3.5,1.86,5.41,2.83h0l1.39.71.17.08,1.32.67.28.14,1.31.66.27.13,1.36.67.2.1,1.4.69.18.09c2.05,1,4.1,2,6.09,3l0,0,.93.45.85.41.37.18,3.72,1.8h0l1.36.65h0l1.29.62,0,0,1.8.88h0l-.91-.45-1.52-.74s.41,2.09,1.07,5.4a32.37,32.37,0,0,1-3.23,6.13c-4.68,6.93-16,16.65-16.94,19.7a17.91,17.91,0,0,0-.38,6.57l3.44,8.1a47.39,47.39,0,0,1-.21-10.11c.52-5.14,8.84-14.05,15.47-23.31a34.35,34.35,0,0,0,2.46-4c2.3,11.43,6.41,31.16,8.76,38.19-.14,1.27-.28,2.51-.41,3.71a2.66,2.66,0,0,1,0,.28c0,.31-.07.62-.1.92s0,.47-.07.71c-.07.62-.13,1.23-.19,1.84s-.13,1.19-.19,1.77c-.07.77-.15,1.53-.22,2.26l-.06.54q-.07.82-.15,1.59c0,.35-.06.68-.09,1l-.09,1c-.19,2.13-.34,4-.44,5.55,0,.3,0,.58-.06.85-.07,1.28-.1,2.3-.09,3,0,.13,0,.25,0,.36h0a.76.76,0,0,1,0,.15h0a.76.76,0,0,1,0,.15s0,0,0,.05a.22.22,0,0,0,0,.08,2.24,2.24,0,0,0,.05.31c-.32,1-.66,2-1,3-1.41,4.23-3,9-4.56,13.71-1.64,4.95-3.26,9.87-4.66,14.17l-.87,2.68c-5.27,16.33-12.43,33.95-12.43,33.95a87.51,87.51,0,0,0,13.35,5.63c-.51,2.67-.87,4.51-1,4.92s-.34,1.18-.61,2c-.83,2.43-2.1,5.67-2.1,5.67a1.11,1.11,0,0,1,0,.13l.33.79.73,1.84c.31.77.66,1.68,1.06,2.73,3.2,8.35,9.13,25,12.23,40.79,0,.05,0,.09,0,.13-2.78.68-4.8,1.22-4.8,1.22L577,489.87l-.08,21.19-.37,5.08-6.68,14.54a19.91,19.91,0,0,0,.55,6.07l0,.1c.07.26.14.53.22.8a2.09,2.09,0,0,1,.08.23c.08.23.15.46.24.7l.12.28c.09.22.17.43.27.65s.12.23.17.35l.29.57c.07.13.16.26.24.4s.19.33.3.5l.31.44c.11.14.21.29.32.44l.39.46.33.38c.15.16.32.31.48.46l.34.33c.18.16.38.31.58.46l.35.28c.21.15.45.29.68.43s.23.16.36.23.52.27.78.4a3.37,3.37,0,0,0,.38.19c.28.13.58.24.89.35l.39.16c.32.1.66.19,1,.28l.16,0,.11,0,.11,0,.13,0h.15c.44.1.9.19,1.38.25a5.85,5.85,0,0,0,.72.07l.85.39,2.11.29a6.41,6.41,0,0,1,4.19-3c2.4-.52,4.82-1,7.2-1.56l-4.56-1-.93.2c.15-.18.3-.34.45-.53s.24-.31.35-.47q.43-.57.84-1.2c.11-.18.23-.36.35-.54s.39-.64.58-1l.33-.58c.58-1,1.13-2.14,1.63-3.25,0-.11.1-.22.14-.33a64,64,0,0,0,2.45-6.46c.05-.14.09-.28.14-.42s.06-.2.1-.31l.09-.31.12-.4c.06-.18.12-.37.17-.55.17-.58.33-1.14.47-1.67.07-.23.13-.46.19-.68l.36-1.41c0-.14.07-.27.1-.4s.1-.41.14-.6.1-.42.15-.62l.06-.26c.25-1.12.37-1.78.37-1.78h1.66l.26-.42a85.81,85.81,0,0,0,4.8-9.23l0,0c0-.13.11-.26.17-.4l0-.09c.06-.12.11-.25.16-.38s.21-.5.31-.76l.18-.47c0-.07,0-.13.07-.19s.06-.18.1-.27.14-.37.2-.56.14-.43.21-.64.14-.4.2-.61.12-.41.17-.62.11-.39.16-.58.09-.41.13-.61.08-.37.11-.55.06-.39.09-.59.05-.33.06-.49,0-.39,0-.58,0-.29,0-.43,0-.39,0-.58,0-.23,0-.34a4.1,4.1,0,0,0-.22-.8,2.75,2.75,0,0,0-.58-.92c-.29-.33-.68-.75-1.12-1.22l-1.46-1.56c-2.5-2.64-5.55-5.77-5.55-5.77v-2.72L599,483.44l0-9.23h-3c.14-10.33.32-23.45.41-24.58.14-1.89-6.1-15.06-6.1-15.06l.58-2.92-.67-1.39,2.36-6.81a109.48,109.48,0,0,0,15,.56,102.15,102.15,0,0,0,16.61-1.9c.48,4.71.85,8.24,1,9.11.39,3.3-.89,12.34-.89,12.34l.21.49.7,1.61,3,7S629.05,456,630,461s2.16,11.5,2.94,17.73a93.78,93.78,0,0,1,.84,11.37,26.76,26.76,0,0,1-.41,5.1c-4.35.75-7.94,1.42-7.94,1.42l3.12,13.59-4.66,10-3.23,2.65a39.8,39.8,0,0,0-5.46.59c-2,.37-3.79,5.42-4.07,8.77-.14,1.55,0,2.74.66,2.94l0,0h0l.34.09.07,0,.91.21.21,0,.42.09.23.05.3.06.26,0,.36.07.91.18.54.1.55.11.39.07.32.06,1.31.24.35.06c1.14.19,2.37.4,3.67.6l.7.11,1.08.17.36,0,.73.11.75.1,1.42.2.57.08c.23,0,.45,0,.67.09h.12l.2,0h0l.71-.08.6-.07.34,0,1-.12.37,0,1-.12,2.11-.24.22,0h0l.25,0,.31,0,.22,0,.78-.09h.09l.12,0h0v1.82H638l1,.08.45,0,.33,0,.31,0h.09l.72.05.8,0H642l1.33.06h.42l1.27,0h1c.83,0,1.63,0,2.42,0h.85l.5,0,.56,0,.25,0H651l.38,0h.16l.59-.07q.6-.06,1.14-.15l.38-.06c.56-.09,1.09-.2,1.59-.32l.18,0,.4-.11-.64-6.47s-.25,0,.21-2.76-2.68-16.2-2.68-16.2l-2.79-1.35,2-1,2.23-16.09a22.71,22.71,0,0,0-3.14-1c.89-9.89,3.06-34.92,2.74-38.26-.39-4.19-4.57-14.83-4.57-14.83l.28-3.78-.84-1.37,1-7.59L651,413.25c2.18-1,4-2,5.56-2.83l1.09-.61.23-.13.45-.26.22-.13L659,409l.32-.19c.44-.26.81-.49,1.1-.68l.1-.06.21-.13.09-.06.38-.25-.05-.37-4.58-29.82-.47-3.2h1.15c2,3.54,5.56,9.68,9.17,15.85l1.1,1.87h0c4.45,7.57,8.82,14.81,10.44,16.92,1.15,1.49,2.48,6.07,3.77,11.73.18.77.36,1.57.53,2.38.43,2,.85,4.08,1.26,6.18v0h0c.74,3.79,1.43,7.61,2,11a.43.43,0,0,0,0,.11c.89,5.48,1.77,10.95,1.91,11.78,0,.07,0,.11,0,.11l0,0,0,0,.35.4c.11.13.26.3.43.52l.26.31,0,.05c.09.11.19.23.29.37a.08.08,0,0,1,0,0l.29.36.85,1.07c2,2.54,5.4,7,11.12,14.72.73,1,1.48,2,2.25,3.19l.58.86c.39.58.79,1.18,1.19,1.8l.29.46c1.34,2.08,2.72,4.31,4.1,6.63l.5.83,0,0c.15.27.31.53.47.8s.33.56.49.84.33.56.49.84l.42.72c.19.32.38.66.57,1l.68,1.18.61,1.09c.42.73.83,1.46,1.24,2.19l.61,1.1c.09.16.18.32.26.48l.48.86c.36.65.72,1.3,1.07,1.95l0,0c.2.35.39.69.57,1l.3.54c.49.9,1,1.8,1.44,2.68.17.31.34.62.5.93l.9,1.68.11.21c.42.79.83,1.56,1.22,2.32,1.84,3.49,3.47,6.66,4.8,9.27.12.23.24.46.35.69,1,2,1.86,3.68,2.41,4.78l.16.33.36.71.09.19.17.34,2.1-1.15ZM575.64,275.11l.59.31.07,0,.6.32.19.1.44.25.1.06h0l.1.07,0,0h0l0,0,.29.18a4.12,4.12,0,0,1,.36.25l.12.14,0,0a3.66,3.66,0,0,1,.38,1,35.41,35.41,0,0,1,.81,5.25c.08.87.16,1.79.24,2.78s.14,2,.21,3Zm6.94-49.21c-.07.93,3.22,4.38,5.47,6.63l-.52-.05h-.15l-.46,0-.33,0-.38,0-.69-.06h-.15l-.56-.05h-.22l-.48,0h-.17l-.58,0h-.07l-.41,0h-.71l-.07,0c-.37.21-3.91,5.21-3.93,5.23l-9.3,0h-3.43l3.61-2.1,10.88-19.82-.11-1.38-.26-3.16.15-.14h0l.09-.08,2.7-2.53-1.35-1.59h.05l.81-.09.22,0,.73,0h.17l.88,0h1.19l.86,0h.31l.64,0,1,0h.14l.81,0,.4,0h.07l.53-.08.14,0,.65-.13.16,0,.8-.19h0C586.84,216.1,582.63,225.26,582.58,225.9Z"/></g></g></g></svg>