<svg xmlns="http://www.w3.org/2000/svg" xmlns:xlink="http://www.w3.org/1999/xlink" viewBox="0 0 1022.4 266.55"><defs><style>.cls-1{isolation:isolate;}.cls-2{fill:url(#Áåçûìÿííûé_ãðàäèåíò_45);}.cls-3,.cls-6{fill:#ae24a2;}.cls-11,.cls-12,.cls-13,.cls-14,.cls-17,.cls-18,.cls-19,.cls-21,.cls-22,.cls-23,.cls-24,.cls-26,.cls-3,.cls-34,.cls-35,.cls-36,.cls-37,.cls-40,.cls-42,.cls-44,.cls-45,.cls-46,.cls-47,.cls-49,.cls-6{mix-blend-mode:multiply;}.cls-3{opacity:0.28;}.cls-4,.cls-5,.cls-7,.cls-8{fill:#fd2837;mix-blend-mode:screen;}.cls-4{opacity:0.72;}.cls-5{opacity:0.33;}.cls-6{opacity:0.39;}.cls-7{opacity:0.67;}.cls-8{opacity:0.53;}.cls-9{fill:url(#Áåçûìÿííûé_ãðàäèåíò_44);}.cls-10{fill:url(#Áåçûìÿííûé_ãðàäèåíò_24);}.cls-11,.cls-12,.cls-17,.cls-19,.cls-21,.cls-23,.cls-34,.cls-35,.cls-40,.cls-42,.cls-44,.cls-46,.cls-49{opacity:0.37;}.cls-11{fill:url(#Áåçûìÿííûé_ãðàäèåíò_25);}.cls-12{fill:url(#Áåçûìÿííûé_ãðàäèåíò_25-2);}.cls-13,.cls-14,.cls-22,.cls-24,.cls-26,.cls-36,.cls-37,.cls-45,.cls-47{opacity:0.22;}.cls-13{fill:url(#Áåçûìÿííûé_ãðàäèåíò_25-3);}.cls-14{fill:url(#Áåçûìÿííûé_ãðàäèåíò_25-4);}.cls-15{fill:url(#Áåçûìÿííûé_ãðàäèåíò_24-2);}.cls-16{fill:url(#Áåçûìÿííûé_ãðàäèåíò_24-3);}.cls-17{fill:url(#Áåçûìÿííûé_ãðàäèåíò_25-5);}.cls-18{opacity:0.21;fill:url(#Áåçûìÿííûé_ãðàäèåíò_25-6);}.cls-19{fill:url(#Áåçûìÿííûé_ãðàäèåíò_25-7);}.cls-20{fill:url(#Áåçûìÿííûé_ãðàäèåíò_24-4);}.cls-21{fill:url(#Áåçûìÿííûé_ãðàäèåíò_25-8);}.cls-22{fill:url(#Áåçûìÿííûé_ãðàäèåíò_25-9);}.cls-23{fill:url(#Áåçûìÿííûé_ãðàäèåíò_25-10);}.cls-24{fill:url(#Áåçûìÿííûé_ãðàäèåíò_25-11);}.cls-25{fill:url(#Áåçûìÿííûé_ãðàäèåíò_24-5);}.cls-26{fill:url(#Áåçûìÿííûé_ãðàäèåíò_25-12);}.cls-27{fill:url(#Áåçûìÿííûé_ãðàäèåíò_24-6);}.cls-28{fill:url(#Áåçûìÿííûé_ãðàäèåíò_24-7);}.cls-29{fill:url(#Áåçûìÿííûé_ãðàäèåíò_24-8);}.cls-30{fill:url(#Áåçûìÿííûé_ãðàäèåíò_24-9);}.cls-31{fill:#fdc522;}.cls-32{fill:url(#Áåçûìÿííûé_ãðàäèåíò_24-10);}.cls-33{fill:url(#Áåçûìÿííûé_ãðàäèåíò_24-11);}.cls-34{fill:url(#Áåçûìÿííûé_ãðàäèåíò_25-13);}.cls-35{fill:url(#Áåçûìÿííûé_ãðàäèåíò_25-14);}.cls-36{fill:url(#Áåçûìÿííûé_ãðàäèåíò_25-15);}.cls-37{fill:url(#Áåçûìÿííûé_ãðàäèåíò_25-16);}.cls-38{fill:url(#Áåçûìÿííûé_ãðàäèåíò_24-12);}.cls-39{fill:url(#Áåçûìÿííûé_ãðàäèåíò_24-13);}.cls-40{fill:url(#Áåçûìÿííûé_ãðàäèåíò_25-17);}.cls-41,.cls-55,.cls-56,.cls-57{mix-blend-mode:color-dodge;opacity:0.48;}.cls-41{fill:url(#Áåçûìÿííûé_ãðàäèåíò_23);}.cls-42{fill:url(#Áåçûìÿííûé_ãðàäèåíò_25-18);}.cls-43{fill:url(#Áåçûìÿííûé_ãðàäèåíò_24-14);}.cls-44{fill:url(#Áåçûìÿííûé_ãðàäèåíò_25-19);}.cls-45{fill:url(#Áåçûìÿííûé_ãðàäèåíò_25-20);}.cls-46{fill:url(#Áåçûìÿííûé_ãðàäèåíò_25-21);}.cls-47{fill:url(#Áåçûìÿííûé_ãðàäèåíò_25-22);}.cls-48{fill:url(#Áåçûìÿííûé_ãðàäèåíò_24-15);}.cls-49{fill:url(#Áåçûìÿííûé_ãðàäèåíò_25-23);}.cls-50{fill:url(#Áåçûìÿííûé_ãðàäèåíò_24-16);}.cls-51{fill:url(#Áåçûìÿííûé_ãðàäèåíò_24-17);}.cls-52{fill:url(#Áåçûìÿííûé_ãðàäèåíò_24-18);}.cls-53{fill:url(#Áåçûìÿííûé_ãðàäèåíò_24-19);}.cls-54{fill:url(#Áåçûìÿííûé_ãðàäèåíò_24-20);}.cls-55{fill:url(#Áåçûìÿííûé_ãðàäèåíò_23-2);}.cls-56{fill:url(#Áåçûìÿííûé_ãðàäèåíò_23-3);}.cls-57{fill:url(#Áåçûìÿííûé_ãðàäèåíò_23-4);}</style><linearGradient id="Áåçûìÿííûé_ãðàäèåíò_45" x1="720.75" y1="-44.66" x2="762.6" y2="208.03" gradientTransform="matrix(-1, 0.06, 0.06, 1, 954.01, -29.92)" gradientUnits="userSpaceOnUse"><stop offset="0" stop-color="#91122f"/><stop offset="1" stop-color="#7d307d"/></linearGradient><linearGradient id="Áåçûìÿííûé_ãðàäèåíò_44" x1="127.3" y1="231.27" x2="127.65" y2="274.11" gradientUnits="userSpaceOnUse"><stop offset="0" stop-color="#4e147b"/><stop offset="1" stop-color="#5c0067"/></linearGradient><linearGradient id="Áåçûìÿííûé_ãðàäèåíò_24" x1="897.25" y1="47.93" x2="949.38" y2="100.06" gradientUnits="userSpaceOnUse"><stop offset="0" stop-color="#fdc522"/><stop offset="0.08" stop-color="#e2b71e"/><stop offset="0.34" stop-color="#938e14"/><stop offset="0.57" stop-color="#546e0b"/><stop offset="0.77" stop-color="#265705"/><stop offset="0.91" stop-color="#0a4801"/><stop offset="1" stop-color="#004300"/></linearGradient><linearGradient id="Áåçûìÿííûé_ãðàäèåíò_25" x1="1013.8" y1="154.14" x2="1022.46" y2="161.69" gradientTransform="matrix(-0.99, -0.22, -0.32, 1.46, 2051.66, 103.64)" gradientUnits="userSpaceOnUse"><stop offset="0" stop-color="#008f00"/><stop offset="0.6" stop-color="#007c18"/><stop offset="1" stop-color="#007322"/></linearGradient><linearGradient id="Áåçûìÿííûé_ãðàäèåíò_25-2" x1="1017.04" y1="135.38" x2="1029.41" y2="146.17" xlink:href="#Áåçûìÿííûé_ãðàäèåíò_25"/><linearGradient id="Áåçûìÿííûé_ãðàäèåíò_25-3" x1="1010.88" y1="139.93" x2="1016.02" y2="144.41" xlink:href="#Áåçûìÿííûé_ãðàäèåíò_25"/><linearGradient id="Áåçûìÿííûé_ãðàäèåíò_25-4" x1="1009.66" y1="145.42" x2="1020.1" y2="154.52" xlink:href="#Áåçûìÿííûé_ãðàäèåíò_25"/><linearGradient id="Áåçûìÿííûé_ãðàäèåíò_24-2" x1="891.21" y1="53.86" x2="943.39" y2="106.03" xlink:href="#Áåçûìÿííûé_ãðàäèåíò_24"/><linearGradient id="Áåçûìÿííûé_ãðàäèåíò_24-3" x1="900.33" y1="44.84" x2="952.47" y2="96.97" xlink:href="#Áåçûìÿííûé_ãðàäèåíò_24"/><linearGradient id="Áåçûìÿííûé_ãðàäèåíò_25-5" x1="1008.85" y1="176.24" x2="1008.88" y2="176.27" xlink:href="#Áåçûìÿííûé_ãðàäèåíò_25"/><linearGradient id="Áåçûìÿííûé_ãðàäèåíò_25-6" x1="970.8" y1="135.2" x2="1011.88" y2="172.1" xlink:href="#Áåçûìÿííûé_ãðàäèåíò_25"/><linearGradient id="Áåçûìÿííûé_ãðàäèåíò_25-7" x1="1025.88" y1="165.44" x2="1024.86" y2="205.47" xlink:href="#Áåçûìÿííûé_ãðàäèåíò_25"/><linearGradient id="Áåçûìÿííûé_ãðàäèåíò_24-4" x1="872.54" y1="72.53" x2="924.7" y2="124.68" xlink:href="#Áåçûìÿííûé_ãðàäèåíò_24"/><linearGradient id="Áåçûìÿííûé_ãðàäèåíò_25-8" x1="990.76" y1="151.84" x2="1031.36" y2="191.22" xlink:href="#Áåçûìÿííûé_ãðàäèåíò_25"/><linearGradient id="Áåçûìÿííûé_ãðàäèåíò_25-9" x1="1032.2" y1="154.62" x2="1073.24" y2="194.43" xlink:href="#Áåçûìÿííûé_ãðàäèåíò_25"/><linearGradient id="Áåçûìÿííûé_ãðàäèåíò_25-10" x1="1043.19" y1="163.92" x2="1064.83" y2="184.91" xlink:href="#Áåçûìÿííûé_ãðàäèåíò_25"/><linearGradient id="Áåçûìÿííûé_ãðàäèåíò_25-11" x1="1044.79" y1="177.23" x2="1065.3" y2="197.12" xlink:href="#Áåçûìÿííûé_ãðàäèåíò_25"/><linearGradient id="Áåçûìÿííûé_ãðàäèåíò_24-5" x1="902.34" y1="20.52" x2="990.49" y2="171.89" xlink:href="#Áåçûìÿííûé_ãðàäèåíò_24"/><linearGradient id="Áåçûìÿííûé_ãðàäèåíò_25-12" x1="898.29" y1="95.81" x2="1050.57" y2="190.65" gradientTransform="matrix(1, 0, 0, 1, 0, 0)" xlink:href="#Áåçûìÿííûé_ãðàäèåíò_25"/><linearGradient id="Áåçûìÿííûé_ãðàäèåíò_24-6" x1="986.76" y1="191.75" x2="1038.46" y2="214.53" gradientTransform="matrix(-0.99, -0.22, -0.32, 1.46, 2051.66, 103.64)" xlink:href="#Áåçûìÿííûé_ãðàäèåíò_24"/><linearGradient id="Áåçûìÿííûé_ãðàäèåíò_24-7" x1="971.94" y1="142.08" x2="1023.02" y2="221.22" gradientTransform="matrix(-0.99, -0.22, -0.32, 1.46, 2051.66, 103.64)" xlink:href="#Áåçûìÿííûé_ãðàäèåíò_24"/><linearGradient id="Áåçûìÿííûé_ãðàäèåíò_24-8" x1="999.8" y1="227.74" x2="1004.11" y2="234.81" gradientTransform="matrix(-0.99, -0.22, -0.32, 1.46, 2051.66, 103.64)" xlink:href="#Áåçûìÿííûé_ãðàäèåíò_24"/><linearGradient id="Áåçûìÿííûé_ãðàäèåíò_24-9" x1="1003.13" y1="199.18" x2="1013.52" y2="225.22" gradientTransform="matrix(-0.99, -0.22, -0.32, 1.46, 2051.66, 103.64)" xlink:href="#Áåçûìÿííûé_ãðàäèåíò_24"/><linearGradient id="Áåçûìÿííûé_ãðàäèåíò_24-10" x1="787.73" y1="135.37" x2="885.79" y2="220.87" gradientTransform="translate(-10.8 89.16) rotate(-5.83)" xlink:href="#Áåçûìÿííûé_ãðàäèåíò_24"/><linearGradient id="Áåçûìÿííûé_ãðàäèåíò_24-11" x1="800.97" y1="120.2" x2="899.03" y2="205.69" gradientTransform="translate(-10.8 89.16) rotate(-5.83)" xlink:href="#Áåçûìÿííûé_ãðàäèåíò_24"/><linearGradient id="Áåçûìÿííûé_ãðàäèåíò_25-13" x1="817.65" y1="146.84" x2="827.24" y2="155.2" gradientTransform="translate(-10.8 89.16) rotate(-5.83)" xlink:href="#Áåçûìÿííûé_ãðàäèåíò_25"/><linearGradient id="Áåçûìÿííûé_ãðàäèåíò_25-14" x1="821.24" y1="126.07" x2="834.94" y2="138.02" gradientTransform="translate(-10.8 89.16) rotate(-5.83)" xlink:href="#Áåçûìÿííûé_ãðàäèåíò_25"/><linearGradient id="Áåçûìÿííûé_ãðàäèåíò_25-15" x1="814.42" y1="131.11" x2="820.11" y2="136.06" gradientTransform="translate(-10.8 89.16) rotate(-5.83)" xlink:href="#Áåçûìÿííûé_ãðàäèåíò_25"/><linearGradient id="Áåçûìÿííûé_ãðàäèåíò_25-16" x1="813.07" y1="137.19" x2="824.63" y2="147.26" gradientTransform="translate(-10.8 89.16) rotate(-5.83)" xlink:href="#Áåçûìÿííûé_ãðàäèåíò_25"/><linearGradient id="Áåçûìÿííûé_ãðàäèåíò_24-12" x1="771.55" y1="107.94" x2="803.05" y2="226.06" xlink:href="#Áåçûìÿííûé_ãðàäèåíò_24"/><linearGradient id="Áåçûìÿííûé_ãðàäèåíò_24-13" x1="832.77" y1="116.69" x2="830.85" y2="191.85" gradientTransform="translate(-10.8 89.16) rotate(-5.83)" xlink:href="#Áåçûìÿííûé_ãðàäèåíò_24"/><linearGradient id="Áåçûìÿííûé_ãðàäèåíò_25-17" x1="812.16" y1="171.32" x2="812.19" y2="171.35" gradientTransform="translate(-10.8 89.16) rotate(-5.83)" xlink:href="#Áåçûìÿííûé_ãðàäèåíò_25"/><linearGradient id="Áåçûìÿííûé_ãðàäèåíò_23" x1="721.64" y1="139.24" x2="895.89" y2="196.45" gradientUnits="userSpaceOnUse"><stop offset="0" stop-color="#fd9400"/><stop offset="0.17" stop-color="#bd6f00"/><stop offset="0.33" stop-color="#844d00"/><stop offset="0.49" stop-color="#553200"/><stop offset="0.64" stop-color="#301c00"/><stop offset="0.78" stop-color="#160d00"/><stop offset="0.9" stop-color="#060300"/><stop offset="1"/></linearGradient><linearGradient id="Áåçûìÿííûé_ãðàäèåíò_25-18" x1="831.02" y1="159.35" x2="829.89" y2="203.68" gradientTransform="translate(-10.8 89.16) rotate(-5.83)" xlink:href="#Áåçûìÿííûé_ãðàäèåíò_25"/><linearGradient id="Áåçûìÿííûé_ãðàäèåíò_24-14" x1="919.99" y1="191.6" x2="860.27" y2="189.16" gradientTransform="translate(-10.8 89.16) rotate(-5.83)" xlink:href="#Áåçûìÿííûé_ãðàäèåíò_24"/><linearGradient id="Áåçûìÿííûé_ãðàäèåíò_25-19" x1="792.15" y1="144.3" x2="837.09" y2="187.9" gradientTransform="translate(-10.8 89.16) rotate(-5.83)" xlink:href="#Áåçûìÿííûé_ãðàäèåíò_25"/><linearGradient id="Áåçûìÿííûé_ãðàäèåíò_25-20" x1="838.02" y1="147.37" x2="883.46" y2="191.45" gradientTransform="translate(-10.8 89.16) rotate(-5.83)" xlink:href="#Áåçûìÿííûé_ãðàäèåíò_25"/><linearGradient id="Áåçûìÿííûé_ãðàäèåíò_25-21" x1="850.19" y1="157.67" x2="874.15" y2="180.91" gradientTransform="translate(-10.8 89.16) rotate(-5.83)" xlink:href="#Áåçûìÿííûé_ãðàäèåíò_25"/><linearGradient id="Áåçûìÿííûé_ãðàäèåíò_25-22" x1="851.97" y1="172.41" x2="874.67" y2="194.42" gradientTransform="translate(-10.8 89.16) rotate(-5.83)" xlink:href="#Áåçûìÿííûé_ãðàäèåíò_25"/><linearGradient id="Áåçûìÿííûé_ãðàäèåíò_24-15" x1="851.25" y1="132.68" x2="860.92" y2="174.27" gradientTransform="translate(-10.8 89.16) rotate(-5.83)" xlink:href="#Áåçûìÿííûé_ãðàäèåíò_24"/><linearGradient id="Áåçûìÿííûé_ãðàäèåíò_25-23" x1="842.27" y1="134" x2="854.3" y2="159.11" gradientTransform="translate(-10.8 89.16) rotate(-5.83)" xlink:href="#Áåçûìÿííûé_ãðàäèåíò_25"/><linearGradient id="Áåçûìÿííûé_ãðàäèåíò_24-16" x1="787.71" y1="188.49" x2="844.93" y2="213.7" gradientTransform="translate(-10.8 89.16) rotate(-5.83)" xlink:href="#Áåçûìÿííûé_ãðàäèåíò_24"/><linearGradient id="Áåçûìÿííûé_ãðàäèåíò_24-17" x1="771.29" y1="133.49" x2="827.85" y2="221.12" gradientTransform="translate(-10.8 89.16) rotate(-5.83)" xlink:href="#Áåçûìÿííûé_ãðàäèåíò_24"/><linearGradient id="Áåçûìÿííûé_ãðàäèåíò_24-18" x1="802.13" y1="228.34" x2="806.91" y2="236.16" gradientTransform="translate(-10.8 89.16) rotate(-5.83)" xlink:href="#Áåçûìÿííûé_ãðàäèåíò_24"/><linearGradient id="Áåçûìÿííûé_ãðàäèåíò_24-19" x1="805.82" y1="196.71" x2="817.33" y2="225.55" gradientTransform="translate(-10.8 89.16) rotate(-5.83)" xlink:href="#Áåçûìÿííûé_ãðàäèåíò_24"/><linearGradient id="Áåçûìÿííûé_ãðàäèåíò_24-20" x1="723.98" y1="139.57" x2="789.62" y2="322.83" gradientTransform="translate(-2.65 16.12) rotate(-1.27)" xlink:href="#Áåçûìÿííûé_ãðàäèåíò_24"/><linearGradient id="Áåçûìÿííûé_ãðàäèåíò_23-2" x1="701.33" y1="170.62" x2="716.36" y2="276.43" gradientTransform="translate(-2.65 16.12) rotate(-1.27)" xlink:href="#Áåçûìÿííûé_ãðàäèåíò_23"/><linearGradient id="Áåçûìÿííûé_ãðàäèåíò_23-3" x1="714.44" y1="168.77" x2="729.47" y2="274.57" gradientTransform="translate(-2.65 16.12) rotate(-1.27)" xlink:href="#Áåçûìÿííûé_ãðàäèåíò_23"/><linearGradient id="Áåçûìÿííûé_ãðàäèåíò_23-4" x1="793.39" y1="157.57" x2="808.43" y2="263.37" gradientTransform="translate(-2.65 16.12) rotate(-1.27)" xlink:href="#Áåçûìÿííûé_ãðàäèåíò_23"/></defs><g class="cls-1"><g id="Layer_2" data-name="Layer 2"><g id="L2"><path class="cls-2" d="M372.43,227l-44.36-23.34-20.34-4.49s-1.51-1.41-4-3.88l-.06-.06c-1.79-1.77-4.08-4-6.69-6.68-.66-.66-1.33-1.33-2-2.05-3.82-3.89-8.16-8.47-12.5-13.28-1.25-1.37-2.49-2.74-3.7-4.15-.8-.92-1.59-1.81-2.37-2.73l-8.74.5,2.87-1.67,1.75-1,.88-1.67-1.28-1.57c-8-9.92-14.43-19.52-15.1-25.67-.82-7.31,1.53-18.72,4.38-30.23.06-.3.14-.58.2-.86l-1.56-2-.65-.85-.66-3.18,3-1.75,1.64-.94.81-1.33c.2-.79.42-1.59.62-2.36.68-2.67,1.33-5.23,1.91-7.66,1.85-7.75,3-14.07,2.21-17.13a8.34,8.34,0,0,0-1.27-2.51c-4-5.67-16.08-14.21-26.57-21.05,0,0,0,0,0,0-9.42-6.13-17.6-10.88-17.6-10.88l-4-20.69L189.73,4.51,171.58,0l.83,14.45L159.08,7.16,155.6,13l15.1,38.57,5.93,70.51s-77.8-6-79.13-4.35c-.84,1-9.25,17-15.52,29.06h0a.34.34,0,0,1,0,.1c-3.84,7.34-6.87,13.16-6.87,13.16l-.1,0c-1.31.14-14.27,1.61-24,5.39-5.41,2.09-9.83,4.91-10.71,8.61a5.75,5.75,0,0,0-.14,1.67c.36,6.2,3.47,18.45,6.41,28.86,0,.12.06.22.08.34.52,1.83,1,3.58,1.51,5.23.12.44.26.87.36,1.29.48,1.57.92,3,1.34,4.36l.37,1.27.46,1.51c.76,2.46,1.24,4,1.24,4l2.24,14.37,86,1.67,114.12,2.22c0-.79,2.89-7.55,5.85-14.13l12.34.24,1,0,16.61.34,24.15.47,58.93.4Z"/><path class="cls-3" d="M373.07,228.16l-58.93-.4L290,227.29,273.38,227l-1,0L260,226.69c-3,6.58-5.89,13.34-5.85,14.13L140.05,238.6l-12.54,28-12.9-8.13s-44.42-16-49.06-13.3S50.61,218.6,50.61,218.6l-.46-1.51-.37-1.27-3.21-10.88-.1-.34h0c-2.94-10.41-6.05-22.66-6.41-28.86a5.75,5.75,0,0,1,.14-1.67c.88-3.7,5.3-6.52,10.71-8.61l24.5,2.31,13.79,6s30.75,11.13,36,11.63,23.31-2.13,23.31-2.13l-1.33-40.17,29.89-5.63L167,154.82l10.85,15.69,46,17.31S257,189.16,262,185.64c3.52-2.45,14.25-8.81,20.44-12.45,4.34,4.81,8.68,9.39,12.5,13.28.68.72,1.35,1.39,2,2.05,2.61,2.64,4.9,4.91,6.69,6.68l.06.06c2.51,2.47,4,3.88,4,3.88l20.34,4.49L372.43,227Z"/><path class="cls-4" d="M177,123.81l2.11,11.65-40.6,1-2.63,4.18-7.71-1.17s-11.24-4.2-13.76-6.47-14.91-15.43-14.91-15.43Z"/><path class="cls-3" d="M226.79,171.55s31-2.52,47.24-2.75l1.37,0a20.27,20.27,0,0,1,3.34.26c-.79-.91-1.58-1.81-2.36-2.73l-8.74.5,2.86-1.66,1.77-1,.87-1.68-1.28-1.56-4.33,1Z"/><path class="cls-3" d="M223.52,114.14l-34.45,33.25s52.71-48.34,60-47.14a44.77,44.77,0,0,1,10.23,3.81l1.88.92.21-.85-1.55-2-.67-.85-.66-3.19,3-1.74,1.63-.93.81-1.34c.21-.8.42-1.58.61-2.37,0,0-.61-.11-1.61-.25-3.37-.48-11.13-1.29-14.34.76C244.41,94.88,223.52,114.14,223.52,114.14Z"/><path class="cls-3" d="M246.89,47.44s-35.32-8.65-44.24-5.73S184.71,54,183.84,55.66s-7.39,63.21-7.39,63.21l-3.7-48.09s6.87-22.12,7.73-23.78,15.84-7.34,15.84-7.34-18,3.43-19.83,4.34-5.74,8.38-5.74,8.38L169.7,49s7-9.06,8-8.31,25.17-3,27.08-3.15S225.63,34,225.63,34Z"/><path class="cls-5" d="M171.15,163.64l.67-.23S171.26,163.3,171.15,163.64Z"/><polygon class="cls-6" points="336.35 211 373.07 228.15 314.15 227.76 260.06 226.81 290.81 221.04 319.93 220.19 336.35 211"/><polygon class="cls-3" points="219.12 11.79 190.02 4.59 216.3 12.76 212.24 17.01 209.88 26 223.16 32.49 219.12 11.79"/><path class="cls-3" d="M177.13,119.56v6L223,105.07c10.05-8.93,24.58-23.5,25.88-24.13,1.45-.71,12.66,1.94,17.55,3.13,1.85-7.75,3-14.08,2.21-17.14a8,8,0,0,0-1.28-2.5,20,20,0,0,1-5.61-4.29c-4.93-6.1-21.64,1.17-21.64,1.17l1.77-2.51s-8.49,2.09-10.78,3.83C230.05,63.42,185.4,110.92,177.13,119.56Z"/><path class="cls-3" d="M202.64,24.81l-20-6.92-5.12-14.2-5.88-2.56.76,13.32-11-6-.28,9.09,8,22.89s5.89-14,8.61-16.59S185.21,21,185.21,21Z"/><polygon class="cls-7" points="159.09 7.16 165.17 13.25 172.41 14.45 159.09 7.16"/><path class="cls-8" d="M40.23,174.06C42,177.68,50.64,182.35,60,186.48l13-20.67c0-1,.78-3.18,2-5.74C72.93,160.28,42.66,163.71,40.23,174.06Z"/><path class="cls-3" d="M373.07,228.16l-58.93-.4L290,227.29,273.38,227l-1,0L260,226.69c-3,6.58-5.89,13.34-5.85,14.13l-72.3-1.41c-6.45-6.1-14.19-12.78-20.66-16.48-13.93-8-81.34-25.07-86.46-24.45-4,.48-19.94,9.34-26.31,13-.1-.42-.24-.85-.36-1.29,6.09-6,22.33-19,25.56-19,4,0,73.64,13.92,93.54,15.91s81.6,2,85.58-2c2.37-2.36,21-15.31,35.64-25.41,6.07,6.49,9.67,16,13.26,19.55l4.08,3.93,20.34,4.5L372.43,227Z"/><polygon class="cls-9" points="0 240.82 9.95 218.96 35.82 218.96 81.06 234.34 87.57 226.91 113.44 228.9 120.05 237.45 254.75 240.82 0 240.82"/><path class="cls-10" d="M1017.59,83.38c-.73-.29-5.56-1.92-9.94-3.4l-7.36-2.47S983,87.41,984.57,90.59a33.94,33.94,0,0,1,1.84,4.89c.63,2.1,1.19,4.46,1.69,6.93,2.1,10.33,3,22.45,2.47,24.93-.8,3.61-17.87,30.08-20.8,34.64s-8.37,35-8.37,35l2.14.47s3.73-27.06,7.56-34.25,22.92-37,22.92-37,1.73-6.76,4.4-15c.47-1.44,1-2.93,1.49-4.43,1.31-3.76,2.77-7.61,4.32-11.1.41-.91.81-1.8,1.23-2.65.23-.48.47-1,.71-1.42A40.22,40.22,0,0,1,1008.9,87c.28-.41.56-.78.84-1.13,1.35-1.72,2.72-2.87,4.06-3.19a3,3,0,0,1,1.69,0c1.22.39,1.87.59,2.1.65Z"/><path class="cls-11" d="M994.48,96.55l-6.38,5.86c2.1,10.33,3,22.45,2.47,24.93C992,125.29,994.48,96.55,994.48,96.55Z"/><path class="cls-12" d="M984.57,90.59a33.94,33.94,0,0,1,1.84,4.89l10-8.91a22.24,22.24,0,0,1,3.93-9.06S983,87.41,984.57,90.59Z"/><polygon class="cls-13" points="1005.46 93.08 1006.21 93.61 1006.48 93.05 1007.09 92.1 1006.17 91.65 998.9 88.07 997.18 87.22 998.92 88.45 1005.46 93.08"/><path class="cls-14" d="M995.58,93l-2.5,17.88,5.34.36c.47-1.44,1-2.93,1.49-4.43L1005.08,96l-.85-.26-5-1.57Z"/><path class="cls-15" d="M1021.21,133.73c-1.44-2.28-2.79-4.1-3.75-4.72-3.37-2.16-8.67-2.85-8.67-2.85a17.44,17.44,0,0,1,9.37,1.12,18.51,18.51,0,0,1,2.22,1.15q-1.5-10.28-2.2-20.75a30.21,30.21,0,0,0-5.2,2.39c-1.93,1.47-15.53,28.24-15.53,28.24l-1.09,1.62c-.1.15-.2.31-.32.47s-.13.2-.2.3l0,0,0,0h0c-5.29,7.87-21.43,31.89-22.19,32.91-.91,1.21-8.82,26.88-8.82,26.88l3-.3s5.3-18.2,7.41-24.83,25.37-35,25.37-35,11.6,1.57,21.89-.05C1022,138.15,1021.58,135.94,1021.21,133.73Z"/><path class="cls-16" d="M987.75,114l-8.06,36.5s3.51-25.86,4.72-36.77c.18-1.59.31-2.86.37-3.69.47-6.51,3.71-11,2.67-15s-.58-13.36-.58-13.36S983,97.79,983,102.05s.26,9,.26,9-.13,1.51-.38,4c-.86,8.87-3.19,30.35-6.61,43.57-4.39,17-15.56,42.88-15.56,42.88l9.16-3.37,5.77-25c-.41-1,10.89-39.83,14.46-64.77.09-.65.18-1.28.26-1.91,3.18-24.42,1.84-64.94,1.79-66.2,0,1-1.32,29.05-4,32.64s2.92,12.92,2.34,19.88c-.38,4.65-1.48,12.52-2.16,17.23C988,112.4,987.75,114,987.75,114Z"/><path class="cls-17" d="M995.79,140.78l0,0,0,0Z"/><path class="cls-18" d="M1018.18,107.68a30.21,30.21,0,0,0-5.2,2.39c-1.93,1.47-15.53,28.24-15.53,28.24l-1.09,1.62-.13.2c2.18-3.19,11.89-17.32,17.53-24.49l5.36,2.86Q1018.54,113.13,1018.18,107.68Z"/><path class="cls-19" d="M960.71,201.56l6.81-3.23,8.12-25.14c-.41-1,10.89-39.83,14.46-64.77l-1.77,1.64c-.34,2.34-.58,3.9-.58,3.9l-8.06,36.5s3.51-25.86,4.72-36.77l-1.53,1.42c-.86,8.87-3.19,30.35-6.61,43.57C971.88,175.67,960.71,201.56,960.71,201.56Z"/><path class="cls-20" d="M915.85,169.47l.5,0c1.33-.1,5.23-.4,9.93-.93l3.77-9.61-1.44,8.66-.12.69c2.48-.31,5.1-.67,7.63-1.1,2.2-.37,4.34-.8,6.24-1.27l2.78-21.6,1.13,20.43a8.87,8.87,0,0,0,3.45-1.94c1.18-1.32,2.89-3.43,4.73-5.8l-3.55-21.35,4.9,19.62c1.89-2.47,3.85-5.06,5.46-7.22l-9-17.29,10.83,14.77L965,143l6.58,12.32,4.11,6.1-3.13,25.77-3.49,14.35,3.05-.75s9.23-46.16,6.72-59.47c-2-10.37-3.4-16.9-3.94-19.27l-.24-1-31.11-10.16,0,.07-10,19.65-.77,1.53-.21,2.95,5.19-5.16-5.4,7.92-.06.8s-.18.93-.55,2.43c-1.05,4.21-3.61,12.93-7.79,17.94A124.44,124.44,0,0,0,915.85,169.47Z"/><path class="cls-21" d="M969.34,131.74c-2,5-4.24,10.73-4.35,11.23l6.58,12.32,4.11,6.1-3.13,25.77-3.49,14.35,3.05-.75s9.23-46.16,6.72-59.47c-2-10.37-3.4-16.9-3.94-19.27l-.54-1.09-13.25-2.44,11.23,5.78s-.67,1.65-1.59,4C970.32,129.3,969.84,130.5,969.34,131.74Z"/><path class="cls-22" d="M915.85,169.47l.5,0c3.61-3.74,8.88-9.35,10.43-11.73,2.43-3.71,8.59-12.75,8.59-12.75l4.64-8-8.28,4c-1.05,4.21-3.61,12.93-7.79,17.94A124.44,124.44,0,0,0,915.85,169.47Z"/><path class="cls-23" d="M950.67,116.4l-11.06,21L952.54,118,966.4,139.5c.49-1.24,3.92-10.2,4.34-11.26l-16-11.62-11.26-5.71-10,19.65,12.69-14.41,4.45.25Z"/><path class="cls-24" d="M928.61,167.55l-.12.69c2.48-.31,5.1-.67,7.63-1.1.44-6.84,1.39-23.14,1.39-23.14l-4.46,5.64Z"/><path class="cls-25" d="M931.06,59.9c0,.07,0,.71.08,1.77.08,1.72.23,4.53.47,7.8l10.92,2.4-10.76-.37c.17,2.1.37,4.32.61,6.52l10.87-3.62-10.68,5.26a77.29,77.29,0,0,0,1.75,10.16l17.82-10.63-17,13.06a6.22,6.22,0,0,0,.7,1.3c1.42,1.94,4.4,3.89,7.53,5.54l16.15-14-14.29,15,.47.23,14.85-12.61-8.8,15.22c1.27.5,2.06.78,2.06.78s1.39,1.53,3.44,3.76l8.93-14.74-5.78,18.17,7-16.48,2.57,5.76L962.34,113c3.67,4,7.62,8.15,9.88,10.35A20.87,20.87,0,0,0,982.84,129s4.95,12.43,2.36,22.72-13.71,46.12-13.71,46.12l4.58,1s9.21-31.52,10.45-47.31a91.3,91.3,0,0,0-1.09-22.39h0a60.17,60.17,0,0,0-1.3-6s-6.88-31.28-9.25-36.53c-2.18-4.83-37.47-23.36-43.07-26.27h0Z"/><path class="cls-26" d="M931.61,69.47l10.92,2.4-10.76-.37c.17,2.1.37,4.32.61,6.52l10.87-3.62-10.68,5.26a77.29,77.29,0,0,0,1.75,10.16l17.82-10.63-17,13.06a6.22,6.22,0,0,0,.7,1.3c1.42,1.94,4.4,3.89,7.53,5.54l16.15-14-14.29,15,.47.23,14.85-12.61-8.8,15.22c1.27.5,2.06.78,2.06.78s1.39,1.53,3.44,3.76l8.93-14.74-5.78,18.17,7-16.48,2.57,5.76L962.34,113c3.67,4,7.62,8.15,9.88,10.35A20.87,20.87,0,0,0,982.84,129s4.95,12.43,2.36,22.72-13.71,46.12-13.71,46.12l4.58,1s.42-1.42,1.08-3.82c1.7-6.07,5-18.38,7.23-29.54a125.54,125.54,0,0,0,2.14-13.95,91.3,91.3,0,0,0-1.09-22.39h0s-13.48-38-14.51-40.58-38-27.45-39.11-28.23h0l-.64,1.39C931.22,63.39,931.37,66.2,931.61,69.47Z"/><path class="cls-27" d="M982.43,168.55,977.15,195c1.7-6.07,5-18.38,7.23-29.54Z"/><path class="cls-28" d="M915,205.19l81.69,6.19s14.68,4.65,13.55,2.51a3.46,3.46,0,0,0-.68-.8c-3.11-3-14.85-10.18-14.85-10.18.3-1.35,9.07-17.85,9.07-17.85L998.91,184l-9.49,16.81L996,182.86l-6.14.8-8.72,1.13-7.46,13.47-11.1-1-15.88,1.22Z"/><path class="cls-29" d="M987.8,202.33l8.57,3.3,13.21,7.46c-3.11-3-14.85-10.18-14.85-10.18.3-1.35,9.07-17.85,9.07-17.85L998.91,184l-9.49,16.81L996,182.86l-2.24,1.4Z"/><polygon class="cls-30" points="990.64 180.75 983.72 200.49 988.2 181.63 990.64 180.75"/><path class="cls-31" d="M811.07,131.61l-11.08,2,3,2.78.28,2.72s13,9.81,13.94,12S811.07,131.61,811.07,131.61Z"/><path class="cls-32" d="M839.17,194.15c2.43,3.53,3.39,26.44,3.39,26.44l-2.38.24s.33-20.29-2.64-25.82-18.74-28.65-18.74-28.65-.77-5.1-2.32-11.33c-.28-1.1-.57-2.23-.9-3.37a75.94,75.94,0,0,0-2.87-8.47c-.29-.69-.58-1.37-.89-2-.18-.38-.36-.74-.54-1.1a25.19,25.19,0,0,0-2.2-3.58c-.24-.31-.47-.61-.72-.88a7.53,7.53,0,0,0-3.85-2.57,4.88,4.88,0,0,0-1.83,0c-6.75,1.12,1.62-.38,8.88-1.66l8.32-1.47s17,8.23,14.83,10.51a25.48,25.48,0,0,0-2.76,3.54,54.63,54.63,0,0,0-3,5.07c-3.91,7.56-6.85,16.52-6.65,18.4C822.62,170.09,836.75,190.63,839.17,194.15Z"/><polygon class="cls-33" points="821.45 131.76 819.68 137.78 819.6 138.06 818.35 142.28 815.58 151.66 811.76 143.35 810.92 141.52 810.72 141.1 810.22 140.36 807.89 136.92 809.08 136.49 818.5 133.09 808.36 135.61 806.76 136.01 803.73 133.23 804.51 133.04 811.56 131.33 821.45 131.76"/><path class="cls-34" d="M823.08,144.3,829,149c-3.91,7.56-6.85,16.52-6.65,18.4C821.15,165.78,823.08,144.3,823.08,144.3Z"/><path class="cls-35" d="M834.71,140.37a25.48,25.48,0,0,0-2.76,3.54l-9.29-7.12a11.89,11.89,0,0,0-2.78-6.93S836.88,138.09,834.71,140.37Z"/><polygon class="cls-36" points="811.82 141.17 810.92 141.52 810.72 141.1 810.22 140.36 811.28 140.07 819.68 137.78 821.67 137.23 819.6 138.06 811.82 141.17"/><path class="cls-37" d="M822.46,141.62,822.28,155h-5.8c-.28-1.1-.57-2.23-.9-3.37l-3.82-8.31,1-.16,5.64-.91Z"/><path class="cls-38" d="M838.35,223.08l-3.13-.37s-2.79-13.79-4-18.82-21.69-27.31-21.69-27.31-14.81.68-26-1.58c3.45-3.33,7.56-7,9.63-7.73a40.12,40.12,0,0,1,9.79-1.69,27.41,27.41,0,0,0-10.27.36c-3.52.78-11.47,4.1-17.06,6.54l-.52-.28a36.41,36.41,0,0,1-6.67-5.4l-1.28-1.26,20.38-6.28-21.08,5.56c-.95-1-1.91-2-2.88-3l14-5.63L761.94,160c-2.07-2.3-4.15-4.74-6.14-7.12L754.21,151l13.39-1.37-16.54-2.51c-4.88-6.1-8.45-10.91-8.56-11.06.26.09,12,4.09,22.31,7.25l.18.06.07,0c6.1,1.87,11.66,3.44,14,3.71,6.26.73,20.11,5.15,22,6.34s12.2,21.76,12.2,21.76l.9,1.26.27.37.17.23,0,0,0,0h0c4.44,6.11,18,24.77,18.61,25.56C834,203.61,838.35,223.08,838.35,223.08Z"/><path class="cls-39" d="M827.53,157.58l2.81,27.52s.38-19.39.83-27.56c.06-1.19.13-2.14.2-2.76.53-4.86-2.23-8.35-.47-11.28s2.77-9.89,2.77-9.89,1.59,12.19.88,15.36-1.72,6.69-1.72,6.69-.1,1.13-.24,3c-.5,6.63-1.44,22.71.11,32.7,2,12.84,9.87,32.64,9.87,32.64l-9.32-3-2.19-18.87c.6-.73-5.33-30.14-5.17-48.85l0-1.43c.5-18.31,8.45-48.34,8.7-49.28-.11.76-3.24,21.65-.93,24.45s-5.22,9.46-5.72,14.66c-.33,3.47-.42,9.37-.44,12.91C827.52,156.4,827.53,157.58,827.53,157.58Z"/><path class="cls-40" d="M814.56,177.1l0,0,0,0Z"/><path class="cls-41" d="M814.19,176.59c-1.84-2.48-10-13.46-14.94-19.07-4.3,1.28-25.78,7.67-30.86,9.28l-1.28-1.26,20.38-6.28-21.08,5.56c-.95-1-1.91-2-2.88-3l14-5.63L761.94,160c-2.07-2.3-4.15-4.74-6.14-7.12L781.3,149c-7.28-2.54-14.81-5.1-16.24-5.59,6.1,1.87,11.66,3.44,14,3.71,6.26.73,20.11,5.15,22,6.34s12.2,21.76,12.2,21.76l.9,1.26Z"/><path class="cls-42" d="M842.57,224l-6.81-2.74-4.7-19.09c.6-.73-5.33-30.14-5.17-48.85l1.64,1.31c0,1.75,0,2.93,0,2.93l2.81,27.52s.38-19.39.83-27.56l1.42,1.14c-.5,6.63-1.44,22.71.11,32.7C834.7,204.22,842.57,224,842.57,224Z"/><path class="cls-43" d="M896,202.43l-.53-.05c-1.42-.14-5.57-.56-10.54-1.19l-2.52-7.33.16,6.5v.52c-2.62-.35-5.38-.75-8-1.2-2.31-.39-4.54-.81-6.52-1.26l.47-16.19L864,197.36a9.39,9.39,0,0,1-3.39-1.62c-1.07-1-2.56-2.69-4.17-4.54l7.25-15.69-8.42,14.33c-1.65-1.92-3.33-4-4.72-5.63L863,171.81l-14,10.43c-1-1.2-1.6-2-1.6-2l-9.07,8.82-5.4,4.33-.77,19.3,1.45,10.84-3.17-.7s-2.52-34.76,2.32-44.53c3.78-7.61,6.38-12.38,7.35-14.12l.41-.75,35.14-6,0,.05,7.59,15.1.59,1.18-.25,2.2-4.76-4.1,4.54,6.16-.07.6s.05.7.21,1.83c.45,3.18,1.81,9.79,5.51,13.72A84.08,84.08,0,0,1,896,202.43Z"/><path class="cls-44" d="M844.5,171.71c1.33,3.81,2.84,8.18,2.88,8.56l-9.07,8.82-5.4,4.33-.77,19.3,1.45,10.84-3.17-.7s-2.52-34.76,2.32-44.53c3.78-7.61,6.38-12.38,7.35-14.12l.76-.78,14.66-1.15-13,3.73,1.08,3C843.84,169.85,844.16,170.76,844.5,171.71Z"/><path class="cls-45" d="M896,202.43l-.53-.05c-3.28-3-8.06-7.4-9.35-9.24-2-2.89-7.2-9.91-7.2-9.91l-3.72-6.14,8.27,3.41c.45,3.18,1.81,9.79,5.51,13.72A84.08,84.08,0,0,1,896,202.43Z"/><path class="cls-46" d="M867.07,161.25l8.54,16.14-10.82-15-18.37,15.26c-.33-.94-2.58-7.77-2.86-8.58l19.05-7.83,13-3.68,7.59,15.1L871.9,161.29l-4.83,0Z"/><path class="cls-47" d="M882.61,200.36v.52c-2.62-.35-5.38-.75-8-1.2.63-5.11,2.22-17.26,2.22-17.26l3.89,4.41Z"/><path class="cls-48" d="M897.26,120.26s-.14.52-.36,1.31c-.37,1.27-1,3.35-1.76,5.77L883,128.58l11.65.26c-.52,1.55-1.09,3.19-1.71,4.81l-11.12-3.24,10.66,4.45a49.41,49.41,0,0,1-3.52,7.46l-17.48-8.79,16.22,10.56a6.33,6.33,0,0,1-1,.93c-1.85,1.37-5.37,2.66-9,3.74L862.6,137.52l13,11.84-.55.15-14-10.12,7,11.76c-1.44.3-2.34.47-2.34.47s-1.74,1.07-4.31,2.62l-7.24-11.4,3.3,13.79-4.9-12.6-3.7,4.16,6.15,9.91c-4.59,2.75-9.52,5.67-12.31,7.19A31.74,31.74,0,0,1,830.41,169s-7.33,9-6.19,16.76,7.35,35,7.35,35l-5.1.52s-4.84-23.88-3.64-35.68a51.87,51.87,0,0,1,4.77-16.58h0a42.37,42.37,0,0,1,2.36-4.4s12.44-22.9,15.83-26.68c3.13-3.47,44.11-15.47,50.61-17.35h0Z"/><path class="cls-49" d="M895.14,127.34,883,128.58l11.65.26c-.52,1.55-1.09,3.19-1.71,4.81l-11.12-3.24,10.66,4.45a49.41,49.41,0,0,1-3.52,7.46l-17.48-8.79,16.22,10.56a6.33,6.33,0,0,1-1,.93c-1.85,1.37-5.37,2.66-9,3.74L862.6,137.52l13,11.84-.55.15-14-10.12,7,11.76c-1.44.3-2.34.47-2.34.47s-1.74,1.07-4.31,2.62l-7.24-11.4,3.3,13.79-4.9-12.6-3.7,4.16,6.15,9.91c-4.59,2.75-9.52,5.67-12.31,7.19A31.74,31.74,0,0,1,830.41,169s-7.33,9-6.19,16.76,7.35,35,7.35,35l-5.1.52s-.22-1.08-.55-2.89a219.15,219.15,0,0,1-3-22.32,62.33,62.33,0,0,1-.06-10.47,51.87,51.87,0,0,1,4.77-16.58h0s20.62-27.55,22.14-29.42,45.3-18.49,46.66-19h0l.46,1.07C896.53,122.84,895.92,124.92,895.14,127.34Z"/><path class="cls-50" d="M824.49,198.4l1.43,19.91a219.15,219.15,0,0,1-3-22.32Z"/><path class="cls-51" d="M891.2,229l-89,.49s-16.56,2.72-15,1.18a4.62,4.62,0,0,1,.86-.55c3.83-2.06,17.63-6.82,17.63-6.82-.1-1-6.9-13.72-6.9-13.72l5.44-.56,7.52,13-4.15-13.65,6.48.9,9.21,1.27,5.87,10.39,12.12-.2,16.91,1.7Z"/><path class="cls-52" d="M813.28,223.23l-9.76,2-15.43,4.88c3.83-2.06,17.63-6.82,17.63-6.82-.1-1-6.9-13.72-6.9-13.72l5.44-.56,7.52,13-4.15-13.65,2.18,1.15Z"/><polygon class="cls-53" points="813.68 207.05 817.97 222.07 816.17 207.83 813.68 207.05"/><path class="cls-54" d="M814.7,203.89v6.28l-1.22,16.89L810,235.62l-7,0h-1l-74.88-.29h-.71l-8,0-10,0-13.28-.05-8.16-23.48L698,233.62l-5.72-22.24L703,214.1l13.33,3.41,6.08,1.55,2.2.55,8.95-.19,3.23,11.11-2-25.3L739,230.48l2.42-25.4L745,230.35l23-.91s4.33-12.37,4.09-23.55c-.24-10.57-5.64-38.14-6.22-41.11.75,3.26,8.35,36.21,8.5,43.3s-1.67,19.38-1.78,20.13c.21-.79,3.57-13.58,4.1-19.77s4.85-26.13,5.25-28l-4.55,29L777,228.15l14.88-1.82-.34-15.42-1.81-14.35,3.32,14.83.18,8.2,1.77-9,1.07-12.24,6.16,1.83,5.67,1.68Z"/><path class="cls-55" d="M718.4,235.26c.91,7.83,1.63,14,1.63,14.27,0,.75-7.41,2.4-7.41,2.4l-4.25-16.71L703,214.1l13.33,3.41C717,223.23,717.76,229.66,718.4,235.26Z"/><polygon class="cls-56" points="728.07 241.9 726.43 235.29 722.4 219.06 724.6 219.61 724.92 219.61 727.14 235.3 728.07 241.9"/><polygon class="cls-57" points="807.93 201.88 802.99 235.59 802.99 235.59 801.97 242.51 802.02 235.59 802.26 200.2 807.93 201.88"/></g></g></g></svg>