<svg xmlns="http://www.w3.org/2000/svg" xmlns:xlink="http://www.w3.org/1999/xlink" viewBox="0 0 970.67 199.13"><defs><style>.cls-1{isolation:isolate;}.cls-2{fill:url(#Áåçûìÿííûé_ãðàäèåíò_93);}.cls-3{fill:#d45ba7;opacity:0.16;}.cls-3,.cls-8{mix-blend-mode:multiply;}.cls-4,.cls-7{opacity:0.79;}.cls-4{fill:url(#Áåçûìÿííûé_ãðàäèåíò_248);}.cls-5{mix-blend-mode:color-dodge;opacity:0.55;fill:url(#Áåçûìÿííûé_ãðàäèåíò_92);}.cls-6{fill:#ff8aec;mix-blend-mode:screen;opacity:0.86;}.cls-7{fill:url(#Áåçûìÿííûé_ãðàäèåíò_248-2);}.cls-8{fill:#9883d7;opacity:0.54;}</style><linearGradient id="Áåçûìÿííûé_ãðàäèåíò_93" x1="476.51" y1="58.7" x2="503.37" y2="265.72" gradientUnits="userSpaceOnUse"><stop offset="0" stop-color="#f29c9b"/><stop offset="1" stop-color="#5137a6"/></linearGradient><linearGradient id="Áåçûìÿííûé_ãðàäèåíò_248" x1="225.19" y1="132.31" x2="255.8" y2="192.47" gradientUnits="userSpaceOnUse"><stop offset="0" stop-color="#ffd1b7"/><stop offset="0.13" stop-color="#ffaeab"/><stop offset="0.28" stop-color="#ff8da0"/><stop offset="0.36" stop-color="#ff809c"/><stop offset="0.45" stop-color="#f37ea1"/><stop offset="0.62" stop-color="#d279ad"/><stop offset="0.84" stop-color="#9e71c1"/><stop offset="1" stop-color="#736bd1"/></linearGradient><linearGradient id="Áåçûìÿííûé_ãðàäèåíò_92" x1="445.24" y1="146.99" x2="445.47" y2="147.17" gradientUnits="userSpaceOnUse"><stop offset="0" stop-color="#00ffc2"/><stop offset="1"/></linearGradient><linearGradient id="Áåçûìÿííûé_ãðàäèåíò_248-2" x1="819.31" y1="116.25" x2="890.36" y2="289.14" xlink:href="#Áåçûìÿííûé_ãðàäèåíò_248"/></defs><g class="cls-1"><g id="Layer_2" data-name="Layer 2"><g id="L4"><path class="cls-2" d="M970.67,168.11V77.57L957.06,63.19,945,46.18l-18.08-9.72-8-7.29h-11L891.75,9.72,878.69,0l-.26.35L855.58,31.59l-7.05,12.15L815.38,59.55l-38.19,7.28-5,10.94L743,131.24l-20.73,8.68-5.39,2.26-23.58.78-49.78,1.65-14.07-1.22s-2.42-.87-5-1.77a49.29,49.29,0,0,0-6.05-1.87c-.73,0-4.12,2.57-5.9,4-.68.53-1.12.89-1.12.89l-14.7,1.54-8.41.89-44.21-2.43L524,137.32v-6.08h0l-17.08-13.36-.72.28L491.83,124l-6,4.86-4.72.71-11.37,1.72v3.64l-23.12,11.66-1,.5h-.11l-.11,0-36.18-4.16-26.9-3.1-30.16-21.87-13.06-2.43-42.2-18.23-.73.55-15.34,11.6-9.05,10.93-6,3.65-63.31,9.73-16.06,10.93-32.16,6.08-5.71,4.92-1.33,1.15L0,162.47v13.36l544.76-6.46L714,167.79l140.58-1.31,74.66,5.65,41.37-1.74C970.62,169.63,970.64,168.87,970.67,168.11Z"/><polygon class="cls-3" points="970.67 77.33 957.06 63.19 945 46.18 926.91 36.46 918.88 29.16 907.82 29.16 891.75 9.72 878.68 0 884.71 10.94 889.74 31.59 891.75 57.11 884.71 76.56 888.73 82.63 891.75 80.2 914.86 93.57 927.36 169.85 970.67 166.83 970.67 77.33"/><path class="cls-3" d="M717.67,161.94l-95.54,35.35L457.45,163l-8.26-12.38,17.55-8.25,3-.16,14.58-9.12,7.53,5.48,16.07-2.44-1-1.22h6v-2.42l-6.75-14.3.72-.28L524,131.24v6.08h0l20.1,7.29,52.62,1.54,15.74-.51s.43-.36,1.11-.88c1.79-1.41,5.17-4,5.91-4a13.77,13.77,0,0,1,5,.84c2.59.9,5,1.77,5,1.77l14.07,1.22L693.33,143l26.41,3.51Z"/><polygon class="cls-3" points="280.87 169.16 314.95 153.69 299.93 139.6 288.67 138.46 304.62 136.18 304.62 125.95 314.94 138.46 316.53 140.81 331.47 128.93 316.98 110.58 304.92 105.72 296.89 97.22 340.76 119.65 352.15 117.88 381.04 141.31 407.88 144.4 438.86 147.5 463.65 169.16 280.87 169.16"/><path class="cls-3" d="M925.23,166.06,894.1,199.13l-10.9-27.5-32.63,1.68v-6L837.43,171l-139.8,2.28L737,154l6.46-5.44,5.16-11.35,1.14-4.4,1.88,3.4-1.5,12.09h31.9l11.26-15.92.94-25,11.17-14.49-8.26,16.5-.1,13.92,3.76,8-6.57,21.62,8.45,5.68,9.37-21.6,6.57-13.66V107.32l4.7,14.79-1.88,9.1,11.93,9.59-3.68-19.61,2.82-15.93,14.2-18.62L843.65,98l2.06,7.22,9.55,10.08,4.68,9.09,10.33,8s5,8.18,10.16,17.21l8.34-25.41,1.31-5.85-19.85-12.5-7.61-23.89,1.94-5.09,8-29.37-1,22.69,5.1,8.41,2.24,14.57,18.51,20.26,16.49,11.43Z"/><polygon class="cls-3" points="209.82 135.66 250.16 137.93 279.25 148.17 301.77 150.44 279.25 140.21 276.44 129.97 272.68 125.42 262.36 129.97 255.79 129.97 255.79 133.38 252.98 133.38 249.23 132.25 246.41 133.38 239.84 133.38 209.82 135.66"/><path class="cls-3" d="M186.27,144.86,199.4,146l31.91,9.1,18.76,5.69,45,3.41-7.51-3.41-7.5-2.28L276.34,154l-20.64,3.42-14.07-2.28s-6.57-4.55-7.51-4.55-11.26-1.14-11.26-1.14l-24.39-5.68Z"/><path class="cls-3" d="M73.7,173.77c.91-.47,43.14-7.29,43.14-7.29l8.44,1.13,21.58,2.28,15-4.55-11.26-5.69,22.52,6.83s9.39-1.14,11.26-1.14S206,169.89,212.54,171s29.81,1.15,29.81,1.15Z"/><polygon class="cls-4" points="296.16 97.77 291.36 103.09 281.9 109.33 272.68 121.93 267.05 125.68 203.16 134.96 186.27 145.27 155.31 151.83 148.49 155.61 154.2 150.69 186.35 144.61 202.43 133.68 265.73 123.95 271.76 120.3 280.81 109.36 296.16 97.77"/><polygon class="cls-5" points="445.38 147.01 445.49 147.03 445.23 147.14 445.38 147.01"/><polygon class="cls-6" points="481.07 129.52 470.56 132.15 470.56 135.9 446.58 146.54 469.71 134.88 469.71 131.24 481.07 129.52"/><polygon class="cls-7" points="878.43 0.35 871.21 14.06 859.95 29.99 856.19 36.55 848.69 44.99 823.35 59.98 816.79 60.92 785.82 67.48 777.38 69.35 746.42 132.15 722.29 139.92 743.03 131.24 772.17 77.77 777.19 66.83 815.38 59.54 848.54 43.75 855.57 31.59 878.43 0.35"/><path class="cls-8" d="M970.67,168.11V168l-9.3-4c0,.4-1.48,2.14-4.33,0-2.84,2.48-7-3.1-12.49,0-5.46,1.37-12.15.66-20,0-7.83,2.1-16.78-1.41-26.74,0-10,2.33-20.94,0-32.8,0l-15.29,0-16.17,0a63.3,63.3,0,0,0-15.35-.57,3.3,3.3,0,0,1-1.65.09l-.45,0-3.54.23c-1.43.09-2.86.18-4.3.25-2,.09-4.1.14-6.16.11q-.82,0-1.65,0l-1.67-.08c-12.09-2.31-24.68.83-37.67,0-5.31-.53-10.7.8-16.16,2.2s-11,.74-16.54-2.16c-11.16-.26-22.55-2.27-34.16,0-11.59-3.73-23.41.65-35.38,0a83.48,83.48,0,0,1-18.08.82c-6.07-.26-12.17,2.13-18.31-.78-11.24.46-22.6-.91-34,0-11.43-1.89-23-1.42-34.53,0a59.74,59.74,0,0,1-17.39,1.78c-5.8-4.49-11.63,5.05-17.45-1.74-5.82,2.94-11.65-3.9-17.48,0-5.83.79-11.66,2.2-17.5,0-12.28-5.44-24.55-1.22-36.79,0-12.23-1.06-24.42,0-36.54,0l-38.36.05c-12.68-1-25.23.13-37.62,0-12.4,1.69-24.62,2.2-36.65,0-12,4.56-23.85,0-35.43.05l-78.67.09-35.15,0c-11.18-1.44-21.8-2.74-31.81,0-10,2.95-16.52-4.3-25.21-2-.55-.29-3.57.2-4.13,0l-17.55-2.06H59.89l-40.27,5.25L0,166.71l19.62,2.44c22.09,2.73,50.05-6.93,89.84-2.05,9.94,1.22,112.12,2.06,114.62,2.06,1.65,0,5.92.3,11.82.78,10.9.25,13.45,1.27,21.66,1.85,8.2.93,5.76,3.56,25.66,2.19,8.57-3.63,16.84,1.05,23.83,1.77,7,.31,12.7,2,16.16.63,2,0,5.6-.23,10.45-.54,19.41-1.22,36.63-6,106.87-3.56,59.89,2.06,61.57,0,44.8-3.12-7.37-1.37,161.78,4.39,164.19,4.13,7-2.14,64.59-4.72,73.23-3.92,7.78.72,16.14,1.5,24.91,2.34s8.65-6.54,18-5.63c9.39,3.6,19,.45,28.66,2.78,9.66,3.35,62.72-1.47,72.28,3.87,9.55,5.8,19,3.34,28.05,2.78,9.09,5.84,65.65,9.33,73.91,10.15l1.94.2Q970.33,177.07,970.67,168.11Z"/></g></g></g></svg>