<svg xmlns="http://www.w3.org/2000/svg" xmlns:xlink="http://www.w3.org/1999/xlink" viewBox="0 0 1054.3 381.71"><defs><style>.cls-1{mask:url(#mask);filter:url(#luminosity-noclip-2);}.cls-10,.cls-11,.cls-19,.cls-2,.cls-21,.cls-24,.cls-27,.cls-29,.cls-37,.cls-56,.cls-57,.cls-58,.cls-7,.cls-8,.cls-9{mix-blend-mode:multiply;}.cls-2{fill:url(#Áåçûìÿííûé_ãðàäèåíò_101);}.cls-3{isolation:isolate;}.cls-4{mask:url(#mask-2);}.cls-5{fill:url(#Áåçûìÿííûé_ãðàäèåíò_100);}.cls-14,.cls-30,.cls-6{opacity:0.34;}.cls-6{fill:url(#Áåçûìÿííûé_ãðàäèåíò_146);}.cls-19,.cls-21,.cls-56,.cls-7,.cls-8,.cls-9{fill:#ae4ba2;}.cls-24,.cls-57,.cls-7{opacity:0.27;}.cls-8{opacity:0.15;}.cls-9{opacity:0.1;}.cls-10{opacity:0.18;fill:url(#Áåçûìÿííûé_ãðàäèåíò_99);}.cls-11{fill:#163894;opacity:0.08;}.cls-12{fill:url(#Áåçûìÿííûé_ãðàäèåíò_100-2);}.cls-13,.cls-20{fill:#f28b9c;}.cls-14{fill:url(#Áåçûìÿííûé_ãðàäèåíò_99-2);}.cls-15,.cls-36{opacity:0.42;}.cls-15{fill:url(#Áåçûìÿííûé_ãðàäèåíò_146-2);}.cls-16,.cls-31{fill:#ff7c30;}.cls-17,.cls-32,.cls-33,.cls-34,.cls-35,.cls-41,.cls-43,.cls-54{mix-blend-mode:screen;}.cls-17,.cls-32,.cls-33,.cls-34,.cls-35,.cls-38,.cls-40,.cls-41,.cls-43,.cls-54{opacity:0.67;}.cls-17{fill:url(#Áåçûìÿííûé_ãðàäèåíò_18);}.cls-18,.cls-36,.cls-38,.cls-39,.cls-40,.cls-42,.cls-44,.cls-45,.cls-46,.cls-47,.cls-48,.cls-49,.cls-50,.cls-51,.cls-52,.cls-53,.cls-55{mix-blend-mode:color-dodge;}.cls-18,.cls-42{opacity:0.36;}.cls-18{fill:url(#Áåçûìÿííûé_ãðàäèåíò_95);}.cls-19{opacity:0.09;}.cls-20{opacity:0.79;}.cls-21{opacity:0.26;}.cls-22{fill:#e57f92;opacity:0.49;}.cls-23{fill:url(#Áåçûìÿííûé_ãðàäèåíò_145);}.cls-24{fill:url(#Áåçûìÿííûé_ãðàäèåíò_96);}.cls-25{fill:url(#Áåçûìÿííûé_ãðàäèåíò_147);}.cls-26{opacity:0.74;fill:url(#Áåçûìÿííûé_ãðàäèåíò_97);}.cls-27,.cls-37{opacity:0.12;}.cls-27{fill:url(#Áåçûìÿííûé_ãðàäèåíò_96-2);}.cls-28{fill:url(#Áåçûìÿííûé_ãðàäèåíò_145-2);}.cls-29{opacity:0.2;fill:url(#Áåçûìÿííûé_ãðàäèåíò_96-3);}.cls-30{fill:url(#Áåçûìÿííûé_ãðàäèåíò_97-2);}.cls-31{opacity:0.5;}.cls-32{fill:url(#Áåçûìÿííûé_ãðàäèåíò_18-2);}.cls-33{fill:url(#Áåçûìÿííûé_ãðàäèåíò_18-3);}.cls-34{fill:url(#Áåçûìÿííûé_ãðàäèåíò_18-4);}.cls-35{fill:url(#Áåçûìÿííûé_ãðàäèåíò_18-5);}.cls-36{fill:url(#Áåçûìÿííûé_ãðàäèåíò_18-6);}.cls-37{fill:url(#Áåçûìÿííûé_ãðàäèåíò_96-4);}.cls-38{fill:url(#Áåçûìÿííûé_ãðàäèåíò_18-7);}.cls-39{opacity:0.28;fill:url(#Áåçûìÿííûé_ãðàäèåíò_18-8);}.cls-40{fill:url(#Áåçûìÿííûé_ãðàäèåíò_95-2);}.cls-41{fill:url(#Áåçûìÿííûé_ãðàäèåíò_18-9);}.cls-42{fill:url(#Áåçûìÿííûé_ãðàäèåíò_95-3);}.cls-43{fill:url(#Áåçûìÿííûé_ãðàäèåíò_18-10);}.cls-44,.cls-45,.cls-46,.cls-47,.cls-48,.cls-49,.cls-50,.cls-51,.cls-52,.cls-53,.cls-55{opacity:0.47;}.cls-44{fill:url(#Áåçûìÿííûé_ãðàäèåíò_153);}.cls-45{fill:url(#Áåçûìÿííûé_ãðàäèåíò_153-2);}.cls-46{fill:url(#Áåçûìÿííûé_ãðàäèåíò_153-3);}.cls-47{fill:url(#Áåçûìÿííûé_ãðàäèåíò_153-4);}.cls-48{fill:url(#Áåçûìÿííûé_ãðàäèåíò_153-5);}.cls-49{fill:url(#Áåçûìÿííûé_ãðàäèåíò_153-6);}.cls-50{fill:url(#Áåçûìÿííûé_ãðàäèåíò_153-7);}.cls-51{fill:url(#Áåçûìÿííûé_ãðàäèåíò_153-8);}.cls-52{fill:url(#Áåçûìÿííûé_ãðàäèåíò_153-9);}.cls-53{fill:url(#Áåçûìÿííûé_ãðàäèåíò_153-10);}.cls-54{fill:url(#Áåçûìÿííûé_ãðàäèåíò_18-11);}.cls-55{fill:url(#Áåçûìÿííûé_ãðàäèåíò_153-11);}.cls-56{opacity:0.14;}.cls-57{fill:#9883d7;}.cls-58{fill:#dcd8e8;opacity:0.86;}.cls-59{filter:url(#luminosity-noclip);}</style><filter id="luminosity-noclip" x="0" y="-8497.84" width="1054.3" height="32766" filterUnits="userSpaceOnUse" color-interpolation-filters="sRGB"><feFlood flood-color="#fff" result="bg"/><feBlend in="SourceGraphic" in2="bg"/></filter><mask id="mask" x="0" y="-8497.84" width="1054.3" height="32766" maskUnits="userSpaceOnUse"><g class="cls-59"/></mask><linearGradient id="Áåçûìÿííûé_ãðàäèåíò_101" x1="547.57" y1="477.47" x2="517.53" y2="262.48" gradientUnits="userSpaceOnUse"><stop offset="0" stop-color="#fff"/><stop offset="1" stop-color="#c9c9c9"/></linearGradient><filter id="luminosity-noclip-2" x="0" y="218.91" width="1054.3" height="145.44" filterUnits="userSpaceOnUse" color-interpolation-filters="sRGB"><feFlood flood-color="#fff" result="bg"/><feBlend in="SourceGraphic" in2="bg"/></filter><mask id="mask-2" x="0" y="218.91" width="1054.3" height="145.44" maskUnits="userSpaceOnUse"><g class="cls-1"><path class="cls-2" d="M0,364.34s216.85-56.73,238.53-69.1,55.77-47.45,55.77-47.45L306.69,222s13.42-3.09,20.65-3.09,13.42,7.22,13.42,7.22l15.49,5.16s18.59,29.91,35.11,44.35,66.09,29.91,66.09,29.91,39.24-18.57,43.37-23.72,21.69-20.63,21.69-20.63L537,266.36s10.41,21.66,50.12,28.88,82.06,7.22,82.06,7.22l98.18-15.18,61.87-48.77h19.62l78.48,67,127-7.18-32,66H0Z"/></g></mask><linearGradient id="Áåçûìÿííûé_ãðàäèåíò_100" x1="547.57" y1="477.47" x2="517.53" y2="262.48" gradientUnits="userSpaceOnUse"><stop offset="0" stop-color="#6672b0"/><stop offset="1" stop-color="#f28b9c"/></linearGradient><linearGradient id="Áåçûìÿííûé_ãðàäèåíò_146" x1="334.86" y1="229.05" x2="337.23" y2="257.49" gradientUnits="userSpaceOnUse"><stop offset="0" stop-color="#b03983"/><stop offset="1" stop-color="#44106b"/></linearGradient><linearGradient id="Áåçûìÿííûé_ãðàäèåíò_99" x1="524.24" y1="224.81" x2="449.87" y2="-24.33" gradientUnits="userSpaceOnUse"><stop offset="0" stop-color="#e192b4"/><stop offset="0.99" stop-color="#7691c2"/></linearGradient><linearGradient id="Áåçûìÿííûé_ãðàäèåíò_100-2" x1="833.4" y1="392.02" x2="522.3" y2="189.54" xlink:href="#Áåçûìÿííûé_ãðàäèåíò_100"/><linearGradient id="Áåçûìÿííûé_ãðàäèåíò_99-2" x1="529.28" y1="32.08" x2="724.14" y2="219.66" xlink:href="#Áåçûìÿííûé_ãðàäèåíò_99"/><linearGradient id="Áåçûìÿííûé_ãðàäèåíò_146-2" x1="729.39" y1="167.1" x2="731.75" y2="176.01" xlink:href="#Áåçûìÿííûé_ãðàäèåíò_146"/><radialGradient id="Áåçûìÿííûé_ãðàäèåíò_18" cx="1585.77" cy="120.88" r="9.65" gradientTransform="translate(-457.99) scale(0.76 1)" gradientUnits="userSpaceOnUse"><stop offset="0" stop-color="#fd9400"/><stop offset="0.17" stop-color="#bd6f00"/><stop offset="0.33" stop-color="#844d00"/><stop offset="0.49" stop-color="#553200"/><stop offset="0.64" stop-color="#301c00"/><stop offset="0.78" stop-color="#160d00"/><stop offset="0.9" stop-color="#060300"/><stop offset="1"/></radialGradient><radialGradient id="Áåçûìÿííûé_ãðàäèåíò_95" cx="1585.33" cy="121.31" r="5.94" gradientTransform="translate(-457.99) scale(0.76 1)" gradientUnits="userSpaceOnUse"><stop offset="0" stop-color="#fd9400"/><stop offset="0.05" stop-color="#f08c00"/><stop offset="0.41" stop-color="#8a5100"/><stop offset="0.69" stop-color="#402500"/><stop offset="0.9" stop-color="#120a00"/><stop offset="1"/></radialGradient><linearGradient id="Áåçûìÿííûé_ãðàäèåíò_145" x1="638.02" y1="62.48" x2="716.64" y2="157.34" gradientUnits="userSpaceOnUse"><stop offset="0" stop-color="#e192b4"/><stop offset="0.2" stop-color="#bc88b7"/><stop offset="0.45" stop-color="#917cba"/><stop offset="0.58" stop-color="#8178bb"/><stop offset="0.65" stop-color="#8b7ab8"/><stop offset="0.77" stop-color="#a77eae"/><stop offset="0.92" stop-color="#d3869f"/><stop offset="1" stop-color="#ec8a97"/></linearGradient><linearGradient id="Áåçûìÿííûé_ãðàäèåíò_96" x1="681.17" y1="107.56" x2="723.7" y2="202.4" gradientUnits="userSpaceOnUse"><stop offset="0" stop-color="#e192b4"/><stop offset="1" stop-color="#00b87c"/></linearGradient><linearGradient id="Áåçûìÿííûé_ãðàäèåíò_147" x1="536.47" y1="90.88" x2="713.4" y2="208.45" gradientUnits="userSpaceOnUse"><stop offset="0" stop-color="#e192b4"/><stop offset="0.17" stop-color="#bc88b7"/><stop offset="0.38" stop-color="#917cba"/><stop offset="0.49" stop-color="#8178bb"/><stop offset="0.57" stop-color="#8b7ab8"/><stop offset="0.72" stop-color="#a77eae"/><stop offset="0.91" stop-color="#d3869f"/><stop offset="1" stop-color="#ec8a97"/></linearGradient><linearGradient id="Áåçûìÿííûé_ãðàäèåíò_97" x1="310.66" y1="126" x2="484.81" y2="184.8" gradientUnits="userSpaceOnUse"><stop offset="0" stop-color="#e192b4"/><stop offset="0.23" stop-color="#b192ba"/><stop offset="0.46" stop-color="#8691c0"/><stop offset="0.58" stop-color="#7691c2"/><stop offset="0.65" stop-color="#8090be"/><stop offset="0.76" stop-color="#9c8fb4"/><stop offset="0.9" stop-color="#c88ca4"/><stop offset="1" stop-color="#ec8a97"/></linearGradient><linearGradient id="Áåçûìÿííûé_ãðàäèåíò_96-2" x1="559.84" y1="59.45" x2="589.51" y2="100.48" xlink:href="#Áåçûìÿííûé_ãðàäèåíò_96"/><linearGradient id="Áåçûìÿííûé_ãðàäèåíò_145-2" x1="573.5" y1="107.21" x2="718.85" y2="192.6" xlink:href="#Áåçûìÿííûé_ãðàäèåíò_145"/><linearGradient id="Áåçûìÿííûé_ãðàäèåíò_96-3" x1="581.79" y1="87.23" x2="635.93" y2="151.29" xlink:href="#Áåçûìÿííûé_ãðàäèåíò_96"/><linearGradient id="Áåçûìÿííûé_ãðàäèåíò_97-2" x1="323.88" y1="86.89" x2="498.02" y2="145.68" xlink:href="#Áåçûìÿííûé_ãðàäèåíò_97"/><radialGradient id="Áåçûìÿííûé_ãðàäèåíò_18-2" cx="722.73" cy="782.64" r="17.5" gradientTransform="translate(-0.26 -461.61) scale(1 0.82)" xlink:href="#Áåçûìÿííûé_ãðàäèåíò_18"/><radialGradient id="Áåçûìÿííûé_ãðàäèåíò_18-3" cx="-3884.3" cy="5803.53" r="10.76" gradientTransform="matrix(0.31, -0.95, 0.42, 0.13, -506.06, -4295.3)" xlink:href="#Áåçûìÿííûé_ãðàäèåíò_18"/><radialGradient id="Áåçûìÿííûé_ãðàäèåíò_18-4" cx="-3890.44" cy="5847.54" r="10.76" gradientTransform="matrix(0.31, -0.95, 0.42, 0.13, -506.06, -4295.3)" xlink:href="#Áåçûìÿííûé_ãðàäèåíò_18"/><radialGradient id="Áåçûìÿííûé_ãðàäèåíò_18-5" cx="-1258.67" cy="-12127.36" r="7.42" gradientTransform="matrix(-0.45, 2.06, -0.3, -0.07, -3511.53, 2037.65)" xlink:href="#Áåçûìÿííûé_ãðàäèåíò_18"/><radialGradient id="Áåçûìÿííûé_ãðàäèåíò_18-6" cx="-794.39" cy="785.38" r="7.42" gradientTransform="translate(2623.1 -461.61) scale(2.39 0.82)" xlink:href="#Áåçûìÿííûé_ãðàäèåíò_18"/><linearGradient id="Áåçûìÿííûé_ãðàäèåíò_96-4" x1="699.92" y1="180.12" x2="677.34" y2="155.26" xlink:href="#Áåçûìÿííûé_ãðàäèåíò_96"/><radialGradient id="Áåçûìÿííûé_ãðàäèåíò_18-7" cx="720.36" cy="169.51" r="14.01" gradientTransform="translate(-0.26)" xlink:href="#Áåçûìÿííûé_ãðàäèåíò_18"/><radialGradient id="Áåçûìÿííûé_ãðàäèåíò_18-8" cx="740.97" cy="119.02" r="14.01" gradientTransform="translate(-0.26)" xlink:href="#Áåçûìÿííûé_ãðàäèåíò_18"/><radialGradient id="Áåçûìÿííûé_ãðàäèåíò_95-2" cx="2601.35" cy="169.18" r="14.01" gradientTransform="translate(-799.89) scale(0.59 1)" xlink:href="#Áåçûìÿííûé_ãðàäèåíò_95"/><radialGradient id="Áåçûìÿííûé_ãðàäèåíò_18-9" cx="1230" cy="-352.45" r="9.65" gradientTransform="matrix(0.99, 0.18, -0.18, 0.98, -535.37, 281.01)" xlink:href="#Áåçûìÿííûé_ãðàäèåíò_18"/><radialGradient id="Áåçûìÿííûé_ãðàäèåíò_95-3" cx="7950.62" cy="-352.28" r="6.32" gradientTransform="matrix(0.31, 0.06, -0.18, 0.98, -1802.15, 54.87)" xlink:href="#Áåçûìÿííûé_ãðàäèåíò_95"/><radialGradient id="Áåçûìÿííûé_ãðàäèåíò_18-10" cx="1644.75" cy="-728.02" r="5.82" gradientTransform="matrix(0.7, -0.08, 0.07, 1.51, -361.97, 1383.18)" xlink:href="#Áåçûìÿííûé_ãðàäèåíò_18"/><radialGradient id="Áåçûìÿííûé_ãðàäèåíò_153" cx="730.17" cy="-939.54" r="5.83" gradientTransform="translate(-0.26 1538.84) scale(1 1.49)" gradientUnits="userSpaceOnUse"><stop offset="0" stop-color="#fd9400"/><stop offset="0.04" stop-color="#e98800"/><stop offset="0.15" stop-color="#b36900"/><stop offset="0.26" stop-color="#834d00"/><stop offset="0.37" stop-color="#5b3500"/><stop offset="0.49" stop-color="#3a2200"/><stop offset="0.61" stop-color="#201300"/><stop offset="0.73" stop-color="#0e0800"/><stop offset="0.86" stop-color="#040200"/><stop offset="1"/></radialGradient><radialGradient id="Áåçûìÿííûé_ãðàäèåíò_153-2" cx="712.4" cy="-958.62" r="5.83" xlink:href="#Áåçûìÿííûé_ãðàäèåíò_153"/><radialGradient id="Áåçûìÿííûé_ãðàäèåíò_153-3" cx="-516.48" cy="-420.54" r="3.56" gradientTransform="matrix(0.95, -0.33, 0.49, 1.4, 1403.04, 558)" xlink:href="#Áåçûìÿííûé_ãðàäèåíò_153"/><radialGradient id="Áåçûìÿííûé_ãðàäèåíò_153-4" cx="-516.92" cy="-430.77" r="1.29" gradientTransform="matrix(0.95, -0.33, 0.49, 1.4, 1403.04, 558)" xlink:href="#Áåçûìÿííûé_ãðàäèåíò_153"/><radialGradient id="Áåçûìÿííûé_ãðàäèåíò_153-5" cx="-207.62" cy="-490.48" r="2.4" gradientTransform="matrix(0.97, -0.26, 0.39, 1.44, 1115.15, 808.71)" xlink:href="#Áåçûìÿííûé_ãðàäèåíò_153"/><radialGradient id="Áåçûìÿííûé_ãðàäèåíò_153-6" cx="1415.71" cy="-1471.02" r="1.29" gradientTransform="matrix(0.96, 0.29, -0.43, 1.42, -1237.88, 1829.27)" xlink:href="#Áåçûìÿííûé_ãðàäèåíò_153"/><radialGradient id="Áåçûìÿííûé_ãðàäèåíò_153-7" cx="1415.74" cy="-1497.61" r="1.29" gradientTransform="matrix(0.96, 0.29, -0.43, 1.42, -1237.88, 1829.27)" xlink:href="#Áåçûìÿííûé_ãðàäèåíò_153"/><radialGradient id="Áåçûìÿííûé_ãðàäèåíò_153-8" cx="1344.66" cy="-1483.39" r="1.29" gradientTransform="matrix(0.96, 0.29, -0.43, 1.42, -1237.88, 1829.27)" xlink:href="#Áåçûìÿííûé_ãðàäèåíò_153"/><radialGradient id="Áåçûìÿííûé_ãðàäèåíò_153-9" cx="40.78" cy="-592.69" r="1.29" gradientTransform="matrix(0.98, -0.18, 0.28, 1.46, 847.9, 1022.9)" xlink:href="#Áåçûìÿííûé_ãðàäèåíò_153"/><radialGradient id="Áåçûìÿííûé_ãðàäèåíò_153-10" cx="-437.67" cy="-392.08" r="1.29" gradientTransform="matrix(0.95, -0.32, 0.47, 1.41, 1310.4, 585.11)" xlink:href="#Áåçûìÿííûé_ãðàäèåíò_153"/><radialGradient id="Áåçûìÿííûé_ãðàäèåíò_18-11" cx="747.51" cy="-967.42" r="5.83" gradientTransform="translate(-0.26 1538.84) scale(1 1.49)" xlink:href="#Áåçûìÿííûé_ãðàäèåíò_18"/><radialGradient id="Áåçûìÿííûé_ãðàäèåíò_153-11" cx="-570.59" cy="-367.21" r="5.83" gradientTransform="matrix(0.93, -0.36, 0.54, 1.38, 1440.47, 462.79)" xlink:href="#Áåçûìÿííûé_ãðàäèåíò_153"/></defs><g class="cls-3"><g id="Layer_2" data-name="Layer 2"><g id="L5"><g class="cls-4"><path class="cls-5" d="M0,364.34s216.85-56.73,238.53-69.1,55.77-47.45,55.77-47.45L306.69,222s13.42-3.09,20.65-3.09,13.42,7.22,13.42,7.22l15.49,5.16s18.59,29.91,35.11,44.35,66.09,29.91,66.09,29.91,39.24-18.57,43.37-23.72,21.69-20.63,21.69-20.63L537,266.36s10.41,21.66,50.12,28.88,82.06,7.22,82.06,7.22l98.18-15.18,61.87-48.77h19.62l78.48,67,127-7.18-32,66H0Z"/></g><path class="cls-6" d="M310.82,227.16l8.26,15.47L345.93,255l14.45-6.19s-7.22-9.28-7.22-10.31a44,44,0,0,0-1-5.16L347,231.29l-8.26,1a12.18,12.18,0,0,0-10.33-5.16Z"/><polygon class="cls-7" points="523.54 262.23 524.57 267.39 530.77 271.51 534.9 267.39 523.54 262.23"/><path class="cls-8" d="M67.12,358.16s142.5-24.76,147.66-29.92,31-19.59,31-19.59l20.66-17.54,36.14-30.94,8.26-14.44,3.1,5.15,28.91,16.51,20.65-4.13,5.16-5.16-7.22-14.44s15.49,19.6,18.58,21.66,15.49,15.48,19.62,18.57,39.24,18.57,39.24,18.57l41.31,10.31s18.58-15.47,19.62-16.5S505,287,506,286s9.3-8.25,9.3-8.25l4.13-9.28,11.36,4.12,6.19-3.09s6.2,9.28,11.36,12.38,32,15.47,32,15.47l18.59,1,205.49-23.72,24.78-33,10.33,4.13h9.29V241.6l32,24.2,43.41,50.07L269.07,356.4Z"/><polygon class="cls-9" points="186.9 353 248.86 334.43 277.77 308.64 303.59 299.36 330.44 271.51 327.34 295.24 333.54 305.55 372.77 312.77 373.81 277.7 369.68 263.26 399.62 288.02 433.7 311.74 480.17 324.12 514.24 315.87 527.67 304.52 530.77 277.7 536.96 272.54 542.13 282.86 559.68 298.33 594.79 305.55 764.14 308.64 836.42 288.02 851.91 258.1 849.85 247.79 896.31 280.8 903.54 338.56 186.9 353"/><path class="cls-10" d="M724,155l-9.15-20.93L697,93.32s12.78-13.94,0-18.84-23.45,3-23.57,3a58.2,58.2,0,0,0-.11-17.18c-1.08-6-3.62-11.74-9.17-14.22-5-2.24-12.87-2.72-20.74-2.44a194.93,194.93,0,0,0-26.53,3.09L470.73,0,276,32.17s19.75-6.22-2.62-3.49C264.75,29.73,257.52,36,254,43.2c-5.7,11.45-2,25,20.71,22.55,4.26-.46,7.72-.91,10.52-1.3,6.24-.86,9.2-1.44,10.45-1.32,2.37.22-1.41,2.93-.67,10.91,1.31,14.07,36.24,8.83,36.24,8.83-4.91,8.18,12,7.86,14.09-5,0,0,11.79,16.46,30.35,12a9.17,9.17,0,0,0,1.65-.56c5.86-2.52,10.45-10.32,11.45-13.5,12.11,4,26.29,7.22,35.69,3.59C448.79,70,435.61,50,434.94,49.52c.22.12,4.89-.56,5.53,3.06,2.64,15.14,26.44,29.2,47.62,19.39,6.57-3,10.15-4.79,11.35-7.12a7.88,7.88,0,0,0,.77-2,44.6,44.6,0,0,0,3.67,4.09l.34.34.18.17a51.92,51.92,0,0,0,6.5,5.39l.54.36.55.37.56.36.58.35,1.17.69.3.16.6.33.62.32.31.15c.62.31,1.26.6,1.91.87l.66.27.66.25.67.24a30,30,0,0,0,3.12.88l.36.08a25.26,25.26,0,0,0,6,.52,5.25,5.25,0,0,0,.56,0h.29l.28,0,.28,0A24.53,24.53,0,0,0,537,77.53c11.4-4.14,11-8.32,8.44-11.17l-.12-.13a12.19,12.19,0,0,0-.9-.86l-.13-.11a16,16,0,0,0-1.61-1.18l-.16-.1c-.56-.36-1.07-.64-1.45-.84l-.08,0-.25-.12,41.13,19.33,69.31,38.77,56.77,31.75,20,11.17Z"/><path class="cls-11" d="M295.64,63.13l.86-1.08S322,49,327.39,63.9s-10,19-10,19h13.86s-9.06-33.25,11.25-29c20,4.18,8.49,16.68,8.09,17.11.32-.29,7.85-7.07,13-1.85s.11,10.05,0,10.14c.21,0,13.87-4,15.06,4.59a7.49,7.49,0,0,1-1.29,5.43c5.86-2.52,10.45-10.32,11.45-13.5,12.11,4,26.29,7.22,35.69,3.59C448.79,70,435.61,50,434.94,49.52c.22.12,2.29,1.3,5.53,3.06.3-3.71,3.67-7,16.61-4.16,23.9,5.22,16,16.68,15.63,17.21.24-.31,3.4-4.17,6.86-2.49s.54,5.23.07,5.81c.88-1,10.27-11.73,16.2-10.07,3,.85,3.69,3.48,3.6,6a7.88,7.88,0,0,0,.77-2,44.6,44.6,0,0,0,3.67,4.09l.34.34.18.17a51.92,51.92,0,0,0,6.5,5.39l.54.36.55.37.56.36.58.35,1.17.69.3.16.6.33.62.32.31.15c.62.31,1.26.6,1.91.87l.66.27.66.25.67.24a30,30,0,0,0,3.12.88l.36.08a25.26,25.26,0,0,0,6,.52,5.25,5.25,0,0,0,.56,0h.29l.28,0,.28,0A24.53,24.53,0,0,0,537,77.53c11.4-4.14,11-8.32,8.44-11.17l-.12-.13a12.19,12.19,0,0,0-.9-.86l-.13-.11a16,16,0,0,0-1.61-1.18l-.16-.1c-.56-.36-1.07-.64-1.45-.84l-.08,0-.25-.12,41.13,19.33,69.31,38.77,63.67,13L697,93.32s12.78-13.94,0-18.84-23.45,3-23.57,3a58.2,58.2,0,0,0-.11-17.18c-1.08-6-3.62-11.74-9.17-14.22-5-2.24-12.87-2.72-20.74-2.44a194.93,194.93,0,0,0-26.53,3.09L470.73,0,276,32.17s19.75-6.22-2.62-3.49C264.75,29.73,257.52,36,254,43.2c9.83-3.93,25.89-8.48,32.5.31,6.73,9,2.23,16.86-1.27,20.94Z"/><path class="cls-12" d="M1010.62,333.45c-2.14-1.71-311.36,9.35-311.36,9.35l-3.28.91-129.12-6.89-33.75,6H459.22l32.31-26.91,31,11.34s15.79-2.3,42.45-18.38l.14-.09.25-.15c9.77-5.89,20.23-12.34,30.59-19l0,0c28.34-18.11,55.92-37.52,66.56-50.48C687.74,208.41,695,173,695,173s5.56,2.14,15.81,0c9.41-2,39.74-21.92,44.61-25.16l.66-.44s26.48,60.16,32.45,70,69.62,78.08,85,83.2,32.89-6.82,32.89-6.82L919.65,298l22.63,15.36,61.08,8.11S1012.75,335.15,1010.62,333.45Z"/><path class="cls-13" d="M755.42,147.85l-1.25,7,0,.06h0L739.52,172.2l-1.16-5.39-17.44,11s-5-3-8-2.17c-1.84.52-6.94-.33-10.61-1.06-1.2-.23-2.24-.46-3-.62h0l-1.07-.25L679.2,222.06l3.84-1.27s-14.53,20.9-22.21,27.3C656.18,252,622.18,273.3,596,289.61c28.34-18.11,55.93-37.52,66.56-50.48C687.74,208.41,695,173,695,173a18.44,18.44,0,0,0,4.7.86,39.61,39.61,0,0,0,11.11-.85c4.23-.89,12.68-5.39,21.14-10.39C742.34,156.49,752.74,149.63,755.42,147.85Z"/><path class="cls-14" d="M762.05,155.06c-6.8,8.64-20.08-1.29-20.08-1.29s-6-2.42-6.3,5.61,7.84,14.86,7.84,14.86-.7.81-1.91,1.95c-5.57-9-14.46-23.73-16.13-29.16l-.18-.62c-1.38-5.32,4.78-9.2,9.17-5.89a3.39,3.39,0,0,0,3.68.65c4.94-2.47,5.56-19.45-1.24-22.54s-15.14,12.66-13.28,28.4c1.42,12.12,9.29,27,12.84,33.15a20.44,20.44,0,0,1-9.42,3.33,60.81,60.81,0,0,1-18.1-2.09s-11-46.12-36-54.14-49.44,12.65-49.44,12.65-8.34,21.61-28.12,21.92S582.71,147,582.71,147s-87.75,7.41-98.87,0c-16.24-10.81,42.9-12.75,45.6-12.95-2,.18-27.32,2.54-26.14,4.62S566,141.17,566,141.17s-4.95-25.93,13-30.25,28.22,14.3,28.22,14.3.82-81.9,34.81-80S678,84.86,678,84.86,692.17,75,701.44,86.4a31.92,31.92,0,0,1,6.73,24.51c.39-.4,50.23-39.19,57.43-5,4.95,23.46-3.55,34.66-3.55,34.66S768.85,146.42,762.05,155.06Z"/><path class="cls-15" d="M755.22,154.24s-.26.5-.68,1.26c-3.13,5.67-16.33,28.6-24.94,28.6-9.23,0-25.38-8.47-27.29-9.49l-.19-.1s13.81-.23,18.94-1.08c4.52-.75,27.68-15.13,33.05-18.49h0l.06,0Z"/><ellipse class="cls-16" cx="742.63" cy="120.88" rx="2.44" ry="3.22"/><path class="cls-17" d="M751.18,120.88c0,5.33-3.27,9.65-7.31,9.65s-7.32-4.32-7.32-9.65,3.28-9.65,7.32-9.65S751.18,115.55,751.18,120.88Z"/><path class="cls-18" d="M748,121.31c0,3.28-2,6-4.5,6s-4.51-2.67-4.51-6,2-5.94,4.51-5.94S748,118,748,121.31Z"/><path class="cls-19" d="M755.23,166.61s13.66,47.78,15.79,52,15,9.39,15,9.39l68,62,13.56,21.59h13.24l-50.55,36.16-109.39-1.16-6.41,3-18.59-12.84h-42l25.6-24.05s90.87-30.94,99.13-25.79c3,1.87-2.06-26.81-2.06-26.81L795.85,274l-3-7.67-13.3-34.84-14.94-9Z"/><path class="cls-19" d="M731.3,189.44s-.42,6.83-3,26.88-14.53,64.85-14.53,64.85L696.7,292.68l-3.85,5.55,53.73-6.92-23.75-2.07-3.5-3.81,18.38-46.92h-5.13l.86-21.34Z"/><polygon class="cls-19" points="749.24 217.38 755.22 251.51 767.17 278.39 758.21 249.38 749.24 217.38"/><path class="cls-19" d="M717.63,220.79s-2.13,17.49-2.13,21.76S704,273.69,704,273.69v-8.11l-28.62,46.08-39.29,14.92-64.5,2.13,74.75-16.63,24.77-16.21,33.75-59.3,8.54-.42Z"/><polygon class="cls-20" points="906.41 295.04 888.47 302.29 892.74 302.29 918.41 297.75 906.41 295.04"/><polygon class="cls-21" points="806.89 335.13 941 314.24 1000.79 321.16 806.89 335.13"/><path class="cls-13" d="M755.32,156.8,753,170.66s-8.48,8.09-8.87,8.09a9.18,9.18,0,0,0-3.47,2.31,17.78,17.78,0,0,0-.77,3.08l-1.54-1.93a10.37,10.37,0,0,0-3.85,1.54c-1.55,1.16-11.57,3.47-11.57,3.47L718.31,183s0,1.93-.77,1.16-17.87-10-18.2-10.15c.73.16,1.77.39,3,.62,1.91,1,18.06,9.49,27.29,9.49,8.61,0,21.81-22.93,24.94-28.6Z"/><path class="cls-22" d="M667.56,268.36c3.17,1.09,14.19-17.77,16.81-20.5s2.62-7.2,5.57-9.27,8.73-24.53,11.35-24.53,5.35,11.55,5.9,13.3,2.62,9.16,4.91,10.14,4,4.47,5.68,5.56-.11,3.38,0,9.92-6.44,22.58-6.55,26.28-17.47,8.29-20.09,12.65-18.89,26.28-20.85,28.14S691,300.31,691,300.31a22.9,22.9,0,0,1,4.37-7.85c3.49-4.36,16.39-8,17.69-10.83s12.2-34.91,13-39.52.07-9,1.21-9.19.82,3.6,3.11,3.27,2.3-.86,2.52-7,2-31.68,2.06-34-.21-5.67,1.64-5.12,5.46,3.7,5.46,5.12.76,9.6,2.4,10.25,3.06,1.64,3,3.05,1.42,7.75,1.75,8.84,5.13,10,3.49,0-3.49-15.81-5-18.43-3.28-10.14-3.17-11.67-2.18-6.43-2.18-6.43l2.18-3.6-1.74-3.6s-6.67,5.1-9.4,4.35-8.62-2.71-12.44-2.06-6.55,2.29-8.19,1.53-9.49-2.4-9.49-2.4-3.35-.48-3.7,0-2.42,10-2.42,10l-1.74,6.21s-.77,9.16-1.42,10.58-4.81,10.8-4,11.78-2.84,14.72-6.22,16.36-9.06,8.72-9.5,8.61-4.59,5.23-4.59,5.23l-1.2,4s-3.93,4-.87,2.51,8.51-4.58,10.7-6.55,5.46-5.23,5.46-5.23L673.24,257Z"/><path class="cls-23" d="M747.37,168.05s-2.58,3.33-4.74,6c-1.07,1.3-2,2.44-2.52,2.94a81,81,0,0,1-7,5.2S687.47,128.21,675,123c-8.44-3.52-38.49-7.16-57.08-9.15-8.89-1-15.16-1.53-15.16-1.53l2.47-29.16A26.77,26.77,0,0,1,607,75.52q.38-1,.87-2c3.42-7.17,11.29-15.44,29.3-13.76a28.8,28.8,0,0,1,14.72,5.3h0c5.94,4.36,9.3,10.74,11.19,16.89,0,.14.09.29.13.44,3.69-2.11,8.13-1.29,11.87.21a35,35,0,0,1,7.87,4.54,4.08,4.08,0,0,1-.81-1.59c-.65-2.47.43-7.49,15.62-12.64a17.16,17.16,0,0,1,11.92-.08C722,77.48,726.51,96.5,726.51,96.5l0,0c.39-.56,8.33-11.6,17.55,1.75a16,16,0,0,1,2,4c4.31,12.88-9.58,27.31-9.58,27.31l.2.69Z"/><path class="cls-24" d="M736.74,130.27l-.2-.69s13.89-14.43,9.58-27.31a12.9,12.9,0,0,1,.29,5c-1.09,5.21-7.95,14.52-16.45,10.68-8.28-3.73-3.67-20.6-3.43-21.46l0,0s-4.54-19-16.84-23.68c7.41,5.14,7.89,14.56,0,20.2C695.15,103.43,683,87.14,683,87.14h0l-.82-1.59a4.08,4.08,0,0,0,.81,1.59,35,35,0,0,0-7.87-4.54s10.21,10.84-4.18,12.49a12.4,12.4,0,0,1-5.56-.4c-5.77-2.07-3.41-9.71-2.53-12.06.16-.43.27-.68.27-.68-1.89-6.15-5.25-12.53-11.19-16.89.06.15,8.11,20.19-9.78,25.37C627.65,94.61,613,79.55,607.86,73.51c-1.21-1.42-1.9-2.34-2-2.39l1.08,4.4,9.07,37,1.86,1.39c18.59,2,48.64,5.63,57.08,9.15,12.47,5.2,58.12,59.15,58.12,59.15s4.16-2.81,6.23-4.53c-2-5.45-7.93-20.5-14.46-30.66a154.21,154.21,0,0,0-17.82-22.45l9.74,6.7s-8.64-14.65,4.93-11.77,3.09,14.44,3.09,14.44l14.58,43.7c.28-.24.52-.45.7-.63.5-.5,1.45-1.64,2.52-2.94l-6.09-43.75Zm-50.5-32c-3.62.53-3.31,2.9-3.29,3l-1.37-3s.13-4.93,6.71-3.15S689.91,97.68,686.24,98.23ZM713,112.33c-.14,1.78-1.51,3.83-3.43,4.11a22.72,22.72,0,0,1-4.52,0c-2.47,0-4.53-6-1.37-7.26S713.1,110.55,713,112.33Zm6.71-5.75c-1.78,1.92-13.57,2.6-14.11.55,0,0-3.29-7.53,6.85-8.9S721.47,104.66,719.68,106.58Z"/><path class="cls-25" d="M733.16,183.32l-.83.23-6.73,1.8s-25.52-50.64-77.51-58.07c-32.19-4.6-91.9-4.8-132.73-4.29-25.14.32-43.12.9-43.12.9l23.63-2.69s12.93-29,28.37-28.36c15.82.67,28.89,14.42,29.3,14.85-.53-.73-31.95-44.2,23.65-46.57a73,73,0,0,1,16.47,1.07h0a58.21,58.21,0,0,1,43.87,36.05s10.56-8.09,19.07,0a33.16,33.16,0,0,1,4.56,5.39h0a29.31,29.31,0,0,1,4.89,12.16,6.7,6.7,0,0,1,.81-.65c2.29-1.63,9.44-5.37,20.93.65l.32.17a18.14,18.14,0,0,1,2.16,1.5h0c.74.6,1.51,1.3,2.31,2.09h0C708,134.82,733.16,183.32,733.16,183.32Z"/><path class="cls-26" d="M380.15,132.18c-1,0-119.28,1.82-94.48,1.47s26.77-15.23,40.66-12c8.7,2,8.92,7.79,8.92,7.79s.5-1.77,3.48-2.48c6.11-1.46,11.4,3.89,11.4,3.89Z"/><path class="cls-27" d="M733.16,183.29l-8.4,5c-22-34.63-43.75-41.08-51.27-45-38-20.06-84.21-22.51-84.21-22.51L515.36,123s6.92-19.18,24.21-16.71a116.05,116.05,0,0,1,30.25,8.64c-.42-.35-17.17-14.55-8.2-18.21a15.92,15.92,0,0,1,15.56,1.55s-21.92-38.5,16.48-36.08h0A57.27,57.27,0,0,1,625,78.83c10,13.16,11.78,29.27,11.78,29.27s4.76-13.27,16.43-9.87a16.23,16.23,0,0,1,7.91,5.37v0a31.44,31.44,0,0,1,5.7,11.5c.47,1.73.65,2.86.65,2.86a16.68,16.68,0,0,0,18.15,2.78c2.57-1.1,3.11-2.83,2.45-4.82a5,5,0,0,0-.28-.69l2.44,2.2h0l2.31,2.08h0C708,134.79,733.16,183.29,733.16,183.29Z"/><path class="cls-28" d="M713.74,184.12c-.62-.8-3-3.86-6.51-8a218.54,218.54,0,0,0-19.84-20.78,10,10,0,0,1-2,4.25c-4.16,4.95-12.54,4.09-15.28,1.36a5.82,5.82,0,0,1-1.31-1.92c-1.2-3,1.24-5.54,1.31-5.61-.13.09-8.34,5.8-17.47,6.37a18.67,18.67,0,0,1-10.35-2.13c-6.67-3.67-7-8.64-5.91-12.4-9.25,3-17.2,6.32-21.34,5.66-8.37-1.33-3.93-6.58-3.78-6.75-.71.09-66,9-66.17-7.43C544.93,126,556,123.3,566.77,123.21h0a101.25,101.25,0,0,1,20.34,2.21s-8-7.59-.48-10.29,15,2.6,15.12,2.7a21.69,21.69,0,0,1-1.8-4.48c-1.08-3.93-1-9,6.53-9a24.78,24.78,0,0,1,13.66,4.47q1.1.72,2,1.47a35.69,35.69,0,0,1,3.65,3.25c.94,1,1.45,1.62,1.45,1.62s0-.26,0-.72c-.09-3.64.29-19.8,15-15.42a29.65,29.65,0,0,1,4.87,2c21.74,10.81,9.45,25.66,9.45,25.66s39.24-21.49,67.07,53.08C730.11,197,712.39,182.16,713.74,184.12Z"/><path class="cls-29" d="M639,130.36s2.6-9-11.67-8.64c-14.08.31-9.62,9.34-9.51,9.57-.2-.18-5.23-4.61-7.78-3.4s0,3.4,0,3.4-11.67,4-32,3.7-23.82-10.89-11.27-11.78h0a101.25,101.25,0,0,1,20.34,2.21s-8-7.59-.48-10.3,15.12,2.71,15.12,2.71a22.69,22.69,0,0,1-1.8-4.48c4.65,2.37,11.56,4.77,16.55,1.58,2.79-1.78,3.68-4,3.64-6.14a7.07,7.07,0,0,0-.13-1.3,25.42,25.42,0,0,0,2.17,2.76,22.43,22.43,0,0,0,3.64,3.26c.46.32.93.62,1.42.9a16.42,16.42,0,0,0,6.11,2.06c12.11,1.55,13.84-9.87,13.84-12.65,0-1.47-2.54-3.37-4.93-4.83a29.65,29.65,0,0,1,4.87,2c21.74,10.81,9.45,25.66,9.45,25.66Z"/><path class="cls-30" d="M499.28,128.7c-.77.06-15.68,1.4-35.61,2.47-25.57,1.38-59.38,2.32-82.14-.38l-.21,0c-2.25-.27-4.39-.58-6.4-.92-10.68-1.84-17.74-4.77-18.38-9.28-3-20.8,36.22-37,49-32.78s16.35,19.4,13.19,22a14.8,14.8,0,0,1-7.65,2.75l15.86.9s6-9.12,14.25-4.66-6,8.32-1.05,13.74S462.31,131.15,499.28,128.7Z"/><path class="cls-11" d="M463.67,131.17c-25.57,1.38-59.38,2.32-82.14-.38l-.21,0c-.74-.07-3.35-.35-6.4-.92-7-1.31-16.24-4.13-10.82-9.45,8.14-8,41.48-.16,42.17,0-.31-.18-7.06-4.06-1.53-5.14s20.58,6.24,20.58,6.24,11.83,8.09,31.38,9.19C459.05,130.82,461.38,131,463.67,131.17Z"/><path class="cls-31" d="M709.15,175s1.2,1.85,4.37,0,3.6-8.75,5.73-9.28,2.33,5,2.83,5,3.67-12.67,7.16-12.13,2.23,13.9,4,14.47,1.81-2.76,3.46-2.67,2.2,2.7,2.2,2.7,1-15.26,3.82-14.5-1.74,12.63-1.47,14.22,2.92-1,2.92-1-5.49,7.91-9.31,9.65-16.92-.76-16.92-.76l-9-2.88-5-2.47Z"/><path class="cls-16" d="M703.15,175.05s3.93,2.58,5.89,2.15,4.59,1.42,4.59,1.42l1.64,1.41s8.73-.43,12.11-.32a8.4,8.4,0,0,1,5.09,1.62h1.62l5.42-3.72s1.74,1,2.39,1.44-1.85,1.78-1.58,3.07-.27,5.44,1.36,7.95,2.84,4.14,2.84,5.12v3.27s-2.84-7.74-3.6-8.07-2.18-4.58-2.29-5.34-1.53-1.85-1.53-1.85-5.24,3.38-5.46,5.67a28,28,0,0,0,0,4.67c0,.23.24,15.17.57,18.23s-4.81,13.84-4.81,13.84,2.62-15.48,2.62-18.1-1.2-17.66-2.62-19.08a6.08,6.08,0,0,0-2.48-1.68l-6.36,1a60.88,60.88,0,0,1-5.35-4c-2.84-2.4-7.53-3.16-7.53-3.16s-4.15,7-4.91,8.29-2.93,6.85-2.4,9.2S694,209.58,694,209.58l1.85-9.7,2.3-8.94a37.78,37.78,0,0,1-.88-3.71c0-.54,4.92-8.51,4.92-8.51Z"/><polygon class="cls-16" points="689.94 223.76 688.08 228.34 682.41 234.34 677.38 238.59 680 234.12 684.37 230.41 689.94 223.76"/><polygon class="cls-16" points="724.87 234.12 724.43 244.59 722.36 250.69 720.09 256.25 724.87 234.12"/><polygon class="cls-16" points="731.2 221.91 730.11 225.07 729.57 227.47 730.44 232.92 731.2 221.91"/><polygon class="cls-16" points="746.6 198.03 746.6 202.82 748.34 209.04 750.75 212.88 746.6 198.03"/><path class="cls-16" d="M714.17,187.23s2.62.76,2.84,2.4.77,6,.77,6l-1.86,6.21,1.75,6.65,1.58-10.43,0-5.49,1.74-3.16Z"/><polygon class="cls-16" points="718.54 223.76 717.78 227.47 717.78 232.92 715.94 236.15 716.97 226.43 718.54 223.76"/><polygon class="cls-16" points="703.26 211.66 707.84 216.56 707.84 218.74 710.57 228.99 714.17 236.19 708.72 229.1 707.08 218.74 703.26 211.66"/><polygon class="cls-16" points="702.16 191.26 701.4 197.92 703.26 203.81 703.26 207.51 701.4 203.81 699.33 201.84 702.16 191.26"/><ellipse class="cls-32" cx="723.26" cy="177.42" rx="17.51" ry="14.28"/><path class="cls-33" d="M705.48,170.56c2.47.8,3,6,1.14,11.68s-5.33,9.59-7.8,8.79-3-6-1.14-11.69S703,169.76,705.48,170.56Z"/><path class="cls-34" d="M721.85,182.34c2.47.8,3,6,1.14,11.68s-5.33,9.58-7.79,8.78-3-6-1.14-11.68S719.39,181.54,721.85,182.34Z"/><path class="cls-35" d="M720.22,258.36c-1.24-.27-.74-7.34,1.11-15.79s4.35-15.08,5.59-14.81.74,7.34-1.11,15.79S721.46,258.64,720.22,258.36Z"/><path class="cls-36" d="M742,179.66c0,3.35-7.94,6.06-17.74,6.06s-17.74-2.71-17.74-6.06,7.94-6.06,17.74-6.06S742,176.31,742,179.66Z"/><path class="cls-16" d="M738.77,177.42s.84-20.18,3.9-18.76-1.8,14.56-1.39,14.64,3.06-1.67,3.06-1.67-3.65,5.6-4.9,6.29S738.77,177.42,738.77,177.42Z"/><path class="cls-16" d="M727.82,169.13s-2.4-11.34.87-10.58,1.2,10.8,1.53,11.23.37-.87,1.17,0-2.6,6.1-2.6,6.1Z"/><path class="cls-37" d="M707.51,176.26l-.28-.15a218.54,218.54,0,0,0-19.84-20.78,10,10,0,0,1-2,4.25c1.48-3.14,2.12-7.19-3.76-8.09C671.71,150,668.75,159,668.75,159c-1.2-3,1.24-5.54,1.31-5.61-.13.09-8.34,5.8-17.47,6.37a11.93,11.93,0,0,1,1.85-.76c8.36-2.74,15.9-19.31,1.64-22.18s-19.74,8.35-19.74,8.35c1-14.65,25.77-13.55,25.77-13.55s-1.51-5.34,9.81-5.21h0a12.93,12.93,0,0,1,2.59.28c8.68,1.88,8.43,12.59,8.43,12.59s6.3-5.34,12.21.53-.56,13.44-.56,13.44Z"/><path class="cls-38" d="M734.92,169.51a14,14,0,1,1-14-14A14,14,0,0,1,734.92,169.51Z"/><ellipse class="cls-39" cx="741.52" cy="119.02" rx="14.03" ry="14.01"/><ellipse class="cls-40" cx="740.37" cy="169.18" rx="8.3" ry="14.01"/><path class="cls-16" d="M740.24,150.78c-.34,1.92-1.2,3.38-1.91,3.25s-1-1.79-.67-3.71,1.21-3.39,1.92-3.26S740.59,148.85,740.24,150.78Z"/><path class="cls-41" d="M748.41,152.24A9.66,9.66,0,1,1,740.6,141,9.67,9.67,0,0,1,748.41,152.24Z"/><path class="cls-42" d="M740.9,151.28c-.62,3.44-2,6.07-3.09,5.87s-1.47-3.13-.86-6.57,2-6.07,3.09-5.88S741.51,147.84,740.9,151.28Z"/><path class="cls-16" d="M730.63,153.21c0,1.85-.59,3.35-1.31,3.35s-1.32-1.5-1.32-3.35.59-3.34,1.32-3.34S730.63,151.37,730.63,153.21Z"/><path class="cls-43" d="M733.58,152.76c.24,4.87-1.38,9-3.62,9.27s-4.25-3.49-4.48-8.36,1.38-9,3.62-9.27S733.35,147.9,733.58,152.76Z"/><path class="cls-16" d="M732,142.28c0,.81-.44,1.46-1,1.46s-1-.65-1-1.46.44-1.46,1-1.46S732,141.47,732,142.28Z"/><ellipse class="cls-44" cx="730.71" cy="142.69" rx="5.84" ry="8.67"/><path class="cls-16" d="M714.17,113.93c0,.8-.44,1.46-1,1.46s-1-.66-1-1.46.44-1.46,1-1.46S714.17,113.12,714.17,113.93Z"/><ellipse class="cls-45" cx="712.92" cy="114.33" rx="5.84" ry="8.67"/><path class="cls-16" d="M709.32,137.73c.16.46,0,.93-.27,1s-.7-.18-.86-.65,0-.92.27-1S709.16,137.27,709.32,137.73Z"/><path class="cls-46" d="M712,137c1,2.76.24,5.52-1.62,6.17s-4.14-1.06-5.11-3.82-.24-5.52,1.62-6.17S711.08,134.28,712,137Z"/><path class="cls-16" d="M703.47,123.83c.06.17,0,.34-.1.37s-.25-.06-.31-.23,0-.34.1-.38S703.41,123.66,703.47,123.83Z"/><path class="cls-47" d="M704.46,123.58c.35,1,.09,2-.59,2.24s-1.5-.39-1.85-1.39-.09-2,.59-2.24S704.11,122.58,704.46,123.58Z"/><path class="cls-16" d="M726,158.19c.09.32,0,.63-.23.68s-.47-.15-.55-.47,0-.63.23-.69S725.86,157.87,726,158.19Z"/><path class="cls-48" d="M727.82,157.86c.51,1.9-.12,3.73-1.4,4.07s-2.74-.92-3.25-2.83.12-3.72,1.4-4.06S727.31,156,727.82,157.86Z"/><path class="cls-16" d="M746.87,140.14c0,.17-.19.28-.3.24s-.17-.2-.12-.37.19-.28.3-.24S746.92,140,746.87,140.14Z"/><path class="cls-49" d="M747.82,140.51c-.31,1-1.11,1.68-1.79,1.47s-1-1.19-.69-2.21,1.1-1.67,1.79-1.47S748.12,139.5,747.82,140.51Z"/><path class="cls-16" d="M758.22,102.3c-.05.17-.18.28-.3.25s-.16-.21-.11-.38.18-.28.3-.24S758.27,102.13,758.22,102.3Z"/><path class="cls-50" d="M759.17,102.67c-.3,1-1.1,1.68-1.79,1.47s-1-1.19-.69-2.21,1.11-1.67,1.79-1.47S759.48,101.66,759.17,102.67Z"/><path class="cls-16" d="M684,102.19c0,.17-.19.28-.3.25s-.17-.2-.12-.38.19-.28.3-.24S684,102,684,102.19Z"/><path class="cls-51" d="M684.94,102.57c-.31,1-1.11,1.67-1.79,1.47s-1-1.2-.69-2.21,1.1-1.68,1.79-1.47S685.24,101.55,684.94,102.57Z"/><path class="cls-16" d="M725.11,149.71c0,.17,0,.33-.15.36s-.24-.11-.28-.28,0-.34.16-.36S725.08,149.53,725.11,149.71Z"/><path class="cls-52" d="M726.13,149.61c.19,1-.22,2-.92,2.13s-1.43-.61-1.63-1.65.22-2,.92-2.13S725.93,148.57,726.13,149.61Z"/><path class="cls-16" d="M710.13,171.16c.06.17,0,.33-.1.37s-.25-.07-.31-.24a.28.28,0,0,1,.1-.37C709.94,170.88,710.08,171,710.13,171.16Z"/><path class="cls-53" d="M711.12,170.92c.34,1,.07,2-.61,2.23s-1.5-.4-1.84-1.41-.06-2,.62-2.23S710.79,169.91,711.12,170.92Z"/><path class="cls-16" d="M749.33,100.84c0,.81-.44,1.46-1,1.46s-1-.65-1-1.46.44-1.46,1-1.46S749.33,100,749.33,100.84Z"/><path class="cls-54" d="M753.91,101.25c0,4.79-2.61,8.67-5.84,8.67s-5.84-3.88-5.84-8.67,2.61-8.67,5.84-8.67S753.91,96.46,753.91,101.25Z"/><path class="cls-16" d="M710.77,161c.3.75.13,1.52-.38,1.72s-1.15-.25-1.45-1-.12-1.52.39-1.72S710.48,160.29,710.77,161Z"/><path class="cls-55" d="M715.19,159.76c1.75,4.46.72,9-2.28,10.19s-6.86-1.49-8.6-5.95-.72-9,2.29-10.2S713.45,155.3,715.19,159.76Z"/><path class="cls-56" d="M476,339.59l11.36-16.5,4.13-7.22s25.81,12.37,28.91,13.4S538,327.21,538,327.21l31-2.06-20.65,18.56Z"/><path class="cls-57" d="M642.62,367.17l-44.76,2.29-56.61,1.62s24-2.4,24.78-3.71-109.38,2.73-109.38,2.73l-21.58-1.69-48.29,4.85-33.08.33,16.71-1.42,1.31-2.07,26.3,1,48.37-6.76,18.88,3.38,106-3.49,10.27.11,94.86-.76Z"/><polygon class="cls-58" points="716.54 380.5 719.99 381.71 720.41 380.5 716.54 380.5"/></g></g></g></svg>