<svg xmlns="http://www.w3.org/2000/svg" viewBox="0 0 963.64 123.2"><defs><style>.cls-1{isolation:isolate;}.cls-2{mix-blend-mode:screen;opacity:0.17;}.cls-3{fill:#fff;}</style></defs><g class="cls-1"><g id="Layer_2" data-name="Layer 2"><g id="L6"><g class="cls-2"><path class="cls-3" d="M873.4,61.8l90.24-27.28V0c-29.39,5.66-57.74,11.14-72,14-37,7.3-43.46,17.86-43.46,17.86l74.39-11.93L823.06,45.37l-70.78.47s5-19.86-31.24,9.09c0,0-.34-28.49-35-35.31a83.75,83.75,0,0,0-15.92-1.45c-50.43-.07-65,28.12-65,28.12s-2.39-6.42-10.36-5.14-15.88,28.41-15.88,28.41L498,66.21s19.07-8.51,2.32-19.43-64.83,3.59-64.83,3.59,12.74-22.46-14.84-33S268.58,37.67,268.58,37.67s-.17-9.5-17.65-8.06-40.07,5.07-40.07,5.07L0,7.45c18.06,2.89,407.85,65,412.82,62.89s-15.2-9.81-15.2-9.81,228.79,24.55,229.26,19-26-9.43-26-9.43,50.95-13.62,74.6-10.61,19.79,21.33,19.79,21.33-29.66,2-18.44,12.49,74.89,16.57,82.69,5.79,2-12.19,2-12.19S880,91.11,885.9,80.21,873.4,61.8,873.4,61.8Z"/><path class="cls-3" d="M478,91.7l76.57,12.17s-18.33-12-31.69-13.58-31.2.33-31.2.33-6.05-6.13-12.88-5.6-8.34,1.72-8.34,1.72l-156.14-20L309,66.09Z"/><path class="cls-3" d="M719.75,123.2,639.07,113l23-1s-7.71-5.57,1.59-7.06S697,117.32,697,117.32s2.23-3.08,7.76-2.61,24.5,8.32,25.83,8.11,33.85-1.35,65.52-7.79,50-10.75,50-10.75S803.39,118,796.75,119,719.75,123.2,719.75,123.2Z"/></g><ellipse class="cls-3" cx="111.2" cy="88.64" rx="29.43" ry="29.4"/></g></g></g></svg>