<?xml version="1.0" encoding="UTF-8"?><svg xmlns="http://www.w3.org/2000/svg" xmlns:xlink="http://www.w3.org/1999/xlink" viewBox="0 0 802.31 402.75"><defs><style>.y{fill:url(#t);}.a`{fill:url(#r);}.aa{fill:#ff8337;}.ab{fill:url(#l);}.ac{fill:url(#u);}.ad{isolation:isolate;}.ae{fill:url(#v);}.af{fill:#062765;}.ag{fill:url(#m);}.ah,.ai{fill:#ffb;}.aj{fill:#0856a4;}.ak{fill:url(#f);}.ai,.al{mix-blend-mode:soft-light;}.ai,.al,.am{opacity:.5;}.an{fill:url(#p);}.ao{fill:url(#g);}.ap{fill:#083e98;}.aq{fill:url(#i);}.ar{fill:#004d98;}.as{fill:url(#h);}.at{fill:url(#d);}.au{fill:url(#e);}.av{fill:url(#q);}.av,.aw{mix-blend-mode:screen;opacity:.61;}.ax{fill:#081476;}.ay{fill:#083982;}.b`{fill:url(#x);}.ba{fill:url(#s);}.bb{fill:url(#w);}.bc{fill:url(#j);}.bd{fill:url(#o);}.be{fill:#fc0;}.bf{fill:url(#k);}.aw{fill:url(#n);}.am{fill:#610051;mix-blend-mode:multiply;}.bg{fill:#082d91;}.bh{fill:#903982;}</style><linearGradient id="d" x1="401.16" y1="402.75" x2="401.16" y2="337.94" gradientTransform="matrix(1, 0, 0, 1, 0, 0)" gradientUnits="userSpaceOnUse"><stop offset="0" stop-color="#0e3d77"/><stop offset="1" stop-color="#128ec7"/></linearGradient><linearGradient id="e" x1="703.06" y1="371.6" x2="703.06" y2="350.81" gradientTransform="matrix(1, 0, 0, 1, 0, 0)" gradientUnits="userSpaceOnUse"><stop offset="0" stop-color="#003b86"/><stop offset="1" stop-color="#0b4887"/></linearGradient><linearGradient id="f" x1="572.83" y1="378.68" x2="572.83" y2="370.34" gradientTransform="matrix(1, 0, 0, 1, 0, 0)" gradientUnits="userSpaceOnUse"><stop offset="0" stop-color="#00297f"/><stop offset="1" stop-color="#0b3c75"/></linearGradient><linearGradient id="g" x1="676.12" y1="361.21" x2="676.12" y2="349.62" xlink:href="#e"/><linearGradient id="h" x1="541.52" y1="356.4" x2="541.52" y2="350.82" xlink:href="#e"/><linearGradient id="i" x1="598.37" y1="354.18" x2="598.37" y2="109.97" gradientTransform="matrix(1, 0, 0, 1, 0, 0)" gradientUnits="userSpaceOnUse"><stop offset="0" stop-color="#002c92"/><stop offset="1" stop-color="#1d0f6d"/></linearGradient><linearGradient id="j" x1="571.64" y1="363" x2="571.64" y2="274.8" gradientTransform="matrix(1, 0, 0, 1, 0, 0)" gradientUnits="userSpaceOnUse"><stop offset="0" stop-color="#003d9f"/><stop offset="1" stop-color="#1d2486"/></linearGradient><linearGradient id="k" x1="661.08" y1="368.35" x2="661.08" y2="77.99" gradientTransform="matrix(1, 0, 0, 1, 0, 0)" gradientUnits="userSpaceOnUse"><stop offset="0" stop-color="#003d9f"/><stop offset="1" stop-color="#1d0f6d"/></linearGradient><linearGradient id="l" x1="542.32" y1="261.09" x2="542.32" y2="177.08" gradientTransform="translate(-26.1 87.55) rotate(-8.75)" xlink:href="#k"/><linearGradient id="m" x1="481.97" y1="124.43" x2="481.97" y2="0" gradientTransform="matrix(1, 0, 0, 1, 0, 0)" gradientUnits="userSpaceOnUse"><stop offset="0" stop-color="#0d0e51"/><stop offset="1" stop-color="#002"/></linearGradient><radialGradient id="n" cx="-315.15" cy="-167.06" fx="-315.15" fy="-167.06" r="8.18" gradientTransform="translate(443.7 314.85) rotate(54.01) scale(.65 1)" gradientUnits="userSpaceOnUse"><stop offset="0" stop-color="#ffae00"/><stop offset=".12" stop-color="#d08e00"/><stop offset=".3" stop-color="#926300"/><stop offset=".48" stop-color="#5d4000"/><stop offset=".64" stop-color="#352400"/><stop offset=".78" stop-color="#181000"/><stop offset=".91" stop-color="#060400"/><stop offset="1" stop-color="#000"/></radialGradient><linearGradient id="o" x1="459.71" y1="182.21" x2="459.71" y2="141.66" gradientTransform="translate(-13.66 11.85) rotate(-4.34)" xlink:href="#m"/><linearGradient id="p" x1="147.87" y1="187.59" x2="147.87" y2="77.26" gradientTransform="matrix(1, 0, 0, 1, 0, 0)" gradientUnits="userSpaceOnUse"><stop offset="0" stop-color="#002974"/><stop offset="1" stop-color="#00093e"/></linearGradient><radialGradient id="q" cx="-502.44" cy="133.19" fx="-502.44" fy="133.19" r="8.18" xlink:href="#n"/><linearGradient id="r" x1="165.32" y1="215.7" x2="165.32" y2="181.37" gradientTransform="translate(-26.61 25.78) rotate(-8.12)" xlink:href="#p"/><linearGradient id="s" x1="112.83" y1="216.8" x2="112.83" y2="192.55" gradientTransform="translate(-13.66 11.85) rotate(-4.34)" xlink:href="#p"/><linearGradient id="t" x1="373.68" y1="261.96" x2="373.68" y2="227.63" gradientTransform="translate(774.6 180.15) rotate(140.6)" xlink:href="#p"/><linearGradient id="u" x1="534.41" y1="299.17" x2="534.41" y2="284.81" gradientTransform="translate(-35.77 79.89) rotate(-8.25)" xlink:href="#j"/><linearGradient id="v" x1="560.55" y1="271.87" x2="560.55" y2="257.12" xlink:href="#j"/><linearGradient id="w" x1="183.01" y1="222.21" x2="183.01" y2="208.18" gradientTransform="translate(40.28 18.94) rotate(11.74)" xlink:href="#j"/><linearGradient id="x" x1="679.25" y1="137.07" x2="679.25" y2="111.66" xlink:href="#k"/></defs><g class="ad"><g id="a"/><g id="b"><g id="c"><g><rect class="at" y="337.94" width="802.31" height="64.8"/><polygon class="au" points="802.31 350.81 739.24 353.2 729.62 358.75 703.68 364.61 618.95 370.87 603.82 371.6 682.59 369.33 712.3 366.94 739.64 361.21 800.97 359.41 802.31 350.81"/><path class="ak" d="M626.09,370.34h-15.07l-39.59,2.09-19.67,1.94-32.2,1.66,49.87,2.65s51.52-5.58,56.65-8.34Z"/><polygon class="ai" points="802.31 337.94 800.97 344.02 685.17 350.81 645.64 350.81 617.23 344.37 606.05 344.02 567.87 344.02 480.69 347.08 383.29 342.42 312.1 342.42 262.76 338.2 802.31 337.94"/><polygon class="ai" points="613.3 370.22 564.97 366.08 549.49 366.08 540.02 369.33 500.97 370.34 494.35 372.81 481.97 373.75 519.57 376.03 571.43 372.43 613.3 370.22"/><polygon class="af" points="706.13 387.02 740.72 385.19 764.97 384.31 798.47 387.1 755.96 388.8 706.13 387.02"/><polygon class="ar" points="370.78 354.53 395.97 354.75 413.86 352.5 447.36 355.3 404.85 357 370.78 354.53"/><polygon class="ai" points="413.86 352.5 388.3 352.5 372.3 354.55 395.97 354.75 413.86 352.5"/><g class="al"><path class="ah" d="M494.27,358.92c-1.3-.33-3.61-.66-6.7-.95-.5-.05-1.03-.09-1.71-.13-1.3-.06-2.83-.06-3.98-.02-2.81,.09-3.95,.35-3,.6,.95,.25,3.77,.49,7.06,.62,1.81,.07,3.86,.12,5.55,.09s2.81-.16,2.15-.3c-.57-.03-1.25,0-1.1,.05l1.74,.02Z"/><path class="ah" d="M485.45,360.04c-.92-.19-3.17-.36-5.73-.44-1.64,.11-2.61,.29-1.86,.48,.75,.19,3.63,.37,6.04,.35,2.41-.02,2.9-.3,.55-.42l1.01,.04Z"/><path class="ah" d="M506.45,358.35c-.65-.05-1.39-.1-2.18-.14-.1,0-.2-.01-.31-.01-.11,0-.19,0-.25,.01-.44,.05,.22,.15-.54,.17-.14,0-.31,0-.38,.01-.1,.02,.2,.04,.46,.05,1.38,.05,2.94,0,2.88-.11l.27,.03h.04Z"/><path class="ah" d="M518.21,356.71c-1.22-.1-2.62-.19-4.11-.27-.18,0-.38-.02-.58-.02-.21,0-.36,0-.47,.02-.83,.09,.41,.28-1.01,.32-.26,0-.59,0-.71,.03-.2,.03,.37,.07,.87,.09,2.6,.1,5.54-.01,5.43-.21,.17,.02,.33,.03,.5,.05h.08Z"/><path class="ah" d="M463.11,357.44c-.46-.09-1.47-.17-2.64-.21-.18,.03-.36,.07-.32,.11s.34,.08,.86,.1c.71,.03,1.39,0,1.91-.03v.04l.18-.02Z"/><path class="ah" d="M475.06,352.83c-.25-.02-.54-.04-.87-.05-.33,0-.62,0-.9,0-.76,.02-1.57,.03-2.4,.04l4.22,.18c.11,0,.23,0,.31,.02,.31,.03,.1,.06,.2,.09,.15,.04,.9,.07,1.5,.08,4.29,.06-.67-.25-2.06-.36Z"/><path class="ah" d="M508.34,353.2c.6,.09-.3,.18-1.52,.16-1.22-.02-2.17-.15-1.61-.21s2.36-.04,3.05,.04h.08Z"/><path class="ah" d="M493.87,356.45c.97,.03,2.2,.07,2.23,.14,.03,.07-1.09,.08-2,.08-.39,0-.86,0-1.15-.03-.68-.06,.92-.12,.4-.18,.13-.02,.61,0,.53,.02l-.02-.03Z"/><path class="ah" d="M471.49,358.44c.36,.01,.69,.03,.94,.05-.78,.02-1.83-.01-2.71-.05-.49-.02-1.06-.05-1.07-.09,0-.03,.28-.04,.4-.06,.25-.04-.05-.12,.61-.13,.37,0,.84,.02,1.07,.05,.23,.03,.28,.06,.33,.09,.1,.07,.21,.13,.31,.2l.11-.05Z"/><path class="ah" d="M468.23,359.36c-.4-.05-1.53-.03-1.58,.02-.05,.05,.53,.11,1.06,.16,.84-.03,1.23-.1,.94-.18h-.42Z"/><path class="ah" d="M525.28,364.18c-.27-.02-.54-.05-.89-.06-.35-.02-.79-.02-1.03,0-.4,.03-.04,.08-.18,.12-.14,.04-.79,.06-.73,.1,.07,.04,.86,.08,1.42,.07,.56,0,.93-.04,1.22-.07,.26-.03,.5-.06,.48-.1-.03-.04-.41-.08-.95-.1l.66,.03Z"/><path class="ah" d="M419.04,360.1c.15,.03-.08,.05-.41,.05-.33,0-.71,0-1.03-.03-.19-.01-.37-.02-.48-.04-.27-.03-.1-.07,.33-.08,.43,0,1.02,.02,1.24,.05s.06,.07-.34,.08l.69-.05Z"/><path class="ah" d="M459.51,358.13c.58-.02,.28-.11-.47-.13-.29,.01-.54,.03-.61,.06-.06,.03,.11,.06,.48,.08,.37,.02,.86,0,.81-.02l-.21,.02Z"/><path class="ah" d="M465.88,354.65c.58-.02,.28-.11-.47-.13-.29,.01-.54,.03-.61,.06-.06,.03,.11,.06,.48,.08,.37,.02,.86,0,.81-.02l-.21,.02Z"/><path class="ah" d="M471,357.45c-.06-.07-.57-.14-1.33-.18-.36,.04-.71,.08-1.07,.12-.17,.02-.34,.04-.33,.06,.02,.05,.83,.1,1.49,.1,.66,0,1.11-.04,1.14-.09h.09Z"/><path class="ah" d="M613.49,357.94l3.71,.18s-.98,.04-1.66,.02c-.68-.02-1.4-.04-1.9-.09-.49-.04-.59-.11-.02-.13h-.13Z"/><path class="ah" d="M587.14,357.47c.29-.06-.87-.15-1.82-.15-.94,0-1.43,.07-1.25,.15,.08,.03,.28,.06,.64,.09,.55,.03,1.32,.03,1.79,0,.46-.02,.7-.07,.91-.1h-.27Z"/><path class="ah" d="M488.26,356.25c.24-.06-.14-.14-.89-.19-.54,.02-.93,.05-1.08,.09-.2,.06,.15,.14,.97,.17,.83,.04,1.85-.02,1.37-.08h-.37Z"/><path class="ah" d="M490.83,356.93c.33,.04,.22,.09-.25,.11l-1.88-.09c.01-.07,1.11-.1,2.01-.06l.12,.04Z"/><path class="ah" d="M503.71,358.33l.81,.03c-.35,.03-.72,.06-1.26,.08s-1.31,0-1.77-.04c-.46-.04-.32-.1,.3-.1,.62,0,1.29,.02,1.89,.04h.03Z"/><path class="ah" d="M458.87,359.12c.2,.04,.09,.08-.28,.1-.37,.02-.97,.02-1.46,0-.34-.02-.64-.05-.45-.07,.08,0,.22-.01,.35-.01,.59-.01,1.18-.02,1.77-.03l.11,.03h-.05Z"/><path class="ah" d="M446.41,358.86c-.26,.04,.24,.09,.72,.13,.48,.04,1.04,.09,.93,.13-.03,.01-.12,.02-.29,.03-.42,0-.76-.04-1.12-.07-.29-.02-.66-.03-1-.05-.79-.04-1.29-.11-1.2-.17,.26-.02,.76-.03,1.22-.01,.46,.01,.86,.05,.97,.08l-.23-.07Z"/><path class="ah" d="M440.03,358.85c-.24,0-.47,0-.71,0-.04,.03,.23,.06,.63,.08s.87,0,.93-.02c.05-.03-.39-.06-.78-.06h-.07Z"/><path class="ah" d="M437.93,360.05c-.24,0-.47,0-.71,0-.04,.03,.23,.06,.63,.08,.4,.01,.87,0,.93-.02,.05-.03-.39-.06-.78-.06h-.07Z"/><path class="ah" d="M462.41,357.85c.2,.04,.92,.04,1.24,.02,.32-.02,.43-.05,.72-.08,.29-.02,.77-.03,1.28-.03,.29,0,.63,.01,.79,.03,.11,.01,.12,.03,.13,.04,.03,.07-.07,.14-.55,.19-.49,.05-1.45,.08-2.41,.05-.67-.02-1.26-.06-1.5-.11-.23-.05-.1-.1,.34-.13h-.04Z"/><path class="ah" d="M442.98,352.96c.2,.04,.92,.04,1.24,.02,.32-.02,.43-.05,.72-.08,.29-.02,.77-.03,1.28-.03,.29,0,.63,.01,.79,.03,.11,.01,.12,.03,.13,.04,.03,.07-.07,.14-.55,.19-.49,.05-1.45,.08-2.41,.05-.67-.02-1.26-.06-1.5-.11-.23-.05-.1-.1,.34-.13h-.04Z"/><path class="ah" d="M460.28,356.9c-.08-.04-.77-.09-1.37-.09-.6,0-1.08,.02-1.26,.06-.08,.02-.07,.04,.17,.05,.17,0,.36,0,.54,0l2.11-.02h-.18Z"/><path class="ah" d="M502.96,354.99c.89-.01,.57-.11,.12-.18-.29-.04-.66-.09-1.26-.11-.8-.02-1.36,.03-1.69,.07l-.88,.12c-.13,.02-.26,.04-.13,.06,.12,.02,.4,.03,.66,.04,1.32,.06,2.74,.09,4.13,.11l-.95-.12Z"/><path class="ah" d="M509.55,357.26c8.2-.02,4.43-.75-2.88-.85-7.67-.11-4.26,.88,2.88,.85Z"/><path class="ah" d="M478.15,359.26c.02,.09-1.46,.13-2.62,.08,.12-.07,.27-.13,.91-.17s1.93-.03,2.54,.03l-.06,.12-.76-.05Z"/><path class="ah" d="M447.86,359.49c.28,0,.48,.03,.45,.05-.04,.02-.24,.03-.45,.04-.17,0-.36,.01-.59,.01-.44,0-.93-.03-1.12-.06-.19-.03-.1-.07,.18-.09,.14,0,.32-.02,.55-.01,.22,0,.46,.02,.49,.03l.49,.02Z"/><path class="ah" d="M452.72,357.9c-.22-.01-.45-.03-.67-.04-.26,.02-.53,.04-.5,.07,.02,.03,.54,.06,.84,.05,.12,0,.16-.02,.21-.02l.42-.09-.3,.04Z"/><path class="ah" d="M422.72,354.84c-.37-.04-.76-.09-1.3-.12-.55-.03-1.31-.05-1.82-.03-.25,0-.41,.03-.49,.05-.22,.06,.48,.15,1.44,.18s1.97,0,2.08-.07h.09Z"/><path class="ah" d="M472.16,354.19c.9,.03,1.18,.14,.44,.16-.51,0-1.03-.02-1.5-.05,.07-.04,.35-.07,.78-.09l.28-.03Z"/><path class="ah" d="M490.87,360.38c-.41-.02-.82-.04-1.22-.06-.2,.02-.33,.04-.4,.06,.47,.04,1.32,.05,1.73,.02l-.11-.03Z"/></g><g class="al"><path class="ah" d="M635.85,379.19c-1.3-.33-3.61-.66-6.7-.95-.5-.05-1.03-.09-1.71-.13-1.3-.06-2.83-.06-3.98-.02-2.81,.09-3.95,.35-3,.6,.95,.25,3.77,.49,7.06,.62,1.81,.07,3.86,.12,5.55,.09,1.68-.03,2.81-.16,2.15-.3-.57-.03-1.25,0-1.1,.05l1.74,.02Z"/><path class="ah" d="M627.03,380.3c-.92-.19-3.17-.36-5.73-.44-1.64,.11-2.61,.29-1.86,.48,.75,.19,3.63,.37,6.04,.35,2.41-.02,2.9-.3,.55-.42l1.01,.04Z"/><path class="ah" d="M690.12,381.03c-.65-.05-1.39-.1-2.18-.14-.1,0-.2-.01-.31-.01-.11,0-.19,0-.25,.01-.44,.05,.22,.15-.53,.17-.14,0-.31,0-.38,.01-.1,.02,.2,.04,.46,.05,1.38,.05,2.94,0,2.88-.11l.27,.03h.04Z"/><path class="ah" d="M701.88,379.39c-1.22-.1-2.62-.19-4.11-.27-.18,0-.38-.02-.58-.02-.21,0-.36,0-.47,.02-.83,.09,.41,.28-1.01,.32-.26,0-.59,0-.71,.03-.2,.03,.37,.07,.87,.09,2.6,.1,5.54-.01,5.43-.21l.5,.05h.08Z"/><path class="ah" d="M646.78,380.12c-.46-.09-1.47-.17-2.64-.21-.18,.03-.36,.07-.32,.11s.34,.08,.86,.1c.71,.03,1.39,0,1.91-.03v.04l.18-.02Z"/><path class="ah" d="M616.65,373.1c-.25-.02-.54-.04-.87-.05-.33,0-.62,0-.9,0-.76,.02-1.57,.03-2.4,.04l4.22,.18c.11,0,.23,0,.31,.02,.31,.03,.1,.06,.2,.09,.15,.04,.9,.07,1.5,.08,4.29,.06-.67-.25-2.06-.36Z"/><path class="ah" d="M692.01,375.88c.6,.09-.3,.18-1.52,.16-1.22-.02-2.17-.15-1.61-.21,.56-.07,2.36-.04,3.05,.04h.08Z"/><path class="ah" d="M635.46,376.72c.97,.03,2.2,.07,2.23,.14,.03,.07-1.09,.08-2,.08-.39,0-.86,0-1.15-.03-.68-.06,.92-.12,.4-.18,.13-.02,.61,0,.53,.02l-.02-.03Z"/><path class="ah" d="M613.08,378.71c.36,.01,.69,.03,.94,.05-.78,.02-1.83-.01-2.71-.05-.49-.02-1.06-.05-1.07-.09,0-.03,.28-.04,.4-.06,.25-.04-.05-.12,.61-.13,.37,0,.84,.02,1.07,.05,.23,.03,.28,.06,.33,.09,.1,.07,.21,.13,.31,.2l.11-.05Z"/><path class="ah" d="M651.9,382.04c-.4-.05-1.53-.03-1.58,.02-.05,.05,.53,.11,1.06,.16,.84-.03,1.23-.1,.94-.18h-.42Z"/><path class="ah" d="M708.95,386.87c-.27-.02-.54-.05-.89-.06-.35-.02-.78-.02-1.03,0-.4,.03-.04,.08-.18,.12-.14,.04-.79,.06-.73,.1,.07,.04,.86,.08,1.42,.07,.56,0,.93-.04,1.22-.07,.26-.03,.5-.06,.48-.1-.03-.04-.41-.08-.95-.1l.66,.03Z"/><path class="ah" d="M602.71,382.79c.15,.03-.08,.05-.41,.05-.33,0-.71,0-1.03-.03-.19-.01-.37-.02-.48-.04-.27-.03-.1-.07,.33-.08s1.02,.02,1.24,.05c.22,.03,.06,.07-.34,.08l.69-.05Z"/><path class="ah" d="M643.18,380.81c.58-.02,.28-.11-.47-.13-.29,.01-.54,.03-.61,.06s.11,.06,.48,.08c.37,.02,.86,0,.81-.02l-.21,.02Z"/><path class="ah" d="M649.55,377.33c.58-.02,.28-.11-.47-.13-.29,.01-.54,.03-.61,.06-.06,.03,.11,.06,.48,.08,.37,.02,.86,0,.81-.02l-.21,.02Z"/><path class="ah" d="M612.58,377.72c-.06-.07-.57-.14-1.33-.18-.36,.04-.71,.08-1.07,.12-.17,.02-.34,.04-.33,.06,.02,.05,.83,.1,1.49,.1,.66,0,1.11-.04,1.14-.09h.09Z"/><path class="ah" d="M797.16,380.62l3.71,.18s-.98,.04-1.66,.02c-.68-.02-1.4-.04-1.9-.09-.49-.04-.59-.11-.02-.13h-.13Z"/><path class="ah" d="M770.81,380.15c.29-.06-.87-.15-1.82-.15-.94,0-1.43,.07-1.25,.15,.08,.03,.28,.06,.64,.09,.55,.03,1.32,.03,1.79,0,.46-.02,.7-.06,.91-.1h-.27Z"/><path class="ah" d="M629.84,376.52c.24-.06-.14-.14-.89-.19-.54,.02-.93,.05-1.08,.09-.2,.06,.15,.14,.97,.17,.83,.04,1.85-.02,1.37-.08h-.37Z"/><path class="ah" d="M632.41,377.2c.33,.04,.22,.09-.25,.11l-1.88-.09c.01-.07,1.11-.1,2.01-.06l.12,.04Z"/><path class="ah" d="M687.38,381.02c.27,0,.54,.02,.81,.03-.35,.03-.72,.06-1.26,.08-.54,.01-1.31,0-1.77-.04-.46-.04-.32-.1,.3-.1,.62,0,1.29,.02,1.89,.04h.03Z"/><path class="ah" d="M642.54,381.8c.2,.04,.09,.08-.28,.1s-.97,.02-1.46,0c-.34-.02-.64-.05-.45-.07,.08,0,.22-.01,.35-.01l1.77-.03,.11,.03h-.05Z"/><path class="ah" d="M630.08,381.54c-.26,.04,.24,.09,.72,.13s1.04,.09,.93,.13c-.03,.01-.12,.02-.29,.03-.42,0-.76-.04-1.12-.07-.29-.02-.66-.03-1-.05-.79-.04-1.29-.11-1.2-.17,.26-.02,.76-.03,1.22-.01,.46,.01,.86,.05,.97,.08l-.23-.07Z"/><path class="ah" d="M623.7,381.53c-.24,0-.47,0-.71,0-.04,.03,.23,.06,.63,.08,.4,.01,.87,0,.93-.02,.05-.03-.39-.06-.78-.06h-.07Z"/><path class="ah" d="M621.6,382.73c-.24,0-.47,0-.71,0-.04,.03,.23,.06,.63,.08,.4,.01,.87,0,.93-.02,.05-.03-.39-.06-.78-.06h-.07Z"/><path class="ah" d="M646.08,380.53c.2,.04,.92,.04,1.24,.02,.32-.02,.43-.05,.72-.08,.29-.02,.77-.03,1.28-.03,.29,0,.63,.01,.79,.03,.11,.01,.12,.03,.13,.04,.03,.07-.07,.14-.55,.19-.49,.05-1.45,.08-2.41,.05-.67-.02-1.26-.06-1.5-.11s-.1-.1,.34-.13h-.04Z"/><path class="ah" d="M626.65,375.65c.2,.04,.92,.04,1.24,.02s.43-.05,.72-.08c.29-.02,.77-.03,1.28-.03,.29,0,.63,.01,.79,.03,.11,.01,.12,.03,.13,.04,.03,.07-.07,.14-.55,.19-.49,.05-1.45,.08-2.41,.05-.67-.02-1.26-.06-1.5-.11-.23-.05-.1-.1,.34-.13h-.04Z"/><path class="ah" d="M643.95,379.58c-.08-.04-.77-.09-1.37-.09-.61,0-1.08,.02-1.26,.06-.08,.02-.07,.04,.17,.05,.17,0,.36,0,.54,0,.7,0,1.41-.01,2.11-.02h-.18Z"/><path class="ah" d="M686.63,377.67c.89-.01,.57-.11,.12-.18-.29-.04-.66-.09-1.26-.11-.8-.02-1.36,.03-1.69,.07-.29,.04-.59,.08-.88,.12-.13,.02-.26,.04-.13,.06,.12,.02,.4,.03,.66,.04,1.32,.06,2.74,.09,4.13,.11l-.95-.12Z"/><path class="ah" d="M693.22,379.94c8.2-.02,4.43-.75-2.88-.85-7.67-.11-4.26,.88,2.88,.85Z"/><path class="ah" d="M619.74,379.53c.02,.09-1.46,.13-2.62,.08,.12-.07,.27-.13,.91-.17,.63-.04,1.93-.03,2.54,.03l-.06,.12-.76-.05Z"/><path class="ah" d="M631.53,382.18c.28,0,.48,.03,.45,.05s-.24,.03-.45,.04c-.17,0-.36,.01-.59,.01-.44,0-.93-.03-1.12-.06s-.1-.07,.18-.09c.14,0,.32-.02,.55-.01,.22,0,.46,.02,.49,.03l.49,.02Z"/><path class="ah" d="M636.39,380.59c-.22-.01-.45-.03-.67-.04-.26,.02-.53,.04-.5,.07s.54,.06,.84,.05c.12,0,.16-.01,.21-.02l.42-.09-.3,.04Z"/><path class="ah" d="M606.39,377.52c-.37-.04-.76-.09-1.3-.12-.55-.03-1.31-.05-1.82-.03-.25,0-.41,.03-.49,.05-.22,.06,.48,.15,1.44,.18,.96,.03,1.97,0,2.08-.07h.09Z"/><path class="ah" d="M613.74,374.45c.9,.03,1.18,.14,.44,.16-.51,0-1.03-.02-1.5-.05,.07-.04,.35-.07,.78-.09l.28-.03Z"/><path class="ah" d="M632.45,380.65c-.41-.02-.82-.04-1.22-.06-.2,.02-.33,.04-.4,.06,.47,.04,1.32,.05,1.73,.02l-.11-.03Z"/><path class="ah" d="M713.99,392.7c-1.3-.33-3.61-.66-6.7-.95-.5-.05-1.04-.09-1.71-.13-1.3-.06-2.83-.06-3.98-.02-2.81,.09-3.95,.35-3,.6,.95,.25,3.77,.49,7.06,.62,1.81,.07,3.86,.12,5.55,.09,1.68-.03,2.81-.16,2.15-.3-.57-.03-1.25,0-1.1,.05l1.74,.02Z"/><path class="ah" d="M748.93,377.5c-.92-.19-3.17-.36-5.73-.44-1.64,.11-2.61,.29-1.86,.48,.75,.19,3.63,.37,6.04,.35s2.9-.3,.55-.42l1.01,.04Z"/><path class="ah" d="M662.31,358.86c-.92-.19-3.17-.36-5.73-.44-1.64,.11-2.61,.29-1.86,.48,.75,.19,3.63,.37,6.04,.35,2.41-.02,2.9-.3,.55-.42l1.01,.04Z"/><path class="ah" d="M711.34,376.23c-.92-.19-3.17-.36-5.73-.44-1.64,.11-2.61,.29-1.86,.48,.75,.19,3.63,.37,6.04,.35,2.41-.02,2.9-.3,.55-.42l1.01,.04Z"/><path class="ah" d="M694.11,388.83c-.92-.19-3.17-.36-5.73-.44-1.64,.11-2.61,.29-1.86,.48,.75,.19,3.63,.37,6.04,.35,2.41-.02,2.9-.3,.55-.42l1.01,.04Z"/><path class="ah" d="M673.36,378.77c-.92-.19-3.17-.36-5.73-.44-1.64,.11-2.61,.29-1.86,.48,.75,.19,3.63,.37,6.04,.35,2.41-.02,2.9-.3,.55-.42l1.01,.04Z"/><path class="ah" d="M732.84,372.7c-.25-.02-.54-.04-.87-.05-.33,0-.62,0-.9,0-.76,.02-1.57,.03-2.4,.04l4.22,.18c.11,0,.23,0,.31,.02,.31,.03,.1,.06,.2,.09,.15,.04,.9,.07,1.5,.08,4.29,.06-.67-.25-2.06-.36Z"/><path class="ah" d="M751.65,376.31c.97,.03,2.2,.07,2.23,.14,.03,.07-1.09,.08-2,.08-.39,0-.86,0-1.15-.03-.68-.06,.92-.12,.4-.18,.13-.02,.61,0,.53,.02l-.02-.03Z"/><path class="ah" d="M729.27,378.3c.36,.01,.69,.03,.94,.05-.78,.02-1.83-.01-2.71-.05-.49-.02-1.06-.05-1.07-.09,0-.03,.28-.04,.4-.06,.25-.04-.05-.12,.61-.13,.37,0,.84,.02,1.07,.05,.23,.03,.28,.06,.33,.09l.31,.2,.11-.05Z"/><path class="ah" d="M728.78,377.32c-.06-.07-.57-.14-1.33-.18-.36,.04-.71,.08-1.07,.12-.17,.02-.34,.04-.33,.06,.02,.05,.83,.1,1.49,.1s1.11-.04,1.14-.09h.09Z"/><path class="ah" d="M746.04,376.11c.24-.06-.14-.14-.89-.19-.54,.02-.93,.05-1.08,.09-.2,.06,.15,.14,.97,.17,.83,.04,1.85-.02,1.37-.08h-.37Z"/><path class="ah" d="M748.61,376.8c.33,.04,.22,.09-.25,.11l-1.88-.09c.01-.07,1.11-.1,2.01-.06l.12,.04Z"/><path class="ah" d="M739.38,376.48c.02,.09-1.46,.13-2.62,.08,.12-.07,.27-.13,.91-.17,.63-.04,1.93-.03,2.54,.03l-.06,.12-.76-.05Z"/><path class="ah" d="M729.94,374.05c.9,.03,1.18,.14,.44,.16-.51,0-1.03-.02-1.5-.05,.07-.04,.35-.07,.78-.09l.28-.03Z"/><path class="ah" d="M748.65,380.24c-.41-.02-.82-.04-1.22-.06-.2,.02-.33,.04-.4,.06,.47,.04,1.32,.05,1.73,.02l-.11-.03Z"/></g><polygon class="ao" points="705.46 349.62 679.44 359.1 658.65 361.21 646.78 361.21 648.47 350.81 682.59 351.44 705.46 349.62"/><polygon class="ar" points="617.23 344.37 620.56 352.78 646.78 361.21 648.47 350.81 634.38 348.26 631.44 344.37 617.23 344.37"/><polygon class="ar" points="620.56 352.78 583.98 349.62 572.56 350.82 557.97 347.19 532.54 346.55 531.97 345.28 547.73 344.73 567.87 344.02 591.95 344.37 617.23 344.37 620.56 352.78"/><polygon class="ai" points="572.56 350.82 545.3 353.36 508.25 353.19 522.72 350.09 538.52 346.7 557.97 347.19 572.56 350.82"/><polygon class="as" points="508.25 353.19 506.78 354.92 525.57 356.4 540.48 356.2 554.47 356.2 576.26 354.75 572.56 350.82 545.6 354.19 531.97 352.88 508.25 353.19"/><polygon class="ai" points="767.7 384.19 733.31 379.2 701.33 381.04 671.8 381.69 660.83 385.19 709.24 386.93 767.7 384.19"/></g><g><polygon class="aq" points="640.63 351.87 556.12 354.18 580.25 342.79 581.57 328.29 593.22 301.01 593.36 299.87 593.36 299.86 596.64 272.2 593.22 204.43 594.9 184.5 593.22 152.97 595.89 109.97 597.86 110.5 598.26 155.8 601.24 160.18 607.12 213.99 610.04 221.07 618.96 280.75 621.35 296.78 630.84 346.49 640.63 351.87"/><polygon class="am" points="618.96 280.75 588.06 341.7 581.4 334.38 581.57 328.29 593.36 299.87 593.36 299.86 602.72 291.04 600.92 277.37 601.98 271.45 602.72 225.81 601.24 227.06 601.24 197.65 602.72 197.65 601.24 160.18 607.12 213.99 610.04 221.07 618.96 280.75"/><polygon class="bc" points="621.18 357.19 594.98 349.32 581.4 334.38 567.1 317.16 564.19 315.25 555.73 285 551.41 285 545.73 274.8 543.39 274.8 543.24 297.78 539.61 304.62 539.61 313 538.11 323.34 536.56 323.34 532.06 334.38 530.06 346.69 523.66 357.19 522.1 359 549.85 359.79 548.24 362.69 597.23 363 600.32 362.69 610.47 361.91 621.18 357.19"/><polygon class="bf" points="758.5 355.89 737.06 356.05 736.29 356.06 733.48 356.08 733.46 356.09 721.74 361.23 726.4 364.45 702.66 366.69 665.55 368.35 636.36 367.31 638.94 364.3 640.95 361.97 603.62 363.21 563.66 361.97 575.55 356.73 587.14 346.27 588.25 341.69 594.9 314.29 603.92 296.98 608.01 289.14 609.53 286.23 610.66 282.58 613.45 273.58 609.02 236.66 618.78 227.95 618.78 116.44 625.56 111.03 630.31 99.11 632.57 92.39 644.43 77.99 657.17 145.63 657.2 145.77 665.55 190.09 674.81 227.95 675.68 177.69 679.08 174.98 679.08 147.68 683.73 149.85 692.82 223.8 699.38 227.95 719.32 335.18 726.4 337.85 733.37 341.76 758.5 355.89"/><path class="am" d="M733.37,341.76l-6.97-3.91-7.08-2.67-19.94-107.23-6.56-4.15-9.09-73.95,2.2,39.61-2.36-1.45-.75,35.28,1.56-1.62v37.11l-5.2,7.41-4.37-38.24-9.26-37.86-8.35-44.32-.03-.14-12.74-67.64-3.8,6.9v35.63l-1.51,7.21-4.24,5.9,1.14,25.65,2.35-3.26,12.84,45.85,3.43,26.96-2.44,20.41-11.57,15.65v-13.41l-5.75,16.82-7.21,7.2-6.2-6.28-12.45-32.56,4.43,36.92-3.92,12.65-1.52,2.91-4.09,7.84h0l11.91-12.23,19.22,16.37-3.85,24.36-31.96,15.58-10.99,.63h-.19l-20.96-24.53-2.91-1.91-3.53-12.61v14.31l-2.9,16.05-2.23-3.78,.59,9.09-4.56,6.49-5.97-23.55v-21.71l-1.33,23,2.5,15.96-1.33,5.29-7.25,15.54,11.68,.46,5.67-13.06,4.57-5.68,4.74,4.35-.25,11.64-2.27,5.5,76.62,1.76,12.84,.3,1.02-4.9,40.74-3.16,39.92-.45,2.83-.03h.77l-3.69-14.3Zm-44.3-58.79l-10.18,6.17-7.81,4.38-7.78,13.84,1.07-20.24,9.1-8.93,11.63-9.43,4.99-.46-1.02,14.67Z"/><polygon class="am" points="634.41 163.7 629.18 195.95 627.2 201.73 624.56 220.47 623.23 198.18 625.02 180.59 634.41 163.7"/><polygon class="aj" points="560.1 341.05 555.53 346.73 548.24 362.69 562.32 362.54 564.59 357.04 564.84 345.4 560.1 341.05"/><polygon class="aj" points="551.41 285 550.13 291.02 545.59 299.54 551.77 295.4 555.73 285 551.41 285"/><polygon class="aj" points="536.56 323.34 537.04 335.09 535.31 343.58 530.06 346.69 532.06 334.38 536.56 323.34"/><polygon class="ap" points="618.78 116.44 633.4 126.52 634.88 133.63 639.12 127.73 640.63 120.52 631.12 109.97 625.56 111.03 618.78 116.44"/><polygon class="ap" points="632.57 92.39 640.36 90.68 645.99 85.04 644.43 77.99 632.57 92.39"/><polygon class="ap" points="598.26 155.8 596.03 164.08 598.26 171.68 598.37 163.74 601.24 160.18 598.26 155.8"/><polygon class="ap" points="675.68 177.69 683.57 188.01 685.93 189.46 685.93 179.56 679.08 174.98 675.68 177.69"/><polygon class="ap" points="664.37 287.12 671.08 293.52 689.07 282.97 690.09 268.3 685.1 268.76 664.37 287.12"/><polygon class="ap" points="615.83 284.75 603.14 298.47 619.97 307.36 611.34 309.33 631.2 325.48 635.05 301.12 615.83 284.75"/></g><g><polygon class="ab" points="528.55 255.58 519.67 232.26 524.64 227.58 523.07 194.33 528.47 185.43 542.94 179.15 563.38 188.42 557.88 210.26 550.39 227.53 551.96 230.13 546.8 263.35 539.52 264.68 533.76 256.58 528.55 255.58"/><polygon class="am" points="562.16 188.91 555.98 208.26 548.06 221.91 545.6 212.37 546 193.82 543.25 203.72 539.16 219.69 541.52 216.18 541.52 227.21 537.74 231.8 526.34 235.56 519.67 232.26 528.55 255.58 533.76 256.58 539.52 264.68 546.8 263.35 551.96 230.13 550.39 227.53 557.88 210.26 563.38 188.42 562.16 188.91"/><polygon class="am" points="526.34 197.23 529.14 211.75 527.74 215.58 532.84 210.9 530.99 200.18 529.59 200.65 526.34 197.23"/><polygon class="ap" points="519.67 232.26 524.64 227.58 529.59 229.92 537.74 229.99 537.74 231.8 526.34 235.56 519.67 232.26"/><polygon class="bg" points="523.07 194.33 533.93 194.77 542.41 193.92 547.37 189.65 545.35 184 553.32 184.98 557.48 190.64 563.38 188.42 542.94 179.15 528.47 185.43 523.07 194.33"/><polygon class="am" points="545.35 184 547.37 189.65 546 193.82 551.77 191.27 557.48 190.64 553.32 184.98 545.35 184"/><polygon class="aa" points="550.39 227.53 542.22 221.77 539.52 220.47 528.28 219.87 539.16 219.69 542.47 219.87 545.35 222.29 549.81 226.24 550.39 227.53 550.39 227.53"/></g><g><polygon class="ag" points="428.95 1.37 446.06 50.39 449.29 54.49 450.79 75.49 460.4 90.98 461.49 110.99 468.68 123.07 473.96 124.43 486.68 107.66 488.27 101.04 491.49 99.73 502.71 60.36 504.77 58.78 518.04 13.19 532.05 8.15 535 0 428.95 1.37"/><polygon class="am" points="428.95 1.37 448 1.13 452.41 22.31 453.16 20.41 454.91 40.45 464.83 45.45 470.56 68.42 473.54 43.04 477.06 .75 484.06 .75 484.06 13.5 486.32 13.04 488.52 47.06 491.15 48.7 499.82 44.53 512.15 13.5 532.05 8.15 518.04 13.19 504.77 58.78 502.71 60.36 493.54 92.54 491.15 83.89 488.27 101.04 486.68 107.66 473.96 124.43 466.98 103.03 463.51 108.86 461.43 109.94 460.4 90.98 450.79 75.49 449.29 54.49 446.06 50.39 428.95 1.37"/><polygon class="aa" points="446.06 50.39 453.96 52.65 462.18 50.53 465.21 46.95 474.25 34.49 486.7 26.97 487.6 29.09 499.82 22.77 487.78 30.77 486.32 27.96 474.25 34.49 465.52 48.19 462.39 51.98 453.16 55.65 449.29 54.49 446.06 50.39"/><polygon class="aa" points="460.4 90.98 467.69 91.45 471.53 92.54 466.98 103.03 463.51 108.86 461.43 109.94 464.27 109.23 468.39 104.53 467.77 103.03 471.07 94.83 473.06 91.95 470.23 90.98 468.19 90.98 459.06 88.81 460.4 90.98"/><path class="aw" d="M462.23,56.07c-3.66,2.65-8.01,2.89-9.73,.53-1.72-2.36-.14-6.43,3.51-9.09,3.66-2.65,8.01-2.89,9.73-.53,1.72,2.36,.14,6.43-3.51,9.09Z"/><g><path class="be" d="M443.67,50.25c.47,.94,1.15,1.76,1.99,2.39,.13,.1,.28,.2,.44,.24,.32,.07,.65-.1,.87-.34,.56-.57,.66-1.51,.32-2.23-.35-.72-1.09-1.21-1.89-1.32-.43-.06-.91-.01-1.25,.26s-.52,.79-.3,1.17c.14,.02,.27-.14,.21-.27l-.39,.1Z"/><path class="be" d="M444.95,45.78c.31,.52,.89,.85,1.49,.86,.29-.52,.41-1.18,.14-1.72-.27-.53-1-.84-1.51-.53-.51,.31-.46,1.26,.12,1.41l-.24-.02Z"/><path class="be" d="M435.3,45.98c.17,.11,.36,.19,.55,.25,.02,0,.05,.01,.07,0,.02-.01,.04-.04,.05-.06,.07-.2-.13-.46,.02-.61,.03-.03,.07-.05,.07-.08,.01-.06-.06-.1-.13-.11-.33-.03-.63,.32-.56,.64l-.07-.06v.03Z"/><path class="be" d="M439.72,59.77c.32,.2,.68,.36,1.04,.46,.04,.01,.09,.02,.14,0,.05-.02,.07-.07,.09-.11,.13-.37-.25-.87,.04-1.14,.05-.05,.12-.09,.14-.16,.03-.12-.12-.19-.24-.2-.62-.06-1.19,.6-1.06,1.2l-.14-.11v.05Z"/><path class="be" d="M451.26,51.96c.15,.24,.41,.39,.69,.42,.02-.12,.04-.25,0-.37-.03-.12-.12-.24-.25-.25-.17-.02-.3,.13-.4,.27l-.03-.14-.03,.07Z"/><path class="be" d="M453.17,51.33c.07,.04,.14,.08,.22,.07,.07,0,.14-.06,.19-.11,.16-.14,.32-.26,.5-.36-.34-.06-.68-.11-1.02-.17-.03,0-.05,0-.08-.02-.08-.05-.05-.18-.09-.26-.06-.13-.23-.13-.37-.1-.97,.22,.29,.73,.65,.96Z"/><path class="be" d="M451.26,68c.07,.04,.14,.08,.22,.07,.07,0,.14-.06,.19-.11,.16-.14,.32-.26,.5-.36l-1.02-.16s-.05,0-.08-.02c-.08-.05-.05-.18-.09-.26-.06-.13-.23-.13-.37-.1-.97,.22,.29,.73,.65,.96Z"/><path class="be" d="M455.07,57.71c.1,.02,.2,.04,.3,.06,.03-.2-.05-.43-.23-.51-.18-.08-.45,.07-.41,.27,.03,.12,.11,.3,0,.33l.35-.15Z"/><path class="be" d="M443.84,70.12c-.18-.22-.04-.61,.24-.66s.55,.26,.47,.53c-.08,.27-.49,.37-.69,.16l-.02-.03Z"/><path class="be" d="M445.14,58.19c-.22,.01-.52-.02-.57-.24-.04-.21,.19-.36,.39-.45,.09-.04,.19-.07,.27-.02,.18,.13-.13,.47,.02,.63-.02,.06-.14,.04-.13-.03l.02,.1Z"/><path class="be" d="M448.88,49.55c-.08,0-.17-.03-.24-.08,.16-.15,.41-.13,.62-.09,.12,.02,.26,.07,.28,.19,.02,.08-.04,.16-.05,.24-.03,.17,.08,.38-.06,.48-.08,.06-.19,.02-.26-.05-.07-.07-.1-.16-.12-.26-.06-.2-.12-.4-.18-.6v.16Z"/><path class="be" d="M449.07,46.27c.12,.13,.35-.04,.33-.22-.02-.17-.17-.3-.32-.4-.17,.18-.21,.46-.1,.67l.09-.06Z"/><path class="be" d="M433.97,36.34c.07,.05,.14,.1,.23,.11s.18,0,.23-.08c.07-.12-.04-.27-.03-.41,0-.14,.14-.27,.1-.41-.04-.13-.23-.17-.35-.1-.12,.07-.18,.21-.23,.34-.04,.12-.07,.24-.05,.37,.03,.12,.14,.23,.26,.22l-.16-.05Z"/><path class="be" d="M452.15,48.38c-.05-.07-.01-.17,.06-.21s.16-.04,.24-.02c.05,.01,.09,.03,.13,.07,.08,.08,.06,.23-.03,.3-.09,.07-.23,.05-.3-.04-.07-.09-.05-.23,.03-.31l-.12,.21Z"/><path class="be" d="M459.32,38.98c-.05-.07-.01-.17,.06-.21,.07-.04,.16-.04,.24-.02,.05,.01,.09,.03,.13,.07,.08,.08,.06,.23-.03,.3s-.23,.05-.3-.04-.05-.23,.03-.31l-.12,.21Z"/><path class="be" d="M451.66,49.37c-.11,.13,0,.38,.18,.38,.05-.07,.1-.16,.1-.25,0-.09-.06-.19-.15-.2-.09-.02-.19,.07-.16,.16l.04-.09Z"/><path class="be" d="M452.23,61.22c-.11,.13,0,.38,.18,.38,.05-.07,.1-.16,.1-.25,0-.09-.06-.19-.15-.2-.09-.02-.19,.07-.16,.16l.04-.09Z"/><path class="be" d="M449.54,52.68c.05,.2,.2,.38,.39,.47l.16-.49c.03-.08,.05-.16,.04-.24-.03-.16-.23-.23-.38-.17-.14,.07-.22,.24-.2,.4l-.02,.03Z"/><path class="be" d="M444.81,54.53c-.3-.07-.61-.15-.91-.22-.03-.16,.19-.22,.35-.22,.16,0,.33,0,.46,.1,.13,.09,.19,.3,.08,.41l.02-.06Z"/><path class="be" d="M440.25,53.1c-.03,.23,.27,.39,.48,.29,.2-.1,.27-.38,.19-.6-.03-.09-.1-.18-.19-.22-.14-.06-.31,.02-.39,.15-.09,.12-.11,.28-.14,.43l.05-.05Z"/><path class="be" d="M446.48,58.28c-.02,.21,.11,.43,.3,.52,.11-.11,.17-.26,.18-.41,.01-.2-.11-.43-.31-.46-.2-.03-.39,.24-.25,.39l.08-.04Z"/><path class="be" d="M445.53,56.33c-.1-.11-.1-.28-.01-.39,.15,.04,.31,.08,.46,.11,.04,.22-.18,.43-.4,.4l-.05-.12Z"/><path class="be" d="M441.94,53.08h-.19c.06-.14,.12-.28,.23-.37,.11-.1,.28-.14,.4-.06,.12,.08,.13,.3,0,.36-.13,.06-.29,.08-.43,.05v.02Z"/><path class="be" d="M451.24,46.11c-.07-.1-.06-.24,0-.34,.07-.1,.2-.15,.32-.13,.08,.02,.17,.09,.14,.17-.01,.03-.04,.06-.07,.08l-.37,.28-.04-.07v.02Z"/><path class="be" d="M452.49,44.07c.14-.05,.17-.24,.17-.39s0-.33,.12-.42c.03-.02,.08-.04,.12-.02,.1,.04,.06,.18,.07,.29,0,.08,.05,.16,.08,.24,.06,.19,0,.42-.17,.54-.11,.02-.22-.03-.28-.12-.06-.09-.06-.22,0-.31l-.11,.18Z"/><path class="be" d="M453.77,44.89l.16,.07c.07-.06,.1-.17,.06-.26-.05-.08-.17-.12-.25-.06-.08,.06-.07,.19,0,.24h.02Z"/><path class="be" d="M457.03,42.44l.16,.07c.07-.06,.1-.17,.06-.26-.05-.08-.17-.12-.25-.06-.08,.06-.07,.19,0,.24h.02Z"/><path class="be" d="M451.18,50.55c-.06-.09-.22-.04-.28,.06-.06,.1-.06,.22-.11,.32-.05,.11-.15,.19-.26,.22-.07,.02-.14,.02-.19-.03-.03-.03-.04-.08-.05-.12-.04-.22-.06-.45,.01-.66,.08-.21,.27-.39,.49-.4,.16,0,.31,.08,.39,.22,.08,.13,.08,.31,0,.45v-.04Z"/><path class="be" d="M458.15,64.4c-.06-.09-.22-.04-.28,.05-.06,.1-.06,.22-.11,.32-.05,.11-.15,.19-.26,.22-.07,.02-.14,.01-.19-.03-.03-.03-.04-.08-.05-.12-.04-.22-.06-.45,.01-.66s.27-.39,.49-.4c.16,0,.31,.08,.39,.22,.08,.14,.08,.31,0,.45v-.04Z"/><path class="be" d="M452.18,53.41c.04,.14,.21,.2,.35,.15,.13-.05,.22-.19,.24-.33,0-.06,0-.14-.07-.16-.04-.01-.08,.01-.12,.03-.15,.09-.3,.18-.45,.27l.05,.02Z"/><path class="be" d="M430.44,43.65c-.2,.3-.28,.69-.21,1.05,.01,.06,.03,.13,.09,.16,.12,.07,.24-.08,.35-.17,.18-.15,.47-.13,.65-.29,.15-.13,.19-.33,.23-.52,.05-.28,.04-.66-.23-.73-.14-.04-.29,.04-.41,.12-.25,.17-.48,.39-.66,.64l.18-.26Z"/><path class="be" d="M443.99,63.81c-.19,.12-.06,.41,.07,.58,.09,.11,.19,.23,.33,.22,.19,0,.28-.23,.33-.41l.12-.47c.02-.07,.04-.15,0-.21-.04-.05-.11-.07-.17-.08-.32-.05-.65-.02-.96,.07l.27,.29Z"/><path class="be" d="M441.28,57.13c-1.77,.89-.54,2.86,1.11,2.47,1.73-.4,.43-3.25-1.11-2.47Z"/><path class="be" d="M446.97,47.56c-.05-.28,.24-.57,.52-.51,0,.22,.02,.46-.1,.65-.12,.19-.4,.3-.57,.15l-.05-.39,.2,.1Z"/><path class="be" d="M434.74,93.45c.01,.15,.13,.12,.21,0s.12-.31,.16-.48c.09-.38,.18-.76,.27-1.14,.05-.21,.1-.47,.04-.59-.06-.1-.18-.04-.26,.1s-.15,.32-.21,.5c-.19,.6-.36,1.35-.19,1.72l.19-.26-.21,.15Z"/><path class="be" d="M453.71,42.44s-.02-.13,.03-.17c.05-.04,.12-.04,.19-.04,.05,0,.11,.01,.15,.04,.09,.06,.12,.18,.08,.28-.04,.1-.14,.16-.24,.18-.05,0-.11,0-.14-.04-.04-.03-.05-.1-.02-.14l-.05-.11Z"/><path class="be" d="M453.25,49.42l.17,.07c.05-.08,.09-.17,.07-.27-.02-.09-.15-.15-.21-.08-.02,.03-.03,.06-.03,.1l-.04,.34,.04-.16Z"/><path class="be" d="M451.24,55.69c.11,.11,.21,.21,.35,.27,.14,.06,.32,.04,.41-.07,.05-.06,.07-.13,.08-.2,.01-.22-.19-.44-.41-.44-.22,0-.42,.21-.41,.44h-.02Z"/><path class="be" d="M451.13,63.34c-.21-.02-.33-.32-.19-.48,.12-.02,.24-.02,.35,0,0,.13-.04,.26-.12,.36l-.05,.11Z"/><path class="be" d="M443.58,45.21l.3,.06c.03-.07,.05-.15,.05-.22-.12-.08-.32-.04-.39,.09l.04,.07Z"/><path class="be" d="M409.7,77.91c-.36,.01-.71-.18-.9-.48-.02-.04-.05-.08-.04-.12,0-.07,.07-.11,.13-.15,.34-.2,.79-.4,1.1-.15,.26,.22,.18,.72-.14,.83-.09-.06-.19-.12-.28-.18l.14,.24Z"/></g></g><g><polygon class="bd" points="453.78 154.75 449.04 142.68 451.93 130.39 451.29 122.03 453.43 118.46 464.28 126.1 465.12 137.09 465.4 150.47 456.5 158.88 453.78 154.75"/><polygon class="am" points="451.93 130.39 452.76 141.34 456.06 145.41 460.17 149.92 465.4 150.47 456.5 158.88 453.78 154.75 449.04 142.68 451.93 130.39"/><polygon class="ax" points="453.43 118.46 454.5 124.79 455.74 133.49 464.59 139.86 464.28 126.1 453.43 118.46"/></g><g><polygon class="an" points="113.26 140.31 114.17 126.5 118.05 124.11 115.07 121.15 111.13 102.62 118.05 90.57 123.87 85.74 133.06 84.55 137.28 87.91 140.74 84.3 153.77 77.26 169.6 78.72 184.62 85.34 184.02 104.72 183.92 109.58 179.14 141.97 179.89 142.86 172.22 152.3 173.79 155.69 157 173.66 148.22 187.59 125.61 164.56 113.26 140.31"/><polygon class="am" points="123.87 85.74 116.85 95.06 118.94 102.23 119.6 99.1 129.17 118.09 134.83 111.61 136.39 91.66 140.52 118.09 141.5 131.21 137.99 135.2 131.32 146.11 135.63 155.69 149.23 158.6 157.41 154.79 154.93 143.24 166.1 116.15 169.94 114.39 167.13 94.36 173.02 110.41 183.92 109.58 178.82 140.58 179.89 142.86 179.14 143.9 175.08 147.75 167.28 151.08 167.56 154.75 173.79 155.69 168.06 162.01 157 173.66 153.48 180.27 148.22 187.59 148.22 187.59 123.62 161.6 113.26 140.31 114.17 126.5 118.05 124.11 115.07 121.15 111.13 102.62 118.05 90.57 123.87 85.74"/><polygon class="ay" points="137.28 87.91 145.72 83.9 156.45 84.77 159.91 86.72 167.4 95.06 166.77 89.86 169.63 87.8 177.41 87.69 184.62 85.34 169.6 78.72 153.77 77.26 140.74 84.3 137.28 87.91"/><polygon class="ay" points="123.87 85.74 118.05 90.57 116.85 95.06 126.37 94.38 132.8 90.66 133.06 84.55 123.87 85.74"/><polygon class="ay" points="127.18 145.45 135.63 155.69 149.23 158.6 157.92 157.24 159.98 158.6 157.41 154.79 154.74 143.88 141.71 138.27 135.63 137.91 127.18 145.45"/><polygon class="aa" points="121.24 156.72 127.18 145.45 136.57 137.75 141.5 131.21 156.58 119.53 166.1 116.15 169.94 114.39 176.76 114.39 183.61 111.45 183 115.14 180.64 115.12 177.86 114.68 175.22 115.12 169.85 115.54 166.16 116.98 157 119.75 142.49 133.28 138.89 136.41 138.01 138.27 136.57 138.62 127.42 145.74 122.28 155.74 122.55 159.4 121.24 156.72"/><polygon class="aa" points="184.19 99.33 179.68 99.3 175.8 99.34 173.07 99.37 168.32 98.86 163.71 100.91 157.33 106.27 151.47 110.25 139.68 112.75 152.43 110.82 157.05 107 158.43 105.94 164.72 100.87 167.72 100.95 169.97 101.12 171.1 99.66 177.6 99.83 180.43 100.37 184.12 101.62 184.19 99.33"/><path class="av" d="M148.1,134.45c-3.66,2.65-8.01,2.89-9.73,.53-1.72-2.36-.14-6.43,3.51-9.09,3.66-2.65,8.01-2.89,9.73-.53,1.72,2.36,.14,6.43-3.51,9.09Z"/></g><g><polygon class="a`" points="153.6 207.93 153.57 203.15 155.51 196.81 161.05 189.76 172.65 180.56 176.1 186.39 171.23 202.46 170.18 210.8 160.5 216.97 157.42 210.19 153.6 207.93"/><polygon class="am" points="153.6 207.93 159.77 205.39 165.91 198.86 171.57 187.41 172.04 190.74 176.1 186.39 170.84 203.81 170.18 210.8 160.5 216.97 157.42 210.19 153.6 207.93"/><polygon class="ay" points="172.65 180.56 171.57 187.41 172.04 190.74 176.1 186.39 172.65 180.56"/></g><g><polygon class="ba" points="112.42 217.1 109.59 209.88 111.31 202.53 110.93 197.53 112.21 195.39 118.7 199.96 119.2 206.54 119.37 214.54 114.05 219.57 112.42 217.1"/><polygon class="am" points="111.31 202.53 111.81 209.08 113.79 211.51 116.24 214.21 119.37 214.54 114.05 219.57 112.42 217.1 109.59 209.88 111.31 202.53"/><polygon class="ay" points="112.21 195.39 112.85 199.18 113.59 204.39 118.89 208.19 118.7 199.96 112.21 195.39"/></g><g><polygon class="y" points="335.67 214.53 338.18 218.6 339.82 225.04 338.74 233.93 333.61 247.82 327.63 244.62 323.45 228.37 320.01 220.69 325.09 210.39 331.24 214.59 335.67 214.53"/><polygon class="am" points="335.67 214.53 331.72 219.91 329.86 228.68 330.97 241.4 328.84 238.8 327.63 244.62 323.08 227 320.01 220.69 325.09 210.39 331.24 214.59 335.67 214.53"/><polygon class="bh" points="333.61 247.82 330.97 241.4 330.4 231.29 327.63 244.62 333.61 247.82"/><polygon class="bh" points="320.01 220.69 323.97 227.51 328.25 241.62 327.63 244.62 322.93 228.25 320.01 220.69"/></g><g><polygon class="ac" points="534.32 299.53 530.99 293.83 533.45 286.4 535.99 284.78 539.67 294.54 538.79 298.89 534.32 299.53"/><polygon class="am" points="530.99 293.83 534.73 295.25 538.69 294.68 539.67 294.54 538.79 298.89 534.32 299.53 530.99 293.83"/></g><g><polygon class="ae" points="558.35 270.18 558.35 265.85 557.45 261.85 561 257.12 563.38 259.16 563.66 265.85 561.96 271.87 558.35 270.18"/><polygon class="am" points="557.45 261.85 559.03 264.68 559.72 267.31 561.96 267.31 563.66 265.85 561.96 271.87 558.35 270.18 558.35 265.85 557.45 261.85"/></g><g><polygon class="bb" points="172.55 273.39 171.4 267.04 176.13 261.04 179.01 260.4 179.12 270.59 176.86 274.29 172.55 273.39"/><polygon class="am" points="171.4 267.04 174.35 269.6 178.18 270.39 179.12 270.59 176.86 274.29 172.55 273.39 171.4 267.04"/></g><g><polygon class="b`" points="675.44 134.16 675.44 126.7 673.9 119.82 680.02 111.66 684.12 115.17 684.59 126.7 681.66 137.07 675.44 134.16"/><polygon class="am" points="673.9 119.82 676.63 124.68 677.81 129.21 681.66 129.21 684.59 126.7 681.66 137.07 675.44 134.16 675.44 126.7 673.9 119.82"/></g></g></g></g></svg>