<?xml version="1.0" encoding="UTF-8"?><svg xmlns="http://www.w3.org/2000/svg" xmlns:xlink="http://www.w3.org/1999/xlink" viewBox="0 0 802.31 42.54"><defs><style>.f{isolation:isolate;}.g{fill:#ffb;mix-blend-mode:soft-light;opacity:.5;}.h{fill:url(#d);}.i{fill:url(#e);}</style><linearGradient id="d" x1="682.59" y1="42.54" x2="682.59" y2="0" gradientTransform="matrix(1, 0, 0, 1, 0, 0)" gradientUnits="userSpaceOnUse"><stop offset="0" stop-color="#006da9"/><stop offset="1" stop-color="#0074b0"/></linearGradient><linearGradient id="e" x1="401.16" y1="42.54" x2="401.16" y2="27.73" gradientTransform="matrix(1, 0, 0, 1, 0, 0)" gradientUnits="userSpaceOnUse"><stop offset="0" stop-color="#006da9"/><stop offset="1" stop-color="#0087bc"/></linearGradient></defs><g class="f"><g id="a"/><g id="b"><g id="c"><polygon class="h" points="800.97 0 755.96 20.62 755.96 24.1 751.72 24.1 729.62 29.36 656.22 39.48 562.88 42.54 802.31 42.54 800.97 0"/><g><polygon class="i" points="0 42.54 713.17 42.54 802.31 42.54 763.1 40.19 744.15 37.94 741.62 34.18 713.17 29.23 685.83 37.53 675.13 40.4 650.47 40.4 635.52 40.4 621.89 36.4 590.22 37.53 583.31 40.4 568.16 37.53 556.42 33.44 537.04 36.4 537.04 40.4 523.17 40.4 488.22 40.4 479.16 27.73 469.65 29.23 467.28 31.73 464 32.07 462.22 34.07 456.57 36.4 449.44 40.4 409.33 40.4 397.74 40.4 387.49 40.4 379.32 38.65 345.44 35.15 333.18 37.53 291 40.4 276.35 38.65 266.31 38.65 248.94 38.65 238.17 40.4 222.42 40.4 199.07 34.73 194.94 35.76 170.51 36.4 114.11 40.73 97.84 31.43 74.59 31.73 71.04 34.05 32.49 37.01 10.4 31.08 0 29.02 0 42.54"/><polygon class="g" points="540.56 38.1 556.42 39.48 562.18 36.4 556.42 33.44 537.04 36.4 540.56 38.1"/><polygon class="g" points="590.22 37.53 605.3 39.48 618.52 38.1 621.89 36.4 590.22 37.53"/><polygon class="g" points="469.65 29.23 476.48 30.98 480.81 30.04 479.16 27.73 469.65 29.23"/><polygon class="g" points="464 32.07 467.72 34.31 470.99 33.19 473.07 32.97 467.28 31.73 464 32.07"/><polygon class="g" points="345.44 35.15 346.48 40.08 362.4 40.96 365.35 39.13 379.32 38.65 345.44 35.15"/></g></g></g></g></svg>