<?xml version="1.0" encoding="UTF-8"?><svg xmlns="http://www.w3.org/2000/svg" xmlns:xlink="http://www.w3.org/1999/xlink" viewBox="0 0 802.31 178.84"><defs><style>.e{fill:url(#d);}</style><linearGradient id="d" x1="401.16" y1="178.84" x2="401.16" y2="0" gradientTransform="matrix(1, 0, 0, 1, 0, 0)" gradientUnits="userSpaceOnUse"><stop offset="0" stop-color="#1ca0c6"/><stop offset=".51" stop-color="#2354a4"/><stop offset="1" stop-color="#1a1ea1"/></linearGradient></defs><g id="a"/><g id="b"><g id="c"><polygon class="e" points="800.97 0 774.99 32.7 773.41 52.62 769.24 35.28 761.72 42.24 755.76 59.1 751.88 62.88 748.3 86.91 739.24 103.5 733.3 107.21 729.62 101.56 721.97 100.81 715.63 103.5 704.72 137.65 697.31 143.65 661.29 153.26 625.02 153.26 592.95 146.17 581.98 152.8 569.01 153.26 556.46 157.27 551.43 157.27 537.97 157.27 414.36 169.74 406.61 168.03 340.65 157.27 330.29 153.26 321.15 161.04 307.47 161.04 281.87 152.34 254.83 135.77 245.66 128.5 223.97 139.63 206.24 164.03 190.78 161.57 175.92 152.34 158.62 124.73 153.45 124.73 142.95 120.89 126 118.66 115.29 106.75 89.47 66.36 86.56 65.37 83.34 59.97 78.97 59.56 75.97 51.88 54.85 43.37 43.09 40.64 37.4 54.6 37.4 44.01 20.7 41.97 1.43 44.01 0 178.84 802.31 178.84 800.97 0"/></g></g></svg>