<?xml version="1.0" encoding="UTF-8"?><svg xmlns="http://www.w3.org/2000/svg" xmlns:xlink="http://www.w3.org/1999/xlink" viewBox="0 0 819.41 132.88"><defs><style>.e{fill:url(#d);}</style><linearGradient id="d" x1="409.71" y1="132.88" x2="409.71" y2="0" gradientTransform="matrix(1, 0, 0, 1, 0, 0)" gradientUnits="userSpaceOnUse"><stop offset="0" stop-color="#1cb9ca"/><stop offset=".51" stop-color="#3767b5"/><stop offset="1" stop-color="#333cbe"/></linearGradient></defs><g id="a"/><g id="b"><g id="c"><polygon class="e" points="641.2 112.97 508.91 101.47 494.89 94.52 494.89 85.06 488.38 88.12 488.38 69.35 483.38 79.33 483.38 101.47 455.34 101.47 451.34 94.52 445.83 91.19 440.83 85.57 410.29 85.57 391.94 68.02 379.75 60.34 369.24 43.59 346.21 26.8 339.71 13.19 331.2 5.19 331.2 0 321.19 4.69 315.18 53.91 311.17 43.59 304.67 43.36 298.66 28.69 290.84 24.36 281.74 17.79 281.71 8.7 272.31 22.69 265.59 22.69 265.59 26.19 257.08 39.19 257.08 49.19 250.83 53.44 248.07 59.44 242.57 62.26 238.81 74.44 236.81 76.69 228.3 59.44 222.79 64.19 216.53 64.94 209.28 62.26 198.01 68.19 181.21 53.91 170.21 54.02 165.47 65.94 147.7 49.69 137.19 54.19 137.19 58.94 132.18 72.69 117.17 84.94 102.65 89.94 93.56 94.69 2.61 93.19 1.18 100.87 0 114.39 1.18 132.88 280.14 124.83 282.11 124.83 819.41 124.83 641.2 112.97"/></g></g></svg>