<?xml version="1.0" encoding="UTF-8"?><svg xmlns="http://www.w3.org/2000/svg" viewBox="0 0 963.35 378.31"><defs><style>.d{fill:#439fc2;}.e{fill:#43bde6;}</style></defs><g id="a"/><g id="b"><g id="c"><g><path class="e" d="M491.67,256.99c.62-.98,1.01-2.1,1.13-3.24,.02-.19,.03-.38-.03-.55-.11-.34-.46-.55-.82-.64-.86-.2-1.8,.23-2.29,.97-.48,.74-.52,1.72-.17,2.53,.19,.45,.51,.86,.96,1.04,.45,.18,1.04,.04,1.27-.38-.06-.14-.29-.17-.38-.05l.31,.32Z"/><path class="e" d="M375.5,96.05c-1.16,0-2.31,.28-3.34,.8-.17,.08-.33,.18-.45,.32-.23,.28-.21,.69-.09,1.03,.29,.83,1.17,1.39,2.05,1.4,.88,0,1.73-.5,2.23-1.22,.27-.4,.45-.89,.36-1.37-.09-.48-.53-.9-1.01-.87-.09,.12,0,.34,.16,.34l.1-.43Z"/><path class="e" d="M486.7,258.32c.31-.58,.3-1.33-.04-1.9-.66,.02-1.35,.29-1.7,.85s-.23,1.42,.36,1.73,1.45-.28,1.27-.91l.12,.24Z"/><path class="e" d="M495.89,257.44c0-.22-.02-.45-.08-.66,0-.03-.02-.05-.04-.07-.02-.02-.06-.02-.08-.01-.23,.05-.36,.39-.59,.33-.04-.01-.08-.03-.12-.02-.07,.02-.06,.12-.03,.18,.16,.33,.66,.42,.93,.17v.1h.02Z"/><path class="e" d="M502.93,255.3c0-.42-.04-.85-.16-1.25-.01-.05-.03-.1-.07-.13-.04-.03-.1-.03-.16-.02-.43,.09-.68,.73-1.1,.62-.08-.02-.15-.07-.23-.04-.12,.04-.11,.22-.06,.34,.3,.62,1.24,.79,1.74,.32l-.02,.19,.06-.02Z"/><path class="e" d="M488.96,248.82c.14-.27,.14-.62,0-.89-.13,.05-.26,.11-.36,.2-.1,.1-.15,.25-.1,.38,.08,.17,.3,.21,.49,.22l-.12,.1h.09Z"/><path class="e" d="M326.5,121.34c-.09,0-.18,.02-.24,.08-.06,.06-.08,.14-.1,.23-.05,.22-.12,.44-.21,.65,.34-.17,.68-.35,1.01-.52,.03-.01,.05-.03,.08-.03,.1,0,.16,.12,.25,.17,.13,.07,.3-.03,.4-.15,.71-.83-.73-.47-1.2-.43Z"/><path class="e" d="M504.14,239.69c0-.09,0-.18-.05-.25-.05-.07-.14-.09-.22-.12-.22-.07-.43-.16-.63-.27,.14,.35,.28,.7,.42,1.06,.01,.03,.02,.06,.02,.09,0,.11-.14,.15-.19,.24-.09,.13,0,.3,.11,.41,.76,.79,.53-.69,.53-1.16Z"/><path class="e" d="M335.65,98.61l-.33,.05c.05,.22,.21,.43,.43,.44,.22,.02,.43-.25,.32-.44-.07-.12-.23-.27-.12-.34l-.3,.29Z"/><path class="e" d="M510.38,245.51c-.11,.29-.56,.38-.76,.15-.21-.23-.07-.67,.23-.74s.63,.25,.55,.56v.04Z"/><path class="e" d="M498.35,251.07c.14,.2,.27,.51,.09,.67-.17,.16-.45,.03-.65-.11-.08-.06-.18-.14-.17-.24,.02-.25,.52-.14,.59-.38,.07-.02,.11,.11,.05,.14l.09-.08Z"/><path class="e" d="M488.04,252.45c.05,.08,.07,.18,.06,.27-.23-.06-.36-.31-.44-.53-.05-.12-.08-.29,.02-.38,.07-.06,.17-.06,.26-.09,.17-.07,.32-.29,.49-.22,.1,.04,.13,.17,.1,.27-.03,.1-.1,.18-.17,.26-.16,.17-.31,.34-.47,.51l.15-.09Z"/><path class="e" d="M484.82,254.14c.06-.18-.24-.31-.39-.19s-.18,.33-.2,.53c.26,.06,.55-.06,.7-.29l-.11-.05Z"/><path class="e" d="M484.02,274.09c0-.09,.01-.19-.02-.28-.03-.09-.11-.17-.21-.17-.16,0-.24,.19-.37,.26-.14,.07-.33,.02-.44,.14-.1,.11-.03,.31,.11,.39,.14,.07,.3,.05,.45,.02,.13-.03,.27-.07,.37-.16,.1-.1,.14-.26,.06-.37l.05,.18Z"/><path class="e" d="M360.9,139.45c.07,.05,.08,.17,.02,.24-.06,.07-.15,.1-.24,.11-.05,0-.11,0-.16-.02-.11-.05-.15-.21-.09-.32,.07-.1,.22-.14,.33-.07,.1,.07,.14,.22,.09,.33l.05-.27Z"/><path class="e" d="M472.08,248.59c-.04,.08-.15,.11-.23,.07-.08-.04-.13-.13-.15-.22-.01-.05-.02-.11,0-.16,.03-.12,.18-.19,.29-.14,.11,.05,.17,.19,.13,.31-.05,.11-.18,.18-.3,.15h.27Z"/><path class="e" d="M486.29,249.93c.19,.03,.36-.22,.26-.38-.1,0-.21,0-.29,.05-.09,.05-.14,.16-.11,.26,.03,.09,.18,.14,.24,.06l-.1,.02Z"/><path class="e" d="M497.18,242.63c.19,.03,.36-.22,.26-.38-.1,0-.21,0-.29,.05-.09,.05-.14,.16-.11,.26,.03,.09,.18,.14,.24,.06l-.1,.02Z"/><path class="e" d="M490.63,250.04c.16-.16,.25-.41,.22-.64l-.56,.12c-.09,.02-.18,.04-.25,.1-.13,.12-.09,.36,.06,.45,.15,.1,.35,.07,.49-.04h.04Z"/><path class="e" d="M520.28,272.42c.1,.33,.2,.66,.31,.99-.13,.12-.32-.05-.41-.21-.09-.15-.18-.32-.17-.49,.01-.18,.18-.35,.34-.31l-.07,.02Z"/><path class="e" d="M515.83,267.38c.23-.1,.22-.48,0-.62s-.52-.04-.67,.16c-.07,.09-.12,.19-.1,.3,.03,.17,.2,.28,.36,.29,.17,.01,.33-.05,.48-.11l-.08-.02Z"/><path class="e" d="M497.67,249.75c.21-.1,.35-.35,.32-.58-.16-.04-.34-.02-.49,.06-.2,.1-.34,.35-.26,.55,.08,.21,.45,.24,.51,.02l-.08-.06Z"/><path class="e" d="M496.36,251.76c-.05,.15-.21,.26-.37,.24l-.15-.5c.19-.16,.52-.07,.61,.15l-.08,.11Z"/><path class="e" d="M495.33,257.01l.1,.18c-.16,.02-.33,.04-.48,0-.15-.05-.29-.19-.28-.35,0-.16,.21-.29,.34-.2,.13,.09,.24,.23,.3,.38h.02Z"/><path class="e" d="M483.44,252.18c-.06,.12-.19,.2-.33,.19-.13,0-.26-.1-.3-.23-.03-.09,0-.21,.08-.23,.04,0,.08,0,.11,.02l.47,.19-.05,.08v-.02Z"/><path class="e" d="M481.44,249.71c-.16,.05-.2,.25-.21,.42s-.02,.37-.16,.45c-.04,.02-.09,.04-.13,.02-.11-.05-.06-.21-.06-.32,0-.09-.05-.18-.08-.27-.06-.22,.03-.46,.22-.59,.12-.02,.24,.04,.31,.15,.06,.1,.06,.24-.01,.34l.13-.19Z"/><path class="e" d="M480.09,248.73l-.17-.09c-.09,.06-.12,.19-.08,.28s.18,.14,.27,.08c.09-.06,.09-.21,0-.27h-.02Z"/><path class="e" d="M476.35,251.26l-.17-.09c-.09,.06-.12,.19-.08,.28,.05,.1,.18,.14,.27,.08s.09-.21,0-.27h-.02Z"/><path class="e" d="M487.67,249.7c-.05,.11,.09,.23,.21,.23,.13,0,.24-.06,.37-.08,.13-.01,.26,.03,.36,.12,.05,.05,.1,.13,.08,.2-.01,.05-.05,.09-.09,.12-.18,.17-.39,.32-.64,.37-.24,.05-.52-.03-.66-.24-.09-.15-.1-.34-.01-.49,.08-.15,.25-.25,.42-.25l-.04,.02Z"/><path class="e" d="M315.09,80.13c.1,.07,.25-.04,.27-.16,.02-.12-.02-.25,0-.38,.01-.13,.08-.25,.19-.33,.06-.04,.14-.07,.21-.04,.05,.02,.08,.07,.1,.11,.13,.21,.24,.45,.24,.69,0,.25-.13,.51-.36,.6-.16,.06-.35,.03-.49-.08-.13-.11-.2-.29-.17-.46v.05Z"/><path class="e" d="M310.71,132.4c.1,.07,.25-.04,.27-.16,.02-.12-.02-.25,0-.38,.01-.13,.08-.25,.19-.33,.06-.04,.14-.07,.21-.04,.05,.02,.08,.07,.1,.11,.13,.21,.24,.45,.24,.69,0,.25-.13,.51-.36,.6-.16,.06-.35,.03-.49-.08s-.2-.29-.17-.46v.05Z"/><path class="e" d="M496.81,235.22c-.05,.11,.09,.23,.21,.23,.13,0,.24-.07,.37-.08,.13-.01,.26,.03,.36,.12,.05,.05,.1,.13,.08,.2-.01,.05-.05,.09-.09,.12-.18,.17-.39,.32-.64,.37-.24,.05-.52-.03-.66-.24-.09-.15-.1-.34-.01-.49,.08-.15,.25-.25,.42-.25l-.04,.02Z"/><path class="e" d="M489.82,247.13c.1-.12,.07-.32-.05-.42-.12-.1-.3-.1-.44-.04-.06,.03-.13,.09-.11,.15,.01,.05,.06,.07,.1,.09l.51,.27v-.06Z"/><path class="e" d="M512.89,303.32c.4,.02,.81-.13,1.11-.4,.05-.05,.1-.1,.1-.17,0-.16-.22-.18-.36-.24-.25-.09-.39-.37-.64-.45-.2-.07-.43,0-.63,.08-.29,.11-.65,.33-.56,.63,.05,.15,.2,.25,.35,.31,.31,.14,.64,.23,.98,.26l-.35-.02Z"/><path class="e" d="M504.32,248.95c.22,.11,.42-.17,.51-.4,.05-.14,.11-.31,.02-.44-.11-.17-.37-.13-.57-.08l-.52,.15c-.08,.02-.16,.05-.19,.13-.03,.06,0,.14,.02,.2,.14,.33,.35,.63,.61,.87l.12-.43Z"/><path class="e" d="M499.54,255.33c1.85,1.17,3.01-1.12,1.71-2.46-1.36-1.41-3.32,1.44-1.71,2.46Z"/><path class="e" d="M487.24,255.39c-.24,.21-.68,.1-.79-.2,.21-.14,.43-.28,.67-.28,.25,0,.51,.21,.46,.45l-.34,.27-.02-.24Z"/><path class="e" d="M537.65,240.83c.13-.1,.04-.2-.13-.2-.17,0-.36,.06-.55,.12l-1.23,.39c-.23,.07-.5,.18-.58,.3-.07,.11,.06,.19,.24,.19,.18,0,.39-.04,.59-.09,.67-.16,1.48-.43,1.73-.8l-.35-.03,.26,.11Z"/><path class="e" d="M480.02,251.43c.05,.05,.02,.15-.04,.19s-.14,.04-.21,.03c-.06,0-.12-.02-.17-.05-.1-.07-.13-.21-.08-.31s.16-.17,.28-.18c.06,0,.12,0,.16,.05s.05,.11,.02,.15l.04,.13Z"/><path class="e" d="M485.42,248.39l-.03-.2c-.1,0-.22,.01-.29,.08s-.06,.23,.05,.25c.04,0,.08-.01,.11-.03,.11-.05,.23-.1,.34-.15l-.18,.05Z"/><path class="e" d="M487.28,236.64c.04-.16,.08-.32,.05-.49-.03-.16-.14-.32-.3-.35-.08-.02-.16,0-.24,.04-.22,.12-.31,.43-.18,.64,.13,.21,.44,.28,.65,.14v.02Z"/><path class="e" d="M499.81,242.46c.11,.21-.12,.5-.35,.45-.09-.1-.16-.21-.2-.33,.12-.08,.27-.12,.41-.09l.13-.02Z"/><path class="e" d="M486.95,259.94l-.11-.32c-.09,0-.17,.03-.24,.08,0,.17,.14,.32,.31,.32l.05-.08Z"/><path class="e" d="M261.54,120.21c-.84-.79-1.87-1.38-2.97-1.72-.18-.05-.36-.1-.55-.08-.36,.05-.63,.35-.78,.68-.36,.8-.11,1.82,.52,2.43s1.6,.83,2.46,.65c.47-.1,.94-.34,1.2-.75,.26-.41,.24-1.01-.13-1.32-.15,.03-.22,.25-.12,.36l.37-.25Z"/><path class="e" d="M291.51,139.32c-.51-.42-1.25-.54-1.87-.32-.1,.65,.03,1.38,.52,1.83s1.35,.49,1.76-.03c.41-.52,0-1.48-.66-1.42l.26-.07Z"/><path class="e" d="M282.61,135.33c-.24-.19-.58-.25-.87-.17,.03,.14,.05,.27,.13,.39,.08,.11,.22,.2,.35,.17,.18-.04,.26-.26,.31-.44l.08,.13v-.09Z"/><path class="e" d="M280.87,136.71c-.08-.02-.18-.03-.25,0-.07,.04-.12,.12-.16,.19-.11,.2-.24,.39-.38,.57,.37-.07,.74-.14,1.12-.22,.03,0,.06-.01,.09,0,.1,.02,.12,.16,.2,.24,.11,.11,.29,.05,.42-.03,.92-.6-.58-.65-1.04-.74Z"/><path class="e" d="M286,136.91c.09-.03,.19-.03,.28,0-.1,.22-.37,.29-.61,.33-.13,.02-.3,.03-.37-.09-.05-.08-.02-.18-.04-.27-.03-.18-.23-.37-.12-.52,.06-.09,.19-.1,.29-.05,.09,.05,.16,.13,.22,.22,.14,.18,.28,.37,.41,.55l-.06-.17Z"/><path class="e" d="M287.06,140.39c-.17-.09-.35,.18-.26,.35,.09,.17,.29,.24,.48,.29,.11-.25,.04-.55-.15-.74l-.07,.1Z"/><path class="e" d="M306.51,144.91c-.09-.02-.19-.05-.28-.03-.09,.02-.19,.08-.2,.17-.03,.15,.14,.27,.19,.42,.04,.15-.04,.33,.05,.46,.09,.12,.3,.09,.4-.03,.1-.12,.11-.29,.1-.44,0-.14-.02-.28-.09-.4-.07-.12-.23-.19-.36-.13h.19Z"/><path class="e" d="M283.05,139.37c.07,.05,.08,.17,.02,.24-.06,.07-.15,.1-.24,.11-.05,0-.11,0-.16-.02-.11-.05-.15-.21-.09-.32,.07-.1,.22-.14,.33-.07,.1,.07,.14,.22,.09,.33l.05-.27Z"/><path class="e" d="M279.21,151.86c.07,.05,.08,.17,.02,.24-.06,.07-.15,.1-.24,.11-.05,0-.11,0-.16-.02-.11-.05-.15-.21-.09-.32,.07-.1,.22-.14,.33-.07s.14,.22,.09,.33l.05-.27Z"/><path class="e" d="M283.19,138.16c.07-.18-.15-.39-.33-.33-.03,.1-.04,.2,0,.3,.04,.09,.13,.17,.23,.15,.1-.02,.17-.15,.11-.23v.1Z"/><path class="e" d="M284.12,133.92c-.13-.19-.35-.32-.58-.33l.02,.57c0,.09,0,.18,.05,.26,.09,.15,.33,.15,.46,.03,.12-.12,.13-.33,.05-.49v-.04Z"/><path class="e" d="M284.87,141.38c.11,.08,.16,.23,.13,.36-.03,.13-.15,.24-.28,.26-.09,.01-.21-.03-.21-.13,0-.04,.02-.07,.04-.11,.09-.14,.18-.29,.27-.43l.07,.06h-.02Z"/><path class="e" d="M282.07,142.87c.02,.17,.21,.24,.38,.28,.16,.04,.36,.08,.41,.24,.02,.04,.02,.09,0,.13-.07,.1-.21,.02-.33,0-.09-.01-.19,.02-.28,.02-.22,.02-.45-.12-.54-.32,0-.12,.09-.23,.2-.27,.11-.04,.25,0,.33,.08l-.16-.16Z"/><path class="e" d="M280.85,144.02l-.12,.15c.04,.1,.16,.16,.26,.13,.1-.03,.17-.15,.13-.25s-.19-.13-.26-.05v.02Z"/><path class="e" d="M282.64,148.17l-.12,.15c.04,.1,.16,.16,.26,.13,.1-.03,.17-.15,.13-.25s-.19-.13-.26-.05v.02Z"/><path class="e" d="M283.23,136.75c.1,.07,.25-.04,.27-.16,.02-.12-.02-.25,0-.38,.01-.13,.08-.25,.19-.33,.06-.04,.14-.07,.21-.04,.05,.02,.08,.07,.1,.11,.13,.21,.24,.45,.24,.69,0,.25-.13,.51-.36,.6-.16,.06-.35,.03-.49-.08-.13-.11-.2-.29-.17-.46v.05Z"/><path class="e" d="M281.1,134.17c-.1-.12-.3-.13-.42-.03s-.16,.28-.12,.43c.02,.07,.06,.14,.13,.14,.05,0,.08-.04,.11-.08l.36-.45h-.06Z"/><path class="e" d="M288.74,138.24c.16,.27-.03,.69-.35,.73-.1-.23-.19-.47-.15-.71,.05-.24,.3-.46,.53-.37,.07,.13,.14,.25,.2,.38l-.24-.03Z"/><path class="e" d="M283.5,144.6c.06-.04,.15,0,.18,.08s.01,.14,0,.21c-.02,.06-.04,.11-.08,.15-.08,.08-.23,.09-.32,.02-.09-.07-.14-.19-.13-.31,0-.06,.03-.11,.08-.15s.12-.03,.15,.01l.13-.02Z"/><path class="e" d="M281.51,138.72h-.2c-.02,.1-.03,.21,.03,.3,.06,.09,.22,.1,.25,0,.01-.04,0-.08,0-.12l-.09-.36,.02,.18Z"/><path class="e" d="M309.15,103.89c-.51-.42-1.25-.54-1.87-.32-.1,.65,.03,1.38,.52,1.83s1.35,.49,1.76-.03c.41-.52,0-1.48-.66-1.42l.26-.07Z"/><path class="e" d="M297,123.43c-.08-.02-.18-.03-.25,0-.07,.04-.12,.12-.16,.19-.11,.2-.24,.39-.38,.57,.37-.07,.74-.14,1.12-.22,.03,0,.06-.01,.09,0,.1,.02,.12,.16,.2,.24,.11,.11,.29,.05,.42-.03,.92-.6-.58-.65-1.04-.74Z"/><path class="e" d="M303.19,127.1c-.17-.09-.35,.18-.26,.35,.09,.17,.29,.24,.48,.29,.11-.25,.04-.55-.15-.74l-.07,.1Z"/><path class="e" d="M299.19,126.09c.07,.05,.08,.17,.02,.24-.06,.07-.15,.1-.24,.11-.05,0-.11,0-.16-.02-.11-.05-.15-.21-.09-.32,.07-.1,.22-.14,.33-.07s.14,.22,.09,.33l.05-.27Z"/><path class="e" d="M295.35,138.57c.07,.05,.08,.17,.02,.24-.06,.07-.15,.1-.24,.11-.05,0-.11,0-.16-.02-.11-.05-.15-.21-.09-.32,.07-.1,.22-.14,.33-.07,.1,.07,.14,.22,.09,.33l.05-.27Z"/><path class="e" d="M299.32,124.87c.07-.18-.15-.39-.33-.33-.03,.1-.04,.2,0,.3,.04,.09,.13,.17,.23,.16s.17-.15,.11-.23v.1Z"/><path class="e" d="M301.01,128.1c.11,.08,.16,.23,.13,.36-.03,.13-.15,.24-.28,.26-.09,.01-.21-.03-.21-.13,0-.04,.02-.07,.04-.11l.27-.43,.07,.06h-.02Z"/><path class="e" d="M298.2,129.59c.02,.17,.21,.24,.38,.28,.16,.04,.36,.08,.41,.24,.02,.04,.02,.09,0,.13-.07,.1-.21,.02-.33,0-.09-.01-.19,.02-.28,.02-.22,.02-.45-.12-.54-.32,0-.12,.09-.23,.2-.27s.25,0,.33,.08l-.16-.16Z"/><path class="e" d="M296.99,130.74l-.12,.15c.04,.1,.16,.16,.26,.13s.17-.15,.13-.25c-.04-.1-.19-.13-.26-.05v.02Z"/><path class="e" d="M298.77,134.88l-.12,.15c.04,.1,.16,.16,.26,.13,.1-.03,.17-.15,.13-.25s-.19-.13-.26-.05v.02Z"/><path class="e" d="M299.37,123.47c.1,.07,.25-.04,.27-.16,.02-.12-.02-.25,0-.38,.01-.13,.08-.25,.19-.33,.06-.04,.14-.07,.21-.04,.05,.02,.08,.07,.1,.11,.13,.21,.24,.45,.24,.69,0,.25-.13,.51-.36,.6-.16,.06-.35,.03-.49-.08s-.2-.29-.17-.46v.05Z"/><path class="e" d="M299.63,131.31c.06-.04,.15,0,.18,.08s.01,.14,0,.21c-.02,.06-.04,.11-.08,.15-.08,.08-.23,.09-.32,.02s-.14-.19-.13-.31c0-.06,.03-.11,.08-.15,.05-.03,.12-.03,.15,.01l.14-.02Z"/><path class="e" d="M297.65,125.44h-.2c-.02,.1-.03,.21,.03,.3,.06,.09,.22,.1,.25,0,.01-.04,0-.08,0-.12l-.09-.36,.02,.18Z"/><path class="e" d="M300.34,88.46c-.51-.42-1.25-.54-1.87-.32-.1,.65,.03,1.38,.52,1.83,.48,.45,1.35,.49,1.76-.03,.41-.52,0-1.48-.66-1.42l.26-.07Z"/><path class="e" d="M289.69,85.85c-.08-.02-.18-.03-.25,0-.07,.04-.12,.12-.16,.19-.11,.2-.24,.39-.38,.57,.37-.07,.74-.15,1.12-.22,.03,0,.06-.01,.09,0,.1,.02,.12,.16,.2,.24,.11,.11,.29,.05,.42-.03,.92-.6-.58-.65-1.04-.74Z"/><path class="e" d="M329.79,82.74c-.17-.09-.35,.18-.26,.35,.09,.17,.29,.24,.48,.29,.11-.25,.04-.55-.15-.74l-.07,.1Z"/><path class="e" d="M291.88,88.51c.07,.05,.08,.17,.02,.24-.06,.07-.15,.1-.24,.11-.05,0-.11,0-.16-.02-.11-.05-.15-.21-.09-.32s.22-.14,.33-.07,.14,.21,.09,.33l.05-.27Z"/><path class="e" d="M288.03,101c.07,.05,.08,.17,.02,.24-.06,.07-.15,.1-.24,.11-.05,0-.11,0-.16-.02-.11-.05-.15-.21-.09-.32,.07-.1,.22-.14,.33-.07s.14,.22,.09,.33l.05-.27Z"/><path class="e" d="M292.01,87.3c.07-.18-.15-.39-.33-.33-.03,.1-.04,.2,0,.3,.04,.09,.13,.17,.23,.15,.1-.02,.17-.15,.11-.23v.1Z"/><path class="e" d="M293.7,90.52c.11,.08,.16,.23,.13,.36-.03,.13-.15,.24-.28,.26-.09,.01-.21-.03-.21-.13,0-.04,.02-.07,.04-.11l.27-.43,.07,.06h-.02Z"/><path class="e" d="M290.89,92.01c.02,.17,.21,.24,.38,.28,.16,.04,.36,.08,.41,.24,.02,.04,.02,.09,0,.13-.07,.1-.21,.02-.33,0-.09-.01-.19,.02-.28,.02-.22,.02-.45-.12-.54-.32,0-.12,.09-.23,.2-.27s.25,0,.33,.08l-.16-.16Z"/><path class="e" d="M289.68,93.16l-.12,.15c.04,.1,.16,.16,.26,.13,.1-.03,.17-.15,.13-.25s-.19-.13-.26-.05v.02Z"/><path class="e" d="M291.46,97.31l-.12,.15c.04,.1,.16,.16,.26,.13,.1-.03,.17-.15,.13-.25s-.19-.13-.26-.05v.02Z"/><path class="e" d="M330.47,89.04c.1,.07,.25-.04,.27-.16,.02-.12-.02-.25,0-.38,.01-.13,.08-.25,.19-.33,.06-.04,.14-.07,.21-.04,.05,.02,.08,.07,.1,.11,.13,.21,.24,.45,.24,.69,0,.25-.13,.51-.36,.6-.16,.06-.35,.03-.49-.08-.13-.11-.2-.29-.17-.46v.05Z"/><path class="e" d="M292.32,93.74c.06-.04,.15,0,.18,.08,.03,.07,.01,.14,0,.21-.02,.06-.04,.11-.08,.15-.08,.08-.23,.09-.32,.02s-.14-.19-.13-.31c0-.06,.03-.11,.08-.15s.12-.03,.15,.01l.14-.02Z"/><path class="e" d="M290.34,87.86h-.2c-.02,.1-.03,.21,.03,.3,.06,.09,.22,.1,.25,0,.01-.04,0-.08,0-.12l-.09-.36,.02,.18Z"/><path class="e" d="M281.21,131.45c-.15-.07-.3-.14-.47-.14-.16,0-.34,.07-.4,.23-.03,.08-.03,.16,0,.24,.07,.24,.36,.38,.59,.29,.23-.09,.36-.38,.26-.61h.02Z"/><path class="e" d="M293.15,139.38l-.33,.05c0,.09,0,.17,.03,.25,.16,.04,.34-.08,.37-.24l-.07-.06Z"/><path class="e" d="M384.72,156.37c-.84-.79-1.87-1.38-2.97-1.72-.18-.05-.36-.1-.55-.08-.36,.05-.63,.35-.78,.68-.36,.8-.11,1.82,.52,2.43,.63,.61,1.6,.83,2.46,.65,.47-.1,.94-.34,1.2-.75,.26-.41,.24-1.01-.13-1.32-.15,.03-.22,.25-.12,.36l.37-.25Z"/><path class="e" d="M328.11,111.52c-.51-.42-1.25-.54-1.87-.32-.1,.65,.03,1.38,.52,1.83,.48,.45,1.35,.49,1.76-.03,.41-.52,0-1.48-.66-1.42l.26-.07Z"/><path class="e" d="M319.21,107.53c-.24-.19-.58-.25-.87-.17,.03,.14,.05,.27,.13,.39,.08,.11,.22,.2,.35,.17,.18-.04,.26-.26,.31-.44l.08,.13v-.09Z"/><path class="e" d="M317.47,108.91c-.08-.02-.18-.03-.25,0-.07,.04-.12,.12-.16,.19-.11,.2-.24,.39-.38,.57,.37-.07,.74-.14,1.12-.22,.03,0,.06-.01,.09,0,.1,.02,.12,.16,.2,.24,.11,.11,.29,.05,.42-.03,.92-.6-.58-.65-1.04-.74Z"/><path class="e" d="M313.07,103.01l-.33,.05c.05,.22,.21,.43,.43,.44,.22,.02,.43-.25,.32-.44-.07-.12-.23-.27-.12-.34l-.3,.29Z"/><path class="e" d="M322.6,109.11c.09-.03,.19-.03,.28,0-.1,.22-.37,.29-.61,.33-.13,.02-.3,.03-.37-.09-.05-.08-.02-.18-.04-.27-.03-.18-.23-.37-.12-.52,.06-.09,.19-.1,.29-.05,.09,.05,.16,.13,.22,.22l.41,.55-.06-.17Z"/><path class="e" d="M323.66,112.59c-.17-.09-.35,.18-.26,.35,.09,.17,.29,.24,.48,.29,.11-.25,.04-.55-.15-.74l-.07,.1Z"/><path class="e" d="M319.65,111.58c.07,.05,.08,.17,.02,.24-.06,.07-.15,.1-.24,.11-.05,0-.11,0-.16-.02-.11-.05-.15-.21-.09-.32,.07-.1,.22-.14,.33-.07s.14,.22,.09,.33l.05-.27Z"/><path class="e" d="M319.79,110.36c.07-.18-.15-.39-.33-.33-.03,.1-.04,.2,0,.3,.04,.09,.13,.17,.23,.16,.1-.02,.17-.15,.11-.23v.1Z"/><path class="e" d="M314.66,98.29c.07-.18-.15-.39-.33-.33-.03,.1-.04,.2,0,.3,.04,.09,.13,.17,.23,.15,.1-.02,.17-.15,.11-.23v.1Z"/><path class="e" d="M320.71,106.12c-.13-.19-.35-.32-.58-.33,0,.19,.01,.38,.02,.57,0,.09,0,.18,.05,.26,.09,.15,.33,.15,.46,.03,.12-.12,.13-.33,.05-.49v-.04Z"/><path class="e" d="M321.47,113.58c.11,.08,.16,.23,.13,.36s-.15,.24-.28,.26c-.09,.01-.21-.03-.21-.13,0-.04,.02-.07,.04-.11l.27-.43,.07,.06h-.02Z"/><path class="e" d="M320.95,116.17c-.13,.11-.09,.31-.02,.47,.06,.16,.13,.34,.03,.48-.03,.04-.07,.07-.11,.07-.12,0-.14-.17-.19-.27-.04-.09-.12-.14-.18-.22-.14-.18-.15-.44-.03-.63,.1-.06,.24-.05,.34,.02,.1,.07,.15,.2,.12,.32l.05-.23Z"/><path class="e" d="M319.31,115.81l-.19-.02c-.05,.09-.04,.22,.04,.29,.08,.07,.22,.06,.28-.03s0-.23-.1-.25h-.02Z"/><path class="e" d="M316.87,119.6l-.19-.02c-.05,.09-.04,.22,.04,.29,.08,.07,.22,.06,.28-.03,.06-.09,0-.23-.1-.25h-.02Z"/><path class="e" d="M319.83,108.96c.1,.07,.25-.04,.27-.16,.02-.12-.02-.25,0-.38,.01-.13,.08-.25,.19-.33,.06-.04,.14-.07,.21-.04,.05,.02,.08,.07,.1,.11,.13,.21,.24,.45,.24,.69,0,.25-.13,.51-.36,.6-.16,.06-.35,.03-.49-.08-.13-.11-.2-.29-.17-.46v.05Z"/><path class="e" d="M344.24,99.36c-.1-.12-.3-.13-.42-.03-.12,.1-.16,.28-.12,.43,.02,.07,.06,.14,.13,.14,.05,0,.08-.04,.11-.08l.36-.45h-.06Z"/><path class="e" d="M325.33,110.44c.16,.27-.03,.69-.35,.73-.1-.23-.19-.47-.15-.71,.05-.24,.3-.46,.53-.37l.2,.38-.24-.03Z"/><path class="e" d="M320.31,118.32c.07,.03,.08,.13,.04,.19s-.11,.09-.18,.11c-.06,.02-.12,.03-.17,.02-.11-.02-.2-.14-.19-.26,0-.12,.08-.22,.18-.27,.05-.03,.11-.04,.16-.02,.05,.02,.09,.08,.07,.13l.09,.1Z"/><path class="e" d="M318.11,110.92h-.2c-.02,.1-.03,.21,.03,.3,.06,.09,.22,.1,.25,0,.01-.04,0-.08,0-.12l-.09-.36,.02,.18Z"/><path class="e" d="M317.81,103.65c-.15-.07-.3-.14-.47-.14s-.34,.07-.4,.23c-.03,.08-.03,.16,0,.24,.07,.24,.36,.38,.59,.29,.23-.09,.36-.38,.26-.61h.02Z"/><path class="e" d="M329.75,111.59l-.33,.05c0,.09,0,.17,.03,.25,.16,.04,.34-.08,.37-.24l-.07-.06Z"/><path class="e" d="M321.47,121.67c-.51-.42-1.25-.54-1.87-.32-.1,.65,.03,1.38,.52,1.83,.48,.45,1.35,.49,1.76-.03,.41-.52,0-1.48-.66-1.42l.26-.07Z"/><path class="e" d="M279.23,97.97c.09-.03,.19-.03,.28,0-.1,.22-.37,.29-.61,.33-.13,.02-.3,.03-.37-.09-.05-.08-.02-.18-.04-.27-.03-.18-.23-.37-.12-.52,.06-.09,.19-.1,.29-.05,.09,.05,.16,.13,.22,.22,.14,.18,.28,.37,.41,.55l-.06-.17Z"/><path class="e" d="M303.86,108.65c-.17-.09-.35,.18-.26,.35,.09,.17,.29,.24,.48,.29,.11-.25,.04-.55-.15-.74l-.07,.1Z"/><path class="e" d="M313.01,121.72c.07,.05,.08,.17,.02,.24-.06,.07-.15,.1-.24,.11-.05,0-.11,0-.16-.02-.11-.05-.15-.21-.09-.32,.07-.1,.22-.14,.33-.07s.14,.22,.09,.33l.05-.27Z"/><path class="e" d="M314.83,123.73c.11,.08,.16,.23,.13,.36-.03,.13-.15,.24-.28,.26-.09,.01-.21-.03-.21-.13,0-.04,.02-.07,.04-.11l.27-.43,.07,.06h-.02Z"/><path class="e" d="M348.56,117.03c-.13,.11-.09,.31-.02,.47s.13,.34,.03,.48c-.03,.04-.07,.07-.11,.07-.12,0-.14-.17-.19-.27-.04-.08-.12-.14-.18-.22-.14-.18-.15-.44-.03-.63,.1-.06,.24-.05,.34,.02,.1,.07,.15,.2,.12,.32l.05-.23Z"/><path class="e" d="M312.67,125.95l-.19-.02c-.05,.09-.04,.22,.04,.29,.08,.07,.22,.06,.28-.03s0-.23-.1-.25h-.02Z"/><path class="e" d="M310.23,129.75l-.19-.02c-.05,.09-.04,.22,.04,.29,.08,.07,.22,.06,.28-.03,.06-.09,0-.23-.1-.25h-.02Z"/><path class="e" d="M318.69,120.59c.16,.27-.03,.69-.35,.73-.1-.23-.19-.47-.15-.72,.05-.24,.3-.46,.53-.37,.07,.13,.14,.25,.2,.38l-.24-.03Z"/><path class="e" d="M313.67,128.47c.07,.03,.08,.13,.04,.19-.04,.06-.11,.09-.18,.11-.06,.02-.12,.03-.17,.02-.11-.02-.2-.14-.19-.26,0-.12,.08-.22,.18-.27,.05-.03,.11-.04,.16-.02,.05,.02,.09,.08,.07,.13l.09,.1Z"/><path class="e" d="M323.11,121.73l-.33,.05c0,.09,0,.17,.03,.25,.16,.04,.34-.08,.37-.24l-.07-.06Z"/><path class="e" d="M308.03,122.23l-.33,.05c0,.09,0,.17,.03,.25,.16,.04,.34-.08,.37-.24l-.07-.06Z"/><path class="e" d="M537.2,273.38c.21,.33,.24,.77,.06,1.13-.02,.04-.05,.09-.09,.11-.07,.03-.15,0-.21-.04-.38-.21-.83-.52-.77-.95,.05-.37,.58-.58,.87-.34,0,.12,0,.24,0,.36l.15-.27Z"/><path class="e" d="M320.58,204.23c-.37-1.09-.99-2.1-1.81-2.92-.13-.13-.27-.26-.45-.33-.34-.13-.72,.01-1.01,.23-.7,.54-.96,1.55-.69,2.39,.27,.84,1.01,1.49,1.86,1.73,.47,.13,.99,.15,1.41-.09,.42-.24,.69-.78,.51-1.23-.15-.05-.32,.11-.27,.26l.44-.05Z"/><path class="e" d="M318.49,208.93c-.26-.61-.85-1.07-1.5-1.17-.4,.53-.62,1.23-.41,1.86,.21,.63,.96,1.07,1.57,.81,.61-.26,.7-1.3,.09-1.56l.26,.06Z"/><path class="e" d="M323.59,201.24c-.17-.15-.36-.26-.57-.35-.03-.01-.05-.02-.08-.01-.03,0-.05,.03-.06,.06-.11,.21,.07,.52-.11,.66-.03,.02-.08,.04-.09,.08-.02,.07,.05,.12,.12,.14,.36,.08,.74-.25,.71-.61l.07,.07v-.03Z"/><path class="e" d="M326.36,194.43c-.32-.27-.68-.5-1.07-.67-.05-.02-.1-.04-.15-.03-.05,.01-.09,.06-.12,.11-.2,.39,.14,.99-.22,1.25-.06,.05-.15,.08-.18,.15-.05,.12,.1,.23,.23,.26,.67,.16,1.4-.47,1.35-1.15l.13,.14,.02-.06Z"/><path class="e" d="M312.53,201.21c-.13-.28-.39-.49-.69-.56-.04,.13-.08,.27-.07,.41,.01,.14,.1,.28,.23,.31,.18,.05,.35-.1,.48-.24v.16l.05-.08Z"/><path class="e" d="M314.99,183.66c-.07-.05-.14-.11-.23-.11-.08,0-.16,.05-.23,.09-.19,.12-.39,.23-.6,.32l1.09,.34s.06,.02,.08,.04c.08,.07,.03,.2,.06,.3,.04,.15,.24,.18,.39,.17,1.09-.1-.2-.85-.56-1.14Z"/><path class="e" d="M323.44,182.47c.16,.27-.05,.67-.36,.69-.31,.02-.57-.36-.43-.65,.13-.28,.59-.33,.78-.08l.02,.03Z"/><path class="e" d="M320.18,195.32c.25,.02,.57,.1,.58,.35,.02,.24-.27,.37-.49,.43-.1,.03-.22,.05-.29-.02-.18-.17,.22-.49,.08-.7,.03-.07,.16-.02,.14,.05v-.12Z"/><path class="e" d="M314.77,204.2c.09,.02,.18,.06,.25,.13-.19,.14-.46,.08-.69,0-.13-.04-.27-.12-.28-.25,0-.09,.06-.17,.09-.26,.06-.18-.03-.43,.14-.52,.09-.05,.21,0,.28,.09,.06,.09,.08,.19,.09,.3,.03,.23,.07,.45,.1,.68l.02-.18Z"/><path class="e" d="M314.06,207.77c-.11-.16-.39,0-.4,.19,0,.19,.15,.35,.29,.48,.21-.17,.3-.47,.22-.72l-.11,.05Z"/><path class="e" d="M329.06,220.95c-.07-.06-.14-.13-.23-.16-.09-.03-.2-.02-.26,.06-.1,.12,0,.3-.03,.46-.03,.15-.19,.27-.17,.43,.02,.15,.23,.22,.37,.16,.14-.06,.23-.2,.3-.34,.06-.12,.12-.26,.11-.39-.01-.14-.11-.28-.25-.28l.17,.08Z"/><path class="e" d="M301.73,214.17c.04,.08-.01,.19-.1,.22-.08,.04-.18,.02-.26-.02-.05-.02-.1-.05-.13-.1-.07-.1-.03-.26,.07-.32,.11-.06,.26-.01,.32,.09,.06,.11,.02,.26-.07,.33l.17-.21Z"/><path class="e" d="M311.71,203.97c.14-.13,.06-.42-.13-.44-.07,.07-.13,.16-.15,.26-.01,.1,.04,.21,.13,.25,.09,.03,.22-.05,.2-.15l-.05,.09Z"/><path class="e" d="M312.89,190.92c.14-.13,.06-.42-.13-.44-.07,.07-.13,.16-.15,.26-.01,.1,.04,.21,.13,.25,.09,.03,.22-.05,.2-.15l-.05,.09Z"/><path class="e" d="M314.53,200.67c-.02-.23-.16-.45-.36-.57-.08,.17-.17,.34-.25,.51-.04,.08-.08,.17-.08,.25,.01,.17,.22,.29,.39,.24,.17-.05,.27-.23,.28-.41l.02-.03Z"/><path class="e" d="M350.58,191.72l.96,.38c0,.18-.24,.22-.42,.19-.17-.03-.36-.06-.49-.18-.13-.12-.16-.36-.02-.46l-.03,.06Z"/><path class="e" d="M343.87,192c.07-.24-.24-.47-.48-.39s-.35,.38-.3,.62c.02,.11,.08,.21,.17,.27,.14,.08,.34,.02,.45-.1,.11-.12,.17-.29,.22-.45l-.07,.05Z"/><path class="e" d="M318.74,195.02c.05-.23-.05-.49-.25-.61-.13,.1-.23,.25-.26,.42-.04,.22,.05,.48,.27,.55,.21,.07,.47-.2,.34-.38l-.09,.03Z"/><path class="e" d="M319.47,197.3c.09,.13,.07,.32-.05,.43-.16-.06-.32-.13-.49-.19,0-.24,.27-.45,.5-.37l.03,.14Z"/><path class="e" d="M322.9,201.41l.21,.03c-.09,.14-.17,.28-.31,.37-.13,.09-.33,.11-.45,0s-.09-.35,.06-.39c.16-.04,.33-.04,.48,0v-.02Z"/><path class="e" d="M311.67,207.61c.06,.12,.03,.28-.06,.38-.09,.1-.24,.14-.37,.09-.09-.03-.17-.13-.12-.21,.02-.03,.05-.05,.09-.07l.44-.25,.03,.08v-.02Z"/><path class="e" d="M308.49,207.6c-.06,.16,.07,.32,.2,.43,.13,.11,.27,.24,.25,.41,0,.05-.03,.09-.07,.11-.1,.05-.2-.08-.29-.15-.08-.06-.17-.07-.26-.11-.2-.09-.34-.32-.32-.54,.06-.1,.19-.16,.31-.14,.12,.02,.22,.11,.25,.22l-.07-.22Z"/><path class="e" d="M306.87,208.04l-.18,.08c0,.11,.07,.21,.17,.24,.1,.02,.22-.05,.23-.16,.01-.11-.11-.21-.21-.17l-.02,.02Z"/><path class="e" d="M306.49,212.53l-.18,.08c0,.11,.07,.21,.17,.24,.1,.02,.22-.05,.23-.16,.01-.11-.11-.21-.21-.17l-.02,.02Z"/><path class="e" d="M312.41,202.76c.05,.11,.24,.08,.32-.02,.08-.1,.1-.23,.17-.34,.07-.11,.19-.18,.32-.2,.07,0,.16,0,.2,.07,.03,.04,.04,.09,.04,.14,.02,.25,0,.51-.12,.72-.12,.22-.36,.39-.6,.36-.17-.02-.33-.14-.39-.3-.07-.16-.04-.35,.07-.49v.05Z"/><path class="e" d="M306.9,186.54c.05,.11,.24,.08,.32-.02,.08-.1,.1-.23,.17-.34,.07-.11,.19-.18,.32-.2,.07,0,.16,0,.2,.07,.03,.04,.03,.09,.04,.14,.02,.25,0,.51-.12,.72-.12,.22-.36,.39-.6,.36-.17-.02-.33-.14-.39-.3-.07-.16-.04-.35,.07-.49v.05Z"/><path class="e" d="M311.75,199.47c-.03-.15-.2-.25-.36-.22s-.27,.17-.31,.32c-.02,.07-.01,.15,.05,.18,.04,.02,.09,0,.14-.02l.53-.23-.05-.03Z"/><path class="e" d="M369.94,216.91c.27-.3,.41-.71,.39-1.11,0-.07-.02-.14-.07-.19-.12-.1-.28,.05-.41,.13-.22,.14-.53,.07-.76,.21-.18,.11-.26,.33-.33,.54-.1,.3-.15,.71,.14,.83,.15,.06,.32,0,.46-.07,.3-.15,.58-.36,.82-.6l-.24,.26Z"/><path class="e" d="M322.3,189.35c.22-.1,.13-.44,0-.65-.08-.13-.18-.28-.33-.29-.21-.02-.34,.21-.42,.4l-.21,.5c-.03,.07-.06,.16-.02,.23,.03,.06,.11,.09,.17,.11,.34,.1,.7,.13,1.06,.07l-.25-.36Z"/><path class="e" d="M324.24,197.08c2.07-.7,1.03-3.04-.83-2.88-1.95,.17-.97,3.49,.83,2.88Z"/><path class="e" d="M362.76,180.12c2.07-.7,1.03-3.04-.83-2.88-1.95,.17-.97,3.49,.83,2.88Z"/><path class="e" d="M316.55,206.67c.02,.32-.35,.59-.65,.48,.02-.25,.05-.51,.21-.7,.16-.19,.48-.26,.64-.08,0,.14,0,.29,0,.43l-.2-.14Z"/><path class="e" d="M336.97,158.34c0-.16-.13-.15-.23-.03-.11,.13-.18,.32-.25,.5-.16,.4-.31,.8-.47,1.2-.09,.23-.18,.5-.13,.64,.04,.12,.19,.07,.3-.07,.12-.14,.21-.33,.3-.52,.3-.63,.6-1.42,.47-1.85-.08,.08-.16,.17-.24,.25l.25-.13Z"/><path class="e" d="M308.93,209.79c.07,0,.13,.08,.12,.15,0,.07-.06,.13-.11,.18-.04,.04-.09,.08-.15,.1-.11,.03-.24-.03-.29-.13s-.03-.24,.03-.33c.03-.05,.08-.09,.14-.09,.06,0,.12,.03,.13,.08l.13,.05Z"/><path class="e" d="M309.97,203.68l-.17-.1c-.06,.08-.13,.18-.12,.28,0,.1,.14,.19,.22,.12,.03-.03,.04-.07,.05-.1,.03-.12,.06-.24,.1-.36l-.07,.17Z"/><path class="e" d="M302.01,194.84c-.1-.13-.2-.27-.34-.35-.14-.08-.34-.1-.46,.01-.06,.05-.1,.13-.12,.21-.05,.24,.14,.51,.38,.54,.24,.03,.5-.17,.52-.41h.02Z"/><path class="e" d="M314.42,188.77c.23,.05,.31,.4,.13,.55-.13,0-.26-.01-.38-.06,.01-.14,.08-.28,.19-.38l.07-.12Z"/><path class="e" d="M319.9,209.76l-.32-.11c-.05,.07-.08,.15-.09,.24,.12,.11,.34,.09,.44-.04l-.03-.08Z"/><path class="e" d="M324.46,157.41c1.12,.27,2.31,.28,3.44,.03,.18-.04,.37-.09,.52-.2,.29-.22,.38-.62,.34-.98-.08-.88-.8-1.63-1.65-1.85-.85-.22-1.8,.06-2.46,.65-.36,.32-.66,.76-.68,1.24-.02,.48,.29,1,.77,1.09,.12-.1,.07-.33-.08-.37l-.2,.4Z"/><path class="e" d="M321.6,153.13c.65,.11,1.36-.14,1.79-.65-.23-.62-.71-1.19-1.35-1.34-.64-.15-1.42,.24-1.52,.9s.73,1.28,1.27,.91l-.19,.19Z"/><path class="e" d="M325.38,161.55c.21-.07,.42-.17,.6-.29,.02-.02,.05-.03,.05-.06,0-.03,0-.06-.02-.08-.12-.2-.48-.22-.5-.45,0-.04,0-.09-.02-.12-.04-.06-.13-.02-.18,.03-.26,.26-.19,.76,.14,.93l-.1,.02,.02,.02Z"/><path class="e" d="M329.66,167.53c.4-.13,.79-.31,1.14-.55,.04-.03,.09-.06,.1-.11,.02-.05,0-.11-.03-.16-.22-.38-.91-.41-.94-.85,0-.08,.01-.17-.03-.23-.08-.1-.25-.04-.34,.06-.49,.48-.35,1.43,.26,1.76l-.19,.04,.04,.05Z"/><path class="e" d="M331.32,152.22c.3,.04,.63-.07,.84-.29-.09-.1-.18-.21-.31-.27-.12-.06-.29-.07-.39,.03-.14,.13-.1,.35-.05,.53l-.14-.08,.04,.08Z"/><path class="e" d="M344.84,163.67c.08-.03,.17-.06,.22-.13,.05-.07,.04-.16,.04-.24,0-.23,.01-.46,.05-.68l-.87,.74s-.05,.04-.08,.05c-.1,.03-.19-.08-.29-.11-.15-.04-.28,.1-.35,.24-.5,.97,.82,.28,1.27,.14Z"/><path class="e" d="M341.33,171.45c-.31,0-.54-.4-.39-.68,.15-.27,.61-.28,.78-.02,.17,.26-.04,.67-.35,.7h-.04Z"/><path class="e" d="M332.21,161.83c-.15,.2-.39,.42-.61,.3-.21-.11-.17-.42-.1-.65,.03-.1,.07-.21,.17-.24,.24-.06,.3,.45,.55,.44,.04,.06-.07,.14-.11,.09l.1,.05Z"/><path class="e" d="M327.59,152.51c-.06,.07-.15,.12-.24,.14-.02-.24,.18-.44,.36-.59,.1-.08,.24-.17,.36-.1,.08,.05,.11,.15,.17,.22,.12,.14,.38,.21,.36,.39,0,.11-.12,.18-.22,.19s-.21-.04-.3-.08c-.21-.09-.42-.19-.63-.28l.14,.11Z"/><path class="e" d="M324.96,150.01c.19,0,.21-.33,.05-.43-.16-.11-.37-.06-.56-.02,.03,.27,.24,.5,.49,.57v-.12Z"/><path class="e" d="M326.14,136.16c-.09,0-.15-.11-.14-.2,.01-.09,.08-.16,.16-.21,.04-.03,.09-.05,.15-.06,.12,0,.24,.11,.23,.23s-.13,.23-.25,.22c-.12,0-.23-.12-.24-.24l.09,.26Z"/><path class="e" d="M329.42,150.04c.03,.19,.32,.27,.45,.12-.02-.1-.06-.2-.14-.26-.08-.06-.2-.08-.28-.02-.08,.06-.07,.21,.02,.25l-.05-.09Z"/><path class="e" d="M339.83,158.02c.03,.19,.32,.27,.45,.12-.02-.1-.06-.2-.14-.26-.08-.06-.2-.08-.28-.02-.08,.06-.07,.21,.02,.25l-.05-.09Z"/><path class="e" d="M330.7,154.19c.21,.1,.46,.1,.67,0l-.3-.49c-.05-.08-.1-.16-.17-.2-.15-.08-.37,.03-.41,.2-.05,.17,.05,.36,.19,.45v.04Z"/><path class="e" d="M333.24,160.77c.16,.17,.44,.22,.65,.12-.01-.17-.09-.33-.21-.45-.16-.15-.44-.21-.61-.07-.17,.15-.08,.5,.14,.49l.03-.09Z"/><path class="e" d="M330.91,160.17c-.16,0-.31-.12-.34-.27,.14-.1,.28-.2,.42-.31,.21,.13,.24,.47,.05,.62l-.13-.04Z"/><path class="e" d="M325.61,160.88l-.14,.16c-.07-.15-.14-.3-.15-.46,0-.16,.08-.34,.24-.38,.16-.05,.35,.11,.29,.26-.05,.16-.14,.3-.26,.4l.02,.02Z"/><path class="e" d="M326.37,148.07c-.13-.02-.25-.12-.29-.25s.01-.28,.12-.36c.07-.06,.2-.07,.24,0,.02,.03,.02,.07,.02,.11,0,.17-.02,.34-.03,.51l-.09-.02h.02Z"/><path class="e" d="M328.08,145.39c-.1-.13-.31-.11-.46-.06-.16,.05-.35,.1-.48,0-.03-.03-.06-.07-.06-.12,.01-.12,.18-.12,.29-.16,.09-.03,.15-.11,.23-.16,.19-.12,.45-.12,.63,.01,.05,.11,.04,.25-.04,.34-.08,.09-.21,.13-.33,.1l.22,.06Z"/><path class="e" d="M328.57,143.79l.03-.19c-.09-.06-.22-.06-.29,.02-.08,.07-.07,.22,0,.28s.23,.02,.25-.08v-.02Z"/><path class="e" d="M324.97,141.06l.03-.19c-.09-.06-.22-.06-.29,.02-.07,.07-.07,.22,0,.28,.08,.06,.23,.02,.25-.08v-.02Z"/><path class="e" d="M330.07,151.28c-.12-.01-.19,.16-.15,.28,.04,.12,.14,.21,.19,.32,.05,.12,.05,.26,0,.38-.03,.07-.09,.13-.17,.14-.05,0-.1-.02-.14-.05-.22-.12-.43-.27-.55-.49-.12-.22-.14-.51,.02-.7,.11-.13,.29-.2,.46-.17,.17,.03,.32,.16,.38,.32l-.03-.03Z"/><path class="e" d="M346.73,155.3c-.12-.01-.19,.16-.15,.28,.04,.12,.14,.21,.19,.32,.05,.12,.05,.26,0,.38-.03,.07-.09,.13-.17,.14-.05,0-.1-.02-.14-.05-.22-.12-.43-.27-.55-.49s-.14-.51,.02-.7c.11-.13,.29-.2,.46-.17s.32,.16,.38,.32l-.03-.03Z"/><path class="e" d="M333.2,152.49c.14,.06,.32-.04,.38-.18,.05-.15,0-.32-.1-.43-.05-.05-.12-.09-.18-.06-.04,.03-.05,.08-.06,.12-.03,.19-.06,.38-.09,.57l.05-.02Z"/><path class="e" d="M319.32,174.78c.14,.06,.32-.04,.38-.18s0-.32-.1-.43c-.05-.05-.12-.09-.18-.06-.04,.03-.05,.08-.06,.12-.03,.19-.06,.38-.09,.57l.05-.02Z"/><path class="e" d="M336.12,166.81c-.03,.24,.3,.34,.54,.35,.15,0,.33,0,.43-.12,.13-.16,0-.4-.11-.57l-.31-.44c-.05-.07-.1-.14-.18-.14-.07,0-.13,.04-.19,.09-.27,.24-.48,.53-.63,.85l.44-.02Z"/><path class="e" d="M328.55,164.32c-.51,2.12,2.02,2.49,2.88,.83,.89-1.74-2.43-2.68-2.88-.83Z"/><path class="e" d="M356.02,198.1c-.51,2.12,2.02,2.49,2.88,.83,.89-1.74-2.43-2.68-2.88-.83Z"/><path class="e" d="M324.55,152.7c-.28-.16-.31-.61-.06-.81,.2,.15,.4,.32,.48,.55,.08,.23-.04,.55-.28,.59l-.37-.23,.22-.09Z"/><path class="e" d="M325.98,144.59c-.04,.06-.13,.07-.19,.02-.06-.04-.08-.12-.1-.19-.01-.06-.02-.12,0-.17,.03-.11,.15-.19,.27-.17,.12,.01,.22,.1,.26,.2,.02,.05,.03,.11,0,.16-.02,.05-.09,.09-.14,.06l-.11,.08Z"/><path class="e" d="M330.6,148.73l.18-.09c-.04-.1-.08-.2-.17-.25-.09-.05-.24,.02-.22,.12,0,.04,.03,.07,.06,.1l.25,.27-.1-.15Z"/><path class="e" d="M342.32,146.73c.16-.01,.33-.03,.48-.1,.15-.08,.26-.23,.24-.4-.01-.08-.06-.16-.11-.21-.18-.17-.5-.15-.66,.04-.16,.19-.12,.51,.07,.66v.02Z"/><path class="e" d="M340.82,160.46c-.17,.17-.51,.05-.54-.19,.06-.11,.15-.22,.25-.29,.12,.09,.2,.22,.22,.36l.06,.12Z"/><path class="e" d="M320.15,153.88c.09-.07,.18-.14,.26-.21-.03-.08-.09-.15-.15-.21-.16,.05-.26,.24-.2,.39l.09,.02Z"/><path class="e" d="M304.81,138.12c1.15-.1,2.28-.46,3.27-1.06,.16-.1,.32-.2,.43-.36,.2-.3,.16-.7,.01-1.03-.36-.81-1.27-1.3-2.15-1.24-.88,.06-1.69,.63-2.12,1.39-.24,.42-.38,.93-.25,1.39s.59,.86,1.07,.79c.08-.13-.04-.33-.19-.33l-.06,.44Z"/><path class="e" d="M300.74,134.97c.66-.1,1.24-.57,1.49-1.18-.42-.51-1.05-.9-1.71-.84s-1.27,.68-1.16,1.33c.11,.65,1.1,.99,1.49,.46l-.12,.24Z"/><path class="e" d="M307,141.76c.18-.13,.34-.29,.48-.47,.02-.02,.03-.05,.03-.07,0-.03-.02-.05-.04-.07-.18-.15-.53-.05-.61-.27-.02-.04-.02-.09-.06-.11-.06-.04-.13,.02-.16,.09-.17,.33,.06,.78,.42,.84l-.09,.05,.03,.02Z"/><path class="e" d="M312.95,146.07c.34-.25,.65-.55,.9-.88,.03-.04,.06-.09,.06-.14,0-.06-.04-.1-.08-.14-.33-.29-.99-.1-1.16-.51-.03-.07-.04-.16-.11-.21-.11-.07-.25,.05-.31,.16-.31,.61,.12,1.47,.8,1.58l-.17,.1,.05,.03Z"/><path class="e" d="M309.67,131.03c.3-.06,.57-.26,.71-.54-.12-.07-.24-.14-.38-.16-.14-.02-.29,.03-.36,.15-.09,.16,.01,.37,.12,.52l-.15-.03,.06,.06Z"/><path class="e" d="M326.13,137.6c.07-.05,.14-.11,.17-.19,.02-.08,0-.16-.04-.24-.08-.21-.13-.44-.17-.66-.2,.33-.39,.65-.59,.98-.02,.03-.03,.05-.06,.07-.09,.06-.2-.02-.31-.01-.15,0-.23,.19-.26,.34-.17,1.08,.87,0,1.25-.27Z"/><path class="e" d="M325.26,146.09c-.3,.09-.64-.21-.58-.52,.06-.31,.49-.46,.73-.27s.18,.65-.11,.77h-.04Z"/><path class="e" d="M313.56,139.86c-.08,.24-.24,.52-.48,.48-.23-.04-.3-.35-.3-.58,0-.1,0-.22,.09-.28,.21-.13,.42,.33,.66,.24,.06,.04-.02,.16-.08,.12l.12,.02Z"/><path class="e" d="M306.23,132.49c-.04,.09-.1,.16-.18,.21-.09-.22,.03-.47,.16-.67,.07-.11,.18-.24,.31-.21,.09,.02,.15,.1,.23,.15,.16,.1,.42,.08,.47,.26,.03,.1-.05,.21-.15,.25s-.21,.03-.31,.02c-.23-.02-.46-.04-.69-.06l.17,.06Z"/><path class="e" d="M302.93,130.94c.18-.07,.1-.38-.09-.43-.19-.05-.38,.06-.54,.16,.11,.24,.38,.4,.65,.38l-.02-.12Z"/><path class="e" d="M286.56,142.37c.08-.05,.16-.11,.21-.19s.06-.19,0-.27c-.09-.12-.3-.07-.44-.14-.14-.07-.22-.25-.38-.27-.15-.02-.27,.17-.24,.32s.14,.27,.26,.37c.1,.09,.22,.18,.36,.2s.3-.04,.33-.18l-.11,.15Z"/><path class="e" d="M299.66,117.44c-.09,.02-.18-.06-.19-.15-.02-.09,.02-.18,.08-.25,.03-.04,.07-.08,.12-.1,.11-.05,.26,.03,.29,.15,.03,.12-.05,.26-.17,.29-.12,.03-.26-.04-.3-.15l.17,.21Z"/><path class="e" d="M307.18,129.56c.09,.17,.39,.16,.46-.02-.05-.09-.12-.17-.22-.2-.09-.04-.22-.02-.27,.07s0,.22,.1,.23l-.07-.07Z"/><path class="e" d="M319.58,133.83c.09,.17,.39,.16,.46-.02-.05-.09-.12-.17-.22-.2s-.22-.02-.27,.07c-.05,.08,0,.22,.1,.23l-.07-.07Z"/><path class="e" d="M309.71,133.09c.23,.03,.47-.05,.64-.21l-.43-.37c-.07-.06-.14-.12-.23-.13-.17-.03-.34,.14-.33,.32,0,.17,.16,.32,.33,.37l.03,.03Z"/><path class="e" d="M314.2,138.53c.21,.11,.48,.07,.65-.1-.07-.15-.19-.28-.34-.35-.2-.09-.48-.06-.6,.13-.11,.19,.08,.5,.29,.42v-.1Z"/><path class="e" d="M311.8,138.7c-.15,.05-.33-.01-.41-.15l.3-.43c.24,.05,.37,.37,.24,.57h-.14Z"/><path class="e" d="M307,141.05l-.08,.19c-.11-.12-.23-.24-.28-.39-.05-.15-.03-.35,.11-.44,.13-.09,.36,0,.36,.16,0,.16-.04,.33-.12,.47h.02Z"/><path class="e" d="M303.66,128.66c-.13,.03-.28-.03-.35-.15-.07-.11-.08-.27,0-.38,.05-.08,.16-.13,.23-.07,.03,.03,.04,.07,.05,.1l.14,.49h-.06Z"/><path class="e" d="M304.43,125.57c-.14-.1-.32,0-.46,.09-.14,.1-.3,.21-.46,.15-.04-.02-.08-.05-.09-.09-.03-.11,.13-.17,.22-.25,.07-.06,.11-.15,.17-.22,.14-.18,.39-.26,.6-.19,.08,.08,.11,.22,.07,.33-.04,.11-.16,.19-.28,.19h.23Z"/><path class="e" d="M304.38,123.9l-.03-.19c-.1-.03-.22,.01-.27,.11-.05,.09,0,.23,.1,.26,.1,.03,.22-.05,.21-.16v-.02Z"/><path class="e" d="M300.11,122.46l-.03-.19c-.1-.03-.22,.01-.27,.11-.05,.09,0,.23,.1,.26,.1,.03,.22-.05,.21-.16v-.02Z"/><path class="e" d="M308.19,130.53c-.12,.03-.13,.21-.06,.31s.2,.15,.28,.25c.09,.09,.13,.23,.12,.36,0,.07-.04,.15-.11,.18-.05,.02-.1,.01-.15,0-.24-.04-.49-.12-.68-.29-.18-.17-.29-.44-.2-.67,.06-.16,.21-.28,.38-.31,.17-.03,.35,.05,.46,.18l-.04-.02Z"/><path class="e" d="M325.26,129.06c-.12,.03-.13,.21-.06,.31,.08,.1,.2,.15,.28,.25,.09,.09,.13,.23,.12,.36,0,.07-.04,.15-.11,.18-.05,.02-.1,.01-.15,0-.24-.04-.49-.12-.68-.29-.18-.17-.29-.44-.2-.67,.06-.16,.21-.28,.38-.31,.17-.03,.35,.05,.46,.18l-.04-.02Z"/><path class="e" d="M311.54,130.68c.16,.01,.3-.14,.3-.29,0-.16-.1-.3-.24-.38-.06-.03-.15-.05-.19,0-.03,.04-.02,.09-.01,.14,.03,.19,.06,.38,.1,.57l.04-.04Z"/><path class="e" d="M318.85,143.34c.05,.24,.39,.23,.63,.16,.15-.04,.31-.11,.36-.25,.07-.19-.12-.38-.28-.5-.14-.11-.29-.21-.43-.32-.06-.05-.14-.1-.22-.08-.07,.02-.11,.08-.15,.14-.18,.31-.29,.65-.32,1.01l.41-.16Z"/><path class="e" d="M310.88,143.38c.19,2.18,2.71,1.73,2.99-.12,.3-1.94-3.16-1.77-2.99,.12Z"/><path class="e" d="M303.41,133.63c-.31-.06-.49-.48-.31-.75,.23,.08,.48,.17,.63,.37,.15,.2,.14,.53-.08,.64-.14-.03-.28-.07-.42-.1l.18-.16Z"/><path class="e" d="M345.47,164.99c.16,.05,.18-.09,.08-.22-.1-.13-.27-.25-.43-.36-.35-.25-.7-.49-1.06-.74-.2-.14-.44-.3-.59-.28-.13,.01-.11,.16,0,.31,.1,.15,.27,.29,.43,.42,.54,.44,1.24,.92,1.69,.9-.06-.1-.12-.2-.19-.3l.07,.28Z"/><path class="e" d="M302.19,125.48c-.01,.07-.11,.1-.17,.08-.07-.02-.11-.09-.15-.15-.03-.05-.05-.11-.06-.16,0-.12,.09-.22,.2-.25,.11-.03,.24,.02,.31,.11,.04,.04,.06,.1,.06,.15s-.06,.11-.11,.11l-.08,.11Z"/><path class="e" d="M307.88,127.94l.14-.15c-.07-.08-.14-.17-.24-.18-.1-.02-.22,.09-.17,.18,.02,.03,.06,.05,.09,.07l.33,.18-.15-.11Z"/><path class="e" d="M318.37,122.33c.15-.06,.31-.13,.42-.25s.17-.31,.1-.45c-.04-.07-.1-.13-.18-.16-.22-.1-.52,.01-.62,.24-.09,.23,.04,.52,.28,.6v.02Z"/><path class="e" d="M321.3,135.83c-.1,.21-.47,.21-.57,0,.02-.13,.07-.25,.15-.36,.14,.05,.25,.15,.32,.27l.1,.09Z"/><path class="e" d="M313.3,153.49c.07,.03,.08,.13,.04,.19-.04,.06-.11,.09-.18,.11-.06,.02-.12,.03-.17,.02-.11-.02-.2-.14-.19-.26,0-.12,.08-.22,.18-.27,.05-.03,.11-.04,.16-.02,.05,.02,.09,.08,.07,.13l.09,.1Z"/><path class="e" d="M325.76,161.18c-.09,0-.15-.11-.14-.2,.01-.09,.08-.16,.16-.21,.04-.03,.09-.05,.15-.06,.12,0,.24,.11,.23,.23,0,.12-.13,.23-.25,.22-.12,0-.23-.12-.24-.24l.09,.26Z"/><path class="e" d="M324.6,166.08l.03-.19c-.09-.06-.22-.06-.29,.02-.07,.07-.07,.22,0,.28s.23,.02,.25-.08v-.02Z"/><path class="e" d="M325.75,162.62c.07-.05,.14-.11,.17-.19,.02-.08,0-.16-.04-.24-.08-.21-.13-.44-.17-.66-.2,.33-.39,.65-.59,.98-.02,.03-.03,.05-.06,.07-.09,.06-.2-.02-.31-.01-.15,0-.23,.19-.26,.34-.17,1.08,.87,0,1.25-.27Z"/><path class="e" d="M313.19,164.88c-.08,.24-.24,.52-.48,.48-.23-.04-.3-.35-.3-.58,0-.1,0-.22,.09-.28,.21-.13,.42,.33,.66,.24,.06,.04-.02,.16-.08,.12l.12,.02Z"/><path class="e" d="M319.2,158.85c.09,.17,.39,.16,.46-.02-.05-.09-.12-.17-.22-.2-.09-.04-.22-.02-.27,.07-.05,.08,0,.22,.1,.23l-.07-.07Z"/><path class="e" d="M313.83,163.55c.21,.11,.48,.07,.65-.1-.07-.15-.19-.28-.34-.35-.2-.09-.48-.06-.6,.13-.11,.19,.08,.5,.29,.42v-.1Z"/><path class="e" d="M324.88,154.08c-.12,.03-.13,.21-.06,.31,.08,.1,.2,.15,.28,.25,.09,.09,.13,.23,.12,.36,0,.07-.04,.15-.11,.18-.05,.02-.1,.01-.15,0-.24-.04-.49-.12-.68-.29-.18-.17-.29-.44-.2-.67,.06-.16,.21-.28,.38-.31s.35,.05,.46,.18l-.04-.02Z"/><path class="e" d="M318.48,168.36c.05,.24,.39,.23,.63,.16,.15-.04,.31-.11,.36-.25,.07-.19-.12-.38-.28-.5-.14-.11-.29-.21-.43-.32-.06-.05-.14-.1-.22-.08-.07,.02-.11,.08-.15,.14-.18,.31-.29,.65-.32,1.01l.41-.16Z"/><path class="e" d="M310.51,168.4c.19,2.18,2.71,1.73,2.99-.12,.3-1.94-3.16-1.77-2.99,.12Z"/><path class="e" d="M320.92,160.85c-.1,.21-.47,.21-.57,0,.02-.13,.07-.25,.15-.36,.14,.05,.25,.15,.32,.27l.1,.09Z"/><path class="e" d="M376.64,183.01c.07,.03,.08,.13,.04,.19-.04,.06-.11,.09-.18,.11-.06,.02-.12,.03-.17,.02-.11-.02-.2-.14-.19-.26s.08-.22,.18-.27c.05-.03,.11-.04,.16-.02,.05,.02,.09,.08,.07,.13l.09,.1Z"/><path class="e" d="M389.11,190.7c-.09,0-.15-.11-.14-.2,.01-.09,.08-.16,.16-.21,.04-.03,.09-.05,.15-.06,.12,0,.24,.11,.23,.23,0,.12-.13,.23-.25,.22-.12,0-.23-.12-.24-.24l.09,.26Z"/><path class="e" d="M387.94,195.6l.03-.19c-.09-.06-.22-.06-.29,.02-.08,.07-.07,.22,0,.28,.08,.06,.23,.02,.25-.08v-.02Z"/><path class="e" d="M389.1,192.14c.07-.05,.14-.11,.17-.19,.02-.08,0-.16-.04-.24-.08-.21-.13-.44-.17-.66-.2,.33-.39,.65-.59,.98-.02,.03-.03,.05-.06,.07-.09,.06-.2-.02-.31-.01-.15,0-.23,.19-.26,.34-.17,1.08,.87,0,1.25-.27Z"/><path class="e" d="M376.53,194.4c-.08,.24-.24,.52-.48,.48-.23-.04-.3-.35-.3-.58,0-.1,0-.22,.09-.28,.21-.13,.42,.33,.66,.24,.06,.04-.02,.16-.08,.12l.12,.02Z"/><path class="e" d="M382.55,188.37c.09,.17,.39,.16,.46-.02-.05-.09-.12-.17-.22-.2-.09-.04-.22-.02-.27,.07-.06,.08,0,.22,.1,.23l-.07-.07Z"/><path class="e" d="M377.17,193.07c.21,.11,.48,.07,.65-.1-.07-.15-.19-.28-.34-.35-.2-.09-.48-.06-.6,.13s.08,.5,.29,.42v-.1Z"/><path class="e" d="M388.23,183.6c-.12,.03-.13,.21-.06,.31s.2,.15,.28,.25c.09,.09,.13,.23,.12,.36,0,.07-.04,.15-.11,.18-.05,.02-.1,.01-.15,0-.24-.04-.49-.12-.68-.29-.18-.17-.29-.44-.2-.67,.06-.16,.21-.28,.38-.31,.17-.03,.35,.05,.46,.19l-.04-.02Z"/><path class="e" d="M381.82,197.88c.05,.24,.39,.23,.63,.16,.15-.04,.31-.11,.36-.25,.07-.19-.12-.38-.28-.5-.14-.11-.29-.21-.43-.32-.06-.05-.14-.1-.22-.08-.07,.02-.11,.08-.15,.14-.18,.31-.29,.65-.32,1.01l.41-.16Z"/><path class="e" d="M373.86,197.92c.19,2.18,2.71,1.72,2.99-.12,.3-1.94-3.16-1.77-2.99,.12Z"/><path class="e" d="M384.27,190.37c-.1,.21-.47,.21-.57,0,.02-.13,.07-.25,.15-.36,.14,.05,.25,.14,.32,.27l.1,.09Z"/><path class="e" d="M299.6,136.14c.06-.09,.12-.19,.19-.28-.06-.06-.13-.11-.21-.15-.14,.09-.17,.31-.07,.44h.09Z"/><path class="e" d="M361.98,179.18c.39,.04,.75,.3,.91,.66,.02,.04,.04,.09,.03,.14-.02,.07-.09,.11-.16,.14-.4,.17-.93,.32-1.22,0-.26-.28-.08-.81,.28-.89l.28,.23-.12-.28Z"/></g><g><circle class="d" cx="367.6" cy="136.27" r=".46"/><path class="d" d="M274.32,96.68c0,.25-.21,.46-.46,.46s-.46-.21-.46-.46,.21-.46,.46-.46,.46,.21,.46,.46Z"/><path class="d" d="M221.95,107.2c0,.25-.21,.46-.46,.46s-.46-.21-.46-.46,.21-.46,.46-.46,.46,.21,.46,.46Z"/><path class="d" d="M452.7,216.41c0,.25-.21,.46-.46,.46s-.46-.21-.46-.46,.21-.46,.46-.46,.46,.21,.46,.46Z"/><path class="d" d="M556.42,242.71c0,.25-.21,.46-.46,.46s-.46-.21-.46-.46,.21-.46,.46-.46,.46,.21,.46,.46Z"/><circle class="d" cx="409.83" cy="243.17" r=".46"/><path class="d" d="M609.32,199.54c0,.25-.21,.46-.46,.46s-.46-.21-.46-.46,.21-.46,.46-.46,.46,.21,.46,.46Z"/><circle class="d" cx="597.47" cy="264.61" r=".46"/><path class="d" d="M575.53,184.63c0,.25-.21,.46-.46,.46s-.46-.21-.46-.46,.21-.46,.46-.46,.46,.21,.46,.46Z"/><path class="d" d="M245.47,316.33c0,.25-.21,.46-.46,.46s-.46-.21-.46-.46,.21-.46,.46-.46,.46,.21,.46,.46Z"/><path class="d" d="M291.14,275.06c0,.25-.21,.46-.46,.46s-.46-.21-.46-.46,.21-.46,.46-.46,.46,.21,.46,.46Z"/><circle class="d" cx="286.51" cy="338.22" r=".46"/><path class="d" d="M264.57,258.24c0,.25-.21,.46-.46,.46s-.46-.21-.46-.46,.21-.46,.46-.46,.46,.21,.46,.46Z"/><path class="d" d="M260.43,187.69c0,.25-.21,.46-.46,.46s-.46-.21-.46-.46,.21-.46,.46-.46,.46,.21,.46,.46Z"/><circle class="d" cx="494.47" cy="217.3" r=".46"/><circle class="d" cx="539.71" cy="241.63" r=".46"/><circle class="d" cx="666.03" cy="207.36" r=".46"/><circle class="d" cx="707.53" cy="229.25" r=".46"/><path class="d" d="M650.23,206.27c0,.25-.21,.46-.46,.46s-.46-.21-.46-.46,.21-.46,.46-.46,.46,.21,.46,.46Z"/><path class="d" d="M509.52,100.39c0,.41-.34,.75-.75,.75s-.75-.34-.75-.75,.34-.75,.75-.75,.75,.34,.75,.75Z"/><path class="d" d="M422.69,82.17c0,.41-.34,.75-.75,.75s-.75-.34-.75-.75,.34-.75,.75-.75,.75,.34,.75,.75Z"/><path class="d" d="M467.14,147.05c0,.41-.34,.75-.75,.75s-.75-.34-.75-.75,.34-.75,.75-.75,.75,.34,.75,.75Z"/><path class="d" d="M278.68,220.27c0,.25-.21,.46-.46,.46s-.46-.21-.46-.46,.21-.46,.46-.46,.46,.21,.46,.46Z"/><path class="d" d="M331.58,177.1c0,.25-.21,.46-.46,.46s-.46-.21-.46-.46,.21-.46,.46-.46,.46,.21,.46,.46Z"/><path class="d" d="M320.18,242.17c0,.25-.21,.46-.46,.46s-.46-.21-.46-.46,.21-.46,.46-.46,.46,.21,.46,.46Z"/><path class="d" d="M297.78,162.19c0,.25-.21,.46-.46,.46s-.46-.21-.46-.46,.21-.46,.46-.46,.46,.21,.46,.46Z"/><path class="d" d="M217.19,194.87c0,.25-.21,.46-.46,.46s-.46-.21-.46-.46,.21-.46,.46-.46,.46,.21,.46,.46Z"/><path class="d" d="M262.42,219.19c0,.25-.21,.46-.46,.46s-.46-.21-.46-.46,.21-.46,.46-.46,.46,.21,.46,.46Z"/><circle class="d" cx="231.03" cy="77.95" r=".75"/><path class="d" d="M189.4,124.61c0,.41-.34,.75-.75,.75s-.75-.34-.75-.75,.34-.75,.75-.75,.75,.34,.75,.75Z"/><circle class="d" cx="650.6" cy="170.77" r=".75"/><circle class="d" cx="358.43" cy="152.4" r=".75"/><circle class="d" cx="309.52" cy="122.86" r=".46"/><path class="d" d="M216.24,83.27c0,.25-.21,.46-.46,.46s-.46-.21-.46-.46,.21-.46,.46-.46,.46,.21,.46,.46Z"/><path class="d" d="M163.87,93.79c0,.25-.21,.46-.46,.46s-.46-.21-.46-.46,.21-.46,.46-.46,.46,.21,.46,.46Z"/><path class="d" d="M352.2,229.76c0,.25-.21,.46-.46,.46s-.46-.21-.46-.46,.21-.46,.46-.46,.46,.21,.46,.46Z"/><circle class="d" cx="232.6" cy="261.65" r=".46"/><path class="d" d="M206.49,244.83c0,.25-.21,.46-.46,.46s-.46-.21-.46-.46,.21-.46,.46-.46,.46,.21,.46,.46Z"/><path class="d" d="M202.35,174.28c0,.25-.21,.46-.46,.46s-.46-.21-.46-.46,.21-.46,.46-.46,.46,.21,.46,.46Z"/><path class="d" d="M364.61,68.76c0,.41-.34,.75-.75,.75s-.75-.34-.75-.75,.34-.75,.75-.75,.75,.34,.75,.75Z"/><path class="d" d="M301.1,138.99c0,.41-.34,.75-.75,.75s-.75-.34-.75-.75,.34-.75,.75-.75,.75,.34,.75,.75Z"/><path class="d" d="M679.57,137.77c0,.25-.21,.46-.46,.46s-.46-.21-.46-.46,.21-.46,.46-.46,.46,.21,.46,.46Z"/><circle class="d" cx="820.28" cy="101.89" r=".75"/><path class="d" d="M734.2,83.67c0,.41-.34,.75-.75,.75s-.75-.34-.75-.75,.34-.75,.75-.75,.75,.34,.75,.75Z"/><path class="d" d="M778.65,148.54c0,.41-.34,.75-.75,.75s-.75-.34-.75-.75,.34-.75,.75-.75,.75,.34,.75,.75Z"/><circle class="d" cx="669.94" cy="153.9" r=".75"/><path class="d" d="M737.96,334.87c0,.25-.21,.46-.46,.46s-.46-.21-.46-.46,.21-.46,.46-.46,.46,.21,.46,.46Z"/><path class="d" d="M779.47,356.77c0,.25-.21,.46-.46,.46s-.46-.21-.46-.46,.21-.46,.46-.46,.46,.21,.46,.46Z"/><path class="d" d="M721.7,333.79c0,.25-.21,.46-.46,.46s-.46-.21-.46-.46,.21-.46,.46-.46,.46,.21,.46,.46Z"/><path class="d" d="M722.83,298.29c0,.41-.34,.75-.75,.75s-.75-.34-.75-.75,.34-.75,.75-.75,.75,.34,.75,.75Z"/><circle class="d" cx="750.58" cy="265.29" r=".46"/><path class="d" d="M805.68,211.19c0,.41-.34,.75-.75,.75s-.75-.34-.75-.75,.34-.75,.75-.75,.75,.34,.75,.75Z"/><circle class="d" cx="849.38" cy="276.06" r=".75"/><path class="d" d="M742.17,281.41c0,.41-.34,.75-.75,.75s-.75-.34-.75-.75,.34-.75,.75-.75,.75,.34,.75,.75Z"/><circle class="d" cx="352.21" cy="313.72" r=".46"/><path class="d" d="M456.39,340.02c0,.25-.21,.46-.46,.46s-.46-.21-.46-.46,.21-.46,.46-.46,.46,.21,.46,.46Z"/><path class="d" d="M310.25,340.48c0,.25-.21,.46-.46,.46s-.46-.21-.46-.46,.21-.46,.46-.46,.46,.21,.46,.46Z"/><path class="d" d="M509.28,296.85c0,.25-.21,.46-.46,.46s-.46-.21-.46-.46,.21-.46,.46-.46,.46,.21,.46,.46Z"/><circle class="d" cx="497.43" cy="361.92" r=".46"/><path class="d" d="M475.49,281.94c0,.25-.21,.46-.46,.46s-.46-.21-.46-.46,.21-.46,.46-.46,.46,.21,.46,.46Z"/><circle class="d" cx="394.44" cy="314.62" r=".46"/><path class="d" d="M440.13,338.94c0,.25-.21,.46-.46,.46s-.46-.21-.46-.46,.21-.46,.46-.46,.46,.21,.46,.46Z"/><path class="d" d="M566.45,304.67c0,.25-.21,.46-.46,.46s-.46-.21-.46-.46,.21-.46,.46-.46,.46,.21,.46,.46Z"/><path class="d" d="M550.19,303.58c0,.25-.21,.46-.46,.46s-.46-.21-.46-.46,.21-.46,.46-.46,.46,.21,.46,.46Z"/><circle class="d" cx="408.73" cy="197.7" r=".75"/><path class="d" d="M367.1,244.36c0,.41-.34,.75-.75,.75s-.75-.34-.75-.75,.34-.75,.75-.75,.75,.34,.75,.75Z"/><path class="d" d="M551.32,268.09c0,.41-.34,.75-.75,.75s-.75-.34-.75-.75,.34-.75,.75-.75,.75,.34,.75,.75Z"/><path class="d" d="M579.53,235.08c0,.25-.21,.46-.46,.46s-.46-.21-.46-.46,.21-.46,.46-.46,.46,.21,.46,.46Z"/><path class="d" d="M570.66,251.21c0,.41-.34,.75-.75,.75s-.75-.34-.75-.75,.34-.75,.75-.75,.75,.34,.75,.75Z"/><path class="d" d="M404.08,116.62c0,.25-.21,.46-.46,.46s-.46-.21-.46-.46,.21-.46,.46-.46,.46,.21,.46,.46Z"/><circle class="d" cx="392.23" cy="181.69" r=".46"/><path class="d" d="M370.29,101.71c0,.25-.21,.46-.46,.46s-.46-.21-.46-.46,.21-.46,.46-.46,.46,.21,.46,.46Z"/><path class="d" d="M461.26,124.43c0,.25-.21,.46-.46,.46s-.46-.21-.46-.46,.21-.46,.46-.46,.46,.21,.46,.46Z"/><path class="d" d="M502.76,146.33c0,.25-.21,.46-.46,.46s-.46-.21-.46-.46,.21-.46,.46-.46,.46,.21,.46,.46Z"/><path class="d" d="M445,123.35c0,.25-.21,.46-.46,.46s-.46-.21-.46-.46,.21-.46,.46-.46,.46,.21,.46,.46Z"/><path class="d" d="M446.12,87.85c0,.41-.34,.75-.75,.75s-.75-.34-.75-.75,.34-.75,.75-.75,.75,.34,.75,.75Z"/><circle class="d" cx="473.88" cy="54.85" r=".46"/><circle class="d" cx="528.22" cy=".75" r=".75"/><circle class="d" cx="572.67" cy="65.62" r=".75"/><path class="d" d="M465.46,70.97c0,.41-.34,.75-.75,.75s-.75-.34-.75-.75,.34-.75,.75-.75,.75,.34,.75,.75Z"/><path class="d" d="M374.3,152.16c0,.25-.21,.46-.46,.46s-.46-.21-.46-.46,.21-.46,.46-.46,.46,.21,.46,.46Z"/><path class="d" d="M365.42,168.29c0,.41-.34,.75-.75,.75s-.75-.34-.75-.75,.34-.75,.75-.75,.75,.34,.75,.75Z"/><path class="d" d="M258.22,149.16c0,.25-.21,.46-.46,.46s-.46-.21-.46-.46,.21-.46,.46-.46,.46,.21,.46,.46Z"/><path class="d" d="M164.49,109.57c0,.25-.21,.46-.46,.46s-.46-.21-.46-.46,.21-.46,.46-.46,.46,.21,.46,.46Z"/><circle class="d" cx="111.65" cy="120.09" r=".46"/><circle class="d" cx="150.13" cy="200.58" r=".46"/><circle class="d" cx="221.28" cy="189.99" r=".46"/><path class="d" d="M187.94,175.08c0,.25-.21,.46-.46,.46s-.46-.21-.46-.46,.21-.46,.46-.46,.46,.21,.46,.46Z"/><path class="d" d="M107.35,207.76c0,.25-.21,.46-.46,.46s-.46-.21-.46-.46,.21-.46,.46-.46,.46,.21,.46,.46Z"/><circle class="d" cx="121.19" cy="90.84" r=".75"/><path class="d" d="M249.34,165.29c0,.41-.34,.75-.75,.75s-.75-.34-.75-.75,.34-.75,.75-.75,.75,.34,.75,.75Z"/><path class="d" d="M200.14,135.75c0,.25-.21,.46-.46,.46s-.46-.21-.46-.46,.21-.46,.46-.46,.46,.21,.46,.46Z"/><circle class="d" cx="254.02" cy="81.65" r=".75"/><path class="d" d="M191.26,151.88c0,.41-.34,.75-.75,.75s-.75-.34-.75-.75,.34-.75,.75-.75,.75,.34,.75,.75Z"/><circle class="d" cx="298.9" cy="210.59" r=".75"/><circle class="d" cx="293.79" cy="129.51" r=".46"/><path class="d" d="M282.85,194.58c0,.25-.21,.46-.46,.46s-.46-.21-.46-.46,.21-.46,.46-.46,.46,.21,.46,.46Z"/><path class="d" d="M260.45,114.6c0,.25-.21,.46-.46,.46s-.46-.21-.46-.46,.21-.46,.46-.46,.46,.21,.46,.46Z"/><circle class="d" cx="264" cy="165.05" r=".46"/><circle class="d" cx="254.83" cy="181.18" r=".75"/><circle class="d" cx="778.43" cy="71.84" r=".46"/><path class="d" d="M726.52,82.35c0,.25-.21,.46-.46,.46s-.46-.21-.46-.46,.21-.46,.46-.46,.46,.21,.46,.46Z"/><circle class="d" cx="764.54" cy="162.84" r=".46"/><path class="d" d="M836.14,152.26c0,.25-.21,.46-.46,.46s-.46-.21-.46-.46,.21-.46,.46-.46,.46,.21,.46,.46Z"/><circle class="d" cx="801.89" cy="137.35" r=".46"/><path class="d" d="M721.75,170.02c0,.25-.21,.46-.46,.46s-.46-.21-.46-.46,.21-.46,.46-.46,.46,.21,.46,.46Z"/><circle class="d" cx="735.6" cy="53.1" r=".75"/><circle class="d" cx="814.09" cy="98.02" r=".46"/><path class="d" d="M720.81,58.43c0,.25-.21,.46-.46,.46s-.46-.21-.46-.46,.21-.46,.46-.46,.46,.21,.46,.46Z"/><circle class="d" cx="804.92" cy="114.14" r=".75"/><path class="d" d="M762.79,124.32c0,.25-.21,.46-.46,.46s-.46-.21-.46-.46,.21-.46,.46-.46,.46,.21,.46,.46Z"/><path class="d" d="M726.3,165.15c0,.25-.21,.46-.46,.46s-.46-.21-.46-.46,.21-.46,.46-.46,.46,.21,.46,.46Z"/><path class="d" d="M753.91,140.45c0,.41-.34,.75-.75,.75s-.75-.34-.75-.75,.34-.75,.75-.75,.75,.34,.75,.75Z"/><circle class="d" cx="758.59" cy="56.81" r=".75"/><path class="d" d="M798.81,104.67c0,.25-.21,.46-.46,.46s-.46-.21-.46-.46,.21-.46,.46-.46,.46,.21,.46,.46Z"/><path class="d" d="M787.42,169.74c0,.25-.21,.46-.46,.46s-.46-.21-.46-.46,.21-.46,.46-.46,.46,.21,.46,.46Z"/><path class="d" d="M765.02,89.76c0,.25-.21,.46-.46,.46s-.46-.21-.46-.46,.21-.46,.46-.46,.46,.21,.46,.46Z"/><path class="d" d="M769.03,140.21c0,.25-.21,.46-.46,.46s-.46-.21-.46-.46,.21-.46,.46-.46,.46,.21,.46,.46Z"/><circle class="d" cx="759.4" cy="156.33" r=".75"/><circle class="d" cx="428.12" cy="174.75" r=".46"/><circle class="d" cx="503.66" cy="160.9" r=".75"/><path class="d" d="M532.63,127.89c0,.25-.21,.46-.46,.46s-.46-.21-.46-.46,.21-.46,.46-.46,.46,.21,.46,.46Z"/><path class="d" d="M587.26,73.79c0,.41-.34,.75-.75,.75s-.75-.34-.75-.75,.34-.75,.75-.75,.75,.34,.75,.75Z"/><path class="d" d="M523.75,144.02c0,.41-.34,.75-.75,.75s-.75-.34-.75-.75,.34-.75,.75-.75,.75,.34,.75,.75Z"/><circle class="d" cx="425.73" cy="55.74" r=".75"/><circle class="d" cx="579.12" cy="72.48" r=".46"/><circle class="d" cx="617.59" cy="152.97" r=".46"/><path class="d" d="M574.81,160.15c0,.25-.21,.46-.46,.46s-.46-.21-.46-.46,.21-.46,.46-.46,.46,.21,.46,.46Z"/><circle class="d" cx="588.65" cy="43.23" r=".75"/><path class="d" d="M573.87,48.55c0,.25-.21,.46-.46,.46s-.46-.21-.46-.46,.21-.46,.46-.46,.46,.21,.46,.46Z"/><path class="d" d="M615.84,114.44c0,.25-.21,.46-.46,.46s-.46-.21-.46-.46,.21-.46,.46-.46,.46,.21,.46,.46Z"/><path class="d" d="M579.36,155.27c0,.25-.21,.46-.46,.46s-.46-.21-.46-.46,.21-.46,.46-.46,.46,.21,.46,.46Z"/><path class="d" d="M606.97,130.57c0,.41-.34,.75-.75,.75s-.75-.34-.75-.75,.34-.75,.75-.75,.75,.34,.75,.75Z"/><circle class="d" cx="611.65" cy="46.93" r=".75"/><path class="d" d="M618.08,79.88c0,.25-.21,.46-.46,.46s-.46-.21-.46-.46,.21-.46,.46-.46,.46,.21,.46,.46Z"/><circle class="d" cx="612.46" cy="146.46" r=".75"/><circle class="d" cx="659.79" cy="74.95" r=".46"/><path class="d" d="M777.66,229.52c0,.25,.21,.46,.46,.46s.46-.21,.46-.46-.21-.46-.46-.46-.46,.21-.46,.46Z"/><circle class="d" cx="830.49" cy="240.04" r=".46"/><path class="d" d="M574.68,155.08c0,.25,.21,.46,.46,.46s.46-.21,.46-.46-.21-.46-.46-.46-.46,.21-.46,.46Z"/><path class="d" d="M470.96,181.39c0,.25,.21,.46,.46,.46s.46-.21,.46-.46-.21-.46-.46-.46-.46,.21-.46,.46Z"/><path class="d" d="M617.1,181.85c0,.25,.21,.46,.46,.46s.46-.21,.46-.46-.21-.46-.46-.46-.46,.21-.46,.46Z"/><path class="d" d="M418.07,138.22c0,.25,.21,.46,.46,.46s.46-.21,.46-.46-.21-.46-.46-.46-.46,.21-.46,.46Z"/><path class="d" d="M429.46,203.29c0,.25,.21,.46,.46,.46s.46-.21,.46-.46-.21-.46-.46-.46-.46,.21-.46,.46Z"/><path class="d" d="M451.86,123.31c0,.25,.21,.46,.46,.46s.46-.21,.46-.46-.21-.46-.46-.46-.46,.21-.46,.46Z"/><path class="d" d="M781.92,255c0,.25,.21,.46,.46,.46s.46-.21,.46-.46-.21-.46-.46-.46-.46,.21-.46,.46Z"/><path class="d" d="M736.24,213.74c0,.25,.21,.46,.46,.46s.46-.21,.46-.46-.21-.46-.46-.46-.46,.21-.46,.46Z"/><path class="d" d="M740.42,276.9c0,.25,.21,.46,.46,.46s.46-.21,.46-.46-.21-.46-.46-.46-.46,.21-.46,.46Z"/><path class="d" d="M762.82,196.92c0,.25,.21,.46,.46,.46s.46-.21,.46-.46-.21-.46-.46-.46-.46,.21-.46,.46Z"/><path class="d" d="M766.96,126.36c0,.25,.21,.46,.46,.46s.46-.21,.46-.46-.21-.46-.46-.46-.46,.21-.46,.46Z"/><path class="d" d="M532.46,155.98c0,.25,.21,.46,.46,.46s.46-.21,.46-.46-.21-.46-.46-.46-.46,.21-.46,.46Z"/><circle class="d" cx="487.68" cy="180.3" r=".46"/><path class="d" d="M360.9,146.03c0,.25,.21,.46,.46,.46s.46-.21,.46-.46-.21-.46-.46-.46-.46,.21-.46,.46Z"/><circle class="d" cx="319.85" cy="167.93" r=".46"/><circle class="d" cx="377.61" cy="144.95" r=".46"/><circle class="d" cx="543.21" cy="233.23" r=".75"/><path class="d" d="M629.29,215.01c0,.41,.34,.75,.75,.75s.75-.34,.75-.75-.34-.75-.75-.75-.75,.34-.75,.75Z"/><path class="d" d="M560.25,85.72c0,.41,.34,.75,.75,.75s.75-.34,.75-.75-.34-.75-.75-.75-.75,.34-.75,.75Z"/><circle class="d" cx="376.78" cy="109.45" r=".75"/><circle class="d" cx="668.95" cy="91.07" r=".75"/><path class="d" d="M614.67,257.09c0,.25,.21,.46,.46,.46s.46-.21,.46-.46-.21-.46-.46-.46-.46,.21-.46,.46Z"/><circle class="d" cx="511.41" cy="283.4" r=".46"/><path class="d" d="M657.09,283.86c0,.25,.21,.46,.46,.46s.46-.21,.46-.46-.21-.46-.46-.46-.46,.21-.46,.46Z"/><path class="d" d="M458.06,240.23c0,.25,.21,.46,.46,.46s.46-.21,.46-.46-.21-.46-.46-.46-.46,.21-.46,.46Z"/><path class="d" d="M469.45,305.3c0,.25,.21,.46,.46,.46s.46-.21,.46-.46-.21-.46-.46-.46-.46,.21-.46,.46Z"/><circle class="d" cx="492.31" cy="225.32" r=".46"/><path class="d" d="M572.44,257.99c0,.25,.21,.46,.46,.46s.46-.21,.46-.46-.21-.46-.46-.46-.46,.21-.46,.46Z"/><path class="d" d="M527.21,282.31c0,.25,.21,.46,.46,.46s.46-.21,.46-.46-.21-.46-.46-.46-.46,.21-.46,.46Z"/><path class="d" d="M680.67,92.42c0,.25,.21,.46,.46,.46s.46-.21,.46-.46-.21-.46-.46-.46-.46,.21-.46,.46Z"/><circle class="d" cx="723.55" cy="119.18" r=".46"/><circle class="d" cx="638.9" cy="93.31" r=".46"/><circle class="d" cx="649.19" cy="170.56" r=".75"/><path class="d" d="M735.27,152.34c0,.41,.34,.75,.75,.75s.75-.34,.75-.75-.34-.75-.75-.75-.75,.34-.75,.75Z"/><path class="d" d="M720.65,194.43c0,.25,.21,.46,.46,.46s.46-.21,.46-.46-.21-.46-.46-.46-.46,.21-.46,.46Z"/><circle class="d" cx="617.39" cy="220.73" r=".46"/><circle class="d" cx="763.53" cy="221.19" r=".46"/><circle class="d" cx="678.89" cy="195.32" r=".46"/><path class="d" d="M633.19,219.65c0,.25,.21,.46,.46,.46s.46-.21,.46-.46-.21-.46-.46-.46-.46,.21-.46,.46Z"/><path class="d" d="M425.14,203.24c0,.25,.21,.46,.46,.46s.46-.21,.46-.46-.21-.46-.46-.46-.46,.21-.46,.46Z"/><circle class="d" cx="468.02" cy="230" r=".46"/><path class="d" d="M382.91,204.14c0,.25,.21,.46,.46,.46s.46-.21,.46-.46-.21-.46-.46-.46-.46,.21-.46,.46Z"/><path class="d" d="M392.92,281.38c0,.41,.34,.75,.75,.75s.75-.34,.75-.75-.34-.75-.75-.75-.75,.34-.75,.75Z"/><path class="d" d="M479.75,263.17c0,.41,.34,.75,.75,.75s.75-.34,.75-.75-.34-.75-.75-.75-.75,.34-.75,.75Z"/><path class="d" d="M465.13,305.25c0,.25,.21,.46,.46,.46s.46-.21,.46-.46-.21-.46-.46-.46-.46,.21-.46,.46Z"/><circle class="d" cx="423.36" cy="306.15" r=".46"/><path class="d" d="M467.39,268.89c0,.25,.21,.46,.46,.46s.46-.21,.46-.46-.21-.46-.46-.46-.46,.21-.46,.46Z"/><circle class="d" cx="484.11" cy="267.8" r=".46"/><circle class="d" cx="401.34" cy="248.04" r=".46"/><path class="d" d="M417.14,246.96c0,.25,.21,.46,.46,.46s.46-.21,.46-.46-.21-.46-.46-.46-.46,.21-.46,.46Z"/><path class="d" d="M582.45,335.24c0,.41,.34,.75,.75,.75s.75-.34,.75-.75-.34-.75-.75-.75-.75,.34-.75,.75Z"/><path class="d" d="M669.28,317.02c0,.41,.34,.75,.75,.75s.75-.34,.75-.75-.34-.75-.75-.75-.75,.34-.75,.75Z"/><path class="d" d="M416.02,211.46c0,.41,.34,.75,.75,.75s.75-.34,.75-.75-.34-.75-.75-.75-.75,.34-.75,.75Z"/><circle class="d" cx="708.94" cy="193.08" r=".75"/><path class="d" d="M669.16,316.1c0,.25,.21,.46,.46,.46s.46-.21,.46-.46-.21-.46-.46-.46-.46,.21-.46,.46Z"/><path class="d" d="M627.75,300.32c0,.25,.21,.46,.46,.46s.46-.21,.46-.46-.21-.46-.46-.46-.46,.21-.46,.46Z"/><circle class="d" cx="654.78" cy="283.5" r=".46"/><path class="d" d="M658.46,212.94c0,.25,.21,.46,.46,.46s.46-.21,.46-.46-.21-.46-.46-.46-.46,.21-.46,.46Z"/><path class="d" d="M520.79,301.59c0,.41,.34,.75,.75,.75s.75-.34,.75-.75-.34-.75-.75-.75-.75,.34-.75,.75Z"/><path class="d" d="M614.59,205.76c0,.25,.21,.46,.46,.46s.46-.21,.46-.46-.21-.46-.46-.46-.46,.21-.46,.46Z"/><path class="d" d="M539.95,257.14c0,.41,.34,.75,.75,.75s.75-.34,.75-.75-.34-.75-.75-.75-.75,.34-.75,.75Z"/><circle class="d" cx="627.53" cy="238.93" r=".75"/><circle class="d" cx="612.62" cy="281.01" r=".46"/><path class="d" d="M654.58,307.77c0,.25,.21,.46,.46,.46s.46-.21,.46-.46-.21-.46-.46-.46-.46,.21-.46,.46Z"/><path class="d" d="M569.93,281.9c0,.25,.21,.46,.46,.46s.46-.21,.46-.46-.21-.46-.46-.46-.46,.21-.46,.46Z"/><circle class="d" cx="525.16" cy="306.23" r=".46"/><path class="d" d="M599.7,279.66c0,.41,.34,.75,.75,.75s.75-.34,.75-.75-.34-.75-.75-.75-.75,.34-.75,.75Z"/><path class="d" d="M465.75,70.15c0,.25,.21,.46,.46,.46s.46-.21,.46-.46-.21-.46-.46-.46-.46,.21-.46,.46Z"/><path class="d" d="M584.89,102.04c0,.25,.21,.46,.46,.46s.46-.21,.46-.46-.21-.46-.46-.46-.46,.21-.46,.46Z"/><path class="d" d="M391.11,121.53c0,.41,.34,.75,.75,.75s.75-.34,.75-.75-.34-.75-.75-.75-.75,.34-.75,.75Z"/><path class="d" d="M477.94,103.32c0,.41,.34,.75,.75,.75s.75-.34,.75-.75-.34-.75-.75-.75-.75,.34-.75,.75Z"/><path class="d" d="M463.32,145.4c0,.25,.21,.46,.46,.46s.46-.21,.46-.46-.21-.46-.46-.46-.46,.21-.46,.46Z"/><circle class="d" cx="506.2" cy="172.16" r=".46"/><circle class="d" cx="421.55" cy="146.29" r=".46"/><path class="d" d="M569.3,82.73c0,.25,.21,.46,.46,.46s.46-.21,.46-.46-.21-.46-.46-.46-.46,.21-.46,.46Z"/><circle class="d" cx="466.04" cy="109.04" r=".46"/><path class="d" d="M527.08,83.63c0,.25,.21,.46,.46,.46s.46-.21,.46-.46-.21-.46-.46-.46-.46,.21-.46,.46Z"/><path class="d" d="M481.84,107.95c0,.25,.21,.46,.46,.46s.46-.21,.46-.46-.21-.46-.46-.46-.46,.21-.46,.46Z"/><circle class="d" cx="557.59" cy="81.39" r=".75"/><path class="d" d="M347.82,76.45c0,.25,.21,.46,.46,.46s.46-.21,.46-.46-.21-.46-.46-.46-.46,.21-.46,.46Z"/><path class="d" d="M230.95,234.72c0,.41,.34,.75,.75,.75s.75-.34,.75-.75-.34-.75-.75-.75-.75,.34-.75,.75Z"/><circle class="d" cx="318.53" cy="216.51" r=".75"/><circle class="d" cx="394.22" cy="107.54" r=".46"/><circle class="d" cx="341.32" cy="64.37" r=".46"/><path class="d" d="M352.25,129.44c0,.25,.21,.46,.46,.46s.46-.21,.46-.46-.21-.46-.46-.46-.46,.21-.46,.46Z"/><path class="d" d="M410.02,106.46c0,.25,.21,.46,.46,.46s.46-.21,.46-.46-.21-.46-.46-.46-.46,.21-.46,.46Z"/><circle class="d" cx="284.15" cy="72.19" r=".46"/><path class="d" d="M242.19,94.08c0,.25,.21,.46,.46,.46s.46-.21,.46-.46-.21-.46-.46-.46-.46,.21-.46,.46Z"/><path class="d" d="M299.95,71.1c0,.25,.21,.46,.46,.46s.46-.21,.46-.46-.21-.46-.46-.46-.46,.21-.46,.46Z"/><path class="d" d="M380.85,166.38c0,.25,.21,.46,.46,.46s.46-.21,.46-.46-.21-.46-.46-.46-.46,.21-.46,.46Z"/><circle class="d" cx="415.1" cy="151.47" r=".46"/><path class="d" d="M323.68,174.2c0,.25,.21,.46,.46,.46s.46-.21,.46-.46-.21-.46-.46-.46-.46,.21-.46,.46Z"/><circle class="d" cx="340.39" cy="173.11" r=".46"/><circle class="d" cx="339.56" cy="137.62" r=".75"/><path class="d" d="M240.57,142.67c0,.41,.34,.75,.75,.75s.75-.34,.75-.75-.34-.75-.75-.75-.75,.34-.75,.75Z"/><path class="d" d="M248.73,87.22c0,.41,.34,.75,.75,.75s.75-.34,.75-.75-.34-.75-.75-.75-.75,.34-.75,.75Z"/><circle class="d" cx="357.44" cy="92.57" r=".75"/><path class="d" d="M342.48,144.72c0,.29-.24,.53-.53,.53s-.53-.24-.53-.53,.24-.53,.53-.53,.53,.24,.53,.53Z"/><path class="d" d="M234.3,99.03c0,.29-.24,.53-.53,.53s-.53-.24-.53-.53,.24-.53,.53-.53,.53,.24,.53,.53Z"/><circle class="d" cx="173.33" cy="111.17" r=".53"/><circle class="d" cx="439.63" cy="237.2" r=".53"/><circle class="d" cx="559.33" cy="267.56" r=".53"/><path class="d" d="M391.2,268.09c0,.29-.24,.53-.53,.53s-.53-.24-.53-.53,.24-.53,.53-.53,.53,.24,.53,.53Z"/><path class="d" d="M620.9,217.74c0,.29-.24,.53-.53,.53s-.53-.24-.53-.53,.24-.53,.53-.53,.53,.24,.53,.53Z"/><path class="d" d="M607.75,292.83c0,.29-.24,.53-.53,.53s-.53-.24-.53-.53,.24-.53,.53-.53,.53,.24,.53,.53Z"/><path class="d" d="M581.9,200.53c0,.29-.24,.53-.53,.53s-.53-.24-.53-.53,.24-.53,.53-.53,.53,.24,.53,.53Z"/><circle class="d" cx="200.47" cy="352.51" r=".53"/><circle class="d" cx="253.18" cy="304.89" r=".53"/><circle class="d" cx="248.36" cy="377.78" r=".53"/><circle class="d" cx="222.52" cy="285.48" r=".53"/><path class="d" d="M218.27,204.05c0,.29-.24,.53-.53,.53s-.53-.24-.53-.53,.24-.53,.53-.53,.53,.24,.53,.53Z"/><path class="d" d="M488.89,238.24c0,.29-.24,.53-.53,.53s-.53-.24-.53-.53,.24-.53,.53-.53,.53,.24,.53,.53Z"/><path class="d" d="M541.09,266.31c0,.29-.24,.53-.53,.53s-.53-.24-.53-.53,.24-.53,.53-.53,.53,.24,.53,.53Z"/><circle class="d" cx="686.35" cy="226.76" r=".53"/><circle class="d" cx="734.24" cy="252.03" r=".53"/><circle class="d" cx="667.58" cy="225.51" r=".53"/><path class="d" d="M505.73,103.31c0,.48-.39,.86-.86,.86s-.86-.39-.86-.86,.39-.86,.86-.86,.86,.39,.86,.86Z"/><path class="d" d="M405.52,82.29c0,.48-.39,.87-.86,.87s-.86-.39-.86-.87,.39-.86,.86-.86,.86,.39,.86,.86Z"/><path class="d" d="M456.82,157.15c0,.48-.39,.86-.86,.86s-.86-.39-.86-.86,.39-.86,.86-.86,.86,.39,.86,.86Z"/><path class="d" d="M669.41,184.54c0,.48-.39,.86-.86,.86s-.86-.39-.86-.86,.39-.86,.86-.86,.86,.39,.86,.86Z"/><path class="d" d="M332.23,163.33c0,.48-.39,.86-.86,.86s-.86-.39-.86-.86,.39-.86,.86-.86,.86,.39,.86,.86Z"/><path class="d" d="M701.97,146.45c0,.29-.24,.53-.53,.53s-.53-.24-.53-.53,.24-.53,.53-.53,.53,.24,.53,.53Z"/><path class="d" d="M865.23,105.04c0,.48-.39,.87-.86,.87s-.86-.39-.86-.87,.39-.86,.86-.86,.86,.39,.86,.86Z"/><circle class="d" cx="764.15" cy="84.02" r=".86"/><path class="d" d="M816.32,158.88c0,.48-.39,.86-.86,.86s-.86-.39-.86-.86,.39-.86,.86-.86,.86,.39,.86,.86Z"/><path class="d" d="M691.73,165.06c0,.48-.39,.86-.86,.86s-.86-.39-.86-.86,.39-.86,.86-.86,.86,.39,.86,.86Z"/><path class="d" d="M637.66,283.83c0-.25,.21-.46,.46-.46s.46,.21,.46,.46-.21,.46-.46,.46-.46-.21-.46-.46Z"/><path class="d" d="M731.4,323.42c0-.25,.21-.46,.46-.46s.46,.21,.46,.46-.21,.46-.46,.46-.46-.21-.46-.46Z"/><path class="d" d="M783.77,312.91c0-.25,.21-.46,.46-.46s.46,.21,.46,.46-.21,.46-.46,.46-.46-.21-.46-.46Z"/><path class="d" d="M553.02,203.7c0-.25,.21-.46,.46-.46s.46,.21,.46,.46-.21,.46-.46,.46-.46-.21-.46-.46Z"/><path class="d" d="M449.3,177.39c0-.25,.21-.46,.46-.46s.46,.21,.46,.46-.21,.46-.46,.46-.46-.21-.46-.46Z"/><path class="d" d="M595.44,176.93c0-.25,.21-.46,.46-.46s.46,.21,.46,.46-.21,.46-.46,.46-.46-.21-.46-.46Z"/><path class="d" d="M396.4,220.56c0-.25,.21-.46,.46-.46s.46,.21,.46,.46-.21,.46-.46,.46-.46-.21-.46-.46Z"/><path class="d" d="M407.79,155.49c0-.25,.21-.46,.46-.46s.46,.21,.46,.46-.21,.46-.46,.46-.46-.21-.46-.46Z"/><circle class="d" cx="430.65" cy="235.47" r=".46"/><path class="d" d="M760.25,103.78c0-.25,.21-.46,.46-.46s.46,.21,.46,.46-.21,.46-.46,.46-.46-.21-.46-.46Z"/><path class="d" d="M714.58,145.04c0-.25,.21-.46,.46-.46s.46,.21,.46,.46-.21,.46-.46,.46-.46-.21-.46-.46Z"/><path class="d" d="M718.75,81.88c0-.25,.21-.46,.46-.46s.46,.21,.46,.46-.21,.46-.46,.46-.46-.21-.46-.46Z"/><path class="d" d="M741.15,161.86c0-.25,.21-.46,.46-.46s.46,.21,.46,.46-.21,.46-.46,.46-.46-.21-.46-.46Z"/><path class="d" d="M745.29,232.42c0-.25,.21-.46,.46-.46s.46,.21,.46,.46-.21,.46-.46,.46-.46-.21-.46-.46Z"/><path class="d" d="M510.79,202.8c0-.25,.21-.46,.46-.46s.46,.21,.46,.46-.21,.46-.46,.46-.46-.21-.46-.46Z"/><circle class="d" cx="466.01" cy="178.47" r=".46"/><path class="d" d="M339.23,212.75c0-.25,.21-.46,.46-.46s.46,.21,.46,.46-.21,.46-.46,.46-.46-.21-.46-.46Z"/><path class="d" d="M297.73,190.85c0-.25,.21-.46,.46-.46s.46,.21,.46,.46-.21,.46-.46,.46-.46-.21-.46-.46Z"/><circle class="d" cx="355.95" cy="213.83" r=".46"/><circle class="d" cx="496.95" cy="319.72" r=".75"/><circle class="d" cx="583.78" cy="337.93" r=".75"/><circle class="d" cx="539.33" cy="273.06" r=".75"/><circle class="d" cx="355.12" cy="249.33" r=".75"/><path class="d" d="M646.54,267.71c0-.41,.34-.75,.75-.75s.75,.34,.75,.75-.34,.75-.75,.75-.75-.34-.75-.75Z"/><path class="d" d="M326.15,282.33c0-.25,.21-.46,.46-.46s.46,.21,.46,.46-.21,.46-.46,.46-.46-.21-.46-.46Z"/><circle class="d" cx="185.44" cy="318.22" r=".75"/><circle class="d" cx="272.27" cy="336.43" r=".75"/><path class="d" d="M227.07,271.56c0-.41,.34-.75,.75-.75s.75,.34,.75,.75-.34,.75-.75,.75-.75-.34-.75-.75Z"/><circle class="d" cx="115.06" cy="158.82" r=".46"/><path class="d" d="M110.76,246.49c0,.25-.21,.46-.46,.46s-.46-.21-.46-.46,.21-.46,.46-.46,.46,.21,.46,.46Z"/><path class="d" d="M125.35,129.57c0,.41-.34,.75-.75,.75s-.75-.34-.75-.75,.34-.75,.75-.75,.75,.34,.75,.75Z"/><circle class="d" cx="82.22" cy="176.23" r=".75"/><path class="d" d="M109.81,134.89c0,.25-.21,.46-.46,.46s-.46-.21-.46-.46,.21-.46,.46-.46,.46,.21,.46,.46Z"/><path class="d" d="M57.44,145.41c0,.25-.21,.46-.46,.46s-.46-.21-.46-.46,.21-.46,.46-.46,.46,.21,.46,.46Z"/><path class="d" d="M126.63,313.27c0,.25-.21,.46-.46,.46s-.46-.21-.46-.46,.21-.46,.46-.46,.46,.21,.46,.46Z"/><path class="d" d="M100.06,296.45c0,.25-.21,.46-.46,.46s-.46-.21-.46-.46,.21-.46,.46-.46,.46,.21,.46,.46Z"/><path class="d" d="M95.92,225.9c0,.25-.21,.46-.46,.46s-.46-.21-.46-.46,.21-.46,.46-.46,.46,.21,.46,.46Z"/><circle class="d" cx="57.59" cy="161.2" r=".46"/><circle class="d" cx="5.22" cy="171.71" r=".46"/><path class="d" d="M44.16,252.2c0,.25-.21,.46-.46,.46s-.46-.21-.46-.46,.21-.46,.46-.46,.46,.21,.46,.46Z"/><path class="d" d="M115.3,241.62c0,.25-.21,.46-.46,.46s-.46-.21-.46-.46,.21-.46,.46-.46,.46,.21,.46,.46Z"/><path class="d" d="M81.51,226.7c0,.25-.21,.46-.46,.46s-.46-.21-.46-.46,.21-.46,.46-.46,.46,.21,.46,.46Z"/><path class="d" d="M.92,259.38c0,.25-.21,.46-.46,.46s-.46-.21-.46-.46,.21-.46,.46-.46,.46,.21,.46,.46Z"/><path class="d" d="M15.51,142.46c0,.41-.34,.75-.75,.75s-.75-.34-.75-.75,.34-.75,.75-.75,.75,.34,.75,.75Z"/><circle class="d" cx="142.16" cy="216.91" r=".75"/><path class="d" d="M93.71,187.37c0,.25-.21,.46-.46,.46s-.46-.21-.46-.46,.21-.46,.46-.46,.46,.21,.46,.46Z"/><circle class="d" cx="147.59" cy="133.27" r=".75"/><circle class="d" cx="84.08" cy="203.5" r=".75"/><circle class="d" cx="125.26" cy="286.35" r=".75"/><path class="d" d="M135.75,145.71c0,.25,.21,.46,.46,.46s.46-.21,.46-.46-.21-.46-.46-.46-.46,.21-.46,.46Z"/><path class="d" d="M134.14,194.29c0,.41,.34,.75,.75,.75s.75-.34,.75-.75-.34-.75-.75-.75-.75,.34-.75,.75Z"/><circle class="d" cx="143.05" cy="138.84" r=".75"/><path class="d" d="M127.87,150.66c0,.29-.24,.53-.53,.53s-.53-.24-.53-.53,.24-.53,.53-.53,.53,.24,.53,.53Z"/><circle class="d" cx="66.9" cy="162.79" r=".53"/><path class="d" d="M116.61,337.1c0,.29-.24,.53-.53,.53s-.53-.24-.53-.53,.24-.53,.53-.53,.53,.24,.53,.53Z"/><path class="d" d="M111.83,255.68c0,.29-.24,.53-.53,.53s-.53-.24-.53-.53,.24-.53,.53-.53,.53,.24,.53,.53Z"/><circle class="d" cx="121.38" cy="323.18" r=".75"/><path class="d" d="M930.53,134.08c0,.25-.21,.46-.46,.46s-.46-.21-.46-.46,.21-.46,.46-.46,.46,.21,.46,.46Z"/><path class="d" d="M925.77,221.75c0,.25-.21,.46-.46,.46s-.46-.21-.46-.46,.21-.46,.46-.46,.46,.21,.46,.46Z"/><circle class="d" cx="939.61" cy="104.83" r=".75"/><circle class="d" cx="897.23" cy="151.49" r=".75"/><path class="d" d="M924.82,110.15c0,.25-.21,.46-.46,.46s-.46-.21-.46-.46,.21-.46,.46-.46,.46,.21,.46,.46Z"/><circle class="d" cx="871.99" cy="120.67" r=".46"/><path class="d" d="M941.64,288.53c0,.25-.21,.46-.46,.46s-.46-.21-.46-.46,.21-.46,.46-.46,.46,.21,.46,.46Z"/><path class="d" d="M915.07,271.71c0,.25-.21,.46-.46,.46s-.46-.21-.46-.46,.21-.46,.46-.46,.46,.21,.46,.46Z"/><circle class="d" cx="910.47" cy="201.16" r=".46"/><path class="d" d="M873.06,136.46c0,.25-.21,.46-.46,.46s-.46-.21-.46-.46,.21-.46,.46-.46,.46,.21,.46,.46Z"/><path class="d" d="M820.69,146.97c0,.25-.21,.46-.46,.46s-.46-.21-.46-.46,.21-.46,.46-.46,.46,.21,.46,.46Z"/><path class="d" d="M859.17,227.46c0,.25-.21,.46-.46,.46s-.46-.21-.46-.46,.21-.46,.46-.46,.46,.21,.46,.46Z"/><path class="d" d="M930.31,216.88c0,.25-.21,.46-.46,.46s-.46-.21-.46-.46,.21-.46,.46-.46,.46,.21,.46,.46Z"/><path class="d" d="M896.52,201.96c0,.25-.21,.46-.46,.46s-.46-.21-.46-.46,.21-.46,.46-.46,.46,.21,.46,.46Z"/><circle class="d" cx="815.47" cy="234.64" r=".46"/><path class="d" d="M830.52,117.72c0,.41-.34,.75-.75,.75s-.75-.34-.75-.75,.34-.75,.75-.75,.75,.34,.75,.75Z"/><circle class="d" cx="957.17" cy="192.17" r=".75"/><circle class="d" cx="908.26" cy="162.63" r=".46"/><circle class="d" cx="962.6" cy="108.53" r=".75"/><path class="d" d="M899.84,178.76c0,.41-.34,.75-.75,.75s-.75-.34-.75-.75,.34-.75,.75-.75,.75,.34,.75,.75Z"/><circle class="d" cx="940.28" cy="261.61" r=".75"/><circle class="d" cx="951.22" cy="120.97" r=".46"/><circle class="d" cx="949.9" cy="169.55" r=".75"/><path class="d" d="M957.31,114.1c0,.41,.34,.75,.75,.75s.75-.34,.75-.75-.34-.75-.75-.75-.75,.34-.75,.75Z"/><path class="d" d="M942.88,125.92c0,.29-.24,.53-.53,.53s-.53-.24-.53-.53,.24-.53,.53-.53,.53,.24,.53,.53Z"/><circle class="d" cx="881.91" cy="138.05" r=".53"/><circle class="d" cx="736.4" cy="191.31" r=".86"/><path class="d" d="M802.57,220.35c0,.25-.21,.46-.46,.46s-.46-.21-.46-.46,.21-.46,.46-.46,.46,.21,.46,.46Z"/><path class="d" d="M812.4,191.1c0,.41-.34,.75-.75,.75s-.75-.34-.75-.75,.34-.75,.75-.75,.75,.34,.75,.75Z"/><path class="d" d="M770.02,237.76c0,.41-.34,.75-.75,.75s-.75-.34-.75-.75,.34-.75,.75-.75,.75,.34,.75,.75Z"/><path class="d" d="M796.86,196.43c0,.25-.21,.46-.46,.46s-.46-.21-.46-.46,.21-.46,.46-.46,.46,.21,.46,.46Z"/><path class="d" d="M744.49,206.94c0,.25-.21,.46-.46,.46s-.46-.21-.46-.46,.21-.46,.46-.46,.46,.21,.46,.46Z"/><path class="d" d="M745.11,222.73c0,.25-.21,.46-.46,.46s-.46-.21-.46-.46,.21-.46,.46-.46,.46,.21,.46,.46Z"/><path class="d" d="M780.76,248.91c0,.25-.21,.46-.46,.46s-.46-.21-.46-.46,.21-.46,.46-.46,.46,.21,.46,.46Z"/><path class="d" d="M835.39,194.81c0,.41-.34,.75-.75,.75s-.75-.34-.75-.75,.34-.75,.75-.75,.75,.34,.75,.75Z"/><path class="d" d="M822.81,207.24c0,.25,.21,.46,.46,.46s.46-.21,.46-.46-.21-.46-.46-.46-.46,.21-.46,.46Z"/><circle class="d" cx="821.94" cy="255.82" r=".75"/><circle class="d" cx="830.11" cy="200.38" r=".75"/><path class="d" d="M814.92,212.19c0,.29-.24,.53-.53,.53s-.53-.24-.53-.53,.24-.53,.53-.53,.53,.24,.53,.53Z"/><circle class="d" cx="753.95" cy="224.32" r=".53"/><circle class="d" cx="931.09" cy="312.36" r=".53"/><circle class="d" cx="926.32" cy="230.94" r=".53"/><circle class="d" cx="936.4" cy="298.44" r=".75"/><circle class="d" cx="335.78" cy="266.21" r=".75"/></g></g></g></svg>