<?xml version="1.0" encoding="UTF-8"?><svg xmlns="http://www.w3.org/2000/svg" xmlns:xlink="http://www.w3.org/1999/xlink" viewBox="0 0 173.4 149.2"><defs><style>.f{fill:#190024;opacity:.1;}.f,.g{mix-blend-mode:multiply;}.h{fill:#e9e9a8;}.i{isolation:isolate;}.j{opacity:.2;}.k,.l,.m{mix-blend-mode:soft-light;}.g{fill:#974d8b;opacity:.3;}.l,.m{opacity:.51;}.n{fill:url(#d);}.o{fill:url(#e);}.m,.p{fill:#5fcccc;}.q{opacity:.71;}</style><radialGradient id="d" cx="120.51" cy="57.87" fx="120.51" fy="57.87" r="55.48" gradientTransform="translate(18.82 149.5) rotate(-26.89)" gradientUnits="userSpaceOnUse"><stop offset=".59" stop-color="#0434c2"/><stop offset="1" stop-color="#31c0f1"/></radialGradient><radialGradient id="e" cx="44.79" cy="104.95" fx="44.79" fy="104.95" r="106.29" gradientTransform="matrix(1, 0, 0, 1, 0, 0)" gradientUnits="userSpaceOnUse"><stop offset=".59" stop-color="#1622a0"/><stop offset="1" stop-color="#5757e8"/></radialGradient></defs><g class="i"><g id="a"/><g id="b"><g id="c"><g class="j"><path class="n" d="M170.68,108.67c1.32,2.79,2.21,5.85,2.55,9.09,.13,1.23,.19,2.45,.16,3.65,0,.18,0,.36-.02,.54-.14,3.73-1.02,7.3-2.5,10.57-.45,1-.97,1.98-1.54,2.92-1.21,2.01-2.66,3.87-4.32,5.51h0c-.12,.12-.23,.24-.35,.35-4.36,4.2-10.1,7.03-16.59,7.74-5.65,.61-11.09-.48-15.81-2.86-2.63-1.32-5.03-3.04-7.11-5.08-1.64-1.6-3.09-3.41-4.31-5.38-.09-.15-.18-.3-.27-.45-2-3.38-3.33-7.23-3.78-11.39-.04-.38-.07-.76-.1-1.15-.13-2-.05-3.97,.21-5.89,.13-.92,.31-1.84,.53-2.74,.03-.15,.07-.3,.11-.45,.67-2.59,1.71-5.04,3.05-7.3,.09-.17,.19-.32,.29-.47,.26-.44,.55-.86,.84-1.28,.09-.13,.18-.26,.28-.39,4.55-6.29,11.64-10.71,19.97-11.61,4.94-.53,9.71,.23,13.98,2.02,.22,.09,.45,.19,.66,.29,1.12,.5,2.2,1.07,3.24,1.7,.19,.12,.39,.24,.58,.37,1.98,1.28,3.79,2.8,5.39,4.53,.11,.12,.22,.24,.32,.35,1.35,1.5,2.55,3.15,3.55,4.93,.35,.61,.68,1.23,.98,1.88Z"/><path class="f" d="M126.92,114.35c.27,1.01,4.82,.85,5-.54,.18-1.4-5.58-1.58-5,.54Z"/><path class="f" d="M129.7,116.73c.52,.65,1.38,.23,1.32-.14-.06-.38-1.84-.51-1.32,.14Z"/><path class="f" d="M155.59,115.15c.5-1.56,1.27-1.21,1.78-.79,.51,.42-1.93,1.27-1.78,.79Z"/><path class="f" d="M151.67,106.43c.5-1.56,1.27-1.21,1.78-.79,.51,.42-1.93,1.27-1.78,.79Z"/><path class="f" d="M151.57,140.91c.5-1.56,1.27-1.21,1.78-.79,.51,.42-1.93,1.27-1.78,.79Z"/><path class="f" d="M162.21,116.1c.39,.47,1.36,.1,.99-.47-.36-.57-1.65-.32-.99,.47Z"/><path class="f" d="M132.18,104.07c.39,.47,1.36,.1,.99-.47-.36-.57-1.65-.32-.99,.47Z"/><path class="m" d="M167.31,129.48c.46-.09,2.37,.15,2.73,1.02,.36,.88-3.54,1.93-3.8,1.1-.26-.83,.45-2,1.08-2.12Z"/><path class="m" d="M155.69,104.35c.46-.09,2.37,.15,2.73,1.02,.36,.88-3.54,1.93-3.8,1.1-.26-.83,.45-2,1.08-2.12Z"/><path class="m" d="M140.65,99.12c.3,.35,1.03,2.14,.44,2.88-.59,.74-3.42-2.15-2.82-2.78s1.96-.58,2.38-.1Z"/><g class="k"><path class="h" d="M149.36,102.56c-.09-.45-.29-.87-.57-1.23-.05-.06-.09-.12-.16-.15-.13-.07-.28-.03-.41,.04-.3,.18-.45,.56-.38,.9,.07,.34,.33,.63,.65,.76,.18,.07,.38,.1,.56,.03,.18-.07,.31-.27,.26-.46-.06-.03-.13,.03-.12,.09h.18Z"/><path class="h" d="M156.48,101.86c-.07-.25-.28-.46-.53-.53-.18,.19-.3,.45-.25,.71,.05,.25,.33,.46,.58,.39,.25-.08,.33-.48,.11-.61l.1,.04Z"/><path class="h" d="M154.73,100.12c-.06-.06-.13-.12-.21-.17,0,0-.02-.01-.03,0-.01,0-.02,.01-.03,.02-.05,.08,0,.21-.08,.25-.01,0-.03,.01-.04,.03-.01,.02,.02,.05,.04,.06,.14,.05,.3-.06,.31-.21l.02,.03h0Z"/><path class="h" d="M152.08,98.98c-.11-.12-.24-.23-.39-.31-.02-.01-.04-.02-.06-.02-.02,0-.04,.02-.05,.04-.1,.14,0,.39-.14,.48-.03,.02-.06,.02-.08,.05-.02,.05,.03,.09,.08,.11,.26,.09,.57-.12,.58-.39l.05,.06v-.02Z"/><path class="h" d="M155.6,95.96c-.11-.12-.24-.23-.39-.31-.02-.01-.04-.02-.06-.02-.02,0-.04,.02-.05,.04-.1,.14,0,.39-.14,.48-.03,.02-.06,.02-.08,.05-.02,.05,.03,.09,.08,.11,.26,.09,.57-.12,.58-.39l.05,.06v-.02Z"/><path class="h" d="M154.51,98.56c-.04-.12-.13-.21-.24-.25-.02,.05-.04,.1-.05,.16,0,.05,.03,.11,.08,.13,.07,.03,.14-.02,.2-.07v.06l.02-.03Z"/><path class="h" d="M153.63,98.61s-.05-.05-.08-.06c-.03,0-.06,.01-.09,.03-.08,.04-.16,.07-.25,.1l.41,.18s.02,0,.03,.02c.03,.03,0,.08,.01,.12,.01,.06,.08,.08,.14,.08,.43,.01-.04-.34-.17-.47Z"/><path class="h" d="M149.1,99.12s-.05-.05-.08-.06c-.03,0-.06,.01-.09,.03-.08,.04-.16,.07-.25,.1l.41,.18s.02,0,.03,.02c.03,.03,0,.08,.01,.12,.01,.06,.08,.08,.14,.08,.43,.01-.04-.34-.17-.47Z"/><path class="h" d="M153.54,95.71l-.12-.06c-.03,.08-.03,.19,.04,.24,.07,.06,.2,.02,.2-.07,0-.05-.01-.14,.04-.14l-.16,.02Z"/><path class="h" d="M147.63,98.6c.05,.11-.05,.26-.17,.25s-.21-.17-.14-.27c.07-.1,.25-.1,.31,0h0Z"/><path class="h" d="M149.62,99.05c.1,.02,.22,.07,.21,.17,0,.09-.12,.13-.21,.15-.04,0-.09,0-.11-.02-.06-.08,.11-.18,.06-.27,.01-.02,.06,0,.05,.03v-.05Z"/><path class="h" d="M158.32,102.38c-.09-.11-.22-.21-.36-.21-.14,0-.28,.16-.22,.29,.02,.04,.05,.07,.09,.09,.02,.01,.05,.02,.07,.02,.1,.02,.2,.02,.28-.04,.08-.05,.12-.18,.06-.25l.08,.1Z"/><path class="h" d="M161.75,102.47s-.07,.06-.08,.1c-.01,.04,0,.08,0,.13,0,.1-.08,.18-.1,.28-.04,.17,.1,.32,.22,.45,.03,.03,.07,.06,.1,.05,.03,0,.05-.03,.07-.06,.14-.16,.33-.05,.49-.15,.12-.08,.22-.32,.19-.46-.07-.42-.6-.59-.9-.34Z"/><path class="h" d="M155.25,99.84s.07,.03,.09,.06c-.08,.05-.19,.01-.27-.03-.05-.02-.1-.06-.1-.11,0-.04,.03-.06,.05-.1,.03-.07,0-.17,.08-.2,.04-.01,.08,.01,.1,.05,.02,.04,.02,.08,.02,.12v.27l.03-.07Z"/><path class="h" d="M154.8,101.2c-.03-.07-.15-.02-.16,.05-.01,.08,.04,.14,.09,.2,.09-.06,.14-.17,.12-.27l-.04,.02Z"/><path class="h" d="M154.09,100.31s-.05-.06-.08-.07-.08-.02-.1,.01c-.04,.04-.01,.12-.03,.18-.02,.06-.09,.1-.09,.16,0,.06,.08,.1,.14,.08,.06-.02,.1-.07,.13-.12,.03-.05,.06-.09,.06-.15,0-.05-.03-.11-.09-.12l.06,.04Z"/><path class="h" d="M153.74,99.97s-.01,.07-.05,.08-.07,0-.1-.02c-.02-.01-.03-.02-.05-.04-.02-.04,0-.1,.04-.12,.04-.02,.1,0,.12,.05,.02,.04,0,.1-.04,.13l.08-.08Z"/><path class="h" d="M149.67,103.13s-.01,.07-.05,.08c-.03,.01-.07,0-.1-.02-.02-.01-.03-.02-.05-.04-.02-.04,0-.1,.04-.12s.1,0,.12,.05c.02,.04,0,.1-.04,.13l.08-.08Z"/><path class="h" d="M154.06,99.6c.06-.04,.04-.16-.03-.18-.03,.02-.06,.06-.07,.09,0,.04,0,.09,.04,.1s.09,0,.09-.05l-.02,.03Z"/><path class="h" d="M146.97,96.98c.06-.04,.04-.16-.03-.18-.03,.02-.06,.06-.07,.09,0,.04,0,.09,.04,.1s.09,0,.09-.05l-.02,.03Z"/><path class="h" d="M147.15,100.88c0-.09-.04-.18-.11-.24l-.12,.19s-.04,.06-.04,.1c0,.07,.07,.12,.14,.11,.07-.01,.12-.08,.13-.15h.01Z"/><path class="h" d="M149.35,100.62l.36,.19c0,.07-.11,.07-.17,.05-.07-.02-.14-.04-.18-.09s-.05-.15,.01-.18l-.02,.02Z"/><path class="h" d="M159.28,99.3c.04-.09-.07-.2-.17-.17-.1,.02-.16,.13-.15,.23,0,.04,.02,.09,.05,.11,.05,.04,.13,.02,.18-.02,.05-.04,.08-.1,.11-.16l-.03,.02Z"/><path class="h" d="M149.07,98.86c.03-.09,0-.19-.07-.25-.06,.03-.1,.09-.12,.15-.03,.08,0,.19,.08,.23,.08,.04,.19-.06,.15-.13h-.04Z"/><path class="h" d="M149.25,99.79c.03,.06,.01,.13-.04,.17l-.18-.1c0-.1,.13-.16,.21-.12v.05Z"/><path class="h" d="M158.28,100.92l-.05,.32s-.01,.06,0,.09c.01,.03,.04,.05,.06,.07,.09,.08,.21,.16,.31,.1,.11-.06,.08-.22,.08-.35,0-.23,.32-.79,.02-.94-.32-.16-.38,.51-.41,.7Z"/><path class="h" d="M158.56,99.12l.08,.02s-.08,.1-.14,.13-.13,.03-.18-.02-.02-.14,.04-.15c.06-.01,.13,0,.19,.03h0Z"/><path class="h" d="M153.87,101.03c.02,.05,0,.11-.04,.14-.04,.03-.1,.04-.15,.02-.03-.02-.06-.06-.04-.09,0-.01,.02-.02,.04-.02l.19-.08v.03h0Z"/><path class="h" d="M153.12,101.75c-.07,0-.1,.08-.11,.15s-.04,.14-.1,.16c-.02,0-.04,0-.05,0-.04-.03,0-.08,0-.13,0-.04,0-.07,0-.11,0-.09,.05-.18,.13-.21,.05,0,.09,.04,.11,.08,.02,.04,0,.1-.03,.13l.07-.06Z"/><path class="h" d="M152.67,101.26l-.06-.05s-.06,.06-.05,.1c.01,.04,.06,.07,.1,.05,.04-.02,.05-.07,.02-.1h0Z"/><path class="h" d="M151.02,101.93l-.06-.05s-.06,.06-.05,.1c.01,.04,.06,.07,.1,.05,.04-.02,.05-.07,.02-.1h0Z"/><path class="h" d="M154.39,99.16s.09,.04,.12,0,.05-.09,.08-.12c.03-.04,.08-.06,.13-.06,.03,0,.06,0,.08,.04,0,.02,0,.04,0,.06,0,.1-.02,.2-.08,.28-.06,.08-.16,.13-.25,.11-.07-.02-.12-.07-.14-.14-.02-.07,0-.14,.05-.19v.02Z"/><path class="h" d="M144.82,94.99s.09,.04,.12,0,.05-.09,.08-.12c.03-.04,.08-.06,.13-.06,.03,0,.06,0,.08,.04,0,.02,0,.04,0,.06,0,.1-.02,.2-.08,.28-.06,.08-.16,.13-.25,.11-.07-.02-.12-.07-.14-.14s0-.14,.05-.19v.02Z"/><path class="h" d="M154.28,97.84c0-.06-.07-.11-.13-.1-.06,0-.11,.05-.14,.11-.01,.03-.01,.06,.01,.07,.02,0,.04,0,.05,0l.22-.07-.02-.02Z"/><path class="h" d="M145.92,97.26c.12-.11,.19-.26,.2-.42,0-.03,0-.06-.02-.08-.04-.04-.11,0-.17,.03-.09,.04-.21,0-.31,.05-.08,.04-.12,.12-.16,.2-.05,.11-.09,.27,.02,.33,.06,.03,.12,.01,.18,0,.13-.05,.24-.11,.35-.2l-.1,.09Z"/><path class="h" d="M150.73,96.81c.09-.03,.07-.16,.03-.25-.02-.06-.06-.12-.12-.13-.08-.02-.14,.06-.18,.14l-.1,.18s-.03,.06-.02,.09c0,.03,.04,.04,.06,.05,.13,.06,.27,.08,.41,.08l-.08-.15Z"/><path class="h" d="M151.13,99.92c.84-.18,.54-1.14-.19-1.17-.77-.02-.54,1.32,.19,1.17Z"/><path class="h" d="M155.83,100.89c0,.13-.17,.22-.28,.16,.02-.1,.04-.2,.11-.26,.07-.07,.2-.08,.26,0l-.02,.17-.07-.06Z"/><path class="h" d="M154.49,103.35l-.12-.06c-.06,.15-.16,.29-.27,.4-.06,.06-.13,.11-.17,.18-.05,.07-.07,.16-.03,.23,.07,.14,.28,.12,.41,.04,.17-.1,.3-.26,.33-.45,.03-.19-.06-.41-.24-.49l-.09,.17,.2-.02Z"/><path class="h" d="M153.2,102.83c.01-.06-.04-.07-.09-.02-.05,.04-.09,.12-.12,.18-.08,.15-.16,.3-.24,.45-.04,.08-.09,.19-.08,.25,.01,.05,.07,.04,.12-.01s.1-.12,.14-.19c.14-.23,.3-.53,.27-.7l-.11,.09,.1-.04Z"/><path class="h" d="M152.42,102.3s0,.06-.03,.07c-.03,.01-.06,0-.08,0-.02,0-.04-.02-.06-.03-.03-.03-.03-.09,0-.13s.08-.05,.12-.05c.02,0,.04,.01,.06,.03,.01,.02,.01,.05,0,.06v.05Z"/><path class="h" d="M152.02,97.87c.04-.12,.06-.25,.08-.37-.03-.02-.07-.01-.1,0-.18,.06-.26,.3-.17,.46,.01,.02,.03,.05,.06,.06,.04,.01,.07,0,.1-.04,.02-.03,.03-.07,.04-.1h0Z"/><path class="h" d="M153.39,99.41l-.06-.05s-.06,.06-.06,.1c0,.04,.05,.08,.08,.06,.01,0,.02-.02,.02-.04l.05-.14-.04,.06Z"/><path class="h" d="M146.77,99.42c-.03-.06-.07-.11-.12-.15-.05-.04-.13-.05-.18-.02-.03,.02-.05,.05-.06,.08-.03,.09,.03,.2,.13,.23,.09,.02,.2-.04,.22-.14h0Z"/><path class="h" d="M147.67,96.21c.09,.03,.1,.17,.03,.22-.05,0-.1-.02-.15-.04,.01-.06,.04-.11,.09-.14l.03-.04Z"/><path class="h" d="M149.02,97.14c0-.06-.1-.05-.11,0,0,.06,.05,.1,.1,.12,.03-.04,.03-.11,0-.15v.03Z"/><path class="h" d="M157,102.25l-.12-.06s-.04,.06-.05,.09c.04,.05,.13,.05,.17,0v-.03Z"/><path class="h" d="M166.62,96.38l-.12-.06s-.04,.06-.05,.09c.04,.05,.13,.05,.17,0v-.03Z"/><path class="h" d="M161.1,98.16c.15,.04,.28,.15,.33,.3,0,.02,.01,.04,0,.06-.01,.03-.04,.04-.07,.05-.17,.05-.38,.08-.48-.06-.09-.12,0-.32,.15-.33l.1,.1-.03-.12Z"/><path class="h" d="M165.05,111.67c-.07-.25-.28-.46-.53-.53-.18,.19-.3,.45-.25,.71,.05,.25,.33,.46,.58,.39,.25-.08,.33-.48,.11-.61l.1,.04Z"/><path class="h" d="M163.3,109.92c-.06-.06-.13-.12-.21-.16,0,0-.02-.01-.03,0-.01,0-.02,.01-.03,.02-.05,.08,0,.21-.08,.25-.01,0-.03,.01-.04,.03-.01,.02,.02,.05,.04,.06,.14,.05,.3-.06,.31-.21l.02,.03h0Z"/><path class="h" d="M164.16,105.77c-.11-.12-.24-.23-.39-.31-.02-.01-.04-.02-.06-.02-.02,0-.04,.02-.05,.04-.1,.14,0,.39-.14,.48-.03,.02-.06,.02-.08,.05-.02,.05,.03,.09,.08,.11,.26,.09,.57-.12,.58-.39l.05,.06v-.02Z"/><path class="h" d="M163.07,108.37c-.04-.12-.13-.21-.24-.25-.02,.05-.04,.1-.05,.16,0,.05,.03,.11,.08,.13,.07,.03,.14-.02,.2-.07v.06l.02-.03Z"/><path class="h" d="M162.2,108.42s-.05-.05-.08-.06c-.03,0-.06,.01-.09,.03-.08,.04-.16,.07-.25,.1,.14,.06,.27,.12,.41,.18,.01,0,.02,0,.03,.02,.03,.03,0,.08,.01,.12,.01,.06,.08,.08,.14,.08,.43,.01-.04-.34-.17-.47Z"/><path class="h" d="M162.11,105.52l-.12-.06c-.03,.08-.03,.19,.04,.24,.07,.06,.2,.02,.2-.07,0-.05-.01-.14,.04-.14l-.16,.02Z"/><path class="h" d="M166.89,112.19c-.09-.11-.22-.21-.36-.21-.14,0-.28,.16-.22,.29,.02,.04,.05,.07,.09,.09,.02,.01,.05,.02,.07,.02,.1,.02,.2,.02,.28-.04,.08-.05,.12-.18,.06-.25l.08,.1Z"/><path class="h" d="M163.81,109.64s.07,.03,.09,.06c-.08,.05-.19,.01-.27-.03-.05-.02-.1-.06-.1-.11,0-.04,.03-.06,.05-.1,.03-.07,0-.17,.08-.2,.04-.01,.08,.01,.1,.05,.02,.04,.02,.08,.02,.12v.27l.03-.07Z"/><path class="h" d="M162.62,109.41c.06-.04,.04-.16-.03-.18-.03,.02-.06,.06-.07,.09,0,.04,0,.09,.04,.1s.09,0,.09-.05l-.02,.03Z"/><path class="h" d="M167.85,109.1c.04-.09-.07-.2-.17-.17-.1,.02-.16,.13-.15,.23,0,.04,.02,.09,.05,.11,.05,.04,.13,.02,.18-.02,.05-.04,.08-.1,.11-.16l-.03,.02Z"/><path class="h" d="M166.84,110.73l-.05,.32s0,.06,0,.09c.01,.03,.04,.05,.06,.07,.09,.08,.21,.16,.31,.1,.11-.06,.08-.22,.08-.35,0-.23,.32-.79,.02-.94-.32-.16-.38,.51-.41,.7Z"/><path class="h" d="M167.13,108.93l.08,.02s-.08,.1-.14,.13c-.06,.03-.13,.03-.18-.02-.04-.05-.02-.14,.04-.15,.06-.01,.13,0,.19,.03h0Z"/><path class="h" d="M162.95,108.97s.09,.04,.12,0,.05-.09,.08-.12c.03-.04,.08-.06,.13-.06,.03,0,.06,0,.08,.04,0,.02,0,.04,0,.06,0,.1-.02,.2-.08,.28-.06,.08-.16,.13-.25,.11-.07-.02-.12-.07-.14-.14s0-.14,.05-.19v.02Z"/><path class="h" d="M162.85,107.65c0-.06-.07-.11-.13-.1-.06,0-.11,.05-.14,.11-.01,.03-.01,.06,.01,.07,.02,0,.04,0,.05,0l.22-.07-.02-.02Z"/><path class="h" d="M164.4,110.69c0,.13-.17,.22-.28,.16,.02-.1,.04-.2,.11-.26,.07-.07,.2-.08,.26,0l-.02,.17-.07-.06Z"/><path class="h" d="M165.56,112.06l-.12-.06s-.04,.06-.05,.09c.04,.05,.13,.05,.17,0v-.03Z"/><path class="h" d="M169.66,107.96c.15,.04,.28,.15,.33,.3,0,.02,.01,.04,0,.06-.01,.03-.04,.04-.07,.05-.17,.05-.38,.08-.48-.06-.09-.12,0-.32,.15-.33l.1,.1-.03-.12Z"/><path class="h" d="M159.76,108.02c.15,.04,.28,.15,.33,.3,0,.02,.01,.04,0,.06-.01,.03-.04,.04-.07,.05-.17,.05-.38,.08-.48-.06-.09-.12,0-.32,.15-.33l.1,.1-.03-.12Z"/></g></g><g class="q"><path class="o" d="M108.79,55.87c-.17,5.92-1.3,11.91-3.51,17.75-.84,2.21-1.8,4.34-2.89,6.38-.16,.31-.32,.61-.5,.91-3.47,6.25-8.07,11.6-13.42,15.89-1.64,1.32-3.37,2.55-5.16,3.66-3.81,2.39-7.9,4.3-12.17,5.67h0c-.31,.1-.59,.2-.9,.29-11.09,3.39-23.35,3.26-35.05-1.15-10.19-3.85-18.54-10.43-24.53-18.59-3.35-4.53-5.96-9.54-7.75-14.85-1.42-4.16-2.33-8.5-2.7-12.93-.03-.33-.05-.67-.08-1.01-.49-7.52,.59-15.24,3.42-22.74,.26-.68,.54-1.36,.82-2.05,1.5-3.53,3.35-6.83,5.46-9.88,1.02-1.47,2.12-2.88,3.28-4.22,.18-.23,.38-.45,.58-.67,3.39-3.84,7.29-7.14,11.55-9.83,.31-.2,.6-.38,.91-.56,.83-.52,1.68-1,2.53-1.46,.27-.14,.53-.29,.8-.42C42.69-.75,58.64-2.14,73.64,3.53c8.9,3.36,16.4,8.81,22.14,15.57,.31,.35,.6,.71,.88,1.07,1.49,1.83,2.83,3.73,4.06,5.72,.23,.38,.45,.75,.67,1.14,2.27,3.9,4.06,8.08,5.3,12.41,.09,.3,.17,.59,.24,.88,1.01,3.74,1.62,7.59,1.8,11.5,.07,1.35,.09,2.69,.05,4.06Z"/><path class="g" d="M107.57,65.89s-25,1.93-30.12-7.17c-5.12-9.1-10.33-11.38-18.49-10.42-8.15,.97-18.41,7.52-28.31,4.87-9.9-2.66-28.72-13.02-28.72-13.02C.3,45.16,.01,54.52,.01,54.52c0,0,4.41,15.68,16.83,16.64,12.41,.95,40.36,5.29,58.72,10.68,18.36,5.38,23.39,3.79,23.39,3.79,7.06-9.85,8.62-19.74,8.62-19.74Zm-89.38,.48c-1.29-3.21,6.96-3.59,8.58-1.27,1.61,2.32-5.85,8.07-8.58,1.27Zm34.97-14.65c7.73-3.15,21.32,2.5,20.03,7.57-1.29,5.07-26-5.14-20.03-7.57Zm15.57,25.97c-.22-4.51,5.27-1.59,6.56,.77,1.29,2.36-6.38,2.87-6.56-.77Zm24.02-.11c.15-2.44,3.61-2.53,3.55,.09-.06,2.63-3.62,1.15-3.55-.09Z"/><path class="m" d="M108.78,55.87s-17.92-11.23-32.09-14.1c-14.18-2.87-29.84,6.03-47.98,2.91-9.39-1.61-18.13-6.87-24.36-11.56,1.5-3.53,3.34-6.84,5.46-9.88,3.31,3.31,12.45,11.94,21,15.05,10.68,3.88,20.53-.34,38.51,.69,15.4,.89,34.3,10.18,39.4,12.83,.07,1.34,.08,2.69,.05,4.05Z"/><path class="m" d="M21.89,83.11c-2.06,1.43-7.14-.13-6.7-1.13,.84-1.9,8.77-.3,6.7,1.13Zm3.92-2.96c.77-1.11,5.37-.3,5.1,.42-.27,.7-5.8,.59-5.1-.42Zm51.58,14.53c1.53-1.71,9.7,1.56,9.27,3.5-.43,1.95-10.8-1.79-9.27-3.5Zm-37.87-13.09c-20.5-4.05-31.87-7.92-36.62-9.77,1.79,5.31,4.4,10.33,7.75,14.85,8.71,.14,17.16-7.58,40.57-.35,14.09,4.36,25.35,10.18,32.09,14.13,1.78-1.11,3.51-2.34,5.16-3.66-8.61-3.6-27.89-11.05-48.94-15.2Z"/><path class="f" d="M29.08,27.66c-.41,1.97,7.5,5.64,9.02,3.41,1.51-2.23-8.16-7.52-9.02-3.41Z"/><path class="f" d="M31.78,34.13c.33,1.57,2.15,1.59,2.37,.9s-2.7-2.46-2.37-.9Z"/><path class="f" d="M77.38,53.86c2.2-2.23,3.21-.97,3.72,.2s-4.41,.5-3.72-.2Z"/><path class="f" d="M78.25,35.57c2.2-2.23,3.21-.97,3.72,.2,.51,1.17-4.41,.5-3.72-.2Z"/><path class="f" d="M48.19,94.4c2.2-2.23,3.21-.97,3.72,.2,.51,1.17-4.41,.5-3.72-.2Z"/><path class="f" d="M87.87,61.22c.26,1.13,2.23,1.34,2.11,.05-.12-1.29-2.55-1.97-2.11-.05Z"/><path class="f" d="M46.98,14.65c.26,1.13,2.23,1.34,2.11,.05s-2.55-1.97-2.11-.05Z"/><path class="m" d="M85,88.52c.86,.24,3.92,2.3,3.77,4.11s-7.73,.23-7.45-1.42c.27-1.65,2.5-3.02,3.68-2.69Z"/><path class="m" d="M86.91,35.5c.86,.24,3.92,2.3,3.77,4.11-.15,1.81-7.73,.23-7.45-1.42,.27-1.65,2.5-3.02,3.68-2.69Z"/><path class="m" d="M65.74,13.53c.21,.86-.09,4.54-1.74,5.3-1.65,.76-3.98-6.63-2.41-7.2,1.57-.57,3.86,.7,4.15,1.9Z"/><g class="k"><path class="h" d="M77.65,26.95c.23-.84,.26-1.74,.09-2.6-.03-.14-.06-.28-.14-.39-.16-.22-.46-.3-.73-.28-.66,.05-1.25,.57-1.43,1.21-.18,.64,.01,1.36,.45,1.87,.24,.28,.56,.51,.93,.54,.37,.03,.76-.2,.83-.56-.07-.09-.25-.06-.28,.05l.3,.16Z"/><path class="h" d="M90.42,31.94c.1-.49-.08-1.03-.46-1.36-.47,.16-.91,.51-1.04,1s.16,1.08,.65,1.16,.98-.53,.71-.95l.14,.15Z"/><path class="h" d="M88.94,27.44c-.05-.16-.12-.32-.21-.46-.01-.02-.02-.04-.04-.04-.02,0-.04,0-.06,.01-.15,.09-.17,.36-.35,.37-.03,0-.07,0-.09,.01-.04,.03-.02,.1,.02,.14,.19,.2,.57,.15,.71-.09v.08h.03Z"/><path class="h" d="M85.4,23.2c-.09-.31-.22-.6-.4-.87-.02-.03-.05-.07-.08-.08-.04-.01-.08,0-.12,.02-.29,.16-.33,.68-.66,.69-.06,0-.13-.01-.17,.02-.08,.06-.03,.19,.04,.26,.36,.38,1.08,.29,1.33-.16l.02,.14,.04-.03Z"/><path class="h" d="M94.02,21.09c-.09-.31-.22-.6-.4-.87-.02-.03-.05-.07-.08-.08-.04-.01-.08,0-.12,.02-.29,.16-.33,.68-.66,.69-.06,0-.13-.01-.17,.02-.08,.06-.03,.19,.04,.26,.36,.38,1.08,.29,1.33-.16l.02,.14,.04-.03Z"/><path class="h" d="M89.91,24.58c.04-.23-.04-.47-.2-.64-.08,.07-.16,.13-.21,.23-.05,.09-.05,.22,.01,.29,.09,.11,.26,.08,.4,.05l-.06,.1,.06-.03Z"/><path class="h" d="M88.37,23.92c-.02-.06-.04-.13-.09-.17-.05-.04-.12-.04-.18-.04-.17,0-.34-.02-.51-.05l.54,.67s.03,.04,.04,.06c.02,.08-.06,.14-.09,.22-.03,.11,.07,.21,.17,.27,.73,.4,.23-.62,.12-.96Z"/><path class="h" d="M80.18,20.85c-.02-.06-.04-.13-.09-.17-.05-.04-.12-.04-.18-.04-.17,0-.34-.02-.51-.05,.18,.22,.36,.44,.54,.67,.01,.02,.03,.04,.04,.06,.02,.08-.06,.14-.09,.22-.03,.11,.07,.21,.17,.27,.73,.4,.23-.62,.12-.96Z"/><path class="h" d="M90.73,18.88l-.15-.2c-.13,.11-.21,.29-.14,.45,.07,.15,.32,.2,.4,.06,.05-.09,.1-.25,.19-.2l-.3-.1Z"/><path class="h" d="M78.13,18.69c0,.24-.31,.4-.52,.28-.2-.12-.2-.47,0-.59,.2-.12,.51,.04,.52,.28v.03Z"/><path class="h" d="M81.13,21.18c.15,.12,.31,.3,.22,.47-.09,.16-.32,.12-.49,.07-.07-.02-.16-.06-.18-.14-.04-.18,.34-.22,.34-.41,.05-.03,.11,.05,.07,.09l.04-.08Z"/><path class="h" d="M93.12,34.42c-.05-.27-.19-.55-.44-.67-.25-.11-.62,.04-.63,.31,0,.08,.02,.16,.07,.23,.03,.04,.07,.07,.11,.1,.15,.11,.33,.2,.52,.18,.19-.02,.36-.2,.33-.38l.05,.23Z"/><path class="h" d="M98.9,37.54c-.08,.02-.17,.04-.22,.1-.05,.06-.06,.15-.1,.22-.08,.17-.29,.25-.41,.39-.21,.26-.12,.64,0,.95,.03,.07,.06,.16,.14,.17,.05,.01,.11-.02,.16-.04,.37-.14,.61,.21,.96,.17,.27-.03,.65-.36,.73-.61,.24-.77-.52-1.52-1.25-1.36Z"/><path class="h" d="M90.07,27.4c.05,.05,.09,.11,.1,.18-.18,0-.33-.14-.44-.28-.06-.08-.12-.19-.07-.27,.04-.06,.11-.08,.17-.12,.11-.09,.16-.28,.3-.27,.08,0,.13,.09,.14,.17,0,.08-.03,.16-.07,.23-.07,.16-.15,.31-.22,.47l.09-.1Z"/><path class="h" d="M88.13,29.35c0-.15-.24-.17-.33-.05-.08,.12-.06,.28-.02,.42,.2-.02,.38-.17,.44-.36h-.09Z"/><path class="h" d="M87.69,27.22c-.02-.07-.04-.14-.08-.2s-.12-.1-.19-.07c-.11,.04-.13,.19-.21,.27-.08,.08-.24,.09-.29,.2-.05,.11,.05,.23,.16,.25,.11,.02,.23-.03,.33-.09,.09-.05,.18-.11,.23-.2,.05-.09,.04-.22-.04-.28l.08,.12Z"/><path class="h" d="M87.37,26.32c0,.07-.09,.11-.15,.1-.07-.01-.12-.06-.16-.12-.02-.03-.04-.07-.04-.11,0-.09,.09-.18,.18-.17,.09,0,.17,.1,.16,.19,0,.09-.09,.17-.19,.18l.2-.06Z"/><path class="h" d="M77.68,28.21c0,.07-.09,.11-.15,.1-.07-.01-.12-.06-.16-.12-.02-.03-.04-.07-.04-.11,0-.09,.09-.18,.18-.17,.09,0,.17,.1,.16,.19,0,.09-.09,.17-.19,.18l.2-.06Z"/><path class="h" d="M88.23,25.98c.14-.02,.21-.24,.1-.34-.07,.02-.15,.04-.2,.1-.05,.06-.07,.15-.02,.21,.05,.06,.16,.06,.19,0l-.07,.03Z"/><path class="h" d="M78.39,15.35c.14-.02,.21-.24,.1-.34-.07,.02-.15,.04-.2,.1s-.07,.15-.02,.21c.05,.06,.16,.06,.19,0l-.07,.03Z"/><path class="h" d="M75.33,22.18c.08-.16,.09-.35,.01-.51l-.37,.21c-.06,.03-.12,.07-.15,.13-.07,.11,.02,.28,.14,.31,.13,.04,.27-.03,.34-.14h.03Z"/><path class="h" d="M79.31,23.64l.44,.64c-.07,.11-.24,.03-.34-.06s-.2-.19-.23-.32c-.03-.13,.05-.29,.18-.3l-.05,.03Z"/><path class="h" d="M97.43,29.98c.14-.13,.05-.4-.14-.44-.18-.05-.38,.09-.45,.27-.03,.08-.04,.17,0,.24,.06,.11,.2,.15,.33,.13s.23-.11,.32-.19h-.06Z"/><path class="h" d="M80.35,20.38c.13-.12,.17-.33,.1-.49-.13,0-.25,.06-.34,.15-.12,.12-.17,.33-.06,.46,.11,.13,.38,.07,.37-.1l-.07-.02Z"/><path class="h" d="M79.86,22.13c0,.12-.09,.23-.21,.25l-.22-.33c.1-.15,.36-.17,.47-.03l-.03,.1Z"/><path class="h" d="M94.3,31.88l-.37,.5s-.07,.1-.08,.16c0,.06,.02,.12,.04,.18,.08,.21,.22,.45,.44,.43,.24-.02,.33-.31,.44-.52,.19-.41,1.23-1.06,.84-1.59-.41-.56-1.09,.54-1.31,.85Z"/><path class="h" d="M96.35,29.05l.12,.11c-.11,.05-.23,.1-.35,.1-.12,0-.25-.07-.28-.19-.03-.12,.09-.26,.2-.22,.12,.04,.22,.11,.3,.21h.01Z"/><path class="h" d="M86.68,28.25c-.02,.1-.1,.19-.19,.21-.1,.02-.21-.01-.27-.1-.04-.06-.05-.15,.01-.18,.03-.01,.06-.01,.09,0,.13,0,.26,.02,.38,.03l-.02,.07v-.02Z"/><path class="h" d="M84.77,28.82c-.12-.05-.24,.05-.32,.15-.08,.1-.18,.21-.31,.19-.03,0-.07-.02-.09-.05-.04-.08,.06-.15,.12-.22,.04-.06,.05-.13,.08-.2,.07-.16,.24-.26,.41-.25,.08,.05,.12,.14,.11,.23-.01,.09-.08,.17-.17,.19l.17-.05Z"/><path class="h" d="M84.43,27.6l-.06-.13c-.08,0-.16,.05-.18,.13-.02,.08,.04,.17,.12,.17s.15-.08,.13-.16h-.01Z"/><path class="h" d="M81.03,27.33l-.06-.13c-.08,0-.16,.05-.18,.13-.02,.08,.04,.17,.12,.17s.15-.08,.13-.16h-.01Z"/><path class="h" d="M89.18,25.51c-.01,.09,.12,.15,.21,.12,.09-.03,.16-.1,.25-.14,.09-.04,.2-.04,.28,0,.05,.03,.1,.07,.1,.13,0,.04-.02,.07-.04,.11-.09,.16-.21,.32-.38,.41-.17,.09-.39,.09-.53-.03-.1-.08-.15-.23-.12-.35s.12-.24,.25-.28l-.02,.03Z"/><path class="h" d="M76.46,10.09c-.01,.09,.12,.15,.21,.12,.09-.03,.16-.1,.25-.14,.09-.04,.2-.04,.28,0,.05,.03,.1,.07,.1,.13,0,.04-.02,.07-.04,.11-.09,.16-.21,.32-.38,.41-.17,.09-.39,.09-.53-.03-.1-.08-.15-.23-.12-.35,.03-.13,.12-.24,.25-.28l-.02,.03Z"/><path class="h" d="M90.15,23.16c.05-.11-.02-.25-.13-.29-.11-.04-.24,0-.33,.07-.04,.03-.07,.09-.05,.14,.02,.03,.06,.04,.09,.05l.43,.08-.02-.04Z"/><path class="h" d="M76.37,14.91c.3-.08,.56-.27,.71-.54,.03-.05,.05-.1,.03-.15-.04-.11-.2-.08-.31-.09-.2,0-.37-.18-.56-.18-.16,0-.31,.1-.43,.2-.19,.14-.39,.39-.26,.58,.07,.1,.2,.13,.32,.15,.25,.03,.51,.02,.77-.03l-.26,.06Z"/><path class="h" d="M84.97,18.31c.18,.03,.27-.22,.28-.4,0-.12,0-.25-.08-.32-.12-.1-.3-.01-.43,.07-.11,.08-.23,.15-.34,.23-.05,.03-.11,.07-.11,.13,0,.05,.03,.1,.06,.14,.17,.21,.39,.37,.63,.49v-.34Z"/><path class="h" d="M82.95,23.98c1.6,.43,1.92-1.48,.68-2.16-1.3-.71-2.07,1.79-.68,2.16Z"/><path class="h" d="M90.15,29.7c-.12,.21-.47,.22-.61,.03,.12-.14,.25-.3,.42-.35,.18-.06,.41,.04,.44,.22l-.18,.27-.07-.17Z"/><path class="h" d="M85.72,32.75l-.16-.22c-.24,.2-.52,.36-.82,.45-.15,.05-.31,.08-.45,.15-.14,.08-.26,.21-.26,.37,0,.29,.37,.44,.66,.42,.37-.02,.75-.19,.96-.49,.22-.3,.24-.75,.01-1.04l-.31,.2,.35,.14Z"/><path class="h" d="M83.97,30.74c.07-.1-.02-.15-.14-.12s-.25,.12-.37,.21l-.8,.56c-.15,.11-.32,.24-.35,.35-.02,.1,.09,.12,.22,.09,.13-.04,.27-.12,.41-.2,.45-.27,.97-.64,1.07-.97l-.26,.06,.21,.02Z"/><path class="h" d="M83.11,29.16c0,.05-.06,.1-.11,.09-.05,0-.1-.04-.14-.08-.03-.03-.06-.07-.07-.11-.03-.08,.02-.18,.1-.22,.08-.04,.18-.03,.25,.03,.03,.02,.06,.06,.07,.1,0,.04-.02,.09-.06,.1l-.04,.1Z"/><path class="h" d="M86.25,21.25c.17-.17,.32-.36,.45-.57-.03-.06-.1-.08-.17-.09-.36-.04-.71,.28-.69,.64,0,.05,.01,.11,.05,.15,.05,.05,.13,.05,.2,.02,.06-.03,.11-.09,.15-.14h.01Z"/><path class="h" d="M87.26,25.06l-.07-.14c-.07,.03-.15,.06-.19,.13-.04,.07,.01,.18,.09,.17,.03,0,.05-.03,.07-.04l.21-.19-.12,.08Z"/><path class="h" d="M75.94,19.36c0-.12-.01-.25-.07-.36-.06-.11-.17-.2-.3-.19-.06,0-.12,.04-.16,.08-.13,.13-.12,.38,.02,.5,.14,.12,.38,.1,.5-.04h.01Z"/><path class="h" d="M80.25,14.64c.12,.13,.03,.39-.15,.4-.09-.05-.16-.12-.22-.2,.07-.09,.17-.14,.28-.16l.09-.05Z"/><path class="h" d="M81.77,17.41c.06-.09-.13-.18-.19-.09s0,.22,.08,.29c.09-.05,.14-.16,.12-.26v.06Z"/><path class="h" d="M90.97,33.05c-.05-.07-.1-.14-.15-.2-.06,.02-.11,.06-.16,.11,.03,.12,.18,.2,.29,.16l.02-.07Z"/><path class="h" d="M112.49,31.35l-.15-.2c-.06,.02-.11,.06-.16,.11,.03,.12,.18,.2,.29,.16l.02-.07Z"/><path class="h" d="M101.52,29.6c.23,.19,.35,.5,.3,.8,0,.04-.01,.07-.04,.1-.04,.04-.11,.03-.16,.02-.32-.06-.72-.19-.77-.51-.05-.28,.29-.55,.55-.44l.08,.26,.05-.23Z"/><path class="h" d="M96.56,56.12c.1-.49-.08-1.03-.46-1.36-.47,.16-.91,.51-1.04,1-.13,.48,.16,1.08,.65,1.16,.49,.09,.98-.53,.71-.95l.14,.15Z"/><path class="h" d="M95.08,51.62c-.05-.16-.12-.32-.21-.46-.01-.02-.02-.04-.04-.04-.02,0-.04,0-.06,.01-.15,.09-.17,.36-.35,.37-.03,0-.07,0-.09,.01-.04,.03-.02,.1,.02,.14,.19,.2,.57,.15,.71-.09v.08h.03Z"/><path class="h" d="M100.16,45.27c-.09-.31-.22-.6-.4-.87-.02-.03-.05-.07-.08-.08-.04-.01-.08,0-.12,.02-.29,.16-.33,.68-.66,.69-.06,0-.13-.01-.17,.02-.08,.06-.03,.19,.04,.26,.36,.38,1.08,.29,1.33-.16l.03,.14,.04-.03Z"/><path class="h" d="M96.05,48.76c.04-.23-.04-.47-.2-.64-.08,.07-.16,.13-.21,.23-.05,.09-.05,.22,.01,.29,.09,.11,.26,.08,.4,.05l-.06,.1,.06-.03Z"/><path class="h" d="M94.51,48.1c-.02-.06-.04-.13-.09-.17-.05-.04-.12-.04-.18-.04-.17,0-.34-.02-.51-.05,.18,.22,.36,.44,.54,.67,.01,.02,.03,.04,.04,.06,.02,.08-.06,.14-.09,.22-.03,.11,.07,.21,.17,.27,.73,.4,.23-.62,.13-.96Z"/><path class="h" d="M96.87,43.06l-.15-.2c-.13,.11-.21,.29-.14,.45,.07,.15,.32,.2,.4,.06,.05-.09,.1-.25,.19-.2l-.3-.1Z"/><path class="h" d="M99.26,58.6c-.05-.27-.19-.55-.44-.67-.25-.11-.62,.04-.63,.31,0,.08,.02,.16,.07,.23,.03,.04,.07,.07,.11,.1,.15,.11,.33,.2,.52,.18,.19-.02,.36-.2,.33-.38l.05,.23Z"/><path class="h" d="M96.21,51.58c.05,.05,.09,.11,.1,.18-.18,0-.33-.14-.44-.28-.06-.08-.12-.19-.07-.27,.04-.06,.11-.08,.17-.12,.11-.09,.16-.28,.3-.27,.08,0,.13,.09,.14,.17s-.03,.16-.07,.23l-.22,.47,.09-.1Z"/><path class="h" d="M94.37,50.16c.14-.02,.21-.24,.1-.34-.07,.02-.15,.04-.2,.1-.05,.06-.07,.15-.02,.21,.05,.06,.16,.06,.19,0l-.07,.03Z"/><path class="h" d="M103.57,54.16c.14-.13,.05-.4-.14-.44-.18-.05-.38,.09-.45,.27-.03,.08-.04,.17,0,.24,.06,.11,.2,.15,.33,.13,.12-.03,.23-.11,.32-.19h-.06Z"/><path class="h" d="M100.44,56.06c-.12,.17-.25,.33-.37,.5-.03,.05-.07,.1-.08,.16,0,.06,.02,.12,.04,.18,.08,.2,.22,.45,.44,.43,.24-.02,.33-.31,.44-.52,.19-.41,1.23-1.06,.84-1.59-.41-.56-1.09,.54-1.31,.85Z"/><path class="h" d="M102.49,53.23l.12,.11c-.11,.05-.23,.1-.35,.1-.12,0-.25-.07-.28-.19-.03-.12,.09-.26,.2-.22,.12,.04,.22,.11,.3,.21h.01Z"/><path class="h" d="M95.32,49.69c-.01,.09,.12,.15,.21,.12,.09-.03,.16-.1,.25-.14,.09-.04,.2-.04,.28,0,.05,.03,.1,.07,.1,.13,0,.04-.02,.07-.04,.11-.09,.16-.21,.32-.38,.41-.17,.09-.39,.09-.53-.03-.1-.08-.15-.23-.12-.35,.03-.13,.12-.24,.25-.28l-.02,.03Z"/><path class="h" d="M96.29,47.34c.05-.11-.02-.25-.13-.29s-.24,0-.33,.07c-.04,.03-.07,.09-.05,.14,.02,.03,.06,.04,.09,.05l.43,.08-.02-.04Z"/><path class="h" d="M96.29,53.88c-.12,.21-.47,.22-.61,.03,.12-.14,.25-.3,.42-.35,.18-.06,.42,.04,.44,.22l-.18,.27-.07-.17Z"/><path class="h" d="M97.1,57.23l-.15-.2c-.06,.02-.11,.06-.16,.11,.03,.12,.18,.2,.29,.16l.02-.07Z"/><path class="h" d="M107.66,53.78c.23,.19,.35,.5,.3,.8,0,.04-.01,.07-.04,.1-.04,.04-.11,.03-.16,.02-.32-.06-.72-.19-.77-.51-.05-.28,.29-.55,.55-.44l.08,.26,.05-.23Z"/><path class="h" d="M90.68,45.3c.23,.19,.35,.5,.3,.8,0,.04-.01,.07-.04,.1-.04,.04-.11,.03-.16,.02-.32-.06-.72-.19-.77-.51-.05-.28,.29-.55,.55-.44l.08,.26,.05-.23Z"/></g><g class="l"><path class="p" d="M27.24,9.39c-.67-.3-1.35-.59-2.03-.88,.31-.2,.6-.38,.91-.56,.49,.21,.98,.42,1.47,.64l1.07,.47c15.2,6.64,31.25,11.02,47.73,13,1.8,.22,3.61,.41,5.42,.59,4.37,.45,8.9,.93,13.28,1.81,1.99,.4,3.86,.87,5.63,1.42,.23,.38,.45,.75,.67,1.14-2-.66-4.16-1.23-6.48-1.7-4.35-.87-8.84-1.35-13.2-1.79-1.82-.19-3.63-.38-5.44-.59-16.55-1.99-32.7-6.39-47.97-13.07l-1.07-.46Z"/><path class="p" d="M106.93,40.31c-4.31-.29-8.46-1.77-12.49-3.23-.8-.29-1.61-.58-2.41-.86-10.88-3.78-21.45-5.52-31.42-5.19-2.17,.08-4.37,.25-6.5,.42-3.3,.27-6.71,.54-10.09,.45-10.06-.29-19.94-3.87-27.85-10.1-1.18-.93-2.21-1.86-3.09-2.79,.18-.23,.38-.45,.58-.67,.86,.93,1.87,1.84,3.05,2.78,7.75,6.11,17.45,9.63,27.33,9.91,3.32,.1,6.71-.17,9.99-.44,2.14-.17,4.36-.35,6.55-.42,10.07-.35,20.75,1.42,31.73,5.23,.8,.28,1.61,.57,2.42,.87,3.88,1.39,7.87,2.82,11.95,3.16,.09,.3,.17,.59,.24,.88Z"/></g><g class="l"><path class="p" d="M102.38,80c-.16,.31-.32,.61-.5,.91-.59,.04-1.17,.09-1.75,.11-4.24,.18-9.9-.45-12.86-4.55-.6-.85-1.07-1.8-1.52-2.73-.8-1.65-1.55-3.21-3-4.05-1.18-.67-2.59-.69-3.56-.58-2.37,.27-4.47,1.39-6.69,2.57-1.79,.95-3.64,1.94-5.64,2.44-3.01,.74-6.21,.35-9.04,0l-.32-.04c-6.44-.8-12.88-1.59-19.32-2.42-1.15-.15-2.46-.31-3.57-1-1.06-.65-2.02-2.01-1.63-3.45,.21-.78,.73-1.34,1.24-1.88,.32-.34,.63-.66,.85-1.03,.79-1.33,.21-3.1-.73-4.09-.93-.98-2.35-1.63-4.24-1.96-4.02-.68-8.16,.24-12.17,1.12-3.5,.78-7.13,1.58-10.78,1.35-2.39-.16-4.78-.79-6.97-1.83-.03-.33-.05-.67-.08-1.01,2.22,1.12,4.66,1.8,7.11,1.96,3.51,.23,7.08-.57,10.53-1.33,4.08-.91,8.3-1.84,12.49-1.13,2.08,.35,3.67,1.1,4.73,2.21,1.2,1.25,1.87,3.42,.86,5.14-.27,.45-.62,.82-.96,1.18-.45,.49-.88,.94-1.03,1.5-.26,.97,.44,1.98,1.25,2.49,.94,.59,2.15,.74,3.21,.87,6.44,.83,12.88,1.63,19.33,2.42l.31,.04c2.88,.36,5.87,.73,8.72,.02,1.9-.47,3.7-1.43,5.44-2.36,2.19-1.17,4.47-2.38,7-2.67,1.58-.18,2.99,.05,4.09,.69,1.69,.97,2.53,2.72,3.36,4.41,.43,.89,.87,1.82,1.43,2.6,2.73,3.79,8.09,4.37,12.1,4.2,.76-.03,1.53-.09,2.29-.15Z"/></g><g class="l"><path class="p" d="M71.13,106.13c-.31,.1-.59,.2-.9,.29-.86-1.08-1.54-2.28-2.19-3.46-.17-.3-.34-.59-.51-.89-3.36-5.83-7.65-10.1-12.42-12.38-5.5-2.6-11.82-2.77-17.83-2.57-7.09,.24-15.14,1.11-21.14,5.65l-.52-.69c6.19-4.69,14.41-5.58,21.64-5.83,6.12-.21,12.57-.03,18.23,2.66,4.93,2.34,9.36,6.75,12.8,12.73,.17,.3,.34,.6,.51,.9,.7,1.24,1.42,2.52,2.33,3.6Z"/></g><g class="l"><path class="p" d="M96.66,20.17c-.49-.1-.98-.19-1.45-.29-6.26-1.28-12.66-1.9-19.04-1.82-.77,0-1.53,.02-2.25-.27-1.58-.62-2.17-2.21-2.73-3.75-.24-.67-.5-1.36-.83-1.94-1.39-2.45-4.4-3.29-6.73-3.25-2.32,.03-4.62,.75-6.85,1.44l-1.1,.34c-6.16,1.87-11.13,2.43-15.63,1.77-4.64-.7-8.71-2.84-11.4-5.91,.27-.14,.53-.29,.8-.42,2.53,2.83,6.36,4.82,10.72,5.46,4.37,.65,9.22,.1,15.25-1.73l1.09-.34c2.29-.72,4.65-1.45,7.11-1.49,2.58-.03,5.93,.92,7.5,3.69,.37,.65,.63,1.37,.89,2.07,.52,1.42,1.01,2.76,2.23,3.24,.56,.23,1.24,.22,1.89,.21,6.48-.08,12.94,.53,19.25,1.84l.39,.08c.31,.35,.6,.71,.88,1.07Z"/></g></g></g></g></g></svg>