<?xml version="1.0" encoding="UTF-8"?><svg xmlns="http://www.w3.org/2000/svg" xmlns:xlink="http://www.w3.org/1999/xlink" viewBox="0 0 823.54 316.23"><defs><style>.g{fill:#fff;}.h{isolation:isolate;}.i{fill:url(#d);}.i,.j{opacity:.61;}.i,.j,.k,.l{mix-blend-mode:screen;}.m{fill:#b377ff;}.n{fill:#43c5f7;}.o{fill:#439fc2;}.j{fill:url(#e);}.p{mix-blend-mode:hard-light;}.k{opacity:.81;}.l{fill:url(#f);}</style><radialGradient id="d" cx="804.84" cy="111.14" fx="804.84" fy="111.14" r="4.68" gradientTransform="translate(1621.19) rotate(-180) scale(1 -1)" gradientUnits="userSpaceOnUse"><stop offset="0" stop-color="#ff006a"/><stop offset=".12" stop-color="#d00056"/><stop offset=".3" stop-color="#92003c"/><stop offset=".48" stop-color="#5d0027"/><stop offset=".64" stop-color="#350016"/><stop offset=".78" stop-color="#180009"/><stop offset=".91" stop-color="#060002"/><stop offset="1" stop-color="#000"/></radialGradient><radialGradient id="e" cx="599.3" cy="13.58" fx="599.3" fy="13.58" r="4.68" gradientTransform="translate(1152.58 -387.27) rotate(127.32) scale(1 -2.33)" xlink:href="#d"/><linearGradient id="f" x1="804.09" y1="67.62" x2="935.01" y2="67.62" gradientTransform="translate(1621.19) rotate(-180) scale(1 -1)" gradientUnits="userSpaceOnUse"><stop offset="0" stop-color="#c286ff"/><stop offset="1" stop-color="#000"/></linearGradient></defs><g class="h"><g id="a"/><g id="b"><g id="c"><g class="p"><path class="n" d="M665.8,73.24c-.84-.79-1.87-1.38-2.98-1.72-.18-.05-.36-.1-.55-.08-.36,.05-.63,.35-.78,.68-.36,.81-.11,1.82,.52,2.43,.63,.61,1.6,.83,2.46,.65,.47-.1,.94-.34,1.2-.75,.26-.41,.24-1.01-.13-1.32-.15,.03-.22,.25-.12,.36l.37-.25Z"/><path class="n" d="M587.88,48.88c-1.16,0-2.31,.28-3.34,.8-.17,.08-.33,.18-.45,.32-.23,.28-.21,.69-.09,1.03,.29,.83,1.17,1.39,2.05,1.4,.88,0,1.73-.5,2.23-1.22,.27-.4,.45-.89,.36-1.37-.09-.48-.53-.9-1.01-.87-.09,.12,0,.34,.16,.34l.1-.43Z"/><path class="n" d="M666.18,78.37c-.51-.42-1.25-.54-1.87-.32-.1,.65,.03,1.38,.52,1.83s1.35,.49,1.76-.03c.41-.52,0-1.48-.66-1.42l.26-.07Z"/><path class="n" d="M667.04,69.18c-.22-.05-.44-.06-.67-.04-.03,0-.06,0-.08,.02-.02,.02-.03,.05-.03,.08,0,.23,.31,.43,.21,.64-.02,.04-.05,.07-.04,.12,0,.07,.11,.08,.17,.06,.35-.09,.54-.57,.34-.88l.1,.03v-.03Z"/><path class="n" d="M666.26,61.86c-.41-.09-.84-.12-1.26-.08-.05,0-.11,.01-.14,.05-.04,.04-.05,.1-.05,.15,0,.44,.59,.81,.4,1.2-.03,.07-.09,.14-.08,.22,.02,.13,.2,.15,.33,.12,.66-.18,1.01-1.07,.64-1.65l.18,.06v-.06Z"/><path class="n" d="M677,56.71c-.41-.09-.84-.12-1.26-.08-.05,0-.11,.01-.14,.05-.04,.04-.05,.1-.05,.15,0,.44,.59,.81,.4,1.2-.03,.07-.09,.14-.08,.22,.02,.13,.2,.15,.33,.12,.66-.18,1.01-1.07,.64-1.65l.18,.06v-.06Z"/><path class="n" d="M657.27,74.37c-.24-.19-.58-.25-.87-.17,.03,.14,.05,.27,.13,.39,.08,.11,.22,.2,.35,.17,.18-.04,.26-.26,.31-.44l.08,.13v-.09Z"/><path class="n" d="M594.98,64.82c-.09,0-.18,.02-.24,.08-.06,.06-.08,.14-.1,.23-.05,.22-.12,.44-.21,.65,.34-.17,.68-.35,1.01-.52,.03-.01,.05-.03,.08-.03,.1,0,.16,.12,.25,.17,.13,.07,.3-.03,.4-.15,.71-.83-.73-.47-1.2-.43Z"/><path class="n" d="M651.15,57.75c-.08-.02-.18-.03-.25,0-.07,.04-.12,.12-.16,.19-.11,.2-.24,.39-.38,.57l1.12-.22s.06-.01,.09,0c.1,.02,.12,.16,.2,.24,.11,.11,.29,.05,.42-.03,.92-.6-.58-.65-1.04-.74Z"/><path class="n" d="M604.13,42.09c-.11,.02-.22,.03-.33,.05,.05,.22,.21,.43,.43,.44s.43-.25,.32-.44c-.07-.12-.23-.27-.12-.34l-.3,.29Z"/><path class="n" d="M658.03,52.71c.27,.16,.27,.62,0,.78-.27,.16-.67-.05-.69-.37-.02-.31,.37-.57,.65-.43l.04,.02Z"/><path class="n" d="M661.24,65.57c.23-.1,.55-.17,.68,.04,.13,.2-.06,.45-.23,.62-.07,.07-.17,.15-.27,.12-.24-.07-.04-.53-.26-.65,0-.07,.13-.09,.14-.02l-.06-.1Z"/><path class="n" d="M660.66,75.95c.09-.03,.19-.03,.28,0-.1,.22-.37,.29-.61,.33-.13,.02-.3,.03-.37-.09-.05-.08-.02-.18-.04-.27-.03-.18-.23-.37-.12-.52,.06-.09,.19-.1,.29-.05,.09,.05,.16,.13,.22,.22,.14,.18,.28,.37,.41,.55l-.06-.17Z"/><path class="n" d="M661.72,79.43c-.17-.09-.35,.18-.26,.35,.09,.17,.29,.24,.48,.29,.11-.25,.04-.55-.15-.74l-.07,.1Z"/><path class="n" d="M681.17,83.96c-.09-.02-.19-.05-.28-.03-.09,.02-.19,.08-.2,.17-.03,.15,.14,.27,.19,.42,.04,.15-.04,.33,.05,.46,.09,.12,.3,.09,.4-.03,.1-.12,.11-.29,.1-.44,0-.14-.02-.28-.09-.4s-.23-.19-.35-.13h.19Z"/><path class="n" d="M629.38,82.93c.07,.05,.08,.17,.02,.24-.06,.07-.15,.1-.24,.11-.05,0-.11,0-.16-.02-.11-.05-.15-.21-.09-.32,.07-.1,.22-.14,.33-.07s.14,.22,.09,.33l.05-.27Z"/><path class="n" d="M653.88,90.9c.07,.05,.08,.17,.02,.24-.06,.07-.15,.1-.24,.11-.05,0-.11,0-.16-.02-.11-.05-.15-.21-.09-.32,.07-.1,.22-.14,.33-.07,.1,.07,.14,.22,.09,.33l.05-.27Z"/><path class="n" d="M657.85,77.2c.07-.18-.15-.39-.33-.33-.03,.1-.04,.2,0,.3s.13,.17,.23,.15,.17-.15,.11-.23v.1Z"/><path class="n" d="M652.73,65.14c.07-.18-.15-.39-.33-.33-.03,.1-.04,.2,0,.3s.13,.17,.23,.16,.17-.15,.11-.23v.1Z"/><path class="n" d="M658.78,72.96c-.13-.19-.35-.32-.58-.33,0,.19,.01,.38,.02,.57,0,.09,0,.18,.05,.26,.09,.15,.33,.15,.46,.03s.13-.33,.05-.49v-.04Z"/><path class="n" d="M686.32,48.03l1.03-.12c.09,.15-.11,.3-.28,.36s-.34,.12-.51,.08c-.17-.04-.31-.24-.24-.4v.07Z"/><path class="n" d="M680.54,51.45c-.06-.25-.43-.3-.6-.12s-.13,.5,.03,.69c.07,.08,.17,.15,.28,.15,.17,0,.31-.14,.35-.3,.04-.16,.01-.33-.02-.5l-.04,.07Z"/><path class="n" d="M659.82,65.99c-.06-.23-.27-.4-.51-.42-.07,.15-.08,.33-.03,.49,.07,.21,.28,.4,.49,.36,.22-.04,.32-.4,.12-.5l-.07,.07Z"/><path class="n" d="M661.55,67.65c.14,.07,.21,.26,.16,.41l-.52,.06c-.12-.21,.02-.52,.26-.57l.09,.1Z"/><path class="n" d="M666.51,69.65l.2-.07c0,.16-.02,.33-.1,.47-.08,.14-.24,.25-.4,.21s-.25-.27-.13-.37c.12-.11,.27-.19,.43-.22v-.02Z"/><path class="n" d="M659.54,80.43c.11,.08,.16,.23,.13,.36-.03,.13-.15,.24-.28,.26-.09,.01-.21-.03-.21-.13,0-.04,.02-.07,.04-.11l.27-.43,.07,.06h-.02Z"/><path class="n" d="M656.73,81.92c.02,.17,.21,.24,.38,.28,.16,.04,.36,.08,.41,.24,.02,.04,.02,.09,0,.13-.07,.1-.21,.02-.33,0-.09-.01-.19,.02-.28,.02-.22,.02-.45-.12-.54-.32,0-.12,.09-.23,.2-.27s.25,0,.33,.08l-.16-.16Z"/><path class="n" d="M655.52,83.07l-.12,.15c.04,.1,.16,.16,.26,.13s.17-.15,.13-.25c-.04-.1-.19-.13-.26-.05v.02Z"/><path class="n" d="M657.3,87.21l-.12,.15c.04,.1,.16,.16,.26,.13,.1-.03,.17-.15,.13-.25s-.19-.13-.26-.05v.02Z"/><path class="n" d="M657.9,75.8c.1,.07,.25-.04,.27-.16,.02-.12-.02-.25,0-.38,.01-.13,.08-.25,.19-.33,.06-.04,.14-.07,.21-.04,.05,.02,.08,.07,.1,.11,.13,.21,.24,.45,.24,.69,0,.25-.13,.51-.36,.6-.16,.06-.35,.03-.49-.08s-.2-.29-.17-.46v.05Z"/><path class="n" d="M583.58,23.61c.1,.07,.25-.04,.27-.16,.02-.12-.02-.25,0-.38,.01-.13,.08-.25,.19-.33,.06-.04,.14-.07,.21-.04,.05,.02,.08,.07,.1,.11,.13,.21,.24,.45,.24,.69,0,.25-.13,.51-.36,.6-.16,.06-.35,.03-.49-.08s-.2-.29-.17-.46v.05Z"/><path class="n" d="M579.19,75.88c.1,.07,.25-.04,.27-.16,.02-.12-.02-.25,0-.38,.01-.13,.08-.25,.19-.33,.06-.04,.14-.07,.21-.04,.05,.02,.08,.07,.1,.11,.13,.21,.24,.45,.24,.69,0,.25-.13,.51-.36,.6-.16,.06-.35,.03-.49-.08-.13-.11-.2-.29-.17-.46v.05Z"/><path class="n" d="M645.38,64.11c.1,.07,.25-.04,.27-.16,.02-.12-.02-.25,0-.38,.01-.13,.08-.25,.19-.33,.06-.04,.14-.07,.21-.04,.05,.02,.08,.07,.1,.11,.13,.21,.24,.45,.24,.69,0,.25-.13,.51-.36,.6-.16,.06-.35,.03-.49-.08-.13-.11-.2-.29-.17-.46v.04Z"/><path class="n" d="M628.4,56.17c.1,.07,.25-.04,.27-.16,.02-.12-.02-.25,0-.38,.01-.13,.08-.25,.19-.33,.06-.04,.14-.07,.21-.04,.05,.02,.08,.07,.1,.11,.13,.21,.24,.45,.24,.69,0,.25-.13,.51-.36,.6-.16,.06-.35,.03-.49-.08-.13-.11-.2-.29-.17-.46v.05Z"/><path class="n" d="M655.77,73.21c-.1-.12-.3-.13-.42-.03-.12,.1-.16,.28-.12,.43,.02,.07,.06,.14,.13,.14,.05,0,.08-.04,.11-.08l.36-.45h-.06Z"/><path class="n" d="M715.29,61.08c.1-.39,.03-.82-.18-1.17-.04-.06-.08-.12-.15-.13-.15-.03-.22,.18-.3,.31-.13,.23-.43,.32-.56,.55-.11,.19-.07,.42-.04,.63,.05,.31,.21,.7,.52,.67,.16-.02,.28-.15,.37-.28,.2-.28,.34-.59,.44-.91l-.09,.34Z"/><path class="n" d="M638.69,41.12c.1-.39,.03-.82-.18-1.17-.04-.06-.08-.12-.15-.13-.15-.03-.22,.18-.3,.31-.13,.23-.43,.32-.57,.55-.11,.19-.07,.42-.04,.63,.05,.31,.21,.7,.52,.67,.16-.02,.28-.15,.37-.28,.2-.28,.34-.59,.44-.91l-.09,.34Z"/><path class="n" d="M660.28,59.31c.15-.2-.09-.45-.3-.57-.13-.08-.29-.16-.43-.1-.19,.08-.2,.34-.18,.55l.05,.54c0,.08,.02,.17,.09,.21,.06,.04,.14,.03,.2,.02,.35-.07,.68-.22,.97-.43l-.4-.2Z"/><path class="n" d="M665.64,65.2c1.49-1.6-.53-3.17-2.09-2.14-1.64,1.07,.79,3.53,2.09,2.14Z"/><path class="n" d="M665.33,54.11c1.49-1.6-.53-3.17-2.09-2.14-1.64,1.07,.79,3.53,2.09,2.14Z"/><path class="n" d="M663.4,77.29c.16,.27-.03,.69-.35,.73-.1-.23-.19-.47-.15-.72,.05-.24,.3-.46,.53-.37,.07,.13,.14,.25,.2,.38l-.24-.03Z"/><path class="n" d="M658.55,25.05c-.07-.15-.19-.08-.22,.09-.03,.16,0,.37,.01,.56,.05,.43,.1,.85,.16,1.28,.03,.24,.08,.53,.19,.63,.1,.09,.2-.03,.24-.2s.03-.39,.02-.6c-.03-.69-.15-1.53-.46-1.85l-.09,.34,.16-.23Z"/><path class="n" d="M658.16,83.64c.06-.04,.15,0,.18,.08s.01,.14,0,.21c-.02,.06-.04,.11-.08,.15-.08,.08-.23,.09-.32,.02s-.14-.19-.13-.31c0-.06,.03-.11,.08-.15,.05-.03,.12-.03,.15,.01l.14-.02Z"/><path class="n" d="M656.18,77.77h-.2c-.02,.1-.03,.21,.03,.3,.06,.09,.22,.1,.25,0,.01-.04,0-.08,0-.12-.03-.12-.06-.24-.09-.36l.02,.18Z"/><path class="n" d="M644.99,73.73c-.15-.07-.3-.14-.47-.14-.16,0-.34,.07-.4,.23-.03,.08-.03,.16,0,.24,.07,.24,.36,.38,.59,.29,.23-.09,.36-.38,.26-.61h.02Z"/><path class="n" d="M617.81,61.44c-.15-.07-.3-.14-.47-.14s-.34,.07-.4,.23c-.03,.08-.03,.16,0,.24,.07,.24,.36,.38,.59,.29,.23-.09,.36-.38,.26-.61h.02Z"/><path class="n" d="M653.06,62.52c.23-.06,.47,.21,.38,.43-.11,.07-.24,.11-.37,.13-.06-.13-.06-.29-.02-.42v-.13Z"/><path class="n" d="M440.3,10.09c.23-.06,.47,.21,.38,.43-.11,.07-.24,.11-.37,.13-.06-.13-.06-.29-.02-.42v-.13Z"/><path class="n" d="M667.81,78.43l-.33,.05c0,.09,0,.17,.03,.25,.16,.04,.34-.08,.37-.24l-.07-.06Z"/><path class="n" d="M581.87,55.74c-.84-.79-1.87-1.38-2.98-1.72-.18-.05-.36-.1-.55-.08-.36,.05-.63,.35-.78,.68-.36,.8-.11,1.82,.52,2.43,.63,.61,1.6,.83,2.46,.65,.47-.1,.94-.34,1.2-.75,.26-.41,.24-1.01-.13-1.32-.15,.03-.22,.25-.12,.36l.37-.25Z"/><path class="n" d="M518.05,37.51c-.84-.79-1.87-1.38-2.98-1.72-.18-.05-.36-.1-.55-.08-.36,.05-.63,.35-.78,.68-.36,.8-.11,1.82,.52,2.43,.63,.61,1.6,.83,2.46,.65,.47-.1,.94-.34,1.2-.75,.26-.41,.24-1.01-.13-1.32-.15,.03-.22,.25-.12,.36l.37-.25Z"/><path class="n" d="M560,82.8c-.51-.42-1.25-.54-1.87-.32-.1,.65,.03,1.38,.52,1.83,.48,.45,1.35,.49,1.76-.03,.41-.52,0-1.48-.66-1.42l.26-.07Z"/><path class="n" d="M551.09,78.81c-.24-.19-.58-.25-.87-.17,.03,.14,.05,.27,.13,.39,.08,.11,.22,.2,.35,.17,.18-.04,.26-.26,.31-.44l.08,.13v-.09Z"/><path class="n" d="M549.36,80.19c-.08-.02-.18-.03-.25,0-.07,.04-.12,.12-.16,.19-.11,.2-.24,.39-.38,.57,.37-.07,.74-.14,1.12-.22,.03,0,.06-.01,.09,0,.1,.02,.12,.16,.2,.24,.11,.11,.29,.05,.42-.03,.92-.6-.58-.65-1.04-.74Z"/><path class="n" d="M554.48,80.39c.09-.03,.19-.03,.28,0-.1,.22-.37,.29-.6,.33-.13,.02-.3,.03-.37-.09-.05-.08-.02-.18-.04-.27-.03-.18-.23-.37-.12-.52,.06-.09,.19-.1,.29-.05,.09,.05,.16,.13,.22,.22,.14,.18,.28,.37,.41,.55l-.06-.17Z"/><path class="n" d="M555.54,83.87c-.17-.09-.35,.18-.26,.35,.09,.17,.29,.24,.48,.29,.1-.25,.04-.55-.15-.74l-.07,.1Z"/><path class="n" d="M574.99,88.39c-.09-.02-.19-.05-.28-.03-.09,.02-.19,.08-.2,.17-.03,.15,.14,.27,.19,.42,.04,.15-.04,.33,.05,.46,.09,.12,.3,.09,.4-.03,.1-.12,.11-.29,.1-.44,0-.14-.02-.28-.09-.4s-.23-.19-.35-.13h.19Z"/><path class="n" d="M551.54,82.85c.07,.05,.08,.17,.02,.24-.06,.07-.15,.1-.24,.11-.05,0-.11,0-.16-.02-.11-.05-.15-.21-.09-.32,.07-.1,.22-.14,.33-.07s.14,.21,.09,.33l.05-.27Z"/><path class="n" d="M547.7,95.34c.07,.05,.08,.17,.02,.24-.06,.07-.15,.1-.24,.11-.05,0-.11,0-.16-.02-.11-.05-.15-.21-.09-.32,.07-.1,.22-.14,.33-.07s.14,.22,.09,.33l.05-.27Z"/><path class="n" d="M551.67,81.64c.07-.18-.15-.39-.33-.33-.03,.1-.04,.2,0,.3,.04,.09,.13,.17,.23,.15,.1-.02,.17-.15,.11-.23v.1Z"/><path class="n" d="M552.6,77.4c-.13-.19-.35-.32-.58-.33,0,.19,.01,.38,.02,.57,0,.09,0,.18,.05,.26,.09,.15,.33,.15,.46,.03,.12-.12,.13-.33,.05-.49v-.04Z"/><path class="n" d="M553.36,84.86c.11,.08,.16,.23,.13,.36-.03,.13-.15,.24-.28,.26-.09,.01-.21-.03-.21-.13,0-.04,.02-.07,.04-.11l.27-.43,.07,.06h-.02Z"/><path class="n" d="M550.55,86.35c.02,.17,.21,.24,.38,.28,.16,.04,.36,.08,.41,.24,.02,.04,.02,.09,0,.13-.07,.1-.21,.02-.33,0-.09-.01-.19,.02-.28,.02-.22,.02-.45-.12-.54-.32,0-.12,.09-.23,.2-.27,.11-.04,.25,0,.33,.08l-.16-.16Z"/><path class="n" d="M549.34,87.5l-.12,.15c.04,.1,.16,.16,.26,.13,.1-.03,.17-.15,.13-.25s-.19-.13-.26-.05v.02Z"/><path class="n" d="M551.12,91.65l-.12,.15c.04,.1,.16,.16,.26,.13,.1-.03,.17-.15,.13-.25s-.19-.13-.26-.05v.02Z"/><path class="n" d="M551.72,80.24c.1,.07,.25-.04,.27-.16,.02-.12-.02-.25,0-.38,.01-.13,.08-.25,.19-.33,.06-.04,.14-.07,.21-.04,.05,.02,.08,.07,.1,.11,.13,.21,.24,.45,.24,.69,0,.25-.13,.51-.36,.6-.16,.06-.35,.03-.49-.08s-.2-.29-.17-.46v.05Z"/><path class="n" d="M549.59,77.65c-.1-.12-.3-.13-.42-.03-.12,.1-.16,.28-.12,.43,.02,.07,.06,.14,.13,.14,.05,0,.08-.04,.11-.08l.36-.45h-.06Z"/><path class="n" d="M557.22,81.72c.16,.27-.03,.69-.35,.73-.1-.23-.19-.47-.15-.72,.05-.24,.3-.46,.53-.37l.2,.38-.24-.03Z"/><path class="n" d="M551.98,88.08c.06-.04,.15,0,.18,.08,.03,.07,.01,.14,0,.21-.02,.06-.04,.11-.08,.15-.08,.08-.23,.09-.32,.02-.09-.07-.14-.19-.13-.31,0-.06,.03-.11,.08-.15,.05-.03,.12-.03,.15,.01l.14-.02Z"/><path class="n" d="M550,82.2h-.2c-.02,.1-.03,.21,.03,.3,.06,.09,.22,.1,.25,0,.01-.04,0-.08,0-.12-.03-.12-.06-.24-.09-.36l.02,.18Z"/><path class="n" d="M577.64,47.37c-.51-.42-1.25-.54-1.87-.32-.1,.65,.03,1.38,.52,1.83,.48,.45,1.35,.49,1.76-.03,.41-.52,0-1.48-.66-1.42l.26-.07Z"/><path class="n" d="M565.49,66.91c-.08-.02-.18-.03-.25,0-.07,.04-.12,.12-.16,.19-.11,.2-.24,.39-.38,.57l1.12-.22s.06-.01,.09,0c.1,.02,.12,.16,.2,.24,.11,.11,.29,.05,.42-.03,.92-.6-.58-.65-1.04-.74Z"/><path class="n" d="M571.68,70.58c-.17-.09-.35,.18-.26,.35,.09,.17,.29,.24,.48,.29,.11-.25,.04-.55-.15-.74l-.07,.1Z"/><path class="n" d="M567.67,69.57c.07,.05,.08,.17,.02,.24-.06,.07-.15,.1-.24,.11-.05,0-.11,0-.16-.02-.11-.05-.15-.21-.09-.32,.07-.1,.22-.14,.33-.07,.1,.07,.14,.22,.09,.33l.05-.27Z"/><path class="n" d="M563.83,82.06c.07,.05,.08,.17,.02,.24-.06,.07-.15,.1-.24,.11-.05,0-.11,0-.16-.02-.11-.05-.15-.21-.09-.32,.07-.1,.22-.14,.33-.07s.14,.22,.09,.33l.05-.27Z"/><path class="n" d="M567.81,68.36c.07-.18-.15-.39-.33-.33-.03,.1-.04,.2,0,.3,.04,.09,.13,.17,.23,.16,.1-.02,.17-.15,.11-.23v.1Z"/><path class="n" d="M569.49,71.58c.11,.08,.16,.23,.13,.36-.03,.13-.15,.24-.28,.26-.09,.01-.21-.03-.21-.13,0-.04,.02-.07,.04-.11l.27-.43,.07,.06h-.02Z"/><path class="n" d="M566.68,73.07c.02,.17,.21,.24,.38,.28,.16,.04,.36,.08,.41,.24,.02,.04,.02,.09,0,.13-.07,.1-.21,.02-.33,0-.09-.01-.19,.02-.28,.02-.22,.02-.45-.12-.54-.32,0-.12,.09-.23,.2-.27s.25,0,.33,.08l-.16-.16Z"/><path class="n" d="M565.47,74.22l-.12,.15c.04,.1,.16,.16,.26,.13,.1-.03,.17-.15,.13-.25s-.19-.13-.26-.05v.02Z"/><path class="n" d="M567.26,78.36l-.12,.15c.04,.1,.16,.16,.26,.13,.1-.03,.17-.15,.13-.25-.04-.1-.19-.13-.26-.05v.02Z"/><path class="n" d="M567.85,66.95c.1,.07,.25-.04,.27-.16,.02-.12-.02-.25,0-.38,.01-.13,.08-.25,.19-.33,.06-.04,.14-.07,.21-.04,.05,.02,.08,.07,.1,.11,.13,.21,.24,.45,.24,.69,0,.25-.13,.51-.36,.6-.16,.06-.35,.03-.49-.08-.13-.11-.2-.29-.17-.46v.05Z"/><path class="n" d="M568.11,74.8c.06-.04,.15,0,.18,.08,.03,.07,.01,.14,0,.21-.02,.06-.04,.11-.08,.15-.08,.08-.23,.09-.32,.02s-.14-.19-.13-.31c0-.06,.03-.11,.08-.15s.12-.03,.15,.01l.13-.02Z"/><path class="n" d="M566.13,68.92h-.2c-.02,.1-.03,.21,.03,.3,.06,.09,.22,.1,.25,0,.01-.04,0-.08,0-.12-.03-.12-.06-.24-.09-.36l.02,.18Z"/><path class="n" d="M568.82,31.94c-.51-.42-1.25-.54-1.87-.32-.1,.65,.03,1.38,.52,1.83,.48,.45,1.35,.49,1.76-.03,.41-.52,0-1.48-.66-1.42l.26-.07Z"/><path class="n" d="M530.02,57.47c-.51-.42-1.25-.54-1.87-.32-.1,.65,.03,1.38,.52,1.83s1.35,.49,1.76-.03c.41-.52,0-1.48-.66-1.42l.26-.07Z"/><path class="n" d="M558.18,29.33c-.08-.02-.18-.03-.25,0-.07,.04-.12,.12-.16,.19-.11,.2-.24,.39-.38,.57l1.12-.22s.06-.01,.09,0c.1,.02,.12,.16,.2,.24,.11,.11,.29,.05,.42-.03,.92-.6-.58-.65-1.04-.74Z"/><path class="n" d="M598.28,26.23c-.17-.09-.35,.18-.26,.35,.09,.17,.29,.24,.48,.29,.11-.25,.04-.55-.15-.74l-.07,.1Z"/><path class="n" d="M560.36,31.99c.07,.05,.08,.17,.02,.24-.06,.07-.15,.1-.24,.11-.05,0-.11,0-.16-.02-.11-.05-.15-.21-.09-.32,.07-.1,.22-.14,.33-.07,.1,.07,.14,.22,.09,.33l.05-.27Z"/><path class="n" d="M556.52,44.48c.07,.05,.08,.17,.02,.24-.06,.07-.15,.1-.24,.11-.05,0-.11,0-.16-.02-.11-.05-.15-.21-.09-.32,.07-.1,.22-.14,.33-.07,.1,.07,.14,.22,.09,.33l.05-.27Z"/><path class="n" d="M560.5,30.78c.07-.18-.15-.39-.33-.33-.03,.1-.04,.2,0,.3,.04,.09,.13,.17,.23,.15,.1-.02,.17-.15,.11-.23v.1Z"/><path class="n" d="M562.18,34c.11,.08,.16,.23,.13,.36-.03,.13-.15,.24-.28,.26-.09,.01-.21-.03-.21-.13,0-.04,.02-.07,.04-.11l.27-.43,.07,.06h-.02Z"/><path class="n" d="M559.37,35.49c.02,.17,.21,.24,.38,.28,.16,.04,.36,.08,.41,.24,.02,.04,.02,.09,0,.13-.07,.1-.21,.02-.33,0-.09-.01-.19,.02-.28,.02-.22,.02-.45-.12-.54-.32,0-.12,.09-.23,.2-.27,.11-.04,.25,0,.33,.08l-.16-.16Z"/><path class="n" d="M558.16,36.64l-.12,.15c.04,.1,.16,.16,.26,.13,.1-.03,.17-.15,.13-.25-.04-.1-.19-.13-.26-.05v.02Z"/><path class="n" d="M559.95,40.79l-.12,.15c.04,.1,.16,.16,.26,.13s.17-.15,.13-.25-.19-.13-.26-.05v.02Z"/><path class="n" d="M598.95,32.52c.1,.07,.25-.04,.27-.16,.02-.12-.02-.25,0-.38,.01-.13,.08-.25,.19-.33,.06-.04,.14-.07,.21-.04,.05,.02,.08,.07,.1,.11,.13,.21,.24,.45,.24,.69,0,.25-.13,.51-.36,.6-.16,.06-.35,.03-.49-.08s-.2-.29-.17-.46v.05Z"/><path class="n" d="M560.8,37.22c.06-.04,.15,0,.18,.08s.01,.14,0,.21c-.02,.06-.04,.11-.08,.15-.08,.08-.23,.09-.32,.02s-.14-.19-.13-.31c0-.06,.03-.11,.08-.15,.05-.03,.12-.03,.15,.01l.14-.02Z"/><path class="n" d="M498.01,9.43c.06-.04,.15,0,.18,.08,.03,.07,.01,.14,0,.21-.02,.06-.04,.11-.08,.15-.08,.08-.23,.09-.32,.02s-.14-.19-.13-.31c0-.06,.03-.11,.08-.15s.12-.03,.15,.01l.14-.02Z"/><path class="n" d="M558.82,31.34h-.2c-.02,.1-.03,.21,.03,.3,.06,.09,.22,.1,.25,0,.01-.04,0-.08,0-.12l-.09-.36,.02,.18Z"/><path class="n" d="M549.7,74.93c-.15-.07-.3-.14-.47-.14-.16,0-.34,.07-.4,.23-.03,.08-.03,.16,0,.24,.07,.24,.36,.38,.59,.29,.23-.09,.36-.38,.26-.61h.02Z"/><path class="n" d="M561.63,82.86l-.33,.05c0,.09,0,.17,.03,.25,.16,.04,.34-.08,.37-.24l-.07-.06Z"/><path class="n" d="M695.02,116.51c-.51-.42-1.25-.54-1.87-.32-.1,.65,.03,1.38,.52,1.83,.48,.45,1.35,.49,1.76-.03,.41-.52,0-1.48-.66-1.42l.26-.07Z"/><path class="n" d="M686.12,112.52c-.24-.19-.58-.25-.87-.17,.03,.14,.05,.27,.13,.39s.22,.2,.35,.17c.18-.04,.26-.26,.31-.44l.08,.13v-.09Z"/><path class="n" d="M646.82,88.26c-.24-.19-.58-.25-.87-.17,.03,.14,.05,.27,.13,.39,.08,.11,.22,.2,.35,.17,.18-.04,.26-.26,.31-.44l.08,.13v-.09Z"/><path class="n" d="M684.38,113.9c-.08-.02-.18-.03-.25,0-.07,.04-.12,.12-.16,.19-.11,.2-.24,.39-.38,.57l1.12-.22s.06-.01,.09,0c.1,.02,.12,.16,.2,.24,.11,.11,.29,.05,.42-.03,.92-.6-.58-.65-1.04-.74Z"/><path class="n" d="M689.5,114.1c.09-.03,.19-.03,.28,0-.1,.22-.37,.29-.61,.33-.13,.02-.3,.03-.37-.09-.05-.08-.02-.18-.04-.27-.03-.18-.23-.37-.12-.52,.06-.09,.19-.1,.29-.05,.09,.05,.16,.13,.22,.22,.14,.18,.28,.37,.41,.55l-.06-.17Z"/><path class="n" d="M690.56,117.58c-.17-.09-.35,.18-.26,.35,.09,.17,.29,.24,.48,.29,.11-.25,.04-.55-.15-.74l-.07,.1Z"/><path class="n" d="M686.56,116.56c.07,.05,.08,.17,.02,.24-.06,.07-.15,.1-.24,.11-.05,0-.11,0-.16-.02-.11-.05-.15-.21-.09-.32,.07-.1,.22-.14,.33-.07,.1,.07,.14,.22,.09,.33l.05-.27Z"/><path class="n" d="M686.7,115.35c.07-.18-.15-.39-.33-.33-.03,.1-.04,.2,0,.3,.04,.09,.13,.17,.23,.15s.17-.15,.11-.23v.1Z"/><path class="n" d="M633.01,87.43c.07-.18-.15-.39-.33-.33-.03,.1-.04,.2,0,.3,.04,.09,.13,.17,.23,.15s.17-.15,.11-.23v.1Z"/><path class="n" d="M687.62,111.11c-.13-.19-.35-.32-.58-.33,0,.19,.01,.38,.02,.57,0,.09,0,.18,.05,.26,.09,.15,.33,.15,.46,.03s.13-.33,.05-.49v-.04Z"/><path class="n" d="M688.38,118.57c.11,.08,.16,.23,.13,.36-.03,.13-.15,.24-.28,.26-.09,.01-.21-.03-.21-.13,0-.04,.02-.07,.04-.11l.27-.43,.07,.06h-.02Z"/><path class="n" d="M685.57,120.06c.02,.17,.21,.24,.38,.28,.16,.04,.36,.08,.41,.24,.02,.04,.02,.09,0,.13-.07,.1-.21,.02-.33,0-.09-.01-.19,.02-.28,.02-.22,.02-.45-.12-.54-.32,0-.12,.09-.23,.2-.27s.25,0,.33,.08l-.16-.16Z"/><path class="n" d="M684.36,121.22l-.12,.15c.04,.1,.16,.16,.26,.13,.1-.03,.17-.15,.13-.25-.04-.1-.19-.13-.26-.05v.02Z"/><path class="n" d="M686.15,125.36l-.12,.15c.04,.1,.16,.16,.26,.13s.17-.15,.13-.25c-.04-.1-.19-.13-.26-.05v.02Z"/><path class="n" d="M686.74,113.95c.1,.07,.25-.04,.27-.16,.02-.12-.02-.25,0-.38,.01-.13,.08-.25,.19-.33,.06-.04,.14-.07,.21-.04,.05,.02,.08,.07,.1,.11,.13,.21,.24,.45,.24,.69,0,.25-.13,.51-.36,.6-.16,.06-.35,.03-.49-.08-.13-.11-.2-.29-.17-.46v.05Z"/><path class="n" d="M684.61,111.36c-.1-.12-.3-.13-.42-.03-.12,.1-.16,.28-.12,.43,.02,.07,.06,.14,.13,.14,.05,0,.08-.04,.11-.08,.12-.15,.24-.3,.36-.45h-.06Z"/><path class="n" d="M692.24,115.43c.16,.27-.03,.69-.35,.73-.1-.23-.19-.47-.15-.71,.05-.24,.3-.46,.53-.37l.2,.38-.24-.03Z"/><path class="n" d="M687,121.79c.06-.04,.15,0,.18,.08s.01,.14,0,.21c-.02,.06-.04,.11-.08,.15-.08,.08-.23,.09-.32,.02s-.14-.19-.13-.31c0-.06,.03-.11,.08-.15,.05-.03,.12-.03,.15,.01l.13-.02Z"/><path class="n" d="M685.02,115.91h-.2c-.02,.1-.03,.21,.03,.3,.06,.09,.22,.1,.25,0,.01-.04,0-.08,0-.12l-.09-.36,.02,.18Z"/><path class="n" d="M684.72,108.64c-.15-.07-.3-.14-.47-.14-.16,0-.34,.07-.4,.23-.03,.08-.03,.16,0,.24,.07,.24,.36,.38,.59,.29,.23-.09,.36-.38,.26-.61h.02Z"/><path class="n" d="M696.66,116.57l-.33,.05c0,.09,0,.17,.03,.25,.16,.04,.34-.08,.37-.24l-.07-.06Z"/><path class="n" d="M590.52,89.48c-.84-.79-1.87-1.38-2.97-1.72-.18-.05-.36-.1-.55-.08-.36,.05-.63,.35-.78,.68-.36,.8-.11,1.82,.52,2.43,.63,.61,1.6,.83,2.46,.65,.47-.1,.94-.34,1.2-.75,.26-.41,.24-1.01-.13-1.32-.15,.03-.22,.25-.12,.36l.37-.25Z"/><path class="n" d="M596.6,55c-.51-.42-1.25-.54-1.87-.32-.1,.65,.03,1.38,.52,1.83s1.35,.49,1.76-.03c.41-.52,0-1.48-.66-1.42l.26-.07Z"/><path class="n" d="M618.49,30.64c-.51-.42-1.25-.54-1.87-.32-.1,.65,.03,1.38,.52,1.83,.48,.45,1.35,.49,1.76-.03,.41-.52,0-1.48-.66-1.42l.26-.07Z"/><path class="n" d="M587.69,51.01c-.24-.19-.58-.25-.87-.17,.03,.14,.05,.27,.13,.39,.08,.11,.22,.2,.35,.17,.18-.04,.26-.26,.31-.44l.08,.13v-.09Z"/><path class="n" d="M585.95,52.39c-.08-.02-.18-.03-.25,0-.07,.04-.12,.12-.16,.19-.11,.2-.24,.39-.38,.57,.37-.07,.74-.14,1.12-.22,.03,0,.06-.01,.09,0,.1,.02,.12,.16,.2,.24,.11,.11,.29,.05,.42-.03,.92-.6-.58-.65-1.04-.74Z"/><path class="n" d="M581.55,46.5l-.33,.05c.05,.22,.21,.43,.43,.44,.22,.02,.43-.25,.32-.44-.07-.12-.23-.27-.12-.34l-.3,.29Z"/><path class="n" d="M591.08,52.59c.09-.03,.19-.03,.28,0-.1,.22-.37,.29-.61,.33-.13,.02-.3,.03-.37-.09-.05-.08-.02-.18-.04-.27-.03-.18-.23-.37-.12-.52,.06-.09,.19-.1,.29-.05,.09,.05,.16,.13,.22,.22,.14,.18,.28,.37,.41,.55l-.06-.17Z"/><path class="n" d="M592.14,56.07c-.17-.09-.35,.18-.26,.35,.09,.17,.29,.24,.48,.29,.11-.25,.04-.55-.15-.74l-.07,.1Z"/><path class="n" d="M588.14,55.06c.07,.05,.08,.17,.02,.24-.06,.07-.15,.1-.24,.11-.05,0-.11,0-.16-.02-.11-.05-.15-.21-.09-.32,.07-.1,.22-.14,.33-.07s.14,.22,.09,.33l.05-.27Z"/><path class="n" d="M588.27,53.84c.07-.18-.15-.39-.33-.33-.03,.1-.04,.2,0,.3s.13,.17,.23,.15,.17-.15,.11-.23v.1Z"/><path class="n" d="M583.15,41.77c.07-.18-.15-.39-.33-.33-.03,.1-.04,.2,0,.3,.04,.09,.13,.17,.23,.15,.1-.02,.17-.15,.11-.23v.1Z"/><path class="n" d="M589.2,49.6c-.13-.19-.35-.32-.58-.33,0,.19,.01,.38,.02,.57,0,.09,0,.18,.05,.26,.09,.15,.33,.15,.46,.03,.12-.12,.13-.33,.05-.49v-.04Z"/><path class="n" d="M589.96,57.06c.11,.08,.16,.23,.13,.36-.03,.13-.15,.24-.28,.26-.09,.01-.21-.03-.21-.13,0-.04,.02-.07,.04-.11l.27-.43,.07,.06h-.02Z"/><path class="n" d="M589.43,59.66c-.13,.11-.09,.31-.02,.47,.06,.16,.13,.34,.03,.48-.03,.04-.07,.07-.11,.07-.12,0-.14-.17-.19-.27-.04-.09-.12-.14-.18-.22-.14-.18-.15-.44-.03-.63,.1-.06,.24-.05,.34,.02,.1,.07,.15,.2,.12,.32l.05-.23Z"/><path class="n" d="M619.32,57.06c-.13,.11-.09,.31-.02,.47,.06,.16,.13,.34,.03,.48-.03,.04-.07,.07-.11,.07-.12,0-.14-.17-.19-.27-.04-.09-.12-.14-.18-.22-.14-.18-.15-.44-.03-.63,.1-.06,.24-.05,.34,.02,.1,.07,.15,.2,.12,.32l.05-.23Z"/><path class="n" d="M587.8,59.29l-.19-.02c-.05,.09-.04,.22,.04,.29,.08,.07,.22,.06,.28-.03s0-.23-.1-.25h-.02Z"/><path class="n" d="M585.35,63.08l-.19-.02c-.05,.09-.04,.22,.04,.29,.08,.07,.22,.06,.28-.03,.06-.09,0-.23-.1-.25h-.02Z"/><path class="n" d="M588.32,52.44c.1,.07,.25-.04,.27-.16,.02-.12-.02-.25,0-.38,.01-.13,.08-.25,.19-.33,.06-.04,.14-.07,.21-.04,.05,.02,.08,.07,.1,.11,.13,.21,.24,.45,.24,.69,0,.25-.13,.51-.36,.6-.16,.06-.35,.03-.49-.08-.13-.11-.2-.29-.17-.46v.05Z"/><path class="n" d="M586.19,49.85c-.1-.12-.3-.13-.42-.03-.12,.1-.16,.28-.12,.43,.02,.07,.06,.14,.13,.14,.05,0,.08-.04,.11-.08l.36-.45h-.06Z"/><path class="n" d="M593.82,53.92c.16,.27-.03,.69-.35,.73-.1-.23-.19-.47-.15-.72,.05-.24,.3-.46,.53-.37l.2,.38-.24-.03Z"/><path class="n" d="M588.79,61.8c.07,.03,.08,.13,.04,.19-.04,.06-.11,.09-.18,.11-.06,.02-.12,.03-.17,.02-.11-.02-.2-.14-.19-.26,0-.12,.08-.22,.18-.27,.05-.03,.11-.04,.16-.02,.05,.02,.09,.08,.07,.13l.09,.1Z"/><path class="n" d="M586.6,54.4h-.2c-.02,.1-.03,.21,.03,.3,.06,.09,.22,.1,.25,0,.01-.04,0-.08,0-.12-.03-.12-.06-.24-.09-.36l.02,.18Z"/><path class="n" d="M586.29,47.13c-.15-.07-.3-.14-.47-.14-.16,0-.34,.07-.4,.23-.03,.08-.03,.16,0,.24,.07,.24,.36,.38,.59,.29,.23-.09,.36-.38,.26-.61h.02Z"/><path class="n" d="M598.23,55.07l-.33,.05c0,.09,0,.17,.03,.25,.16,.04,.34-.08,.37-.24l-.07-.06Z"/><path class="n" d="M589.96,65.15c-.51-.42-1.25-.54-1.87-.32-.1,.65,.03,1.38,.52,1.83s1.35,.49,1.76-.03c.41-.52,0-1.48-.66-1.42l.26-.07Z"/><path class="n" d="M547.71,41.46c.09-.03,.19-.03,.28,0-.1,.22-.37,.29-.61,.33-.13,.02-.3,.03-.37-.09-.05-.08-.02-.18-.04-.27-.03-.18-.23-.37-.12-.52,.06-.09,.19-.1,.29-.05,.09,.05,.16,.13,.22,.22,.14,.18,.28,.37,.41,.55l-.06-.17Z"/><path class="n" d="M486.74,9.95c-.08-.02-.18-.03-.25,0-.07,.04-.12,.12-.16,.19-.11,.2-.24,.39-.38,.57,.37-.07,.74-.14,1.12-.22,.03,0,.06-.01,.09,0,.1,.02,.12,.16,.2,.24,.11,.11,.29,.05,.42-.03,.92-.6-.58-.65-1.04-.74Z"/><path class="n" d="M488.92,12.62c.07,.05,.08,.17,.02,.24-.06,.07-.15,.1-.24,.11-.05,0-.11,0-.16-.02-.11-.05-.15-.21-.09-.32,.07-.1,.22-.14,.33-.07s.14,.22,.09,.33l.05-.27Z"/><path class="n" d="M485.08,25.1c.07,.05,.08,.17,.02,.24-.06,.07-.15,.1-.24,.11-.05,0-.11,0-.16-.02-.11-.05-.15-.21-.09-.32,.07-.1,.22-.14,.33-.07,.1,.07,.14,.22,.09,.33l.05-.27Z"/><path class="n" d="M489.06,11.4c.07-.18-.15-.39-.33-.33-.03,.1-.04,.2,0,.3,.04,.09,.13,.17,.23,.16,.1-.02,.17-.15,.11-.23v.1Z"/><path class="n" d="M487.93,16.12c.02,.17,.21,.24,.38,.28,.16,.04,.36,.08,.41,.24,.02,.04,.02,.09,0,.13-.07,.1-.21,.02-.33,0-.09-.01-.19,.02-.28,.02-.22,.02-.45-.12-.54-.32,0-.12,.09-.23,.2-.27s.25,0,.33,.08l-.16-.16Z"/><path class="n" d="M486.72,17.27l-.12,.15c.04,.1,.16,.16,.26,.13,.1-.03,.17-.15,.13-.25-.04-.1-.19-.13-.26-.05v.02Z"/><path class="n" d="M488.51,21.41l-.12,.15c.04,.1,.16,.16,.26,.13,.1-.03,.17-.15,.13-.25s-.19-.13-.26-.05v.02Z"/><path class="n" d="M489.36,17.84c.06-.04,.15,0,.18,.08,.03,.07,.01,.14,0,.21-.02,.06-.04,.11-.08,.15-.08,.08-.23,.09-.32,.02-.09-.07-.14-.19-.13-.31,0-.06,.03-.11,.08-.15,.05-.03,.12-.03,.15,.01l.14-.02Z"/><path class="n" d="M487.38,11.96h-.2c-.02,.1-.03,.21,.03,.3,.06,.09,.22,.1,.25,0,.01-.04,0-.08,0-.12l-.09-.36,.02,.18Z"/><path class="n" d="M476.27,22.08c.09-.03,.19-.03,.28,0-.1,.22-.37,.29-.61,.33-.13,.02-.3,.03-.37-.09-.05-.08-.02-.18-.04-.27-.03-.18-.23-.37-.12-.52,.06-.09,.19-.1,.29-.05,.09,.05,.16,.13,.22,.22l.41,.55-.06-.17Z"/><path class="n" d="M572.35,52.13c-.17-.09-.35,.18-.26,.35,.09,.17,.29,.24,.48,.29,.11-.25,.04-.55-.15-.74l-.07,.1Z"/><path class="n" d="M581.49,65.2c.07,.05,.08,.17,.02,.24s-.15,.1-.24,.11c-.05,0-.11,0-.16-.02-.11-.05-.15-.21-.09-.32,.07-.1,.22-.14,.33-.07,.1,.07,.14,.21,.09,.33l.05-.27Z"/><path class="n" d="M583.32,67.21c.11,.08,.16,.23,.13,.36-.03,.13-.15,.24-.28,.26-.09,.01-.21-.03-.21-.13,0-.04,.02-.07,.04-.11l.27-.43,.07,.06h-.02Z"/><path class="n" d="M617.04,60.51c-.13,.11-.09,.31-.02,.47,.06,.16,.13,.34,.03,.48-.03,.04-.07,.07-.11,.07-.12,0-.14-.17-.19-.27-.04-.09-.12-.14-.18-.22-.14-.18-.15-.44-.03-.63,.1-.06,.24-.05,.34,.02,.1,.07,.15,.2,.12,.32l.05-.23Z"/><path class="n" d="M581.16,69.44l-.19-.02c-.05,.09-.04,.22,.04,.29,.08,.07,.22,.06,.28-.03s0-.23-.1-.25h-.02Z"/><path class="n" d="M578.71,73.23l-.19-.02c-.05,.09-.04,.22,.04,.29,.08,.07,.22,.06,.28-.03,.06-.09,0-.23-.1-.25h-.02Z"/><path class="n" d="M587.18,64.07c.16,.27-.03,.69-.35,.73-.1-.23-.19-.47-.15-.72s.3-.46,.53-.37l.2,.38-.24-.03Z"/><path class="n" d="M582.15,71.95c.07,.03,.07,.13,.04,.19-.04,.06-.11,.09-.18,.11-.06,.02-.12,.03-.17,.02-.11-.02-.2-.14-.19-.26,0-.12,.08-.22,.18-.27,.05-.03,.11-.04,.16-.02,.05,.02,.09,.08,.07,.13l.09,.1Z"/><path class="n" d="M591.59,65.21l-.33,.05c0,.09,0,.17,.03,.25,.16,.04,.34-.08,.37-.24l-.07-.06Z"/><path class="n" d="M576.52,65.71l-.33,.05c0,.09,0,.17,.03,.25,.16,.04,.34-.08,.37-.24l-.07-.06Z"/><path class="n" d="M617.83,212.94c1.11,.33,2.29,.41,3.43,.22,.18-.03,.37-.07,.53-.17,.3-.2,.41-.6,.39-.96-.04-.88-.71-1.68-1.55-1.94-.84-.27-1.8-.03-2.49,.52-.38,.3-.7,.72-.75,1.2-.05,.48,.24,1.01,.71,1.13,.12-.09,.09-.32-.06-.37l-.22,.39Z"/><path class="n" d="M615.74,195.61c.08,.02,.18,.04,.25,0,.08-.04,.12-.11,.16-.19,.11-.2,.24-.39,.39-.56-.37,.07-.75,.13-1.12,.2-.03,0-.06,.01-.09,0-.1-.02-.12-.16-.19-.24-.11-.11-.29-.06-.42,.03-.93,.58,.56,.66,1.02,.76Z"/><path class="n" d="M588.18,168.19c-.06-.07-.02-.19,.05-.24,.07-.05,.17-.05,.26-.03,.05,.01,.1,.03,.14,.07,.09,.08,.08,.25-.01,.33-.09,.08-.25,.06-.33-.03-.08-.09-.07-.25,0-.34l-.12,.24Z"/><path class="n" d="M634.08,189.69c-.08-.1-.25-.03-.31,.08-.06,.11-.06,.25-.1,.36-.05,.12-.15,.22-.27,.26-.07,.02-.16,.03-.21-.03-.04-.03-.05-.09-.07-.13-.06-.24-.1-.5-.02-.73,.07-.24,.27-.45,.52-.47,.17-.01,.35,.07,.44,.22,.09,.14,.1,.34,.02,.49v-.05Z"/><path class="n" d="M581.25,194.05c-.08-.1-.25-.03-.31,.08-.06,.11-.06,.25-.1,.36-.05,.12-.15,.22-.27,.26-.07,.02-.16,.03-.21-.03-.04-.03-.05-.09-.07-.13-.06-.24-.1-.5-.02-.73,.07-.24,.27-.45,.52-.47,.17-.01,.35,.07,.44,.22s.1,.34,.02,.49v-.05Z"/><path class="n" d="M592.93,192.13c.12,.11,.25,.22,.41,.28s.35,.03,.45-.1c.05-.06,.07-.15,.07-.23,0-.25-.23-.47-.48-.46s-.46,.26-.43,.51h-.02Z"/><path class="n" d="M625.6,208.14c.57,1,1.38,1.87,2.34,2.52,.15,.1,.32,.2,.5,.24,.36,.06,.71-.15,.94-.42,.58-.66,.64-1.7,.21-2.47-.43-.77-1.28-1.26-2.16-1.34-.48-.04-1,.04-1.37,.36-.37,.32-.53,.9-.26,1.3,.15,.02,.29-.17,.22-.31l-.43,.13Z"/><path class="n" d="M298.06,39.59c.57,1,1.38,1.87,2.34,2.52,.15,.1,.32,.2,.5,.24,.36,.06,.71-.15,.94-.42,.58-.66,.64-1.7,.21-2.47-.43-.77-1.28-1.26-2.16-1.34-.48-.04-1,.04-1.37,.36-.37,.32-.53,.9-.26,1.3,.15,.02,.29-.17,.22-.31l-.43,.13Z"/><path class="n" d="M641.78,178.96c.08,.05,.16,.1,.26,.11,.09,.01,.2-.02,.24-.11,.07-.14-.06-.3-.06-.45,0-.16,.14-.31,.09-.45-.05-.15-.26-.17-.39-.09-.13,.09-.19,.24-.23,.39-.04,.13-.07,.27-.03,.41s.16,.25,.3,.23l-.18-.04Z"/><path class="n" d="M627.18,217.39c.37,.55,1.04,.89,1.7,.85,.29-.59,.38-1.33,.05-1.9-.33-.57-1.15-.86-1.69-.49s-.43,1.41,.22,1.55h-.27Z"/><path class="n" d="M586.04,162.82c-.12,.15,.02,.42,.22,.41,.06-.08,.1-.18,.09-.28,0-.1-.08-.2-.18-.22-.1-.01-.2,.09-.17,.18l.03-.1Z"/><path class="n" d="M627.26,173.35c.57,1,1.38,1.87,2.34,2.52,.15,.1,.32,.2,.5,.24,.36,.06,.71-.15,.94-.42,.58-.66,.64-1.7,.21-2.47s-1.28-1.26-2.16-1.34c-.48-.04-1,.04-1.37,.36-.37,.31-.53,.9-.26,1.3,.15,.02,.29-.17,.22-.31l-.43,.13Z"/><path class="n" d="M685.37,21.78c.57,1,1.38,1.87,2.34,2.52,.15,.1,.32,.2,.5,.24,.36,.06,.71-.15,.94-.42,.58-.66,.64-1.7,.21-2.47-.43-.77-1.28-1.26-2.16-1.34-.48-.04-1,.04-1.37,.36s-.53,.9-.26,1.3c.15,.02,.29-.17,.22-.31l-.43,.13Z"/><path class="n" d="M611.3,204.52c.37,.55,1.04,.89,1.7,.85,.29-.59,.38-1.33,.05-1.9s-1.15-.86-1.69-.49c-.54,.38-.43,1.41,.22,1.55h-.27Z"/><path class="n" d="M618.64,210.95c.18,.25,.48,.41,.79,.42,.01-.14,.03-.28-.01-.41-.04-.13-.15-.25-.29-.26-.19-.01-.33,.17-.42,.33l-.04-.15-.03,.08Z"/><path class="n" d="M620.71,210.14c.08,.04,.16,.08,.24,.07,.08-.01,.15-.08,.21-.14,.16-.16,.34-.3,.53-.43-.38-.04-.75-.08-1.13-.12-.03,0-.06,0-.09-.02-.09-.05-.07-.19-.12-.28-.07-.14-.27-.13-.41-.09-1.05,.3,.36,.79,.77,1.01Z"/><path class="n" d="M615.87,208.45c-.09,0-.19-.02-.26-.08,.16-.18,.44-.17,.68-.14,.13,.02,.29,.06,.32,.19,.02,.09-.03,.18-.04,.27-.02,.19,.11,.42-.04,.53-.08,.07-.21,.04-.29-.03-.08-.07-.11-.18-.15-.27-.08-.22-.15-.43-.23-.65v.18Z"/><path class="n" d="M615.88,204.81c.14,.14,.38-.07,.35-.26-.03-.19-.21-.32-.37-.42-.17,.2-.2,.52-.07,.75l.09-.07Z"/><path class="n" d="M619.41,206.96c-.06-.07-.02-.19,.05-.24,.07-.05,.17-.05,.26-.03,.05,.01,.1,.03,.14,.07,.09,.08,.08,.25-.01,.33-.09,.08-.25,.06-.33-.03-.08-.09-.07-.25,0-.34l-.12,.24Z"/><path class="n" d="M618.92,208.08c-.12,.15,.02,.42,.22,.41,.06-.08,.1-.18,.09-.28,0-.1-.08-.2-.18-.22-.1-.01-.2,.09-.17,.18l.03-.1Z"/><path class="n" d="M616.79,211.86c.07,.22,.24,.41,.46,.49,.05-.18,.1-.37,.15-.55,.02-.09,.05-.18,.02-.26-.04-.17-.27-.24-.43-.16-.15,.08-.22,.28-.19,.45l-.02,.04Z"/><path class="n" d="M618.26,204.5c-.08-.11-.08-.26-.02-.38s.21-.18,.34-.16c.09,.01,.19,.09,.16,.18-.01,.04-.04,.06-.07,.09l-.39,.33-.05-.08,.02,.02Z"/><path class="n" d="M619.52,202.18c.15-.07,.17-.27,.16-.44-.01-.17-.02-.37,.11-.47,.04-.03,.08-.04,.13-.03,.11,.04,.08,.2,.1,.32,.01,.09,.07,.17,.1,.26,.08,.21,.02,.46-.15,.61-.12,.03-.25-.02-.32-.11-.07-.1-.08-.23-.02-.34l-.11,.2Z"/><path class="n" d="M590.19,195.87c.15-.07,.17-.27,.16-.44-.01-.17-.02-.37,.11-.47,.04-.03,.08-.04,.13-.03,.11,.04,.08,.2,.1,.32,.01,.09,.07,.17,.1,.26,.08,.21,.02,.46-.15,.61-.12,.03-.25-.02-.32-.11s-.08-.23-.02-.34l-.11,.2Z"/><path class="n" d="M620.98,203.01l.18,.07c.08-.07,.1-.2,.05-.29-.06-.09-.19-.12-.28-.05-.08,.07-.07,.22,.02,.27h.02Z"/><path class="n" d="M624.43,200.11l.18,.07c.08-.07,.1-.2,.05-.29-.06-.09-.19-.12-.28-.05-.08,.07-.07,.22,.02,.27h.02Z"/><path class="n" d="M618.47,209.41c-.08-.1-.25-.03-.31,.08-.06,.11-.06,.25-.1,.36-.05,.12-.15,.22-.27,.26-.07,.02-.16,.03-.21-.03-.04-.03-.05-.09-.07-.13-.06-.24-.1-.5-.02-.73,.07-.24,.27-.45,.52-.47,.17-.01,.35,.07,.44,.22,.09,.14,.1,.34,.02,.49v-.05Z"/><path class="n" d="M619.74,212.51c.05,.15,.25,.21,.39,.15,.14-.06,.23-.22,.24-.37,0-.07-.02-.15-.08-.17-.05-.01-.09,.02-.13,.04l-.48,.33,.05,.02Z"/><path class="n" d="M613.64,206.37c-.08-.31,.23-.65,.55-.6,.02,.25,.05,.51-.07,.73-.12,.22-.42,.35-.62,.2-.03-.14-.06-.28-.08-.42l.22,.1Z"/><path class="n" d="M620.76,200.31c-.05-.05-.03-.14,.02-.19,.06-.05,.13-.05,.21-.05,.06,0,.12,0,.17,.04,.1,.06,.15,.19,.11,.3-.04,.11-.14,.19-.26,.21-.06,0-.12,0-.16-.03-.04-.03-.06-.1-.03-.15l-.06-.12Z"/><path class="n" d="M620.68,208.04l.19,.07c.05-.09,.09-.2,.06-.3-.03-.1-.18-.16-.24-.08-.02,.03-.03,.07-.03,.11l-.02,.37,.04-.18Z"/><path class="n" d="M609.76,203.98l.33,.05c.03-.08,.05-.17,.05-.25-.14-.08-.35-.02-.42,.12l.05,.08Z"/><path class="n" d="M620.64,196.78c.37,.55,1.04,.89,1.7,.85,.29-.59,.38-1.33,.05-1.9-.33-.57-1.15-.86-1.69-.49-.54,.38-.43,1.41,.22,1.55h-.27Z"/><path class="n" d="M628.74,199.21c-.06-.07-.02-.19,.05-.24,.07-.05,.17-.05,.26-.03,.05,.01,.1,.03,.14,.07,.09,.08,.08,.25-.01,.33-.09,.08-.25,.06-.33-.03-.08-.09-.07-.25,0-.34l-.12,.24Z"/><path class="n" d="M627.59,196.76c-.08-.11-.08-.26-.01-.38,.07-.11,.21-.18,.34-.16,.09,.01,.19,.09,.16,.18-.01,.04-.04,.06-.07,.09l-.39,.33-.05-.08,.02,.02Z"/><path class="n" d="M593.38,193.24c.15-.07,.17-.27,.16-.44-.01-.17-.02-.37,.11-.47,.04-.03,.08-.04,.13-.03,.11,.04,.08,.2,.1,.32,.01,.09,.07,.17,.1,.26,.08,.21,.02,.46-.15,.61-.12,.03-.25-.02-.32-.11-.07-.1-.08-.23-.02-.34l-.11,.2Z"/><path class="n" d="M630.31,195.27l.18,.07c.08-.07,.1-.2,.05-.29-.06-.09-.19-.12-.28-.05-.08,.07-.07,.22,.02,.27h.02Z"/><path class="n" d="M633.76,192.36l.18,.07c.08-.07,.1-.2,.05-.29-.06-.09-.19-.12-.28-.05-.08,.07-.07,.22,.02,.27h.02Z"/><path class="n" d="M622.97,198.63c-.08-.31,.23-.65,.55-.6,.02,.25,.05,.51-.07,.73-.12,.22-.42,.35-.62,.2l-.08-.42,.22,.1Z"/><path class="n" d="M630.09,192.57c-.05-.05-.03-.14,.02-.19,.06-.05,.13-.05,.21-.05,.06,0,.12,0,.17,.04,.1,.06,.15,.19,.11,.3-.04,.11-.14,.19-.26,.21-.06,0-.12,0-.16-.03-.04-.03-.06-.1-.03-.15l-.06-.12Z"/><path class="n" d="M619.09,196.23c.11,.02,.22,.03,.33,.05,.03-.08,.05-.17,.05-.25-.14-.08-.35-.02-.42,.12l.05,.08Z"/><path class="n" d="M633.64,200.19l.33,.05c.03-.08,.05-.17,.05-.25-.14-.08-.35-.02-.42,.12l.05,.08Z"/><path class="n" d="M690.44,31.59c.36-.15,.8-.09,1.12,.15,.04,.03,.08,.06,.09,.11,.02,.07-.03,.14-.08,.2-.27,.34-.67,.72-1.08,.57-.36-.12-.46-.67-.17-.92l.36,.08-.24-.19Z"/><path class="n" d="M16.31,74.95c1.12-.29,2.16-.85,3.03-1.61,.14-.12,.28-.25,.36-.42,.15-.33,.04-.72-.17-1.02-.49-.73-1.48-1.06-2.34-.84-.86,.21-1.55,.91-1.85,1.74-.16,.46-.22,.98,0,1.41,.21,.44,.73,.74,1.19,.59,.06-.14-.09-.32-.24-.29l.02,.44Z"/><path class="n" d="M78.28,21.8c.61-.98,.98-2.11,1.09-3.26,.02-.19,.03-.38-.03-.55-.12-.34-.47-.55-.82-.63-.86-.19-1.8,.25-2.27,1-.47,.74-.5,1.73-.14,2.54,.19,.44,.52,.86,.97,1.03,.45,.17,1.04,.03,1.27-.4-.06-.14-.29-.17-.38-.04l.32,.31Z"/><path class="n" d="M11.76,72.55c.63-.21,1.12-.77,1.26-1.42-.5-.43-1.19-.71-1.83-.53s-1.13,.89-.91,1.51,1.25,.78,1.55,.19l-.08,.25Z"/><path class="n" d="M19.1,78.15c.16-.16,.29-.34,.39-.54,.01-.02,.02-.05,.02-.08,0-.03-.03-.05-.05-.07-.2-.12-.53,.04-.65-.16-.02-.04-.04-.08-.07-.1-.06-.03-.12,.05-.15,.11-.11,.35,.2,.76,.56,.75l-.08,.07h.03Z"/><path class="n" d="M25.71,81.37c.29-.3,.54-.65,.74-1.03,.02-.05,.05-.1,.04-.15,0-.05-.05-.09-.1-.12-.38-.22-.99,.07-1.23-.3-.04-.07-.07-.15-.14-.19-.12-.05-.24,.09-.27,.21-.2,.66,.37,1.43,1.06,1.42l-.15,.12,.06,.02Z"/><path class="n" d="M24.39,93.2c.29-.3,.54-.65,.74-1.03,.02-.05,.05-.1,.04-.15,0-.05-.06-.09-.1-.12-.38-.22-.99,.07-1.23-.3-.04-.07-.07-.15-.14-.19-.12-.05-.24,.09-.27,.21-.2,.66,.37,1.43,1.06,1.42l-.15,.12,.06,.02Z"/><path class="n" d="M19.87,67.11c.29-.11,.52-.36,.6-.65-.13-.05-.26-.1-.4-.09s-.28,.08-.33,.21c-.06,.18,.08,.36,.21,.49h-.16l.07,.04Z"/><path class="n" d="M61,19.36c.04-.08,.08-.16,.06-.25-.02-.08-.08-.14-.14-.2-.16-.16-.31-.33-.44-.52l-.1,1.13s0,.06-.02,.09c-.05,.09-.19,.07-.28,.12-.13,.07-.13,.27-.08,.42,.33,1.05,.78-.38,1-.79Z"/><path class="n" d="M37.21,70.73c.06-.06,.12-.13,.13-.22,0-.08-.04-.16-.08-.23-.11-.2-.21-.41-.28-.62-.14,.35-.27,.71-.41,1.06-.01,.03-.02,.06-.04,.08-.07,.08-.2,.02-.3,.04-.15,.03-.2,.22-.2,.38,.02,1.1,.86-.14,1.18-.49Z"/><path class="n" d="M75.41,39.17l.14-.31c-.21-.08-.48-.05-.61,.13s-.02,.5,.2,.5c.14,0,.35-.06,.35,.08l-.08-.41Z"/><path class="n" d="M37.83,79.25c-.28,.14-.67-.1-.66-.41,0-.31,.4-.54,.67-.39s.29,.61,.02,.78l-.04,.02Z"/><path class="n" d="M25.23,75.14c-.04,.25-.14,.56-.39,.56-.24,0-.35-.29-.4-.52-.02-.1-.04-.22,.04-.29,.19-.17,.47,.25,.69,.13,.06,.03,.01,.16-.06,.13h.12Z"/><path class="n" d="M16.73,69.15c-.02,.09-.07,.17-.14,.24-.13-.2-.05-.47,.04-.69,.05-.12,.13-.27,.27-.26,.09,0,.17,.08,.25,.11,.17,.07,.43,0,.51,.17,.04,.1-.02,.21-.11,.27s-.2,.07-.3,.07c-.23,.02-.46,.04-.69,.06l.18,.03Z"/><path class="n" d="M17.16,66.11c.12,.15,.41,.08,.45-.1-.07-.08-.15-.14-.25-.16-.1-.02-.21,.02-.25,.11-.04,.09,.03,.22,.14,.21l-.09-.06Z"/><path class="n" d="M30.11,68.16c.12,.15,.41,.08,.45-.1-.07-.08-.15-.14-.25-.16-.1-.02-.21,.02-.25,.11-.04,.09,.03,.22,.13,.21l-.09-.06Z"/><path class="n" d="M20.26,69.14c.23,0,.46-.13,.59-.32-.16-.1-.33-.19-.49-.29-.08-.05-.16-.09-.25-.09-.18,0-.31,.2-.27,.37,.04,.17,.21,.29,.39,.3l.03,.02Z"/><path class="n" d="M26.8,105.71c-.15,.31-.3,.62-.45,.93-.18,0-.2-.26-.16-.43s.08-.35,.21-.48,.37-.14,.46,.01l-.06-.03Z"/><path class="n" d="M26.96,98.99c.24,.08,.49-.21,.42-.45s-.35-.38-.6-.34c-.11,.02-.22,.06-.28,.15-.09,.14-.04,.34,.07,.46s.28,.19,.43,.25l-.04-.07Z"/><path class="n" d="M25.63,73.72c.22,.07,.49-.02,.63-.21-.09-.14-.24-.25-.4-.29-.22-.06-.49,.02-.57,.23-.08,.21,.17,.48,.36,.36l-.02-.1Z"/><path class="n" d="M23.3,74.3c-.14,.08-.33,.04-.43-.08l.23-.47c.24,.01,.43,.3,.34,.52l-.14,.03Z"/><path class="n" d="M18.98,77.45l-.05,.2c-.13-.09-.27-.19-.35-.33-.08-.14-.09-.34,.03-.45,.11-.11,.36-.07,.38,.09,.03,.16,.02,.33-.04,.48h.02Z"/><path class="n" d="M18.33,66.89c-.12,.05-.1,.23,0,.32,.09,.09,.22,.12,.32,.19,.1,.08,.17,.2,.18,.33,0,.08-.02,.16-.08,.2-.04,.03-.1,.03-.15,.03-.25,0-.5-.03-.72-.16-.21-.13-.36-.38-.32-.62,.03-.17,.16-.32,.32-.37s.36-.01,.48,.1h-.05Z"/><path class="n" d="M59.99,.11c-.12,.05-.1,.23,0,.32s.22,.12,.32,.19c.1,.08,.17,.2,.18,.33,0,.08-.02,.16-.08,.2-.04,.03-.1,.03-.15,.03-.25,0-.5-.03-.72-.17s-.36-.38-.32-.62c.03-.17,.16-.32,.33-.37,.16-.05,.36-.01,.48,.1h-.05Z"/><path class="n" d="M34.88,62.47c-.12,.05-.1,.23,0,.32s.22,.12,.32,.19c.1,.08,.17,.2,.18,.33,0,.08-.02,.16-.08,.2-.04,.03-.1,.03-.15,.03-.25,0-.5-.03-.72-.17-.21-.13-.36-.38-.32-.62,.03-.17,.16-.32,.33-.37,.16-.05,.36-.01,.48,.1h-.05Z"/><path class="n" d="M50.61,52.28c-.12,.05-.1,.23,0,.32s.22,.12,.32,.19c.1,.08,.17,.2,.18,.33,0,.08-.02,.16-.08,.2-.04,.03-.1,.03-.15,.03-.25,0-.5-.03-.72-.17s-.36-.38-.32-.62c.03-.17,.16-.32,.32-.37,.16-.05,.36-.01,.48,.1h-.05Z"/><path class="n" d="M21.65,66.45c.16-.02,.27-.19,.24-.34-.02-.16-.15-.28-.3-.33-.07-.02-.15-.02-.19,.04-.02,.04,0,.09,0,.14,.06,.18,.13,.36,.19,.54l.04-.05Z"/><path class="n" d="M.38,123.35c.28,.29,.68,.46,1.09,.46,.07,0,.15,0,.19-.06,.11-.11-.03-.28-.11-.42-.12-.23-.04-.54-.16-.77-.1-.19-.32-.29-.51-.37-.29-.12-.7-.2-.84,.08-.07,.14-.02,.32,.04,.47,.13,.31,.32,.6,.54,.86l-.24-.25Z"/><path class="n" d="M57.92,68.99c.28,.29,.68,.46,1.09,.46,.07,0,.15,0,.19-.06,.11-.11-.03-.28-.11-.42-.12-.23-.04-.54-.16-.77-.1-.19-.32-.29-.51-.37-.29-.12-.7-.2-.84,.08-.07,.14-.02,.32,.04,.47,.13,.31,.32,.6,.54,.86l-.24-.25Z"/><path class="n" d="M31.04,77.65c.09,.23,.43,.16,.65,.05,.14-.07,.29-.16,.32-.31,.03-.2-.18-.35-.37-.44-.16-.08-.32-.16-.48-.24-.07-.04-.16-.07-.23-.04-.06,.03-.1,.1-.12,.16-.12,.33-.17,.69-.14,1.05l.38-.23Z"/><path class="n" d="M23.21,79.07c.56,2.11,2.97,1.23,2.93-.64-.04-1.96-3.42-1.2-2.93,.64Z"/><path class="n" d="M32.78,84.69c.56,2.11,2.97,1.23,2.92-.64-.04-1.96-3.42-1.2-2.92,.64Z"/><path class="n" d="M14.15,70.76c-.32,0-.57-.39-.44-.68,.24,.04,.5,.09,.68,.25,.18,.17,.23,.5,.03,.65l-.43-.03,.15-.19Z"/><path class="n" d="M17.57,64.39l.11-.17c-.08-.07-.17-.14-.27-.14s-.2,.13-.13,.21c.02,.03,.06,.04,.1,.06l.35,.12-.16-.08Z"/><path class="n" d="M26.92,57.04c.14-.09,.28-.18,.37-.32,.09-.14,.12-.33,.02-.46-.05-.07-.12-.11-.2-.13-.24-.06-.51,.11-.56,.35-.05,.24,.13,.51,.38,.54v.02Z"/><path class="n" d="M51.76,40.51c.14-.09,.28-.18,.37-.32s.12-.33,.02-.46c-.05-.07-.12-.11-.2-.13-.24-.06-.51,.11-.56,.35-.05,.24,.13,.51,.38,.54v.02Z"/><path class="n" d="M32.15,69.83c-.07,.23-.42,.29-.56,.09,0-.13,.03-.26,.08-.38,.14,.02,.28,.1,.37,.21l.11,.07Z"/><path class="n" d="M10.84,73.9l.13-.31c-.07-.05-.15-.09-.23-.11-.12,.12-.11,.33,.01,.44l.09-.03Z"/><path class="n" d="M75.64,13.06c1.12-.3,2.16-.85,3.03-1.61,.14-.12,.28-.25,.36-.42,.15-.33,.04-.72-.17-1.02-.49-.73-1.48-1.06-2.34-.84-.86,.21-1.55,.91-1.85,1.74-.16,.46-.22,.98,0,1.41,.21,.44,.73,.74,1.19,.59,.06-.14-.09-.32-.24-.29l.02,.44Z"/><path class="n" d="M84.99,13.91c.63-.21,1.12-.77,1.26-1.42-.5-.43-1.19-.71-1.83-.53-.64,.17-1.13,.89-.91,1.51s1.25,.78,1.55,.19l-.08,.25Z"/><path class="n" d="M86.28,39.86c-.12,.05-.1,.23,0,.32,.09,.09,.22,.12,.32,.19,.1,.08,.17,.2,.18,.33,0,.08-.02,.16-.08,.2-.04,.03-.1,.03-.15,.03-.25,0-.51-.03-.72-.17-.21-.13-.36-.38-.32-.62,.03-.17,.16-.32,.32-.37,.16-.05,.36-.01,.48,.1h-.05Z"/><path class="n" d="M68.46,25.94c.63-.21,1.12-.77,1.26-1.42-.5-.43-1.19-.71-1.83-.53-.64,.17-1.13,.89-.91,1.51,.22,.62,1.25,.78,1.55,.19l-.08,.25Z"/><path class="n" d="M77.51,57.42c.63-.21,1.12-.77,1.26-1.42-.5-.43-1.19-.71-1.83-.53-.64,.17-1.13,.89-.91,1.51s1.25,.78,1.55,.19l-.08,.25Z"/><path class="n" d="M76.57,20.51c.29-.11,.52-.36,.6-.65-.13-.05-.26-.1-.4-.09s-.28,.08-.33,.21c-.06,.18,.08,.36,.21,.49h-.16l.07,.04Z"/><path class="n" d="M76.32,18.3c.06-.06,.12-.13,.13-.22,0-.08-.04-.16-.08-.23-.11-.2-.21-.41-.28-.62-.14,.35-.27,.71-.41,1.06-.01,.03-.02,.06-.04,.08-.07,.08-.2,.02-.3,.04-.15,.03-.2,.22-.2,.38,.02,1.1,.86-.14,1.18-.49Z"/><path class="n" d="M83.65,17.69l.14-.31c-.21-.08-.48-.05-.61,.13-.13,.18-.02,.5,.2,.5,.14,0,.35-.06,.35,.08l-.08-.41Z"/><path class="n" d="M73.43,22.54c-.02,.09-.07,.17-.14,.24-.13-.2-.05-.47,.04-.69,.05-.12,.13-.27,.27-.26,.09,0,.17,.08,.25,.11,.17,.07,.43,0,.51,.17,.04,.1-.02,.21-.11,.27-.09,.06-.2,.07-.3,.07-.23,.02-.46,.04-.69,.06l.18,.03Z"/><path class="n" d="M69.92,21.6c.17-.1,.03-.39-.16-.41-.19-.02-.36,.12-.5,.25,.15,.22,.45,.33,.71,.26l-.04-.11Z"/><path class="n" d="M72.9,18.74c-.08,.04-.19-.03-.22-.11-.03-.09,0-.18,.04-.26,.03-.05,.06-.09,.1-.12,.1-.07,.26-.02,.31,.09,.05,.11,0,.26-.11,.31-.11,.05-.26,0-.32-.1l.2,.18Z"/><path class="n" d="M73.86,19.5c.12,.15,.41,.08,.45-.1-.07-.08-.15-.14-.25-.16-.1-.02-.21,.02-.25,.11-.04,.09,.03,.22,.13,.21l-.09-.06Z"/><path class="n" d="M86.81,21.55c.12,.15,.41,.08,.45-.1-.07-.08-.15-.14-.25-.16-.1-.02-.21,.02-.25,.11-.04,.09,.04,.22,.14,.21l-.09-.06Z"/><path class="n" d="M76.97,22.53c.23,0,.46-.13,.59-.32-.16-.1-.33-.19-.49-.29-.08-.05-.16-.09-.25-.09-.18,0-.31,.2-.27,.37,.04,.17,.21,.29,.39,.3l.03,.02Z"/><path class="n" d="M70.24,19.22c-.13,.05-.28,.01-.37-.08-.09-.1-.12-.25-.07-.37,.04-.08,.14-.16,.22-.11,.03,.02,.05,.06,.07,.09,.07,.15,.15,.31,.22,.46l-.09,.03h.02Z"/><path class="n" d="M68.32,17.4c-.03-.17-.22-.24-.38-.27-.16-.03-.36-.07-.42-.23-.02-.04-.02-.09,0-.13,.06-.1,.21-.03,.33-.01,.09,.01,.19-.02,.28-.03,.22-.02,.45,.1,.55,.3,0,.12-.08,.23-.19,.28-.11,.04-.25,.02-.33-.07l.17,.16Z"/><path class="n" d="M54.67,44.12c-.03-.17-.22-.24-.38-.27-.16-.03-.36-.07-.42-.23-.02-.04-.02-.09,0-.13,.06-.1,.21-.03,.33-.01,.09,.01,.19-.02,.28-.03,.22-.02,.45,.1,.55,.3,0,.12-.08,.23-.19,.28-.11,.04-.25,.02-.33-.07l.17,.16Z"/><path class="n" d="M69.49,16.21l.12-.15c-.05-.09-.16-.15-.27-.12-.1,.03-.17,.16-.12,.25,.04,.1,.19,.12,.26,.04v-.02Z"/><path class="n" d="M67.57,12.12l.12-.15c-.05-.09-.16-.15-.27-.12-.1,.03-.17,.16-.12,.25s.19,.12,.26,.04v-.02Z"/><path class="n" d="M75.03,20.28c-.12,.05-.1,.23,0,.32,.09,.09,.22,.12,.32,.19,.1,.08,.17,.2,.18,.33,0,.08-.02,.16-.08,.2-.04,.03-.1,.03-.15,.03-.25,0-.5-.03-.72-.16-.21-.13-.36-.38-.32-.62,.03-.17,.16-.32,.32-.37,.16-.05,.36-.01,.48,.1h-.05Z"/><path class="n" d="M78.35,19.84c.16-.02,.27-.19,.24-.34-.02-.16-.15-.28-.3-.33-.07-.02-.15-.02-.19,.04-.02,.04,0,.09,0,.14,.06,.18,.13,.36,.19,.54l.04-.05Z"/><path class="n" d="M70.85,24.16c-.32,0-.57-.39-.44-.68,.24,.04,.5,.09,.68,.25,.18,.17,.23,.5,.03,.65-.14,0-.29-.02-.43-.03l.15-.19Z"/><path class="n" d="M66.83,15.72c-.06,.04-.15,0-.18-.07s-.02-.14,0-.21c.02-.06,.04-.11,.08-.16,.08-.08,.22-.09,.32-.03s.15,.19,.14,.3c0,.06-.03,.11-.07,.15-.04,.03-.12,.04-.15,0l-.13,.02Z"/><path class="n" d="M74.27,17.78l.11-.17c-.08-.07-.17-.14-.27-.14-.1,0-.2,.13-.13,.21,.02,.03,.06,.04,.1,.06l.35,.12-.16-.08Z"/><path class="n" d="M80.6,21.38c.14-.09,.28-.18,.37-.32,.09-.14,.12-.33,.02-.46-.05-.07-.12-.11-.2-.13-.24-.06-.51,.11-.56,.35-.05,.24,.13,.51,.38,.54v.02Z"/><path class="n" d="M67.54,27.29l.13-.31c-.07-.05-.15-.09-.23-.11-.12,.12-.11,.33,.01,.44l.09-.03Z"/><path class="n" d="M63.38,14.93c.63-.21,1.12-.77,1.26-1.42-.5-.43-1.19-.71-1.83-.53-.64,.17-1.13,.89-.91,1.51s1.25,.78,1.55,.19l-.08,.25Z"/><path class="n" d="M67.82,7.73c-.08,.04-.19-.03-.22-.11-.03-.09,0-.18,.04-.26,.03-.05,.06-.09,.1-.12,.1-.07,.26-.02,.31,.09,.05,.11,0,.26-.11,.31-.11,.05-.26,0-.32-.1l.2,.18Z"/><path class="n" d="M65.16,8.21c-.13,.05-.28,.01-.37-.08-.09-.1-.12-.25-.07-.37,.04-.08,.14-.16,.22-.11,.03,.02,.05,.06,.07,.09,.07,.15,.15,.31,.22,.46l-.09,.03h.02Z"/><path class="n" d="M52.95,40.35c-.03-.17-.22-.24-.38-.27-.16-.03-.36-.07-.42-.23-.02-.04-.02-.09,0-.13,.06-.1,.21-.03,.33-.01,.09,.01,.19-.02,.28-.03,.22-.02,.45,.1,.55,.3,0,.12-.08,.23-.19,.28-.11,.04-.25,.02-.33-.07l.17,.16Z"/><path class="n" d="M64.41,5.2l.12-.15c-.05-.09-.16-.15-.27-.12-.1,.03-.17,.16-.12,.25,.04,.1,.19,.12,.26,.04v-.02Z"/><path class="n" d="M62.49,1.11l.12-.15c-.05-.09-.16-.15-.27-.12-.1,.03-.17,.16-.12,.25s.19,.12,.26,.04v-.02Z"/><path class="n" d="M65.77,13.15c-.32,0-.57-.39-.44-.68,.24,.04,.5,.09,.68,.25,.18,.17,.23,.5,.03,.65l-.43-.03,.15-.19Z"/><path class="n" d="M61.75,4.71c-.06,.04-.15,0-.18-.07-.03-.07-.02-.14,0-.21,.02-.06,.04-.11,.08-.16,.08-.08,.22-.09,.32-.03,.1,.06,.15,.19,.14,.3,0,.06-.03,.11-.07,.15-.04,.03-.12,.04-.15,0l-.13,.02Z"/><path class="n" d="M62.46,16.28l.13-.31c-.07-.05-.15-.09-.23-.11-.12,.12-.11,.33,.01,.44l.09-.03Z"/><path class="n" d="M70.03,3.24l.13-.31c-.07-.05-.15-.09-.23-.11-.12,.12-.11,.33,.01,.44l.09-.03Z"/><path class="n" d="M38.55,117.92c-.07,.39-.35,.73-.72,.87-.05,.02-.1,.03-.14,.02-.07-.02-.1-.1-.13-.17-.14-.41-.25-.95,.09-1.22,.29-.24,.81-.03,.87,.34l-.25,.26,.29-.1Z"/></g><g class="k"><circle class="o" cx="499.63" cy="113.82" r=".46"/><circle class="o" cx="593.36" cy="74.23" r=".46"/><path class="o" d="M645.28,84.75c0,.25,.21,.46,.46,.46s.46-.21,.46-.46-.21-.46-.46-.46-.46,.21-.46,.46Z"/><circle class="o" cx="414.98" cy="193.96" r=".46"/><path class="o" d="M310.81,220.26c0,.25,.21,.46,.46,.46s.46-.21,.46-.46-.21-.46-.46-.46-.46,.21-.46,.46Z"/><path class="o" d="M456.95,220.72c0,.25,.21,.46,.46,.46s.46-.21,.46-.46-.21-.46-.46-.46-.46,.21-.46,.46Z"/><path class="o" d="M257.91,177.09c0,.25,.21,.46,.46,.46s.46-.21,.46-.46-.21-.46-.46-.46-.46,.21-.46,.46Z"/><path class="o" d="M269.3,242.16c0,.25,.21,.46,.46,.46s.46-.21,.46-.46-.21-.46-.46-.46-.46,.21-.46,.46Z"/><path class="o" d="M291.7,162.18c0,.25,.21,.46,.46,.46s.46-.21,.46-.46-.21-.46-.46-.46-.46,.21-.46,.46Z"/><path class="o" d="M621.76,293.87c0,.25,.21,.46,.46,.46s.46-.21,.46-.46-.21-.46-.46-.46-.46,.21-.46,.46Z"/><path class="o" d="M576.09,252.61c0,.25,.21,.46,.46,.46s.46-.21,.46-.46-.21-.46-.46-.46-.46,.21-.46,.46Z"/><path class="o" d="M580.26,315.77c0,.25,.21,.46,.46,.46s.46-.21,.46-.46-.21-.46-.46-.46-.46,.21-.46,.46Z"/><path class="o" d="M602.66,235.79c0,.25,.21,.46,.46,.46s.46-.21,.46-.46-.21-.46-.46-.46-.46,.21-.46,.46Z"/><path class="o" d="M606.8,165.23c0,.25,.21,.46,.46,.46s.46-.21,.46-.46-.21-.46-.46-.46-.46,.21-.46,.46Z"/><path class="o" d="M372.3,194.85c0,.25,.21,.46,.46,.46s.46-.21,.46-.46-.21-.46-.46-.46-.46,.21-.46,.46Z"/><path class="o" d="M327.07,219.18c0,.25,.21,.46,.46,.46s.46-.21,.46-.46-.21-.46-.46-.46-.46,.21-.46,.46Z"/><path class="o" d="M200.74,184.91c0,.25,.21,.46,.46,.46s.46-.21,.46-.46-.21-.46-.46-.46-.46,.21-.46,.46Z"/><path class="o" d="M159.24,206.8c0,.25,.21,.46,.46,.46s.46-.21,.46-.46-.21-.46-.46-.46-.46,.21-.46,.46Z"/><circle class="o" cx="217.46" cy="183.82" r=".46"/><path class="o" d="M357.71,77.93c0,.41,.34,.75,.75,.75s.75-.34,.75-.75-.34-.75-.75-.75-.75,.34-.75,.75Z"/><path class="o" d="M444.54,59.72c0,.41,.34,.75,.75,.75s.75-.34,.75-.75-.34-.75-.75-.75-.75,.34-.75,.75Z"/><path class="o" d="M400.09,124.59c0,.41,.34,.75,.75,.75s.75-.34,.75-.75-.34-.75-.75-.75-.75,.34-.75,.75Z"/><circle class="o" cx="216.63" cy="148.32" r=".75"/><path class="o" d="M508.05,129.95c0,.41,.34,.75,.75,.75s.75-.34,.75-.75-.34-.75-.75-.75-.75,.34-.75,.75Z"/><circle class="o" cx="188.12" cy="115.32" r=".46"/><circle class="o" cx="46.95" cy="79.43" r=".75"/><circle class="o" cx="133.78" cy="61.22" r=".75"/><circle class="o" cx="89.33" cy="126.09" r=".75"/><circle class="o" cx="197.28" cy="131.45" r=".75"/></g><g><path class="i" d="M811.67,111.14c0,2.58,2.09,4.68,4.68,4.68s4.68-2.1,4.68-4.68-2.09-4.68-4.68-4.68-4.68,2.1-4.68,4.68Z"/><path class="j" d="M811.57,112.22c4.79,3.65,9.95,4.95,11.51,2.89,1.57-2.06-1.05-6.68-5.84-10.34-4.79-3.65-9.95-4.95-11.51-2.89-1.57,2.06,1.05,6.68,5.84,10.34Z"/><path class="l" d="M817.08,110.34s-12.36-9.72-29.89-22.74c-.19-.14-.38-.28-.58-.42-4.69-.85-7.69-1.85-8.89-6.57-.21-.15-.41-.3-.62-.45-10.6-7.75-22.38-16.16-34.13-24.14-.19-.13-.38-.26-.57-.39-2.48-6.3-4.48-5.3-9.62-6.43-.19-.12-.37-.25-.56-.37-4.65-3.05-9.23-5.98-13.66-8.71-.19-.12-.39-.24-.58-.36-5.06,.57-7.06-.43-8.99-5.37-.18-.11-.36-.21-.54-.31-1.55-.89-3.06-1.74-4.55-2.56-.19-.1-.37-.2-.55-.31-1.42-6.87-3.42-4.87-8.93-4.61-.34-.14-.66-.3-.99-.45-2.6-1.22-5.03-2.25-7.25-3.06,0,0,2.53,1.37,7.12,4.02,.18,.11,.37,.21,.56,.32,6.06-1.09,6.06-.09,9.02,5.3,.27,.16,.54,.33,.82,.49,1.11,.66,2.26,1.36,3.45,2.08,.23,.14,.45,.28,.68,.42,2.08,4.61,4.08,3.61,8.93,5.49,.27,.17,.53,.33,.8,.5,4.29,2.68,8.95,5.64,13.91,8.86,.23,.15,.46,.3,.69,.45,5.75-1.68,6.75,2.32,9.3,6.1,.25,.18,.5,.35,.74,.51,10.4,6.94,21.81,14.83,33.86,23.59,.25,.18,.5,.36,.74,.54,2.11,3.57,4.11,5.57,9.29,6.85,.17,.13,.34,.25,.51,.38,9.66,7.23,19.63,14.97,29.73,23.19,0,0,.91-.18,.73-1.83Z"/><path class="m" d="M811.46,108.25c-.3-.47-.49-1.02-.55-1.58,0-.09-.02-.18,.01-.27,.05-.17,.23-.27,.4-.31,.42-.1,.88,.11,1.11,.47,.23,.36,.25,.84,.08,1.23-.09,.22-.25,.42-.47,.51-.22,.09-.51,.02-.62-.18,.03-.07,.14-.08,.18-.02l-.15,.15Z"/><path class="m" d="M814.06,111.29c-.3-.47-.49-1.02-.55-1.58,0-.09-.02-.18,.01-.27,.05-.17,.23-.27,.4-.31,.42-.1,.88,.11,1.11,.47,.23,.36,.25,.84,.08,1.23-.09,.22-.25,.42-.47,.51-.22,.09-.51,.02-.62-.18,.03-.07,.14-.08,.18-.02l-.15,.15Z"/><path class="m" d="M794.61,93.54c-.21-.33-.35-.72-.39-1.11,0-.06-.01-.13,0-.19,.04-.12,.16-.19,.28-.22,.29-.07,.62,.08,.78,.33s.18,.59,.06,.87c-.06,.15-.17,.3-.33,.36-.15,.06-.36,.02-.44-.13,.02-.05,.1-.06,.13-.02l-.11,.11Z"/><path class="m" d="M813.87,108.89c-.15-.28-.15-.65,.02-.92,.32,.01,.66,.14,.83,.41s.11,.69-.18,.84c-.28,.15-.7-.14-.62-.44l-.06,.12Z"/><path class="m" d="M809.41,108.47c0-.11,.01-.22,.04-.32,0-.01,0-.03,.02-.03,.01,0,.03,0,.04,0,.11,.02,.18,.19,.28,.16,.02,0,.04-.02,.06-.01,.03,.01,.03,.06,.01,.09-.08,.16-.32,.2-.45,.08v.05h0Z"/><path class="m" d="M807.91,102.91c0-.21,.02-.41,.08-.61,0-.02,.01-.05,.04-.06,.02-.02,.05-.02,.08-.01,.21,.04,.33,.35,.54,.3,.04,0,.07-.03,.11-.02,.06,.02,.05,.11,.03,.17-.15,.3-.6,.38-.85,.16v.09h-.01Z"/><path class="m" d="M817.58,111.39c0-.2,.02-.41,.08-.61,0-.02,.01-.05,.04-.06,.02-.02,.05-.02,.08-.01,.21,.04,.33,.35,.54,.3,.04,0,.07-.03,.11-.02,.06,.02,.05,.11,.03,.17-.15,.3-.6,.38-.85,.16v.09h-.01Z"/><path class="m" d="M775.74,79.57c-.01,.15-.1,.29-.22,.37-.04-.05-.08-.11-.1-.17-.02-.06,0-.14,.05-.18,.07-.05,.18-.01,.26,.03l-.02-.07,.03,.03Z"/><path class="m" d="M805.41,99.85s0-.09,.03-.12c.02-.03,.07-.05,.1-.06,.11-.03,.21-.08,.31-.13l-.21,.51s-.01,.03-.01,.04c0,.05,.07,.07,.09,.12,.04,.06,0,.15-.05,.2-.37,.38-.26-.33-.26-.56Z"/><path class="m" d="M800.95,96.17s0-.09,.03-.12c.02-.03,.07-.05,.1-.06,.11-.03,.21-.08,.31-.13l-.21,.51s-.01,.03-.01,.04c0,.05,.07,.07,.09,.12,.04,.06,0,.15-.05,.2-.37,.38-.26-.33-.26-.56Z"/><path class="m" d="M802.38,102.67c.05,.14,.27,.19,.37,.07,.1-.11,.04-.33-.11-.36-.15-.04-.3,.12-.27,.27v.02Z"/><path class="m" d="M808.22,105.37c-.07,.1-.13,.25-.04,.33,.08,.08,.22,.01,.31-.05,.04-.03,.09-.07,.08-.12-.01-.12-.25-.07-.29-.18-.03,0-.06,.05-.02,.07l-.04-.04Z"/><path class="m" d="M775.88,79.37c-.07,.1-.13,.25-.04,.33,.08,.08,.22,.01,.31-.05,.04-.03,.09-.07,.08-.12-.01-.12-.25-.07-.29-.18-.03,0-.06,.05-.02,.07l-.04-.04Z"/><path class="m" d="M800.58,98c-.07,.1-.13,.25-.04,.33,.08,.08,.22,.01,.31-.05,.04-.03,.09-.07,.08-.12-.01-.12-.25-.07-.29-.18-.03,0-.06,.05-.02,.07l-.04-.04Z"/><path class="m" d="M813.23,106.04s-.03,.09-.03,.13c.11-.03,.17-.15,.21-.26,.02-.06,.04-.14,0-.18-.03-.03-.08-.03-.13-.04-.08-.03-.15-.14-.24-.11-.05,.02-.06,.08-.05,.13,.01,.05,.05,.09,.08,.13l.23,.25-.07-.05Z"/><path class="m" d="M804.37,96.83s-.03,.09-.03,.13c.11-.03,.17-.15,.21-.26,.02-.06,.04-.14,0-.18-.03-.03-.08-.03-.13-.04-.08-.03-.15-.14-.24-.11-.05,.02-.06,.08-.05,.13s.05,.09,.08,.13l.23,.25-.07-.05Z"/><path class="m" d="M814.79,106.87c-.03-.09,.12-.15,.19-.09,.07,.06,.09,.16,.1,.26-.13,.03-.27-.03-.34-.14l.05-.02Z"/><path class="g" d="M820.98,104.17s.07,.05,.11,.03c.04-.02,.06-.06,.07-.11,0-.03,0-.05,0-.08-.02-.06-.09-.09-.14-.07-.06,.02-.08,.09-.06,.15,.02,.06,.09,.09,.15,.07h-.13Z"/><path class="m" d="M808.79,101.27c-.09,.02-.17-.11-.13-.19,.05,0,.1,0,.14,.02,.04,.03,.07,.08,.05,.12-.02,.05-.09,.07-.12,.03h.05Z"/><path class="m" d="M811.97,104.87c-.08-.08-.12-.2-.11-.31l.27,.06s.09,.02,.12,.05c.06,.06,.04,.17-.03,.22-.07,.05-.17,.03-.24-.02h-.02Z"/><path class="m" d="M789.34,90.69c-.08-.08-.12-.2-.11-.31l.27,.06s.09,.02,.12,.05c.06,.06,.04,.17-.03,.22-.07,.05-.17,.03-.24-.02h-.02Z"/><path class="m" d="M808.55,104.73c-.1-.05-.17-.17-.16-.28,.08-.02,.17,0,.24,.03,.1,.05,.17,.17,.13,.27-.04,.1-.22,.11-.25,.01l.04-.03Z"/><path class="m" d="M809.19,105.71c.02,.07,.1,.12,.18,.11l.08-.24c-.09-.08-.25-.04-.29,.07l.04,.05Z"/><path class="m" d="M809.69,108.26l-.05,.09c.08,0,.16,.02,.23,0,.07-.02,.14-.09,.14-.17,0-.08-.1-.14-.17-.09-.06,.05-.12,.11-.14,.18h-.01Z"/><path class="m" d="M817.24,110.16l-.05,.09c.08,0,.16,.02,.23,0,.07-.02,.14-.09,.14-.17s-.1-.14-.17-.09c-.06,.05-.12,.11-.14,.18h-.01Z"/><path class="m" d="M815.46,105.91c.03,.06,.09,.1,.16,.09,.07,0,.13-.05,.15-.11,.02-.04,0-.1-.04-.11-.02,0-.04,0-.05,.01l-.23,.09,.02,.04h0Z"/><path class="m" d="M776.07,80.54c.03,.06-.04,.11-.1,.11-.06,0-.12-.03-.18-.04-.06,0-.13,.02-.17,.06-.03,.03-.05,.06-.04,.1,0,.02,.02,.04,.04,.06,.09,.08,.19,.15,.31,.18,.12,.02,.25-.02,.32-.12,.04-.07,.05-.17,0-.24-.04-.07-.12-.12-.21-.12h.02Z"/><path class="m" d="M803.86,100.65c-.11,.05-.2-.08-.25-.2-.03-.07-.05-.15,0-.21,.06-.08,.18-.07,.28-.04l.25,.07s.08,.03,.09,.06c.01,.03,0,.07-.01,.1-.07,.16-.17,.3-.29,.42l-.06-.21Z"/><path class="m" d="M806.95,102.31c-.9,.57-1.46-.54-.83-1.19,.66-.68,1.61,.7,.83,1.19Z"/><path class="m" d="M816.53,109.87c-.9,.57-1.46-.54-.83-1.19,.66-.68,1.61,.7,.83,1.19Z"/><path class="m" d="M776.74,80.91c-.52,.33-.85-.31-.48-.69,.38-.4,.94,.41,.48,.69Z"/><path class="m" d="M813.61,107.47c.12,.1,.33,.05,.38-.1-.1-.07-.21-.14-.33-.14-.12,0-.25,.1-.23,.22l.16,.13v-.12Z"/><path class="m" d="M767.27,74.29c0-.06,.09-.08,.15-.05,.05,.03,.09,.09,.13,.12,.05,.04,.12,.05,.18,.04,.04,0,.07-.03,.08-.06,0-.02,0-.05,0-.07-.03-.12-.08-.23-.17-.31s-.23-.12-.33-.06c-.07,.04-.13,.12-.13,.2,0,.08,.04,.17,.11,.21v-.02Z"/><path class="m" d="M813.59,98.37c-.02-.08-.04-.16-.03-.24s.07-.16,.15-.17c.04,0,.08,0,.12,.02,.11,.06,.15,.21,.09,.31s-.22,.14-.31,.07h0Z"/><path class="m" d="M807.51,101.19c-.05,.1,.06,.24,.17,.22,.04-.05,.08-.1,.1-.16-.06-.04-.13-.06-.2-.05h-.06Z"/><path class="m" d="M813.76,109.68l.05-.15s.08,.02,.12,.04c0,.08-.07,.16-.15,.15l-.02-.04Z"/><circle class="m" cx="816.35" cy="111.14" r="1.62"/></g></g></g></g></svg>