<svg xmlns="http://www.w3.org/2000/svg" viewBox="0 0 716.78 467.17"><defs><style>.cls-1{fill:#ffeeb2;}.cls-2{fill:#f6e560;}.cls-3{fill:#6d3010;}.cls-4{fill:#d39439;}</style></defs><g id="Layer_2" data-name="Layer 2"><g id="OBJECTS"><g id="L1"><path class="cls-1" d="M397,392.84a1.08,1.08,0,1,1-1.08-1.08A1.08,1.08,0,0,1,397,392.84Z"/><path class="cls-1" d="M458.47,410a1.08,1.08,0,1,1-1.08-1.08A1.08,1.08,0,0,1,458.47,410Z"/><path class="cls-1" d="M420.84,398.51a1.4,1.4,0,1,1-1.75.93A1.4,1.4,0,0,1,420.84,398.51Z"/><path class="cls-1" d="M452.08,368.33a1.41,1.41,0,1,1-1.76.94A1.42,1.42,0,0,1,452.08,368.33Z"/><path class="cls-1" d="M145.22,273.46a1,1,0,0,0,1.13.83,1.1,1.1,0,1,0-1.13-.83Z"/><path class="cls-1" d="M99.45,302.48a.92.92,0,1,0,.62-1.26A1,1,0,0,0,99.45,302.48Z"/><path class="cls-1" d="M127.21,283.77a1.47,1.47,0,0,0-.34,1.89,1.16,1.16,0,0,0,1.65.55,1.46,1.46,0,0,0,.33-1.89A1.15,1.15,0,0,0,127.21,283.77Z"/><path class="cls-1" d="M94.61,260.77a1.47,1.47,0,0,0-.34,1.89,1.16,1.16,0,0,0,1.65.55,1.46,1.46,0,0,0,.33-1.89A1.15,1.15,0,0,0,94.61,260.77Z"/><path class="cls-1" d="M349.2,111.7a.92.92,0,1,0,.62-1.26A1,1,0,0,0,349.2,111.7Z"/><path class="cls-1" d="M303.43,140.73a.92.92,0,1,0,1.75-.44,1,1,0,0,0-1.13-.83A1,1,0,0,0,303.43,140.73Z"/><path class="cls-1" d="M331.19,122a1.46,1.46,0,0,0-.33,1.89,1.14,1.14,0,0,0,1.64.55,1.46,1.46,0,0,0,.34-1.88A1.15,1.15,0,0,0,331.19,122Z"/><path class="cls-1" d="M298.59,99a1.46,1.46,0,0,0-.33,1.89,1.15,1.15,0,0,0,1.64.55,1.47,1.47,0,0,0,.34-1.89A1.16,1.16,0,0,0,298.59,99Z"/><path class="cls-1" d="M351.3,196.64a1.08,1.08,0,1,1-1.08-1.07A1.08,1.08,0,0,1,351.3,196.64Z"/><path class="cls-1" d="M412.82,213.8a1.08,1.08,0,1,1-2.16,0,1.08,1.08,0,1,1,2.16,0Z"/><path class="cls-1" d="M375.18,202.31a1.42,1.42,0,0,1,.94,1.76,1.41,1.41,0,1,1-.94-1.76Z"/><path class="cls-1" d="M406.42,172.14a1.41,1.41,0,1,1-1.75.94A1.41,1.41,0,0,1,406.42,172.14Z"/><path class="cls-2" d="M420.16,291.46a14,14,0,0,1-7.34-4.84,12.22,12.22,0,0,0,2.32,5.1l-3.74-.45a4.76,4.76,0,0,0,1,2.05,9.26,9.26,0,0,1-6.71.38,8.49,8.49,0,0,0,5.6,2.33,9.17,9.17,0,0,0-2.28,3.1,6.22,6.22,0,0,1,3.16-1.27,1.56,1.56,0,0,0,.53,2.3c3.8-.72,6.07-4.56,7.83-8"/><path class="cls-3" d="M453.14,309.2a5.88,5.88,0,0,1-5.2,2,3,3,0,0,0,4,.68,4.52,4.52,0,0,1-.72,2.17,5.21,5.21,0,0,1-.14,4.22l3.21-4.43a1.2,1.2,0,0,0,.85,1.26,6.67,6.67,0,0,0-2.22-6.23"/><path class="cls-4" d="M102.89,359.36a14.37,14.37,0,0,1-9.75-3.21l4.77,4.68-6.53-.4a13.08,13.08,0,0,0,16-.43,21.82,21.82,0,0,0-7.34-.41"/><path class="cls-2" d="M60.37,389.35A15.77,15.77,0,0,0,67,382.61a11.71,11.71,0,0,1-1.22,5.59l3.91-1.49a4.55,4.55,0,0,1-.6,2.28,11.26,11.26,0,0,0,7.3-1.51A10,10,0,0,1,71,391.31a9.19,9.19,0,0,1,3.23,2.36,7.1,7.1,0,0,0-3.72-.34,1.48,1.48,0,0,1,0,2.36c-4.28.37-7.67-2.7-10.44-5.55"/><path class="cls-2" d="M358,455.44a15.77,15.77,0,0,0,6.67-6.74,11.71,11.71,0,0,1-1.22,5.59l3.91-1.49a4.55,4.55,0,0,1-.6,2.28,11.26,11.26,0,0,0,7.3-1.51,10,10,0,0,1-5.42,3.83,9.19,9.19,0,0,1,3.23,2.36,7.1,7.1,0,0,0-3.72-.34,1.47,1.47,0,0,1,0,2.36c-4.27.37-7.67-2.7-10.44-5.55"/><path class="cls-3" d="M1.5,351.06a16.86,16.86,0,0,0,9.68.23,14.93,14.93,0,0,1-5.48,2.87L9.27,356A5.82,5.82,0,0,1,7,357a9.4,9.4,0,0,0,5.6,4.18,9.8,9.8,0,0,1-6.47-1.3A8.49,8.49,0,0,1,6,363.8a5.71,5.71,0,0,0-1.9-2.87,1.77,1.77,0,0,1-2,1.59C-.75,359.74-.13,355.26.67,351.4"/><path class="cls-2" d="M34.37,384.54a22.15,22.15,0,0,1,8.5.31A6,6,0,0,0,39.72,383l4.08-.83a2.58,2.58,0,0,0-1.38-.71,22,22,0,0,1,7.16-2.06,16.59,16.59,0,0,0-6.31.43,7.62,7.62,0,0,0,2.06-2.15,12.6,12.6,0,0,1-3.24,1.5c.53-.5.08-1-.85-1a14.14,14.14,0,0,0-7.41,6.09"/><path class="cls-2" d="M27.6,330.58a22.15,22.15,0,0,1,8.5.31A6,6,0,0,0,33,329.05l4.09-.83a2.57,2.57,0,0,0-1.38-.7,21.69,21.69,0,0,1,7.15-2.06,16.79,16.79,0,0,0-6.31.42,7.37,7.37,0,0,0,2.06-2.15,12.46,12.46,0,0,1-3.24,1.51c.53-.5.08-1-.85-1a14.13,14.13,0,0,0-7.41,6.09"/><path class="cls-3" d="M127.38,384.5a6.91,6.91,0,0,0,6.09.49,3.61,3.61,0,0,1-4.12,1.78,4.24,4.24,0,0,0,1.32,1.9,4.68,4.68,0,0,0,1.22,4l-4.57-3.39a1.2,1.2,0,0,1-.6,1.46,6.33,6.33,0,0,1,.82-6.65"/><path class="cls-3" d="M183.29,389.53a5.6,5.6,0,0,0-3.51-4.44,3.32,3.32,0,0,1,4.08,1.49,4.47,4.47,0,0,0,.68-2.24,5.51,5.51,0,0,0,2.47-3.71c.07,1.83.13,3.66.2,5.49a1.43,1.43,0,0,1,1.56-.64,7.83,7.83,0,0,1-5.88,4.21"/><path class="cls-3" d="M383.74,467a5.6,5.6,0,0,0-3.51-4.44,3.3,3.3,0,0,1,4.07,1.49,4.39,4.39,0,0,0,.69-2.25,5.47,5.47,0,0,0,2.47-3.7c.07,1.83.13,3.66.2,5.49a1.42,1.42,0,0,1,1.56-.64,7.83,7.83,0,0,1-5.89,4.21"/><path class="cls-2" d="M100.85,385a5.76,5.76,0,0,0-4.13-4,3.42,3.42,0,0,1,4.28,1,4.18,4.18,0,0,0,.36-2.3,5.27,5.27,0,0,0,2-3.94c.32,1.8.65,3.59,1,5.39a1.41,1.41,0,0,1,1.47-.82,7.6,7.6,0,0,1-5.27,4.85"/><path class="cls-4" d="M81.72,402.5a17.09,17.09,0,0,0,9.65-5.84l-3.94,5.87,6.92-2.22A15.8,15.8,0,0,1,77,404.37a26.8,26.8,0,0,1,7.78-2.44"/><path class="cls-4" d="M161.29,368.44a14.17,14.17,0,0,0-3.46,10l-1.08-6.6-3.89,5.73c-.18-5.81,4.58-11.66,10.79-13.28a23.09,23.09,0,0,1-4.4,6.42"/><path class="cls-4" d="M133.18,368.39a7.27,7.27,0,0,0,4.38-2.82l-1.75,2.91,3.17-1a6.68,6.68,0,0,1-7.94,1.84,11.41,11.41,0,0,1,3.56-1.14"/><path class="cls-2" d="M57.52,270.27a9.88,9.88,0,0,0,1.1-5.81,7.3,7.3,0,0,1,1.32,3.31l1.5-2.13a2.79,2.79,0,0,1,.48,1.39,7.07,7.07,0,0,0,3.25-3.32,6.23,6.23,0,0,1-1.47,3.87,5.79,5.79,0,0,1,2.49.09,4.52,4.52,0,0,0-2,1.12A.92.92,0,0,1,65,270c-2.08,1.68-4.91,1.27-7.33.76"/><path class="cls-2" d="M234.45,200.87a9.91,9.91,0,0,0,1.1-5.8,7.24,7.24,0,0,1,1.31,3.31l1.51-2.13a2.79,2.79,0,0,1,.48,1.38,7,7,0,0,0,3.25-3.32,6.19,6.19,0,0,1-1.47,3.87,5.64,5.64,0,0,1,2.49.1,4.5,4.5,0,0,0-2,1.11.92.92,0,0,1,.83,1.22c-2.08,1.68-4.91,1.27-7.33.76"/><path class="cls-3" d="M13.74,271a10.49,10.49,0,0,0,5.08-3.25A9,9,0,0,1,17,271.09l2.47-.32a3.54,3.54,0,0,1-.81,1.37,5.87,5.87,0,0,0,4.35.21,6.09,6.09,0,0,1-3.8,1.58,5.21,5.21,0,0,1,1.3,2,3.62,3.62,0,0,0-2-.82,1.1,1.1,0,0,1-.49,1.52c-2.43-.45-3.67-3-4.61-5.26"/><path class="cls-2" d="M42.39,276.83A14,14,0,0,1,46.9,274a3.79,3.79,0,0,0-2.27.15l1.82-1.85a1.61,1.61,0,0,0-1,.11,13.7,13.7,0,0,1,3-3.56,10.55,10.55,0,0,0-3.12,2.42,4.84,4.84,0,0,0,.32-1.83,7.76,7.76,0,0,1-1.15,1.91c.1-.44-.32-.55-.78-.21A8.84,8.84,0,0,0,42,276.9"/><path class="cls-2" d="M20.11,251.27a14,14,0,0,1,4.5-2.8,3.76,3.76,0,0,0-2.26.15l1.82-1.85a1.55,1.55,0,0,0-1,.12,13.85,13.85,0,0,1,3-3.56,10.52,10.52,0,0,0-3.11,2.42,4.84,4.84,0,0,0,.32-1.83,7.77,7.77,0,0,1-1.16,1.9c.1-.44-.31-.55-.77-.2a8.75,8.75,0,0,0-1.71,5.73"/><path class="cls-3" d="M90.49,244.43a4.3,4.3,0,0,0,3.32-1.87,2.26,2.26,0,0,1-1.52,2.36,2.73,2.73,0,0,0,1.35.52,2.93,2.93,0,0,0,2,1.67l-3.54-.17a.76.76,0,0,1,.2,1,4,4,0,0,1-1.89-3.73"/><path class="cls-3" d="M121.16,227.58a3.48,3.48,0,0,0-3.37-1.08,2.08,2.08,0,0,1,2.63-.65,2.65,2.65,0,0,0-.43-1.4,3.38,3.38,0,0,0,0-2.77c.68.92,1.35,1.84,2,2.77a.89.89,0,0,1,.58-.88A4.86,4.86,0,0,1,121,227.8"/><path class="cls-3" d="M251.8,197.88a3.48,3.48,0,0,0-3.36-1.07,2.07,2.07,0,0,1,2.63-.65,2.81,2.81,0,0,0-.43-1.4,3.41,3.41,0,0,0,0-2.78l2,2.77a.89.89,0,0,1,.59-.87,4.89,4.89,0,0,1-1.58,4.23"/><path class="cls-2" d="M77,253.93a3.61,3.61,0,0,0-3.52-.6,2.13,2.13,0,0,1,2.56-1,2.64,2.64,0,0,0-.61-1.32,3.27,3.27,0,0,0-.37-2.71l2.38,2.44a.89.89,0,0,1,.48-.93,4.74,4.74,0,0,1-1.05,4.34"/><path class="cls-4" d="M73.13,269.64a10.6,10.6,0,0,0,3-6.38v4.4l2.81-3.55a9.86,9.86,0,0,1-7.55,8.13,16.64,16.64,0,0,1,3.17-4"/><path class="cls-4" d="M102.44,224.32a8.8,8.8,0,0,0,1.69,6.37l-2.86-3,0,4.31c-2.11-2.94-1.69-7.62,1-10.62a14.37,14.37,0,0,1,0,4.85"/><path class="cls-4" d="M87.88,234.08a4.56,4.56,0,0,0,1.29-3c0,.7.07,1.41.1,2.11l1.28-1.63a4.17,4.17,0,0,1-3.47,3.71,7,7,0,0,1,1.45-1.83"/><path class="cls-2" d="M235.4,68.47a9.86,9.86,0,0,0,1.39-5.74,7.33,7.33,0,0,1,1.15,3.37l1.61-2a2.89,2.89,0,0,1,.41,1.41,7.05,7.05,0,0,0,3.41-3.15,6.25,6.25,0,0,1-1.66,3.79,5.73,5.73,0,0,1,2.48.22,4.48,4.48,0,0,0-2.09,1,.93.93,0,0,1,.77,1.26c-2.17,1.57-5,1-7.36.39"/><path class="cls-2" d="M415.59,8.06A9.85,9.85,0,0,0,417,2.32a7.32,7.32,0,0,1,1.14,3.37c.54-.68,1.08-1.36,1.61-2.05a2.79,2.79,0,0,1,.41,1.41,7,7,0,0,0,3.42-3.15,6.26,6.26,0,0,1-1.67,3.79,5.79,5.79,0,0,1,2.49.22,4.47,4.47,0,0,0-2.1,1,.92.92,0,0,1,.77,1.26c-2.16,1.57-5,1-7.36.39"/><path class="cls-3" d="M191.64,67a10.47,10.47,0,0,0,5.24-3,9.25,9.25,0,0,1-2,3.29l2.48-.19a3.5,3.5,0,0,1-.87,1.32,5.81,5.81,0,0,0,4.33.43A6.13,6.13,0,0,1,197,70.21a5.22,5.22,0,0,1,1.19,2.1,3.59,3.59,0,0,0-1.94-.92,1.11,1.11,0,0,1-.56,1.5c-2.41-.58-3.52-3.17-4.34-5.49"/><path class="cls-2" d="M220,74.27a13.85,13.85,0,0,1,4.64-2.57,3.74,3.74,0,0,0-2.27,0L224.24,70a1.55,1.55,0,0,0-1,.06,13.58,13.58,0,0,1,3.16-3.4,10.29,10.29,0,0,0-3.23,2.26,4.76,4.76,0,0,0,.4-1.81,7.73,7.73,0,0,1-1.24,1.84c.12-.44-.29-.57-.77-.24a8.83,8.83,0,0,0-2,5.63"/><path class="cls-2" d="M199,47.62a14,14,0,0,1,4.64-2.57,3.75,3.75,0,0,0-2.27,0l1.91-1.76a1.56,1.56,0,0,0-1,.07,13.41,13.41,0,0,1,3.16-3.4,10.36,10.36,0,0,0-3.23,2.25,5,5,0,0,0,.41-1.81,7.64,7.64,0,0,1-1.25,1.85c.12-.44-.29-.57-.77-.25a8.85,8.85,0,0,0-2,5.64"/><path class="cls-3" d="M269.63,44.33a4.29,4.29,0,0,0,3.4-1.7,2.25,2.25,0,0,1-1.62,2.28,2.58,2.58,0,0,0,1.31.59,2.91,2.91,0,0,0,1.95,1.76l-3.53-.34a.75.75,0,0,1,.15,1,3.94,3.94,0,0,1-1.7-3.81"/><path class="cls-3" d="M301.1,29a3.47,3.47,0,0,0-3.3-1.24,2.08,2.08,0,0,1,2.66-.52,2.78,2.78,0,0,0-.36-1.42,3.44,3.44,0,0,0,.13-2.77L302.1,26a.9.9,0,0,1,.63-.85,4.86,4.86,0,0,1-1.79,4.14"/><path class="cls-3" d="M433.08,6a3.5,3.5,0,0,0-3.31-1.24,2.07,2.07,0,0,1,2.66-.51,2.64,2.64,0,0,0-.36-1.42A3.39,3.39,0,0,0,432.2,0l1.87,2.87A.9.9,0,0,1,434.7,2a4.87,4.87,0,0,1-1.79,4.14"/><path class="cls-2" d="M255.62,53.14a3.58,3.58,0,0,0-3.48-.78,2.13,2.13,0,0,1,2.61-.85,2.7,2.7,0,0,0-.55-1.35,3.24,3.24,0,0,0-.23-2.73L256.23,50a.86.86,0,0,1,.52-.91,4.75,4.75,0,0,1-1.26,4.28"/><path class="cls-4" d="M251,68.63a10.63,10.63,0,0,0,3.28-6.22l-.21,4.4,3-3.41a9.84,9.84,0,0,1-7.95,7.74,16.77,16.77,0,0,1,3.37-3.81"/><path class="cls-4" d="M282.57,24.85a8.85,8.85,0,0,0,1.37,6.45l-2.7-3.18L281,32.43c-2-3-1.3-7.7,1.5-10.56a14.42,14.42,0,0,1-.29,4.84"/><path class="cls-4" d="M267.54,33.86A4.54,4.54,0,0,0,269,31v2.11c.46-.52.91-1,1.36-1.57A4.16,4.16,0,0,1,266.69,35a6.56,6.56,0,0,1,1.53-1.75"/><path class="cls-2" d="M504.4,259.63a9.84,9.84,0,0,0,1.11-5.8,7.29,7.29,0,0,1,1.31,3.31l1.51-2.13a2.89,2.89,0,0,1,.48,1.39,7.07,7.07,0,0,0,3.25-3.32,6.2,6.2,0,0,1-1.48,3.86,5.84,5.84,0,0,1,2.5.1,4.55,4.55,0,0,0-2.05,1.12.92.92,0,0,1,.84,1.22c-2.08,1.68-4.91,1.27-7.33.76"/><path class="cls-2" d="M595.87,308.27a9.84,9.84,0,0,0,1.11-5.8,7.24,7.24,0,0,1,1.31,3.31l1.51-2.13a2.89,2.89,0,0,1,.48,1.39,7.09,7.09,0,0,0,3.25-3.33,6.2,6.2,0,0,1-1.48,3.87,5.83,5.83,0,0,1,2.5.1,4.38,4.38,0,0,0-2,1.12.91.91,0,0,1,.83,1.21c-2.08,1.68-4.91,1.27-7.33.77"/><path class="cls-2" d="M681.33,190.24a9.85,9.85,0,0,0,1.1-5.81,7.35,7.35,0,0,1,1.32,3.31l1.51-2.12a2.89,2.89,0,0,1,.48,1.38,7,7,0,0,0,3.25-3.32,6.28,6.28,0,0,1-1.48,3.87,5.84,5.84,0,0,1,2.5.09,4.55,4.55,0,0,0-2,1.12.93.93,0,0,1,.84,1.22c-2.08,1.68-4.91,1.27-7.33.76"/><path class="cls-3" d="M460.63,260.32a10.54,10.54,0,0,0,5.08-3.25,9.32,9.32,0,0,1-1.83,3.39l2.46-.32a3.46,3.46,0,0,1-.8,1.37,5.84,5.84,0,0,0,4.34.21,6.08,6.08,0,0,1-3.79,1.58,5.32,5.32,0,0,1,1.3,2,3.65,3.65,0,0,0-2-.82,1.1,1.1,0,0,1-.48,1.52c-2.44-.45-3.67-3-4.61-5.26"/><path class="cls-2" d="M489.28,266.2a14,14,0,0,1,4.5-2.8,3.67,3.67,0,0,0-2.26.14l1.82-1.84a1.61,1.61,0,0,0-1,.11,13.85,13.85,0,0,1,3-3.56,10.52,10.52,0,0,0-3.11,2.42,4.62,4.62,0,0,0,.31-1.83,7.47,7.47,0,0,1-1.15,1.91c.1-.45-.31-.56-.78-.21a8.9,8.9,0,0,0-1.71,5.73"/><path class="cls-2" d="M467,240.64a13.87,13.87,0,0,1,4.5-2.8,3.8,3.8,0,0,0-2.27.15l1.83-1.85a1.61,1.61,0,0,0-1,.11,13.42,13.42,0,0,1,3-3.55,10.2,10.2,0,0,0-3.11,2.42,4.65,4.65,0,0,0,.31-1.83,7.9,7.9,0,0,1-1.15,1.9c.1-.44-.31-.55-.78-.2a8.8,8.8,0,0,0-1.71,5.72"/><path class="cls-3" d="M537.37,233.8a4.27,4.27,0,0,0,3.32-1.87,2.25,2.25,0,0,1-1.51,2.36,2.66,2.66,0,0,0,1.35.52,2.93,2.93,0,0,0,2,1.67l-3.54-.17a.74.74,0,0,1,.19,1,4,4,0,0,1-1.89-3.73"/><path class="cls-3" d="M568,216.94a3.48,3.48,0,0,0-3.36-1.07,2.08,2.08,0,0,1,2.63-.65,2.84,2.84,0,0,0-.43-1.4,3.41,3.41,0,0,0,0-2.78l2,2.78a.9.9,0,0,1,.59-.88,4.89,4.89,0,0,1-1.58,4.23"/><path class="cls-3" d="M698.69,187.25a3.49,3.49,0,0,0-3.36-1.07,2.06,2.06,0,0,1,2.63-.65,2.78,2.78,0,0,0-.43-1.4,3.45,3.45,0,0,0,0-2.78l2,2.77a.88.88,0,0,1,.58-.87,4.85,4.85,0,0,1-1.57,4.22"/><path class="cls-2" d="M523.83,243.3a3.59,3.59,0,0,0-3.51-.6,2.11,2.11,0,0,1,2.56-1,2.74,2.74,0,0,0-.62-1.32,3.27,3.27,0,0,0-.36-2.71l2.38,2.44a.87.87,0,0,1,.47-.93,4.73,4.73,0,0,1-1,4.34"/><path class="cls-4" d="M520,259a10.66,10.66,0,0,0,3-6.38V257l2.81-3.55a9.85,9.85,0,0,1-7.54,8.13,16.64,16.64,0,0,1,3.17-4"/><path class="cls-4" d="M549.32,213.69a8.84,8.84,0,0,0,1.69,6.37l-2.86-3c0,1.44,0,2.88,0,4.32-2.12-2.94-1.69-7.62,1-10.62a14.38,14.38,0,0,1-.05,4.85"/><path class="cls-4" d="M534.77,223.45a4.57,4.57,0,0,0,1.28-3c0,.7.07,1.41.11,2.11l1.27-1.64a4.15,4.15,0,0,1-3.46,3.72,6.74,6.74,0,0,1,1.44-1.83"/><path class="cls-2" d="M521,331.42a9.83,9.83,0,0,0,1.1-5.8,7.26,7.26,0,0,1,1.32,3.31l1.5-2.13a2.7,2.7,0,0,1,.48,1.39,7,7,0,0,0,3.25-3.33,6.19,6.19,0,0,1-1.47,3.87,5.64,5.64,0,0,1,2.49.1,4.55,4.55,0,0,0-2,1.11.92.92,0,0,1,.83,1.22c-2.08,1.68-4.91,1.27-7.33.77"/><path class="cls-2" d="M612.49,380.06a9.85,9.85,0,0,0,1.1-5.81,7.35,7.35,0,0,1,1.32,3.31l1.5-2.12a2.7,2.7,0,0,1,.48,1.38,7,7,0,0,0,3.26-3.32,6.28,6.28,0,0,1-1.48,3.87,5.84,5.84,0,0,1,2.5.09,4.55,4.55,0,0,0-2,1.12.92.92,0,0,1,.83,1.22c-2.08,1.68-4.91,1.27-7.33.76"/><path class="cls-2" d="M698,262a9.88,9.88,0,0,0,1.1-5.81,7.3,7.3,0,0,1,1.32,3.31l1.5-2.13a2.79,2.79,0,0,1,.48,1.39,7,7,0,0,0,3.25-3.32,6.23,6.23,0,0,1-1.47,3.87,5.79,5.79,0,0,1,2.49.09,4.57,4.57,0,0,0-2,1.12.92.92,0,0,1,.83,1.22c-2.08,1.68-4.91,1.27-7.33.76"/><path class="cls-3" d="M477.24,332.11a10.45,10.45,0,0,0,5.08-3.25,9.11,9.11,0,0,1-1.83,3.39l2.47-.32a3.5,3.5,0,0,1-.81,1.36,5.82,5.82,0,0,0,4.35.22,6.08,6.08,0,0,1-3.79,1.58,5.3,5.3,0,0,1,1.29,2,3.48,3.48,0,0,0-2-.82,1.11,1.11,0,0,1-.48,1.52c-2.44-.45-3.68-3-4.61-5.26"/><path class="cls-2" d="M505.9,338a13.75,13.75,0,0,1,4.5-2.81,3.79,3.79,0,0,0-2.27.15c.61-.61,1.22-1.23,1.82-1.85a1.56,1.56,0,0,0-1,.12,13.7,13.7,0,0,1,3-3.56,10.55,10.55,0,0,0-3.12,2.42,4.47,4.47,0,0,0,.32-1.83,7.53,7.53,0,0,1-1.15,1.9c.1-.44-.31-.55-.78-.2a8.81,8.81,0,0,0-1.71,5.73"/><path class="cls-2" d="M483.61,312.43a13.91,13.91,0,0,1,4.51-2.8,3.72,3.72,0,0,0-2.27.15l1.82-1.85a1.61,1.61,0,0,0-1,.11,13.7,13.7,0,0,1,3-3.56,10.55,10.55,0,0,0-3.12,2.42,4.84,4.84,0,0,0,.32-1.83,7.76,7.76,0,0,1-1.15,1.91c.1-.45-.32-.55-.78-.21a8.84,8.84,0,0,0-1.71,5.73"/><path class="cls-3" d="M554,305.59a4.36,4.36,0,0,0,3.32-1.87,2.26,2.26,0,0,1-1.51,2.36,2.66,2.66,0,0,0,1.34.52,2.91,2.91,0,0,0,2,1.66l-3.55-.16a.75.75,0,0,1,.2,1,3.92,3.92,0,0,1-1.89-3.72"/><path class="cls-3" d="M584.66,288.73a3.49,3.49,0,0,0-3.36-1.07,2.06,2.06,0,0,1,2.63-.65,2.81,2.81,0,0,0-.43-1.4,3.45,3.45,0,0,0,0-2.78l2,2.77a.88.88,0,0,1,.58-.87,4.88,4.88,0,0,1-1.57,4.23"/><path class="cls-3" d="M715.3,259a3.51,3.51,0,0,0-3.36-1.08,2.06,2.06,0,0,1,2.63-.64,2.6,2.6,0,0,0-.43-1.4,3.41,3.41,0,0,0,0-2.78c.67.92,1.34,1.85,2,2.77a.87.87,0,0,1,.58-.87,4.87,4.87,0,0,1-1.58,4.22"/><path class="cls-2" d="M540.45,315.09a3.61,3.61,0,0,0-3.52-.61,2.14,2.14,0,0,1,2.56-1,2.61,2.61,0,0,0-.61-1.31,3.26,3.26,0,0,0-.37-2.72l2.38,2.45a.88.88,0,0,1,.48-.93,4.76,4.76,0,0,1-1,4.34"/><path class="cls-4" d="M536.63,330.79a10.64,10.64,0,0,0,3-6.38v4.41l2.81-3.55a9.85,9.85,0,0,1-7.55,8.12,16.44,16.44,0,0,1,3.18-4"/><path class="cls-4" d="M565.94,285.48a8.84,8.84,0,0,0,1.69,6.37l-2.86-3,0,4.32c-2.11-2.94-1.69-7.62,1-10.62a14.64,14.64,0,0,1-.05,4.85"/><path class="cls-4" d="M551.38,295.24a4.53,4.53,0,0,0,1.29-3c0,.7.07,1.4.1,2.11l1.28-1.64a4.15,4.15,0,0,1-3.46,3.71,6.85,6.85,0,0,1,1.44-1.82"/><path class="cls-2" d="M370.41,266.13a14.06,14.06,0,0,1-7.34-4.83,12.25,12.25,0,0,0,2.33,5.09l-3.75-.45A4.67,4.67,0,0,0,362.7,268a9.26,9.26,0,0,1-6.71.38,8.53,8.53,0,0,0,5.6,2.34,9,9,0,0,0-2.28,3.1,6.07,6.07,0,0,1,3.16-1.27,1.55,1.55,0,0,0,.52,2.29c3.81-.71,6.07-4.55,7.84-8"/><path class="cls-3" d="M413,214.24a14.07,14.07,0,0,1-8.38,2.66,12.23,12.23,0,0,0,5.43,1.4c-.91.87-1.81,1.75-2.71,2.63a4.71,4.71,0,0,0,2.25.48,9.25,9.25,0,0,1-3.93,5.45A8.49,8.49,0,0,0,411,224a9.25,9.25,0,0,0,1,3.72,6.22,6.22,0,0,1,1-3.26,1.55,1.55,0,0,0,2.11,1c1.84-3.41.28-7.58-1.28-11.13"/><path class="cls-2" d="M392,254.93a18.78,18.78,0,0,0-7.34,2.43A5.73,5.73,0,0,1,387,254.8l-3.74.22a2.45,2.45,0,0,1,1-1,17.94,17.94,0,0,0-6.7-.19,13.83,13.83,0,0,1,5.59-1.18,6.58,6.58,0,0,1-2.28-1.56,10,10,0,0,0,3.16.64c-.57-.35-.29-1,.53-1.15a12.28,12.28,0,0,1,7.84,4"/><path class="cls-2" d="M385.63,201a18.67,18.67,0,0,0-7.34,2.44,5.77,5.77,0,0,1,2.33-2.57l-3.74.23a2.34,2.34,0,0,1,1-1,17.58,17.58,0,0,0-6.71-.19,13.68,13.68,0,0,1,5.6-1.18,6.72,6.72,0,0,1-2.28-1.56,10.13,10.13,0,0,0,3.16.64c-.57-.35-.3-1,.52-1.16a12.26,12.26,0,0,1,7.84,4"/><path class="cls-3" d="M310.9,278.33a5.88,5.88,0,0,1-5.19,2,3,3,0,0,0,4,.68,4.53,4.53,0,0,1-.73,2.17,5.11,5.11,0,0,1-.14,4.21l3.21-4.43a1.19,1.19,0,0,0,.86,1.26,6.71,6.71,0,0,0-2.23-6.23"/><path class="cls-3" d="M263.32,297.29a5.85,5.85,0,0,1,2.05-5.18,3,3,0,0,0-3.22,2.47,4.53,4.53,0,0,1-1.1-2,5.17,5.17,0,0,1-3-3l1.08,5.37a1.2,1.2,0,0,0-1.51-.23,6.69,6.69,0,0,0,6.09,2.6"/><path class="cls-2" d="M334.14,272.14a5.91,5.91,0,0,1,2.71-4.87,3,3,0,0,0-3.51,2,4.44,4.44,0,0,1-.83-2.13,5.12,5.12,0,0,1-2.59-3.33c.12,1.82.24,3.64.37,5.46a1.22,1.22,0,0,0-1.47-.42,6.7,6.7,0,0,0,5.7,3.36"/><path class="cls-4" d="M354.79,284.23a14.35,14.35,0,0,1-9.74-3.21l4.77,4.69-6.53-.4a13.08,13.08,0,0,0,16-.44,21.58,21.58,0,0,0-7.34-.4"/><path class="cls-4" d="M277.7,271.34a14.26,14.26,0,0,1,5.28,8.79l-.55-6.66,4.69,4.57a13.08,13.08,0,0,0-12.42-10.13A22.09,22.09,0,0,0,280,273"/><path class="cls-4" d="M302.2,264.2a6.13,6.13,0,0,1-4.46-1.62l2.18,2.37-3-.2a5.55,5.55,0,0,0,7.33-.22,9.06,9.06,0,0,0-3.36-.21"/></g></g></g></svg>