<svg xmlns="http://www.w3.org/2000/svg" viewBox="0 0 795.38 113.31"><defs><style>.cls-1{fill:#6d3010;}</style></defs><g id="Layer_2" data-name="Layer 2"><g id="OBJECTS"><g id="L2"><path class="cls-1" d="M15.77,108.61.93,100.92l4.54,1.16a10.64,10.64,0,0,1-4.08-10,11.31,11.31,0,0,1,6.76,5.81,4.22,4.22,0,0,1,2.27-5.7c.07,2.84.18,5.8,1.6,8.26s4.59,4.14,7.15,2.93A49.48,49.48,0,0,0,6.72,80l5.08,2.88A120.36,120.36,0,0,1,0,59.53a10.7,10.7,0,0,1,7.39,7.92,8.37,8.37,0,0,1,1.23-8.8A60.48,60.48,0,0,1,12.1,68.77c0-2.17,3.49-2.69,5-1.09s1.44,4,1.32,6.2-.21,4.58,1.21,6.24c4.46-3.6,4.86-11.18.8-15.23L26,67l-3.9-16.84,5,4.66a12.25,12.25,0,0,1,3.58-11.21,9.36,9.36,0,0,1,4,12.41,4.12,4.12,0,0,1,5.16-3.27,10.51,10.51,0,0,1-2.66,9.46,3.8,3.8,0,0,1,4.09,1.15L37.72,74.79a17.77,17.77,0,0,0,10.2-19.34l4.54,5.77A27.14,27.14,0,0,1,57.55,50a11.21,11.21,0,0,1,1.55,7.35,4.06,4.06,0,0,1,4.6-3.25l-.84,11.76A108.59,108.59,0,0,0,75.55,29.4C80.22,30,83.25,36,81,40.12c3.31.42,4.73,4.86,3.38,7.9s-4.4,4.91-7.27,6.59c2.72-.08,3.86,3.87,2.5,6.24s-4,3.63-6.1,5.35c-5.15,4.2-7.16,11-8.89,17.46L68,84.81l-11.9,5.9q2.8,4.8,5.59,9.6c4.51.38,8.66-3,10.69-7s2.38-8.68,2.7-13.19a6.41,6.41,0,0,1,5.52,2.8q.84-4.44,1.67-8.88l5.31,4.11,2.1-10.45c4.43.19,5.56,7.88,1.38,9.34a6.17,6.17,0,0,1,4.33,6.61A26.79,26.79,0,0,0,97,64c3.87.42,5.71-4.69,5.74-8.59s.28-8.87,4-10.18a9,9,0,0,1,2.76,8A4,4,0,0,1,114,51.53a24.21,24.21,0,0,1-5.33,9.94,37.8,37.8,0,0,1,15.27-1.55c-1.06,4.26-5.84,6.16-9.45,8.65s-6.21,8.37-2.58,10.83c-5.4-.14-9.21,7.26-6,11.58a5.33,5.33,0,0,1,5.45-1.16l-2.85,6.51a69.08,69.08,0,0,0,19.3-16.86c1.72,1.54.31,4.29-.45,6.48s1.18,5.67,2.94,4.16l-9.79,6a18.89,18.89,0,0,1,8.78,3.4l-11.07,2.9,4.35,3.73a41.26,41.26,0,0,0-15.25,1.09q1.73,2,3.47,3.92l-8.27-1.47"/><path class="cls-1" d="M46.78,106.15l-14.84-7.7,4.54,1.17a10.65,10.65,0,0,1-4.08-10,11.36,11.36,0,0,1,6.76,5.82,4.21,4.21,0,0,1,2.27-5.7c.07,2.83.18,5.8,1.6,8.25s4.59,4.14,7.15,2.93A49.49,49.49,0,0,0,37.73,77.57l5.08,2.87A120.08,120.08,0,0,1,31,57.06,10.71,10.71,0,0,1,38.4,65a8.37,8.37,0,0,1,1.23-8.8,60.17,60.17,0,0,1,3.48,10.12c0-2.17,3.49-2.69,5-1.09s1.45,4,1.32,6.2-.21,4.58,1.21,6.23c4.46-3.6,4.86-11.18.8-15.23L57,64.49l-3.9-16.83,5,4.65a12.24,12.24,0,0,1,3.58-11.2,9.35,9.35,0,0,1,4,12.41,4.13,4.13,0,0,1,5.16-3.28,10.53,10.53,0,0,1-2.66,9.47,3.8,3.8,0,0,1,4.09,1.15L68.73,72.33A17.78,17.78,0,0,0,78.93,53l4.54,5.78A27.18,27.18,0,0,1,88.56,47.5a11.25,11.25,0,0,1,1.55,7.36,4.06,4.06,0,0,1,4.6-3.26l-.84,11.76a108.47,108.47,0,0,0,12.69-36.42c4.67.63,7.7,6.56,5.49,10.72,3.3.41,4.72,4.86,3.37,7.9s-4.4,4.91-7.27,6.59c2.72-.09,3.86,3.87,2.5,6.23s-4,3.64-6.1,5.36c-5.15,4.19-7.16,11-8.89,17.45l3.39,1.16-11.9,5.9q2.8,4.8,5.59,9.6c4.51.37,8.66-2.95,10.69-7s2.38-8.69,2.7-13.2a6.46,6.46,0,0,1,5.52,2.8l1.68-8.87,5.3,4.11,2.1-10.46c4.43.2,5.56,7.89,1.38,9.35a6.17,6.17,0,0,1,4.33,6.61,26.79,26.79,0,0,0,1.61-19.62c3.87.41,5.71-4.69,5.74-8.59s.28-8.88,4-10.19a9.06,9.06,0,0,1,2.76,8.05A4,4,0,0,1,145,49.06,24.15,24.15,0,0,1,139.67,59a37.79,37.79,0,0,1,15.27-1.54c-1.06,4.25-5.84,6.15-9.45,8.64s-6.21,8.37-2.58,10.84c-5.4-.14-9.21,7.26-6,11.57a5.33,5.33,0,0,1,5.45-1.16l-2.85,6.52A69.08,69.08,0,0,0,158.85,77c1.72,1.54.31,4.28-.45,6.47s1.18,5.67,2.94,4.17l-9.79,6a19,19,0,0,1,8.78,3.39L149.26,100l4.35,3.74a41.26,41.26,0,0,0-15.25,1.09c1.16,1.3,2.31,2.61,3.47,3.92l-8.27-1.47"/><path class="cls-1" d="M168.85,109.72l-7.78-4,2.38.61a5.6,5.6,0,0,1-2.14-5.22,5.9,5.9,0,0,1,3.54,3,2.21,2.21,0,0,1,1.19-3,9.06,9.06,0,0,0,.84,4.32c.74,1.29,2.41,2.17,3.75,1.53a26,26,0,0,0-6.52-12.25c.88.51,1.77,1,2.66,1.51A62.55,62.55,0,0,1,160.59,84a5.6,5.6,0,0,1,3.86,4.16,4.4,4.4,0,0,1,.65-4.61,29.88,29.88,0,0,1,1.82,5.3c0-1.14,1.83-1.41,2.61-.58a4.37,4.37,0,0,1,.69,3.25,4.52,4.52,0,0,0,.63,3.27,5.59,5.59,0,0,0,.42-8l2.95,1.08-2-8.81,2.61,2.44a6.42,6.42,0,0,1,1.88-5.88,4.9,4.9,0,0,1,2.08,6.5,2.16,2.16,0,0,1,2.7-1.71,5.55,5.55,0,0,1-1.39,5,2,2,0,0,1,2.14.6l-1.85,6a9.31,9.31,0,0,0,5.34-10.13l2.38,3a14.3,14.3,0,0,1,2.66-5.9,5.81,5.81,0,0,1,.81,3.86A2.14,2.14,0,0,1,194,81.14l-.44,6.16a56.76,56.76,0,0,0,6.64-19.08A4,4,0,0,1,203,73.84c1.73.21,2.47,2.54,1.76,4.14s-2.3,2.57-3.81,3.45c1.43-.05,2,2,1.32,3.26s-2.09,1.91-3.2,2.81c-2.7,2.2-3.75,5.78-4.65,9.14l1.77.61L190,100.34l2.92,5c2.36.19,4.54-1.55,5.61-3.66a18.2,18.2,0,0,0,1.41-6.92,3.39,3.39,0,0,1,2.89,1.47c.29-1.55.58-3.1.88-4.65l2.78,2.15c.36-1.82.73-3.65,1.1-5.47,2.32.1,2.91,4.13.72,4.89a3.25,3.25,0,0,1,2.27,3.47,14,14,0,0,0,.84-10.28c2,.22,3-2.46,3-4.5s.15-4.65,2.07-5.34A4.74,4.74,0,0,1,218,80.75a2.12,2.12,0,0,1,2.35-.94A12.75,12.75,0,0,1,217.51,85a19.88,19.88,0,0,1,8-.81c-.56,2.23-3.06,3.22-4.95,4.53s-3.25,4.38-1.36,5.67c-2.82-.07-4.82,3.81-3.12,6.07a2.79,2.79,0,0,1,2.86-.61l-1.49,3.41a36.22,36.22,0,0,0,10.11-8.83c.9.81.16,2.25-.24,3.39s.62,3,1.54,2.18l-5.12,3.16a10,10,0,0,1,4.59,1.78l-5.8,1.52,2.28,2a21.52,21.52,0,0,0-8,.57l1.82,2-4.33-.77"/><path class="cls-1" d="M582.64,108.21l-7.78-4,2.38.61a5.57,5.57,0,0,1-2.13-5.22,6,6,0,0,1,3.54,3,2.2,2.2,0,0,1,1.19-3,9.05,9.05,0,0,0,.83,4.32c.74,1.28,2.41,2.17,3.75,1.53a25.92,25.92,0,0,0-6.52-12.25l2.66,1.51a63.11,63.11,0,0,1-6.18-12.25,5.62,5.62,0,0,1,3.87,4.15,4.4,4.4,0,0,1,.64-4.61,31.14,31.14,0,0,1,1.83,5.31c0-1.14,1.83-1.41,2.6-.58A4.33,4.33,0,0,1,584,90a4.52,4.52,0,0,0,.63,3.27,5.6,5.6,0,0,0,.43-8L588,86.38l-2-8.82L588.58,80a6.42,6.42,0,0,1,1.88-5.87,4.9,4.9,0,0,1,2.08,6.5,2.15,2.15,0,0,1,2.7-1.71,5.49,5.49,0,0,1-1.39,5,2,2,0,0,1,2.14.6c-.62,2-1.23,4-1.85,6a9.31,9.31,0,0,0,5.34-10.14l2.38,3a14.19,14.19,0,0,1,2.67-5.9,5.93,5.93,0,0,1,.81,3.86,2.13,2.13,0,0,1,2.41-1.71c-.15,2.05-.29,4.11-.44,6.16A57,57,0,0,0,614,66.71a4,4,0,0,1,2.87,5.62c1.73.21,2.48,2.54,1.77,4.14s-2.31,2.57-3.81,3.45c1.43,0,2,2,1.31,3.26S614,85.09,612.9,86c-2.7,2.2-3.75,5.78-4.65,9.14l1.77.61-6.23,3.09,2.93,5c2.36.19,4.54-1.55,5.6-3.66a18,18,0,0,0,1.41-6.92,3.37,3.37,0,0,1,2.89,1.47c.3-1.55.59-3.1.88-4.65l2.78,2.15c.37-1.82.73-3.65,1.1-5.47,2.32.1,2.91,4.13.72,4.89a3.23,3.23,0,0,1,2.27,3.46,14,14,0,0,0,.84-10.27c2,.21,3-2.46,3-4.5s.15-4.65,2.08-5.34a4.76,4.76,0,0,1,1.44,4.22,2.12,2.12,0,0,1,2.35-.94,12.63,12.63,0,0,1-2.79,5.21,19.72,19.72,0,0,1,8-.81c-.55,2.23-3.06,3.22-4.95,4.53S631.1,91.61,633,92.9c-2.83-.07-4.82,3.81-3.12,6.07a2.77,2.77,0,0,1,2.85-.61c-.49,1.14-1,2.27-1.49,3.41a36.22,36.22,0,0,0,10.11-8.83c.9.81.16,2.25-.23,3.39s.61,3,1.53,2.18l-5.12,3.16a10,10,0,0,1,4.6,1.78l-5.8,1.52,2.27,2a21.54,21.54,0,0,0-8,.57l1.82,2-4.33-.77"/><path class="cls-1" d="M778.9,109.75l15.51-10.66-4.74,1.61c3.16-3.12,4.86-8.64,4.25-13.8-3,1.25-5.66,4.24-7,8.06,1.12-2.86-.08-6.86-2.38-7.9-.08,3.92-.19,8-1.67,11.43s-4.8,5.74-7.47,4.06a77.6,77.6,0,0,1,13-32.4l-5.3,4a193.19,193.19,0,0,0,12.33-32.4c-3.82,1.44-6.91,5.83-7.72,11a14.7,14.7,0,0,0-1.29-12.19,102.93,102.93,0,0,0-3.63,14A2.81,2.81,0,0,0,777.55,53c-1.54,2.22-1.52,5.58-1.38,8.59s.21,6.35-1.27,8.64c-4.66-5-5.08-15.49-.84-21.11L768.18,52q2-11.65,4.07-23.32l-5.2,6.45c.86-5.56-.61-11.66-3.75-15.53-4.57,2.93-6.59,11.29-4.15,17.2-.29-3.21-3.08-5.56-5.39-4.54a18,18,0,0,0,2.78,13.12A3.4,3.4,0,0,0,752.26,47Q754.12,55,756,62.89c-7.61-4.23-12.32-16.08-10.66-26.8l-4.74,8a44.29,44.29,0,0,0-5.32-15.6,19.8,19.8,0,0,0-1.62,10.19c-.32-2.87-2.65-5.06-4.81-4.51q.45,8.16.88,16.3A185.21,185.21,0,0,1,716.43,0c-4.88.88-8,9.1-5.73,14.86-3.45.57-4.94,6.73-3.53,10.94s4.6,6.8,7.6,9.13c-2.85-.12-4,5.36-2.62,8.64s4.17,5,6.39,7.42c5.38,5.81,7.47,15.3,9.28,24.19l-3.54,1.59q6.21,4.1,12.43,8.18-2.93,6.64-5.84,13.3c-4.71.52-9-4.09-11.17-9.68s-2.49-12-2.82-18.29c-2.25-.13-4.51,1.4-5.77,3.88q-.87-6.15-1.75-12.29c-1.85,1.89-3.69,3.79-5.54,5.69q-1.1-7.25-2.2-14.49C697,53.34,695.82,64,700.18,66c-2.9,1-5,5.21-4.52,9.16A48.23,48.23,0,0,1,694,48c-4.05.58-6-6.49-6-11.89s-.29-12.3-4.13-14.12A15.15,15.15,0,0,0,681,33.13c-.92-2.07-3-3.15-4.7-2.48a38.06,38.06,0,0,0,5.57,13.77,30.41,30.41,0,0,0-16-2.13c1.11,5.89,6.11,8.53,9.88,12s6.49,11.59,2.7,15c5.64-.19,9.62,10.06,6.22,16a4.59,4.59,0,0,0-5.69-1.6q1.49,4.52,3,9a83.13,83.13,0,0,1-20.17-23.35c-1.8,2.13-.32,5.94.47,9s-1.23,7.85-3.07,5.77l10.22,8.35a17.27,17.27,0,0,0-9.17,4.71l11.57,4-4.54,5.18a32.93,32.93,0,0,1,15.93,1.51l-3.63,5.43,8.65-2"/></g></g></g></svg>