<svg xmlns="http://www.w3.org/2000/svg" viewBox="0 0 310.38 346.81"><defs><style>.cls-1{fill:#6d3010;}.cls-2{fill:#f6b03d;}.cls-3{fill:#d39439;}.cls-4{fill:#f0c549;}.cls-5{fill:#f6e560;}</style></defs><g id="Layer_2" data-name="Layer 2"><g id="OBJECTS"><g id="L3"><path class="cls-1" d="M162.92,313.25c.28,5.13,2.93,8.94,5,13.42,1.87,4,2.66,7.18,6.71,9.83l-2.65-.1,2,1.56c-2.58-.45-4.94-1.2-7.43-.19.41-.42.84-.83,1.26-1.24a9.48,9.48,0,0,0-3.7,1.81l1.72-1.77a3.67,3.67,0,0,0-3.07,1.6c.29-.65.59-1.29.88-1.94a8.08,8.08,0,0,1-2.72,2.06,2.8,2.8,0,0,1,1.18-2.24,10.21,10.21,0,0,1-4,2.91,4.49,4.49,0,0,0,1.69-1.77l-2.2.61a7.23,7.23,0,0,0,1.89-2,3.84,3.84,0,0,0-1.87.61,3.69,3.69,0,0,0,1.15-2.09,3.55,3.55,0,0,0-2.5,1.32c.4-1.08.79-2.15,1.19-3.22a4.6,4.6,0,0,0-2.52,3.26,3.63,3.63,0,0,1-.36-2.64c-.62,1.93-1.25,3.85-1.88,5.78v-2.68a10.31,10.31,0,0,1-5,4.66,4.65,4.65,0,0,1,1.61-2.31,1.4,1.4,0,0,0-1.41,0,5.87,5.87,0,0,0,2.18-3,3.16,3.16,0,0,0-2,1,2.91,2.91,0,0,0,.91-2.07,2.48,2.48,0,0,0-1.42,1.93V334.8a5.16,5.16,0,0,0-1.35,3.34c-.22-.75-.44-1.51-.67-2.26.64,2.14-1.19,4.13-2.84,5.06a3.9,3.9,0,0,1,.84-2,4.21,4.21,0,0,1-2.24.65c4.1-5,7.84-12,9.13-18.31,1-4.67-.68-9.38.16-14.07.55-3.12,2.22-5.94,3-9,1.42-5.3,2.49-12.87-1.67-17.1-2.35-2.39-5.41-4-7.89-6.22-6.5-5.9-8.08-15.34-9.27-24-.1-.7,0-1.67.7-1.75a37.88,37.88,0,0,0,6.7,19.43,19.94,19.94,0,0,1-1.24-9.4c.08-.76.83-1.76,1.37-1.21,0,3.65.1,7.39,1.39,10.81s4.1,6.5,7.71,7.07a1.39,1.39,0,0,0,1.2-.21,1.47,1.47,0,0,0,.32-.84,38.75,38.75,0,0,0-1.15-18.36,36.82,36.82,0,0,1-1.31-18.74c.38-1.92.91-3.89.49-5.8a12.72,12.72,0,0,0-1.3-3.12c-4.4-8.49-3.78-19.13-4.46-28.48a177.89,177.89,0,0,0-1.91-18,89.84,89.84,0,0,0-7.39-23.15c-.92-1.93-1.91-3.84-3-5.68,1-.95-.11-2.4,0-3.8a3.68,3.68,0,0,0,2.45,2.19L133.9,136a411.32,411.32,0,0,1,17.55,86.48,100.63,100.63,0,0,0,16.25-65.09c4.11,2.95,3.79,9,3.05,14.06q-1.91,12.7-3.8,25.42a46.88,46.88,0,0,0,13.33-24.6c2.72,2.51,1.85,7,.4,10.4-8.69,20.42-28.09,37.61-23.81,61.68a4.78,4.78,0,0,0,1.66,3.35c2.16,1.4,8.7-6.33,10.27-7.84a49.15,49.15,0,0,0,14.25-27c1.86,6.63-2.71,12.4-5.44,18a47.43,47.43,0,0,0,19.58-17.5c.36,2-1.11,3.76-2.48,5.23-1.79,1.92-3.59,3.84-5.56,5.58a85.17,85.17,0,0,1-9.88,7.67c-3.4,2.22-5.67,5.69-8.4,8.61q-5.31,5.7-10.63,11.38a6.86,6.86,0,0,0-1.5,2.1,6.74,6.74,0,0,0-.16,3.13c.86,7.86,1.06,16.15,2.94,23.85.29,1.2.84,2.58,2,2.82s2.13-.66,2.88-1.52a33.41,33.41,0,0,0,7.78-16.53c1.21-.31,1.56,1.61,1.26,2.82-.58,2.37-1.15,4.75-1.73,7.12,2.71-4.15,7.18-7,11-10.19a76.51,76.51,0,0,0,9.7-9.25,25.53,25.53,0,0,0,5.85-11.91c-.14,1.48.49,2.93.47,4.41,0,2-1.2,3.76-2.39,5.36-8.67,11.64-21.11,19.18-29.65,31C163.09,292.83,162.4,303.83,162.92,313.25Z"/><path class="cls-1" d="M133.72,334.28c1.57,3.91,4.89,6.84,8.36,9.13a31.08,31.08,0,0,0-6.8-.84,1.74,1.74,0,0,0,.17-.45,9.3,9.3,0,0,0-1.63.91,2.42,2.42,0,0,0,.88-2,9.36,9.36,0,0,0-2,1.82l-.43-2.5a8,8,0,0,0-.66,2.89,7.07,7.07,0,0,1-1-2.86c.05,1.28-.53,3.29-1.72,4-.48.28-3.07.06-3.09.1l.3-.62a2.32,2.32,0,0,1-1.11.36,3.55,3.55,0,0,0,.89-1.82,10.87,10.87,0,0,1-2.44,2.2.89.89,0,0,1,.34-.79L121.19,345l.7-1-1.8.23a2.35,2.35,0,0,0,1.89-1.35,4,4,0,0,0-2.11.78,3.43,3.43,0,0,0,1.64-1.78,4,4,0,0,0-2.35,1,4.06,4.06,0,0,0,.4-1.88l-1.86,2.25c.07-.66.13-1.31.2-2a5.7,5.7,0,0,1-2.68,3l.36-.76-1,.16a5.73,5.73,0,0,0,2.12-1.66,3.2,3.2,0,0,0-2.11.52,3.58,3.58,0,0,0,1.79-2.33,3.89,3.89,0,0,0-2.4,1.67,4.36,4.36,0,0,0,1-2.38,15.49,15.49,0,0,0-2.41,3.54,4,4,0,0,1-.14-1.79,5.2,5.2,0,0,1-2.75,3.94,6.07,6.07,0,0,0,.39-3,11.67,11.67,0,0,1-5.27,4.58c5.42-5.23,5.94-11.63,4.13-18.51A141.83,141.83,0,0,0,103,312c-5.39-13.47-8.7-27.4-13.18-41-3.09-9.4-6.1-18.83-9.16-28.23-1-3-2.77-5.56-3.3-8.69-.77-4.56.47-9.22.07-13.8a36.36,36.36,0,0,0-1.67-7.33c-.83-2.7-1.85-5.61-4.23-7.12s-5.36-1.19-8.06-.57c-3.34.76-5.77,2.57-8.86,3.63-3.35,1.15-7.6,1.06-11.1,1.52-1.43.18-3.43-.05-3.56-1.49a38.87,38.87,0,0,0,19.45-4.41c-3.57,2-12.78-5.66-14.64-8a33.89,33.89,0,0,1-2.33-3.47l-6.21-10.17c-.71-1.18-1-3.26.32-3.42,3.69,8.11,8.37,16.45,16.3,20.53q-1.66-4.68-3.73-9.2l1.15-1.06a57.68,57.68,0,0,0,5.14,11.07,3.11,3.11,0,0,0,1.15,1.28,3.23,3.23,0,0,0,1.75.14l10.28-1.12c.35,0,.79-.16.83-.51a.8.8,0,0,0-.23-.53c-5.5-7.27-14-13.37-20.65-19.69C43.91,176,39.2,171.52,36,166c-7-11.93-6.24-26.74-5.22-40.56,2.1,7.28,1.36,15.06,2.6,22.52,3.27,19.56,19.46,34.22,35.79,45.46-4.4-14.28-8.85-29.38-5.5-44-2.14,9.3,2,22.64,5.18,31.29,1.25,3.42,2,7.12,3.27,10.47,1.82,4.6,5.82,8.74,8.7,12.72a13.27,13.27,0,0,1,2.31,4.13,14.63,14.63,0,0,1,0,5.52c-1.31,12.43,0,27.84,6.65,38.65,1-9.87,1.28-19.77,2-29.66,1.9,1.55,1.73,4.45,1.44,6.89-1.38,11.49-1.81,23.29.56,34.68s8.33,22.78,12.75,33.62a106.29,106.29,0,0,0,7.61,16.06c5-4.9,2.2-14.54,1.09-20.56-1.16-6.35-2.46-12.67-3.81-19-1.39-6.51-1.52-8.8-6.3-13.42-2.75-2.65-4.11-6.41-5.15-10.09a87.77,87.77,0,0,1-2.78-14.45c-.07-.64.1-1.53.73-1.5s.73.73.77,1.27a65.3,65.3,0,0,0,4.47,19.28,8.25,8.25,0,0,0,1.76,3,3,3,0,0,0,3.2.76c-4.54-24.8-8.53-49.27-8.9-74.58-.07-4.76,0-9.6-1.27-14.19-2.08-7.45-7.46-13.45-11.38-20.13a55.94,55.94,0,0,1-6.34-39.88c.6,14.8,1.71,30.68,11,42.24,2.42-23.79,4.84-48,.63-71.5,2.27,2.73,3,6.4,3.48,9.91a176.51,176.51,0,0,1,1.27,40.31c-.54,6.48-1.43,13-.23,19.44,1.6,8.51,6.87,16.49,5.88,25.09a123.46,123.46,0,0,0,21.4-50.46c1.65,6.16-.26,12.68-2.55,18.64-3.71,9.7-8.44,19-11.7,28.87-5.93,17.89-1.81,37.94.29,56.22.58,5,.38,9.77,1.84,14.76q2.61-7.45,5.92-14.64c-3,6.51-8,23.21-3.08,29.62q1.83-9.68,3.35-19.42c1,1.57.78,3.59.52,5.43l-1.61,11.42c-1,7.1-1.43,23.29,4.75,28.4a1.17,1.17,0,0,0,.64.31,1.1,1.1,0,0,0,.81-.54c1.24-1.68,1.54-3.85,1.75-5.93,2.42-23.11,0-45.93-5.68-68.41l5.76,14.27c0-7.74,3.2-15.05,5.59-22.4s4-15.6.76-22.64c4.68,5.8,4.19,14.21,2.25,21.41-2.31,8.55-5.15,17.12-5.33,26.06-.18,9.23,1.49,18.53,2,27.75a217.71,217.71,0,0,1,4.8-21.41c1.29-4.65,2.84-9.45,6.2-12.91a236,236,0,0,0-10.52,42l7.78-9a2.64,2.64,0,0,1,.41,3.16A10,10,0,0,1,136.3,259c-7.45,7.28-6.39,17.41-6.2,26.94.25,12.17.68,24.33,1.51,36.47C131.89,326.34,132.22,330.55,133.72,334.28Z"/><path class="cls-1" d="M251.4,297.14c1.81,2.91,4.73,4.88,6.39,8.39,2.14,4.54.15,9.93.83,14.91s3.58,8.78,6.92,12.13c2.07,2.07,9.65,10.3,12.82,9.77-4.5.75-8.53-.68-12.88-1.42a1.55,1.55,0,0,0,.5-1.27,5.72,5.72,0,0,1-2,1,4.54,4.54,0,0,1,1.05-2.25c-2.27,1.66-3.17,2.25-5.91,2.56a1.64,1.64,0,0,0,1.33-1.14,3.76,3.76,0,0,0-3.22.54l2.1-2.28a2,2,0,0,0-2.13.87c.24-.94.49-1.88.73-2.82l-2.39,2.39.36-3.05a10.83,10.83,0,0,1-2.18,4.25,2.13,2.13,0,0,1,.37-2.41,9.51,9.51,0,0,1-3.56,3.34,1.89,1.89,0,0,0,.78-.62,14.81,14.81,0,0,0-4.07,1.16l1.27-1.05a4.64,4.64,0,0,0-3.69,1.19l1.48-1.86a13.27,13.27,0,0,1-3.83,2l-.09-.73a4.17,4.17,0,0,0-2.13.15,4.34,4.34,0,0,0,1.62-1.23,2.06,2.06,0,0,0-2.15.46,4.28,4.28,0,0,0,1.1-3.05,11.59,11.59,0,0,0-2.08,2.75l.3-3.31a23.44,23.44,0,0,1-2.21,4.53,1.54,1.54,0,0,1-.51-1.92,7.92,7.92,0,0,1-4.63,3.65l1.47-1.73L231,341a3.45,3.45,0,0,0,2.43-1.83l-1.53.09a2.14,2.14,0,0,0,2-2.06,2.5,2.5,0,0,0-2,1l.93-2.4a2.56,2.56,0,0,0-1.41,2.32,7.33,7.33,0,0,0-.28-3.51l-1.35,3.94a4.88,4.88,0,0,1-.34-3.36,6.94,6.94,0,0,1-5.24,6.1,3,3,0,0,0,2.37-2l-3.4,1.39a4,4,0,0,0,2.29-3.15c-2,2.28-5.61,4.74-8.7,4.46,4.35-4.45,9.74-7.36,13.28-12.73,2.81-4.25,8.28-8.76,9.49-13.73s-2.43-9.36-4.54-13.57c-2.58-5.13-1.92-9.65-2-15.38,0-1.61,0-3.38,1-4.61a7.69,7.69,0,0,1,3.3-1.85c9.21-3.52,24.23-17.78,19.76-29-1.32-3.33-9.42-10.7-12.28-5.46a6,6,0,0,1,4.06-3A16.43,16.43,0,0,0,234,236.41c.1-1.21,1.59-1.72,2.8-1.82a18.67,18.67,0,0,1,9.62,1.78c2.82,1.37,5.46,3.32,8.39,4.27,1.43-12.36-3-26.15-6-38-1-4-2.09-8.16-4.15-11.81-1.8-3.19-4.31-5.91-6.41-8.9-2.25-3.2-4-6.69-6.19-9.94-3-4.57-6.81-8.62-9.61-13.33a38.62,38.62,0,0,1-5.4-19.31c0-3.43,1.13-7.7,4.52-8.28a32,32,0,0,0,9.86,34,78.81,78.81,0,0,1-1.16-17.42c.07-1.63,1.12-3.86,2.6-3.17.12.05.81,17.23,1.3,19.13,1.73,6.67,4.76,10.34,9.3,15,7.57,7.81,11.7,18.64,14.22,29,.9,3.73,1,11.48,5.57,6.65,2.49-2.6,2.26-8.46,3.33-11.78a194.81,194.81,0,0,0,6-22.65c2.94-15,3.46-30.72-.75-45.41,1.71-.07,2.59,2,3,3.65a132.9,132.9,0,0,1,3.09,30.15c-.11,10-3.25,19-5.87,28.58,1.2.84,2.71-.49,3.52-1.7a109.13,109.13,0,0,0,15-32.92c4,3.92,2,10.69-.36,15.79a303.48,303.48,0,0,1-16.12,29.8,35.55,35.55,0,0,0,17.78-9.66c.29,3.2-3.33,5.12-6.2,6.56-4.63,2.32-6.82,5.28-10.16,8.68s-7.38,4.69-9.53,9c-6.94,6.93,1.57,26.86,3.06,34.69a9.35,9.35,0,0,1,.15,4.3c-1,3.6-5.65,4.68-8,7.56a14.1,14.1,0,0,0-1.77,3.06c-3.05,6.4-10.48,13.66-9.51,21.05A9.93,9.93,0,0,0,251.4,297.14Z"/><path class="cls-1" d="M209.8,318.51c.89,3.07,3,5.74,4.27,8.66,1.56,3.62,2.34,7.4,4.59,10.79a48.49,48.49,0,0,1-4.82-4.46,5.44,5.44,0,0,1,1.1,3.36l-2-2.73a6.19,6.19,0,0,1,.18,3.05l-1.57-1.75c1.26,1.4-4.39,2.78-4.78,3a7.92,7.92,0,0,1,.53-1.48,20.46,20.46,0,0,0-3.86,2.2,6.32,6.32,0,0,0,1.73-1.61,3.92,3.92,0,0,0-2.34,1.21,4.79,4.79,0,0,0,1.38-2.55,6,6,0,0,1-2.4,2c.27-.77.54-1.54.8-2.32-.52.77-1,1.53-1.58,2.3a3.25,3.25,0,0,1,.28-1.94,9.6,9.6,0,0,0-1.39,2,2,2,0,0,1-.16-2.28,13,13,0,0,1-2.89,3.65c.09-.54.19-1.08.29-1.62a6.72,6.72,0,0,0-3.24,1.61,6,6,0,0,0,2.11-3.38,13.56,13.56,0,0,1-5.77,2.85,6.69,6.69,0,0,0,2.85-3.71c-1.14.65-2.25,1.35-3.33,2.09a5.82,5.82,0,0,0,1.65-4.21,42,42,0,0,1-7.64,7.67c6.69-6.53,10.37-18.72,11.85-27.68,1.26-7.64.71-15.46.15-23.19a342,342,0,0,0-3.09-45.57c-2-14.61-12.35-25.81-20.2-37.67-14.05-21.23-20.6-46.41-26.92-71.08a22.13,22.13,0,0,1-1-7.29l17.55,53.47c-2-13.82-4.06-28-1.19-41.66,1.15-.21,1.69,1.35,1.78,2.51l1.2,17.36c1.41,20.13,4.1,41.74,21.31,55.3,8.66,6.81,4.85-14.83,4.39-17.88-1.52-10.1-4.06-20.4-1.48-30.56.82-3.22,2.14-6.3,2.92-9.53,2.46-10.19-.55-20.82-3.53-30.87a35.12,35.12,0,0,1,6.29,26.11c-1.33,8.13-5.54,16.22-3.5,24.21q3.78-6.6,7.58-13.19-1.84,5.06-3.68,10.1c-1.56,4.29-3.14,8.64-3.51,13.18-.84,10.37,3.78,23.62,4.76,34.22a99.91,99.91,0,0,0,13.85-31.69c2.66-10.93,5.23-23.64,2.09-34.66a31.84,31.84,0,0,1-1.12-4.37c-.73-5.27,2.27-10.43,6.13-14.09a36,36,0,0,0-4,7.42,12.13,12.13,0,0,0-.19,8.25c1.72,4.5,3.33,7.87,3.45,13a48.17,48.17,0,0,1-1.13,11.55c-1.23,5.54-3.45,11-3.06,16.65.08,1.11,4.9-3.95,5.21-4.41a70.13,70.13,0,0,0,4.94-9.05c2.95-6.21,2.73-11.83,2-18.64a17.15,17.15,0,0,1-.11-3.92c.43-3.61,2.92-6.59,5.31-9.33a29.24,29.24,0,0,0-3.82,9.22,8.68,8.68,0,0,0-.27,3.16,16.6,16.6,0,0,0,.69,2.48c1.51,4.94.39,10.31-1.49,15.12,0,0,3.44-1.74,4-2.16a29.91,29.91,0,0,0,4.66-5.19,44.68,44.68,0,0,0,6.48-12c.66.55.45,1.6.16,2.41a41.2,41.2,0,0,1-11,16.41,34.81,34.81,0,0,0-4.68,4.56c-3.94,5.22-5.62,11.36-10.34,16.27,5.59-.21,11.34-5.52,15.43-8.85a89.09,89.09,0,0,0,13.46-13.51,75.24,75.24,0,0,0,15.34-34.39c1,6.82-1.12,13.66-3.18,20.23a39.26,39.26,0,0,0,11.36-11.81c.47,2.36-.67,4.8-2.29,6.59a55.68,55.68,0,0,1-11.29,9.36v1a28.5,28.5,0,0,0,27.7-14.36,17.64,17.64,0,0,1-11,12.64c-.42.16-.92.38-1,.82s.5.83,1,1a10.81,10.81,0,0,0,6.27.17,5.79,5.79,0,0,1-4.7,1.34c-1.68-.15-3.31-.66-5-.8a21.94,21.94,0,0,0-4.5.26l-6.82.85c-7.15.89-10.18,9.83-15,14.7-7,7.06-15.4,12.44-23.56,18a19.28,19.28,0,0,0-4.24,3.54,16.73,16.73,0,0,0-2.05,3.49c-1.6,3.36-9.95,22.62-3.2,22.86a8.59,8.59,0,0,0,4.45-1.57c7.81-4.52,18.9-11.08,21.12-20.69.41-1.77.38-3.61.71-5.39,1-5.29,5-9.44,8.75-13.26a27.61,27.61,0,0,1-4.67,7.08c-.77.84-1.59,2.2-.74,3,3.84-2.35,6.93-5.57,11-7.41-2.82,4.58-8.86,6.46-11.53,11.14-1.48,2.6-1.71,5.72-2.7,8.54-2.48,7.08-8.79,9.67-13.54,14.54a12.46,12.46,0,0,1,2,.94,20.74,20.74,0,0,0,7.23,2.58,7.72,7.72,0,0,0,2.3.08c5.66-.83,10.64-6.39,16.57-6.93,3.26-.31,6.1,2,8.54,4.2a8.57,8.57,0,0,0-7.52-2.72,19.4,19.4,0,0,0-7.73,3c-3.85,2.28-7.79,5.16-12.26,4.87-5.08-.32-8.21-4.26-13.43-2.52-12.3,4.09-11.88,12-11,23.55,1.26,15.59,4.29,31,4.62,46.68C208.4,306.75,208.15,312.8,209.8,318.51Z"/><path class="cls-2" d="M138.71,80.82a9.19,9.19,0,0,1-1.6-7.77A4.27,4.27,0,0,1,136,75.42c-.69.57-1.95.5-2.26-.33-.1,1.07-.19,2.14-.29,3.21-.88-1.27-1.75-2.55-2.63-3.83.48,1.08-1.17,2.08-2.22,1.54s-1.46-1.79-1.78-2.93A2.86,2.86,0,0,0,125.55,76l-3.69-1.25,1.53,2.37c-.87,1.13-2.84.62-3.61-.59a6.85,6.85,0,0,1-.58-4.17c-.61.63-1.23,1.25-1.85,1.87a6.41,6.41,0,0,1-2.89-3.9c-1,1.84-3.41,1.81-3.19,3.93l2.21,1.56a6.1,6.1,0,0,1-7.26-2.13c.85.36-.54,1.53-1.32,1s-1.37-1.55-2.29-1.42a4.94,4.94,0,0,0,4.11,3.83,4.86,4.86,0,0,1-7.38-1.44,5,5,0,0,1-1.06,3.53L94.4,77.54c-2-.86-3.31-.63-4.92-2.1-.84,2.7,2.21,5.72,4.9,4.84a5,5,0,0,1-5,3.56A4.49,4.49,0,0,0,87.19,80c.56,1.31-.85,2.78-2.27,2.86A6.85,6.85,0,0,1,81,81.37l1.59,4a10.64,10.64,0,0,1-2.35-8.72,5.43,5.43,0,0,1-2.74,2.54l-3.4-4.55-2.15,3.82-.78,5.26-2.75-.44a4.92,4.92,0,0,1-.16-6.12,2.73,2.73,0,0,1-4.12-1.59,6.21,6.21,0,0,1-.67,3.65c-.69,1-2.36,1.54-3.22.62A1.27,1.27,0,1,1,59,81.62l1.16,3.06a4,4,0,0,1,5.27,2.69L70,85.74c-.94,1,.28,2.79,1.66,2.84s2.57-.9,3.6-1.81c.36,1.54.71,3.08,1.06,4.62a13,13,0,0,1-5.52-1.76,10.75,10.75,0,0,1-4.16,4.55l-2.51-2.46a4.43,4.43,0,0,0-1.55,4.66l7,.23a3.79,3.79,0,0,0,.28,3.42,24,24,0,0,0,7.13-4A6,6,0,0,1,66.7,101a5.35,5.35,0,0,1-6.43-2.33,4.18,4.18,0,0,1-1.6,4.6,4.34,4.34,0,0,1,2.56,4.22,8.08,8.08,0,0,1-4.17-.71,7.29,7.29,0,0,1,1,4.6,4,4,0,0,1-2.64-2.07c.54.87,1.07,1.75,1.61,2.63a9.54,9.54,0,0,1-6-.67A6.26,6.26,0,0,1,52,115c-.22,1.27-1.66,2.39-2.8,1.79A3.14,3.14,0,0,1,48,115.07l-2.46-6-2,7.64c.46,2.75,4,4.06,6.64,3.23s4.61-3.08,6.4-5.21A11.66,11.66,0,0,0,59,117.77l4.34-4.14a3.36,3.36,0,0,1-2.26,4.84l2.54,2.89-2.43,2a6.72,6.72,0,0,0,9.26-2.6c.51-1,.86-2.33,1.92-2.75s2.26,1.47,1.15,1.76a14.83,14.83,0,0,1,3.32-6.53,3.72,3.72,0,0,1-.57,5.46c1,.51,1.93,1,2.9,1.51l-2,2.44c.12,2.78,5.29,2.83,5.48.07l1.9,3.6a11.41,11.41,0,0,1,4.85-5l-3-4.19a59.94,59.94,0,0,0,8.47,4.9,8.62,8.62,0,0,0-1.13-6,11.2,11.2,0,0,0,4.48,5.14,5,5,0,0,0-2.13-7,10.67,10.67,0,0,0,7.25,2.83,6,6,0,0,0-2.6-3.76,8.36,8.36,0,0,0,9.49-.38,12.1,12.1,0,0,1-9.27-5.4,1.62,1.62,0,0,0,1.11-2.32,5.57,5.57,0,0,0,5.8,1.24,2.9,2.9,0,0,0,3.66,2.93q.84,3.33,1.66,6.65a6.1,6.1,0,0,0,4-3.47l.16,5.58c0-1,1.57-1.46,2.39-.8a4.2,4.2,0,0,1,1.18,2.84c.45-1.92.89-3.85,1.33-5.77a6.76,6.76,0,0,0,3.45,3.09,6.82,6.82,0,0,0-1.31-3.15l3.51.7-2.32-3.52a10.11,10.11,0,0,0-6.2-2.43,4.1,4.1,0,0,0,2.53-2.95,5.33,5.33,0,0,1-3.54-.94c-.93-.83-.91-2.71.28-3.07.53,1.47,1.06,2.93,1.58,4.4a9.36,9.36,0,0,0,3.73-1.89,14.27,14.27,0,0,0,7.86,4.17,5.87,5.87,0,0,0,.54,4.13,6.2,6.2,0,0,0,.92-8.59,38.66,38.66,0,0,1-6.66-9.15A2.75,2.75,0,0,1,129.1,98a2.59,2.59,0,0,1-.52-3,7.71,7.71,0,0,1,4,3.36A6.81,6.81,0,0,0,137.06,97L135,94.58l3.3-.71c-1-.19-2.06-.5-2.44-1.4s.92-2.09,1.51-1.32l-2.22-2.33c2.25,3.51,8.11,3.79,10.68.51l-7.2-5C137.51,83.42,137.4,81.46,138.71,80.82Z"/><path class="cls-2" d="M126,69.29a9.17,9.17,0,0,1-1.6-7.76,4.22,4.22,0,0,1-1.15,2.36c-.68.57-1.94.51-2.25-.33-.1,1.07-.19,2.15-.29,3.22L118.06,63c.48,1.07-1.17,2.07-2.22,1.54s-1.46-1.8-1.78-2.93a2.82,2.82,0,0,0-1.24,2.91l-3.69-1.25,1.53,2.38c-.87,1.13-2.84.62-3.61-.59a6.89,6.89,0,0,1-.58-4.18c-.61.63-1.23,1.25-1.85,1.88a6.4,6.4,0,0,1-2.89-3.91c-1,1.85-3.41,1.82-3.19,3.93l2.21,1.56a6.1,6.1,0,0,1-7.27-2.13c.86.37-.53,1.53-1.31,1s-1.38-1.55-2.3-1.42A4.94,4.94,0,0,0,94,65.59a4.85,4.85,0,0,1-7.38-1.44,5,5,0,0,1-1.06,3.54L81.67,66c-2-.87-3.31-.64-4.92-2.11-.84,2.7,2.21,5.72,4.9,4.84a4.94,4.94,0,0,1-5,3.56,4.51,4.51,0,0,0-2.22-3.81c.55,1.32-.85,2.78-2.28,2.86a6.75,6.75,0,0,1-3.92-1.52l1.59,4a10.62,10.62,0,0,1-2.36-8.71,5.45,5.45,0,0,1-2.73,2.54q-1.7-2.28-3.41-4.55c-.71,1.27-1.43,2.54-2.15,3.81l-.78,5.26-2.74-.44a4.9,4.9,0,0,1-.16-6.11,2.74,2.74,0,0,1-4.12-1.6,6.37,6.37,0,0,1-.67,3.65c-.69,1.05-2.36,1.54-3.22.62a1.27,1.27,0,1,1-1.21,1.73c.38,1,.77,2,1.16,3.06a4,4,0,0,1,5.27,2.69l4.57-1.63c-.94,1,.28,2.79,1.66,2.85s2.56-.91,3.6-1.81l1.06,4.62A13.18,13.18,0,0,1,58.1,78.1a10.7,10.7,0,0,1-4.16,4.55l-2.51-2.46a4.43,4.43,0,0,0-1.55,4.66l7,.23a3.82,3.82,0,0,0,.27,3.42,23.7,23.7,0,0,0,7.14-4A6,6,0,0,1,54,89.51a5.36,5.36,0,0,1-6.43-2.32,4.15,4.15,0,0,1-1.61,4.59A4.35,4.35,0,0,1,48.5,96a8,8,0,0,1-4.17-.72,7.35,7.35,0,0,1,1,4.6,4,4,0,0,1-2.64-2.07l1.6,2.63a9.51,9.51,0,0,1-6-.66,6.23,6.23,0,0,1,.91,3.7c-.22,1.27-1.66,2.38-2.81,1.78a3.17,3.17,0,0,1-1.22-1.73l-2.46-6-2,7.65c.46,2.75,4,4,6.64,3.22s4.6-3.07,6.4-5.21a11.67,11.67,0,0,0,2.51,3.09l4.34-4.14a3.36,3.36,0,0,1-2.26,4.83l2.54,2.89-2.43,2a6.72,6.72,0,0,0,9.26-2.6c.51-1,.85-2.32,1.92-2.75s2.26,1.48,1.15,1.76a14.72,14.72,0,0,1,3.32-6.53,3.74,3.74,0,0,1-.58,5.47l2.91,1.51c-.66.81-1.32,1.62-2,2.44.12,2.77,5.29,2.83,5.48.06.63,1.2,1.27,2.4,1.9,3.61a11.44,11.44,0,0,1,4.85-5c-1-1.39-2-2.79-3-4.18a60.61,60.61,0,0,0,8.48,4.9,8.61,8.61,0,0,0-1.13-6,11.17,11.17,0,0,0,4.48,5.13,5,5,0,0,0-2.13-7,10.72,10.72,0,0,0,7.25,2.83,5.93,5.93,0,0,0-2.61-3.77,8.38,8.38,0,0,0,9.5-.38A12.08,12.08,0,0,1,88.31,96a1.64,1.64,0,0,0,1.11-2.33,5.55,5.55,0,0,0,5.8,1.25,2.89,2.89,0,0,0,3.66,2.92c.55,2.22,1.11,4.44,1.66,6.66a6.11,6.11,0,0,0,3.94-3.47l.17,5.58c0-1.05,1.56-1.46,2.39-.81a4.27,4.27,0,0,1,1.18,2.84c.44-1.92.89-3.85,1.33-5.77A6.74,6.74,0,0,0,113,106a6.85,6.85,0,0,0-1.3-3.15l3.51.7c-.78-1.17-1.55-2.35-2.32-3.52a10.13,10.13,0,0,0-6.2-2.43,4.08,4.08,0,0,0,2.53-2.95,5.38,5.38,0,0,1-3.54-.93c-.93-.84-.92-2.72.28-3.07.53,1.46,1,2.93,1.58,4.39a9.11,9.11,0,0,0,3.73-1.89,14.14,14.14,0,0,0,7.86,4.17,5.87,5.87,0,0,0,.54,4.13,6.22,6.22,0,0,0,.92-8.59,38.19,38.19,0,0,1-6.66-9.15,2.73,2.73,0,0,1,2.44,2.78,2.59,2.59,0,0,1-.51-3,7.65,7.65,0,0,1,4,3.36,6.82,6.82,0,0,0,4.47-1.34c-.68-.81-1.37-1.61-2.06-2.42l3.31-.7c-1-.2-2.06-.5-2.44-1.4s.92-2.1,1.51-1.32l-2.22-2.34c2.25,3.51,8.11,3.79,10.68.51l-7.21-5C124.78,71.89,124.67,69.94,126,69.29Z"/><path class="cls-2" d="M107.09,104.83a9.2,9.2,0,0,1,.59,7.91,4.23,4.23,0,0,1,1.43-2.2c.76-.48,2-.25,2.2.62.23-1,.47-2.1.7-3.16q1,2.07,2.12,4.14c-.35-1.12,1.42-1.91,2.39-1.24s1.22,2,1.39,3.13a2.82,2.82,0,0,0,1.61-2.73L123,113l-1.22-2.55c1-1,2.9-.25,3.51,1a6.8,6.8,0,0,1,0,4.21l2.08-1.62a6.42,6.42,0,0,1,2.37,4.25c1.28-1.7,3.61-1.37,3.67-3.49l-2-1.83a6.08,6.08,0,0,1,6.92,3c-.79-.48.73-1.45,1.44-.85s1.16,1.71,2.09,1.7a5,5,0,0,0-3.58-4.32,4.85,4.85,0,0,1,7.13,2.38,5,5,0,0,1,1.51-3.37l3.63,2.16c1.87,1.11,3.2,1,4.6,2.72,1.19-2.57-1.45-6-4.23-5.44a4.94,4.94,0,0,1,5.39-2.88,4.49,4.49,0,0,0,1.71,4.06c-.38-1.37,1.2-2.65,2.62-2.55a6.87,6.87,0,0,1,3.7,2c-.36-1.41-.71-2.82-1.06-4.22a10.61,10.61,0,0,1,1.22,8.94,5.4,5.4,0,0,1,3-2.16l2.79,5,2.63-3.51,1.45-5.11,2.67.79a4.9,4.9,0,0,1-.64,6.08,2.74,2.74,0,0,1,3.89,2.11,6.26,6.26,0,0,1,1.13-3.53c.82-1,2.54-1.23,3.27-.2a1.27,1.27,0,1,1,1.43-1.56c-.25-1.06-.5-2.12-.76-3.18a4,4,0,0,1-4.88-3.35l-4.74,1c1.06-.89.08-2.8-1.28-3s-2.66.57-3.81,1.33l-.45-4.72a13.24,13.24,0,0,1,5.24,2.46,10.79,10.79,0,0,1,4.72-4c.73.92,1.45,1.84,2.17,2.77a4.44,4.44,0,0,0,2.14-4.43l-6.95-1.14a3.78,3.78,0,0,0,.16-3.42,23.82,23.82,0,0,0-7.59,3.09,6,6,0,0,1,10.92-3.68,5.36,5.36,0,0,1,6.08,3.14,4.16,4.16,0,0,1,2.18-4.35,4.36,4.36,0,0,1-2-4.52,8,8,0,0,1,4,1.25,7.37,7.37,0,0,1-.45-4.7,4,4,0,0,1,2.36,2.39c-.42-.94-.84-1.88-1.25-2.82a9.62,9.62,0,0,1,5.84,1.43,6.21,6.21,0,0,1-.43-3.78c.39-1.23,2-2.15,3-1.41a3.18,3.18,0,0,1,1,1.87c.55,2.1,1.1,4.21,1.66,6.31l3-7.32c-.1-2.79-3.42-4.53-6.17-4.05s-5,2.45-7,4.34a11.61,11.61,0,0,0-2.1-3.38L186,82a3.35,3.35,0,0,1,2.86-4.5l-2.15-3.2,2.67-1.69A6.72,6.72,0,0,0,179.91,74c-.64,1-1.15,2.2-2.26,2.48s-2.05-1.75-.91-1.89a14.78,14.78,0,0,1-4.14,6,3.73,3.73,0,0,1,1.28-5.34l-2.69-1.87,2.27-2.17c.24-2.76-4.89-3.49-5.43-.76-.47-1.28-.95-2.55-1.42-3.83A11.4,11.4,0,0,1,161.16,71c.8,1.51,1.61,3,2.41,4.54a59.67,59.67,0,0,0-7.77-6,8.62,8.62,0,0,0,.35,6,11.21,11.21,0,0,0-3.78-5.67,5,5,0,0,0,1.21,7.24,10.72,10.72,0,0,0-6.83-3.74,6,6,0,0,0,2.1,4.07,8.34,8.34,0,0,0-9.46-.84,12.09,12.09,0,0,1,8.5,6.54,1.63,1.63,0,0,0-1.41,2.16,5.55,5.55,0,0,0-5.58-2A2.9,2.9,0,0,0,137.64,80l-.79-6.82a6.12,6.12,0,0,0-4.36,2.94c.19-1.85.37-3.71.56-5.56-.11,1-1.74,1.25-2.48.49a4.22,4.22,0,0,1-.8-3c-.69,1.85-1.38,3.71-2.06,5.56a6.71,6.71,0,0,0-3-3.51,6.79,6.79,0,0,0,.89,3.29l-3.39-1.14L124,76.06a10.1,10.1,0,0,0,5.83,3.21,4.09,4.09,0,0,0-2.89,2.6,5.35,5.35,0,0,1,3.39,1.39c.82.94.56,2.8-.67,3-.34-1.52-.67-3-1-4.56a9.45,9.45,0,0,0-3.95,1.39A14.21,14.21,0,0,0,117.5,78a5.87,5.87,0,0,0,0-4.17,6.2,6.2,0,0,0-2,8.4,38.8,38.8,0,0,1,5.42,9.93A2.74,2.74,0,0,1,118.83,89,2.57,2.57,0,0,1,119,92.1a7.72,7.72,0,0,1-3.54-3.85,6.86,6.86,0,0,0-4.61.75c.58.89,1.16,1.77,1.73,2.66l-3.36.28c.92.31,2,.76,2.24,1.7s-1.19,2-1.67,1.11c.63.87,1.26,1.74,1.9,2.6-1.78-3.77-7.56-4.8-10.53-1.87l6.51,5.86C108.61,102.41,108.47,104.36,107.09,104.83Z"/><path class="cls-2" d="M118.2,74.54a9.18,9.18,0,0,1,.59,7.9,4.25,4.25,0,0,1,1.44-2.19c.75-.48,2-.25,2.19.62.24-1.06.47-2.11.7-3.16l2.12,4.14c-.34-1.12,1.42-1.91,2.4-1.24s1.22,2,1.39,3.13a2.83,2.83,0,0,0,1.6-2.73l3.5,1.72-1.22-2.55c1-1,2.91-.25,3.51,1a6.83,6.83,0,0,1,0,4.22l2.07-1.62a6.38,6.38,0,0,1,2.37,4.24c1.28-1.69,3.61-1.36,3.67-3.48l-2-1.83a6.1,6.1,0,0,1,6.93,3c-.8-.48.73-1.45,1.44-.85s1.16,1.71,2.09,1.7a5,5,0,0,0-3.59-4.32,4.85,4.85,0,0,1,7.13,2.38,5,5,0,0,1,1.51-3.37l3.63,2.15c1.88,1.12,3.2,1.06,4.6,2.72,1.19-2.56-1.45-5.95-4.23-5.43a5,5,0,0,1,5.39-2.88A4.5,4.5,0,0,0,169.19,82c-.38-1.38,1.2-2.65,2.62-2.55a6.84,6.84,0,0,1,3.7,2c-.35-1.41-.71-2.82-1.06-4.22a10.61,10.61,0,0,1,1.22,8.94,5.4,5.4,0,0,1,3-2.16q1.41,2.48,2.8,5l2.62-3.51c.49-1.7,1-3.41,1.45-5.11l2.67.79a4.91,4.91,0,0,1-.63,6.08,2.73,2.73,0,0,1,3.88,2.11,6.39,6.39,0,0,1,1.13-3.54c.83-1,2.54-1.22,3.28-.19A1.27,1.27,0,1,1,197.32,84l-.75-3.18a4,4,0,0,1-4.88-3.35l-4.74,1c1.06-.88.07-2.8-1.29-3s-2.66.57-3.8,1.33c-.16-1.57-.31-3.14-.46-4.72a13.14,13.14,0,0,1,5.25,2.46,10.74,10.74,0,0,1,4.72-4l2.17,2.76a4.43,4.43,0,0,0,2.13-4.42l-6.95-1.14a3.79,3.79,0,0,0,.17-3.42,23.78,23.78,0,0,0-7.6,3.09,6,6,0,0,1,10.93-3.68,5.36,5.36,0,0,1,6.07,3.13,4.16,4.16,0,0,1,2.18-4.34,4.39,4.39,0,0,1-2-4.52,8.08,8.08,0,0,1,4.05,1.24,7.28,7.28,0,0,1-.44-4.69A4,4,0,0,1,204.43,57l-1.25-2.82A9.55,9.55,0,0,1,209,55.58a6.21,6.21,0,0,1-.43-3.78c.39-1.24,2-2.15,3-1.41a3.13,3.13,0,0,1,1,1.87l1.66,6.31,3-7.32c-.09-2.79-3.42-4.53-6.17-4s-5,2.45-7,4.34A11.85,11.85,0,0,0,202,48.15l-4.84,3.55A3.36,3.36,0,0,1,200,47.2L197.87,44l2.67-1.69A6.73,6.73,0,0,0,191,43.7c-.64,1-1.15,2.2-2.26,2.48s-2-1.75-.91-1.89a14.75,14.75,0,0,1-4.13,6A3.72,3.72,0,0,1,185,45l-2.69-1.87L184.57,41c.24-2.76-4.88-3.49-5.42-.77-.48-1.27-1-2.54-1.43-3.82a11.35,11.35,0,0,1-5.45,4.31q1.22,2.27,2.41,4.53a59.87,59.87,0,0,0-7.77-6,8.7,8.7,0,0,0,.35,6,11.15,11.15,0,0,0-3.77-5.67,5,5,0,0,0,1.2,7.24,10.72,10.72,0,0,0-6.83-3.74A6,6,0,0,0,160,47.2a8.34,8.34,0,0,0-9.46-.84A12,12,0,0,1,159,52.9a1.62,1.62,0,0,0-1.4,2.16,5.57,5.57,0,0,0-5.59-2,2.9,2.9,0,0,0-3.26-3.37c-.26-2.27-.52-4.55-.79-6.82a6.12,6.12,0,0,0-4.35,2.94q.27-2.79.55-5.56c-.11,1-1.74,1.25-2.47.49a4.23,4.23,0,0,1-.81-3c-.69,1.85-1.37,3.7-2.06,5.56a6.71,6.71,0,0,0-3-3.51,6.79,6.79,0,0,0,.89,3.29L133.3,42c.62,1.26,1.24,2.52,1.85,3.78A10.1,10.1,0,0,0,141,49a4.09,4.09,0,0,0-2.89,2.6,5.42,5.42,0,0,1,3.4,1.38c.81.95.55,2.81-.68,3-.33-1.52-.67-3-1-4.56a9.23,9.23,0,0,0-3.94,1.39,14.18,14.18,0,0,0-7.26-5.14,5.87,5.87,0,0,0,0-4.17,6.2,6.2,0,0,0-2,8.4A38.5,38.5,0,0,1,132,61.82,2.73,2.73,0,0,1,130,58.75a2.6,2.6,0,0,1,.12,3.06A7.78,7.78,0,0,1,126.52,58a6.83,6.83,0,0,0-4.6.75l1.73,2.66-3.37.27c.93.32,2,.77,2.24,1.71s-1.18,2-1.67,1.11l1.9,2.6c-1.77-3.77-7.55-4.8-10.52-1.88l6.5,5.87C119.72,72.11,119.58,74.07,118.2,74.54Z"/><path class="cls-2" d="M100.39,59.16a9.2,9.2,0,0,1,.59,7.91,4.18,4.18,0,0,1,1.44-2.2c.75-.48,2-.25,2.19.62.24-1,.47-2.1.7-3.16l2.12,4.14c-.34-1.12,1.42-1.91,2.39-1.24s1.22,2,1.39,3.13a2.82,2.82,0,0,0,1.61-2.73l3.5,1.72L115.1,64.8c1-1,2.91-.25,3.51,1a6.8,6.8,0,0,1,0,4.21l2.08-1.62a6.38,6.38,0,0,1,2.37,4.25c1.28-1.7,3.61-1.37,3.67-3.49l-2-1.83a6.1,6.1,0,0,1,6.93,3c-.8-.48.73-1.45,1.43-.85s1.17,1.71,2.09,1.7A5,5,0,0,0,131.64,67a4.85,4.85,0,0,1,7.13,2.38A5,5,0,0,1,140.28,66l3.63,2.16c1.87,1.11,3.2,1,4.6,2.72,1.19-2.57-1.45-6-4.23-5.44a4.94,4.94,0,0,1,5.39-2.88,4.49,4.49,0,0,0,1.71,4.06c-.38-1.37,1.2-2.65,2.62-2.55a6.84,6.84,0,0,1,3.7,2c-.35-1.41-.71-2.82-1.06-4.22a10.61,10.61,0,0,1,1.22,8.94,5.4,5.4,0,0,1,3-2.16l2.8,5,2.62-3.51,1.45-5.11,2.67.79a4.9,4.9,0,0,1-.64,6.08,2.74,2.74,0,0,1,3.89,2.11,6.33,6.33,0,0,1,1.13-3.53c.82-1,2.54-1.23,3.27-.2a1.27,1.27,0,1,1,1.43-1.56l-.75-3.18a4,4,0,0,1-4.88-3.35l-4.74,1c1.06-.89.07-2.8-1.29-3s-2.66.57-3.8,1.33c-.16-1.57-.31-3.14-.46-4.72a13.34,13.34,0,0,1,5.25,2.46,10.77,10.77,0,0,1,4.71-4c.73.92,1.45,1.84,2.17,2.77a4.44,4.44,0,0,0,2.14-4.43l-7-1.14a3.82,3.82,0,0,0,.17-3.42,23.78,23.78,0,0,0-7.6,3.09,6,6,0,0,1,10.93-3.68,5.36,5.36,0,0,1,6.07,3.14,4.16,4.16,0,0,1,2.18-4.35,4.36,4.36,0,0,1-2-4.52,8,8,0,0,1,4.05,1.25,7.31,7.31,0,0,1-.44-4.7,4,4,0,0,1,2.35,2.39c-.42-.94-.84-1.88-1.25-2.82a9.62,9.62,0,0,1,5.84,1.43,6.21,6.21,0,0,1-.43-3.78c.39-1.23,2-2.15,3-1.41a3.13,3.13,0,0,1,1,1.87l1.66,6.31,3-7.32c-.09-2.79-3.42-4.53-6.17-4s-5,2.45-7,4.34a11.8,11.8,0,0,0-2.09-3.38l-4.84,3.54a3.36,3.36,0,0,1,2.86-4.5l-2.14-3.2,2.66-1.69a6.72,6.72,0,0,0-9.51,1.39c-.64,1-1.15,2.2-2.26,2.48s-2-1.75-.91-1.89a14.68,14.68,0,0,1-4.14,6,3.73,3.73,0,0,1,1.28-5.34l-2.69-1.87,2.27-2.17c.24-2.76-4.89-3.48-5.43-.76-.47-1.28-.94-2.55-1.42-3.83a11.35,11.35,0,0,1-5.45,4.31l2.41,4.54a59,59,0,0,0-7.77-5.95,8.67,8.67,0,0,0,.35,6,11.25,11.25,0,0,0-3.77-5.67,5,5,0,0,0,1.2,7.24,10.72,10.72,0,0,0-6.83-3.74,6,6,0,0,0,2.1,4.07,8.34,8.34,0,0,0-9.46-.84,12.09,12.09,0,0,1,8.5,6.54,1.63,1.63,0,0,0-1.41,2.16,5.55,5.55,0,0,0-5.58-2,2.9,2.9,0,0,0-3.26-3.37c-.26-2.27-.53-4.54-.79-6.82a6.14,6.14,0,0,0-4.36,2.94l.56-5.56c-.11,1.05-1.74,1.25-2.47.49a4.18,4.18,0,0,1-.81-3c-.69,1.85-1.37,3.71-2.06,5.56a6.71,6.71,0,0,0-3-3.51,6.79,6.79,0,0,0,.89,3.29l-3.39-1.14,1.85,3.78a10.1,10.1,0,0,0,5.83,3.21,4.09,4.09,0,0,0-2.89,2.6,5.4,5.4,0,0,1,3.4,1.39c.81.94.55,2.8-.68,3-.34-1.52-.67-3-1-4.56a9.45,9.45,0,0,0-4,1.39,14.17,14.17,0,0,0-7.25-5.14,5.87,5.87,0,0,0,0-4.17,6.22,6.22,0,0,0-2,8.41,38.28,38.28,0,0,1,5.42,9.92,2.73,2.73,0,0,1-2.06-3.07,2.6,2.6,0,0,1,.12,3.06,7.74,7.74,0,0,1-3.55-3.85,6.82,6.82,0,0,0-4.6.75c.57.89,1.15,1.77,1.73,2.66l-3.37.28c.92.31,2,.76,2.24,1.7s-1.18,2-1.67,1.11l1.9,2.6c-1.77-3.77-7.55-4.8-10.52-1.87l6.5,5.86C101.91,56.74,101.77,58.69,100.39,59.16Z"/><path class="cls-3" d="M174,196.31a12,12,0,0,1,4.5-9.29,5.57,5.57,0,0,1-3.06,1.54c-1.15.05-2.41-1-2.07-2.13l-2.84,3.09c.1-2,.21-4,.31-6-.35,1.49-2.85,1.22-3.51-.16s-.09-3,.48-4.44a3.69,3.69,0,0,0-3.59,2c-.94-1.4-1.88-2.81-2.83-4.21-.09,1.22-.19,2.44-.29,3.66-1.8.48-3.43-1.61-3.27-3.46s1.47-3.39,2.71-4.78l-3.4.48a8.36,8.36,0,0,1,.11-6.33c-2.55,1.07-5-.82-6.41,1.53.35,1.12.69,2.24,1,3.36a7.93,7.93,0,0,1-5.81-7.95c.59,1-1.77,1.16-2.18,0s-.19-2.69-1.24-3.28a6.45,6.45,0,0,0,1.22,7.21,6.33,6.33,0,0,1-6.49-7.34,6.44,6.44,0,0,1-3.89,2.82l-2.69-4.8c-1.39-2.48-2.92-3.28-3.41-6.07-3,2.12-2.25,7.66,1.22,8.89a6.43,6.43,0,0,1-7.95-.27,5.84,5.84,0,0,0,.72-5.69c-.46,1.8-3.08,2.2-4.61,1.16s-2.24-2.93-2.86-4.68l-1.56,5.44a13.82,13.82,0,0,1,4.47-10.87,7.09,7.09,0,0,1-4.84.46l.08-7.4-5.24,2.24-5,4.81-2.49-2.63A6.38,6.38,0,0,1,104,136.8a3.57,3.57,0,0,1-3-4.92,8.29,8.29,0,0,1-3.58,3.25c-1.55.54-3.66-.28-3.82-1.91a1.65,1.65,0,1,1-2.62.83l-1.23,4.07a5.22,5.22,0,0,1,3.32,7l6,1.93c-1.77.31-1.91,3.11-.53,4.26s3.36,1.1,5.15,1c-.85,1.87-1.71,3.74-2.56,5.62a17,17,0,0,1-4.31-6.2A14,14,0,0,1,89,153.08c-.21-1.51-.42-3-.64-4.54a5.76,5.76,0,0,0-5.29,3.6L90.11,158a5,5,0,0,0-2.42,3.75,30.86,30.86,0,0,0,10.58,1.47,7.79,7.79,0,0,1-14.71-3,7,7,0,0,1-4.8-7.49,5.42,5.42,0,0,1-5.3,3.47,5.7,5.7,0,0,1-.69,6.4,10.48,10.48,0,0,1-3.75-4,9.56,9.56,0,0,1-2.57,5.58,5.2,5.2,0,0,1-1.09-4.23l-.42,4a12.4,12.4,0,0,1-5.65-5.42c-.34,1.65-.75,3.41-2,4.55s-3.61,1.14-4.31-.38a4.1,4.1,0,0,1,.09-2.76l2.25-8.19L47.17,158c-1.71,3.2.9,7.34,4.31,8.59s7.19.47,10.74-.32a15,15,0,0,0,.15,5.18l7.76-.85A4.38,4.38,0,0,1,64,173.78l.33,5-4.11.17a8.76,8.76,0,0,0,11.63,4.64c1.34-.67,2.73-1.73,4.17-1.32s1.17,3.31-.21,2.72a19.27,19.27,0,0,1,8.6-4.11,4.85,4.85,0,0,1-4.92,5.19l1.81,3.86-4,1c-2.07,3,3.23,7.12,5.61,4.4-.29,1.75-.59,3.49-.89,5.24a14.88,14.88,0,0,1,9-1.3c.08-2.23.15-4.46.23-6.68a79.53,79.53,0,0,0,4.88,11.77,11.31,11.31,0,0,0,3.55-7,14.57,14.57,0,0,0,.56,8.85,6.54,6.54,0,0,0,3.36-8.94,13.91,13.91,0,0,0,5.26,8.66,7.77,7.77,0,0,0,.28-6A10.89,10.89,0,0,0,119.22,207a15.71,15.71,0,0,1-5.31-12.92,2.12,2.12,0,0,0,3-1.52,7.22,7.22,0,0,0,5,5.88,3.77,3.77,0,0,0,1.47,5.92l-3.55,8.2a8,8,0,0,0,6.82-.47L122.4,218c.8-1.11,2.77-.27,3.1,1.06s-.36,2.68-1,3.87l5.95-4.91a8.76,8.76,0,0,0,1.11,5.92,8.86,8.86,0,0,0,1.15-4.29l3.07,3.5.39-5.48a13.17,13.17,0,0,0-4.48-7.41,5.35,5.35,0,0,0,5-1c-1.27-1-2.62-2.17-2.92-3.77s1.2-3.53,2.72-2.95c-.62,1.93-1.23,3.86-1.85,5.79a12,12,0,0,0,5.35,1,18.5,18.5,0,0,0,4.82,10.52,7.7,7.7,0,0,0-2.71,4.7,8.08,8.08,0,0,0,7.76-8.15,49.76,49.76,0,0,1,.36-14.72,3.57,3.57,0,0,1,.32,4.81,3.37,3.37,0,0,1,1.86-3.53,10,10,0,0,1,1.48,6.65,8.85,8.85,0,0,0,5.68,2.16l-.21-4.13,4,1.89c-.83-1-1.73-2.15-1.41-3.38s2.61-1.44,2.61-.17l-.45-4.17c-.46,5.4,5.38,10.34,10.64,9q-1.75-5.43-3.5-10.85C170.7,198.05,172.13,195.94,174,196.31Z"/><path class="cls-3" d="M303,64.43a12,12,0,0,1,4.5-9.3,5.57,5.57,0,0,1-3.05,1.54c-1.16,0-2.42-1-2.08-2.13-.94,1-1.89,2.07-2.84,3.1q.17-3,.31-6c-.35,1.5-2.85,1.23-3.51-.16s-.09-3,.48-4.44a3.68,3.68,0,0,0-3.59,2l-2.82-4.22-.3,3.67c-1.8.47-3.43-1.61-3.27-3.47s1.47-3.38,2.71-4.77l-3.39.47a8.31,8.31,0,0,1,.1-6.33c-2.55,1.08-5-.82-6.41,1.54.35,1.12.7,2.24,1,3.36a7.93,7.93,0,0,1-5.81-8c.59,1.05-1.77,1.15-2.18,0s-.19-2.69-1.24-3.29a6.45,6.45,0,0,0,1.22,7.21,6.33,6.33,0,0,1-6.49-7.33,6.52,6.52,0,0,1-3.89,2.82L259.77,26c-1.39-2.47-2.91-3.27-3.41-6.06-3,2.12-2.25,7.66,1.23,8.88a6.45,6.45,0,0,1-8-.26,5.86,5.86,0,0,0,.72-5.7c-.46,1.8-3.08,2.21-4.61,1.16s-2.24-2.92-2.85-4.68c-.52,1.82-1,3.63-1.57,5.45a13.8,13.8,0,0,1,4.47-10.87,7.15,7.15,0,0,1-4.84.46l.08-7.4-5.24,2.24-5,4.81-2.49-2.63A6.4,6.4,0,0,1,233,4.91,3.56,3.56,0,0,1,230,0a8.24,8.24,0,0,1-3.58,3.25c-1.55.53-3.66-.28-3.82-1.91a1.75,1.75,0,0,1-.54,2.87,1.74,1.74,0,0,1-2.08-2l-1.23,4.08a5.22,5.22,0,0,1,3.32,7l6,1.93c-1.77.3-1.91,3.11-.53,4.26s3.36,1.09,5.16,1L230.15,26a17.13,17.13,0,0,1-4.31-6.19,14,14,0,0,1-7.91,1.4c-.21-1.51-.42-3-.64-4.53A5.77,5.77,0,0,0,212,20.25l7.09,5.82a5,5,0,0,0-2.42,3.75,31.36,31.36,0,0,0,10.58,1.47,7.79,7.79,0,0,1-14.71-3,7,7,0,0,1-4.8-7.49,5.42,5.42,0,0,1-5.3,3.47,5.68,5.68,0,0,1-.69,6.4,10.48,10.48,0,0,1-3.75-4,9.61,9.61,0,0,1-2.56,5.58A5.15,5.15,0,0,1,194.35,28c-.15,1.33-.29,2.66-.43,4a12.46,12.46,0,0,1-5.65-5.42c-.34,1.65-.74,3.41-2,4.54s-3.61,1.15-4.31-.38a4.08,4.08,0,0,1,.1-2.75q1.11-4.1,2.24-8.2l-8.16,6.29c-1.71,3.21.9,7.34,4.31,8.59s7.19.47,10.74-.32a15,15,0,0,0,.15,5.18l7.76-.84A4.37,4.37,0,0,1,193,41.89c.11,1.67.22,3.33.34,5l-4.11.16a8.75,8.75,0,0,0,11.63,4.65c1.34-.67,2.72-1.73,4.16-1.33s1.17,3.32-.21,2.73a19.28,19.28,0,0,1,8.6-4.12,4.85,4.85,0,0,1-4.92,5.2L210.25,58l-4,1c-2.07,3,3.23,7.11,5.61,4.4-.29,1.75-.59,3.49-.89,5.24a14.83,14.83,0,0,1,9-1.31q.12-3.33.23-6.68a78.63,78.63,0,0,0,4.89,11.78,11.32,11.32,0,0,0,3.54-7.05,14.59,14.59,0,0,0,.56,8.86,6.55,6.55,0,0,0,3.36-8.95A13.93,13.93,0,0,0,237.8,74a7.8,7.8,0,0,0,.28-6,10.88,10.88,0,0,0,10.12,7.12,15.69,15.69,0,0,1-5.31-12.91,2.12,2.12,0,0,0,3-1.52,7.21,7.21,0,0,0,5,5.87,3.78,3.78,0,0,0,1.48,5.93l-3.56,8.19a7.93,7.93,0,0,0,6.82-.46l-4.24,5.9c.8-1.11,2.77-.27,3.1,1.06s-.36,2.67-1,3.87l5.94-4.92a8.84,8.84,0,0,0,1.11,5.93,8.9,8.9,0,0,0,1.15-4.3l3.07,3.5.39-5.47a13.23,13.23,0,0,0-4.48-7.42,5.32,5.32,0,0,0,4.95-1c-1.27-1-2.62-2.18-2.92-3.77s1.2-3.53,2.72-3c-.62,1.93-1.23,3.86-1.85,5.79a12.15,12.15,0,0,0,5.35,1,18.51,18.51,0,0,0,4.83,10.52,7.63,7.63,0,0,0-2.72,4.7,8.08,8.08,0,0,0,7.76-8.15,49.83,49.83,0,0,1,.36-14.73,3.57,3.57,0,0,1,.32,4.81A3.36,3.36,0,0,1,281.3,71a10,10,0,0,1,1.48,6.64,8.87,8.87,0,0,0,5.68,2.16l-.21-4.12,4,1.88c-.83-1-1.72-2.14-1.41-3.38s2.61-1.44,2.61-.16L293,69.88c-.45,5.41,5.39,10.34,10.64,9q-1.75-5.42-3.5-10.85C299.68,66.17,301.11,64.06,303,64.43Z"/><path class="cls-3" d="M288.77,60a9.68,9.68,0,0,1-.56-8.35A4.52,4.52,0,0,1,286.68,54c-.8.51-2.11.27-2.32-.65-.25,1.11-.51,2.23-.76,3.34l-2.21-4.37c.36,1.19-1.52,2-2.54,1.33s-1.27-2.08-1.44-3.31a3.06,3.06,0,0,0-1.72,2.9L272,51.42l1.26,2.69c-1.08,1.07-3.07.28-3.69-1.09a7.12,7.12,0,0,1,0-4.45l-2.21,1.72a6.68,6.68,0,0,1-2.47-4.48c-1.36,1.8-3.82,1.46-3.9,3.7l2.08,1.93a6.36,6.36,0,0,1-7.29-3.19c.84.5-.78,1.54-1.53.91s-1.21-1.81-2.19-1.8a5.15,5.15,0,0,0,3.75,4.56,5.09,5.09,0,0,1-7.51-2.48A5.34,5.34,0,0,1,246.69,53l-3.83-2.26c-2-1.16-3.36-1.1-4.83-2.85-1.28,2.72,1.48,6.29,4.42,5.72a5.3,5.3,0,0,1-5.72,3.08A4.69,4.69,0,0,0,235,52.4c.39,1.45-1.29,2.81-2.79,2.7A7,7,0,0,1,228.28,53l1.08,4.46A11.19,11.19,0,0,1,228.15,48a5.86,5.86,0,0,1-3.22,2.3L222,45.08l-2.8,3.72c-.53,1.81-1.05,3.61-1.58,5.41l-2.81-.82a5.19,5.19,0,0,1,.72-6.43,2.85,2.85,0,0,1-4.08-2.21,6.84,6.84,0,0,1-1.23,3.74c-.88,1-2.7,1.3-3.46.22a1.34,1.34,0,1,1-1.52,1.66l.77,3.36a4.18,4.18,0,0,1,5.13,3.51l5-1.1c-1.12.93-.1,3,1.34,3.2s2.81-.61,4-1.43l.44,5a13.61,13.61,0,0,1-5.52-2.58,11.54,11.54,0,0,1-5,4.23l-2.27-2.92a4.75,4.75,0,0,0-2.3,4.69l7.34,1.17a4,4,0,0,0-.21,3.62,25.68,25.68,0,0,0,8.06-3.3,6.63,6.63,0,0,1-4.35,6.35,6.46,6.46,0,0,1-7.23-2.42,5.57,5.57,0,0,1-6.39-3.28,4.46,4.46,0,0,1-2.34,4.61,4.54,4.54,0,0,1,2.07,4.77,8.48,8.48,0,0,1-4.26-1.3,7.75,7.75,0,0,1,.43,5A4.09,4.09,0,0,1,197.52,79l1.3,3a10,10,0,0,1-6.16-1.48,6.61,6.61,0,0,1,.42,4c-.42,1.3-2.08,2.28-3.19,1.5a3.25,3.25,0,0,1-1-2c-.57-2.22-1.13-4.44-1.7-6.66l-3.24,7.75c.08,3,3.58,4.78,6.49,4.25s5.26-2.61,7.45-4.62A11.9,11.9,0,0,0,200,88.29q2.57-1.89,5.14-3.77a3.6,3.6,0,0,1-3.06,4.77c.74,1.13,1.49,2.25,2.24,3.37l-2.84,1.8A7.14,7.14,0,0,0,211.58,93c.68-1,1.23-2.33,2.41-2.64s2.15,1.85.94,2a15.94,15.94,0,0,1,4.42-6.41A4,4,0,0,1,218,91.55l2.83,2-2.43,2.3c-.27,2.92,5.14,3.66,5.73.79l1.47,4a12.23,12.23,0,0,1,5.8-4.58l-2.51-4.78A63.44,63.44,0,0,0,237,97.53a9.13,9.13,0,0,0-.32-6.39,11.57,11.57,0,0,0,3.94,6,5.29,5.29,0,0,0-1.21-7.65,11.17,11.17,0,0,0,7.18,3.92,6.19,6.19,0,0,0-2.18-4.29,8.8,8.8,0,0,0,10,.84,12.54,12.54,0,0,1-8.93-6.87A1.75,1.75,0,0,0,247,80.78a5.77,5.77,0,0,0,5.88,2.06,3,3,0,0,0,3.41,3.55l.78,7.2a6.55,6.55,0,0,0,4.63-3.12l-.63,5.88c.12-1.11,1.84-1.33,2.61-.53A4.43,4.43,0,0,1,264.5,99l2.22-5.88a7,7,0,0,0,3.16,3.7,7.14,7.14,0,0,0-.91-3.48l3.57,1.19-1.92-4a10.56,10.56,0,0,0-6.13-3.37,4.35,4.35,0,0,0,3.07-2.76A5.59,5.59,0,0,1,264,82.92c-.86-1-.57-3,.74-3.18l1,4.81a9.83,9.83,0,0,0,4.17-1.49,14.7,14.7,0,0,0,7.62,5.4,6.32,6.32,0,0,0,0,4.41A6.61,6.61,0,0,0,279.72,84a40,40,0,0,1-5.65-10.47,2.85,2.85,0,0,1,2.16,3.24,2.73,2.73,0,0,1-.1-3.24,8,8,0,0,1,3.71,4.06,7.21,7.21,0,0,0,4.87-.82c-.6-.93-1.2-1.87-1.81-2.8l3.56-.31c-1-.33-2.08-.79-2.35-1.79s1.27-2.08,1.78-1.18l-2-2.75c1.84,4,7.94,5,11.1,1.94l-6.82-6.17C287.14,62.57,287.31,60.5,288.77,60Z"/><path class="cls-2" d="M299.73,81.84A13,13,0,0,1,297,71a6,6,0,0,1-1.46,3.42c-.93.86-2.73.84-3.22-.32-.07,1.53-.13,3-.2,4.57l-4-5.25c.75,1.49-1.52,3-3,2.33s-2.19-2.45-2.71-4a4,4,0,0,0-1.57,4.21l-5.3-1.53,2.33,3.25c-1.17,1.66-4,1.07-5.15-.59s-1.15-3.85-1.1-5.87l-2.49,2.77a9,9,0,0,1-4.35-5.34c-1.37,2.68-4.7,2.79-4.26,5.77l3.22,2.07a8.65,8.65,0,0,1-10.41-2.55c1.23.46-.66,2.2-1.8,1.54s-2-2.1-3.33-1.86a7,7,0,0,0,6.07,5.15c-2.89,3-8.64,2.12-10.54-1.56a7,7,0,0,1-1.27,5.07l-5.6-2.11c-2.89-1.09-4.72-.69-7.1-2.66-1,3.87,3.5,7.95,7.25,6.53a7,7,0,0,1-6.81,5.36,6.36,6.36,0,0,0-3.38-5.25c.87,1.83-1,4-3,4.2s-3.92-.86-5.66-1.89L220.6,92a15,15,0,0,1-3.91-12.17A7.67,7.67,0,0,1,213,83.6q-2.55-3.12-5.12-6.22l-2.79,5.54c-.25,2.49-.51,5-.76,7.49L200.4,90a7,7,0,0,1-.62-8.65,3.86,3.86,0,0,1-5.93-2c.11,1.78.2,3.68-.71,5.21s-3.24,2.33-4.52,1.09a1.8,1.8,0,1,1-1.6,2.52l1.83,4.26a5.68,5.68,0,0,1,7.64,3.46l6.36-2.6c-1.26,1.49.59,3.92,2.54,3.91s3.57-1.44,5-2.79l1.8,6.47a18.62,18.62,0,0,1-7.93-2.14,15.14,15.14,0,0,1-5.6,6.71l-3.71-3.32a6.28,6.28,0,0,0-1.89,6.7l10-.13a5.37,5.37,0,0,0,.62,4.81,33.71,33.71,0,0,0,9.83-6.18,8.48,8.48,0,0,1-14.34,7.82,7.56,7.56,0,0,1-9.24-2.87,5.9,5.9,0,0,1-2,6.61,6.17,6.17,0,0,1,3.9,5.81,11.42,11.42,0,0,1-5.95-.74,10.38,10.38,0,0,1,1.78,6.44,5.56,5.56,0,0,1-3.87-2.75l2.44,3.62a13.6,13.6,0,0,1-8.5-.55c.87,1.61,1.77,3.35,1.53,5.17s-2.2,3.49-3.86,2.71a4.52,4.52,0,0,1-1.85-2.36l-3.87-8.4q-1.2,5.47-2.39,11c.83,3.87,5.9,5.48,9.61,4.13s6.32-4.64,8.71-7.79a16.43,16.43,0,0,0,3.76,4.21q2.94-3.08,5.87-6.14a4.76,4.76,0,0,1-2.88,7l3.78,3.93-3.3,3a9.52,9.52,0,0,0,12.93-4.28c.65-1.5,1.06-3.35,2.54-4s3.29,1.94,1.73,2.41a21,21,0,0,1,4.28-9.45,5.28,5.28,0,0,1-.46,7.77l4.22,1.94-2.64,3.59c.35,3.91,7.68,3.66,7.76-.27q1.47,2.49,2.93,5a16.17,16.17,0,0,1,6.54-7.36l-4.48-5.72a85.92,85.92,0,0,0,12.31,6.38,12.27,12.27,0,0,0-2-8.35,15.92,15.92,0,0,0,6.68,7,7.14,7.14,0,0,0-3.47-9.81,15.14,15.14,0,0,0,10.45,3.54,8.46,8.46,0,0,0-3.94-5.16,11.85,11.85,0,0,0,13.41-1.16,17.12,17.12,0,0,1-13.47-7,2.3,2.3,0,0,0,1.42-3.36,7.87,7.87,0,0,0,8.28,1.38,4.11,4.11,0,0,0,5.38,3.9l2.79,9.31a8.63,8.63,0,0,0,5.35-5.17l.6,7.89c-.11-1.49,2.12-2.17,3.33-1.29s1.57,2.48,1.86,3.94l1.5-8.26a9.47,9.47,0,0,0,5.08,4.15,9.76,9.76,0,0,0-2.06-4.37l5,.76-3.51-4.83a14.36,14.36,0,0,0-8.93-3,5.77,5.77,0,0,0,3.39-4.34c-1.77,0-3.7,0-5.08-1.09s-1.46-3.77.21-4.36l2.52,6.12a13.23,13.23,0,0,0,5.16-2.91,20.05,20.05,0,0,0,11.39,5.38,8.33,8.33,0,0,0,1,5.81,8.8,8.8,0,0,0,.74-12.22,54.44,54.44,0,0,1-10-12.51,3.87,3.87,0,0,1,3.63,3.78,3.65,3.65,0,0,1-.92-4.24,10.83,10.83,0,0,1,5.89,4.49,9.68,9.68,0,0,0,6.25-2.18c-1-1.09-2-2.19-3.07-3.28l4.63-1.22c-1.37-.22-2.95-.58-3.55-1.82s1.17-3,2.06-2l-3.3-3.16c3.41,4.82,11.72,4.83,15.15,0q-5.26-3.28-10.52-6.58C298.21,85.59,297.92,82.83,299.73,81.84Z"/><path class="cls-2" d="M113.56,191.12a9.2,9.2,0,0,1-1.2,7.84,4.28,4.28,0,0,1,1.9-1.82c.84-.3,2,.2,2,1.09l1.38-2.91,1.14,4.5c-.08-1.17,1.82-1.54,2.62-.67s.74,2.19.65,3.37a2.85,2.85,0,0,0,2.18-2.31l3,2.46c-.2-.92-.41-1.84-.61-2.76,1.21-.76,2.88.41,3.18,1.81a6.74,6.74,0,0,1-.91,4.11l2.39-1.11a6.36,6.36,0,0,1,1.35,4.66c1.63-1.36,3.83-.51,4.36-2.57l-1.53-2.23a6.1,6.1,0,0,1,6.07,4.52c-.67-.64,1-1.25,1.59-.51s.75,1.94,1.66,2.13a4.94,4.94,0,0,0-2.53-5,4.86,4.86,0,0,1,6.42,3.91,5,5,0,0,1,2.22-2.94l3.06,2.91c1.58,1.5,2.88,1.75,3.88,3.68,1.73-2.23-.09-6.13-2.91-6.24a4.93,4.93,0,0,1,5.9-1.6,4.51,4.51,0,0,0,.75,4.34c-.06-1.43,1.77-2.32,3.13-1.9a6.74,6.74,0,0,1,3.15,2.79c0-1.45-.06-2.9-.08-4.35a10.63,10.63,0,0,1-.82,9,5.43,5.43,0,0,1,3.44-1.43l1.62,5.45,3.34-2.83c.85-1.55,1.71-3.1,2.56-4.66l2.42,1.37a4.91,4.91,0,0,1-2,5.79,2.73,2.73,0,0,1,3.31,2.92,6.41,6.41,0,0,1,1.9-3.19c1-.74,2.75-.62,3.23.54a1.27,1.27,0,1,1,1.74-1.2c0-1.09,0-2.18,0-3.27a4,4,0,0,1-4-4.36l-4.85-.06c1.23-.62.7-2.71-.57-3.24s-2.72,0-4,.44c.21-1.56.41-3.13.62-4.7a13,13,0,0,1,4.56,3.58,10.67,10.67,0,0,1,5.49-2.82l1.49,3.18a4.45,4.45,0,0,0,3.08-3.83l-6.53-2.67a3.78,3.78,0,0,0,.93-3.3,23.94,23.94,0,0,0-8.09,1.31,6,6,0,0,1,11.47-1.13,5.35,5.35,0,0,1,5.22,4.41,4.16,4.16,0,0,1,3.1-3.75,4.36,4.36,0,0,1-.94-4.85,8,8,0,0,1,3.66,2.12,7.35,7.35,0,0,1,.63-4.68,4,4,0,0,1,1.75,2.86c-.19-1-.39-2-.59-3a9.62,9.62,0,0,1,5.38,2.7,6.15,6.15,0,0,1,.43-3.78c.65-1.11,2.39-1.66,3.25-.7a3.15,3.15,0,0,1,.55,2l.21,6.52,4.56-6.46c.53-2.74-2.32-5.19-5.1-5.33s-5.39,1.28-7.81,2.66a11.93,11.93,0,0,0-1.28-3.77l-5.51,2.38a3.37,3.37,0,0,1,3.8-3.76L198,179.19l3-1.05a6.74,6.74,0,0,0-9.59-.78c-.83.8-1.61,1.89-2.76,1.92s-1.6-2.17-.46-2.05a14.72,14.72,0,0,1-5.38,5,3.73,3.73,0,0,1,2.44-4.92l-2.21-2.42,2.71-1.61c.84-2.64-4-4.49-5.12-2l-.53-4a11.49,11.49,0,0,1-6.28,3q.66,2.47,1.34,4.95a60.91,60.91,0,0,0-6.25-7.53,8.69,8.69,0,0,0-1,6,11.18,11.18,0,0,0-2.41-6.38,5,5,0,0,0-.45,7.33,10.68,10.68,0,0,0-5.81-5.17,6,6,0,0,0,1.13,4.43,8.36,8.36,0,0,0-9-2.93,12.08,12.08,0,0,1,6.82,8.27,1.64,1.64,0,0,0-1.86,1.8,5.53,5.53,0,0,0-5-3.18,2.9,2.9,0,0,0-2.42-4c.26-2.27.51-4.55.76-6.82a6.11,6.11,0,0,0-4.9,1.88c.59-1.76,1.19-3.52,1.78-5.29-.34,1-2,.83-2.52-.07a4.28,4.28,0,0,1-.12-3.08l-3.25,5a6.76,6.76,0,0,0-2.16-4.1,6.91,6.91,0,0,0,.13,3.41l-3-1.88,1,4.11a10.1,10.1,0,0,0,5,4.43,4.09,4.09,0,0,0-3.4,1.89,5.34,5.34,0,0,1,3,2.11c.59,1.1-.08,2.86-1.33,2.77l.05-4.66a9.34,9.34,0,0,0-4.16.47,14.15,14.15,0,0,0-5.92-6.64,5.88,5.88,0,0,0,.93-4.06,6.21,6.21,0,0,0-3.85,7.74,38.19,38.19,0,0,1,3.07,10.89,2.75,2.75,0,0,1-1.33-3.46,2.58,2.58,0,0,1-.56,3,7.71,7.71,0,0,1-2.6-4.55,6.83,6.83,0,0,0-4.65-.3c.36,1,.72,2,1.09,3l-3.35-.48c.83.52,1.76,1.18,1.81,2.16s-1.6,1.65-1.88.71l1.27,3c-.89-4.07-6.29-6.37-9.84-4.18l5,7.17C115.59,189.1,115,191,113.56,191.12Z"/><path class="cls-2" d="M60.91,223.28a9.2,9.2,0,0,1-1.2,7.84,4.31,4.31,0,0,1,1.89-1.82c.84-.3,2,.2,2,1.09L65,227.48l1.14,4.5c-.08-1.17,1.82-1.54,2.61-.67s.75,2.19.66,3.37a2.83,2.83,0,0,0,2.17-2.31l3,2.46c-.21-.92-.41-1.84-.62-2.76,1.22-.76,2.89.41,3.19,1.81a6.74,6.74,0,0,1-.91,4.11l2.39-1.11A6.37,6.37,0,0,1,80,241.55c1.63-1.37,3.83-.52,4.36-2.58l-1.53-2.23a6.1,6.1,0,0,1,6.07,4.52c-.67-.64,1-1.25,1.59-.51s.75,1.94,1.66,2.13a4.94,4.94,0,0,0-2.53-5A4.86,4.86,0,0,1,96,241.78a4.91,4.91,0,0,1,2.22-2.94l3.06,2.91c1.58,1.5,2.88,1.75,3.88,3.68,1.73-2.23-.09-6.13-2.91-6.24a4.93,4.93,0,0,1,5.9-1.6,4.51,4.51,0,0,0,.75,4.34c-.06-1.43,1.76-2.32,3.13-1.9a6.84,6.84,0,0,1,3.15,2.79l-.09-4.35a10.59,10.59,0,0,1-.81,9,5.43,5.43,0,0,1,3.44-1.43l1.62,5.45,3.34-2.83,2.56-4.66,2.42,1.37a4.91,4.91,0,0,1-2,5.79,2.73,2.73,0,0,1,3.31,2.92,6.34,6.34,0,0,1,1.9-3.19c1-.74,2.75-.62,3.23.54a1.27,1.27,0,1,1,1.74-1.2l0-3.27a4,4,0,0,1-4-4.35l-4.85-.07c1.23-.62.7-2.71-.57-3.24s-2.72,0-4,.45c.21-1.57.41-3.14.61-4.71a13,13,0,0,1,4.57,3.58,10.67,10.67,0,0,1,5.48-2.82l1.5,3.18a4.45,4.45,0,0,0,3.08-3.83l-6.53-2.67a3.78,3.78,0,0,0,.93-3.3,23.9,23.9,0,0,0-8.09,1.31,6,6,0,0,1,11.47-1.13,5.35,5.35,0,0,1,5.22,4.41,4.16,4.16,0,0,1,3.1-3.75,4.36,4.36,0,0,1-.94-4.85,8,8,0,0,1,3.66,2.12,7.41,7.41,0,0,1,.62-4.68,3.93,3.93,0,0,1,1.76,2.86c-.2-1-.39-2-.59-3a9.56,9.56,0,0,1,5.37,2.7,6.3,6.3,0,0,1,.43-3.78c.66-1.11,2.39-1.66,3.26-.7a3.15,3.15,0,0,1,.55,2l.2,6.52c1.53-2.15,3.05-4.31,4.57-6.46.53-2.74-2.32-5.19-5.11-5.33s-5.38,1.28-7.8,2.66a11.71,11.71,0,0,0-1.29-3.77L143,218.7a3.36,3.36,0,0,1,3.79-3.76c-.45-1.19-.91-2.39-1.37-3.59l3-1a6.74,6.74,0,0,0-9.59-.78c-.83.8-1.61,1.89-2.76,1.92s-1.6-2.17-.46-2.05a14.84,14.84,0,0,1-5.38,5,3.73,3.73,0,0,1,2.44-4.93L130.41,207l2.7-1.61c.85-2.64-4-4.49-5.11-2l-.53-4a11.49,11.49,0,0,1-6.28,3c.44,1.65.89,3.3,1.33,5a60,60,0,0,0-6.24-7.53,8.64,8.64,0,0,0-1,6,11.18,11.18,0,0,0-2.41-6.38,5,5,0,0,0-.45,7.33,10.7,10.7,0,0,0-5.82-5.17,6,6,0,0,0,1.14,4.44,8.35,8.35,0,0,0-9-2.94,12.06,12.06,0,0,1,6.81,8.27,1.64,1.64,0,0,0-1.85,1.8,5.53,5.53,0,0,0-5-3.18,2.9,2.9,0,0,0-2.42-4c.25-2.27.51-4.55.76-6.82A6.14,6.14,0,0,0,92.09,201c.6-1.76,1.19-3.52,1.79-5.29-.34,1-2,.83-2.52-.07a4.23,4.23,0,0,1-.12-3.08c-1.09,1.65-2.17,3.31-3.25,5a6.76,6.76,0,0,0-2.16-4.1,6.91,6.91,0,0,0,.13,3.41l-3-1.88,1,4.11a10.1,10.1,0,0,0,5,4.43,4.09,4.09,0,0,0-3.4,1.89,5.34,5.34,0,0,1,3,2.11c.59,1.1-.08,2.86-1.33,2.77l.05-4.66a9.34,9.34,0,0,0-4.16.47,14.15,14.15,0,0,0-5.92-6.64,5.88,5.88,0,0,0,.93-4.06,6.21,6.21,0,0,0-3.85,7.74A38.17,38.17,0,0,1,77.21,214a2.75,2.75,0,0,1-1.32-3.46,2.58,2.58,0,0,1-.57,3A7.7,7.7,0,0,1,72.73,209a6.8,6.8,0,0,0-4.66-.31c.37,1,.73,2,1.09,3l-3.34-.48c.83.52,1.76,1.18,1.8,2.16s-1.59,1.65-1.87.71c.42,1,.84,2,1.27,3-.89-4.07-6.29-6.37-9.84-4.18l5,7.17C62.94,221.26,62.36,223.13,60.91,223.28Z"/><path class="cls-4" d="M251.94,122.14a1.13,1.13,0,0,1-.91-1,1.16,1.16,0,0,1,1.7-.95l-2.38-1.55a3.49,3.49,0,0,1-5.08.84c-.78,1.16-1.57,2.32-2.35,3.49.13-1.19-1.64-1.8-2.63-1.13A4.75,4.75,0,0,0,238.7,125l-3.12-2.69a11.37,11.37,0,0,1,4.77-1.61,9.27,9.27,0,0,1,.57-5.33l3,.43a3.84,3.84,0,0,0-1.31-4.06l-5,3.47a3.29,3.29,0,0,0-2-2.25,20.56,20.56,0,0,0-2.91,6.5,5.2,5.2,0,0,1,4.65-8.87,4.64,4.64,0,0,1,5.69-1.68,3.6,3.6,0,0,1-1.24-4,3.8,3.8,0,0,1-4-1.64,7,7,0,0,1,3.29-1.64,6.39,6.39,0,0,1-3.1-2.68,3.43,3.43,0,0,1,2.92.08l-2.48-1A8.26,8.26,0,0,1,243,95.32a5.42,5.42,0,0,1-2.54-2.12c-.5-1-.07-2.53,1-2.7a2.73,2.73,0,0,1,1.75.58l4.83,3q-1.24-3.2-2.51-6.4c-1.73-1.69-4.87-.78-6.3,1.17s-1.64,4.52-1.8,6.94a10.18,10.18,0,0,0-3.34-.87l-.9,5.13a2.91,2.91,0,0,1-.92-4.54L229,94.75l.66-2.66a5.84,5.84,0,0,0-5.14,6.59c.18,1,.6,2.06.07,2.91a1.08,1.08,0,0,1-1.38.25,12.81,12.81,0,0,1,.71,5.39,3.25,3.25,0,0,1-2.41-4.12l-2.81.44.13-2.73c-1.52-1.87-5.17.75-3.87,2.78l-3.19-1.54a9.87,9.87,0,0,1-.83,6l4.24,1.39a53.43,53.43,0,0,0-8.46.94,7.5,7.5,0,0,0,2.91,3.1,9.77,9.77,0,0,0-4.83-.81,4.4,4.4,0,0,0,3.35,3.8,9.23,9.23,0,0,0-4.48,1.58l-1.63-1.63a3.49,3.49,0,0,1-5.14-.26l-3,2.92c.39-1.14-1.22-2.11-2.33-1.66a4.78,4.78,0,0,0-2.21,2.71l-2.48-3.28a11.33,11.33,0,0,1,5-.57,9.4,9.4,0,0,1,1.68-5.09l2.87,1.06A3.85,3.85,0,0,0,196,108l-5.67,2.32a3.26,3.26,0,0,0-1.43-2.61,20.74,20.74,0,0,0-4.22,5.74,5.2,5.2,0,0,1,6.42-7.69,4.63,4.63,0,0,1,5.92-.44,3.62,3.62,0,0,1-.36-4.22,3.78,3.78,0,0,1-3.54-2.43,7,7,0,0,1,3.56-.92,6.37,6.37,0,0,1-2.46-3.27,3.44,3.44,0,0,1,2.83.7l-2.21-1.52a8.3,8.3,0,0,1,5-1.6,5.44,5.44,0,0,1-2-2.6c-.27-1.09.47-2.48,1.59-2.41A2.67,2.67,0,0,1,201,88l4.1,3.91-1.11-6.78c-1.34-2-4.59-1.8-6.41-.19S195,89,194.32,91.32a10,10,0,0,0-3.09-1.55l-2,4.82a2.93,2.93,0,0,1,.07-4.64l-3-1.38,1.21-2.47a5.85,5.85,0,0,0-6.41,5.36c0,1,.15,2.15-.55,2.86a1.07,1.07,0,0,1-1.4-.06,12.94,12.94,0,0,1-.44,5.43,3.24,3.24,0,0,1-1.49-4.53L174.37,95c.23-.87.47-1.75.7-2.63-1.09-2.16-5.21-.36-4.37,1.9l-2.79-2.18a10,10,0,0,1-2.07,5.66l3.84,2.26a52.19,52.19,0,0,0-8.46-.87,7.55,7.55,0,0,0,2.19,3.65,9.68,9.68,0,0,0-4.55-1.81,4.39,4.39,0,0,0,2.48,4.41,9.32,9.32,0,0,0-5.05.74,5.16,5.16,0,0,0,3.41,2,7.27,7.27,0,0,0-7.39,3.68,10.49,10.49,0,0,1,9.26,1,1.42,1.42,0,0,0,0,2.24,4.79,4.79,0,0,0-5,1.07,2.52,2.52,0,0,0-4-1q-1.84-2.34-3.68-4.69A5.29,5.29,0,0,0,147,114.6l-2.12-4.37c.4.83-.72,1.72-1.61,1.49a3.67,3.67,0,0,1-1.94-1.83c.33,1.68.66,3.37,1,5a5.88,5.88,0,0,0-3.83-1.23,5.92,5.92,0,0,0,2.15,2l-3,.69,3.09,2a8.79,8.79,0,0,0,5.77-.27,3.56,3.56,0,0,0-1,3.24l.37-.16a8.08,8.08,0,0,0-1.46,2.07,12.34,12.34,0,0,0-7.71-.51,5.07,5.07,0,0,0-1.89-3.08,5.4,5.4,0,0,0,2.32,7.14,33,33,0,0,1,8.53,4.88,2.29,2.29,0,0,1-1.61-.06,2.11,2.11,0,0,1,.17.93,6.67,6.67,0,0,1-4.38-1.24,5.93,5.93,0,0,0-3.06,2.65l2.49,1.19-2.37,1.73a2.88,2.88,0,0,1,2.33.17,3.87,3.87,0,0,1-.43,1.71.73.73,0,0,1-.2,0l.19.07,0,0-.11.15a6,6,0,0,0-6.11,4.2l7.48,1.38a1.45,1.45,0,0,1,.22.09,3,3,0,0,1,.61,1.11l.44-.18a1.56,1.56,0,0,1-.07,1.8,7.9,7.9,0,0,1,2.82,2.6,9.87,9.87,0,0,1-1.84,1.64l-2.29-2a3.86,3.86,0,0,0-1.14,4.11l6.12-.11a3.31,3.31,0,0,0,.39,3,20.81,20.81,0,0,0,6-3.82,5.2,5.2,0,0,1-8.77,4.84,4.64,4.64,0,0,1-5.67-1.74,3.63,3.63,0,0,1-1.19,4.06,3.78,3.78,0,0,1,2.41,3.55,7,7,0,0,1-3.65-.44,6.38,6.38,0,0,1,1.1,3.95,3.45,3.45,0,0,1-2.38-1.68l1.51,2.21a8.3,8.3,0,0,1-5.21-.31,5.47,5.47,0,0,1,1,3.16c-.14,1.12-1.34,2.15-2.36,1.68a2.77,2.77,0,0,1-1.14-1.45l-2.4-5.13c-.48,2.24-1,4.48-1.43,6.72.52,2.37,3.63,3.34,5.9,2.5s3.86-2.86,5.32-4.8a10.16,10.16,0,0,0,2.32,2.57l3.58-3.78a2.92,2.92,0,0,1-1.75,4.3l2.33,2.39-2,1.86a5.83,5.83,0,0,0,7.91-2.66c.4-.92.64-2.06,1.55-2.48a1.08,1.08,0,0,1,1.28.57,13,13,0,0,1,2.39-4.9,3.25,3.25,0,0,1-.26,4.77l2.59,1.18-1.61,2.2c.23,2.4,4.72,2.23,4.76-.18.6,1,1.2,2,1.81,3a9.92,9.92,0,0,1,4-4.53q-1.39-1.74-2.77-3.5A51.46,51.46,0,0,0,168,174.6a7.63,7.63,0,0,0-.82-4.4,9.61,9.61,0,0,0,3.69,3.55,4.39,4.39,0,0,0-.71-5,9.27,9.27,0,0,0,5,1.14,5.26,5.26,0,0,0-2.43-3.15,7.24,7.24,0,0,0,8.22-.75,10.48,10.48,0,0,1-8.28-4.27,1.41,1.41,0,0,0,.86-2.06,4.84,4.84,0,0,0,5.09.82,2.51,2.51,0,0,0,3.3,2.38l1.74,5.7a5.27,5.27,0,0,0,3.26-3.18l.39,4.83c-.07-.91,1.3-1.33,2-.8a3.7,3.7,0,0,1,1.15,2.41l.9-5.07a5.82,5.82,0,0,0,3.12,2.53,5.91,5.91,0,0,0-1.27-2.67l3.08.45-2.17-3a8.77,8.77,0,0,0-5.48-1.84,3.52,3.52,0,0,0,2.06-2.67h-.39l.38-.19,3.1-.09a12.62,12.62,0,0,0,3.78,1.79,1.43,1.43,0,0,1-.14.66,7.56,7.56,0,0,1,1.92.87A5.15,5.15,0,0,0,200,165a4.43,4.43,0,0,0,.9-1.08,7.66,7.66,0,0,1,1.58,2.43,3.73,3.73,0,0,1-.41-2.25c.18-.75,1.1-1.35,1.75-.93-.49-.8-1-1.6-1.46-2.39l3.82,1.32c-.9-.5-.26-2,.75-2.22a3.82,3.82,0,0,1,2.76,1.13,2.47,2.47,0,0,0-.64-2.68l3.23-1-2.3-.87c0-1.24,1.67-1.9,2.83-1.45a5.9,5.9,0,0,1,2.56,2.62l.33-2.26a5.56,5.56,0,0,1,4,1.24c-.21-1.83,1.45-3,.21-4.39l-2.35,0a5.29,5.29,0,0,1,5.85-2.33c-.28-.3.08-1.27.72-1.31.81,0,1.76.38,2.34-.19a4.31,4.31,0,0,0-4.85-.56,4.22,4.22,0,0,1,5.9-2.79,4.34,4.34,0,0,1-1.08-3l3.58-.83c1.84-.43,2.64-1.26,4.52-1.06a3.55,3.55,0,0,0-5.92-.86,4.3,4.3,0,0,1,1.65-5,3.89,3.89,0,0,0,3.51,1.52c-1.06-.63-.84-2.38.12-3.17a5.93,5.93,0,0,1,3.53-1l-3.2-2a9.2,9.2,0,0,1,6.13,4.88,4.71,4.71,0,0,1,.61-3.18l4.72,1.42L245.3,129l-2.16-4.08,2.15-1.11a4.28,4.28,0,0,1,3.26,4.2,2.37,2.37,0,0,1,3.7-1,5.5,5.5,0,0,1-1.41-2.9A2.15,2.15,0,0,1,251.94,122.14Zm-52.52,12.8-.53-.7h.16a1.24,1.24,0,0,1,.39.09C199.44,134.54,199.43,134.74,199.42,134.94Zm-3.54-1.71a1.27,1.27,0,0,1-.77-.07,2.42,2.42,0,0,1-.4-.25,8.47,8.47,0,0,0,1.63-.86A3.63,3.63,0,0,0,195.88,133.23Zm5.53-11.37a2.16,2.16,0,0,1,1.48-1.69,1.14,1.14,0,0,1-.67-1.17,1.18,1.18,0,0,1,1.31-.84l-.11.08a5.21,5.21,0,0,0,3.76,1.29,7.28,7.28,0,0,0-5.73,3.55A3.33,3.33,0,0,1,201.41,121.86Zm-.49,2.33c-.06.17-.13.32-.18.49.2-.13.41-.23.62-.35a2,2,0,0,1,.82.66c-.14-.29-.28-.59-.4-.89a10.53,10.53,0,0,1,8.22-.42,1.41,1.41,0,0,0,.42,2.2,4.83,4.83,0,0,0-4.7,2.12,2.51,2.51,0,0,0-4.07-.16l-3.26-2.71A2.35,2.35,0,0,1,200.92,124.19Zm-4.87-3.79a4.29,4.29,0,0,1,2.31,4.71l-1.3-1.07a5.31,5.31,0,0,0-1,4.46l-1.26-1.61.13-1.41c-.41-1.48-.83-3-1.25-4.45Zm-5.75,6.47,0,0,1.26,2.92a5.9,5.9,0,0,0-2.48-.55A4.7,4.7,0,0,1,190.3,126.87Zm-11.08.6a3.92,3.92,0,0,0,2.8,2.18c-.75.74-1.7,1.13-1.94,2a3.32,3.32,0,0,0-3.53.42A4.29,4.29,0,0,1,179.22,127.47Zm-32.91,20,1.31.8c-.4-.12-.79-.27-1.18-.43Zm2.34-26.67c1,.33,1.68,1.83.86,2.54l-2.46-2.55A3,3,0,0,1,148.65,120.84Zm.88,27.87a1.61,1.61,0,0,1,.68-.89c.09.33.18.65.28,1C150.17,148.79,149.85,148.75,149.53,148.71Zm24.27-12.54a4.26,4.26,0,0,1,0-1.88h.27a4.14,4.14,0,0,0,2.09.8A3.74,3.74,0,0,1,173.8,136.17Zm5.26-2.09a7.2,7.2,0,0,1,2.18-.13A5.34,5.34,0,0,1,179.06,134.08Zm3.56-5.23a3,3,0,0,1-.45.64,2.13,2.13,0,0,1,1-2.87,5.88,5.88,0,0,1,3.65-.19l-2.7-2.64a9.21,9.21,0,0,1,4.78,5.47,5.3,5.3,0,0,0-1.25.17,6,6,0,0,0,2.54,1.53l-2.82,1.32,2.52.92.83,1.15c-.71,1-2.44.66-3.16-.35a5.89,5.89,0,0,1-.69-3.6l-1.52,1.71A5.6,5.6,0,0,1,182.62,128.85Zm5.06,27.41.69,1.65a5,5,0,0,0-.31,1.33,2.48,2.48,0,0,1-.49-.3C186.72,158.26,186.66,156.63,187.68,156.26Zm1.36,3.27-.31-.06H189Z"/><path class="cls-5" d="M248,152.71a1.14,1.14,0,0,1-.9-1,1.16,1.16,0,0,1,1.69-1l-2.38-1.54a3.48,3.48,0,0,1-5.07.83l-2.36,3.49c.13-1.19-1.64-1.8-2.63-1.13a4.82,4.82,0,0,0-1.59,3.12l-3.12-2.69a11.4,11.4,0,0,1,4.77-1.6,9.43,9.43,0,0,1,.57-5.33l3,.43a3.87,3.87,0,0,0-1.32-4.06l-5.05,3.46a3.27,3.27,0,0,0-1.95-2.24,20.81,20.81,0,0,0-2.91,6.5,5.2,5.2,0,0,1,4.65-8.87,4.65,4.65,0,0,1,5.69-1.69,3.61,3.61,0,0,1-1.24-4,3.79,3.79,0,0,1-4-1.63,7,7,0,0,1,3.28-1.65,6.36,6.36,0,0,1-3.09-2.68,3.41,3.41,0,0,1,2.91.09l-2.48-1a8.29,8.29,0,0,1,4.52-2.61,5.42,5.42,0,0,1-2.54-2.12c-.5-1-.06-2.52,1.05-2.69a2.75,2.75,0,0,1,1.74.57l4.84,3-2.52-6.39c-1.73-1.69-4.87-.79-6.3,1.16s-1.64,4.52-1.79,6.94a10.3,10.3,0,0,0-3.35-.87l-.9,5.14a2.92,2.92,0,0,1-.91-4.55l-3.27-.71.66-2.67a5.84,5.84,0,0,0-5.14,6.59c.18,1,.6,2.07.08,2.92a1.11,1.11,0,0,1-1.39.24,12.84,12.84,0,0,1,.72,5.39,3.24,3.24,0,0,1-2.42-4.12l-2.81.44.13-2.72c-1.51-1.88-5.16.75-3.87,2.78l-3.19-1.55a9.86,9.86,0,0,1-.83,6l4.24,1.4a52,52,0,0,0-8.45.93,7.62,7.62,0,0,0,2.9,3.11,9.53,9.53,0,0,0-4.83-.81,4.42,4.42,0,0,0,3.36,3.79,9.32,9.32,0,0,0-4.49,1.59L198.1,147a3.47,3.47,0,0,1-5.13-.25l-3,2.91c.38-1.13-1.22-2.1-2.33-1.66a4.81,4.81,0,0,0-2.22,2.72c-.82-1.1-1.65-2.19-2.48-3.29a11.33,11.33,0,0,1,5-.56,9.28,9.28,0,0,1,1.69-5.09l2.86,1.06a3.86,3.86,0,0,0-.43-4.25l-5.66,2.32a3.31,3.31,0,0,0-1.44-2.61,20.85,20.85,0,0,0-4.21,5.74,5.19,5.19,0,0,1,6.41-7.69,4.66,4.66,0,0,1,5.92-.44,3.62,3.62,0,0,1-.36-4.21,3.79,3.79,0,0,1-3.54-2.44,7,7,0,0,1,3.56-.91,6.39,6.39,0,0,1-2.46-3.28,3.44,3.44,0,0,1,2.83.7l-2.21-1.51a8.3,8.3,0,0,1,5-1.6,5.39,5.39,0,0,1-2-2.61c-.28-1.09.47-2.48,1.59-2.41a2.73,2.73,0,0,1,1.58.93l4.1,3.92q-.56-3.4-1.1-6.79c-1.34-2-4.6-1.8-6.41-.19s-2.56,4.07-3.22,6.4a10.43,10.43,0,0,0-3.09-1.55l-2,4.83a2.91,2.91,0,0,1,.07-4.64l-3.05-1.39c.41-.82.81-1.64,1.21-2.46a5.83,5.83,0,0,0-6.41,5.35c0,1,.15,2.15-.54,2.87a1.08,1.08,0,0,1-1.41-.07,12.78,12.78,0,0,1-.44,5.43,3.24,3.24,0,0,1-1.49-4.53l-2.84-.16c.24-.88.47-1.76.7-2.64-1.08-2.15-5.2-.36-4.37,1.9l-2.79-2.18a9.91,9.91,0,0,1-2.07,5.67l3.85,2.26a52.31,52.31,0,0,0-8.46-.87,7.5,7.5,0,0,0,2.18,3.64,9.78,9.78,0,0,0-4.55-1.81,4.41,4.41,0,0,0,2.48,4.42,9.31,9.31,0,0,0-5.05.73,5.24,5.24,0,0,0,3.41,2.06,7.23,7.23,0,0,0-7.38,3.68,10.49,10.49,0,0,1,9.26,1,1.41,1.41,0,0,0-.06,2.24,4.82,4.82,0,0,0-5,1.08,2.53,2.53,0,0,0-3.95-1L144.88,141a5.3,5.3,0,0,0-1.89,4.15c-.71-1.45-1.41-2.91-2.12-4.36.4.82-.72,1.71-1.6,1.49a3.68,3.68,0,0,1-2-1.84c.33,1.69.67,3.37,1,5.05a5.87,5.87,0,0,0-3.83-1.22,5.93,5.93,0,0,0,2.16,2l-3,.7,3.09,2a8.79,8.79,0,0,0,5.77-.28,3.56,3.56,0,0,0-.95,3.24l.36-.15a8,8,0,0,0-1.46,2.06,12.24,12.24,0,0,0-7.7-.5,5.1,5.1,0,0,0-1.9-3.08,5.38,5.38,0,0,0,2.33,7.13,33.4,33.4,0,0,1,8.52,4.88,2.21,2.21,0,0,1-1.6-.06,2.17,2.17,0,0,1,.16.94,6.69,6.69,0,0,1-4.37-1.24,5.9,5.9,0,0,0-3.07,2.65l2.49,1.18-2.37,1.74a2.83,2.83,0,0,1,2.33.16,3.87,3.87,0,0,1-.43,1.71.53.53,0,0,1-.2,0l.19.08,0,0-.11.15a6,6,0,0,0-6.11,4.2l7.48,1.38a2.18,2.18,0,0,1,.23.09,3,3,0,0,1,.6,1.12l.44-.19a1.55,1.55,0,0,1-.07,1.8,8,8,0,0,1,2.82,2.6,8.69,8.69,0,0,1-1.84,1.64l-2.29-2a3.88,3.88,0,0,0-1.14,4.12l6.12-.11a3.29,3.29,0,0,0,.39,2.95,20.65,20.65,0,0,0,6-3.82,5.2,5.2,0,0,1-8.77,4.84,4.65,4.65,0,0,1-5.68-1.73,3.62,3.62,0,0,1-1.19,4.05A3.8,3.8,0,0,1,134.1,194a7,7,0,0,1-3.65-.43,6.4,6.4,0,0,1,1.11,3.94,3.46,3.46,0,0,1-2.39-1.68l1.51,2.21a8.3,8.3,0,0,1-5.21-.31,5.41,5.41,0,0,1,1,3.17c-.14,1.11-1.34,2.14-2.36,1.67a2.79,2.79,0,0,1-1.14-1.44l-2.4-5.14q-.7,3.36-1.43,6.72c.52,2.37,3.63,3.35,5.91,2.51s3.85-2.87,5.32-4.8a10.1,10.1,0,0,0,2.31,2.57l3.58-3.79a2.92,2.92,0,0,1-1.74,4.3l2.33,2.4c-.68.61-1.35,1.23-2,1.85a5.84,5.84,0,0,0,7.92-2.66c.39-.92.63-2.06,1.54-2.47a1.08,1.08,0,0,1,1.29.57,12.79,12.79,0,0,1,2.38-4.9,3.24,3.24,0,0,1-.26,4.76l2.59,1.18-1.61,2.21c.23,2.4,4.72,2.22,4.76-.19l1.81,3a9.82,9.82,0,0,1,4-4.53l-2.77-3.5a54,54,0,0,0,7.57,3.88,7.46,7.46,0,0,0-.82-4.4,9.75,9.75,0,0,0,3.69,3.55,4.4,4.4,0,0,0-.71-5,9.37,9.37,0,0,0,5,1.15,5.17,5.17,0,0,0-2.43-3.15,7.27,7.27,0,0,0,8.22-.75,10.51,10.51,0,0,1-8.28-4.27,1.42,1.42,0,0,0,.87-2.07,4.82,4.82,0,0,0,5.08.83,2.51,2.51,0,0,0,3.31,2.37q.86,2.85,1.73,5.71a5.35,5.35,0,0,0,3.27-3.19l.39,4.84c-.08-.92,1.29-1.34,2-.81a3.63,3.63,0,0,1,1.15,2.42l.9-5.07a5.89,5.89,0,0,0,3.13,2.53,6,6,0,0,0-1.27-2.68l3.07.45-2.17-3a8.82,8.82,0,0,0-5.48-1.83,3.57,3.57,0,0,0,2.07-2.67h-.4c.13,0,.25-.12.38-.18l3.11-.1a12,12,0,0,0,3.77,1.79,1.29,1.29,0,0,1-.14.66,7.92,7.92,0,0,1,1.92.87,5.21,5.21,0,0,0,.72,2.4,4.88,4.88,0,0,0,.9-1.08,8,8,0,0,1,1.58,2.42,3.63,3.63,0,0,1-.42-2.24c.18-.75,1.1-1.36,1.75-.93l-1.46-2.4,3.82,1.32c-.89-.5-.26-2.05.75-2.21a3.78,3.78,0,0,1,2.76,1.13,2.46,2.46,0,0,0-.63-2.68l3.22-1-2.29-.87c0-1.24,1.67-1.9,2.82-1.45a5.9,5.9,0,0,1,2.56,2.62l.33-2.26a5.55,5.55,0,0,1,4,1.24c-.21-1.83,1.45-3,.21-4.39l-2.35.05a5.31,5.31,0,0,1,5.85-2.34c-.28-.3.08-1.27.72-1.31.81-.05,1.76.38,2.34-.18a4.29,4.29,0,0,0-4.85-.56,4.21,4.21,0,0,1,5.9-2.79,4.35,4.35,0,0,1-1.07-3l3.57-.83c1.84-.43,2.64-1.26,4.52-1.06a3.56,3.56,0,0,0-5.92-.87,4.3,4.3,0,0,1,1.65-5,3.93,3.93,0,0,0,3.52,1.52c-1.07-.64-.85-2.39.11-3.18a5.87,5.87,0,0,1,3.53-1l-3.2-2a9.27,9.27,0,0,1,6.14,4.88,4.73,4.73,0,0,1,.6-3.18l4.73,1.43c-.16-1.26-.31-2.52-.46-3.78l-2.16-4.08,2.14-1.1a4.25,4.25,0,0,1,3.26,4.19,2.37,2.37,0,0,1,3.7-1,5.57,5.57,0,0,1-1.41-2.9A2.15,2.15,0,0,1,248,152.71ZM195.44,165.5l-.53-.69h.16a1.79,1.79,0,0,1,.4.09Zm-3.53-1.7a1.27,1.27,0,0,1-.77-.08,1.77,1.77,0,0,1-.4-.24,8.65,8.65,0,0,0,1.62-.86A3.25,3.25,0,0,0,191.91,163.8Zm5.52-11.38a2.15,2.15,0,0,1,1.48-1.68,1.06,1.06,0,0,1,.64-2l-.11.07a5.16,5.16,0,0,0,3.76,1.29,7.27,7.27,0,0,0-5.72,3.55A3.13,3.13,0,0,1,197.43,152.42Zm-.48,2.34a4.14,4.14,0,0,0-.19.49c.2-.13.42-.24.62-.35a1.94,1.94,0,0,1,.82.65c-.14-.29-.28-.59-.4-.89a10.49,10.49,0,0,1,8.22-.41,1.42,1.42,0,0,0,.42,2.2,4.81,4.81,0,0,0-4.69,2.11,2.52,2.52,0,0,0-4.07-.16l-3.27-2.7A2.35,2.35,0,0,1,197,154.76ZM192.07,151a4.28,4.28,0,0,1,2.31,4.7l-1.29-1.07a5.25,5.25,0,0,0-1,4.46l-1.26-1.61L191,156l-1.26-4.44Zm-5.75,6.47,0,0,1.26,2.92a5.88,5.88,0,0,0-2.48-.56A4.67,4.67,0,0,1,186.32,157.44Zm-11.08.6a3.93,3.93,0,0,0,2.8,2.17c-.75.75-1.7,1.13-1.94,2a3.34,3.34,0,0,0-3.53.42A4.27,4.27,0,0,1,175.24,158Zm-32.91,20,1.31.79a10.44,10.44,0,0,1-1.18-.43Zm2.34-26.67c1,.33,1.69,1.82.86,2.53l-2.45-2.55A3,3,0,0,1,144.67,151.41Zm.88,27.86a1.62,1.62,0,0,1,.68-.88l.28,1C146.19,179.35,145.87,179.31,145.55,179.27Zm24.27-12.54a4.26,4.26,0,0,1,0-1.88h.28a4.06,4.06,0,0,0,2.09.79A3.74,3.74,0,0,1,169.82,166.73Zm5.26-2.09a7.54,7.54,0,0,1,2.18-.13A5,5,0,0,1,175.08,164.64Zm3.56-5.23a2.72,2.72,0,0,1-.45.64,2.12,2.12,0,0,1,.95-2.86,5.89,5.89,0,0,1,3.65-.19l-2.7-2.65a9.21,9.21,0,0,1,4.78,5.47,5.88,5.88,0,0,0-1.25.17,5.93,5.93,0,0,0,2.54,1.53l-2.82,1.32,2.53.93.82,1.14c-.71,1-2.44.67-3.16-.35a5.92,5.92,0,0,1-.68-3.59l-1.53,1.7A5.54,5.54,0,0,1,178.64,159.41Zm5.06,27.42.69,1.64a4.67,4.67,0,0,0-.3,1.33,2,2,0,0,1-.5-.3C182.75,188.82,182.68,187.19,183.7,186.83Zm1.37,3.27-.32-.07H185Z"/><path class="cls-5" d="M100.24,225.93a.48.48,0,0,1-.39-.39.5.5,0,0,1,.73-.37l-1-.6a1.61,1.61,0,0,1-2.19.32l-1,1.35c.05-.46-.71-.69-1.14-.43a1.77,1.77,0,0,0-.68,1.2l-1.35-1a5.21,5.21,0,0,1,2.06-.63,3.26,3.26,0,0,1,.24-2.06l1.31.17a1.4,1.4,0,0,0-.57-1.57L94,223.23a1.32,1.32,0,0,0-.84-.87,7.7,7.7,0,0,0-1.26,2.51,1.9,1.9,0,0,1-.45-2.39,2.41,2.41,0,0,1,2.46-1,2.16,2.16,0,0,1,2.46-.65,1.31,1.31,0,0,1-.54-1.56,1.71,1.71,0,0,1-1.71-.63,3.08,3.08,0,0,1,1.42-.64,2.64,2.64,0,0,1-1.34-1,1.67,1.67,0,0,1,1.26,0l-1.07-.4a3.71,3.71,0,0,1,1.95-1,2.25,2.25,0,0,1-1.1-.81.71.71,0,0,1,.45-1.05,1.31,1.31,0,0,1,.76.23l2.08,1.14-1.08-2.47a2,2,0,0,0-2.72.45,4.6,4.6,0,0,0-.78,2.68,4.65,4.65,0,0,0-1.44-.33l-.39,2a1.07,1.07,0,0,1-.4-1.76l-1.41-.27.29-1a2.32,2.32,0,0,0-2.22,2.54c.08.38.26.8,0,1.13a.5.5,0,0,1-.59.1,4.49,4.49,0,0,1,.3,2.08,1.25,1.25,0,0,1-1-1.59l-1.21.17c0-.35,0-.7,0-1.06-.65-.72-2.23.29-1.67,1.08l-1.38-.6a3.48,3.48,0,0,1-.35,2.32l1.83.53a26.09,26.09,0,0,0-3.65.37,3.15,3.15,0,0,0,1.25,1.2,4.6,4.6,0,0,0-2.08-.32,1.75,1.75,0,0,0,1.44,1.47,4.3,4.3,0,0,0-1.93.61l-.71-.63a1.61,1.61,0,0,1-2.21-.1l-1.32,1.13c.17-.44-.52-.81-1-.64a1.94,1.94,0,0,0-1,1.05l-1.07-1.27a5.43,5.43,0,0,1,2.16-.22,3.37,3.37,0,0,1,.73-2l1.23.41a1.36,1.36,0,0,0-.18-1.64l-2.45.9a1.24,1.24,0,0,0-.62-1,8.21,8.21,0,0,0-1.82,2.22,1.89,1.89,0,0,1,.13-2.43,2.5,2.5,0,0,1,2.64-.55,2.21,2.21,0,0,1,2.56-.17,1.28,1.28,0,0,1-.16-1.63,1.64,1.64,0,0,1-1.53-.94,3.28,3.28,0,0,1,1.54-.35,2.47,2.47,0,0,1-1.06-1.27,1.6,1.6,0,0,1,1.22.27l-1-.58a3.8,3.8,0,0,1,2.14-.62,2.18,2.18,0,0,1-.88-1,.74.74,0,0,1,.69-.93,1.19,1.19,0,0,1,.69.36L80,214.23l-.48-2.62a2.08,2.08,0,0,0-2.77-.08A4.88,4.88,0,0,0,75.36,214a4.45,4.45,0,0,0-1.33-.6c-.29.62-.57,1.24-.85,1.86a1.06,1.06,0,0,1,0-1.79l-1.31-.54.52-.95a2.45,2.45,0,0,0-2.77,2.07c0,.39.06.83-.24,1.11a.5.5,0,0,1-.6,0,4.55,4.55,0,0,1-.19,2.1,1.21,1.21,0,0,1-.65-1.76l-1.22-.06.3-1c-.47-.83-2.25-.14-1.89.74L64,214.3a3.58,3.58,0,0,1-.9,2.19l1.66.88a24.64,24.64,0,0,0-3.65-.34,2.89,2.89,0,0,0,.94,1.41,4.44,4.44,0,0,0-2-.7,1.67,1.67,0,0,0,1.07,1.71,4.48,4.48,0,0,0-2.18.28,2.31,2.31,0,0,0,1.47.8A3.25,3.25,0,0,0,57.22,222a5,5,0,0,1,4,.38.51.51,0,0,0,0,.86,2.28,2.28,0,0,0-2.18.42,1.14,1.14,0,0,0-1.7-.39l-1.59-1.81a2,2,0,0,0-.82,1.6L54,221.32c.17.32-.31.67-.69.58a1.51,1.51,0,0,1-.84-.71l.43,1.95a2.8,2.8,0,0,0-1.66-.47,2.51,2.51,0,0,0,.94.79l-1.31.26,1.33.76a4.26,4.26,0,0,0,2.5-.1,1.27,1.27,0,0,0-.42,1.25l.16-.06a3.23,3.23,0,0,0-.63.8,6,6,0,0,0-3.33-.2,1.93,1.93,0,0,0-.82-1.19,2,2,0,0,0,1,2.76,14.72,14.72,0,0,1,3.68,1.89,1.09,1.09,0,0,1-.69,0,.73.73,0,0,1,.07.36,3.17,3.17,0,0,1-1.89-.48,2.54,2.54,0,0,0-1.33,1l1.08.46-1,.67a1.32,1.32,0,0,1,1,.07,1.39,1.39,0,0,1-.18.66l-.09,0,.08,0h0l-.05.06a2.6,2.6,0,0,0-2.64,1.62l3.23.54.1,0a1.27,1.27,0,0,1,.26.43l.19-.07a.56.56,0,0,1,0,.7,3.29,3.29,0,0,1,1.21,1,3.82,3.82,0,0,1-.79.64l-1-.79a1.4,1.4,0,0,0-.49,1.59l2.64,0a1.17,1.17,0,0,0,.17,1.14,9.11,9.11,0,0,0,2.6-1.47,2,2,0,0,1-1.1,2.22,2.53,2.53,0,0,1-2.69-.35,2.15,2.15,0,0,1-2.45-.67,1.31,1.31,0,0,1-.52,1.57,1.48,1.48,0,0,1,1,1.37,3.39,3.39,0,0,1-1.58-.17,2.31,2.31,0,0,1,.48,1.53,1.49,1.49,0,0,1-1-.65l.65.85a3.92,3.92,0,0,1-2.25-.12,2,2,0,0,1,.41,1.23.8.8,0,0,1-1,.64,1.08,1.08,0,0,1-.49-.56l-1-2-.61,2.6c.22.91,1.56,1.29,2.54,1a5.38,5.38,0,0,0,2.3-1.86,4.09,4.09,0,0,0,1,1L52,243.92a1.1,1.1,0,0,1-.76,1.66l1,.93-.87.72a2.66,2.66,0,0,0,3.42-1c.17-.36.27-.8.67-1a.48.48,0,0,1,.55.22,4.74,4.74,0,0,1,1-1.89,1.17,1.17,0,0,1-.11,1.84l1.11.46-.69.85c.1.93,2,.86,2.06-.07l.78,1.17a4,4,0,0,1,1.72-1.75l-1.19-1.35a23.49,23.49,0,0,0,3.26,1.5,2.68,2.68,0,0,0-.35-1.7,4.08,4.08,0,0,0,1.59,1.37,1.58,1.58,0,0,0-.3-1.94,4.36,4.36,0,0,0,2.14.44,2.07,2.07,0,0,0-1-1.21,3.46,3.46,0,0,0,3.55-.29A4.7,4.7,0,0,1,66,241.23a.53.53,0,0,0,.37-.79,2.28,2.28,0,0,0,2.2.31,1.06,1.06,0,0,0,1.42.92l.75,2.21a2.18,2.18,0,0,0,1.41-1.23c.06.62.11,1.24.17,1.87,0-.36.56-.52.88-.31a1.37,1.37,0,0,1,.5.93c.13-.65.26-1.31.38-2a2.5,2.5,0,0,0,1.35,1,2.27,2.27,0,0,0-.54-1l1.32.18-.93-1.14a4.08,4.08,0,0,0-2.37-.71,1.41,1.41,0,0,0,.89-1h-.17l.16-.08,1.35,0a5.38,5.38,0,0,0,1.63.69.51.51,0,0,1-.07.26,3.42,3.42,0,0,1,.84.33,1.74,1.74,0,0,0,.3.93,1.93,1.93,0,0,0,.39-.42,3,3,0,0,1,.69.94,1.31,1.31,0,0,1-.19-.87.57.57,0,0,1,.76-.36l-.63-.93,1.65.52c-.39-.2-.11-.8.33-.86A1.69,1.69,0,0,1,82,241a.86.86,0,0,0-.27-1l1.39-.4-1-.33c0-.48.72-.74,1.22-.56a2.41,2.41,0,0,1,1.11,1c0-.29.09-.58.14-.88a2.65,2.65,0,0,1,1.74.48c-.09-.7.63-1.16.09-1.69h-1a2.43,2.43,0,0,1,2.52-.9c-.12-.12,0-.49.31-.51s.76.15,1-.07a2,2,0,0,0-2.09-.21,1.87,1.87,0,0,1,2.55-1.08,1.57,1.57,0,0,1-.47-1.17l1.55-.32c.79-.17,1.14-.49,2-.41a1.63,1.63,0,0,0-2.56-.34,1.57,1.57,0,0,1,.72-1.95,1.75,1.75,0,0,0,1.51.59.74.74,0,0,1,0-1.23,2.89,2.89,0,0,1,1.53-.37l-1.39-.78a4,4,0,0,1,2.65,1.89,1.7,1.7,0,0,1,.27-1.23l2,.55-.2-1.46L96.44,227l.93-.42a1.7,1.7,0,0,1,1.41,1.62,1.08,1.08,0,0,1,1.6-.39,2,2,0,0,1-.61-1.12A.81.81,0,0,1,100.24,225.93Zm-22.68,4.95-.22-.27h.07l.16,0ZM76,230.22a.65.65,0,0,1-.34,0,1.4,1.4,0,0,1-.17-.09,3.57,3.57,0,0,0,.71-.34A1.18,1.18,0,0,0,76,230.22Zm2.38-4.4a.88.88,0,0,1,.64-.65.45.45,0,0,1-.29-.46.52.52,0,0,1,.57-.32l0,0a2.46,2.46,0,0,0,1.63.5,3.23,3.23,0,0,0-2.48,1.37A1.23,1.23,0,0,1,78.42,225.82Zm-.21.9c0,.07-.06.13-.08.19l.27-.13a.81.81,0,0,1,.35.25l-.17-.34a5,5,0,0,1,3.55-.16.52.52,0,0,0,.18.85,2.17,2.17,0,0,0-2,.81,1.17,1.17,0,0,0-1.76-.06l-1.41-1A1.07,1.07,0,0,1,78.21,226.72Zm-2.1-1.46a1.6,1.6,0,0,1,1,1.82l-.55-.42a1.9,1.9,0,0,0-.42,1.73c-.18-.21-.36-.42-.55-.62l.06-.55-.54-1.72Zm-2.49,2.5h0l.55,1.13a2.77,2.77,0,0,0-1.07-.22A1.71,1.71,0,0,1,73.62,227.76Zm-4.78.23a1.69,1.69,0,0,0,1.21.84c-.33.29-.73.44-.84.77a1.58,1.58,0,0,0-1.52.16A1.64,1.64,0,0,1,68.84,228Zm-14.21,7.75.57.31a3.81,3.81,0,0,1-.51-.17Zm1-10.31c.45.13.73.7.37,1l-1.06-1A1.35,1.35,0,0,1,55.64,225.43ZM56,236.2a.61.61,0,0,1,.3-.34l.11.38Zm10.48-4.85a1.46,1.46,0,0,1,0-.72h.12a1.85,1.85,0,0,0,.9.3A1.7,1.7,0,0,1,66.5,231.35Zm2.27-.8a3.28,3.28,0,0,1,.94-.05A2.47,2.47,0,0,1,68.77,230.55Zm1.54-2a1,1,0,0,1-.19.25c-.28-.34,0-.9.41-1.11a2.78,2.78,0,0,1,1.57-.07l-1.17-1A3.73,3.73,0,0,1,73,228.68a3.33,3.33,0,0,0-.54.07,2.66,2.66,0,0,0,1.1.59l-1.22.51,1.09.36.36.44a1,1,0,0,1-1.37-.13,2,2,0,0,1-.29-1.39l-.66.66A2.25,2.25,0,0,1,70.31,228.52Zm2.18,10.61.3.63a1.89,1.89,0,0,0-.13.52.88.88,0,0,1-.21-.12C72.08,239.9,72.05,239.27,72.49,239.13Zm.59,1.26-.13,0h.12Z"/><path class="cls-3" d="M16.7,202.45a.59.59,0,0,0,.2-.66.57.57,0,0,0-.95-.15c.26-.39.51-.79.76-1.18a1.61,1.61,0,0,0,2.43-.53l1.74,1.25c-.3-.55.37-1.17.95-1a2.61,2.61,0,0,1,1.33,1.22c.28-.63.57-1.25.85-1.87a5.15,5.15,0,0,0-2.44.1,5.31,5.31,0,0,0-1.32-2.47l-1.26.76a2.12,2.12,0,0,1-.22-2.2l2.94.75a1.7,1.7,0,0,1,.42-1.45,11.26,11.26,0,0,1,2.59,2.61,3,3,0,0,0-.77-3.19,2.52,2.52,0,0,0-3.07-.24,2.15,2.15,0,0,0-2.87.23,2,2,0,0,0-.25-2.18,1.77,1.77,0,0,0,1.45-1.51,3.28,3.28,0,0,0-1.8-.19,3.12,3.12,0,0,0,.85-1.87,1.55,1.55,0,0,0-1.28.58l.9-.95a4,4,0,0,0-2.53-.43,2.64,2.64,0,0,0,.71-1.48c0-.58-.47-1.24-1-1.11a1.26,1.26,0,0,0-.67.6l-1.56,2.31-.15-3.55c.43-1.13,2-1.27,3-.59a7.14,7.14,0,0,1,2.18,3,4.44,4.44,0,0,1,1.32-1c.47.77.94,1.55,1.42,2.32a1.6,1.6,0,0,0-.5-2.37l1.31-.94-.82-1.17a3,3,0,0,1,3.6,2.24c.12.51.14,1.11.55,1.42a.49.49,0,0,0,.66-.13,7.1,7.1,0,0,0,.76,2.73,1.7,1.7,0,0,0,.25-2.43l1.34-.31c-.2-.43-.4-.86-.59-1.29.3-1.18,2.44-.59,2.27.63l1.12-1.33a5.51,5.51,0,0,0,1.56,2.74l-1.62,1.45a23.74,23.74,0,0,1,4-1.1,3.79,3.79,0,0,1-.68,2,4.42,4.42,0,0,1,2-1.28,2.25,2.25,0,0,1-.74,2.45,4.16,4.16,0,0,1,2.32-.06c.13-.36.26-.73.4-1.09A1.58,1.58,0,0,0,40,189.45l1.94.85c-.4-.48.12-1.24.71-1.23a2.45,2.45,0,0,1,1.52.91c.15-.68.3-1.36.46-2a5.21,5.21,0,0,0-2.35.65,5.15,5.15,0,0,0-1.76-2.15l-1.06,1a2.16,2.16,0,0,1-.66-2.13l3,.08a1.76,1.76,0,0,1,.12-1.52,10.87,10.87,0,0,1,3,2,3,3,0,0,0-1.38-3,2.45,2.45,0,0,0-3,.44,2.1,2.1,0,0,0-2.72.88,2,2,0,0,0-.68-2.1,1.83,1.83,0,0,0,1.09-1.83,3.24,3.24,0,0,0-1.77.21,3.29,3.29,0,0,0,.45-2,1.54,1.54,0,0,0-1.12.86l.68-1.14a3.88,3.88,0,0,0-2.54.14,2.75,2.75,0,0,0,.39-1.63c-.09-.57-.7-1.11-1.18-.87a1.28,1.28,0,0,0-.53.74c-.35.88-.7,1.76-1,2.64-.29-1.16-.58-2.32-.86-3.47a2,2,0,0,1,2.82-1.27,6.86,6.86,0,0,1,2.7,2.5,4.6,4.6,0,0,1,1.07-1.32l1.84,2a1.6,1.6,0,0,0-1-2.23l1.08-1.23-1-1a2.89,2.89,0,0,1,3.92,1.41c.21.48.36,1.07.81,1.28a.48.48,0,0,0,.61-.28,7.33,7.33,0,0,0,1.28,2.54,1.76,1.76,0,0,0-.24-2.47l1.24-.6L45,174c0-1.24,2.25-1.13,2.32.11l.81-1.56a5.35,5.35,0,0,0,2.06,2.35L49,176.65a23.26,23.26,0,0,1,3.6-2,4.07,4.07,0,0,1-.25,2.16A4.43,4.43,0,0,1,54,175.13a2.33,2.33,0,0,1-.23,2.58,4.24,4.24,0,0,1,2.39-.57,2.44,2.44,0,0,1-1.1,1.62,3.43,3.43,0,0,1,4,.42,4.7,4.7,0,0,0-3.93,2.17.79.79,0,0,1,.47,1.07A2.19,2.19,0,0,1,58,182a1.18,1.18,0,0,1,1.56-1.22c.24-1,.47-2,.71-2.93A2.89,2.89,0,0,1,62,179.52c0-.83.05-1.66.07-2.49,0,.47.66.69,1,.42a1.87,1.87,0,0,0,.51-1.24c.18.87.37,1.75.56,2.62a2.64,2.64,0,0,1,1.46-1.29,2.92,2.92,0,0,1-.56,1.37l1.49-.22-1,1.52a3.91,3.91,0,0,1-2.62.92A2,2,0,0,1,64,182.52h-.2a4.09,4.09,0,0,1,1.06.73,5.59,5.59,0,0,1,3.34-1.66,2.68,2.68,0,0,1,.23-1.83,2.93,2.93,0,0,1,.38,3.87A15.82,15.82,0,0,0,66,187.54a1,1,0,0,0,.71-.32,1.16,1.16,0,0,0,.11.48,3,3,0,0,0,1.7-1.4,2.89,2.89,0,0,1,1.9.71c-.29.35-.59.69-.88,1l1.4.4a1.3,1.3,0,0,0-1,.51,2.13,2.13,0,0,0,.53.75l.08-.06-.07.07h0l.08.05a2.92,2.92,0,0,1,3.56.91l-3.06,2-.08.08a1.77,1.77,0,0,0,0,.65h-.23a.87.87,0,0,0,.39.85,4,4,0,0,0-.74,1.77,4.94,4.94,0,0,0,1.15.46c.2-.47.41-.94.61-1.4a2.11,2.11,0,0,1,1.33,1.77L70.66,198a1.81,1.81,0,0,1,.41,1.49,9.66,9.66,0,0,1-3.44-.74A2.89,2.89,0,0,0,69.91,201a2.45,2.45,0,0,0,2.6-1.58,2.15,2.15,0,0,0,2.18-1.88A2,2,0,0,0,76,199.32a2,2,0,0,0-.37,2.15,3.07,3.07,0,0,0,1.54-.88,3.59,3.59,0,0,0,.29,2.11,1.68,1.68,0,0,0,.73-1.25c-.08.45-.16.9-.23,1.35a3.77,3.77,0,0,0,2.26-1.11,3,3,0,0,0,.2,1.7c.29.51,1,.79,1.39.37a1.43,1.43,0,0,0,.22-.9c0-1,0-2,0-2.92l2,3A2.09,2.09,0,0,1,82,205.21a6.33,6.33,0,0,1-3.33-1.34,5.25,5.25,0,0,1-.52,1.67l-2.35-1.17a1.56,1.56,0,0,0,1.64,1.75l-.57,1.59,1.27.53a2.72,2.72,0,0,1-4.06.16c-.35-.37-.69-.87-1.18-.91-.26,0-.43.26-.46.52a6.9,6.9,0,0,0-2-1.93,1.78,1.78,0,0,0,1.06,2.25l-.92,1,1.16.76c.37,1.2-1.66,1.94-2.16.79-.07.6-.13,1.2-.2,1.8a5.11,5.11,0,0,0-2.68-1.45l.54-2.2a24.3,24.3,0,0,1-2.6,3.26,4.1,4.1,0,0,1-.51-2.27,5,5,0,0,1-.94,2.39,2.44,2.44,0,0,1-.68-2.55,4.21,4.21,0,0,1-2,1.47,2.7,2.7,0,0,1,.45-2,3.29,3.29,0,0,1-3.81,1.15A5,5,0,0,0,59.92,207a.75.75,0,0,1-.79-.83,2.21,2.21,0,0,1-2.1,1.33,1.23,1.23,0,0,1-1,1.75l.36,3.07a2.65,2.65,0,0,1-2.09-.93l.79,2.4c-.15-.45-.85-.41-1.07,0a2,2,0,0,0,0,1.37l-1.41-2.28a2.9,2.9,0,0,1-.89,1.8,3.29,3.29,0,0,1,0-1.53l-1.28.79c.13-.61.25-1.22.38-1.83a4.07,4.07,0,0,1,2.08-1.89,1.83,1.83,0,0,1-1.45-.91l.17-.07-.2,0-1.4.53a6,6,0,0,1-1.33,1.55.8.8,0,0,0,.19.3,3.58,3.58,0,0,0-.68.77,2.84,2.84,0,0,1,.16,1.29,2.72,2.72,0,0,1-.62-.36,4,4,0,0,0-.22,1.46,2.09,2.09,0,0,0-.26-1.16c-.23-.33-.76-.45-1-.13l.18-1.42L45,213.35c.3-.41-.3-1-.78-.93s-.77.6-1,1.05a1.35,1.35,0,0,1-.25-1.41l-1.64.1.85-.85a1,1,0,0,0-1.55-.17,3,3,0,0,0-.62,1.73l-.6-1a2.56,2.56,0,0,0-1.55,1.34c-.27-.93-1.24-1.19-1-2.08l1-.41a2.45,2.45,0,0,0-3.07-.05c.06-.2-.29-.6-.58-.51s-.71.51-1.08.34a2,2,0,0,1,2-1.16,2,2,0,0,0-3.19-.26,2.33,2.33,0,0,0-.12-1.66l-1.76.26c-.9.13-1.42-.12-2.22.32a1.65,1.65,0,0,1,2.47-1.5,2.37,2.37,0,0,0-1.74-2.14,1.82,1.82,0,0,1-1.27,1.38c.35-.5-.1-1.3-.68-1.51a2.69,2.69,0,0,0-1.76.19l1-1.56a4.51,4.51,0,0,0-1.76,3.48,2.64,2.64,0,0,0-.9-1.42l-1.83,1.55-.54-1.9.15-2.37L20,202a2.19,2.19,0,0,0-.61,2.62,1.12,1.12,0,0,0-1.86.2,2.94,2.94,0,0,0,.06-1.66A1.13,1.13,0,0,0,16.7,202.45Zm26-3.48.1-.43-.08,0a.79.79,0,0,0-.15.12Zm1.23-1.47a.56.56,0,0,0,.33-.17.63.63,0,0,0,.13-.2,3.8,3.8,0,0,1-.89-.11A2,2,0,0,1,43.88,197.5ZM39.16,193a1.08,1.08,0,0,0-1-.54.59.59,0,0,0,.07-.69.56.56,0,0,0-.75-.17l.06,0A2.35,2.35,0,0,1,36.12,193a3.51,3.51,0,0,1,3.26.66A1.75,1.75,0,0,0,39.16,193Zm.68,1c.06.07.13.14.18.21-.11,0-.23,0-.35-.06a1,1,0,0,0-.23.47c0-.17,0-.34,0-.5a4.69,4.69,0,0,0-3.75,1.31.76.76,0,0,1,.26,1.13,2.26,2.26,0,0,1,2.51.16,1.15,1.15,0,0,1,1.78-.82l.92-1.91A1.11,1.11,0,0,0,39.84,194.06Zm1.42-2.72a2.28,2.28,0,0,0-.09,2.69l.36-.75a3,3,0,0,1,1.32,2l.24-1-.34-.66c-.11-.79-.22-1.58-.32-2.37Zm3.85,2.07h0v1.65a2.57,2.57,0,0,1,1-.73A2.55,2.55,0,0,0,45.11,193.41Zm5-1.75a1.9,1.9,0,0,1-.81,1.56c.48.23,1,.24,1.26.61a1.52,1.52,0,0,1,1.66-.45A2.28,2.28,0,0,0,50.16,191.66Zm18.66,3.63-.43.62a4.37,4.37,0,0,0,.44-.42Zm-6.35-12.44c-.39.34-.39,1.19.12,1.38.2-.56.39-1.12.59-1.69A1.34,1.34,0,0,0,62.47,182.85Zm5.15,13.61a.81.81,0,0,0-.48-.3c0,.17,0,.34.07.52Zm-13.31-1.6a2.49,2.49,0,0,0-.39-.9l-.12,0a1.93,1.93,0,0,1-.78.77A1.75,1.75,0,0,0,54.31,194.86Zm-2.76,0a3.38,3.38,0,0,0-1,.34A2.21,2.21,0,0,0,51.55,194.82ZM48.92,193a1.65,1.65,0,0,0,.33.23,1.14,1.14,0,0,0-1-1.21,2.61,2.61,0,0,0-1.67.58c.23-.59.46-1.19.68-1.78a4.76,4.76,0,0,0-1,3.52,3,3,0,0,1,.59-.15,2.8,2.8,0,0,1-.83,1.21l1.52.12-.94.91-.14.7c.52.37,1.22-.12,1.34-.75a3.29,3.29,0,0,0-.41-1.86l1,.55A2.88,2.88,0,0,0,48.92,193Zm3.2,14.16c0,.31,0,.62,0,.92a2.36,2.36,0,0,1,.4.59,1,1,0,0,0,.16-.24C53,207.9,52.65,207.1,52.12,207.11Zm0,1.83.13-.09-.13.05Z"/><path class="cls-5" d="M285.49,230.79a.63.63,0,0,1-.3-.68.68.68,0,0,1,1.1-.12l-1-1.25a2.17,2.17,0,0,1-2.92-.64l-1.93,1.22c.29-.55-.56-1.22-1.23-1.1a2.42,2.42,0,0,0-1.44,1.2c-.41-.65-.81-1.3-1.21-2a7.31,7.31,0,0,1,2.9.2,4.5,4.5,0,0,1,1.3-2.49l1.57.84a1.89,1.89,0,0,0,0-2.26l-3.39.65a1.81,1.81,0,0,0-.65-1.5,10.31,10.31,0,0,0-2.8,2.58,2.59,2.59,0,0,1,.58-3.25,3.28,3.28,0,0,1,3.61-.13,2.88,2.88,0,0,1,3.41.36,1.79,1.79,0,0,1,.08-2.24,2.32,2.32,0,0,1-1.87-1.62,4.25,4.25,0,0,1,2.1-.12,3.62,3.62,0,0,1-1.2-2,2.26,2.26,0,0,1,1.58.65l-1.16-1a5,5,0,0,1,2.95-.34,3.13,3.13,0,0,1-1-1.56,1,1,0,0,1,1.07-1.1,1.68,1.68,0,0,1,.85.64l2.09,2.45c-.06-1.22-.12-2.43-.19-3.65-.63-1.19-2.51-1.39-3.66-.73a6.17,6.17,0,0,0-2.26,3,6.6,6.6,0,0,0-1.67-1.12l-1.44,2.32a1.45,1.45,0,0,1,.34-2.41l-1.65-1,.86-1.17a3.15,3.15,0,0,0-4,2.16c-.08.52-.05,1.14-.5,1.44a.68.68,0,0,1-.8-.16,5.94,5.94,0,0,1-.61,2.78,1.69,1.69,0,0,1-.55-2.51l-1.62-.37c.19-.43.38-.87.58-1.31-.48-1.23-3-.7-2.63.56l-1.46-1.41a4.68,4.68,0,0,1-1.56,2.75L267.8,217a33.56,33.56,0,0,0-4.79-1.29,4.18,4.18,0,0,0,1,2.12,6.33,6.33,0,0,0-2.49-1.4,2.42,2.42,0,0,0,1.13,2.55,5.8,5.8,0,0,0-2.74-.15l-.59-1.14a2.19,2.19,0,0,1-2.75-1.18l-2.2.79c.42-.47-.28-1.28-1-1.29a2.57,2.57,0,0,0-1.71.87l-.75-2.12a7.41,7.41,0,0,1,2.84.76,4.54,4.54,0,0,1,1.86-2.14l1.37,1.11a1.86,1.86,0,0,0,.55-2.17l-3.52,0a1.73,1.73,0,0,0-.3-1.58,11,11,0,0,0-3.37,1.94,2.57,2.57,0,0,1,1.32-3,3.39,3.39,0,0,1,3.61.57,3,3,0,0,1,3.31,1,1.73,1.73,0,0,1,.59-2.13,2.2,2.2,0,0,1-1.48-1.93,4.63,4.63,0,0,1,2.11.29,3.41,3.41,0,0,1-.74-2.11,2.22,2.22,0,0,1,1.42.93l-.93-1.2a5.18,5.18,0,0,1,3,.25,3,3,0,0,1-.63-1.7,1,1,0,0,1,1.32-.85,1.64,1.64,0,0,1,.69.78l1.52,2.77c.21-1.18.43-2.37.65-3.55-.36-1.26-2.18-1.83-3.46-1.42a6.52,6.52,0,0,0-2.95,2.47,6,6,0,0,0-1.4-1.4l-2,1.95a1.43,1.43,0,0,1,.89-2.25l-1.4-1.31,1.12-.95a3.32,3.32,0,0,0-4.5,1.29c-.2.48-.31,1.08-.82,1.29a.7.7,0,0,1-.76-.32,6.07,6.07,0,0,1-1.25,2.56,1.62,1.62,0,0,1,0-2.52l-1.52-.67.87-1.15c-.19-1.27-2.78-1.25-2.74,0-.37-.55-.74-1.1-1.12-1.64a4.85,4.85,0,0,1-2.18,2.34l1.68,1.9a34.58,34.58,0,0,0-4.45-2.18,3.9,3.9,0,0,0,.51,2.24,6.13,6.13,0,0,0-2.14-1.83,2.25,2.25,0,0,0,.53,2.67,6.09,6.09,0,0,0-2.89-.68,3.09,3.09,0,0,0,1.48,1.71,4.41,4.41,0,0,0-4.72.27,6.78,6.78,0,0,1,4.88,2.39.7.7,0,0,0-.44,1.09,3.08,3.08,0,0,0-2.95-.52,1.55,1.55,0,0,0-2-1.31l-1.14-3.05a2.65,2.65,0,0,0-1.8,1.64c-.12-.86-.24-1.72-.35-2.57.06.48-.71.69-1.15.39a2.06,2.06,0,0,1-.73-1.3l-.39,2.68a3.62,3.62,0,0,0-1.86-1.39,3.33,3.33,0,0,0,.8,1.44l-1.78-.29,1.32,1.6a5.81,5.81,0,0,0,3.21,1.06,1.75,1.75,0,0,0-1.13,1.39h.23a4.38,4.38,0,0,0-1.18.7,8,8,0,0,0-4.11-1.84,2.64,2.64,0,0,0-.47-1.9,2.7,2.7,0,0,0-.05,4,19.92,19.92,0,0,1,3.75,4.15,1.48,1.48,0,0,1-.86-.37,1,1,0,0,1-.09.49,4.19,4.19,0,0,1-2.15-1.5,3.33,3.33,0,0,0-2.17.66l1.14,1.09-1.61.36a.76.76,0,1,1,.69,1.31.23.23,0,0,1-.1-.07l.08.08h0l-.09,0a3.52,3.52,0,0,0-4.11.79l3.83,2.23.1.09a1.4,1.4,0,0,1,.12.67h.28a.74.74,0,0,1-.37.86,4.55,4.55,0,0,1,1,1.86,5.34,5.34,0,0,1-1.3.42c-.3-.49-.59-1-.88-1.47a1.89,1.89,0,0,0-1.38,1.78l3.36,1.21a1.57,1.57,0,0,0-.33,1.53,12.39,12.39,0,0,0,4-.63,2.72,2.72,0,0,1-2.46,2.29,3.4,3.4,0,0,1-3.23-1.74,2.89,2.89,0,0,1-2.78-2,1.78,1.78,0,0,1-1.4,1.74,2,2,0,0,1,.66,2.24,4.68,4.68,0,0,1-1.91-1,3.06,3.06,0,0,1-.13,2.15,2,2,0,0,1-1-1.31l.42,1.39a5.24,5.24,0,0,1-2.79-1.23,2.67,2.67,0,0,1-.07,1.75,1.1,1.1,0,0,1-1.6.33,1.48,1.48,0,0,1-.35-.94l-.36-3-2,3c-.15,1.27,1.37,2.39,2.76,2.45a7.35,7.35,0,0,0,3.8-1.25,5.39,5.39,0,0,0,.78,1.73l2.66-1.1a1.48,1.48,0,0,1-1.75,1.73c.28.56.55,1.11.83,1.66l-1.45.49a3.61,3.61,0,0,0,4.82.34c.39-.37.73-.88,1.3-.89a.66.66,0,0,1,.6.54,6.36,6.36,0,0,1,2.21-1.9,1.57,1.57,0,0,1-1,2.27l1.2,1.12-1.29.74c-.32,1.22,2.17,2.06,2.63.89.15.63.29,1.25.43,1.87a5.39,5.39,0,0,1,3-1.39l-.87-2.28a32.84,32.84,0,0,0,3.42,3.46,3.57,3.57,0,0,0,.36-2.32,5.46,5.46,0,0,0,1.36,2.49,2.11,2.11,0,0,0,.54-2.6,5.89,5.89,0,0,0,2.5,1.59,2.76,2.76,0,0,0-.74-2,4.64,4.64,0,0,0,4.63,1.33,6.33,6.33,0,0,1-3.73-3.8.72.72,0,0,0,.85-.83,3.09,3.09,0,0,0,2.63,1.46,1.44,1.44,0,0,0,1.36,1.84c0,1.05-.07,2.1-.11,3.15a3,3,0,0,0,2.38-.88l-.69,2.44c.13-.46,1-.38,1.26,0a1.85,1.85,0,0,1,.18,1.42l1.43-2.29a3.37,3.37,0,0,0,1.24,1.88,2.94,2.94,0,0,0-.2-1.57l1.6.86c-.22-.63-.43-1.26-.64-1.89a5.57,5.57,0,0,0-2.65-2,1.87,1.87,0,0,0,1.62-.88l-.22-.07.24,0,1.72.6a7.59,7.59,0,0,0,1.73,1.66.63.63,0,0,1-.2.29,5.35,5.35,0,0,1,.89.82,2.46,2.46,0,0,0-.06,1.32,2.52,2.52,0,0,0,.7-.34,4.1,4.1,0,0,1,.41,1.51,1.76,1.76,0,0,1,.19-1.18.75.75,0,0,1,1.12-.1c-.11-.49-.23-1-.35-1.47l1.84,1.44c-.39-.43.24-1.06.82-.93a2.34,2.34,0,0,1,1.3,1.12,1.2,1.2,0,0,0,.15-1.44l1.95.17-1.09-.9c.25-.6,1.26-.59,1.81-.13a3.24,3.24,0,0,1,.91,1.81l.6-1a3.5,3.5,0,0,1,2,1.45c.23-.94,1.35-1.18.93-2.11l-1.29-.46a3.27,3.27,0,0,1,3.63.07c-.1-.21.27-.61.63-.5s.89.55,1.31.4a2.73,2.73,0,0,0-2.54-1.28A2.53,2.53,0,0,1,268,237a2.1,2.1,0,0,1,0-1.7l2.11.33c1.08.17,1.67-.07,2.66.42a2.2,2.2,0,0,0-3.07-1.65,2.13,2.13,0,0,1,1.83-2.13,2.42,2.42,0,0,0,1.64,1.47c-.46-.53,0-1.34.65-1.52a3.67,3.67,0,0,1,2.1.26l-1.37-1.65a5.34,5.34,0,0,1,2.45,3.66,2.21,2.21,0,0,1,.92-1.43l2.31,1.67.45-1.94-.42-2.44,1.38-.1a2.3,2.3,0,0,1,1,2.73,1.45,1.45,0,0,1,2.2.27,2.78,2.78,0,0,1-.23-1.71A1.11,1.11,0,0,1,285.49,230.79Zm-31-4.61-.16-.44.09,0a.8.8,0,0,1,.19.13Zm-1.62-1.56a.76.76,0,0,1-.4-.2,1.12,1.12,0,0,1-.18-.2,5.2,5.2,0,0,0,1.05-.08A1.66,1.66,0,0,0,252.83,224.62ZM258,220.2a1.16,1.16,0,0,1,1.12-.52.58.58,0,0,1-.15-.71.69.69,0,0,1,.87-.14h-.08a3.22,3.22,0,0,0,1.82,1.41,4.32,4.32,0,0,0-3.78.56A1.34,1.34,0,0,1,258,220.2Zm-.7,1c-.06.07-.14.13-.19.2l.4,0a1.15,1.15,0,0,1,.33.49c0-.17,0-.35-.06-.52a6.83,6.83,0,0,1,4.57,1.5.7.7,0,0,0-.18,1.16,3,3,0,0,0-2.95.06,1.59,1.59,0,0,0-2.2-.92l-1.28-2A1.45,1.45,0,0,1,257.26,221.24Zm-2-2.86a2.18,2.18,0,0,1,.39,2.78l-.51-.79a2.57,2.57,0,0,0-1.36,2l-.38-1,.33-.66c0-.81.09-1.62.14-2.44Zm-4.34,2,0,0,.15,1.69a3.71,3.71,0,0,0-1.26-.78A2.48,2.48,0,0,1,251,220.35Zm-6.16-2a2.26,2.26,0,0,0,1.13,1.64c-.55.21-1.14.2-1.43.57a2.16,2.16,0,0,0-2-.53A2.22,2.22,0,0,1,244.8,218.36Zm-21.68,3,.57.66a6.26,6.26,0,0,1-.57-.45Zm6.22-12.56c.5.38.58,1.24,0,1.42l-.87-1.76A2,2,0,0,1,229.34,208.79Zm-4.68,13.81a.8.8,0,0,1,.53-.29l0,.53C225,222.77,224.82,222.68,224.66,222.6Zm15.57-1.11a2,2,0,0,1,.37-.91l.15,0a2.63,2.63,0,0,0,1,.82A2.36,2.36,0,0,1,240.23,221.49Zm3.26.06a4.75,4.75,0,0,1,1.21.39A3.3,3.3,0,0,1,243.49,221.55Zm2.91-1.82a1.34,1.34,0,0,1-.36.22c-.18-.56.39-1.16,1.05-1.2a3.79,3.79,0,0,1,2,.66l-1-1.85a5,5,0,0,1,1.6,3.66A4.21,4.21,0,0,0,249,221a3.58,3.58,0,0,0,1.11,1.28l-1.78.06,1.2,1,.24.73c-.58.35-1.46-.18-1.66-.83a2.82,2.82,0,0,1,.29-1.9l-1.15.52A3,3,0,0,1,246.4,219.73Zm-2.31,14.46.07.94a2.44,2.44,0,0,0-.42.59,2.52,2.52,0,0,1-.21-.25C243.2,235,243.46,234.15,244.09,234.19Zm.14,1.88-.16-.1.15.06Z"/><path class="cls-4" d="M301.48,168.38a1.14,1.14,0,0,1-.9-1,1.16,1.16,0,0,1,1.69-1l-2.38-1.54a3.49,3.49,0,0,1-5.08.83l-2.35,3.49c.13-1.19-1.64-1.8-2.63-1.13a4.82,4.82,0,0,0-1.59,3.12l-3.12-2.69a11.4,11.4,0,0,1,4.77-1.6,9.35,9.35,0,0,1,.57-5.33l3,.43a3.87,3.87,0,0,0-1.32-4.06l-5.05,3.47a3.27,3.27,0,0,0-1.95-2.25,20.81,20.81,0,0,0-2.91,6.5,5.2,5.2,0,0,1,4.65-8.87,4.65,4.65,0,0,1,5.69-1.69,3.6,3.6,0,0,1-1.24-4,3.77,3.77,0,0,1-4-1.63,7,7,0,0,1,3.28-1.65,6.43,6.43,0,0,1-3.1-2.68,3.47,3.47,0,0,1,2.92.09l-2.48-1a8.32,8.32,0,0,1,4.52-2.61,5.42,5.42,0,0,1-2.54-2.12c-.5-1-.06-2.52,1.05-2.69a2.75,2.75,0,0,1,1.74.57l4.84,3-2.52-6.4c-1.73-1.69-4.87-.79-6.3,1.17s-1.64,4.51-1.79,6.93a10.29,10.29,0,0,0-3.35-.86l-.9,5.13a2.92,2.92,0,0,1-.91-4.55l-3.27-.71.66-2.67a5.84,5.84,0,0,0-5.14,6.59c.18,1,.6,2.07.08,2.92a1.11,1.11,0,0,1-1.39.24,12.84,12.84,0,0,1,.72,5.39,3.24,3.24,0,0,1-2.42-4.12l-2.81.45.13-2.73c-1.51-1.88-5.16.75-3.87,2.78l-3.19-1.54a9.84,9.84,0,0,1-.83,6l4.24,1.4a52,52,0,0,0-8.45.94,7.6,7.6,0,0,0,2.9,3.1,9.75,9.75,0,0,0-4.83-.81,4.42,4.42,0,0,0,3.36,3.79,9.32,9.32,0,0,0-4.49,1.59l-1.63-1.64a3.47,3.47,0,0,1-5.13-.25l-3,2.91c.38-1.13-1.22-2.1-2.34-1.66a4.87,4.87,0,0,0-2.21,2.72c-.82-1.1-1.65-2.19-2.48-3.29a11.33,11.33,0,0,1,5-.56,9.28,9.28,0,0,1,1.69-5.09l2.86,1.06a3.86,3.86,0,0,0-.43-4.25l-5.66,2.32a3.31,3.31,0,0,0-1.44-2.61,21,21,0,0,0-4.21,5.74,5.19,5.19,0,0,1,6.41-7.68,4.65,4.65,0,0,1,5.92-.45,3.62,3.62,0,0,1-.36-4.21,3.79,3.79,0,0,1-3.54-2.43,7,7,0,0,1,3.56-.92,6.35,6.35,0,0,1-2.46-3.28,3.48,3.48,0,0,1,2.83.7l-2.21-1.51a8.3,8.3,0,0,1,5-1.6,5.39,5.39,0,0,1-2-2.61c-.28-1.08.47-2.48,1.59-2.41a2.73,2.73,0,0,1,1.58.93l4.1,3.92c-.37-2.26-.74-4.53-1.1-6.79-1.34-2-4.6-1.79-6.41-.19s-2.56,4.07-3.22,6.41a10.22,10.22,0,0,0-3.09-1.56l-2,4.83a2.92,2.92,0,0,1,.06-4.64l-3-1.39c.41-.82.81-1.64,1.21-2.46a5.83,5.83,0,0,0-6.41,5.35c0,1,.15,2.15-.54,2.87a1.09,1.09,0,0,1-1.41-.06,12.73,12.73,0,0,1-.44,5.42,3.24,3.24,0,0,1-1.49-4.53l-2.84-.16c.23-.88.47-1.76.7-2.64-1.08-2.15-5.2-.36-4.37,1.9l-2.79-2.18a9.91,9.91,0,0,1-2.07,5.67l3.85,2.26a52.42,52.42,0,0,0-8.46-.87A7.5,7.5,0,0,0,213,149a9.78,9.78,0,0,0-4.55-1.81,4.41,4.41,0,0,0,2.48,4.42,9.31,9.31,0,0,0-5,.73,5.24,5.24,0,0,0,3.41,2.06,7.24,7.24,0,0,0-7.38,3.68,10.49,10.49,0,0,1,9.26,1,1.41,1.41,0,0,0-.06,2.24,4.82,4.82,0,0,0-5,1.08,2.53,2.53,0,0,0-3.95-1l-3.68-4.68a5.3,5.3,0,0,0-1.89,4.15c-.71-1.45-1.41-2.91-2.12-4.36.4.82-.72,1.71-1.6,1.49a3.69,3.69,0,0,1-1.95-1.83c.33,1.68.67,3.36,1,5A5.87,5.87,0,0,0,188,160a5.93,5.93,0,0,0,2.16,2l-3,.7,3.09,2a8.79,8.79,0,0,0,5.77-.28,3.56,3.56,0,0,0-.95,3.24l.36-.15a8,8,0,0,0-1.46,2.06,12.24,12.24,0,0,0-7.7-.5,5.13,5.13,0,0,0-1.9-3.08,5.38,5.38,0,0,0,2.33,7.13,33.7,33.7,0,0,1,8.52,4.88,2.21,2.21,0,0,1-1.6-.06,2.17,2.17,0,0,1,.16.94,6.69,6.69,0,0,1-4.37-1.24,5.9,5.9,0,0,0-3.07,2.65l2.49,1.18-2.37,1.74a2.87,2.87,0,0,1,2.33.16,3.83,3.83,0,0,1-.43,1.71.39.39,0,0,1-.2-.05l.19.08,0,0a.83.83,0,0,1-.11.15,6,6,0,0,0-6.11,4.2l7.48,1.38.23.09a3,3,0,0,1,.6,1.12l.44-.19a1.55,1.55,0,0,1-.07,1.8,8,8,0,0,1,2.82,2.61,9.19,9.19,0,0,1-1.84,1.63l-2.29-2a3.86,3.86,0,0,0-1.14,4.11l6.12-.11a3.29,3.29,0,0,0,.39,3,20.47,20.47,0,0,0,6-3.82,5.19,5.19,0,0,1-8.76,4.84,4.65,4.65,0,0,1-5.68-1.73,3.62,3.62,0,0,1-1.19,4,3.8,3.8,0,0,1,2.41,3.55,6.9,6.9,0,0,1-3.65-.43,6.4,6.4,0,0,1,1.11,3.94,3.46,3.46,0,0,1-2.39-1.68l1.51,2.22a8.3,8.3,0,0,1-5.21-.32,5.45,5.45,0,0,1,.95,3.17c-.14,1.11-1.34,2.14-2.36,1.67a2.76,2.76,0,0,1-1.14-1.44l-2.4-5.14q-.71,3.36-1.43,6.72c.52,2.37,3.63,3.35,5.91,2.51s3.85-2.87,5.32-4.8a10.1,10.1,0,0,0,2.31,2.57c1.19-1.26,2.39-2.52,3.58-3.79a2.92,2.92,0,0,1-1.74,4.3l2.33,2.4-2,1.86a5.85,5.85,0,0,0,7.92-2.67c.39-.92.63-2.05,1.54-2.47a1.08,1.08,0,0,1,1.29.57,12.79,12.79,0,0,1,2.38-4.9,3.24,3.24,0,0,1-.26,4.76l2.59,1.18-1.61,2.21c.23,2.4,4.72,2.22,4.76-.19l1.81,3.05a9.82,9.82,0,0,1,4-4.53l-2.77-3.5a53.48,53.48,0,0,0,7.57,3.88,7.46,7.46,0,0,0-.82-4.4,9.75,9.75,0,0,0,3.69,3.55,4.4,4.4,0,0,0-.71-5,9.28,9.28,0,0,0,5,1.15,5.17,5.17,0,0,0-2.43-3.15,7.26,7.26,0,0,0,8.22-.75,10.51,10.51,0,0,1-8.28-4.27,1.42,1.42,0,0,0,.87-2.07,4.82,4.82,0,0,0,5.08.83,2.51,2.51,0,0,0,3.31,2.37c.57,1.9,1.15,3.81,1.73,5.71a5.35,5.35,0,0,0,3.27-3.19l.39,4.84c-.08-.91,1.29-1.34,2-.81a3.63,3.63,0,0,1,1.15,2.42l.9-5.07a5.85,5.85,0,0,0,3.13,2.53,6,6,0,0,0-1.27-2.68l3.07.46-2.17-2.95a8.77,8.77,0,0,0-5.48-1.84,3.57,3.57,0,0,0,2.07-2.67h-.4l.38-.19,3.1-.09a12.36,12.36,0,0,0,3.78,1.78,1.38,1.38,0,0,1-.14.66,7.59,7.59,0,0,1,1.92.88,5.28,5.28,0,0,0,.71,2.39,4.67,4.67,0,0,0,.91-1.08,8,8,0,0,1,1.58,2.42,3.63,3.63,0,0,1-.42-2.24c.18-.75,1.1-1.36,1.75-.93l-1.46-2.4,3.82,1.32c-.89-.5-.26-2.05.75-2.21a3.78,3.78,0,0,1,2.76,1.13,2.46,2.46,0,0,0-.63-2.68l3.22-1-2.29-.87c0-1.24,1.67-1.9,2.82-1.45a5.92,5.92,0,0,1,2.56,2.63l.33-2.27a5.59,5.59,0,0,1,4,1.24c-.21-1.83,1.45-3,.21-4.39l-2.35,0a5.29,5.29,0,0,1,5.85-2.33c-.28-.31.08-1.28.72-1.32.81-.05,1.76.38,2.34-.18a4.29,4.29,0,0,0-4.85-.56,4.21,4.21,0,0,1,5.9-2.79,4.35,4.35,0,0,1-1.07-3l3.57-.83c1.84-.43,2.64-1.26,4.52-1.06a3.56,3.56,0,0,0-5.92-.87,4.3,4.3,0,0,1,1.65-5,3.93,3.93,0,0,0,3.51,1.52c-1.06-.64-.84-2.39.12-3.18a5.87,5.87,0,0,1,3.53-.95l-3.2-2a9.28,9.28,0,0,1,6.14,4.89,4.75,4.75,0,0,1,.6-3.19l4.73,1.43c-.16-1.26-.31-2.52-.46-3.77l-2.16-4.09,2.14-1.1a4.26,4.26,0,0,1,3.26,4.19,2.37,2.37,0,0,1,3.7-1,5.57,5.57,0,0,1-1.41-2.9A2.15,2.15,0,0,1,301.48,168.38ZM249,181.17l-.53-.69h.16a1.79,1.79,0,0,1,.4.09Zm-3.53-1.7a1.35,1.35,0,0,1-.77-.07,2.26,2.26,0,0,1-.4-.25,8.65,8.65,0,0,0,1.62-.86A3.32,3.32,0,0,0,245.43,179.47ZM251,168.09a2.15,2.15,0,0,1,1.48-1.68,1.06,1.06,0,0,1,.64-2l-.11.07a5.16,5.16,0,0,0,3.76,1.29,7.27,7.27,0,0,0-5.72,3.55A3.13,3.13,0,0,1,251,168.09Zm-.48,2.34a4.14,4.14,0,0,0-.19.49c.2-.13.42-.24.62-.35a1.89,1.89,0,0,1,.82.66c-.14-.3-.28-.59-.4-.9a10.53,10.53,0,0,1,8.22-.41,1.42,1.42,0,0,0,.42,2.2,4.81,4.81,0,0,0-4.69,2.11,2.52,2.52,0,0,0-4.07-.16l-3.27-2.7A2.34,2.34,0,0,1,250.47,170.43Zm-4.88-3.79a4.28,4.28,0,0,1,2.31,4.7l-1.29-1.07a5.25,5.25,0,0,0-1,4.46l-1.26-1.61.13-1.41-1.26-4.44Zm-5.75,6.47,0,0,1.26,2.92a5.72,5.72,0,0,0-2.48-.55A4.7,4.7,0,0,1,239.84,173.11Zm-11.08.6a3.91,3.91,0,0,0,2.8,2.17c-.75.75-1.7,1.13-1.94,2a3.34,3.34,0,0,0-3.53.42A4.28,4.28,0,0,1,228.76,173.71Zm-32.91,20,1.31.79c-.4-.12-.79-.26-1.18-.42Zm2.34-26.67c1,.33,1.69,1.82.86,2.53l-2.45-2.55A3,3,0,0,1,198.19,167.08Zm.88,27.86a1.62,1.62,0,0,1,.68-.88l.28,1C199.71,195,199.39,195,199.07,194.94Zm24.27-12.54a4.26,4.26,0,0,1,0-1.88h.28a4.16,4.16,0,0,0,2.09.8A3.78,3.78,0,0,1,223.34,182.4Zm5.26-2.08a7.2,7.2,0,0,1,2.18-.14A5.18,5.18,0,0,1,228.6,180.32Zm3.56-5.24a2.53,2.53,0,0,1-.45.64,2.12,2.12,0,0,1,.95-2.86,5.89,5.89,0,0,1,3.65-.19l-2.7-2.65a9.21,9.21,0,0,1,4.78,5.47,5.88,5.88,0,0,0-1.25.17,6,6,0,0,0,2.54,1.54l-2.82,1.31,2.53.93c.27.38.55.76.82,1.15-.71,1-2.44.66-3.16-.36a5.92,5.92,0,0,1-.68-3.59l-1.53,1.71A5.59,5.59,0,0,1,232.16,175.08Zm5.06,27.42.69,1.64a4.66,4.66,0,0,0-.3,1.34,2.33,2.33,0,0,1-.5-.31C236.27,204.49,236.2,202.86,237.22,202.5Zm1.37,3.27-.32-.06h.29Z"/><path class="cls-2" d="M80.7,174.55a9.19,9.19,0,0,1,5.38,5.83,4.25,4.25,0,0,1-.24-2.62c.29-.84,1.41-1.43,2.1-.88L86.53,174l4.23,1.93c-1-.67-.07-2.39,1.11-2.47a4.39,4.39,0,0,1,3,1.6,2.83,2.83,0,0,0-.43-3.14l3.8-.83-2.53-1.24c.16-1.42,2.12-2,3.39-1.36a6.75,6.75,0,0,1,2.65,3.28c.21-.85.41-1.71.62-2.56a6.4,6.4,0,0,1,4.49,1.86c0-2.13,2-3.31.71-5l-2.69-.21a6.11,6.11,0,0,1,7.32-1.91c-.92.13-.33-1.59.6-1.56s2,.62,2.7,0a5,5,0,0,0-5.5-1.16,4.86,4.86,0,0,1,7.07-2.57,4.94,4.94,0,0,1-.92-3.57l4.19-.57c2.16-.29,3.16-1.16,5.3-.73-.67-2.75-4.84-3.76-6.69-1.63a4.93,4.93,0,0,1,2.43-5.6,4.51,4.51,0,0,0,3.86,2.12c-1.15-.84-.71-2.82.47-3.63a6.82,6.82,0,0,1,4.15-.71l-3.45-2.66A10.62,10.62,0,0,1,133,148a5.44,5.44,0,0,1,1-3.58l5.27,2.14-.12-4.38-2-4.91,2.58-1a4.9,4.9,0,0,1,3.28,5.16,2.74,2.74,0,0,1,4.36-.76,6.28,6.28,0,0,1-1.31-3.48c.05-1.25,1.23-2.53,2.44-2.19a1.27,1.27,0,1,1,.15-2.1l-2.57-2a4,4,0,0,1-5.9.41L137,135c.28-1.35-1.68-2.24-2.89-1.58s-1.73,2.1-2.16,3.41l-3.29-3.42a13,13,0,0,1,5.64-1.33,10.78,10.78,0,0,1,1.23-6l3.42.83a4.44,4.44,0,0,0-1.07-4.8l-6.16,3.43a3.8,3.8,0,0,0-2-2.79,23.82,23.82,0,0,0-4,7.14,6,6,0,0,1,6.28-9.67,5.35,5.35,0,0,1,6.71-1.31,4.17,4.17,0,0,1-1-4.77,4.37,4.37,0,0,1-4.38-2.3,8,8,0,0,1,4-1.53A7.4,7.4,0,0,1,134,106.8a4,4,0,0,1,3.33.41l-2.73-1.43a9.53,9.53,0,0,1,5.47-2.5,6.31,6.31,0,0,1-2.69-2.7c-.46-1.21.2-2.91,1.49-3a3.11,3.11,0,0,1,1.94.85l5.22,3.91-2.19-7.6c-1.81-2.13-5.5-1.43-7.35.66s-2.37,5-2.8,7.76a11.89,11.89,0,0,0-3.75-1.36l-1.58,5.79a3.36,3.36,0,0,1-.56-5.31l-3.67-1.17c.35-1,.7-2,1-3a6.72,6.72,0,0,0-6.59,7c.1,1.14.47,2.43-.23,3.35s-2.7-.11-1.89-.92a14.82,14.82,0,0,1,.52,7.3,3.73,3.73,0,0,1-2.33-5l-3.26.21c.14-1,.29-2.08.43-3.11-1.53-2.32-6,.3-4.73,2.77l-3.49-2.12a11.4,11.4,0,0,1-1.59,6.77l4.7,2a60.41,60.41,0,0,0-9.79.17,8.75,8.75,0,0,0,4,4.52,11.19,11.19,0,0,0-6.49-2.1A5,5,0,0,0,100,124a10.7,10.7,0,0,0-7.68,1.31,6,6,0,0,0,4.18,1.88,8.36,8.36,0,0,0-7.94,5.22,12.1,12.1,0,0,1,10.72-.16,1.64,1.64,0,0,0,.24,2.57,5.54,5.54,0,0,0-5.6,1.92,2.9,2.9,0,0,0-4.65-.62l-4.85-4.85a6.07,6.07,0,0,0-1.59,5l-3-4.7c.57.88-.59,2.05-1.63,1.92a4.21,4.21,0,0,1-2.48-1.83q.91,2.82,1.84,5.64a6.72,6.72,0,0,0-4.55-.88,6.88,6.88,0,0,0,2.74,2l-3.36,1.21,3.8,1.82a10.19,10.19,0,0,0,6.56-1.11A4.07,4.07,0,0,0,82,144.2a5.32,5.32,0,0,1,3.52-1c1.23.23,2.18,1.85,1.33,2.77L83.27,143A9.26,9.26,0,0,0,81,146.54a14.14,14.14,0,0,0-8.88.48,5.85,5.85,0,0,0-2.59-3.27,6.21,6.21,0,0,0,3.64,7.84A38.76,38.76,0,0,1,83.63,156a2.74,2.74,0,0,1-3.53-1.12,2.56,2.56,0,0,1,2,2.32,7.66,7.66,0,0,1-5.16-.82,6.84,6.84,0,0,0-3.15,3.45l3,1-2.47,2.31c.92-.32,2-.63,2.82-.06s.29,2.28-.62,1.91l3.11.86c-3.74-1.85-8.91.93-9.42,5.07l8.74.56C80.39,171.7,81.49,173.32,80.7,174.55Z"/><path class="cls-5" d="M8.27,162.24a1.31,1.31,0,0,1,.37,1.34L3.56,165.1a1.57,1.57,0,0,0-.9.51c-.67,1,1.07,1.78,2.22,1.59a14.36,14.36,0,0,0,4.32-1.48,7.09,7.09,0,0,0-2,4.94l6.14-4.83a14.94,14.94,0,0,0-1.16,6.89,10.7,10.7,0,0,0,4.22-4.06l.94,3c.14.46.39,1,.88,1s.72-.37.94-.72a23.23,23.23,0,0,0,2.23-4.63l1.69,1.28a3.65,3.65,0,0,0,1-1.74c.51-.49.9.63,1.14,1.29.45,1.23,2.42,1.14,3.24.11a5.69,5.69,0,0,0,.78-3.78,3.84,3.84,0,0,1,2.5,3.2c1.87.39,2.59-3.65,4.38-3,2,.74-.57,5,1.47,5.44l1-1.33a5.51,5.51,0,0,0,.69,2.47,1.86,1.86,0,0,0,2.24.79c2.45-1.25,2.31-7.89-.6-6.5A7.51,7.51,0,0,1,50,168c-1.07-.42.6-1.91,1.58-1.32s1.76,1.85,2.88,1.65a6.1,6.1,0,0,0-5.22-4.54,6,6,0,0,1,9.15,1.47,6.13,6.13,0,0,1,1.17-4.4l4.85,1.9c2.5,1,4.1.65,6.14,2.39.94-3.36-3-7-6.23-5.77a6.08,6.08,0,0,1,6-4.58,5.56,5.56,0,0,0,2.9,4.6c-.74-1.6.93-3.47,2.68-3.62s3.4.79,4.9,1.71l-2.13-4.93a13.1,13.1,0,0,1,3.27,10.65,6.71,6.71,0,0,1,3.26-3.24c1.46,1.82,2.93,3.64,4.39,5.47L92,160.62l.75-6.52,3.41.43a6.07,6.07,0,0,1,.44,7.53,3.38,3.38,0,0,1,5.15,1.8,7.82,7.82,0,0,1,.67-4.53c.81-1.33,2.85-2,4-.9a1.57,1.57,0,1,1,1.42-2.18c-.52-1.24-1-2.48-1.55-3.73a4.94,4.94,0,0,1-6.61-3.1l-5.57,2.2c1.12-1.29-.47-3.42-2.17-3.44s-3.12,1.22-4.36,2.38c-.49-1.83-1-3.65-1.36-5.5,2.56,0,4.84.68,7.44.14,1.65-.34,5-3.51,6.9-1.56l-1.2-1.26a5.6,5.6,0,0,0,3,.33,2,2,0,0,0,1.49-2.31c-.39-1.06-1.81-1.24-2.94-1.12l3.51-2.47A9.38,9.38,0,0,0,97,139c.73-.17,1.62-.5,1.67-1.25.07-1-1.45-1.3-2.37-.87s-1.85,1.21-2.83.94a8.75,8.75,0,0,0,1.41-4.29l-7.32,3.13.72-1.66a2.24,2.24,0,0,1-1.79-2.9,3.67,3.67,0,0,1,3-2.26c3-.47,10.29,1.22,12.46,3.39.93.93,2.5,2,3.35,1l-2.52-2.46a29.48,29.48,0,0,0,4.59-.36c.38-.06.82-.17,1-.53a1.14,1.14,0,0,0-.28-1,12.4,12.4,0,0,0-3-3l3.38-.08a1.73,1.73,0,0,0,1-.22c.72-.53.2-1.7-.51-2.25s-1.62-1.08-1.66-2q3.6-.91,7.28-1.47c-.63-1.13-1.25-2.26-1.87-3.39l6.35-2a22,22,0,0,0-2.25-2.18c1.28-.11,2.74-.55,3.24-1.74s-1.06-2.81-2-1.93a5.37,5.37,0,0,0,2.49-4.53,6.76,6.76,0,0,0-4.65,4.76,5.36,5.36,0,0,0-1.51-3.81,14.74,14.74,0,0,0-2.41,6.36,3.44,3.44,0,0,1-1.7-2.75,6.35,6.35,0,0,1-5.21,5.58l.51-3.81a10.13,10.13,0,0,1-3.72.76l2.83-2.46a1.37,1.37,0,0,0,.5-.67c.17-.74-.89-1.14-1.65-1s-1.67.39-2.19-.17a5.24,5.24,0,0,0,1.55-1.83,1.79,1.79,0,0,0-.48-2.18c-.67-.44-1.82.1-1.69.9a4.71,4.71,0,0,0,1.46-4.77,6.26,6.26,0,0,0-4,5.2,3.6,3.6,0,0,0-1.54-3.48c-1.07,2.73-2,5.5-2.86,8.31l-1.88-4.89c-.47,2.41-1.12,5.06-2.89,6.67-1.55-.61-.82-1.08-.65-2A18.25,18.25,0,0,1,84.54,118a4.59,4.59,0,0,1,.48-6.76l-3.65-1.74,2.34-3.09c-.27-3.41-6.65-3.27-6.76.15l-2.5-4.37a14,14,0,0,1-5.77,6.33l3.84,5a74.55,74.55,0,0,0-10.65-5.69,10.67,10.67,0,0,0,1.63,7.28A13.8,13.8,0,0,0,57.77,109a6.21,6.21,0,0,0,2.91,8.58,13.2,13.2,0,0,0-9-3.19A7.33,7.33,0,0,0,55,118.89a10.31,10.31,0,0,0-11.69.87A14.89,14.89,0,0,1,55,126a2,2,0,0,0-1.28,2.92,6.85,6.85,0,0,0-7.19-1.3,3.57,3.57,0,0,0-4.64-3.45q-1.17-4.08-2.32-8.14a7.49,7.49,0,0,0-4.72,4.44l-.44-6.88c.08,1.3-1.86,1.87-2.91,1.09a5.18,5.18,0,0,1-1.57-3.45q-.7,3.59-1.4,7.17a8.41,8.41,0,0,0-4.38-3.67,8.56,8.56,0,0,0,1.74,3.84l-4.35-.72c1.26.21,2.6,4.22,3.91,5.13a9,9,0,0,0,6.47,1.46c-.59,1-2.62.61-2.8,1.76-.11.69.65,1.18,1.3,1.46L35.6,130,33,129.09a5.35,5.35,0,0,1,1.14,4.58c-1,.2-1.75-.79-2.38-1.57s-1.84-1.49-2.55-.78-.41,2.27-1.36,2.34l-2.39-3.51a5.8,5.8,0,0,0-1.7,2.54,8.13,8.13,0,0,0-1.32-4.1,6.23,6.23,0,0,0-1.23,3.14,4.34,4.34,0,0,0-.74-2.06,1.52,1.52,0,0,0-2-.43c-1.07.77-.06,2.42.94,3.28a14.54,14.54,0,0,0-4.29-.65c2.9,3.76,6.3,6.16,8.69,10.4a3.37,3.37,0,0,1-3.12-3.33,3.21,3.21,0,0,1,.76,3.7,9.48,9.48,0,0,1-5.09-4A8.36,8.36,0,0,0,11,140.5l2.63,2.89-4,1c1.19.2,2.55.53,3.07,1.63s-.7,1.91-1.65,1.86a15.41,15.41,0,0,0,2.53,2.45C11.15,146.67,7,147.07,3.21,147A22.7,22.7,0,0,1,5,151.87a6.93,6.93,0,0,0-5,1,51.58,51.58,0,0,0,4.43,3.5c-.92.5-2.07.39-3,.8s-1.64,1.87-.76,2.46a1.91,1.91,0,0,0,1.62,0l5.94-1.77L5.45,161.7a4.46,4.46,0,0,1,2.21.11A1.62,1.62,0,0,1,8.27,162.24Z"/></g></g></g></svg>