<svg xmlns="http://www.w3.org/2000/svg" viewBox="0 0 752.49 209.59"><defs><style>.cls-1{isolation:isolate;}.cls-2,.cls-3{fill:#f0c549;}.cls-10,.cls-3,.cls-5,.cls-6,.cls-8{mix-blend-mode:multiply;}.cls-3{opacity:0.43;}.cls-4,.cls-5,.cls-6{fill:#5f727c;}.cls-5{opacity:0.35;}.cls-6{opacity:0.27;}.cls-7,.cls-8{fill:#d89720;}.cls-8{opacity:0.31;}.cls-10,.cls-9{fill:#ccae33;}</style></defs><g class="cls-1"><g id="Layer_2" data-name="Layer 2"><g id="OBJECTS"><g id="L4"><path class="cls-2" d="M751.47,208.07H1.47V58.56s11.17,0,11.75,0c6.61.13,10.64-2.95,12.5-9.83a7,7,0,0,1-1.42,5.05L27,52.49a3.73,3.73,0,0,1-1.73,3.13L28,55.36,25.36,58a14.59,14.59,0,0,0,8.22-4.88,19.86,19.86,0,0,1-3.64,4.76l3.69-1.62a7.16,7.16,0,0,1-4.21,4,9.29,9.29,0,0,0,7.86-5.83l.18,3.64a9.58,9.58,0,0,0,2.67-7.35,13.69,13.69,0,0,0,.53,5.86l2.25-7.74A14.36,14.36,0,0,1,42,55.17a6.09,6.09,0,0,1,3.19-2.59,4.06,4.06,0,0,1-2.18,3.68,4.1,4.1,0,0,1,3.75-.9l-3.31,2.15a6,6,0,0,0,6.82-6.38c0,1.82.09,3.63.14,5.44l2.24-3.17a8.79,8.79,0,0,1-1.44,4.09,2.45,2.45,0,0,1,2.9-1.6q-1.57,1.59-3.14,3.2a3.71,3.71,0,0,1,4.66-.35A16.49,16.49,0,0,1,63,55a2.16,2.16,0,0,0-1.45,1.63,20.15,20.15,0,0,0,4.28-5.91c-.17,2.26-.35,4.53-.52,6.8l3.49-3.64a6.21,6.21,0,0,1-3.1,5.41A13.06,13.06,0,0,1,71,56.11a4.68,4.68,0,0,1-2.73,3.57A25.38,25.38,0,0,0,76,53.89l-1.81,5A30.51,30.51,0,0,1,79.9,53.5,11.15,11.15,0,0,1,76.48,59a14,14,0,0,1,6.46-4,8.55,8.55,0,0,1-4.58,4.5,42.69,42.69,0,0,1,7.42-2.76,8.18,8.18,0,0,1-3.25,2.63,15,15,0,0,1,6.54-2,2.69,2.69,0,0,1-2.85,1.24c6.36,1.48,13.07.89,19.51.46,6.93-.46,12.22.34,17.15-5.31l-2.23,3.8,3-1.57-.6,1.6a1.53,1.53,0,0,1,2.16-.35A8.75,8.75,0,0,0,131,51.8l.09,2.93a12.58,12.58,0,0,1,2.74-4.36c-.2,1.13-.39,2.27-.59,3.4l4.33-6.62c-.41,1.48-.81,3-1.21,4.45a6.08,6.08,0,0,1,3.56-2.72,10.27,10.27,0,0,1-3.53,3.9,4.88,4.88,0,0,1,4.24-1.58L136,55.42l8.68-5.4-5.29,5.4,6.21-2.83a14.5,14.5,0,0,1-6.05,4.5,18.09,18.09,0,0,0,11.67-9,49.49,49.49,0,0,1-4.65,8.08,10.2,10.2,0,0,1,4.77-4.89,9.58,9.58,0,0,1-5,6.16,8.82,8.82,0,0,1,6.4-3,7.62,7.62,0,0,1-3.37,3.41L160,52.11a2.68,2.68,0,0,0-1.37,2.39,5.52,5.52,0,0,0,2.8-2.46l-3.12,5a19.13,19.13,0,0,1,5.21-4.69c-1.08,1.73-2.17,3.45-3.25,5.17l6.82-5.71a13.93,13.93,0,0,1-3.92,5.11,21.29,21.29,0,0,0,8.52-10.45,35.77,35.77,0,0,1-5.23,10,20.13,20.13,0,0,0,8.28-17.33,41.63,41.63,0,0,1-4,17.1,43,43,0,0,0,8.34-16.77,49.91,49.91,0,0,1-6.41,15.78l7.67-9.39A65.39,65.39,0,0,1,173,56.7a38.72,38.72,0,0,1,16.29-13.19,65,65,0,0,0-14.71,13.72,34.64,34.64,0,0,1,16.88-11.76,44.56,44.56,0,0,0-12.77,10.7l12.9-9-11.2,9.7a96.91,96.91,0,0,0,14-9.44A123.81,123.81,0,0,1,183.05,57a29.52,29.52,0,0,1,9.87-6.21,22.75,22.75,0,0,1-7.06,5.32l7.43-3A31.85,31.85,0,0,1,187.53,57a15.7,15.7,0,0,1,5.23-1.5,9.67,9.67,0,0,1-3.7,2.32c2.83-1,5.75.17,8.79-1.08A33.51,33.51,0,0,0,207.1,51a13.37,13.37,0,0,1-6.42,5.64,59,59,0,0,1,7.88-3.18q-1.92,1.32-3.85,2.63A16.48,16.48,0,0,1,209,54.88a5.15,5.15,0,0,1-3.78,2.65,10.71,10.71,0,0,0,8.37-4.28A15.74,15.74,0,0,1,211,57.47l4.33-3.27a9.56,9.56,0,0,1-2.14,3c2.51-2.05,5.28-4.21,8.52-4.31a11.82,11.82,0,0,0-5.54,4.89l5.66-3.65-1.32,2.39a5.75,5.75,0,0,0,2.14-1.6c-.33.81-.66,1.61-1,2.41a11.53,11.53,0,0,0,4.44-6.25,18.41,18.41,0,0,1-.91,5.1,11.12,11.12,0,0,1,3-3.7,16.55,16.55,0,0,1-2.58,4.26,5.77,5.77,0,0,1,5.08-1.55L227.1,58a16.07,16.07,0,0,1,8.3-2.8l-3,2a9.11,9.11,0,0,0,6.24-4.77,22.35,22.35,0,0,1-3.75,5.2,31,31,0,0,1,5.08-3.17,15.33,15.33,0,0,0-3.74,3.21A7.84,7.84,0,0,1,240,56.21l-1.64,1.68c.2-.35,6.45.48,7.1.49A18.33,18.33,0,0,0,256,55.64,19.16,19.16,0,0,1,253.47,58l4.34-1.4a3.32,3.32,0,0,1-1.55,1.75,11.19,11.19,0,0,1,5.32-1.86l-1.6,1c3.42-2.11,11.39.57,15.22.62,7.6.12,14.66-.26,21.77-3.31a6,6,0,0,1-3.1,3.12,19,19,0,0,0,5.19-1,2.43,2.43,0,0,1-1.67,1.39,32.36,32.36,0,0,0,11.55-3.64l-3.08,2.91,7.85-3.54L311,56.54a18.63,18.63,0,0,1,6.89-3L313,56.73l7.59-2.86-4.86,3a17,17,0,0,1,5.66-.82l-2.64.84a23.37,23.37,0,0,0,8-2.68,11.5,11.5,0,0,1-3.9,2.67l6.28-2.36a8.53,8.53,0,0,1-4.26,3.27l4.5-1.56c.35-.12.83-.19,1,.13.28.55-.71.78-1.29.58a16.46,16.46,0,0,0,11.49-4.47l-5.37,4.33a53.24,53.24,0,0,0,15.51-14.65,82.61,82.61,0,0,1-11,13.32l10.09-8.83a76.49,76.49,0,0,1-11.58,10.44,47.84,47.84,0,0,1,14.87-8.84,33.15,33.15,0,0,1-12.27,7.84,41.11,41.11,0,0,1,12.48-4.18,64,64,0,0,0-9.2,4.84A29.48,29.48,0,0,0,361,48.56a54,54,0,0,1-8.24,7.61l8.14-4.78a20.51,20.51,0,0,1-7.3,5.16l8.08-3.27q-1.73,1.38-3.44,2.77a19.58,19.58,0,0,0,10.59-9,27.8,27.8,0,0,1-5.54,8.74,25.65,25.65,0,0,0,8.85-8.6,30.28,30.28,0,0,1-7,9.72,28.92,28.92,0,0,1,6.6-4.38A15.56,15.56,0,0,1,366.59,57l3.15-1.47a4.09,4.09,0,0,1-2.89,2.78,39.16,39.16,0,0,0,10.61-5.81l-4.89,3.7A40.66,40.66,0,0,0,380.22,51a17.22,17.22,0,0,1-5.93,5.32l4.95-2.49a10.77,10.77,0,0,1-4,2.88,12.07,12.07,0,0,1,6.58-1.44,13.56,13.56,0,0,0-4.2,1.92L392.42,53a23.55,23.55,0,0,1-6.7,3.85,37.12,37.12,0,0,0,9.24-4.1l-4,3.1,6.44-3.13a29.7,29.7,0,0,1-5.65,4.78C404.9,61.62,420,59.21,430,49.57l-4.21,5.36a31.7,31.7,0,0,1,11.37-6.43A29.68,29.68,0,0,0,428,55.63a57.33,57.33,0,0,1,11.88-5.33l-1.49,1.07a29.19,29.19,0,0,0,6-3.88,18.14,18.14,0,0,1-8.55,8.18A32.93,32.93,0,0,0,451,44.53l-8.27,10.8a31.63,31.63,0,0,0,10.81-10.64,35.49,35.49,0,0,1-9.48,10.67A52.09,52.09,0,0,0,455,47.53a25.46,25.46,0,0,1-8.3,7.59,54.56,54.56,0,0,1,7.88-4.36l-4.33,4,2.91-1.4L449.79,56a45.75,45.75,0,0,0,12.29-9.58,46.67,46.67,0,0,1-8.19,8.77,71.4,71.4,0,0,1,8.86-5.95,45.47,45.47,0,0,1-8.26,7,6.33,6.33,0,0,1,3-1.5,7,7,0,0,1-4.27,3.28,60.44,60.44,0,0,0,13.06-6.35L460,56.62l5.23-2.15-4.12,2.86L471,52l-6,4.19a36.33,36.33,0,0,1,10.52-3.89,14.92,14.92,0,0,0-8,4.63,34.66,34.66,0,0,1,11.18-3.53,20.1,20.1,0,0,0-6.59,2.75A31.27,31.27,0,0,1,481.26,54a17.72,17.72,0,0,0-5.71,1.77,39.21,39.21,0,0,0,13.13-5.43,37.28,37.28,0,0,1-9.3,5.77,83,83,0,0,0,12.27-6.2,35.36,35.36,0,0,1-6.57,5.32,84.91,84.91,0,0,0,10.48-6.48l-9.9,8.55a26.46,26.46,0,0,1,8-4.62l-4.74,4L499.47,51,493,56.36a11.19,11.19,0,0,1,4.38-2.55,12.53,12.53,0,0,1-5.19,3.56l12.07-4.21a21.64,21.64,0,0,1-7.3,4.12,15.7,15.7,0,0,1,5.25-1,4.2,4.2,0,0,1-3.06,1.22l4.08-.19-2.66.91c5.32-1.83,8.89,1,13.93-3.78l-2.14,3.63a8.87,8.87,0,0,1,3.63-1.5A2.76,2.76,0,0,1,514.2,59a6.09,6.09,0,0,1,4-.83L515.37,60l4.26-.48a11.2,11.2,0,0,1-4.28,2.71A24.87,24.87,0,0,0,529,56.38l-3.26,3.56,6.61-4.19a5.32,5.32,0,0,1-2.46,3.55c3.92-2,11.94-1.22,14.86-4.86l-2.11,2.63c3.08-.32,5-4.4,3.34-7a10.19,10.19,0,0,1,2.45,5.68,14.9,14.9,0,0,0-.36-7.78l2.44,6.69a25.6,25.6,0,0,0-3.15-12.32,40,40,0,0,1,5.15,12.41A44.85,44.85,0,0,0,550,41.43a36.79,36.79,0,0,1,4.17,13l1-10.73-.09,8.8a21,21,0,0,1,4.54-10.91,39.21,39.21,0,0,1-4.57,10.79l8-6.89q-2.81,4.21-5.62,8.44l8-6.5a62.44,62.44,0,0,0-5.62,8.31A72.45,72.45,0,0,0,569,47.43a12.46,12.46,0,0,0-4.12,7.93,13.86,13.86,0,0,0,4.07-4.28,4.58,4.58,0,0,0-.75,5.87,19.23,19.23,0,0,0,4.06-9.11,13.13,13.13,0,0,0-.4,7.89,25.71,25.71,0,0,1,6.6-11.07L575.16,52l6-4.57a14.38,14.38,0,0,1-4.8,5.9,17.74,17.74,0,0,1,6.74-3.63,17.71,17.71,0,0,1-4.91,4.85l8.07-4.05-4.67,4.55a19.72,19.72,0,0,0,5.52-3,4,4,0,0,0-1.06,3.39,19.46,19.46,0,0,0,8.13-9.94c-.62,2.51-1.23,5-1.85,7.54A40.63,40.63,0,0,0,597.94,45a22.67,22.67,0,0,1-3.68,8.07,12.3,12.3,0,0,1,5.49-3.56,9.71,9.71,0,0,1-3.85,5.38,6.16,6.16,0,0,1,5.42-2,9.42,9.42,0,0,1-4,3.35,24.53,24.53,0,0,1,10.83-2.82,13.23,13.23,0,0,1-5,3.2,145.81,145.81,0,0,0,15.56-6.35l-10.5,7a44.34,44.34,0,0,0,18.32-9.72L613.91,56.2a46.38,46.38,0,0,0,18-10.14A80.47,80.47,0,0,1,619.37,55a73.29,73.29,0,0,1,12.49-5.19,38.6,38.6,0,0,1-10.18,5.6,60.84,60.84,0,0,1,10.79-3.86l-6.68,4.23a49,49,0,0,0,14.58-7.34,114.41,114.41,0,0,0-10.24,7.73A34.63,34.63,0,0,0,647.79,41,42.11,42.11,0,0,1,636,54.42a68,68,0,0,0,17.69-14.51A56.82,56.82,0,0,1,641.33,54l13.2-9a38,38,0,0,1-13.27,10.32l17-7.1-14.43,9.38a38.46,38.46,0,0,0,19.4-13.16,46.65,46.65,0,0,1-12.48,12L665.15,48a29.82,29.82,0,0,1-12.81,8.86,73.78,73.78,0,0,1,14.7-6,40.73,40.73,0,0,1-10.28,6l8.61-.73-4,1.12A32.14,32.14,0,0,0,674.27,53l-6,4.32L676.9,53l-4.51,3.64a21.53,21.53,0,0,1,5.69-2.75l-4.19,3.53a17.42,17.42,0,0,1,7.55-1.92l-2.94,1.32,7.12-.56-2.85,1.84a24.47,24.47,0,0,0,9.16-2.84,6.07,6.07,0,0,0-3.34,2.76A19.31,19.31,0,0,0,697,51.56l-2.88,3.77A35.78,35.78,0,0,0,701,49.8a18.65,18.65,0,0,1-7.23,7.58l9.61-4.77a13.22,13.22,0,0,1-5.54,3.87A16.13,16.13,0,0,0,710.21,50a23.1,23.1,0,0,1-5.89,6.3l6.44-2.86a6.94,6.94,0,0,1-3.12,2.8,49.38,49.38,0,0,1,9.79-3.12l-4.15,2.47,2.34-.65a8,8,0,0,1-4.31,1.78l5.78-1L714,57.67a30,30,0,0,0,10.6-4.23l-3.09,3.15,6.7-4.51a11.51,11.51,0,0,1-4.85,5.15,12.86,12.86,0,0,1,5.3-1.37,6.57,6.57,0,0,1-2.55,2.21c.8.41,1.72-.17,2.46-.68s1.79-.94,2.45-.33-.81,1.82-1,.94c1.65-.44,21.46,1,21.46.56Z"/><path class="cls-3" d="M751.47,208.07H1.47V169c0-17.28-1.35-34.55-1.35-51.85A7.2,7.2,0,0,1,1,112.7c1-1.31,2.65-1.81,4.22-2.23,4.53-1.19,8.74-2.53,13.25-3.37a3.23,3.23,0,0,0-1-1.51l3.17.49-2.45-2.41,2.54.42L17.73,98.6a9.88,9.88,0,0,1,4.12,2.89c-.41-1.59-.81-3.19-1.22-4.79l3.5,5.14a53.1,53.1,0,0,1,.38-5.5,7.34,7.34,0,0,1,2,4,20.59,20.59,0,0,1,2.27-7.7,7,7,0,0,0,2.74,8.18c.18-.8-.57-1.47-1-2.17s-.12-2,.67-1.78a1.21,1.21,0,0,1,.52.38q2,2.11,4,4.21c.11-1.53.23-3.07.34-4.6l1.62,3.46a5.25,5.25,0,0,0-.87-4.31c3.34,7.86,16.85-.57,18.29,3l-.95-2.37,2.78,1.4A8.48,8.48,0,0,1,55.53,95l4.23,2.32L57.39,93l6,2.06c-.13-.78-.25-1.56-.38-2.34a3.27,3.27,0,0,1,2,1.42L61.7,88.79a7.8,7.8,0,0,1,3.83,3.85,7.71,7.71,0,0,1-1.12-4.59,9.86,9.86,0,0,1,3.88,4.56,5.89,5.89,0,0,0,.12-2.86,8.93,8.93,0,0,1,1.75,3.72A10.5,10.5,0,0,1,71.4,86a10.26,10.26,0,0,0,3.47,7.85c.48.42,1.36.72,1.62.14l0-2.67a3.16,3.16,0,0,0,1.25,1.21,3.68,3.68,0,0,0-.36-2.66c2.31,0,4.25,2,6.57,2.22,1.82.16,3.86-.6,5.69-.76,6-.53,12.29-.1,18.36-.36,11.66-.49,23.79-3.23,35.38-3.06-13.3-.19-27.67,1.14-40.83-.68-5.2-.71-17.24-6.17-22-2.29a4,4,0,0,1,3.71-.53c-.56-.5-1.26-2-2.1-2.65.09-.26,1.33-2.18,1.32-2.2.38.6.75,1.2,1.12,1.8l1.42-3.6.74,3.57c.58.31.88-.69.86-1.35a4.82,4.82,0,0,1,2.35-4.21,6.27,6.27,0,0,0-1.28,5.66,35,35,0,0,0,3.45-3.75A13.68,13.68,0,0,0,90.85,82a7.75,7.75,0,0,0,3.37-3.67,2.65,2.65,0,0,0-.39,3.53,3.63,3.63,0,0,0,1.23-3.09,2.24,2.24,0,0,0,2.15,2c0-.35,0-1.38,0-1.84,3.71,2.78,8.7,2.24,10.77-2.54a4.39,4.39,0,0,0-.28,3.79,8.46,8.46,0,0,0,2.66-4.24L110,79.86a31.83,31.83,0,0,0,3.41-3.92l-2.09,3.66a7.43,7.43,0,0,0,4-6.95,6.8,6.8,0,0,0,.66,5.13,21.66,21.66,0,0,0,1.17-6.22,4.94,4.94,0,0,0,1,4.88,9.81,9.81,0,0,1,3.14-5.65L120,74.85A14.37,14.37,0,0,1,124.1,72a12.43,12.43,0,0,1-2.94,3.7l4.4-2.12A6.09,6.09,0,0,1,122.25,77a11.41,11.41,0,0,1,4.58-2.07,5.81,5.81,0,0,0-2.26,2.22l2.78-.91a1.4,1.4,0,0,0,1,1.63,14,14,0,0,0,3-6.29,5.6,5.6,0,0,0-.68,4.32,12.19,12.19,0,0,0,3.59-8,26.68,26.68,0,0,0-1.41,6.49,72.64,72.64,0,0,0,6.25-6.88q-2.41,3.45-4.82,6.91a33.55,33.55,0,0,1,7.45-3.8,20.09,20.09,0,0,1-5.52,4.66,22.4,22.4,0,0,1,6.85-2.46,7.61,7.61,0,0,1-3.77,2.33l4.29-1.17A3,3,0,0,1,141,75.78c3.25,0,6.82-1.73,9.36-3.63l-1.71,2.53a16.77,16.77,0,0,1,6.06-1.61,2,2,0,0,1-1.4,1.11,14.45,14.45,0,0,1,6.12-.64.76.76,0,0,1-.81.78c4.71-1.09,9.31-.19,14-.69,3.79-.4,7.15-1.55,11-1.8,10-.66,20.19-1.59,30.19-1.59a22.32,22.32,0,0,0-5.94.26l2.17-.68-2.66-.3a7.17,7.17,0,0,0,3.36-2.15L199,70.46a12,12,0,0,1,3.63-2,15.17,15.17,0,0,1-5.3.84l1.55-1-6.66,1.5,2.69-1.48c-3.16,1-10.73,3.09-12.8.6-2.45.15-5.75-1.17-8-.82,3.4-.55,6.94-1.82,7.8-5.62a2.16,2.16,0,0,0,.55,2.54,15.09,15.09,0,0,1,2.83-4.07,8.45,8.45,0,0,0-1.22,3.13l4.59-2.59L185,65l6.41-3.2A7.78,7.78,0,0,1,188.8,64l4.3-1.35a3.53,3.53,0,0,1-2,1.66c11.67-.17,24.54-2.49,35.82-5.45l-6.07,3.21,4.61.2-3,1.07c10.19-3.68,25.31,1.56,33.45-7.74A19.16,19.16,0,0,1,253.47,58l4.34-1.4a3.32,3.32,0,0,1-1.55,1.75,11.19,11.19,0,0,1,5.32-1.86l-1.6,1c3.42-2.11,11.39.57,15.22.62,7.6.12,14.66-.26,21.77-3.31a6,6,0,0,1-3.1,3.12c3.78-.18,7.09,2,10.91,2.52,4.67.65,9.46.18,14.14,0,12.22-.6,24.46.23,36.66,1.07l-2.52-1.8a8.25,8.25,0,0,0,7.31,1.15l1.33.71a30.2,30.2,0,0,1,9.25,0,63.79,63.79,0,0,1-15.82,4.28L363,66l-15.14,2.7a126.16,126.16,0,0,0,33-1.19l-5.05-1.34a75.54,75.54,0,0,0,36.75-2l-2.95,1.29,9.42-.11a97.63,97.63,0,0,1-15.43,4.49l31.08-4-6.27,1.28c13.15-.44,26.34-.88,39.32-3,10.2-1.67,20.68-4.36,30.71-1.85l-5.54,1.36c.81.58,1.62,1.16,2.42,1.75a95.74,95.74,0,0,1-22.83,3.44A30.31,30.31,0,0,0,492.68,67l-5.57,2.86a12,12,0,0,1,6.71-.14l-2.65,1.18L503.87,67l-5.06,4.25L509,67.88a36.81,36.81,0,0,1-9.54,5A127.06,127.06,0,0,0,517.79,67l-9.53,5.6a36.81,36.81,0,0,1,13.45-4.89,48.56,48.56,0,0,1-9.86,4.92,24.09,24.09,0,0,1,9.54-2.29l-8.31,3.33,23.12-3.53c-.75.12-5.78-3.28-6.61-3.64.86-1,1.81-1,3.09-.74a35.25,35.25,0,0,0,24-3.93,5.7,5.7,0,0,1-.76,4,15.89,15.89,0,0,1,5.69-2.51,5.55,5.55,0,0,1-2,3.75l12.35-6.67-8.08,7.78,15.83-8.36-4.77,5.95,9-6.51-6.93,7a33.08,33.08,0,0,1,11.74-6.58,46.65,46.65,0,0,1-9.5,6.42,70.1,70.1,0,0,0,13-6.19,27.92,27.92,0,0,1-10.46,8l14-6a23.07,23.07,0,0,1-11,7.11,41,41,0,0,0,16.11-9,22.12,22.12,0,0,1-8.34,8.15L602.14,62l-2.65,3.93a29.86,29.86,0,0,0,6.62-6.22l-2.76,5.88L609,59.81a19.54,19.54,0,0,1-6,7l3.95-2.09a11.26,11.26,0,0,1-4.66,5.11,49,49,0,0,0,11.61-6.16l-1.23,2.89L620,61.88l-4.57,4.7a16.8,16.8,0,0,0,7.71-3.25l-4.59,4.09,8.67-3.6a4.33,4.33,0,0,1-3.27,2.52l4.73-.45a9.59,9.59,0,0,0-4.09,2l6.26-.79a5.8,5.8,0,0,0,5.29-3.8c-1.41.24.89,2.14,1.83,1.07s1.34-3,2.77-3l-1.39,4.18,4.56-5a11.76,11.76,0,0,0-2.75,5l5.45-4.49c-1.68,2-3.37,3.91-5.05,5.86l7.19-4.38a20.66,20.66,0,0,1-5.87,4.9,13.16,13.16,0,0,1,5.27-1.23,11.58,11.58,0,0,1-4.35,2.54c1.18.57,2.51-.32,3.55-1.13s2.48-1.57,3.56-.82-.59,2.9-1.18,1.73L659,62.87l-5.87,6a44.07,44.07,0,0,1,20.57-3.71l-20.87,8.75,5.78.54-4.69.7a90.36,90.36,0,0,0,25.92-3.87l-2.93-1.56L695,67.2l-11.12-2.4,22.17-2.42-5.21,2.73c1.23,0,2.62.07,3.44,1s.15,2.87-1,2.58c3.74.93,11.89-2.46,16.16-2.63a68.1,68.1,0,0,1,19.24,2c12.17,3,12.79,5.22,12.79,16.56V208.07Z"/><path class="cls-4" d="M349.57,125.68q-4.72-19.31-9.44-38.61C338.88,82,337.47,76.59,333.64,73s-10.9-4.17-13.8.19c-1.39,2.09-1.52,4.73-2.13,7.16s-2.13,5-4.62,5.35c.53-.1-13.68-67-14.63-71.79a19.35,19.35,0,0,0-1.62-5.33c-2.39-4.46-7.75-6.26-12.61-7.66C282.15.32,280-.28,277.85.22a12.5,12.5,0,0,0-4.93,3l-12,10a21.89,21.89,0,0,0-5,5.24,22,22,0,0,0-2,4.91c-6.63,21.48-4.59,42.68-11,64-3.38,11.23-7.22,23.17-16.4,30.47-2.94,2.34-2.35,2-2.73,5.74,13.57-1.64,26.33,6.17,39.71,9,8.81,1.83,17.9,1.47,26.89,1.1,19-.81,38.12.07,56.73-3.45a3.59,3.59,0,0,0,2.35-1.08,3.64,3.64,0,0,0,.15-3Z"/><path class="cls-5" d="M342.5,125.7a25.78,25.78,0,0,0-.72-5.49q-4.17-18.28-8.35-36.56c-.89-3.87-2.79-8.61-6.75-8.68-3.61-.06-5.78,3.88-7,7.27S316.56,89.62,313,90c-4.21.41-6.74-4.45-8-8.48-2.44-7.63-4.76-15.35-5.65-23.32s-.33-16-2.37-23.7c-1.87-7-5.88-13.61-6.23-20.89-.15-3.19.31-6.76-1.73-9.22-2.48-3-7.25-5.06-11.11-4.14a12.5,12.5,0,0,0-4.93,3l-12,10a21.89,21.89,0,0,0-5,5.24,22,22,0,0,0-2,4.91c-6.63,21.48-4.59,42.68-11,64-3.38,11.23-7.22,23.17-16.4,30.47-2.94,2.34-2.35,2-2.73,5.74,13.57-1.64,26.33,6.17,39.71,9,8.81,1.83,17.9,1.47,26.89,1.1,12-.51,24-.34,36-1,3.16-.19,10.85.79,13.54-.76C342,130.66,342.51,128.21,342.5,125.7Z"/><path class="cls-6" d="M334.26,125.26c1.35-6.86-.17-16.17,3.33-21.69a2.84,2.84,0,0,0,.61-1.57,2.89,2.89,0,0,0-.83-1.54A15.23,15.23,0,0,1,334,91.68c-.19-3.62-6.26-4-8.36-1.81-1.67,1.73-2.09,4.31-2.11,6.71a5,5,0,0,1-1.56-4.81,15,15,0,0,1,1.2-2.76,15,15,0,0,0,1.37-7.88,15.21,15.21,0,0,0-4.39,1.24,38.42,38.42,0,0,1,4-6.87c1.4-1.94,3.65-3.93,5.89-3.1a2.93,2.93,0,0,0-2.57-2,6.86,6.86,0,0,0-3.35.65c-4.83,2-5,5.16-6.23,9.67a7.88,7.88,0,0,1-1.42,3.19,2.67,2.67,0,0,1-3.17.78A3.79,3.79,0,0,1,311.89,83c-2.61-5-5.09-13.43-9-17.36-3.68-3.72-8.41,2-12,.11a5.4,5.4,0,0,1-2.06-2.6c-1-2-3.69-10.2-6.41-5.16-1.14,2.12-2.4,4.15-3.63,6.22-1.2-5,1.75-9.85,3.51-14.36.92-2.36,1.86-4.87,1.4-7.36-.18-1-.6-2-.77-3a11.36,11.36,0,0,1,.95-5.72c1.12-3,2.6-5.81,3-8.93.39-2.75-.58-4.41-1.43-6.84-.08-.22-2-6.22-.84-5.78-1.17-.45-2.27.73-3,1.76l-6.42,9.56a28.75,28.75,0,0,0-3,5.26c-1.15,2.85-1.39,6-2.16,8.93-1.23,4.73-3.8,9-6.32,13.17-.88,1.44-2.48,3.09-3.93,2.25,3.33-4.53,6.75-9.24,7.85-14.75.63-3.13.47-6.39,1.26-9.49,1.31-5.17,5.07-9.31,7.57-14A10.15,10.15,0,0,0,278,9.44a4.44,4.44,0,0,0-3.3-4.13c1-1.61,1.95-3.22,2.93-4.82-8.12,3.85-13.84,11.3-19.24,18.48A10.15,10.15,0,0,0,256,25.29c0,2.08,1.71,2.27-.35,4.31a12.36,12.36,0,0,0-3.62,8.86,11.26,11.26,0,0,1-.17,3.76C250,48.08,250,54.76,248.47,60.81a23.94,23.94,0,0,1,3.67,12.24l-3.63-1.51a29.51,29.51,0,0,1-2.82,8.88c1.47,0,2.36,1.82,2.07,3.26a11,11,0,0,1-2.13,3.84,16.15,16.15,0,0,0-2.74,8.75c-5.48,2.88-6.92,10.77-8.34,16.35,2.77-1.09,4.53-3.92,7.24-5.16,3.52-1.62,7.61-.19,11.2,1.25a25,25,0,0,1-1.73,9c1.89,1.82,3.94,4.06,3.59,6.65-.32,2.36-2.56,4.05-4.39,5.27,4,2.47,11.72,2.79,16.4,3.5,7.79,1.18,15.73.83,23.57.51,11.05-.45,21.9.1,32.84.34C330.67,134.11,333.26,130.36,334.26,125.26Z"/><path class="cls-4" d="M710.55,135.34a77.64,77.64,0,0,0,9.18-2.61,3.67,3.67,0,0,0,3-5.17q-1.1-5.78-2.18-11.56c-.69-3.68-1.68-7.8-4.9-9.69-3.56-2.09-8.14-.45-11.6,1.81s-6.75,5.17-10.83,5.73L681.33,96.27c-2.69-4-5.7-8.22-10.26-9.71-5.24-1.71-11,.71-16.42.09C643.48,85.38,636.93,72.38,626,69.77c-6.28-1.5-13,.82-18.17,4.67-15.77,11.75-26.73,26.68-36.75,43.48,1-1.75,69.21,15.27,76.41,16.26C667.64,137,690.3,139.79,710.55,135.34Z"/><path class="cls-5" d="M710.13,134.83c2.84-.38,5.68-.7,8.56-.91a2.65,2.65,0,0,0,1.39-.36c.8-.57.74-1.75.57-2.71a77,77,0,0,0-4.52-16c-4.8-11.88-6.27-9-18-4a10,10,0,0,1-2.86.89c-8.06.83-17.12-14-21.24-19.14-7.34-9.23-18.49.86-27.32-3.24-4.29-2-6.87-6.36-10.3-9.61s-9.26-5.29-12.67-2c-10.78-24.44-47.58,31.84-52.68,40.23,1.06-1.75,69.21,15.27,76.41,16.26,12.26,1.65,24.55,3.34,37,3.34C693.22,137.52,701.62,136,710.13,134.83Z"/><path class="cls-6" d="M710.61,135.49c3.47-1.19,6.29-3,7.61-5.89,1.9-4.14.55-9.34-2.66-12.57a8.39,8.39,0,0,0-3.14-2.1c-5.2-1.78-9.8,3.68-12.6,8.41a41.32,41.32,0,0,0-19.4-7,4.61,4.61,0,0,0-3.29-6.48l3.24-1.34a7.64,7.64,0,0,0-2.1-4.4,269.46,269.46,0,0,1-32.95,14.79q15.85-9.28,31.86-18.32c-.55-4.48-5.57-7-10.07-7.32s-9,.9-13.49.26c-3.7-.54-7.21-2.33-11-2.29s-7.92,3.15-7,6.77l1.11-14.42-3.73-.64q-11.15,17.38-22.3,34.78L631.7,77.29c-.08-1.91-3.12-1.19-4.53.09q-6.48,5.91-13,11.81c.57-7.55,11.76-12.2,9.94-19.55C600,69.81,582,99.93,571.08,117.92c1.06-1.75,69.21,15.27,76.41,16.26,13.52,1.87,27.15,3.64,40.83,3.48C693.51,137.59,703.44,137.93,710.61,135.49Z"/><path class="cls-7" d="M750.06,206.68c-26.48,2.68-54.63,0-81.2,0H241.44c-33.44,0-71.09,4.91-104.14,0-6.64-1-13.85-1.76-13.54-10.57.15-4.54,2.71-8.64,5.55-12.19,9.35-11.68,22.4-19.78,35.59-26.86q9.56-5.12,19.38-9.72a459.16,459.16,0,0,1,56-21.66c6.62-2.1,13.65-3.09,20.4-4.64,7.95-1.83,15.33-5.8,23-7.34-.91-1.68-2-3.32-2.87-5a20.56,20.56,0,0,0,7.12,4.41,80.26,80.26,0,0,0-6.86-10.69,35.09,35.09,0,0,1,9.23,8.75c0-3-1.58-5.71-3.49-8s-4.19-4.21-5.94-6.61a25.55,25.55,0,0,1,12.05,13.24c-1.16-6.29-2.78-13.29-8.16-16.76-2-1.28-4.56-2.13-5.53-4.3,6.83,3.13,11.24,9.78,15.3,16.11A149.7,149.7,0,0,0,286,85.09a136.06,136.06,0,0,1,10.51,20.4c-.08-10.43-7.93-19.8-7.23-30.21a107.72,107.72,0,0,0,10,21.37A73.09,73.09,0,0,1,303,62a124,124,0,0,0-.94,40.94,166.88,166.88,0,0,1,5.14-38.59A190.07,190.07,0,0,0,304,99.57c2-14,4.24-28.59,11.92-40.53a97.38,97.38,0,0,0-6.71,32.55,56.75,56.75,0,0,1,11.54-31.28,75.34,75.34,0,0,0-8.9,27q7.53-16.44,15.07-32.9c-2.88,12-5.86,24.16-12.37,34.6l17.15-31.84a124,124,0,0,1-18.53,40c9.35-12.21,18.88-24.76,23.41-39.45A99.65,99.65,0,0,1,317.9,94.65a333.3,333.3,0,0,0,26.61-37.28,272.25,272.25,0,0,1-21.1,39.51l22.9-34.76C341.92,74,337.42,86,329.69,96c6.82-10.77,13.69-21.6,22.21-31.1-9.27,10.34-16,25.32-19.41,38.65l6.09-12.11c4.57-9.06,10-18.9,19.53-22.33A47.22,47.22,0,0,0,336.72,102a51.39,51.39,0,0,1,23.7-29.89A53.88,53.88,0,0,0,338,102.59a67.84,67.84,0,0,1,22.8-27.45,60.1,60.1,0,0,0-20.34,27.48,80.27,80.27,0,0,1,20.06-23.71,67.46,67.46,0,0,0-18.25,24.2,75.15,75.15,0,0,1,17.2-18.59,93.68,93.68,0,0,0-15,18.71A185.73,185.73,0,0,1,359,88.55a68.31,68.31,0,0,1-10.86,13.69,68.8,68.8,0,0,0,12.48-11.93,35.58,35.58,0,0,1-11.17,13.35,87.48,87.48,0,0,0,16.16-15,71.86,71.86,0,0,1-11.25,15.2l12.83-11.08a101.07,101.07,0,0,1-10.82,12.11,76.66,76.66,0,0,1,13.25-9.2l-8.86,8.1,9.34-6.31a13.45,13.45,0,0,1-3.44,4.21c4.2-3.3,10.78-4.1,15.47-7.26a18.86,18.86,0,0,1-8.67,6.85,29.31,29.31,0,0,1,9.72-4l-7,4.46a132.25,132.25,0,0,0,23.61-17A49.55,49.55,0,0,1,387,98.2a193.06,193.06,0,0,1,16.72-12.43,44.75,44.75,0,0,1-11,9.26A49.85,49.85,0,0,1,407,86.4a40.81,40.81,0,0,1-13.58,9c10-5.4,20.63-12.52,22.84-23.63a39.53,39.53,0,0,1-19.6,23.94,67.86,67.86,0,0,0,27.16-28.55,45.2,45.2,0,0,1-17.22,24.78,82.82,82.82,0,0,0,22.92-27.07,65,65,0,0,1-11.85,20.87,151.56,151.56,0,0,1,21.63-24.06A169.67,169.67,0,0,0,417,88.7a98.69,98.69,0,0,1,28.11-26.25,86.85,86.85,0,0,0-26.89,26.06,250.55,250.55,0,0,1,31.75-27.25C442,69.62,434,78.05,424.49,84.52q12.42-8.22,24.4-17.06a245.33,245.33,0,0,1-22.68,18A111,111,0,0,0,453.84,63,88.38,88.38,0,0,1,425.56,87.9,120.28,120.28,0,0,0,458.88,62c-7.83,9-17.45,16.25-27,23.42a125.3,125.3,0,0,0,27.63-20,106,106,0,0,1-22.38,20,140.22,140.22,0,0,0,28.5-21.75A155.29,155.29,0,0,1,432,89.93l25.5-15a57.73,57.73,0,0,0-21.06,18.5,108.93,108.93,0,0,1,26.7-20.13A88.65,88.65,0,0,0,444,90.85a66.35,66.35,0,0,0,15.23-13,42.48,42.48,0,0,1-14.68,14,79.09,79.09,0,0,0,14.58-10.18,54.12,54.12,0,0,1-15,11.46l14.16-8a60.3,60.3,0,0,1-10.17,7.51A130.17,130.17,0,0,0,464.43,80.9a54.1,54.1,0,0,1-11,10.68,73.29,73.29,0,0,0,16.44-14.49A62.72,62.72,0,0,1,457.58,92.2a242.71,242.71,0,0,1,19.31-16.94L460.73,92.32a116,116,0,0,1,17.94-13,70.85,70.85,0,0,0-13.23,11.52l14.48-9a35.31,35.31,0,0,0-10.24,9l11.75-7.1L473,90.27c3.86-3,14.43-1.34,19-1.47a29.3,29.3,0,0,0,17.25-6.57,30,30,0,0,1-7.8,6.66,32.87,32.87,0,0,1,9.31-4.21L502,89.6a25.54,25.54,0,0,1,8.85-3l-6.49,4A42.31,42.31,0,0,0,521,79.13Q518.18,83,515.38,87a119.57,119.57,0,0,0,15-18A112,112,0,0,1,517,87.46a118,118,0,0,0,20.92-24.6,138.74,138.74,0,0,0-11.54,19.89,67.83,67.83,0,0,1,17.25-20,200.94,200.94,0,0,0-18.88,21.82,182.26,182.26,0,0,1,20.39-19.09,177.13,177.13,0,0,1-18.31,18.24,158.62,158.62,0,0,0,20.55-16.81,72.71,72.71,0,0,1-21.47,20,152.73,152.73,0,0,0,29.14-21.73,112,112,0,0,1-22.89,19.89A164.33,164.33,0,0,0,560.5,63.63a100.4,100.4,0,0,1-27.4,22.28,165.05,165.05,0,0,0,32.16-21.23,100,100,0,0,1-29.61,21.9c12.07-5.89,24.4-12,33.82-21.53A93.4,93.4,0,0,1,536,89.28a151.09,151.09,0,0,0,36-19.79,211.66,211.66,0,0,1-32.93,22.69,135.3,135.3,0,0,0,33.58-18.79A188.5,188.5,0,0,1,544.8,92.15a159.32,159.32,0,0,0,25.45-14A70,70,0,0,0,550.7,94.79l16.61-13.42a68,68,0,0,0-14.22,16.31l10.79-10.45-8.28,10a66.67,66.67,0,0,1,9.92-7.88,24.57,24.57,0,0,1-8.89,8.82A102.46,102.46,0,0,0,571.9,86.86a63.67,63.67,0,0,1-10.09,11l17-13.49A67,67,0,0,1,564.85,98,124.32,124.32,0,0,0,580.68,85.8a50.25,50.25,0,0,1-12.51,13.33,58.09,58.09,0,0,1,10.72-6.65,41.91,41.91,0,0,0-10.08,10.2,91.36,91.36,0,0,1,15.35-10.09,52.19,52.19,0,0,0-9.1,10.3,62.26,62.26,0,0,0,18-17.51,126.23,126.23,0,0,1-13.65,17.34,86.8,86.8,0,0,0,18.41-25.39,59,59,0,0,1-12.36,22.91,81.82,81.82,0,0,0,14.93-21.72,83.49,83.49,0,0,1-14,23.23q7.74-9.3,15.49-18.61a53.46,53.46,0,0,1-12.49,18.34,93,93,0,0,1,17.09-14.72,50.34,50.34,0,0,0-15.08,15.7A54.72,54.72,0,0,1,607.5,90.55a45.33,45.33,0,0,0-13.8,13.22,47.18,47.18,0,0,1,15.52-9.64A30.37,30.37,0,0,0,597.33,105,31.05,31.05,0,0,1,608.77,98a24.82,24.82,0,0,0-9.16,7.25,36.37,36.37,0,0,1,9.22-4l-7.34,5.28a33.76,33.76,0,0,1,10.09-2.33l-5.68,2.57,8.32-.38-3.68,1.71,13.28-5.66a83.47,83.47,0,0,1-9.27,6.79,75.15,75.15,0,0,0,16.91-12.58,56.73,56.73,0,0,1-14,12.73,128.06,128.06,0,0,0,17.38-12,60.57,60.57,0,0,1-14.16,12.46,83.51,83.51,0,0,0,13.14-8.29c-3.25,4.16-7.47,7.2-11.76,10,6.36.77,13.25-4.4,18.59-7.37l-12.49,7.87,19.75-7.4A42.74,42.74,0,0,1,631,113.31l22.09-6.85c-1.39,2.57-4.41,3.7-7.19,4.59q-7.42,2.4-14.94,4.48a322.63,322.63,0,0,0,31.95-7.94,151.39,151.39,0,0,1-21.47,10L663.7,111a42,42,0,0,1-18.79,8.23l18-5.52a69.19,69.19,0,0,1-18,7.64l15-4.5c4.82-1.45,9.86-3,13.35-6.65a61,61,0,0,1-20.73,13.93l14.65-5.47a22.24,22.24,0,0,1-10.43,4.59l8.74,1.19a5.6,5.6,0,0,0-4.89,2.14c8.18,2.37,16.32,4.67,24.4,7.37,19.53,6.1,40.56,15.29,55,30.16,8.68,8.95,10,14,10.47,26.08C750.56,191.09,750.84,206.6,750.06,206.68Z"/><path class="cls-8" d="M646.85,193.44c-1.51,13.43-14.11,13.26-24.75,13.24-16.28-.05-32.55,0-48.82,0H241.44c-33.44,0-71.09,4.91-104.14,0-6.64-1-13.85-1.76-13.54-10.57.15-4.54,2.71-8.64,5.55-12.19,9.35-11.68,22.4-19.78,35.59-26.86q9.56-5.12,19.38-9.72a459.16,459.16,0,0,1,56-21.66c6.55-2.08,14.91-4.66,21.76-4.51,7.63.17,15.46,2.75,23.24,3a126.31,126.31,0,0,0,47.68-7.49l4.31-4.14c-.95.66.35,2.28,1.45,1.93s1.6-1.59,2-2.69c-.71-1.13-1.31,1.71,0,1.69s2.35-1.4,3.68-1.45.88,2.8.1,1.72l10.9-3.51-3.3,3.54,9.58-4.4-2.55,3.4,6.54-3.34-3,3.38a6.27,6.27,0,0,1,4.87-.75,16.57,16.57,0,0,1-6.32,3.71,31.11,31.11,0,0,0,18.74-11.86,11,11,0,0,1-6.16,7.58l9.93-6.09a14.16,14.16,0,0,1-8.79,7.89,45.89,45.89,0,0,0,19.63-12.88,20.35,20.35,0,0,1-10.34,11.43l6.67-2.81a13.1,13.1,0,0,1-6.69,4.52l4.74-1.5c-1.64,1.65-3.29,3.29-4.94,4.94a18.8,18.8,0,0,0,11-5.49l-1.87,4.83,6.4-4.72c-.65,1.79-1.31,3.58-2,5.36q4.94-5.44,9.86-10.91-1.44,3.42-2.89,6.86a47.68,47.68,0,0,1,8.86-8.52,11,11,0,0,1-3.36,5.09,12.42,12.42,0,0,1,5.62-2.87A36.49,36.49,0,0,1,404.4,117a30.78,30.78,0,0,1,10.3-4.19,30.87,30.87,0,0,1-9.09,7.08,42,42,0,0,0,20.5-11.74,60,60,0,0,1-9.93,11L429.81,110l-10.22,9.62a15.67,15.67,0,0,1,10.6-5.23,32.43,32.43,0,0,1-10.64,7.37,25.89,25.89,0,0,1,10.86-3.2,11.24,11.24,0,0,1-8.67,4.87l10.78-4.49c1.32-.55-.16,1.87-1.54,1.49a27.26,27.26,0,0,0,10.66-11.1c-1.24,2.54-2.47,5.08-3.71,7.63a60.51,60.51,0,0,1,9.91-11,26.65,26.65,0,0,1-4.65,7.81l11.39-9.28a11.15,11.15,0,0,1-6.9,8.58,32.21,32.21,0,0,1,11.44-6,26.5,26.5,0,0,1-10.56,8L460.28,110a16.07,16.07,0,0,1-7.72,6.3,29.83,29.83,0,0,1,9-4A16.8,16.8,0,0,1,454,117a22.85,22.85,0,0,1,9.29-2,16.06,16.06,0,0,1-9,5.16l7.19-1.24a9.07,9.07,0,0,1-6.49,4.32,5.73,5.73,0,0,1,6.21-.54L453.36,126l6,0a16.53,16.53,0,0,1-8.64,3.94c1.12-1.09,3,1,2.28,2.39s-2.45,1.85-4,2.13l11.11-4.22c.79-.3,1.78-.56,2.4,0s-.37,1.92-.87,1.24a62.85,62.85,0,0,0,14.1-14.78l-3.9,7.81,10.67-10-3.27,5.15,12.54-8.32a18,18,0,0,1-4.9,5.63l8.29-3.61a27.16,27.16,0,0,1-6.73,4.92l7.95-2.69A37.65,37.65,0,0,0,480.54,129a68.7,68.7,0,0,1,26.51-14.14l-15.87,8.51a49.67,49.67,0,0,0,24-13.94,51,51,0,0,1-17.28,16.79l15.74-10.29a59.38,59.38,0,0,1-10,10.06,10.74,10.74,0,0,1,6.15-3.21,18.18,18.18,0,0,1-8.84,6.75,62.68,62.68,0,0,0,18.67-13.91L509.24,129a88.2,88.2,0,0,1,15.93-11.91l-9.94,10.4a78.55,78.55,0,0,1,20.17-12.8,71.9,71.9,0,0,1-13.07,10.09l17.75-8.67a36.2,36.2,0,0,1-15.82,8l15.08-5.49a31.24,31.24,0,0,1-14.77,8.17l5.48-1.28a36.38,36.38,0,0,1-13.3,5.68,94,94,0,0,0,19-4.87,27,27,0,0,1-9.52,5.83l18.95-7.56-10.26,6.24,18.21-7.48-11.7,7.12a83.07,83.07,0,0,1,18.9-6l-10.55,5.84a41,41,0,0,1,12.9-3.37l-9.39,4a54.52,54.52,0,0,0,33.2-14.15,37.16,37.16,0,0,1-16.94,12.23l10.82-2.78-7.31,4a1.13,1.13,0,1,0,1.36.2,39.16,39.16,0,0,1-11.79,4.05l15.6-4.21-5.41,5,15.28-5.09-7.55,5.24,15.18-3.87-8,5a34.9,34.9,0,0,1,12.61-2.78l-14.2,4.95,10.09-1.3a14.43,14.43,0,0,1-7.4,3.14,23.07,23.07,0,0,1,9.95-.59,8.91,8.91,0,0,1-4.94,2.06,41.22,41.22,0,0,1,14.48,2.26,7.7,7.7,0,0,1-4.88,3.26,79.89,79.89,0,0,1,33.86,22.57c5.45,6.16,10.12,13.81,9.65,22C646.93,192.62,646.89,193,646.85,193.44Z"/><path class="cls-9" d="M751.47,208.07H1.47V177.45c0-7.35-3.25-20.91-.08-27.62,3-6.25,8.13-10.6,10.46-17.47-.14,2.12-.29,4.24-.43,6.35l3-5.09c-.42,1.65-.83,3.3-1.25,4.95a4.55,4.55,0,0,1,2.6-2.25,3.76,3.76,0,0,1-2.65,5,13.15,13.15,0,0,0,10-12.75c.4,1.8.79,3.6,1.19,5.39l2.37-8.84a11.07,11.07,0,0,1,.93,6,9.61,9.61,0,0,1,3.95-4.5,3,3,0,0,1-.95,4.34,5.16,5.16,0,0,1,4.86-2.82l-1.88,2.78c.64-.94,1.46-2,2.59-2s1.79,1.95.69,2.2a7.67,7.67,0,0,0,4.29-5.4A2.49,2.49,0,0,0,44,127.63a21.34,21.34,0,0,0,.91-8,15.85,15.85,0,0,0,2.61,6.12l.19-10.47a31.62,31.62,0,0,0,2.11,7.24,22,22,0,0,1,1.84-9.09,4.88,4.88,0,0,1,1.53,4.23,3.38,3.38,0,0,1,3.3-2.15,5.16,5.16,0,0,1-1.42,3,6.41,6.41,0,0,1,5.8-1.74q-1.26,2.08-2.51,4.18a8.2,8.2,0,0,1,5.17-2.26,5.91,5.91,0,0,0-.33,4.5,9.67,9.67,0,0,0,4.42-5.45A4.75,4.75,0,0,0,69,121.68a7.64,7.64,0,0,0,1.31-5.62L73,119.74a20.65,20.65,0,0,0,.37-8.64c1,2.41,2,4.81,3,7.22a41.27,41.27,0,0,1,1.62-10.53,10.85,10.85,0,0,1,1.25,7.08l3.91-7a10.76,10.76,0,0,1-.91,6.58,8.05,8.05,0,0,1,3.2-3.19,7.83,7.83,0,0,1-1.8,4.08A4.4,4.4,0,0,1,86.19,114a5.23,5.23,0,0,1-2.06,3.34,4.39,4.39,0,0,1,3.69-1.51l-1.39,2a16.17,16.17,0,0,0,5.39-5.21,3.53,3.53,0,0,0,1.08,2.93,11.78,11.78,0,0,0,2.35-4.45l.5,2.94,3.09-4.21c0,1.08-.09,2.16-.13,3.24l3.52-3.56-1,2.49a9,9,0,0,1,4.36-3.14c-.45,1.05-.9,2.11-1.36,3.16l4.18-2.17a3.25,3.25,0,0,1-2.11,2.2c1.3.28,2.33-1.06,3.53-1.64s3.11,1,1.94,1.69a15.24,15.24,0,0,0,5.2-5.53,2.83,2.83,0,0,0,.54,2.46,9.45,9.45,0,0,0,2.69-4.37,5.64,5.64,0,0,0,0,3.76,8.32,8.32,0,0,0,3.71-3.13,22.9,22.9,0,0,0-1.35,2.88,47.71,47.71,0,0,0,9.32-7.19,13.06,13.06,0,0,1-1.73,6,11.76,11.76,0,0,1,5.49-2.91,6.71,6.71,0,0,1-1.91,4.62,5.36,5.36,0,0,1,4.31-1.22,5,5,0,0,1-3.63,2.81,15.81,15.81,0,0,1,6.83-1.79A16.88,16.88,0,0,1,137,111l5.69-.68a3,3,0,0,1-1.67,2.37,10.22,10.22,0,0,1,6.38-.72,8.49,8.49,0,0,0,3.8-4.84,3.65,3.65,0,0,0,1.24,2.22,7.06,7.06,0,0,0,1.91-4.52,6,6,0,0,0,3.53,3.14l.18-4.56a7.62,7.62,0,0,0,3.24,4.08l-.3-5.06a6.58,6.58,0,0,1,2.36,3.55,18,18,0,0,1,1.44-6.75l.69,4.92A16.08,16.08,0,0,1,169.65,99a9.22,9.22,0,0,1-1.27,3.78q2.22-1.33,4.42-2.69c-.77,1.17-1.54,2.35-2.32,3.52a7.46,7.46,0,0,1,4-1.36l-1.87,2.49,2.7-.71a2,2,0,0,1-.48,1.84c2.05,1.61,5.59-1.06,4.6-3.47l3.23,2.17a10.19,10.19,0,0,0,1.42-4l2.2,2.1L189.14,99c.06.95.11,1.9.17,2.84l4.08-2.32c-.64.24-.23,1.35.45,1.41a2.64,2.64,0,0,0,1.59-.78c-.3.63-.36,1.51-.61,2a42.63,42.63,0,0,0,6.06-3.39l-1.86,3.5a11.38,11.38,0,0,1,5.63-2.77,8.17,8.17,0,0,1-2.67,4.47,4.4,4.4,0,0,1,4.63-.38,9.17,9.17,0,0,1-4.17,3.21l5.05-.79a5,5,0,0,1-4.23,3.44,9.58,9.58,0,0,1,6.06-.66,3.16,3.16,0,0,1-3.55,3,18.41,18.41,0,0,0,18.87-9.38,4.45,4.45,0,0,0,0,3.61,34,34,0,0,1,7.38-8l-.81,3.76a21,21,0,0,1,7-4.16,4.75,4.75,0,0,1-1.87,3.19,25.88,25.88,0,0,1,12.69-5,8.12,8.12,0,0,1-5,4.09,10.58,10.58,0,0,1,6.7-1,15.86,15.86,0,0,1-9.22,6,12.24,12.24,0,0,1,7.48-1.12,9,9,0,0,1-6.34,3.43,13.42,13.42,0,0,1,6.46-1.14,5.9,5.9,0,0,1-4.29,2.53l6.68-.9a10.15,10.15,0,0,1-5.34,3.37,7.06,7.06,0,0,1,4.86.08,6.49,6.49,0,0,1-5.6,3.25,6.1,6.1,0,0,1,4.81.89l-3.51,1.74c6.3,2.7,14.51-.87,16.83-7.32a5.1,5.1,0,0,0,.41,4.26l6.77-8q-.66,2.37-1.31,4.73l6.1-5.18-.87,3.83a6.53,6.53,0,0,1,7.09-.76,7.69,7.69,0,0,1-3.34,3.1,5.57,5.57,0,0,1,5.39.36l-3.44,2.74a3.48,3.48,0,0,1,4.12.57,8.82,8.82,0,0,1-4.34,2.12,5.85,5.85,0,0,1,4.16-.13l-2.95,2a4.44,4.44,0,0,1,3-.51c1,.32,1.59,1.76.8,2.42l7.76-5.25c.63-.43,1.49-.87,2.12-.43s-.32,1.72-.68,1a3,3,0,0,1,1.4-2c.8-.32,1.9.64,1.37,1.31l2.07-3.93,1.5,2.91.56,1.09c-.16-.72,1.05-1.16,1.45-.55a1,1,0,0,1-1,1.45,6.82,6.82,0,0,0,6.91-3.82,4.6,4.6,0,0,0,6.14-2.92c0,1.08.07,2.17.11,3.26l6.38-2.28a2.71,2.71,0,0,1-.76,2.89,6.35,6.35,0,0,1,4.66-1.8l-2.55,2.55a5,5,0,0,1,5-.29,5.28,5.28,0,0,1-4,3.07,9.46,9.46,0,0,1,5.35.1,5.36,5.36,0,0,1-3.12,2.19,84.68,84.68,0,0,1,15.36-3.27c.88-.1,2-.09,2.4.68s-1.09,1.72-1.25.85a57.51,57.51,0,0,1,10.6-1.68c.77,0,1.7,0,2.1.66s-.74,1.64-1.09,1L364,115.92a25.1,25.1,0,0,1-9.77,5.64,14.93,14.93,0,0,1,9.43-1.6,15.54,15.54,0,0,1-7.1,3,11.5,11.5,0,0,1,7.35-1.44,4.33,4.33,0,0,1-4.69,1.81l8.2,0a11.43,11.43,0,0,1-7.05,2.34,14.69,14.69,0,0,1,5.79.38l-3.49,1.44a27.41,27.41,0,0,0,13.47-4.18c-.66,1-1.31,2.1-2,3.15a30.6,30.6,0,0,1,8.06-3.11l-2.13,3.25a10.61,10.61,0,0,1,6.4-1.9,7.93,7.93,0,0,1-3.23,3.36,24.48,24.48,0,0,1,12.65-1.83,9,9,0,0,1-6,3.15A54.06,54.06,0,0,1,402.09,128a17.2,17.2,0,0,1-5.43,3.16,34,34,0,0,1,9.17-.46,20.71,20.71,0,0,1-5.35,3.63,29.2,29.2,0,0,1,8.52-1.76l-4.52,3.93a57.18,57.18,0,0,1,14-2.33l-3.52,2.32a19,19,0,0,1,10.64-1.09,13.19,13.19,0,0,1-7.55,2.24l5.44.06a3.38,3.38,0,0,1-3.92,1.7c.76.81,2.06.62,3.14.38s2.39-.42,3.13.41-.55,2.52-1.26,1.67a14.54,14.54,0,0,1,9.55,1.19l11.43-.74-6,3.37,6.73-.56a6.48,6.48,0,0,1-4.44,2.84,26.32,26.32,0,0,1,9.14-1.45,12.07,12.07,0,0,1-6.42,2.44,16.32,16.32,0,0,1,9.83.07,9.62,9.62,0,0,1-4.09,1.78l12.35-.35-3.12,1.45,8.8-.57a6.56,6.56,0,0,1-2.34,3.17,30.53,30.53,0,0,0,10.75-2.25,11.34,11.34,0,0,0-3,3.75,13.78,13.78,0,0,0,6.34-2.78c-1.21.88,1,2.26,2.51,2.07,7.33-.93,14.22-1.69,21.37-3.61q21.59-5.79,43.57-9.95c12.31-2.35,27.12-2.1,37.89-9-.69.84-1.39,1.68-2.09,2.51a14.08,14.08,0,0,0,6.72-2.84c-.37.89-.74,1.78-1.1,2.67a23.92,23.92,0,0,0,5.3-2.6l-.39,2.28a7.64,7.64,0,0,0,6.3-.29,5.22,5.22,0,0,0,2.66-5.45q1.6,2,3.19,4a2.15,2.15,0,0,1,2.56-2.23c-.94.47-.11,2.11.95,2.07s1.84-1,2.54-1.74,1.65-1.61,2.68-1.37c-.16.95-.32,1.89-.49,2.84a20.43,20.43,0,0,1,6.63-1.46c-.42.66-.84,1.33-1.27,2a7.24,7.24,0,0,0,7.42-4.72,4.85,4.85,0,0,0,2.39,2.4,10.64,10.64,0,0,1,2.65-3.24,4.57,4.57,0,0,0,.94,3.41,13.12,13.12,0,0,1,6.63-2.73,1.38,1.38,0,0,1-.6,2.16c7.15-.07,22.33,3,27.15-3.21-.13.82-.25,1.65-.38,2.47a17.17,17.17,0,0,0,5.37-2.21,4.12,4.12,0,0,1-2,2.86,8.66,8.66,0,0,0,4.81-2L672.8,131l4.53-1.91c.5,1.68,2.87,2.13,4.41,1.29s2.43-2.5,3.23-4.07c.28,1.91.57,3.82.85,5.73a25.11,25.11,0,0,1,5.67-5.74,4.51,4.51,0,0,0-.28,3.89,11,11,0,0,1,5.15-3.2L694,130.31a13.64,13.64,0,0,1,6.65-2l-1.94,2.53a32.87,32.87,0,0,0,12.51-10l-5,8.69q4.77-3.45,9.53-6.91a14.64,14.64,0,0,1-8.67,7.85l12.23-5.79a28.07,28.07,0,0,1-6.12,5.44,14.6,14.6,0,0,1,5.68-1.76l-2.19,2.34c4.54-4.86,24.72-2.07,30.95-2.07a3.55,3.55,0,0,1,2,.43,2.36,2.36,0,0,1,.72,2.07C750.36,137.7,753,208.07,751.47,208.07Z"/><path class="cls-10" d="M751.47,208.07q-94.83,0-189.65,0H526.57c-9.89,0-22.67,1.85-32-2a58.23,58.23,0,0,1,14.4-1.75,13.41,13.41,0,0,1-10.14-4.75l5.91,4-.48-3.83,11,2.31a108.05,108.05,0,0,1-11.85-15.18,5.13,5.13,0,0,0,5.58-1,19.27,19.27,0,0,0-5.21-6.76l3.77.58a7.29,7.29,0,0,1-2-4.71,3.63,3.63,0,0,0,5,0l1,7.16c-1-.43.47-2,1.34-1.34s.86,1.87,1,2.92a6.77,6.77,0,0,0,7.68,5.33,4.09,4.09,0,0,1,1.66-4.81l-4.53-5.5a4.8,4.8,0,0,0,4.6.64l-3.81-4.17a7.77,7.77,0,0,0,5.09,1.42,13.26,13.26,0,0,0-3.41-5.33l4.43,1.63a25.82,25.82,0,0,0-12.84-10.06c-.19-1.71-.39-3.42-.58-5.12l3.32,2.35a7.71,7.71,0,0,1,.65-5.17,14.2,14.2,0,0,1,6.74,5.4l3.2-1.07,6.24,9.41a3.4,3.4,0,0,0,1.33-3.28,5.84,5.84,0,0,0,2,3.18c1.08.69,2.88.28,3.07-1a14.77,14.77,0,0,1-1.55,8.51,13.28,13.28,0,0,1,4,8,2.71,2.71,0,0,0,2.88-2.47,6.15,6.15,0,0,0,3.39,1.73,19.72,19.72,0,0,0-1.33-12.51l3.75,3a8,8,0,0,1,.46-7.2l2.4,4a3.13,3.13,0,0,1,4.47,2.95,17,17,0,0,0-2.55-12.92l4.73,4.59a41.79,41.79,0,0,1-1.67-14.1,27.87,27.87,0,0,1,5.17,8.73,40,40,0,0,1,2.28-14.26,102,102,0,0,0,.45,18.74L570.44,154q-.18,3.06-.38,6.1l4-1.16c-.36,1.2-.73,2.4-1.09,3.6a11.17,11.17,0,0,0,9.3-11.37,25.76,25.76,0,0,1,.26,10.6,3.88,3.88,0,0,1,3.61-4.06c-.56,2.06-1.11,4.12-1.67,6.19.23-1.44,2.58.21,2,1.55s-2.11,2.19-2.32,3.62,2.84,1.68,2.08.45l-4.62,4.76,4,4A27.24,27.24,0,0,0,597,157.15a7.78,7.78,0,0,0,3.28,5.23l-.25-12.95,4.47,6c.19-3.29.39-6.58.58-9.87a16.83,16.83,0,0,1,2.54,7.85,15.85,15.85,0,0,1,4.46-8.19,30.93,30.93,0,0,1-2.23,13.11l4.41-5a22.49,22.49,0,0,1-3.54,11.3,28.15,28.15,0,0,0,11-14.59,24.53,24.53,0,0,0-1.43,10.19,27.16,27.16,0,0,0,2.94-10.91,25.92,25.92,0,0,0,.5,8.91q1.74-4.91,3.47-9.83a23.27,23.27,0,0,1-.4,9.93c1.15-1.82,2.29-3.64,3.44-5.45a17.84,17.84,0,0,1-1.37,8.53l2.74-2.36a27.41,27.41,0,0,1-5.05,10.32A187.37,187.37,0,0,0,645.4,140l-7,21.63a62.44,62.44,0,0,1,12.11-16.76,18.85,18.85,0,0,1-6.3,13.08,45.85,45.85,0,0,1,15.93-11.55,32.59,32.59,0,0,1-9.86,10.41A47.66,47.66,0,0,0,664.91,142a71.72,71.72,0,0,0-5,14.21,134.83,134.83,0,0,0,8.78-16c-.47,3-1,6.06-1.42,9.09a18,18,0,0,0,5-7.84l-3.39,10.23,4.16-3.49c.65,1.77-1.57,3.1-3,4.37s-.74,4.69.88,3.7L664,162a33.86,33.86,0,0,0,14.26-16.93,6.56,6.56,0,0,0,.4,5.29q3.15-5.55,6.31-11.11l-1,4.89a30.16,30.16,0,0,1,14.45-6,5.6,5.6,0,0,1-2.9,4.65,4.59,4.59,0,0,1,5.55-1.71q-3.63,3.81-7.25,7.64,6.48-4.33,13-8.66-1.64,4-3.28,8.09l7-7.25a14.51,14.51,0,0,0-2.74,9.62c.06.84.33,1.83,1.13,2.09s1.58-1.16.77-1.39l-13.26,13.38a26.78,26.78,0,0,0,11.72-5.55l-2.7,5.66a24.11,24.11,0,0,0,14.49-21c0,2,3.37.48,3.51-1.48s-.13-4.71,1.79-5.14c-.48,2.47-1,5-1.43,7.43a18.1,18.1,0,0,1,8.36-7.49l-4.71,6.92,7.6-5.13-3.33,6.34,8.15-5.63q-1.32,3.06-2.65,6.12l5.83-4a19.15,19.15,0,0,0,1,6.72l3.55-2.79C749.46,151.09,754.69,208.07,751.47,208.07Z"/><path class="cls-10" d="M334.56,172q-3.12,6.21-6.26,12.41a37.73,37.73,0,0,0-16.66,12.26l8.9-3.26q-.72,2.73-1.45,5.46a22.65,22.65,0,0,0,7.73-3.42,4.53,4.53,0,0,1-2.14,4.07l3.92-.6a17.43,17.43,0,0,1-5.28,4l6.79.22a6.22,6.22,0,0,1-3.42,3.23c1.36-.52,3.53.38,4.4,1.13-7.5,4.39-28.89.6-38.38.6H48.09q-23.31,0-46.62,0c0-16.64-.06-32.43,2.47-48.87a19.22,19.22,0,0,1-.28,9.32q3-6.17,6-12.32c-.58,3-1.17,5.9-1.75,8.85l5-10.79A21.07,21.07,0,0,1,9,167.45a50.11,50.11,0,0,0,13-19.47,51.25,51.25,0,0,1-7.74,16.4l18.65-23.31a47.2,47.2,0,0,1-10,17.14q9-9.92,17.13-20.66a46.24,46.24,0,0,1-10.95,16.52A153.25,153.25,0,0,0,51,130L32.86,156.55,48.77,139a38.8,38.8,0,0,0-11.31,24,45.47,45.47,0,0,1,19.77-24.55A37.46,37.46,0,0,0,46,159.72a60.49,60.49,0,0,1,14.22-20.38,78.25,78.25,0,0,1-9.64,14.52,55,55,0,0,1,11.17-10.75,21.77,21.77,0,0,1-6.38,8.22,131.73,131.73,0,0,1,15.53-11.7A74.55,74.55,0,0,1,55,158.3a111.49,111.49,0,0,1,21-14.79A93.93,93.93,0,0,1,59.11,158.8l22.21-14.91a51.49,51.49,0,0,1-17.23,14.84,91.53,91.53,0,0,0,23-15.74L74.39,159.06a70.32,70.32,0,0,0,25.82-31.17l-9.18,18a49.61,49.61,0,0,1,13.6-13.68A21.8,21.8,0,0,1,93.82,145.9a99.18,99.18,0,0,1,19.81-11.38,25.86,25.86,0,0,1-14,11.7,34.48,34.48,0,0,1,10.76-3.59,15.91,15.91,0,0,1-9.93,6.42,8.38,8.38,0,0,1,8.46-.75l-7.84,4.2,11.86-2.75-7.73,5.19A27,27,0,0,0,120.44,145a6.82,6.82,0,0,0-2.62,4.22q3.18-3.21,6.37-6.4a37,37,0,0,1-6.41,8.32l7.6-3.88a24.8,24.8,0,0,1-8.89,7.31,8.4,8.4,0,0,1,7.5-1.87,32.4,32.4,0,0,1-11,7,11.55,11.55,0,0,1,9-.65,20.76,20.76,0,0,1-8.93,5.29,14.44,14.44,0,0,1,6.6.36,23.71,23.71,0,0,1-9.9,5.06,13.17,13.17,0,0,1,9.38,1.11L110,174.18a53.75,53.75,0,0,1,13.29-.51l-3.85,2.47a43.15,43.15,0,0,0,21.87-26.53l-3.76,15.28q4.71-7.15,9.41-14.3c4.41-6.71,10.28-14.21,18.3-13.86a42.57,42.57,0,0,0-12.07,14.61l9.89-6.87-6.16,6.1a25.74,25.74,0,0,0,16.79-15.7,31.7,31.7,0,0,1-5.61,12.63A20,20,0,0,1,176,143a57.76,57.76,0,0,1-11,10.08l8.58-1.83A37.51,37.51,0,0,1,162,159.14l14.64-4.42-13.45,8.44a52.3,52.3,0,0,0,19.19-8.44l-14.73,10.81,16.63-8.13-9.86,8.54A66.59,66.59,0,0,0,195,148.2a84.68,84.68,0,0,0-9,15.67,198.67,198.67,0,0,1,18.91-18.7l-11,16.86a87.29,87.29,0,0,0,19.92-19.25,47.51,47.51,0,0,1-21.23,27.35,88.22,88.22,0,0,0,37.05-32.78,72.62,72.62,0,0,1-26.16,32.27,65.94,65.94,0,0,1,12.52-7A33,33,0,0,1,205.26,171l3.94-1.61-12.27,10,13-6.4a37.59,37.59,0,0,0-10.8,13.3l20-14.89a42.93,42.93,0,0,0-14.52,16.57l20.28-15.83-11.92,14a49.61,49.61,0,0,0,13.16-11.85q-3.25,5.33-6.5,10.64A67.45,67.45,0,0,1,233,173.72a39.59,39.59,0,0,1-9,9.88,13.21,13.21,0,0,1,9.63-3.25l-8,5.08a53.94,53.94,0,0,0,23.73-18.91,45.31,45.31,0,0,1-12.11,15l13.25-8.6-7.59,8.46a9,9,0,0,1,6.79-2.39,40.05,40.05,0,0,1-13.3,8.82,39.18,39.18,0,0,0,19.76-10.71l-8.92,10a52.83,52.83,0,0,0,17.46-15.65q-3.26,6.28-6.5,12.56a43.37,43.37,0,0,1,16.42-11.6l-14.56,13,14.64-8.53-5.83,8.56a39.75,39.75,0,0,1,25.66-8l-9,5.27a33.52,33.52,0,0,0,23.23-15.41q-2.18,5.24-4.36,10.46l4.54-2.45a28.56,28.56,0,0,0-4.38,10.27l20.26-15.77-2.4,7.11A106.93,106.93,0,0,0,334.56,172Z"/></g></g></g></g></svg>