<svg xmlns="http://www.w3.org/2000/svg" viewBox="0 0 750.48 80.36"><defs><style>.cls-1{isolation:isolate;}.cls-2{fill:#b49822;}.cls-3{fill:#ccae33;mix-blend-mode:multiply;opacity:0.48;}</style></defs><g class="cls-1"><g id="Layer_2" data-name="Layer 2"><g id="OBJECTS"><g id="L6"><path class="cls-2" d="M411.53,26.81c-.29,1-.57,2-.85,2.94a8.19,8.19,0,0,0-3.1,3.32L409.37,32l-.09,1.24a5,5,0,0,0,1.53-1.05,1,1,0,0,1-.3,1l.82-.29a3.75,3.75,0,0,1-1,1.08l1.48-.23a1.4,1.4,0,0,1-.61.84,1.2,1.2,0,0,1,1,.06c-1.44,1.25-6.21,1.3-8.26,1.69L394.82,38l-17.14,3.22-26.54,5-10.06,1.89a68.67,68.67,0,0,1-1.45-10.65,4.1,4.1,0,0,1,.31,2c.27-1,.54-1.94.8-2.91,0,.66,0,1.33,0,2l.63-2.53a4.69,4.69,0,0,1-.31,3,11.07,11.07,0,0,0,2-4.73,11.25,11.25,0,0,1-1,3.86q1.54-2.9,3.08-5.79a10.2,10.2,0,0,1-1.46,4.1q1.56-2.51,2.86-5.15a10,10,0,0,1-1.69,4,33.78,33.78,0,0,0,3.77-6.09l-2.85,6.47,2.73-4.43A8.41,8.41,0,0,0,347,36.93a9.93,9.93,0,0,1,3.27-6.1,8.23,8.23,0,0,0-1.55,5.05,13.28,13.28,0,0,1,2.24-5,16.84,16.84,0,0,1-1.49,3.53,12.3,12.3,0,0,1,2-2.78,4.67,4.67,0,0,1-1,2,28.71,28.71,0,0,1,2.88-3.16,16.29,16.29,0,0,1-2.69,4.68,25,25,0,0,1,3.92-4,20.83,20.83,0,0,1-3,4L355.71,31a11.16,11.16,0,0,1-3.12,3.9,20.25,20.25,0,0,0,4.34-4.33l-2.1,4a15.43,15.43,0,0,0,4.31-7.78c-.42,1.41-.83,2.83-1.25,4.25a10.91,10.91,0,0,1,2.38-3.51A4.8,4.8,0,0,1,358.49,31a21.6,21.6,0,0,1,3.82-3.26,5.7,5.7,0,0,1-2.56,3.09,7.64,7.64,0,0,1,2.18-1.21,3.54,3.54,0,0,1-1.88,1.79,1.83,1.83,0,0,1,1.79-.51l-1.52,1.23L362.77,31l-1.46,1.44a5.92,5.92,0,0,0,2.89-2.76,1.5,1.5,0,0,0-.39,1l1.12-1.64a8.34,8.34,0,0,1-1.05,2.06L365.36,30a5.35,5.35,0,0,1-1.62,1.94,1.84,1.84,0,0,1,1.54-.71,6.93,6.93,0,0,1-2.1,2,2.58,2.58,0,0,1,1.93-.51,4.53,4.53,0,0,1-1.71,1.51,3.08,3.08,0,0,1,1.44-.19,5.21,5.21,0,0,1-1.93,1.49,2.88,2.88,0,0,1,2.06-.14l-1.83,1.08a11.22,11.22,0,0,1,2.85-.65l-.73.69a9.48,9.48,0,0,0,3.64-6.62c-.06,1.15-.13,2.3-.19,3.45.48-1.16,1-2.31,1.45-3.47.68-1.63,1.65-3.48,3.39-3.73a9.32,9.32,0,0,0-2,3.64c.62-.63,1.23-1.26,1.85-1.88l-1.08,1.56a5.63,5.63,0,0,0,3-4.07,6.92,6.92,0,0,1-.7,3A4.4,4.4,0,0,1,376.12,27a13,13,0,0,1-2,2.63l1.77-.75a8.22,8.22,0,0,1-2.19,2.17l3-1.55-2.56,2.37a11.44,11.44,0,0,0,3.8-2.6l-2.74,2.93,3.26-2.43L376.7,32a14.53,14.53,0,0,0,3.72-4.66,18.39,18.39,0,0,0-1.29,3.74,43.62,43.62,0,0,1,3.32-4.8l-1.69,4.09a19.25,19.25,0,0,0,3.52-5,10.44,10.44,0,0,1-3.47,6.77,19.44,19.44,0,0,0,6.67-8.58,15.93,15.93,0,0,1-4.34,8,14.18,14.18,0,0,1,2.42-2,7.21,7.21,0,0,1-2,2.23l.78-.5L382.11,34l2.55-1.91a8.18,8.18,0,0,0-1.79,3.3l3.72-4a9.37,9.37,0,0,0-2.47,4.16q1.88-2.12,3.74-4.24l-2,3.52a11.14,11.14,0,0,0,2.36-3.09c-.33.85-.65,1.7-1,2.56a14.8,14.8,0,0,1,2.44-3,8.56,8.56,0,0,1-1.54,2.5,2.92,2.92,0,0,1,1.94-1.09l-1.53,1.42a11.78,11.78,0,0,0,4.36-5,9.88,9.88,0,0,1-2,3.73l2.51-2.4-1.29,2.14a2,2,0,0,1,1.37-.79A8.74,8.74,0,0,1,391,34.22a8.52,8.52,0,0,0,3.83-3.11c-.5.84-1,1.68-1.52,2.52a11.54,11.54,0,0,0,3.14-4.09c-.3,1-.6,2-.89,3a9.4,9.4,0,0,1,3.07-3.17L396,32.75l2.81-2.43-.91,2.08a8.76,8.76,0,0,1,5.22-2.77l-1.74,1.51a7.38,7.38,0,0,0,4.39-4.27c-.17.81-.35,1.62-.52,2.43l.88-.71a6.35,6.35,0,0,0-.53,2.4l3.74-4.23c-.08.54-.16,1.09-.23,1.63A24.05,24.05,0,0,0,411.53,26.81Z"/><path class="cls-2" d="M474.68,20.82c-.28,1-.57,2-.85,2.94a8.26,8.26,0,0,0-3.1,3.32L472.52,26l-.09,1.24A5,5,0,0,0,474,26.2a1,1,0,0,1-.3,1l.82-.29a3.63,3.63,0,0,1-1,1.09l1.47-.23a1.36,1.36,0,0,1-.61.84,1.2,1.2,0,0,1,1,.06c-1.44,1.25-6.21,1.3-8.26,1.69L458,32l-17.14,3.22-26.54,5-10.06,1.9a68.63,68.63,0,0,1-1.45-10.66,4.28,4.28,0,0,1,.32,2c.26-1,.53-1.94.8-2.91,0,.66,0,1.32,0,2l.63-2.53a4.57,4.57,0,0,1-.31,3,11,11,0,0,0,2-4.73,11.24,11.24,0,0,1-1,3.86q1.53-2.89,3.08-5.79a10.35,10.35,0,0,1-1.46,4.1c1-1.67,2-3.39,2.86-5.15a10.25,10.25,0,0,1-1.7,4,33.78,33.78,0,0,0,3.77-6.09c-.95,2.16-1.9,4.31-2.84,6.47q1.35-2.22,2.72-4.43a8.52,8.52,0,0,0-1.47,5.63,10,10,0,0,1,3.27-6.1,8.23,8.23,0,0,0-1.55,5.05,13.28,13.28,0,0,1,2.24-5,16.84,16.84,0,0,1-1.49,3.53,11.82,11.82,0,0,1,2-2.78,4.8,4.8,0,0,1-1.05,2,29.74,29.74,0,0,1,2.88-3.16,16.43,16.43,0,0,1-2.69,4.68,24.63,24.63,0,0,1,3.93-4,21.25,21.25,0,0,1-3,4L418.87,25a11.39,11.39,0,0,1-3.12,3.9,20.2,20.2,0,0,0,4.33-4.33l-2.1,4a15.53,15.53,0,0,0,4.32-7.78L421,25.06a11,11,0,0,1,2.38-3.5A4.78,4.78,0,0,1,421.65,25a22,22,0,0,1,3.81-3.27,5.7,5.7,0,0,1-2.55,3.1,7.59,7.59,0,0,1,2.17-1.21,3.47,3.47,0,0,1-1.88,1.79,1.86,1.86,0,0,1,1.8-.51l-1.53,1.23L425.92,25l-1.45,1.44a6,6,0,0,0,2.89-2.76,1.46,1.46,0,0,0-.4,1l1.12-1.64A8,8,0,0,1,427,25.13L428.51,24a5.16,5.16,0,0,1-1.62,1.94,1.86,1.86,0,0,1,1.55-.71,7.17,7.17,0,0,1-2.1,2,2.56,2.56,0,0,1,1.93-.51,4.63,4.63,0,0,1-1.72,1.51A3.09,3.09,0,0,1,428,28a5.23,5.23,0,0,1-1.93,1.49,2.9,2.9,0,0,1,2.07-.14l-1.84,1.07a11.65,11.65,0,0,1,2.85-.64l-.73.68a9.48,9.48,0,0,0,3.65-6.61c-.07,1.15-.13,2.3-.2,3.45.49-1.16,1-2.31,1.45-3.47.68-1.63,1.65-3.48,3.39-3.74a9.48,9.48,0,0,0-2,3.65l1.86-1.89c-.36.53-.73,1.05-1.09,1.57a5.61,5.61,0,0,0,3-4.07,6.92,6.92,0,0,1-.7,3A4.5,4.5,0,0,1,439.27,21a12.62,12.62,0,0,1-2,2.62l1.78-.74a8.41,8.41,0,0,1-2.2,2.17l3-1.55-2.56,2.37a11.44,11.44,0,0,0,3.8-2.6l-2.74,2.93,3.26-2.43c-.59.75-1.18,1.5-1.78,2.24a14.56,14.56,0,0,0,3.73-4.66,18.42,18.42,0,0,0-1.3,3.74,44,44,0,0,1,3.32-4.8l-1.68,4.09a19.49,19.49,0,0,0,3.52-5A10.45,10.45,0,0,1,444,26.19a19.42,19.42,0,0,0,6.67-8.58,15.93,15.93,0,0,1-4.34,8,14.18,14.18,0,0,1,2.42-2,7.21,7.21,0,0,1-2,2.23l.79-.5L445.26,28l2.56-1.91A8.31,8.31,0,0,0,446,29.4l3.72-4a9.35,9.35,0,0,0-2.46,4.16c1.24-1.41,2.49-2.82,3.73-4.24l-2,3.52a11,11,0,0,0,2.36-3.09c-.32.85-.65,1.7-1,2.56a15.1,15.1,0,0,1,2.43-3,8.48,8.48,0,0,1-1.54,2.5,2.91,2.91,0,0,1,1.95-1.09l-1.53,1.42a11.88,11.88,0,0,0,4.35-5,10,10,0,0,1-2,3.73l2.51-2.4-1.3,2.14a2,2,0,0,1,1.37-.79,8.84,8.84,0,0,1-2.51,2.44A8.63,8.63,0,0,0,458,25.12c-.51.84-1,1.68-1.52,2.52a11.63,11.63,0,0,0,3.13-4.09l-.89,3a9.5,9.5,0,0,1,3.07-3.17l-2.61,3.4c.94-.81,1.88-1.62,2.81-2.44-.3.7-.6,1.39-.91,2.09a8.76,8.76,0,0,1,5.22-2.77l-1.74,1.51a7.38,7.38,0,0,0,4.39-4.27c-.17.81-.34,1.62-.52,2.43l.88-.71a6.15,6.15,0,0,0-.52,2.39l3.73-4.22c-.08.54-.15,1.09-.23,1.63A24.05,24.05,0,0,0,474.68,20.82Z"/><path class="cls-2" d="M514,17.64l-.84,2.93a8.31,8.31,0,0,0-3.11,3.33l1.8-1.07c0,.41-.07.83-.1,1.24A4.91,4.91,0,0,0,513.31,23a1,1,0,0,1-.29,1l.82-.29a3.92,3.92,0,0,1-1,1.09l1.48-.23a1.39,1.39,0,0,1-.61.83,1.17,1.17,0,0,1,1,.07c-1.43,1.25-6.21,1.3-8.26,1.69l-9.13,1.71-17.14,3.22-26.54,5c-3.36.63-6.71,1.27-10.07,1.89a71,71,0,0,1-1.45-10.65,4.26,4.26,0,0,1,.32,2c.27-1,.53-1.93.8-2.9,0,.66,0,1.32,0,2l.63-2.53a4.65,4.65,0,0,1-.3,3,11.07,11.07,0,0,0,2-4.73,11.43,11.43,0,0,1-1,3.85l3.08-5.79a10.4,10.4,0,0,1-1.46,4.11A58.88,58.88,0,0,0,449,22.16a10.37,10.37,0,0,1-1.69,4,34.08,34.08,0,0,0,3.76-6.09c-.94,2.16-1.89,4.31-2.84,6.47q1.37-2.22,2.72-4.44a8.5,8.5,0,0,0-1.46,5.64,9.93,9.93,0,0,1,3.27-6.1,8.22,8.22,0,0,0-1.56,5.05,13.46,13.46,0,0,1,2.25-5A17.63,17.63,0,0,1,452,25.25a12.24,12.24,0,0,1,2-2.77,4.85,4.85,0,0,1-1,2,28.61,28.61,0,0,1,2.88-3.15A16.67,16.67,0,0,1,453.12,26,23.85,23.85,0,0,1,457,22a20.58,20.58,0,0,1-3,4l4.19-4.12a11.37,11.37,0,0,1-3.12,3.9,20,20,0,0,0,4.33-4.33l-2.09,4a15.36,15.36,0,0,0,4.31-7.77l-1.25,4.24a10.71,10.71,0,0,1,2.38-3.5,4.83,4.83,0,0,1-1.78,3.4,21.66,21.66,0,0,1,3.82-3.26,5.72,5.72,0,0,1-2.56,3.1,7.51,7.51,0,0,1,2.18-1.21,3.52,3.52,0,0,1-1.89,1.79,1.86,1.86,0,0,1,1.8-.51l-1.52,1.22,2.45-1.07-1.46,1.43a5.88,5.88,0,0,0,2.89-2.76,1.5,1.5,0,0,0-.39,1l1.11-1.64a8.31,8.31,0,0,1-1,2.06l1.48-1.15a5.53,5.53,0,0,1-1.62,1.94,1.84,1.84,0,0,1,1.54-.71,7.18,7.18,0,0,1-2.1,2,2.57,2.57,0,0,1,1.93-.51A4.6,4.6,0,0,1,465.91,25a3.06,3.06,0,0,1,1.44-.2,5.27,5.27,0,0,1-1.94,1.5,2.9,2.9,0,0,1,2.07-.14l-1.83,1.07a11.92,11.92,0,0,1,2.85-.65l-.74.69a9.45,9.45,0,0,0,3.65-6.61c-.06,1.15-.13,2.3-.19,3.45.48-1.16,1-2.32,1.45-3.47.68-1.63,1.64-3.49,3.39-3.74a9.36,9.36,0,0,0-2,3.65l1.85-1.89-1.08,1.57a5.67,5.67,0,0,0,3-4.07,6.84,6.84,0,0,1-.7,2.95,4.38,4.38,0,0,1,1.52-1.28,12.58,12.58,0,0,1-2,2.62l1.78-.74a8.22,8.22,0,0,1-2.19,2.17l3-1.55-2.56,2.37a11.54,11.54,0,0,0,3.8-2.6c-.92,1-1.83,1.95-2.74,2.93L481,20.6l-1.78,2.24a14.64,14.64,0,0,0,3.72-4.66,18.82,18.82,0,0,0-1.3,3.74,42.78,42.78,0,0,1,3.33-4.8l-1.69,4.08a19,19,0,0,0,3.52-5A10.41,10.41,0,0,1,483.32,23,19.38,19.38,0,0,0,490,14.42a16,16,0,0,1-4.34,8,14.66,14.66,0,0,1,2.42-2,7.13,7.13,0,0,1-2,2.24l.78-.5-2.24,2.65,2.55-1.91a8.29,8.29,0,0,0-1.79,3.31q1.86-2,3.71-4a9.53,9.53,0,0,0-2.46,4.17l3.74-4.24-2,3.52a11,11,0,0,0,2.37-3.1c-.33.86-.65,1.71-1,2.56a15,15,0,0,1,2.44-3,8.65,8.65,0,0,1-1.55,2.5,2.91,2.91,0,0,1,1.95-1.09L491.06,25a11.87,11.87,0,0,0,4.36-5,10.14,10.14,0,0,1-2,3.74l2.51-2.4-1.29,2.14a1.94,1.94,0,0,1,1.37-.8,8.91,8.91,0,0,1-2.52,2.45,8.54,8.54,0,0,0,3.83-3.12l-1.52,2.53a11.63,11.63,0,0,0,3.14-4.09l-.9,3a9.62,9.62,0,0,1,3.08-3.17l-2.62,3.41,2.82-2.44-.91,2.09a8.71,8.71,0,0,1,5.21-2.77L503.88,22a7.39,7.39,0,0,0,4.39-4.26c-.18.81-.35,1.62-.52,2.43l.88-.71a6.35,6.35,0,0,0-.53,2.39c1.25-1.41,2.49-2.82,3.74-4.22-.08.54-.16,1.08-.23,1.63A24.52,24.52,0,0,0,514,17.64Z"/><path class="cls-2" d="M577.19,11.65c-.29,1-.57,1.95-.85,2.93a8.32,8.32,0,0,0-3.1,3.32L575,16.84l-.09,1.24a5,5,0,0,0,1.53-1,1,1,0,0,1-.3,1l.82-.29a3.77,3.77,0,0,1-1,1.09l1.48-.23a1.35,1.35,0,0,1-.61.83,1.2,1.2,0,0,1,1,.07c-1.44,1.25-6.21,1.3-8.26,1.69l-9.14,1.71-17.14,3.22-26.54,5L506.74,33a68.51,68.51,0,0,1-1.45-10.65,4.13,4.13,0,0,1,.31,2l.81-2.9c0,.66,0,1.32,0,2l.63-2.53a4.72,4.72,0,0,1-.31,3,11.12,11.12,0,0,0,2-4.73,11.2,11.2,0,0,1-1,3.85q1.55-2.9,3.08-5.79a10.3,10.3,0,0,1-1.46,4.11,58.88,58.88,0,0,0,2.86-5.16,10.07,10.07,0,0,1-1.69,4,34.13,34.13,0,0,0,3.77-6.09l-2.85,6.46,2.73-4.43a8.56,8.56,0,0,0-1.47,5.64A10,10,0,0,1,516,15.66a8.26,8.26,0,0,0-1.55,5.06,13.21,13.21,0,0,1,2.24-5,16.76,16.76,0,0,1-1.49,3.52,12,12,0,0,1,2-2.77,4.76,4.76,0,0,1-1,2A28.61,28.61,0,0,1,519,15.37a16.43,16.43,0,0,1-2.69,4.68A24.64,24.64,0,0,1,520.19,16a20.19,20.19,0,0,1-3,4l4.19-4.12a11.34,11.34,0,0,1-3.11,3.9,20.43,20.43,0,0,0,4.33-4.33l-2.1,4a15.4,15.4,0,0,0,4.31-7.77c-.41,1.41-.83,2.83-1.25,4.24a10.87,10.87,0,0,1,2.38-3.5,4.76,4.76,0,0,1-1.78,3.4A22,22,0,0,1,528,12.53a5.72,5.72,0,0,1-2.56,3.1,7.54,7.54,0,0,1,2.18-1.21,3.57,3.57,0,0,1-1.88,1.79,1.81,1.81,0,0,1,1.79-.51L526,16.92l2.45-1.07L527,17.28a5.94,5.94,0,0,0,2.9-2.76,1.51,1.51,0,0,0-.4,1l1.12-1.64A8.34,8.34,0,0,1,529.54,16L531,14.81a5.53,5.53,0,0,1-1.62,1.94,1.86,1.86,0,0,1,1.54-.71,7.14,7.14,0,0,1-2.09,2,2.5,2.5,0,0,1,1.92-.51,4.5,4.5,0,0,1-1.71,1.5,3.21,3.21,0,0,1,1.44-.19,5.26,5.26,0,0,1-1.93,1.5,2.9,2.9,0,0,1,2.07-.14c-.62.35-1.23.71-1.84,1.07a12.15,12.15,0,0,1,2.85-.65l-.73.69a9.44,9.44,0,0,0,3.64-6.62c-.06,1.16-.12,2.31-.19,3.46.49-1.16,1-2.32,1.45-3.47.68-1.63,1.65-3.49,3.39-3.74a9.29,9.29,0,0,0-2,3.65l1.85-1.89L538,14.24a5.67,5.67,0,0,0,3-4.07,6.84,6.84,0,0,1-.7,2.95,4.38,4.38,0,0,1,1.52-1.28,12.89,12.89,0,0,1-2,2.62l1.77-.74a8.22,8.22,0,0,1-2.19,2.17l3-1.55c-.85.79-1.7,1.58-2.56,2.36a11.15,11.15,0,0,0,3.8-2.6L540.88,17l3.26-2.43-1.78,2.24a14.67,14.67,0,0,0,3.72-4.67,18.47,18.47,0,0,0-1.29,3.75,44,44,0,0,1,3.32-4.8c-.56,1.36-1.12,2.72-1.69,4.08a19,19,0,0,0,3.52-5A10.44,10.44,0,0,1,546.47,17a19.38,19.38,0,0,0,6.67-8.58,15.85,15.85,0,0,1-4.34,8,14.66,14.66,0,0,1,2.42-2,7.24,7.24,0,0,1-2,2.24l.79-.51-2.25,2.66,2.55-1.91a8.29,8.29,0,0,0-1.79,3.31l3.72-4a9.46,9.46,0,0,0-2.47,4.17l3.74-4.24c-.67,1.17-1.34,2.34-2,3.51a10.81,10.81,0,0,0,2.36-3.09c-.33.86-.65,1.71-1,2.56a15,15,0,0,1,2.44-3,8.83,8.83,0,0,1-1.54,2.5,2.87,2.87,0,0,1,1.94-1.09L554.21,19a11.8,11.8,0,0,0,4.36-5.05,9.88,9.88,0,0,1-2,3.73l2.51-2.39-1.29,2.13a2,2,0,0,1,1.37-.79,8.78,8.78,0,0,1-2.52,2.45,8.69,8.69,0,0,0,3.84-3.12c-.51.84-1,1.68-1.52,2.53a11.72,11.72,0,0,0,3.13-4.09c-.3,1-.6,2-.89,3a9.5,9.5,0,0,1,3.07-3.17l-2.61,3.41,2.81-2.44-.91,2.09a8.76,8.76,0,0,1,5.22-2.77L567,16a7.35,7.35,0,0,0,4.39-4.27c-.17.82-.35,1.63-.52,2.44l.88-.71a6.35,6.35,0,0,0-.53,2.39L575,11.59c-.08.55-.15,1.09-.23,1.64A25.91,25.91,0,0,0,577.19,11.65Z"/><path class="cls-2" d="M0,57.52,325.25,39.8,436.94,27.22S684.55-4.94,704.13.65,750.48,0,750.48,0l-.67,80.36Z"/><path class="cls-3" d="M396.61,36.73A5.56,5.56,0,0,0,401,36.4a4.35,4.35,0,0,1-1.9-.48,2.73,2.73,0,0,0,2.09-.28,12.15,12.15,0,0,0-2.88-1.16,1.34,1.34,0,0,1,.92-.61,6.1,6.1,0,0,1-2.58-.7c6.69.2,13.35-2.2,19.91-3.26,6.76-1.09,13.57-1.81,20.36-2.69.59-.08,247.64-32.15,267.19-26.57S750.48,0,750.48,0l-.67,80.36-2.28-.07c-4.91-.15-9.83-.36-14.75-.45-4.21-.07-6.77-1.53-10.55-3.45,2.95-2.19,1.86-7.76-1.7-8.67-.31-2.14,4.08-3.07,3.27-5.08-.51-1.25-2.39-.88-3.52-.14s-2.61,1.65-3.68.83c-1.55-1.17.25-3.49,1.9-4.5s3.39-3.39,1.81-4.5c.91-1.07,1.83-2.13,2.75-3.2-2.06,2.4-9.87,3.63-12.88,4.33a13.7,13.7,0,0,1,2.07-3.64c.44-.57,2-.79,2.21-1.53.08-.29.38-2.3-.76-1.51l2.4-1.44c.06-1.12.13-2.24.2-3.36a9.3,9.3,0,0,1-3.42,1.43c.56-.21.18-1.1-.37-1.36s-1.28-.43-1.38-1l2-1.39-3.44-1.34A17.57,17.57,0,0,0,720.29,36c-3.23,1.95-7.73.15-11,2l2.15,0a4.56,4.56,0,0,1-3.38,2.5,25.42,25.42,0,0,0-4.26,1l1,.73-1.26.65a22.63,22.63,0,0,0,5.37.67,2,2,0,0,0-2,1.27,12.88,12.88,0,0,1,2.91,1.18c.38.21.8.57.66,1a1,1,0,0,1-.56.49c-5.79,2.79-7.36,9-13.58,11.47a23.9,23.9,0,0,0,4.41-5.88,38.85,38.85,0,0,0-6.81,2.64l2.54-4a30.18,30.18,0,0,1-10.83,4.45q-4.73,2.64-9.7,4.8a2.07,2.07,0,0,0-.59-3.38l6-2.52-2.24-1.74A18.08,18.08,0,0,0,684,51.4l-4.3-1.85a7.77,7.77,0,0,0,5.84-2.71,3.77,3.77,0,0,1,2.5-.32c.86,0,1.89-.13,2.22-.93s-1.07-1.67-1.37-.86c.69-.83,1.38-1.65,2.06-2.48A159.94,159.94,0,0,0,673.84,46c.56-2,3.13-2.38,5.17-2.43-.23-.85-.47-1.7-.71-2.55l2.83-.47a2,2,0,0,0-.67-2.12,6.81,6.81,0,0,0,3.46-1c.2-.14-1.92-1.73-2.15-1.85,1.31-.9,2.61-1.84,3.9-2.78a2.2,2.2,0,0,0,1.06-1.31c.08-.58-.63-1.2-1.07-.82a2.6,2.6,0,0,1,2.05-1.36,5,5,0,0,0-2.42-1c.16-.46.67-.67,1.08-.94s.79-.79.52-1.2-1-.22-1.55,0a5.62,5.62,0,0,1-2.74.47,1,1,0,0,1-.8-.34c-.36-.55.43-1.12,1.06-1.34s1.36-.91.91-1.39a2.05,2.05,0,0,1-1.14-.9l3-2.16a4.37,4.37,0,0,0-5.14,2.92,43,43,0,0,0-5.78,1.58l2.9,2.3-7.82.86c3.61,2.05,8.2-.18,12.26.67-.24.56-2.06,5.26-2.86,5a5.83,5.83,0,0,0-5.81,1.51,2.92,2.92,0,0,0,2,.35,16.63,16.63,0,0,0-5.68,1.31,17.38,17.38,0,0,1,3.56,2,7.31,7.31,0,0,1-8.08-.84l-7.88,1.27,1.43,1.47a3.46,3.46,0,0,1-1.86,1A7.68,7.68,0,0,1,659.45,44l2-.72a4.48,4.48,0,0,0-3.58,4.53,12.11,12.11,0,0,0-6.24,1.5,3.51,3.51,0,0,0-1.76,1.78,1.5,1.5,0,0,0,1,2,207.3,207.3,0,0,1-31.49,6.41,1.38,1.38,0,0,1-1.06-.24c0-1.36-.8-1.72-1.4-3l9.4-2.83a6.19,6.19,0,0,0-2.66-2.08,7.64,7.64,0,0,0,4.43-3.11l-1.89-.61a3,3,0,0,0,2.38-2.48l-3.09,0a3.67,3.67,0,0,0,.9-1.84l-2.34-.75a9.4,9.4,0,0,1-10.12,3.36,6.88,6.88,0,0,0,2.85-1.73,3.92,3.92,0,0,0-2.43-.55,3.39,3.39,0,0,0,2.09-2.15A4.78,4.78,0,0,0,613,43l-.48-2.35a12.63,12.63,0,0,1-9.31,4.21l6.51-4.8a5.83,5.83,0,0,0-2.38-.26l2.07-2.41a23.42,23.42,0,0,0-5.39,2,1.73,1.73,0,0,1,1.32-1.63l-8.58,5.81c-.49.32-1,.77-1,1.34s1.2.61,1.06,0A13.66,13.66,0,0,0,587.71,48L592,51.28a10.85,10.85,0,0,0-7.45,3.38,5.72,5.72,0,0,0,2.88,1.71q-8.29,2.9-16.7,5.46a5.52,5.52,0,0,1,3.14-4.17l-15.59,5.53c.29-.58.57-1.16.86-1.73l-6.29-.93L555,58.34a8.11,8.11,0,0,0-5-.4,17,17,0,0,0,4.62-4.84l-6.72,2.64a6.12,6.12,0,0,1,1.51-2.85,65.61,65.61,0,0,1-26.82,10.79l6.5-2.9a3.06,3.06,0,0,0-1.73-1.1l4.19-2.52a11.22,11.22,0,0,1-4.58.07c1.92-.94,4.1-1.74,5.68-3.12-1.1-.74-3.72-2.36-5.14-2.36l6.7-2.94a8.18,8.18,0,0,0-4.51-2.22l6.25-1.19a2.78,2.78,0,0,1-1.76-3.81l-5.75-1.22a19.82,19.82,0,0,1,6.27-4.21c-1.09.49-2.33,1-3.44.52s-1.46-2.36-.33-2.75a24.41,24.41,0,0,0-14.85,1.46c2,.75-.3,3.65-2.4,4.22l5.91,2.23c-1.25,1.61-2.62,3.28-4.54,3.93s-4.51-.3-4.84-2.3a41.13,41.13,0,0,1-14.34-.33l3.06-1.68A6.78,6.78,0,0,0,489.31,43a10.19,10.19,0,0,1-9.59,4.82l4.38-2.3-4.08,0L484,42.89c-19.76.77-37.14,16.87-56.82,15l4.35-2.67A79.07,79.07,0,0,1,418,57.15,28.49,28.49,0,0,0,428.51,46.3c-.66,1.31-8.49,2.19-10,2.56-3.49.85-6.94,1.94-10.39,3a9.09,9.09,0,0,1-4.62.56c.28-.95,1.57-1,2.55-1.13s2.17-1.1,1.55-1.87A8,8,0,0,0,412.65,45a5.94,5.94,0,0,1-3.18.28c.1-.4.2-.81.31-1.21a29,29,0,0,1-3.42,2.72,1.44,1.44,0,0,1-.73.31,2,2,0,0,1-.87-.29,8.12,8.12,0,0,0-3.57-.55l5.24-.38-.93-1.3a2.81,2.81,0,0,1,3.15-.14c.45-.65-.39-1.56-.1-2.29s1.26-.65,2-.42,1.55.54,2.11.06a3.74,3.74,0,0,1-.62-2.1c.9.52,2.44.77,2.6-.25a1.1,1.1,0,0,0-.92-1.14,3.11,3.11,0,0,0-1.59.19l1.23-1.13-4,1.64a1.26,1.26,0,0,1,.39-1.25,5.1,5.1,0,0,0-3.26.44l-2,1.11c-.12-.54-.23-1.07-.35-1.61a9.25,9.25,0,0,1-7,1.33A1.36,1.36,0,0,0,396.61,36.73Z"/></g></g></g></g></svg>