<svg xmlns="http://www.w3.org/2000/svg" xmlns:xlink="http://www.w3.org/1999/xlink" viewBox="0 0 750.48 133.41"><defs><style>.cls-1{fill:url(#Degradado_sin_nombre_30);}.cls-2{fill:url(#Degradado_sin_nombre_30-2);}</style><linearGradient id="Degradado_sin_nombre_30" x1="146.25" y1="75.73" x2="148.3" y2="368.91" gradientUnits="userSpaceOnUse"><stop offset="0" stop-color="#6a8796"/><stop offset="0.37" stop-color="#f16000"/><stop offset="0.46" stop-color="#ea6208"/><stop offset="1" stop-color="#6a3500"/></linearGradient><linearGradient id="Degradado_sin_nombre_30-2" x1="371.36" y1="56.7" x2="416" y2="361.34" xlink:href="#Degradado_sin_nombre_30"/></defs><g id="Layer_2" data-name="Layer 2"><g id="OBJECTS"><g id="L8"><path class="cls-1" d="M0,65.36S122.69,88,172.86,104.65s120.33,12.79,120.33,12.79L0,133.41V75.89"/><path class="cls-2" d="M293.06,116.53a152.61,152.61,0,0,0,29.7-7c6.94-2.44,13.7-5.62,21-6.65,5.42-.76,11-.29,16.37-1.16,18.69-3,31.95-21,50.42-25.19C427.08,72.83,444,81,461,80.77c18.64-.27,35.68-10.61,54.13-13.3,11.22-1.64,22.63-.4,33.93.64a42.45,42.45,0,0,0,10.26.09c5.4-.83,10.26-3.65,14.92-6.51,24.93-15.27,47.33-34,71.52-50.32,8.92-6,18.84-12.13,29.57-11.29,9.48.74,17.71,6.79,27,8.83,5.08,1.12,10.38,1,15.45,2.2,7.58,1.78,14,6.35,19.76,11.38.93.8,13,9.94,13,10.44L750,133.41H0c2.4,0,4.83-.26,7.22-.39l152-8.28L246.18,120C261.94,119.14,277.61,118.7,293.06,116.53Z"/></g></g></g></svg>