<svg xmlns="http://www.w3.org/2000/svg" xmlns:xlink="http://www.w3.org/1999/xlink" viewBox="0 0 750.26 68.69"><defs><style>.cls-1{fill:url(#Degradado_sin_nombre_3);}.cls-2{fill:url(#Degradado_sin_nombre_17);}.cls-3{fill:url(#Degradado_sin_nombre_13);}.cls-4{fill:url(#Degradado_sin_nombre_16);}.cls-5{fill:url(#Degradado_sin_nombre_13-2);}.cls-6{fill:url(#Degradado_sin_nombre_489);}.cls-7{fill:url(#Degradado_sin_nombre_31);}.cls-8{fill:url(#Degradado_sin_nombre_30);}.cls-9{fill:url(#Degradado_sin_nombre_30-2);}.cls-10{fill:url(#Degradado_sin_nombre_29);}.cls-11{fill:url(#Degradado_sin_nombre_32);}</style><radialGradient id="Degradado_sin_nombre_3" cx="679.03" cy="56.19" r="18.03" gradientTransform="matrix(-0.02, 1.1, -6.03, -0.04, 990.96, -688.1)" gradientUnits="userSpaceOnUse"><stop offset="0.18" stop-color="#432a4c"/><stop offset="0.35" stop-color="#4a335f" stop-opacity="0.86"/><stop offset="0.65" stop-color="#5e4b93" stop-opacity="0.5"/><stop offset="0.97" stop-color="#796cd8" stop-opacity="0"/></radialGradient><radialGradient id="Degradado_sin_nombre_17" cx="728.37" cy="141.45" r="230.43" gradientUnits="userSpaceOnUse"><stop offset="0.3" stop-color="#432a4c"/><stop offset="0.36" stop-color="#452e52"/><stop offset="0.43" stop-color="#493863"/><stop offset="0.51" stop-color="#51497e"/><stop offset="0.61" stop-color="#5c61a4"/><stop offset="0.7" stop-color="#6980d5"/><stop offset="0.71" stop-color="#6a81d7"/><stop offset="0.75" stop-color="#637cd0"/><stop offset="0.82" stop-color="#516fbb"/><stop offset="0.89" stop-color="#335a9a"/><stop offset="0.98" stop-color="#0a3c6b"/><stop offset="1" stop-color="#003560"/></radialGradient><radialGradient id="Degradado_sin_nombre_13" cx="555.96" cy="-135.83" r="460.76" gradientUnits="userSpaceOnUse"><stop offset="0.27" stop-color="#fff"/><stop offset="0.37" stop-color="#c1caee"/><stop offset="0.46" stop-color="#92a3e2"/><stop offset="0.52" stop-color="#758ada"/><stop offset="0.56" stop-color="#6a81d7"/><stop offset="0.58" stop-color="#5c7ed2"/><stop offset="0.64" stop-color="#3b77c7"/><stop offset="0.71" stop-color="#2171be"/><stop offset="0.77" stop-color="#0f6db7"/><stop offset="0.84" stop-color="#046bb3"/><stop offset="0.91" stop-color="#006ab2"/></radialGradient><radialGradient id="Degradado_sin_nombre_16" cx="651.78" cy="108.57" r="152.03" gradientUnits="userSpaceOnUse"><stop offset="0.3" stop-color="#432a4c"/><stop offset="0.37" stop-color="#4d4170"/><stop offset="0.48" stop-color="#5a5c9c"/><stop offset="0.57" stop-color="#6370bc"/><stop offset="0.65" stop-color="#687dd0"/><stop offset="0.71" stop-color="#6a81d7"/><stop offset="0.75" stop-color="#637cd0"/><stop offset="0.82" stop-color="#516fbb"/><stop offset="0.89" stop-color="#335a9a"/><stop offset="0.98" stop-color="#0a3c6b"/><stop offset="1" stop-color="#003560"/></radialGradient><radialGradient id="Degradado_sin_nombre_13-2" cx="516.01" cy="-59.11" r="328.88" xlink:href="#Degradado_sin_nombre_13"/><radialGradient id="Degradado_sin_nombre_489" cx="376.69" cy="720.93" r="5.37" gradientTransform="matrix(0.03, 2.67, 5.2, -0.1, -3527.4, -876.94)" gradientUnits="userSpaceOnUse"><stop offset="0.18" stop-color="#796cd8"/><stop offset="0.18" stop-color="#796cd8" stop-opacity="0.99"/><stop offset="0.26" stop-color="#796cd8" stop-opacity="0.76"/><stop offset="0.34" stop-color="#796cd8" stop-opacity="0.55"/><stop offset="0.43" stop-color="#796cd8" stop-opacity="0.38"/><stop offset="0.52" stop-color="#796cd8" stop-opacity="0.24"/><stop offset="0.62" stop-color="#796cd8" stop-opacity="0.14"/><stop offset="0.72" stop-color="#796cd8" stop-opacity="0.06"/><stop offset="0.83" stop-color="#796cd8" stop-opacity="0.01"/><stop offset="0.97" stop-color="#796cd8" stop-opacity="0"/></radialGradient><radialGradient id="Degradado_sin_nombre_31" cx="-101.93" cy="228.57" r="82.66" gradientTransform="matrix(-0.99, 0.06, 0.07, 1.08, 97.16, -151.24)" gradientUnits="userSpaceOnUse"><stop offset="0.3" stop-color="#432a4c"/><stop offset="0.32" stop-color="#48345c"/><stop offset="0.37" stop-color="#524c82"/><stop offset="0.43" stop-color="#5b5fa1"/><stop offset="0.49" stop-color="#616eb9"/><stop offset="0.55" stop-color="#6679ca"/><stop offset="0.62" stop-color="#697fd4"/><stop offset="0.71" stop-color="#6a81d7"/><stop offset="0.75" stop-color="#637cd0"/><stop offset="0.82" stop-color="#516fbb"/><stop offset="0.89" stop-color="#335a9a"/><stop offset="0.98" stop-color="#0a3c6b"/><stop offset="1" stop-color="#003560"/></radialGradient><radialGradient id="Degradado_sin_nombre_30" cx="-193.71" cy="229.98" r="40.64" gradientTransform="matrix(-0.99, 0.09, 0.09, 1.08, 66.33, -193.64)" gradientUnits="userSpaceOnUse"><stop offset="0" stop-color="#fff"/><stop offset="0.38" stop-color="#c9d1f1"/><stop offset="0.99" stop-color="#6a81d7"/></radialGradient><radialGradient id="Degradado_sin_nombre_30-2" cx="-136.81" cy="229.23" r="30.52" xlink:href="#Degradado_sin_nombre_30"/><radialGradient id="Degradado_sin_nombre_29" cx="-177.68" cy="131.04" r="184.56" gradientTransform="matrix(-0.99, 0.06, 0.07, 1.08, 97.16, -151.24)" gradientUnits="userSpaceOnUse"><stop offset="0.33" stop-color="#fff"/><stop offset="0.42" stop-color="#c1caee"/><stop offset="0.5" stop-color="#92a3e2"/><stop offset="0.57" stop-color="#758ada"/><stop offset="0.6" stop-color="#6a81d7"/><stop offset="0.79" stop-color="#3776c5"/><stop offset="1" stop-color="#006ab2"/></radialGradient><radialGradient id="Degradado_sin_nombre_32" cx="248.81" cy="-283.35" r="616.08" gradientTransform="matrix(0.16, 0.99, -2.29, 0.36, -438.79, -426.54)" gradientUnits="userSpaceOnUse"><stop offset="0" stop-color="#fff"/><stop offset="0.17" stop-color="#fcfdfe"/><stop offset="0.28" stop-color="#f4f6fc"/><stop offset="0.36" stop-color="#e6eaf8"/><stop offset="0.44" stop-color="#d1d8f3"/><stop offset="0.51" stop-color="#b7c2ec"/><stop offset="0.58" stop-color="#97a7e3"/><stop offset="0.64" stop-color="#7187d9"/><stop offset="0.65" stop-color="#6a81d7"/><stop offset="0.81" stop-color="#3776c5"/><stop offset="1" stop-color="#006ab2"/></radialGradient></defs><g id="Layer_2" data-name="Layer 2"><g id="L1"><ellipse class="cls-1" cx="640.42" cy="57.07" rx="107.52" ry="11.62"/><path class="cls-2" d="M742.18,56c-11.55,12-80.64,9.19-109.68,1.44S611.5-.36,653.26,0,752.26,45.57,742.18,56Z"/><path class="cls-3" d="M735.18,39.24s-4,8.13-25.16,3.3-52.8-30.45-52.8-30.45-1.44,10.62-4.32,11-14.22-4.62-14.22-4.62-.54,3.72-9.9,14.52-12.2,9.53-12.2,9.53C610.86,25.11,623.49-.26,653.26,0,682.41.25,719.12,22.36,735.18,39.24Z"/><path class="cls-4" d="M659.74,61.59s-19.8-37.92-50-31.83-56,24-60.12,28.77C542.2,67.17,661.09,72,659.74,61.59Z"/><path class="cls-5" d="M654.58,53.47c0,2.46-1.09,5-6,4.07-9.09-1.62-32.84-18.81-32.84-18.81s-5.07,11.16-17.7,9.5c-11.64-1.53-18.74-4.4-36.19,1.07,11.2-7,28.63-15.67,47.86-19.54C630.81,25.51,646.83,42.7,654.58,53.47Z"/><ellipse class="cls-6" cx="231.94" cy="56.4" rx="27.49" ry="9.51" transform="translate(-1.54 6.77) rotate(-1.67)"/><path class="cls-7" d="M207.15,54.6c21,6.44,45.06,2.68,50.92-.51,3.22-1.76,3.59-4.08,2.15-6.53-3.08-5.26-14.44-11.09-23.56-13.05C222.25,31.43,210.87,39.2,206.6,46h0C204.07,50,204,53.64,207.15,54.6Z"/><path class="cls-8" d="M248.44,58.27s4.36-5,6.66-6.3a16.11,16.11,0,0,1,6.19-2.38c2.61-.49,4.83,1.57,5.83,2.64s3.51,2.58,3.14,4c-.45,1.66-4.43,3.21-8.87,3.35C256.58,59.72,246.81,59.79,248.44,58.27Z"/><path class="cls-9" d="M198,55.47a51.34,51.34,0,0,1,3.36-4.83,4.67,4.67,0,0,1,2.45-1.53A3.48,3.48,0,0,1,207,50.56c.44.8,5.08,3.95,5,4.94-.13,1.18-3.15,1-6.6,1.55C203.44,57.37,197.77,57.65,198,55.47Z"/><path class="cls-10" d="M206.6,46c.33-.34,7-7,14.44-4.25a22.06,22.06,0,0,1,10.82,8.53s1.85-8.06,10-8.78,17.32,9.76,18.4,6.05c-3.08-5.26-14.44-11.09-23.56-13.05C222.25,31.43,210.87,39.2,206.6,46Z"/><path class="cls-11" d="M750.26,68.69V49.93s-104.73-.69-187.53,0S376.89,60.46,212.09,48.32C184,46.25,87.12,23.35,0,31.51V68.69Z"/></g></g></svg>