<svg xmlns="http://www.w3.org/2000/svg" xmlns:xlink="http://www.w3.org/1999/xlink" viewBox="0 0 750 75.51"><defs><style>.cls-1{fill:url(#Degradado_sin_nombre_84);}.cls-2{fill:url(#Degradado_sin_nombre_84-2);}</style><radialGradient id="Degradado_sin_nombre_84" cx="558.19" cy="-87.42" r="340.41" gradientTransform="matrix(-0.45, 0.89, 1.32, 0.67, 560.4, -526.11)" gradientUnits="userSpaceOnUse"><stop offset="0" stop-color="#fff"/><stop offset="0.1" stop-color="#fcfcfe"/><stop offset="0.18" stop-color="#f1f3fb"/><stop offset="0.26" stop-color="#dfe4f6"/><stop offset="0.34" stop-color="#c6cff0"/><stop offset="0.41" stop-color="#a5b3e7"/><stop offset="0.48" stop-color="#7e92dc"/><stop offset="0.51" stop-color="#6a81d7"/><stop offset="0.74" stop-color="#376eba"/><stop offset="1" stop-color="#00599b"/></radialGradient><radialGradient id="Degradado_sin_nombre_84-2" cx="2009.78" cy="-68.76" r="327.39" gradientTransform="translate(-443.96 -1813.7) rotate(63.03) scale(1 1.48)" xlink:href="#Degradado_sin_nombre_84"/></defs><g id="Layer_2" data-name="Layer 2"><g id="L4"><path class="cls-1" d="M0,.34c3.94-3,53.36,14.93,70.43,24.45s30.07,14.77,39.21,13.67,34.28.84,45.46,5.82S205.72,72.42,235,63.48s24.72-10.82,37.3-10.12S312,65.93,319.78,65.51s23-.49,23.8,0S358.79,72,358.79,72H0Z"/><path class="cls-2" d="M750,11c-3.94-3-53.36,4.24-70.43,13.76S649.5,39.56,640.36,38.46s-34.28.84-45.46,5.82S544.28,72.42,515,63.48s-24.72-10.82-37.3-10.12S438,65.93,430.22,65.51s-23-.49-23.8,0l-14.94,10L750,72.05Z"/></g></g></svg>