<svg xmlns="http://www.w3.org/2000/svg" xmlns:xlink="http://www.w3.org/1999/xlink" viewBox="0 0 750 242.51"><defs><style>.cls-1{fill:#003560;}.cls-2{fill:url(#Degradado_sin_nombre_53);}.cls-3{fill:url(#Degradado_sin_nombre_21);}.cls-4{fill:url(#Degradado_sin_nombre_53-2);}.cls-5{fill:url(#Degradado_sin_nombre_6);}.cls-6{fill:url(#Degradado_sin_nombre_44);}.cls-7{fill:url(#Degradado_sin_nombre_2);}.cls-8{fill:url(#Degradado_sin_nombre_2-2);}.cls-9{fill:url(#Degradado_sin_nombre_6-2);}.cls-10{fill:url(#Degradado_sin_nombre_6-3);}.cls-11{fill:url(#Degradado_sin_nombre_258);}</style><linearGradient id="Degradado_sin_nombre_53" x1="363" y1="111" x2="287.24" y2="204.62" gradientUnits="userSpaceOnUse"><stop offset="0" stop-color="#006ab2"/><stop offset="0.11" stop-color="#005b9b"/><stop offset="0.25" stop-color="#004a81"/><stop offset="0.4" stop-color="#003e6f"/><stop offset="0.56" stop-color="#003764"/><stop offset="0.74" stop-color="#003560"/></linearGradient><linearGradient id="Degradado_sin_nombre_21" x1="252.86" y1="82.04" x2="252.86" y2="223.14" gradientUnits="userSpaceOnUse"><stop offset="0" stop-color="#006ab2"/><stop offset="0.04" stop-color="#0061a3"/><stop offset="0.12" stop-color="#00518b"/><stop offset="0.22" stop-color="#004478"/><stop offset="0.33" stop-color="#003c6a"/><stop offset="0.47" stop-color="#003662"/><stop offset="0.74" stop-color="#003560"/></linearGradient><linearGradient id="Degradado_sin_nombre_53-2" x1="594.72" y1="141.36" x2="536.42" y2="213.4" xlink:href="#Degradado_sin_nombre_53"/><linearGradient id="Degradado_sin_nombre_6" x1="700.24" y1="141.27" x2="700.24" y2="58.42" gradientUnits="userSpaceOnUse"><stop offset="0" stop-color="#006ab2" stop-opacity="0"/><stop offset="0.39" stop-color="#016ab2" stop-opacity="0.01"/><stop offset="0.52" stop-color="#046bb3" stop-opacity="0.04"/><stop offset="0.62" stop-color="#0a6cb6" stop-opacity="0.1"/><stop offset="0.7" stop-color="#126eb8" stop-opacity="0.17"/><stop offset="0.77" stop-color="#1d70bc" stop-opacity="0.28"/><stop offset="0.83" stop-color="#2b73c1" stop-opacity="0.4"/><stop offset="0.89" stop-color="#3b77c6" stop-opacity="0.55"/><stop offset="0.94" stop-color="#4d7bcd" stop-opacity="0.73"/><stop offset="0.98" stop-color="#627fd4" stop-opacity="0.92"/><stop offset="1" stop-color="#6a81d7"/></linearGradient><linearGradient id="Degradado_sin_nombre_44" x1="96.43" y1="242.12" x2="96.43" y2="101.91" gradientUnits="userSpaceOnUse"><stop offset="0.26" stop-color="#006ab2" stop-opacity="0"/><stop offset="0.39" stop-color="#196fbb" stop-opacity="0.23"/><stop offset="0.55" stop-color="#3576c5" stop-opacity="0.5"/><stop offset="0.69" stop-color="#4c7bcd" stop-opacity="0.72"/><stop offset="0.82" stop-color="#5c7ed2" stop-opacity="0.87"/><stop offset="0.93" stop-color="#6680d6" stop-opacity="0.97"/><stop offset="1" stop-color="#6a81d7"/></linearGradient><linearGradient id="Degradado_sin_nombre_2" x1="536.33" y1="48.78" x2="734.09" y2="293.16" gradientUnits="userSpaceOnUse"><stop offset="0" stop-color="#006ab2"/><stop offset="0.18" stop-color="#005d9d"/><stop offset="0.74" stop-color="#003560"/></linearGradient><linearGradient id="Degradado_sin_nombre_2-2" x1="628.78" y1="53.65" x2="759.4" y2="215.07" xlink:href="#Degradado_sin_nombre_2"/><linearGradient id="Degradado_sin_nombre_6-2" x1="512.09" y1="242.51" x2="512.09" y2="149.67" xlink:href="#Degradado_sin_nombre_6"/><linearGradient id="Degradado_sin_nombre_6-3" x1="211.45" y1="144.28" x2="211.45" y2="90.93" xlink:href="#Degradado_sin_nombre_6"/><linearGradient id="Degradado_sin_nombre_258" x1="375" x2="375" y2="242.19" gradientUnits="userSpaceOnUse"><stop offset="0.07" stop-color="#45b5e5" stop-opacity="0"/><stop offset="0.43" stop-color="#45b5e5" stop-opacity="0.01"/><stop offset="0.56" stop-color="#46b3e4" stop-opacity="0.04"/><stop offset="0.65" stop-color="#49b0e4" stop-opacity="0.1"/><stop offset="0.72" stop-color="#4bace3" stop-opacity="0.17"/><stop offset="0.79" stop-color="#4fa7e1" stop-opacity="0.28"/><stop offset="0.84" stop-color="#54a0df" stop-opacity="0.4"/><stop offset="0.9" stop-color="#5998dd" stop-opacity="0.55"/><stop offset="0.94" stop-color="#608fdb" stop-opacity="0.73"/><stop offset="0.98" stop-color="#6785d8" stop-opacity="0.92"/><stop offset="1" stop-color="#6a81d7"/></linearGradient></defs><g id="Layer_2" data-name="Layer 2"><g id="L5"><polygon class="cls-1" points="749.76 206.33 749.96 206.33 749.94 104.61 722.09 61.3 684.58 58.42 662.13 61.33 653.02 76.31 600.6 101.92 575.25 94.23 537.74 97.11 516.1 138.87 472.82 149.67 433.88 186.39 374.98 169.11 313.98 90.51 293.51 78.95 254.28 89.91 198.42 116.55 143.92 172.71 105.69 157.59 81.65 133.59 71.55 103.83 46.55 101.91 0 150.91 0 242.19 749.95 242.11 749.75 206.33 749.76 206.33"/><polygon class="cls-2" points="292.99 78.95 251.7 90.92 218.19 106.94 286.94 85.11 288.38 99.03 352.23 242.15 315.75 137.43 312.87 118.23 313.35 111.03 317.67 131.19 345.02 195.99 362.79 208.47 429.5 211.83 433.11 186.39 374.31 169.11 313.43 90.51 292.99 78.95"/><polygon class="cls-3" points="288.38 99.03 225.99 126.39 192.87 181.11 232.22 134.07 271.11 132.15 298.46 193.59 307.11 197.43 312.87 209.43 309.5 183.51 294.63 160.55 285.99 130.23 304.58 135.35 288.38 99.03"/><polygon class="cls-4" points="471.99 149.67 504.38 173.43 612.87 221.91 629.18 242.12 617.66 215.19 524.54 166.23 520.23 149.67 526.47 146.55 625.83 186.39 535.59 141.27 532.71 128.79 532.51 105.38 515.18 138.87 471.99 149.67"/><polygon class="cls-5" points="651.87 76.31 689.66 71.67 705.5 93.75 693.99 93.75 748.63 141.27 748.61 104.61 720.8 61.3 683.37 58.42 660.96 61.33 651.87 76.31"/><polygon class="cls-6" points="89.67 169.11 68.06 122.31 81.92 177.75 113.42 242.12 71.72 242.12 57.52 131.31 46.1 116.19 0.01 150.91 46.47 101.91 71.42 103.83 81.5 133.59 105.5 157.59 143.66 172.71 192.87 222.39 163.82 242.12 149.43 242.12 89.67 169.11"/><polygon class="cls-7" points="536.78 97.11 532.51 105.38 532.71 128.79 535.59 141.27 625.83 186.39 590.87 182.61 562.89 186.39 617.66 215.19 629.18 242.12 748.62 242.11 656.3 216.74 651.99 193.34 552.79 114.36 558.56 105.38 567.75 110.54 660.96 193.61 748.63 222.21 748.63 206.33 599.54 101.92 574.23 94.23 536.78 97.11"/><path class="cls-8" d="M651.86,76.31l-28.69,14L674,94.23l25.26,11.15,49.34,92.48V182.72l-46-81.43L675.74,85s-28.08-1.8-26.28-1.8S651.86,76.31,651.86,76.31Z"/><polygon class="cls-9" points="471.99 149.67 500.94 178.63 542.78 197.86 612.87 221.91 538.66 216.74 518.37 216.74 504.38 228.14 494.31 242.51 411.31 242.12 429.5 211.83 433.11 186.39 471.99 149.67"/><polygon class="cls-10" points="251.7 90.92 198.07 116.55 171.2 144.28 203.43 126.07 225.99 126.39 218.19 117.6 251.7 90.92"/><rect class="cls-11" width="750" height="242.19"/></g></g></svg>