<svg xmlns="http://www.w3.org/2000/svg" xmlns:xlink="http://www.w3.org/1999/xlink" viewBox="0 0 750 227.92"><defs><style>.cls-1{fill:url(#Degradado_sin_nombre_54);}.cls-2{fill:url(#Degradado_sin_nombre_88);}.cls-3{fill:url(#Degradado_sin_nombre_87);}.cls-4{fill:url(#Degradado_sin_nombre_55);}.cls-5{fill:url(#Degradado_sin_nombre_55-2);}.cls-6{fill:url(#Degradado_sin_nombre_62);}.cls-7{fill:url(#Degradado_sin_nombre_427);}.cls-8{fill:url(#Degradado_sin_nombre_55-3);}.cls-9{fill:url(#Degradado_sin_nombre_70);}.cls-10{fill:url(#Degradado_sin_nombre_64);}.cls-11{fill:url(#Degradado_sin_nombre_427-2);}.cls-12{fill:url(#Degradado_sin_nombre_70-2);}.cls-13{fill:url(#Degradado_sin_nombre_64-2);}.cls-14{fill:url(#Degradado_sin_nombre_55-4);}.cls-15{fill:url(#Degradado_sin_nombre_55-5);}.cls-16{fill:url(#Degradado_sin_nombre_55-6);}.cls-17{fill:url(#Degradado_sin_nombre_55-7);}.cls-18{fill:url(#Degradado_sin_nombre_427-3);}.cls-19{fill:url(#Degradado_sin_nombre_427-4);}.cls-20{fill:url(#Degradado_sin_nombre_56);}.cls-21{fill:url(#Degradado_sin_nombre_55-8);}.cls-22{fill:url(#Degradado_sin_nombre_55-9);}.cls-23{fill:url(#Degradado_sin_nombre_55-10);}.cls-24{fill:url(#Degradado_sin_nombre_55-11);}.cls-25{fill:url(#Degradado_sin_nombre_55-12);}.cls-26{fill:url(#Degradado_sin_nombre_427-5);}.cls-27{fill:url(#Degradado_sin_nombre_55-13);}.cls-28{fill:url(#Degradado_sin_nombre_55-14);}.cls-29{fill:url(#Degradado_sin_nombre_55-15);}.cls-30{fill:url(#Degradado_sin_nombre_536);}</style><linearGradient id="Degradado_sin_nombre_54" x1="294.59" y1="-27.29" x2="364.34" y2="309.17" gradientUnits="userSpaceOnUse"><stop offset="0" stop-color="#006ab2"/><stop offset="0.33" stop-color="#006ab2"/><stop offset="0.44" stop-color="#0e5d9d"/><stop offset="0.69" stop-color="#2b4171"/><stop offset="0.88" stop-color="#3c3056"/><stop offset="1" stop-color="#432a4c"/></linearGradient><linearGradient id="Degradado_sin_nombre_88" x1="71.73" y1="-38.18" x2="551.77" y2="354.58" gradientUnits="userSpaceOnUse"><stop offset="0" stop-color="#006ab2"/><stop offset="0.29" stop-color="#006ab2"/><stop offset="1" stop-color="#432a4c"/></linearGradient><linearGradient id="Degradado_sin_nombre_87" x1="419.43" y1="92.7" x2="330.69" y2="336.01" gradientUnits="userSpaceOnUse"><stop offset="0" stop-color="#006ab2"/><stop offset="0.22" stop-color="#006ab2"/><stop offset="1" stop-color="#432a4c"/></linearGradient><linearGradient id="Degradado_sin_nombre_55" x1="291.91" y1="124.83" x2="1033.95" y2="47.68" gradientUnits="userSpaceOnUse"><stop offset="0" stop-color="#006ab2"/><stop offset="0.08" stop-color="#0a6cb5"/><stop offset="0.5" stop-color="#3e77c8"/><stop offset="0.82" stop-color="#5e7ed3"/><stop offset="1" stop-color="#6a81d7"/></linearGradient><linearGradient id="Degradado_sin_nombre_55-2" x1="351.26" y1="185.05" x2="704.9" y2="148.28" xlink:href="#Degradado_sin_nombre_55"/><linearGradient id="Degradado_sin_nombre_62" x1="401.28" y1="205.14" x2="671" y2="177.09" gradientUnits="userSpaceOnUse"><stop offset="0" stop-color="#006ab2"/><stop offset="0.04" stop-color="#066bb4" stop-opacity="0.94"/><stop offset="0.39" stop-color="#3075c3" stop-opacity="0.54"/><stop offset="0.67" stop-color="#507bce" stop-opacity="0.25"/><stop offset="0.88" stop-color="#637fd4" stop-opacity="0.07"/><stop offset="1" stop-color="#6a81d7" stop-opacity="0"/></linearGradient><linearGradient id="Degradado_sin_nombre_427" x1="412.39" y1="-58.38" x2="383.59" y2="172.74" gradientUnits="userSpaceOnUse"><stop offset="0" stop-color="#6a81d7"/><stop offset="0.14" stop-color="#618edb" stop-opacity="0.75"/><stop offset="0.28" stop-color="#589ade" stop-opacity="0.52"/><stop offset="0.42" stop-color="#51a4e0" stop-opacity="0.33"/><stop offset="0.55" stop-color="#4cabe2" stop-opacity="0.19"/><stop offset="0.68" stop-color="#48b1e4" stop-opacity="0.08"/><stop offset="0.81" stop-color="#46b4e5" stop-opacity="0.02"/><stop offset="0.92" stop-color="#45b5e5" stop-opacity="0"/></linearGradient><linearGradient id="Degradado_sin_nombre_55-3" x1="244.13" y1="76.09" x2="556.25" y2="43.64" xlink:href="#Degradado_sin_nombre_55"/><linearGradient id="Degradado_sin_nombre_70" x1="151.24" y1="-76.47" x2="196.56" y2="312.18" gradientUnits="userSpaceOnUse"><stop offset="0" stop-color="#006ab2"/><stop offset="0.39" stop-color="#006ab2"/><stop offset="1" stop-color="#432a4c"/></linearGradient><linearGradient id="Degradado_sin_nombre_64" x1="149.05" y1="69.97" x2="175.23" y2="248.29" gradientUnits="userSpaceOnUse"><stop offset="0" stop-color="#006ab2"/><stop offset="0.16" stop-color="#006ab2"/><stop offset="0.29" stop-color="#0367ad"/><stop offset="0.43" stop-color="#0c5fa0"/><stop offset="0.58" stop-color="#1b5089"/><stop offset="0.74" stop-color="#303d6a"/><stop offset="0.86" stop-color="#432a4c"/></linearGradient><linearGradient id="Degradado_sin_nombre_427-2" x1="215.31" y1="-75.2" x2="281.88" y2="305.44" xlink:href="#Degradado_sin_nombre_427"/><linearGradient id="Degradado_sin_nombre_70-2" x1="541.31" y1="-48.97" x2="582.63" y2="305.44" xlink:href="#Degradado_sin_nombre_70"/><linearGradient id="Degradado_sin_nombre_64-2" x1="551.8" y1="92.45" x2="574.88" y2="249.66" xlink:href="#Degradado_sin_nombre_64"/><linearGradient id="Degradado_sin_nombre_55-4" x1="375.49" y1="210.37" x2="570.66" y2="190.07" xlink:href="#Degradado_sin_nombre_55"/><linearGradient id="Degradado_sin_nombre_55-5" x1="396.05" y1="171.21" x2="1260.81" y2="81.3" xlink:href="#Degradado_sin_nombre_55"/><linearGradient id="Degradado_sin_nombre_55-6" x1="391.84" y1="168.92" x2="1151.78" y2="89.91" xlink:href="#Degradado_sin_nombre_55"/><linearGradient id="Degradado_sin_nombre_55-7" x1="542.95" y1="189.18" x2="867.16" y2="155.47" xlink:href="#Degradado_sin_nombre_55"/><linearGradient id="Degradado_sin_nombre_427-3" x1="561.5" y1="108.78" x2="584.35" y2="239.4" xlink:href="#Degradado_sin_nombre_427"/><linearGradient id="Degradado_sin_nombre_427-4" x1="658.22" y1="-31.76" x2="714.56" y2="290.43" xlink:href="#Degradado_sin_nombre_427"/><linearGradient id="Degradado_sin_nombre_56" x1="629.24" y1="254.36" x2="822.83" y2="101.19" gradientUnits="userSpaceOnUse"><stop offset="0" stop-color="#006ab2"/><stop offset="0.2" stop-color="#026ab3"/><stop offset="0.29" stop-color="#0a6cb5"/><stop offset="0.37" stop-color="#176fba"/><stop offset="0.43" stop-color="#2a73c0"/><stop offset="0.49" stop-color="#4278c9"/><stop offset="0.54" stop-color="#5f7fd3"/><stop offset="0.55" stop-color="#6a81d7"/></linearGradient><linearGradient id="Degradado_sin_nombre_55-8" x1="552.99" y1="122.67" x2="606.04" y2="117.15" xlink:href="#Degradado_sin_nombre_55"/><linearGradient id="Degradado_sin_nombre_55-9" x1="554.48" y1="157.76" x2="767.78" y2="135.59" xlink:href="#Degradado_sin_nombre_55"/><linearGradient id="Degradado_sin_nombre_55-10" x1="-28.34" y1="159.78" x2="840.57" y2="69.44" xlink:href="#Degradado_sin_nombre_55"/><linearGradient id="Degradado_sin_nombre_55-11" x1="-28.43" y1="157.76" x2="814.31" y2="70.14" xlink:href="#Degradado_sin_nombre_55"/><linearGradient id="Degradado_sin_nombre_55-12" x1="76.96" y1="180.71" x2="400.03" y2="147.12" xlink:href="#Degradado_sin_nombre_55"/><linearGradient id="Degradado_sin_nombre_427-5" x1="91.27" y1="82.25" x2="119.51" y2="243.68" xlink:href="#Degradado_sin_nombre_427"/><linearGradient id="Degradado_sin_nombre_55-13" x1="86.81" y1="112.59" x2="139.86" y2="107.08" xlink:href="#Degradado_sin_nombre_55"/><linearGradient id="Degradado_sin_nombre_55-14" x1="88.29" y1="147.69" x2="301.6" y2="125.51" xlink:href="#Degradado_sin_nombre_55"/><linearGradient id="Degradado_sin_nombre_55-15" x1="502.52" y1="203.63" x2="565.4" y2="197.09" xlink:href="#Degradado_sin_nombre_55"/><linearGradient id="Degradado_sin_nombre_536" x1="240.55" y1="97.38" x2="124.99" y2="198.54" gradientUnits="userSpaceOnUse"><stop offset="0.07" stop-color="#45b5e5" stop-opacity="0"/><stop offset="0.28" stop-color="#45b4e5" stop-opacity="0.01"/><stop offset="0.42" stop-color="#47b2e4" stop-opacity="0.05"/><stop offset="0.53" stop-color="#49afe3" stop-opacity="0.12"/><stop offset="0.63" stop-color="#4daae2" stop-opacity="0.22"/><stop offset="0.72" stop-color="#52a3e0" stop-opacity="0.34"/><stop offset="0.81" stop-color="#579bde" stop-opacity="0.5"/><stop offset="0.89" stop-color="#5e92db" stop-opacity="0.68"/><stop offset="0.96" stop-color="#6687d9" stop-opacity="0.89"/><stop offset="1" stop-color="#6a81d7"/></linearGradient></defs><g id="Layer_2" data-name="Layer 2"><g id="L6"><polygon class="cls-1" points="489.61 227.61 480.48 227.61 415.48 201.76 411.9 207.46 395.1 217.02 382.85 227.61 393.54 213.52 384.46 200.04 364.62 217.02 374.73 203.99 348.9 170.68 321.18 141.92 273.66 130.43 270.78 126.44 271.5 105.2 243.06 85.24 203.35 94.74 183.55 122.88 209.19 142.26 329.08 227.61 481.6 227.61 489.61 227.61"/><path class="cls-2" d="M383.75,40.93S309-3.27,300.93.39l-55.18,74-42.4,20.36-19.8,28.14-2.31-.14,0,39.82,0,65.05H583.52Z"/><polygon class="cls-3" points="348.9 170.68 321.18 141.92 273.66 130.43 270.78 126.44 271.5 105.2 243.06 85.24 236.94 85.24 203.35 94.74 183.55 122.88 181.24 122.74 181.24 227.61 597.46 227.61 480.48 227.61 415.48 203.55 411.9 207.46 395.1 217.02 382.85 227.61 393.54 213.52 384.46 200.04 364.62 217.02 374.73 203.99 348.9 170.68"/><path class="cls-4" d="M300.93.39l7.53,10.76-3.77,34.17,24.39,34.47,11.06,3.87V91l48.95,52.24L345,90.08l.18-5.32-.18-5-9.79-8-1.8-24.21,6.12-.72L345,52.05l10,2.75,107.64,94h8.28l27.72,12.55,19.08,14.26,10.8,17.94-34.69,34.1L540,187,383.75,40.93S305.34-4.63,300.93.39Z"/><path class="cls-5" d="M462.66,148.76l-38.88,10.8-5.56,18.75L399.66,187l-35,30,33.12-38.71s17.72-11.55,17.74-13,2.74-7.26,2.74-7.26l35.58-17Z"/><polygon class="cls-6" points="420.63 171.28 464.53 194.44 469.48 203.99 491.46 227.61 466.62 207.05 462.38 195.56 441.78 197.17 437.1 191.6 406.71 183.72 418.22 178.31 420.63 171.28"/><path class="cls-7" d="M489.26,142.22,395.1,74.38,370.86,44.84l-33.6-21.9h-5.57l7.49,5.22-7.49-1.44L345.19,48,324.3,24l-1.92-12.81L303.23.09s22.37,4.76,80.52,40.84Z"/><polygon class="cls-8" points="315.18 60.14 287.57 58.46 252.47 71.15 285.18 53.96 290.7 53 291.18 50.84 304.69 45.32 334.35 60.14 346.11 79.28 345.01 90.08 345.01 79.79 335.22 71.81 315.18 60.14"/><polygon class="cls-9" points="245.75 74.38 103.08 86.15 0 174.85 0 227.61 373.39 227.61 302.87 198.14 242.59 145.34 218.83 136.18 209.19 142.26 245.75 74.38"/><polygon class="cls-10" points="199.61 132.81 238.48 85.24 166.98 102.82 131.63 98.59 83.57 153.66 0 180.07 0 201.31 0 215.46 0 227.61 344.38 227.61 242.59 145.34 218.83 136.18 209.19 142.26 199.61 132.81"/><polygon class="cls-11" points="344.38 227.61 242.59 145.34 218.83 136.18 209.19 142.26 179.61 155.85 201.13 154.97 244.1 176.79 250.97 168.08 344.38 227.61"/><polygon class="cls-12" points="624.08 84.55 569.26 96.22 447 184.93 389.96 227.61 750 227.61 750 188.01 750 166.22 750 204.96 708.77 152.16 685.02 143 675.37 149.08 624.08 84.55"/><polygon class="cls-13" points="665.79 139.63 633.17 109.64 597.81 108.67 549.75 163.73 464.57 190.14 417.81 211.39 402.21 227.61 389.96 227.61 750 227.61 750 204.96 708.77 152.16 685.02 143 675.37 149.08 665.79 139.63"/><path class="cls-14" d="M437.1,191.6l-21.62,10.17-3.58,5.69L395.1,217s-12.85,13.09-12.25,10.59,10.69-14.09,10.69-14.09l13.17-6.47v-6.49l4.83-2.84,9.09-10.39Z"/><polygon class="cls-15" points="624.08 84.55 569.26 96.22 448.39 183.67 424.14 205.44 450.73 183.67 554.16 119.47 557.49 113.71 573.33 97.41 617.61 95.35 665.79 139.63 645.28 157.94 610.41 211.88 645.79 162.67 675.37 149.08 624.08 84.55"/><polygon class="cls-16" points="633.17 109.64 597.81 108.67 549.75 163.73 464.57 190.14 417.81 211.39 462.09 186.78 538.77 157.94 595.53 104.92 622.43 99.78 633.17 109.64"/><polygon class="cls-17" points="645.28 157.94 595.1 171.5 554.16 208.61 595.1 175.65 638.76 168.03 645.28 157.94"/><polygon class="cls-18" points="638.76 168.03 610.41 211.88 567.32 211.39 515.38 227.61 554.16 208.61 595.1 175.65 638.76 168.03"/><polygon class="cls-19" points="750 227.61 708.77 152.16 685.02 143 675.37 149.08 645.79 162.67 667.32 161.79 710.28 183.61 717.16 174.9 750 227.61"/><polygon class="cls-20" points="685.02 143 675.37 149.08 708.1 157.94 750 227.61 708.77 152.16 685.02 143"/><polygon class="cls-21" points="554.16 119.47 562.17 120.23 570.2 128.59 570.82 128.01 563.49 118.51 557.01 114.54 554.16 119.47"/><polygon class="cls-22" points="559.94 152.06 576.33 152.06 583.77 155.58 597.09 155.58 622.69 164.04 624.54 163.54 598.17 152.06 586.47 150.61 581.43 146.29 567.85 143 559.94 152.06"/><polygon class="cls-23" points="245.75 74.38 103.08 86.15 0 173.59 0 195.37 0 173.59 87.98 109.39 91.31 103.63 107.15 87.33 151.43 85.27 238.48 85.24 199.61 132.81 179.1 151.12 144.23 201.81 179.61 155.85 209.19 142.26 245.75 74.38"/><polygon class="cls-24" points="166.98 102.82 131.63 98.59 83.57 153.66 0 180.07 0 201.31 0 176.71 72.59 147.87 129.35 94.85 238.48 85.24 166.98 102.82"/><polygon class="cls-25" points="179.1 151.12 128.91 161.42 87.98 198.53 128.91 165.58 172.58 161.21 179.1 151.12"/><polygon class="cls-26" points="172.58 161.21 144.23 201.81 101.13 201.31 49.2 227.61 87.98 198.53 128.91 165.58 172.58 161.21"/><polygon class="cls-27" points="87.98 109.39 95.99 110.16 104.01 118.51 104.64 117.93 97.31 108.43 90.83 104.46 87.98 109.39"/><polygon class="cls-28" points="93.75 141.99 110.15 141.99 117.59 145.51 130.91 145.51 156.5 153.97 158.36 153.47 131.99 141.99 120.29 140.53 115.25 136.21 101.66 132.93 93.75 141.99"/><polygon class="cls-29" points="501.7 178.63 505.81 185.96 504.75 191.83 525.49 227.61 525.49 227.61 509.25 191.29 509.97 185.17 507.92 176.7 501.7 178.63"/><polygon class="cls-30" points="254.9 144.03 201.92 160.4 161.52 151.72 144.17 122.54 167.1 147.87 201.92 147.87 230.99 131.91 254.9 144.03"/></g></g></svg>