<?xml version="1.0" encoding="UTF-8"?><svg xmlns="http://www.w3.org/2000/svg" xmlns:xlink="http://www.w3.org/1999/xlink" viewBox="0 0 510.36 500"><defs><style>.en{fill:url(#ac);}.en,.eo,.ep,.eq,.er,.es,.et,.eu,.ev,.ew,.ex,.ey,.f`,.fa,.fb,.fc,.fd,.fe,.ff,.fg,.fh,.fi,.fj,.fk,.fl,.fm,.fn,.fo,.fp,.fq,.fr,.fs,.ft,.fu,.fv,.fw,.fx,.fy,.g`,.ga,.gb,.gc,.gd,.ge,.gf,.gg,.gh,.gi,.gj,.gk,.gl,.gm,.gn,.go,.gp,.gq,.gr,.gs,.gt,.gu,.gv,.gw,.gx,.gy,.h`,.ha,.hb,.hc,.hd,.he,.hf,.hg,.hh,.hi,.hj,.hk,.hl,.hm,.hn,.ho,.hp,.hq,.hr,.hs,.ht,.hu,.hv,.hw,.hx,.hy,.i`,.ia,.ib,.ic,.id,.ie,.if,.ig,.ih,.ii,.ij,.ik,.il,.im,.in,.io,.ip,.iq,.ir,.is,.it,.iu,.iv,.iw,.ix,.iy,.j`,.ja,.jb,.jc,.jd,.je,.jf,.jg,.jh,.ji,.jj,.jk,.jl,.jm,.jn,.jo,.jp,.jq,.jr,.js,.jt,.ju{mix-blend-mode:color-dodge;}.eo{fill:url(#bl);}.ep{fill:url(#e`);}.eq{fill:url(#bu);}.er{fill:url(#n);}.es{fill:url(#cj);}.et{fill:url(#dv);}.eu{fill:url(#ag);}.ev{fill:url(#dm);}.ew{fill:url(#cs);}.ex{fill:url(#ch);}.ey{fill:url(#ao);}.f`{fill:url(#dp);}.fa{fill:url(#l);}.fb{fill:url(#cd);}.fc{fill:url(#bd);}.fd{fill:url(#cq);}.fe{fill:url(#br);}.ff{fill:url(#ed);}.fg{fill:url(#k);}.fh{fill:url(#el);}.fi{fill:url(#ei);}.fj{fill:url(#cn);}.fk{fill:url(#ec);}.fl{fill:url(#al);}.fm{fill:url(#ae);}.fn{fill:url(#av);}.fo{fill:url(#as);}.fp{fill:url(#ce);}.fq{fill:url(#ct);}.fr{fill:url(#y);}.fs{fill:url(#eh);}.ft{fill:url(#ah);}.fu{fill:url(#cg);}.fv{fill:url(#g);}.fw{fill:url(#da);}.fx{fill:url(#bq);}.fy{fill:url(#ap);}.g`{fill:url(#ci);}.jv{isolation:isolate;}.ga{fill:url(#r);}.gb{fill:url(#du);}.jw{fill:url(#e);mix-blend-mode:soft-light;opacity:.58;}.gc{fill:url(#cf);}.gd{fill:url(#u);}.ge{fill:url(#an);}.gf{fill:url(#i);}.gg{fill:url(#dn);}.gh{fill:url(#ab);}.gi{fill:url(#ay);}.gj{fill:url(#cl);}.gk{fill:url(#bb);}.gl{fill:url(#ek);}.gm{fill:url(#h);}.gn{fill:url(#ad);}.go{fill:url(#cm);}.gp{fill:url(#ea);}.gq{fill:url(#aq);}.gr{fill:url(#ai);}.gs{fill:url(#bj);}.gt{fill:url(#ej);}.gu{fill:url(#q);}.gv{fill:url(#dx);}.gw{fill:url(#cy);}.gx{fill:url(#cx);}.gy{fill:url(#bp);}.h`{fill:url(#cw);}.ha{fill:url(#dr);}.hb{fill:url(#bh);}.hc{fill:url(#df);}.hd{fill:url(#p);}.he{fill:url(#bf);}.hf{fill:url(#a`);}.hg{fill:url(#ax);}.hh{fill:url(#bo);}.hi{fill:url(#bs);}.hj{fill:url(#dy);}.hk{fill:url(#dq);}.hl{fill:url(#cu);}.hm{fill:url(#t);}.hn{fill:url(#x);}.ho{fill:url(#dc);}.hp{fill:url(#o);}.hq{fill:url(#cr);}.hr{fill:url(#c`);}.hs{fill:url(#cb);}.ht{fill:url(#aa);}.hu{fill:url(#dd);}.hv{fill:url(#cp);}.hw{fill:url(#ef);}.hx{fill:url(#dh);}.hy{fill:url(#dt);}.i`{fill:url(#bk);}.ia{fill:url(#em);}.ib{fill:url(#eb);}.ic{fill:url(#be);}.id{fill:url(#d`);}.ie{fill:url(#de);}.if{fill:url(#m);}.ig{fill:url(#bc);}.ih{fill:url(#bi);}.ii{fill:url(#aj);}.ij{fill:url(#dw);}.ik{fill:url(#am);}.il{fill:url(#db);}.im{fill:url(#aw);}.in{fill:url(#v);}.io{fill:url(#dj);}.ip{fill:url(#dk);}.iq{fill:url(#dl);}.ir{fill:url(#f);}.is{fill:url(#au);}.it{fill:url(#by);}.iu{fill:url(#cc);}.iv{fill:url(#ds);}.iw{fill:url(#bn);}.ix{fill:url(#af);}.iy{fill:url(#bm);}.j`{fill:url(#ar);}.ja{fill:url(#bx);}.jb{fill:url(#ck);}.jc{fill:url(#w);}.jd{fill:url(#bw);}.je{fill:url(#do);}.jf{fill:url(#cv);}.jg{fill:url(#bg);}.jh{fill:url(#eg);}.ji{fill:url(#ee);}.jj{fill:url(#s);}.jk{fill:url(#b`);}.jl{fill:url(#bt);}.jm{fill:url(#j);}.jn{fill:url(#bv);}.jo{fill:url(#ak);}.jp{fill:url(#ca);}.jq{fill:url(#at);}.jr{fill:url(#di);}.js{fill:url(#ba);}.jt{fill:url(#dg);}.ju{fill:url(#co);}</style><radialGradient id="e" cx="257.84" cy="250" fx="257.84" fy="250" r="250" gradientTransform="matrix(1, 0, 0, 1, 0, 0)" gradientUnits="userSpaceOnUse"><stop offset="0" stop-color="#0096a4"/><stop offset="1" stop-color="#040100"/></radialGradient><radialGradient id="f" cx="198.36" cy="158.79" fx="198.36" fy="158.79" r="28.53" gradientTransform="matrix(1, 0, 0, 1, 0, 0)" gradientUnits="userSpaceOnUse"><stop offset="0" stop-color="#fff"/><stop offset="0" stop-color="#f1f1f1" stop-opacity=".95"/><stop offset=".04" stop-color="#bfbfbf" stop-opacity=".75"/><stop offset=".08" stop-color="#919191" stop-opacity=".57"/><stop offset=".12" stop-color="#6a6a6a" stop-opacity=".42"/><stop offset=".16" stop-color="#494949" stop-opacity=".29"/><stop offset=".2" stop-color="#2e2e2e" stop-opacity=".18"/><stop offset=".24" stop-color="#191919" stop-opacity=".1"/><stop offset=".3" stop-color="#0b0b0b" stop-opacity=".04"/><stop offset=".36" stop-color="#020202" stop-opacity=".01"/><stop offset=".45" stop-color="#000" stop-opacity="0"/></radialGradient><radialGradient id="g" cx="172.77" cy="177.85" fx="172.77" fy="177.85" r="28.53" xlink:href="#f"/><radialGradient id="h" cx="260.48" cy="97.5" fx="260.48" fy="97.5" r="18.43" xlink:href="#f"/><radialGradient id="i" cx="324.81" cy="78.32" fx="324.81" fy="78.32" r="6.47" xlink:href="#f"/><radialGradient id="j" cx="244.62" cy="124.71" fx="244.62" fy="124.71" r="6.47" xlink:href="#f"/><radialGradient id="k" cx="318.33" cy="133.04" fx="318.33" fy="133.04" r="6.47" xlink:href="#f"/><radialGradient id="l" cx="243.16" cy="76.54" fx="243.16" fy="76.54" r="6.47" xlink:href="#f"/><radialGradient id="m" cx="351.06" cy="92.64" fx="351.06" fy="92.64" r="6.47" xlink:href="#f"/><radialGradient id="n" cx="247.53" cy="218.7" fx="247.53" fy="218.7" r="6.47" xlink:href="#f"/><radialGradient id="o" cx="331.28" cy="163.81" fx="331.28" fy="163.81" r="6.47" xlink:href="#f"/><radialGradient id="p" cx="324.81" cy="181.02" fx="324.81" fy="181.02" r="6.47" xlink:href="#f"/><radialGradient id="q" cx="70.65" cy="64.56" fx="70.65" fy="64.56" r="6.47" xlink:href="#f"/><radialGradient id="r" cx="175.91" cy="72.59" fx="175.91" fy="72.59" r="6.47" xlink:href="#f"/><radialGradient id="s" cx="207.78" cy="139.51" fx="207.78" fy="139.51" r="6.47" xlink:href="#f"/><radialGradient id="t" cx="187.87" cy="142.41" fx="187.87" fy="142.41" r="6.47" xlink:href="#f"/><radialGradient id="u" cx="254.01" cy="184.33" fx="254.01" fy="184.33" r="6.47" xlink:href="#f"/><radialGradient id="v" cx="337.75" cy="71.03" fx="337.75" fy="71.03" r="6.47" xlink:href="#f"/><radialGradient id="w" cx="230.22" cy="152.44" fx="230.22" fy="152.44" r="6.47" xlink:href="#f"/><radialGradient id="x" cx="201.3" cy="218.7" fx="201.3" fy="218.7" r="6.47" xlink:href="#f"/><radialGradient id="y" cx="201.3" cy="116.31" fx="201.3" fy="116.31" r="6.47" xlink:href="#f"/><radialGradient id="a`" cx="278.92" cy="120.09" fx="278.92" fy="120.09" r="6.47" xlink:href="#f"/><radialGradient id="aa" cx="236.69" cy="97.5" fx="236.69" fy="97.5" r="6.47" xlink:href="#f"/><radialGradient id="ab" cx="318.33" cy="120.09" fx="318.33" fy="120.09" r="6.47" xlink:href="#f"/><radialGradient id="ac" cx="272.44" cy="64.56" fx="272.44" fy="64.56" r="6.47" xlink:href="#f"/><radialGradient id="ad" cx="353.3" cy="163.81" fx="353.3" fy="163.81" r="6.47" xlink:href="#f"/><radialGradient id="ae" cx="201.3" cy="126.57" fx="201.3" fy="126.57" r="6.47" xlink:href="#f"/><radialGradient id="af" cx="207.78" cy="66.12" fx="207.78" fy="66.12" r="6.47" xlink:href="#f"/><radialGradient id="ag" cx="211.83" cy="228.29" fx="211.83" fy="228.29" r="6.47" xlink:href="#f"/><radialGradient id="ah" cx="247.53" cy="251.94" fx="247.53" fy="251.94" r="6.47" xlink:href="#f"/><radialGradient id="ai" cx="198.36" cy="264.03" fx="198.36" fy="264.03" r="6.47" xlink:href="#f"/><radialGradient id="aj" cx="166.3" cy="199.86" fx="166.3" fy="199.86" r="6.47" xlink:href="#f"/><radialGradient id="ak" cx="184.3" cy="171.19" fx="184.3" fy="171.19" r="6.47" xlink:href="#f"/><radialGradient id="al" cx="220.27" cy="109.84" fx="220.27" fy="109.84" r="6.47" xlink:href="#f"/><radialGradient id="am" cx="298.62" cy="84.79" fx="298.62" fy="84.79" r="6.47" xlink:href="#f"/><radialGradient id="an" cx="257.57" cy="79.07" fx="257.57" fy="79.07" r="6.47" xlink:href="#f"/><radialGradient id="ao" cx="370.96" cy="296.43" fx="370.96" fy="296.43" r="28.53" xlink:href="#f"/><radialGradient id="ap" cx="345.38" cy="315.49" fx="345.38" fy="315.49" r="28.53" gradientTransform="translate(150.13 -109.59) rotate(22.92)" xlink:href="#f"/><radialGradient id="aq" cx="433.09" cy="235.14" fx="433.09" fy="235.14" r="18.43" gradientTransform="translate(220.52 -209.46) rotate(35.95)" xlink:href="#f"/><radialGradient id="ar" cx="154.01" cy="253.57" fx="154.01" fy="253.57" r="18.43" xlink:href="#f"/><radialGradient id="as" cx="497.41" cy="215.95" fx="497.41" fy="215.95" r="6.47" xlink:href="#f"/><radialGradient id="at" cx="417.22" cy="262.35" fx="417.22" fy="262.35" r="6.47" xlink:href="#f"/><radialGradient id="au" cx="490.94" cy="270.68" fx="490.94" fy="270.68" r="6.47" xlink:href="#f"/><radialGradient id="av" cx="415.77" cy="214.18" fx="415.77" fy="214.18" r="6.47" xlink:href="#f"/><radialGradient id="aw" cx="420.14" cy="356.34" fx="420.14" fy="356.34" r="6.47" xlink:href="#f"/><radialGradient id="ax" cx="503.89" cy="301.45" fx="503.89" fy="301.45" r="6.47" xlink:href="#f"/><radialGradient id="ay" cx="497.41" cy="318.65" fx="497.41" fy="318.65" r="6.47" xlink:href="#f"/><radialGradient id="b`" cx="243.26" cy="202.19" fx="243.26" fy="202.19" r="6.47" xlink:href="#f"/><radialGradient id="ba" cx="348.51" cy="210.23" fx="348.51" fy="210.23" r="6.47" xlink:href="#f"/><radialGradient id="bb" cx="380.38" cy="277.15" fx="380.38" fy="277.15" r="6.47" xlink:href="#f"/><radialGradient id="bc" cx="360.48" cy="280.05" fx="360.48" fy="280.05" r="6.47" xlink:href="#f"/><radialGradient id="bd" cx="426.61" cy="321.96" fx="426.61" fy="321.96" r="6.47" xlink:href="#f"/><radialGradient id="be" cx="402.82" cy="290.08" fx="402.82" fy="290.08" r="6.47" xlink:href="#f"/><radialGradient id="bf" cx="373.91" cy="356.34" fx="373.91" fy="356.34" r="6.47" xlink:href="#f"/><radialGradient id="bg" cx="373.91" cy="253.95" fx="373.91" fy="253.95" r="6.47" xlink:href="#f"/><radialGradient id="bh" cx="451.52" cy="257.73" fx="451.52" fy="257.73" r="6.47" xlink:href="#f"/><radialGradient id="bi" cx="409.3" cy="235.14" fx="409.3" fy="235.14" r="6.47" xlink:href="#f"/><radialGradient id="bj" cx="490.94" cy="257.73" fx="490.94" fy="257.73" r="6.47" xlink:href="#f"/><radialGradient id="bk" cx="445.05" cy="202.19" fx="445.05" fy="202.19" r="6.47" xlink:href="#f"/><radialGradient id="bl" cx="373.91" cy="264.2" fx="373.91" fy="264.2" r="6.47" xlink:href="#f"/><radialGradient id="bm" cx="380.38" cy="203.76" fx="380.38" fy="203.76" r="6.47" xlink:href="#f"/><radialGradient id="bn" cx="384.44" cy="365.93" fx="384.44" fy="365.93" r="6.47" xlink:href="#f"/><radialGradient id="bo" cx="420.14" cy="389.58" fx="420.14" fy="389.58" r="6.47" xlink:href="#f"/><radialGradient id="bp" cx="370.96" cy="401.66" fx="370.96" fy="401.66" r="6.47" xlink:href="#f"/><radialGradient id="bq" cx="338.9" cy="337.5" fx="338.9" fy="337.5" r="6.47" xlink:href="#f"/><radialGradient id="br" cx="356.91" cy="308.82" fx="356.91" fy="308.82" r="6.47" xlink:href="#f"/><radialGradient id="bs" cx="392.87" cy="247.47" fx="392.87" fy="247.47" r="6.47" xlink:href="#f"/><radialGradient id="bt" cx="471.23" cy="222.43" fx="471.23" fy="222.43" r="6.47" xlink:href="#f"/><radialGradient id="bu" cx="430.17" cy="216.7" fx="430.17" fy="216.7" r="6.47" xlink:href="#f"/><radialGradient id="bv" cx="119.36" cy="285.93" fx="119.36" fy="285.93" r="28.53" gradientTransform="translate(237.15 -.65) rotate(45)" xlink:href="#f"/><radialGradient id="bw" cx="93.78" cy="304.99" fx="93.78" fy="304.99" r="28.53" xlink:href="#f"/><radialGradient id="bx" cx="181.49" cy="224.64" fx="181.49" fy="224.64" r="18.43" xlink:href="#f"/><radialGradient id="by" cx="245.81" cy="205.46" fx="245.81" fy="205.46" r="6.47" xlink:href="#f"/><radialGradient id="c`" cx="165.62" cy="251.85" fx="165.62" fy="251.85" r="6.47" xlink:href="#f"/><radialGradient id="ca" cx="239.34" cy="260.18" fx="239.34" fy="260.18" r="6.47" xlink:href="#f"/><radialGradient id="cb" cx="164.17" cy="203.68" fx="164.17" fy="203.68" r="6.47" xlink:href="#f"/><radialGradient id="cc" cx="272.07" cy="219.78" fx="272.07" fy="219.78" r="6.47" xlink:href="#f"/><radialGradient id="cd" cx="168.54" cy="345.84" fx="168.54" fy="345.84" r="6.47" xlink:href="#f"/><radialGradient id="ce" cx="252.29" cy="290.95" fx="252.29" fy="290.95" r="6.47" xlink:href="#f"/><radialGradient id="cf" cx="245.81" cy="308.16" fx="245.81" fy="308.16" r="6.47" xlink:href="#f"/><radialGradient id="cg" cx="96.91" cy="199.73" fx="96.91" fy="199.73" r="6.47" xlink:href="#f"/><radialGradient id="ch" cx="128.78" cy="266.66" fx="128.78" fy="266.66" r="6.47" xlink:href="#f"/><radialGradient id="ci" cx="108.88" cy="269.55" fx="108.88" fy="269.55" r="6.47" xlink:href="#f"/><radialGradient id="cj" cx="175.01" cy="311.47" fx="175.01" fy="311.47" r="6.47" xlink:href="#f"/><radialGradient id="ck" cx="258.76" cy="198.17" fx="258.76" fy="198.17" r="6.47" xlink:href="#f"/><radialGradient id="cl" cx="151.22" cy="279.59" fx="151.22" fy="279.59" r="6.47" xlink:href="#f"/><radialGradient id="cm" cx="122.31" cy="345.84" fx="122.31" fy="345.84" r="6.47" xlink:href="#f"/><radialGradient id="cn" cx="122.31" cy="243.45" fx="122.31" fy="243.45" r="6.47" xlink:href="#f"/><radialGradient id="co" cx="199.92" cy="247.23" fx="199.92" fy="247.23" r="6.47" xlink:href="#f"/><radialGradient id="cp" cx="157.7" cy="224.64" fx="157.7" fy="224.64" r="6.47" xlink:href="#f"/><radialGradient id="cq" cx="239.34" cy="247.23" fx="239.34" fy="247.23" r="6.47" xlink:href="#f"/><radialGradient id="cr" cx="193.45" cy="191.7" fx="193.45" fy="191.7" r="6.47" xlink:href="#f"/><radialGradient id="cs" cx="274.3" cy="290.95" fx="274.3" fy="290.95" r="6.47" xlink:href="#f"/><radialGradient id="ct" cx="122.31" cy="253.71" fx="122.31" fy="253.71" r="6.47" xlink:href="#f"/><radialGradient id="cu" cx="128.78" cy="193.26" fx="128.78" fy="193.26" r="6.47" xlink:href="#f"/><radialGradient id="cv" cx="132.84" cy="355.43" fx="132.84" fy="355.43" r="6.47" xlink:href="#f"/><radialGradient id="cw" cx="168.54" cy="379.08" fx="168.54" fy="379.08" r="6.47" xlink:href="#f"/><radialGradient id="cx" cx="119.36" cy="391.17" fx="119.36" fy="391.17" r="6.47" xlink:href="#f"/><radialGradient id="cy" cx="87.3" cy="327" fx="87.3" fy="327" r="6.47" xlink:href="#f"/><radialGradient id="d`" cx="105.31" cy="298.33" fx="105.31" fy="298.33" r="6.47" xlink:href="#f"/><radialGradient id="da" cx="141.27" cy="236.98" fx="141.27" fy="236.98" r="6.47" xlink:href="#f"/><radialGradient id="db" cx="219.63" cy="211.93" fx="219.63" fy="211.93" r="6.47" xlink:href="#f"/><radialGradient id="dc" cx="178.57" cy="206.21" fx="178.57" fy="206.21" r="6.47" xlink:href="#f"/><radialGradient id="dd" cx="235.39" cy="346.82" fx="235.39" fy="346.82" r="28.53" xlink:href="#f"/><radialGradient id="de" cx="209.8" cy="365.88" fx="209.8" fy="365.88" r="28.53" gradientTransform="translate(159.05 -52.82) rotate(22.92)" xlink:href="#f"/><radialGradient id="df" cx="297.51" cy="285.53" fx="297.51" fy="285.53" r="18.43" gradientTransform="translate(130.17 -91.35) rotate(22.24)" xlink:href="#f"/><radialGradient id="dg" cx="18.43" cy="303.96" fx="18.43" fy="303.96" r="18.43" xlink:href="#f"/><radialGradient id="dh" cx="361.83" cy="266.34" fx="361.83" fy="266.34" r="6.47" xlink:href="#f"/><radialGradient id="di" cx="281.65" cy="312.74" fx="281.65" fy="312.74" r="6.47" xlink:href="#f"/><radialGradient id="dj" cx="355.36" cy="321.07" fx="355.36" fy="321.07" r="6.47" xlink:href="#f"/><radialGradient id="dk" cx="280.19" cy="264.57" fx="280.19" fy="264.57" r="6.47" xlink:href="#f"/><radialGradient id="dl" cx="388.09" cy="280.67" fx="388.09" fy="280.67" r="6.47" xlink:href="#f"/><radialGradient id="dm" cx="284.56" cy="406.73" fx="284.56" fy="406.73" r="6.47" xlink:href="#f"/><radialGradient id="dn" cx="368.31" cy="351.84" fx="368.31" fy="351.84" r="6.47" xlink:href="#f"/><radialGradient id="do" cx="361.83" cy="369.04" fx="361.83" fy="369.04" r="6.47" xlink:href="#f"/><radialGradient id="dp" cx="107.68" cy="252.58" fx="107.68" fy="252.58" r="6.47" xlink:href="#f"/><radialGradient id="dq" cx="212.93" cy="260.62" fx="212.93" fy="260.62" r="6.47" xlink:href="#f"/><radialGradient id="dr" cx="244.8" cy="327.54" fx="244.8" fy="327.54" r="6.47" xlink:href="#f"/><radialGradient id="ds" cx="224.9" cy="330.44" fx="224.9" fy="330.44" r="6.47" xlink:href="#f"/><radialGradient id="dt" cx="291.04" cy="372.35" fx="291.04" fy="372.35" r="6.47" xlink:href="#f"/><radialGradient id="du" cx="374.78" cy="259.06" fx="374.78" fy="259.06" r="6.47" xlink:href="#f"/><radialGradient id="dv" cx="267.25" cy="340.47" fx="267.25" fy="340.47" r="6.47" xlink:href="#f"/><radialGradient id="dw" cx="238.33" cy="406.73" fx="238.33" fy="406.73" r="6.47" xlink:href="#f"/><radialGradient id="dx" cx="238.33" cy="304.34" fx="238.33" fy="304.34" r="6.47" xlink:href="#f"/><radialGradient id="dy" cx="315.94" cy="308.12" fx="315.94" fy="308.12" r="6.47" xlink:href="#f"/><radialGradient id="e`" cx="273.72" cy="285.53" fx="273.72" fy="285.53" r="6.47" xlink:href="#f"/><radialGradient id="ea" cx="355.36" cy="308.12" fx="355.36" fy="308.12" r="6.47" xlink:href="#f"/><radialGradient id="eb" cx="309.47" cy="252.58" fx="309.47" fy="252.58" r="6.47" xlink:href="#f"/><radialGradient id="ec" cx="390.32" cy="351.84" fx="390.32" fy="351.84" r="6.47" xlink:href="#f"/><radialGradient id="ed" cx="238.33" cy="314.59" fx="238.33" fy="314.59" r="6.47" xlink:href="#f"/><radialGradient id="ee" cx="244.8" cy="254.15" fx="244.8" fy="254.15" r="6.47" xlink:href="#f"/><radialGradient id="ef" cx="248.86" cy="416.32" fx="248.86" fy="416.32" r="6.47" xlink:href="#f"/><radialGradient id="eg" cx="284.56" cy="439.97" fx="284.56" fy="439.97" r="6.47" xlink:href="#f"/><radialGradient id="eh" cx="235.39" cy="452.05" fx="235.39" fy="452.05" r="6.47" xlink:href="#f"/><radialGradient id="ei" cx="203.32" cy="387.89" fx="203.32" fy="387.89" r="6.47" xlink:href="#f"/><radialGradient id="ej" cx="221.33" cy="359.22" fx="221.33" fy="359.22" r="6.47" xlink:href="#f"/><radialGradient id="ek" cx="257.3" cy="297.87" fx="257.3" fy="297.87" r="6.47" xlink:href="#f"/><radialGradient id="el" cx="335.65" cy="272.82" fx="335.65" fy="272.82" r="6.47" xlink:href="#f"/><radialGradient id="em" cx="294.59" cy="267.09" fx="294.59" fy="267.09" r="6.47" xlink:href="#f"/></defs><g class="jv"><g id="a"/><g id="b"><g id="c"><g id="d"><g><rect class="jw" x="7.84" width="500" height="500"/><g><g><circle class="ir" cx="198.36" cy="158.79" r="28.53"/><circle class="fv" cx="172.77" cy="177.85" r="28.53"/><circle class="gm" cx="260.48" cy="97.5" r="18.43"/><path class="gf" d="M331.28,78.32c0,3.58-2.9,6.47-6.47,6.47s-6.47-2.9-6.47-6.47,2.9-6.47,6.47-6.47,6.47,2.9,6.47,6.47Z"/><path class="jm" d="M251.09,124.71c0,3.58-2.9,6.47-6.47,6.47s-6.47-2.9-6.47-6.47,2.9-6.47,6.47-6.47,6.47,2.9,6.47,6.47Z"/><circle class="fg" cx="318.33" cy="133.04" r="6.47"/><path class="fa" d="M249.64,76.54c0,3.58-2.9,6.47-6.47,6.47s-6.47-2.9-6.47-6.47,2.9-6.47,6.47-6.47,6.47,2.9,6.47,6.47Z"/><circle class="if" cx="351.06" cy="92.64" r="6.47"/><path class="er" d="M254.01,218.7c0,3.58-2.9,6.47-6.47,6.47s-6.47-2.9-6.47-6.47,2.9-6.47,6.47-6.47,6.47,2.9,6.47,6.47Z"/><path class="hp" d="M337.75,163.81c0,3.58-2.9,6.47-6.47,6.47s-6.47-2.9-6.47-6.47,2.9-6.47,6.47-6.47,6.47,2.9,6.47,6.47Z"/><path class="hd" d="M331.28,181.02c0,3.58-2.9,6.47-6.47,6.47s-6.47-2.9-6.47-6.47,2.9-6.47,6.47-6.47,6.47,2.9,6.47,6.47Z"/><path class="gu" d="M77.13,64.56c0,3.58-2.9,6.47-6.47,6.47s-6.47-2.9-6.47-6.47,2.9-6.47,6.47-6.47,6.47,2.9,6.47,6.47Z"/><circle class="ga" cx="175.91" cy="72.59" r="6.47"/><path class="jj" d="M214.25,139.51c0,3.58-2.9,6.47-6.47,6.47s-6.47-2.9-6.47-6.47,2.9-6.47,6.47-6.47,6.47,2.9,6.47,6.47Z"/><path class="hm" d="M194.35,142.41c0,3.58-2.9,6.47-6.47,6.47s-6.47-2.9-6.47-6.47,2.9-6.47,6.47-6.47,6.47,2.9,6.47,6.47Z"/><circle class="gd" cx="254.01" cy="184.33" r="6.47"/><circle class="in" cx="337.75" cy="71.03" r="6.47"/><circle class="jc" cx="230.22" cy="152.44" r="6.47"/><path class="hn" d="M207.78,218.7c0,3.58-2.9,6.47-6.47,6.47s-6.47-2.9-6.47-6.47,2.9-6.47,6.47-6.47,6.47,2.9,6.47,6.47Z"/><path class="fr" d="M207.78,116.31c0,3.58-2.9,6.47-6.47,6.47s-6.47-2.9-6.47-6.47,2.9-6.47,6.47-6.47,6.47,2.9,6.47,6.47Z"/><path class="hf" d="M285.39,120.09c0,3.58-2.9,6.47-6.47,6.47s-6.47-2.9-6.47-6.47,2.9-6.47,6.47-6.47,6.47,2.9,6.47,6.47Z"/><circle class="ht" cx="236.69" cy="97.5" r="6.47"/><path class="gh" d="M324.81,120.09c0,3.58-2.9,6.47-6.47,6.47s-6.47-2.9-6.47-6.47,2.9-6.47,6.47-6.47,6.47,2.9,6.47,6.47Z"/><circle class="en" cx="272.44" cy="64.56" r="6.47"/><circle class="gn" cx="353.3" cy="163.81" r="6.47"/><path class="fm" d="M207.78,126.57c0,3.58-2.9,6.47-6.47,6.47s-6.47-2.9-6.47-6.47,2.9-6.47,6.47-6.47,6.47,2.9,6.47,6.47Z"/><path class="ix" d="M214.25,66.12c0,3.58-2.9,6.47-6.47,6.47s-6.47-2.9-6.47-6.47,2.9-6.47,6.47-6.47,6.47,2.9,6.47,6.47Z"/><path class="eu" d="M218.3,228.29c0,3.58-2.9,6.47-6.47,6.47s-6.47-2.9-6.47-6.47,2.9-6.47,6.47-6.47,6.47,2.9,6.47,6.47Z"/><path class="ft" d="M254.01,251.94c0,3.58-2.9,6.47-6.47,6.47s-6.47-2.9-6.47-6.47,2.9-6.47,6.47-6.47,6.47,2.9,6.47,6.47Z"/><path class="gr" d="M204.83,264.03c0,3.58-2.9,6.47-6.47,6.47s-6.47-2.9-6.47-6.47,2.9-6.47,6.47-6.47,6.47,2.9,6.47,6.47Z"/><path class="ii" d="M172.77,199.86c0,3.58-2.9,6.47-6.47,6.47s-6.47-2.9-6.47-6.47,2.9-6.47,6.47-6.47,6.47,2.9,6.47,6.47Z"/><path class="jo" d="M190.78,171.19c0,3.58-2.9,6.47-6.47,6.47s-6.47-2.9-6.47-6.47,2.9-6.47,6.47-6.47,6.47,2.9,6.47,6.47Z"/><circle class="fl" cx="220.27" cy="109.84" r="6.47"/><circle class="ik" cx="298.62" cy="84.79" r="6.47"/><circle class="ge" cx="257.57" cy="79.07" r="6.47"/></g><g><circle class="ey" cx="370.96" cy="296.43" r="28.53"/><circle class="fy" cx="345.38" cy="315.49" r="28.53" transform="translate(-95.59 159.41) rotate(-22.92)"/><circle class="gq" cx="433.09" cy="235.14" r="18.43" transform="translate(-55.56 299.02) rotate(-35.95)"/><circle class="j`" cx="154.01" cy="253.57" r="18.43"/><circle class="fo" cx="497.41" cy="215.95" r="6.47"/><path class="jq" d="M423.7,262.35c0,3.58-2.9,6.47-6.47,6.47s-6.47-2.9-6.47-6.47,2.9-6.47,6.47-6.47,6.47,2.9,6.47,6.47Z"/><path class="is" d="M497.41,270.68c0,3.58-2.9,6.47-6.47,6.47s-6.47-2.9-6.47-6.47,2.9-6.47,6.47-6.47,6.47,2.9,6.47,6.47Z"/><circle class="fn" cx="415.77" cy="214.18" r="6.47"/><circle class="im" cx="420.14" cy="356.34" r="6.47"/><circle class="hg" cx="503.89" cy="301.45" r="6.47"/><circle class="gi" cx="497.41" cy="318.65" r="6.47"/><path class="jk" d="M249.73,202.19c0,3.58-2.9,6.47-6.47,6.47s-6.47-2.9-6.47-6.47,2.9-6.47,6.47-6.47,6.47,2.9,6.47,6.47Z"/><circle class="js" cx="348.51" cy="210.23" r="6.47"/><path class="gk" d="M386.85,277.15c0,3.58-2.9,6.47-6.47,6.47s-6.47-2.9-6.47-6.47,2.9-6.47,6.47-6.47,6.47,2.9,6.47,6.47Z"/><path class="ig" d="M366.95,280.05c0,3.58-2.9,6.47-6.47,6.47s-6.47-2.9-6.47-6.47,2.9-6.47,6.47-6.47,6.47,2.9,6.47,6.47Z"/><path class="fc" d="M433.09,321.96c0,3.58-2.9,6.47-6.47,6.47s-6.47-2.9-6.47-6.47,2.9-6.47,6.47-6.47,6.47,2.9,6.47,6.47Z"/><path class="ic" d="M409.3,290.08c0,3.58-2.9,6.47-6.47,6.47s-6.47-2.9-6.47-6.47,2.9-6.47,6.47-6.47,6.47,2.9,6.47,6.47Z"/><circle class="he" cx="373.91" cy="356.34" r="6.47"/><path class="jg" d="M380.38,253.95c0,3.58-2.9,6.47-6.47,6.47s-6.47-2.9-6.47-6.47,2.9-6.47,6.47-6.47,6.47,2.9,6.47,6.47Z"/><path class="hb" d="M458,257.73c0,3.58-2.9,6.47-6.47,6.47s-6.47-2.9-6.47-6.47,2.9-6.47,6.47-6.47,6.47,2.9,6.47,6.47Z"/><path class="ih" d="M415.77,235.14c0,3.58-2.9,6.47-6.47,6.47s-6.47-2.9-6.47-6.47,2.9-6.47,6.47-6.47,6.47,2.9,6.47,6.47Z"/><path class="gs" d="M497.41,257.73c0,3.58-2.9,6.47-6.47,6.47s-6.47-2.9-6.47-6.47,2.9-6.47,6.47-6.47,6.47,2.9,6.47,6.47Z"/><path class="i`" d="M451.52,202.19c0,3.58-2.9,6.47-6.47,6.47s-6.47-2.9-6.47-6.47,2.9-6.47,6.47-6.47,6.47,2.9,6.47,6.47Z"/><circle class="eo" cx="373.91" cy="264.2" r="6.47"/><circle class="iy" cx="380.38" cy="203.76" r="6.47"/><circle class="iw" cx="384.44" cy="365.93" r="6.47"/><circle class="hh" cx="420.14" cy="389.58" r="6.47"/><circle class="gy" cx="370.96" cy="401.66" r="6.47"/><circle class="fx" cx="338.9" cy="337.5" r="6.47"/><circle class="fe" cx="356.91" cy="308.82" r="6.47"/><path class="hi" d="M399.35,247.47c0,3.58-2.9,6.47-6.47,6.47s-6.47-2.9-6.47-6.47,2.9-6.47,6.47-6.47,6.47,2.9,6.47,6.47Z"/><path class="jl" d="M477.7,222.43c0,3.58-2.9,6.47-6.47,6.47s-6.47-2.9-6.47-6.47,2.9-6.47,6.47-6.47,6.47,2.9,6.47,6.47Z"/><path class="eq" d="M436.65,216.7c0,3.58-2.9,6.47-6.47,6.47s-6.47-2.9-6.47-6.47,2.9-6.47,6.47-6.47,6.47,2.9,6.47,6.47Z"/></g><g><circle class="jn" cx="119.36" cy="285.93" r="28.53" transform="translate(-167.22 168.15) rotate(-45)"/><circle class="jd" cx="93.78" cy="304.99" r="28.53"/><circle class="ja" cx="181.49" cy="224.64" r="18.43"/><path class="it" d="M252.29,205.46c0,3.58-2.9,6.47-6.47,6.47s-6.47-2.9-6.47-6.47,2.9-6.47,6.47-6.47,6.47,2.9,6.47,6.47Z"/><path class="hr" d="M172.1,251.85c0,3.58-2.9,6.47-6.47,6.47s-6.47-2.9-6.47-6.47,2.9-6.47,6.47-6.47,6.47,2.9,6.47,6.47Z"/><path class="jp" d="M245.81,260.18c0,3.58-2.9,6.47-6.47,6.47s-6.47-2.9-6.47-6.47,2.9-6.47,6.47-6.47,6.47,2.9,6.47,6.47Z"/><path class="hs" d="M170.64,203.68c0,3.58-2.9,6.47-6.47,6.47s-6.47-2.9-6.47-6.47,2.9-6.47,6.47-6.47,6.47,2.9,6.47,6.47Z"/><circle class="iu" cx="272.07" cy="219.78" r="6.47"/><circle class="fb" cx="168.54" cy="345.84" r="6.47"/><circle class="fp" cx="252.29" cy="290.95" r="6.47"/><path class="gc" d="M252.29,308.16c0,3.58-2.9,6.47-6.47,6.47s-6.47-2.9-6.47-6.47,2.9-6.47,6.47-6.47,6.47,2.9,6.47,6.47Z"/><path class="fu" d="M103.38,199.73c0,3.58-2.9,6.47-6.47,6.47s-6.47-2.9-6.47-6.47,2.9-6.47,6.47-6.47,6.47,2.9,6.47,6.47Z"/><circle class="ex" cx="128.78" cy="266.66" r="6.47"/><path class="g`" d="M115.35,269.55c0,3.58-2.9,6.47-6.47,6.47s-6.47-2.9-6.47-6.47,2.9-6.47,6.47-6.47,6.47,2.9,6.47,6.47Z"/><circle class="es" cx="175.01" cy="311.47" r="6.47"/><circle class="jb" cx="258.76" cy="198.17" r="6.47"/><path class="gj" d="M157.7,279.59c0,3.58-2.9,6.47-6.47,6.47s-6.47-2.9-6.47-6.47,2.9-6.47,6.47-6.47,6.47,2.9,6.47,6.47Z"/><path class="go" d="M128.78,345.84c0,3.58-2.9,6.47-6.47,6.47s-6.47-2.9-6.47-6.47,2.9-6.47,6.47-6.47,6.47,2.9,6.47,6.47Z"/><path class="fj" d="M128.78,243.45c0,3.58-2.9,6.47-6.47,6.47s-6.47-2.9-6.47-6.47,2.9-6.47,6.47-6.47,6.47,2.9,6.47,6.47Z"/><path class="ju" d="M206.4,247.23c0,3.58-2.9,6.47-6.47,6.47s-6.47-2.9-6.47-6.47,2.9-6.47,6.47-6.47,6.47,2.9,6.47,6.47Z"/><circle class="hv" cx="157.7" cy="224.64" r="6.47"/><path class="fd" d="M245.81,247.23c0,3.58-2.9,6.47-6.47,6.47s-6.47-2.9-6.47-6.47,2.9-6.47,6.47-6.47,6.47,2.9,6.47,6.47Z"/><circle class="hq" cx="193.45" cy="191.7" r="6.47"/><circle class="ew" cx="274.3" cy="290.95" r="6.47"/><path class="fq" d="M128.78,253.71c0,3.58-2.9,6.47-6.47,6.47s-6.47-2.9-6.47-6.47,2.9-6.47,6.47-6.47,6.47,2.9,6.47,6.47Z"/><path class="hl" d="M135.26,193.26c0,3.58-2.9,6.47-6.47,6.47s-6.47-2.9-6.47-6.47,2.9-6.47,6.47-6.47,6.47,2.9,6.47,6.47Z"/><path class="jf" d="M139.31,355.43c0,3.58-2.9,6.47-6.47,6.47s-6.47-2.9-6.47-6.47,2.9-6.47,6.47-6.47,6.47,2.9,6.47,6.47Z"/><path class="h`" d="M175.01,379.08c0,3.58-2.9,6.47-6.47,6.47s-6.47-2.9-6.47-6.47,2.9-6.47,6.47-6.47,6.47,2.9,6.47,6.47Z"/><circle class="gx" cx="119.36" cy="391.17" r="6.47"/><path class="gw" d="M93.78,327c0,3.58-2.9,6.47-6.47,6.47s-6.47-2.9-6.47-6.47,2.9-6.47,6.47-6.47,6.47,2.9,6.47,6.47Z"/><path class="id" d="M111.78,298.33c0,3.58-2.9,6.47-6.47,6.47s-6.47-2.9-6.47-6.47,2.9-6.47,6.47-6.47,6.47,2.9,6.47,6.47Z"/><circle class="fw" cx="141.27" cy="236.98" r="6.47"/><path class="il" d="M226.1,211.93c0,3.58-2.9,6.47-6.47,6.47s-6.47-2.9-6.47-6.47,2.9-6.47,6.47-6.47,6.47,2.9,6.47,6.47Z"/><circle class="ho" cx="178.57" cy="206.21" r="6.47"/></g><g><circle class="hu" cx="235.39" cy="346.82" r="28.53"/><circle class="ie" cx="209.8" cy="365.88" r="28.53" transform="translate(-125.92 110.59) rotate(-22.92)"/><circle class="hc" cx="297.51" cy="285.53" r="18.43" transform="translate(-85.92 133.82) rotate(-22.24)"/><circle class="jt" cx="18.43" cy="303.96" r="18.43"/><path class="hx" d="M368.31,266.34c0,3.58-2.9,6.47-6.47,6.47s-6.47-2.9-6.47-6.47,2.9-6.47,6.47-6.47,6.47,2.9,6.47,6.47Z"/><path class="jr" d="M288.12,312.74c0,3.58-2.9,6.47-6.47,6.47s-6.47-2.9-6.47-6.47,2.9-6.47,6.47-6.47,6.47,2.9,6.47,6.47Z"/><path class="io" d="M361.83,321.07c0,3.58-2.9,6.47-6.47,6.47s-6.47-2.9-6.47-6.47,2.9-6.47,6.47-6.47,6.47,2.9,6.47,6.47Z"/><path class="ip" d="M286.67,264.57c0,3.58-2.9,6.47-6.47,6.47s-6.47-2.9-6.47-6.47,2.9-6.47,6.47-6.47,6.47,2.9,6.47,6.47Z"/><circle class="iq" cx="388.09" cy="280.67" r="6.47"/><circle class="ev" cx="284.56" cy="406.73" r="6.47"/><circle class="gg" cx="368.31" cy="351.84" r="6.47"/><path class="je" d="M368.31,369.04c0,3.58-2.9,6.47-6.47,6.47s-6.47-2.9-6.47-6.47,2.9-6.47,6.47-6.47,6.47,2.9,6.47,6.47Z"/><path class="f`" d="M114.15,252.58c0,3.58-2.9,6.47-6.47,6.47s-6.47-2.9-6.47-6.47,2.9-6.47,6.47-6.47,6.47,2.9,6.47,6.47Z"/><circle class="hk" cx="212.93" cy="260.62" r="6.47"/><path class="ha" d="M251.28,327.54c0,3.58-2.9,6.47-6.47,6.47s-6.47-2.9-6.47-6.47,2.9-6.47,6.47-6.47,6.47,2.9,6.47,6.47Z"/><circle class="iv" cx="224.9" cy="330.44" r="6.47"/><path class="hy" d="M297.51,372.35c0,3.58-2.9,6.47-6.47,6.47s-6.47-2.9-6.47-6.47,2.9-6.47,6.47-6.47,6.47,2.9,6.47,6.47Z"/><circle class="gb" cx="374.78" cy="259.06" r="6.47"/><circle class="et" cx="267.25" cy="340.47" r="6.47"/><path class="ij" d="M244.8,406.73c0,3.58-2.9,6.47-6.47,6.47s-6.47-2.9-6.47-6.47,2.9-6.47,6.47-6.47,6.47,2.9,6.47,6.47Z"/><path class="gv" d="M244.8,304.34c0,3.58-2.9,6.47-6.47,6.47s-6.47-2.9-6.47-6.47,2.9-6.47,6.47-6.47,6.47,2.9,6.47,6.47Z"/><path class="hj" d="M322.42,308.12c0,3.58-2.9,6.47-6.47,6.47s-6.47-2.9-6.47-6.47,2.9-6.47,6.47-6.47,6.47,2.9,6.47,6.47Z"/><path class="ep" d="M280.19,285.53c0,3.58-2.9,6.47-6.47,6.47s-6.47-2.9-6.47-6.47,2.9-6.47,6.47-6.47,6.47,2.9,6.47,6.47Z"/><path class="gp" d="M361.83,308.12c0,3.58-2.9,6.47-6.47,6.47s-6.47-2.9-6.47-6.47,2.9-6.47,6.47-6.47,6.47,2.9,6.47,6.47Z"/><path class="ib" d="M315.94,252.58c0,3.58-2.9,6.47-6.47,6.47s-6.47-2.9-6.47-6.47,2.9-6.47,6.47-6.47,6.47,2.9,6.47,6.47Z"/><circle class="fk" cx="390.32" cy="351.84" r="6.47"/><path class="ff" d="M244.8,314.59c0,3.58-2.9,6.47-6.47,6.47s-6.47-2.9-6.47-6.47,2.9-6.47,6.47-6.47,6.47,2.9,6.47,6.47Z"/><circle class="ji" cx="244.8" cy="254.15" r="6.47"/><path class="hw" d="M255.33,416.32c0,3.58-2.9,6.47-6.47,6.47s-6.47-2.9-6.47-6.47,2.9-6.47,6.47-6.47,6.47,2.9,6.47,6.47Z"/><circle class="jh" cx="284.56" cy="439.97" r="6.47"/><path class="fs" d="M241.86,452.05c0,3.58-2.9,6.47-6.47,6.47s-6.47-2.9-6.47-6.47,2.9-6.47,6.47-6.47,6.47,2.9,6.47,6.47Z"/><path class="fi" d="M209.8,387.89c0,3.58-2.9,6.47-6.47,6.47s-6.47-2.9-6.47-6.47,2.9-6.47,6.47-6.47,6.47,2.9,6.47,6.47Z"/><path class="gt" d="M227.81,359.22c0,3.58-2.9,6.47-6.47,6.47s-6.47-2.9-6.47-6.47,2.9-6.47,6.47-6.47,6.47,2.9,6.47,6.47Z"/><path class="gl" d="M263.77,297.86c0,3.58-2.9,6.47-6.47,6.47s-6.47-2.9-6.47-6.47,2.9-6.47,6.47-6.47,6.47,2.9,6.47,6.47Z"/><path class="fh" d="M342.13,272.82c0,3.58-2.9,6.47-6.47,6.47s-6.47-2.9-6.47-6.47,2.9-6.47,6.47-6.47,6.47,2.9,6.47,6.47Z"/><path class="ia" d="M301.07,267.09c0,3.58-2.9,6.47-6.47,6.47s-6.47-2.9-6.47-6.47,2.9-6.47,6.47-6.47,6.47,2.9,6.47,6.47Z"/></g></g></g></g></g></g></g></svg>