<?xml version="1.0" encoding="UTF-8"?><svg xmlns="http://www.w3.org/2000/svg" xmlns:xlink="http://www.w3.org/1999/xlink" viewBox="0 0 308.04 215.01"><defs><style>.o{fill:url(#l);}.p{fill:#23c8c4;}.q{fill:url(#f);}.r{filter:url(#m);}.r,.s,.t{fill:#fff;}.s{filter:url(#h);}.u{fill:url(#d);}.v{fill:url(#e);}.w{fill:none;}.t{filter:url(#j);}.x{clip-path:url(#g);}</style><radialGradient id="d" cx="82.19" cy="45.12" fx="82.19" fy="45.12" r="199.93" gradientTransform="matrix(1, 0, 0, 1, 0, 0)" gradientUnits="userSpaceOnUse"><stop offset="0" stop-color="#1f2172"/><stop offset=".17" stop-color="#141752"/><stop offset=".42" stop-color="#060a2a"/><stop offset=".54" stop-color="#01061b"/><stop offset=".73" stop-color="#0d1528"/><stop offset=".93" stop-color="#172233"/></radialGradient><radialGradient id="e" cx="163.39" cy="211.49" fx="163.39" fy="211.49" r="269.58" xlink:href="#d"/><radialGradient id="f" cx="134.62" cy="117.7" fx="134.62" fy="117.7" r="157.25" gradientTransform="matrix(1, 0, 0, 1, 0, 0)" gradientUnits="userSpaceOnUse"><stop offset="0" stop-color="#7c1d56"/><stop offset=".23" stop-color="#420e2b"/><stop offset=".42" stop-color="#1a040d"/><stop offset=".52" stop-color="#0b0102"/><stop offset=".66" stop-color="#0d0204"/><stop offset=".75" stop-color="#13050d"/><stop offset=".83" stop-color="#1f0c1c"/><stop offset=".9" stop-color="#2f1431"/><stop offset=".91" stop-color="#331736"/></radialGradient><clipPath id="g"><ellipse class="w" cx="146.48" cy="83.78" rx="63.54" ry="10.74"/></clipPath><filter id="h" filterUnits="userSpaceOnUse"><feOffset dx="0" dy="0"/><feGaussianBlur result="i" stdDeviation="14.04"/><feFlood flood-color="#ffd18d" flood-opacity="1"/><feComposite in2="i" operator="in"/><feComposite in="SourceGraphic"/></filter><filter id="j" filterUnits="userSpaceOnUse"><feOffset dx="0" dy="0"/><feGaussianBlur result="k" stdDeviation="14.04"/><feFlood flood-color="#ffd18d" flood-opacity="1"/><feComposite in2="k" operator="in"/><feComposite in="SourceGraphic"/></filter><radialGradient id="l" cx="142.19" cy="73.95" fx="142.19" fy="73.95" r="236.5" gradientTransform="matrix(1, 0, 0, 1, 0, 0)" gradientUnits="userSpaceOnUse"><stop offset="0" stop-color="#81ff81"/><stop offset=".18" stop-color="#68e381" stop-opacity=".61"/><stop offset=".39" stop-color="#4dc582" stop-opacity=".17"/><stop offset=".48" stop-color="#42b983" stop-opacity="0"/><stop offset=".52" stop-color="#42b983" stop-opacity="0"/></radialGradient><filter id="m" filterUnits="userSpaceOnUse"><feOffset dx="0" dy="0"/><feGaussianBlur result="n" stdDeviation="14.04"/><feFlood flood-color="#ffd18d" flood-opacity="1"/><feComposite in2="n" operator="in"/><feComposite in="SourceGraphic"/></filter></defs><g id="a"/><g id="b"><g id="c"><g><g><rect class="u" x="144.72" width="3.15" height="33.25"/><path class="v" d="M83.36,82.56s38.21-52.67,63.12-52.67,57.85,41.14,63.07,52.31c5.22,11.18-126.2,.35-126.2,.35Z"/><ellipse class="q" cx="146.25" cy="83.55" rx="63.54" ry="10.74"/><g class="x"><ellipse class="s" cx="146.37" cy="75.21" rx="16.14" ry="9.83"/><ellipse class="t" cx="146.37" cy="75.21" rx="16.14" ry="9.83"/></g></g><path class="p" d="M82.94,83.78c-.03-.71,.38-1.35,.84-1.86,.47-.53,1.04-.93,1.63-1.31,1.19-.74,2.46-1.29,3.75-1.8,2.59-.98,5.27-1.73,7.95-2.38,5.39-1.25,10.85-2.09,16.33-2.75,10.97-1.3,22-1.78,33.03-1.82,11.03,.04,22.07,.51,33.03,1.82,5.48,.66,10.95,1.5,16.33,2.75,2.69,.65,5.36,1.4,7.95,2.38,1.29,.51,2.57,1.07,3.75,1.8,.58,.38,1.16,.78,1.63,1.31,.46,.51,.86,1.15,.84,1.86-.04-.71-.48-1.28-.96-1.73-.49-.47-1.08-.81-1.68-1.13-1.2-.63-2.48-1.1-3.78-1.52-2.61-.8-5.29-1.37-7.98-1.84-5.38-.97-10.84-1.56-16.29-2.06-10.92-.92-21.88-1.3-32.84-1.29-10.96,0-21.93,.37-32.85,1.29-5.45,.5-10.9,1.09-16.29,2.06-2.69,.47-5.37,1.04-7.98,1.84-1.3,.42-2.58,.89-3.78,1.52-.6,.32-1.19,.66-1.68,1.13-.48,.45-.93,1.03-.96,1.73Z"/><path class="o" d="M211.07,83.66l96.97,128.36L0,215.01,84.95,81.93s13.4-8.37,66.24-9.24c52.84-.87,59.87,10.98,59.87,10.98Z"/><path class="r" d="M130.33,74.28c-.05,.31-.09,.62-.09,.94,0,5.43,7.23,9.83,16.14,9.83s16.14-4.4,16.14-9.83c0-.16-.03-.31-.04-.47-10.74-1.21-21.45-2.04-32.15-.47Z"/></g></g></g></svg>