<?xml version="1.0" encoding="UTF-8"?><svg xmlns="http://www.w3.org/2000/svg" xmlns:xlink="http://www.w3.org/1999/xlink" viewBox="0 0 501 170.11"><defs><style>.w{fill:url(#t);}.x{fill:url(#r);}.y{fill:url(#l);}.a`{fill:#23c8c4;}.aa{fill:url(#u);}.ab{isolation:isolate;}.ac{fill:url(#m);}.ad{fill:url(#f);}.ae{fill:url(#p);}.af{fill:url(#g);}.ag{fill:url(#d);mix-blend-mode:multiply;opacity:.57;}.ah{fill:url(#i);}.ai{stroke:#000004;stroke-miterlimit:10;}.ai,.aj{fill:none;}.ak{fill:url(#h);}.al{clip-path:url(#v);}.am{fill:url(#e);}.an{opacity:.14;}.ao{fill:url(#s);}.ap{fill:url(#n);}.aq{fill:url(#j);}.ar{fill:url(#o);}.as{fill:url(#q);}.at{fill:url(#k);}</style><linearGradient id="d" x1="250.5" y1="296.4" x2="250.5" y2="123.09" gradientTransform="matrix(1, 0, 0, 1, 0, 0)" gradientUnits="userSpaceOnUse"><stop offset="0" stop-color="#002cff"/><stop offset=".11" stop-color="#0128ee"/><stop offset=".33" stop-color="#041fc3"/><stop offset=".63" stop-color="#0a117d"/><stop offset=".98" stop-color="#110024"/></linearGradient><linearGradient id="e" x1="78.66" y1="163.71" x2="78.66" y2="78.01" gradientTransform="matrix(1, 0, 0, 1, 0, 0)" gradientUnits="userSpaceOnUse"><stop offset="0" stop-color="#002cff" stop-opacity="0"/><stop offset=".51" stop-color="#07179b" stop-opacity=".46"/><stop offset=".98" stop-color="#110024"/></linearGradient><linearGradient id="f" x1="411.26" y1="-132.03" x2="411.26" y2="56.5" xlink:href="#d"/><linearGradient id="g" x1="385.73" y1="-132.03" x2="385.73" y2="56.5" xlink:href="#d"/><linearGradient id="h" x1="436.02" y1="-132.03" x2="436.02" y2="56.5" xlink:href="#d"/><linearGradient id="i" x1="398.86" y1="-132.03" x2="398.86" y2="56.5" xlink:href="#d"/><linearGradient id="j" x1="423.32" y1="-132.03" x2="423.32" y2="56.5" xlink:href="#d"/><linearGradient id="k" x1="412.91" y1="-132.03" x2="412.91" y2="56.5" xlink:href="#d"/><linearGradient id="l" x1="89.3" y1="-132.03" x2="89.3" y2="56.5" xlink:href="#d"/><linearGradient id="m" x1="63.77" y1="-132.03" x2="63.77" y2="56.5" xlink:href="#d"/><linearGradient id="n" x1="114.06" y1="-132.03" x2="114.06" y2="56.5" xlink:href="#d"/><linearGradient id="o" x1="76.9" y1="-132.03" x2="76.9" y2="56.5" xlink:href="#d"/><linearGradient id="p" x1="101.35" y1="-132.03" x2="101.35" y2="56.5" xlink:href="#d"/><linearGradient id="q" x1="90.95" y1="-132.03" x2="90.95" y2="56.5" xlink:href="#d"/><radialGradient id="r" cx="237.15" cy="61.36" fx="237.15" fy="61.36" r="146.95" gradientTransform="matrix(1, 0, 0, 1, 0, 0)" gradientUnits="userSpaceOnUse"><stop offset="0" stop-color="#5a3a80"/><stop offset=".17" stop-color="#402860"/><stop offset=".42" stop-color="#1f1238"/><stop offset=".54" stop-color="#130a29"/><stop offset=".74" stop-color="#221c37"/><stop offset=".93" stop-color="#2d2941"/></radialGradient><linearGradient id="s" x1="425.55" x2="425.55" xlink:href="#e"/><linearGradient id="t" x1="245.35" y1="207.15" x2="245.35" y2="68.58" xlink:href="#e"/><linearGradient id="u" x1="214.25" y1="-153.58" x2="243.4" y2="45.17" xlink:href="#d"/><clipPath id="v"><path class="aj" d="M302.67,7.7S316.21-.14,317.22,0c1.01,.14-3.78,8.05-4.9,11.7-1.11,3.65-.45,4.41-1.03,5.78-.58,1.37,2.88,6.18,1.15,10.16-1.73,3.98-.74,8.16-2.24,11.04,0,0,1.73,1.64,2.04,6.29,.32,4.65,1.73,5.24-.09,11.31-1.82,6.07-2.07,14.72,2.08,16.65,4.14,1.93,4.84,2.19,13.85,3.41,9.01,1.22,9.16,3.36,16.67,3,7.51-.36,5.34,2.73,12.21,1.66,6.87-1.08,13.65,3.52,7.73,9.19h-15.34s.17,3.1-2.93,3.75h-71.88c-7.21,0-37.02-3.75-52.31-3.75s-34.85-1.9-45.06-1.52c-10.21,.38-18.15-.03-20.13,1.52-1.98,1.55-.14,2.13-2.69,3.33-2.55,1.2-8.08,3.61-10.21,2.19-2.13-1.42-2.32-3.37-2.79-2.96s-6.85,3.19-7.99-.68-1.7-2.78-.71-5.45,.71,0,.71,0c0,0-4.11-5.78,1.13-9.04s10.92-2.13,20.84-4.9c9.92-2.76,11.8-1.93,17.38-8.37,5.58-6.44,23.09-15.32,44.03-17.33,20.95-2.01,37.91,1.18,44.88-2.97,6.97-4.15,8.03-14.91,8.07-19.52s1.24-3.81,0-6.76c-1.24-2.95-3.96-9.37-.76-12.26,3.2-2.89,10.27,3.49,10.27,3.49,0,0,17.81-.9,23.45-1.23Z"/></clipPath></defs><g class="ab"><g id="a"/><g id="b"><g id="c"><polygon class="a`" points="500.5 107.64 .5 107.64 50.9 74.42 441.85 74.42 500.5 107.64"/><rect class="ag" x=".5" y="142.99" width="500" height="27.11"/><polygon class="am" points="73.93 93.43 49.13 107.64 99.77 107.64 108.19 93.43 73.93 93.43"/><g><path class="ad" d="M395.9,95.31l-9.4-39.3s33.77-3.3,49.52,0l-5.87,39.3c-3.51,1.38-8.94,3.02-15.74,3.22-8.22,.24-14.72-1.74-18.52-3.22Z"/><g><path class="af" d="M386.5,56.01c-8.13-.76-11.93-20.82-12.7-20.57-.76,.25,16.02,2.11,23.88,19.72l-11.18,.85Z"/><path class="ak" d="M435.25,56.01c8.13-.76,11.93-20.82,12.7-20.57,.76,.25-16.02,2.11-23.88,19.72l11.18,.85Z"/><path class="ah" d="M405.55,54.76s2.22-20.16-12.64-31.84c0,0-3.85,19.45,4.77,32.24l7.86-.4Z"/><path class="aq" d="M414.08,55.16s3.52-17.18,18.38-28.86c0,0,1.4,16.08-7.22,28.86h-11.16Z"/><path class="at" d="M406.22,54.76s-2.22-20.16,12.64-31.84c0,0,3.85,19.45-4.77,32.24l-7.86-.4Z"/></g></g><g><path class="y" d="M73.93,95.31l-9.4-39.3s33.77-3.3,49.52,0l-5.87,39.3c-3.51,1.38-8.94,3.02-15.74,3.22-8.22,.24-14.72-1.74-18.52-3.22Z"/><g><path class="ac" d="M64.54,56.01c-8.13-.76-11.93-20.82-12.7-20.57-.76,.25,16.02,2.11,23.88,19.72l-11.18,.85Z"/><path class="ap" d="M113.29,56.01c8.13-.76,11.93-20.82,12.7-20.57,.76,.25-16.02,2.11-23.88,19.72l11.18,.85Z"/><path class="ar" d="M83.59,54.76s2.22-20.16-12.64-31.84c0,0-3.85,19.45,4.77,32.24l7.86-.4Z"/><path class="ae" d="M92.12,55.16s3.52-17.18,18.38-28.86c0,0,1.4,16.08-7.22,28.86h-11.16Z"/><path class="as" d="M84.26,54.76s-2.22-20.16,12.64-31.84c0,0,3.85,19.45-4.77,32.24l-7.86-.4Z"/></g></g><rect class="ai" x=".5" y="107.64" width="500" height="33.48"/><path class="ai" d="M457.44,124.04c0,3.43-2.78,6.21-6.21,6.21s-6.21-2.78-6.21-6.21,2.78-6.21,6.21-6.21,6.21,2.78,6.21,6.21Z"/><path class="a`" d="M457.94,124.04h-1c0-3.15-2.56-5.71-5.71-5.71s-5.71,2.56-5.71,5.71h-1c0-3.7,3.01-6.71,6.71-6.71s6.71,3.01,6.71,6.71Z"/><path class="ai" d="M325.04,124.04c0,3.43-2.78,6.21-6.21,6.21s-6.21-2.78-6.21-6.21,2.78-6.21,6.21-6.21,6.21,2.78,6.21,6.21Z"/><path class="a`" d="M325.54,124.04h-1c0-3.15-2.56-5.71-5.71-5.71s-5.71,2.56-5.71,5.71h-1c0-3.7,3.01-6.71,6.71-6.71s6.71,3.01,6.71,6.71Z"/><path class="ai" d="M198.04,124.04c0,3.43-2.78,6.21-6.21,6.21s-6.21-2.78-6.21-6.21,2.78-6.21,6.21-6.21,6.21,2.78,6.21,6.21Z"/><path class="a`" d="M198.54,124.04h-1c0-3.15-2.56-5.71-5.71-5.71s-5.71,2.56-5.71,5.71h-1c0-3.7,3.01-6.71,6.71-6.71s6.71,3.01,6.71,6.71Z"/><line class="ai" x1="383.13" y1="107.64" x2="383.13" y2="140.87"/><rect class="x" x="254.83" y="107.64" width="1" height="33.22"/><line class="ai" x1="125.32" y1="107.64" x2="125.32" y2="140.87"/><path class="ai" d="M62.05,124.04c0,3.43-2.78,6.21-6.21,6.21s-6.21-2.78-6.21-6.21,2.78-6.21,6.21-6.21,6.21,2.78,6.21,6.21Z"/><path class="a`" d="M62.55,124.04h-1c0-3.15-2.56-5.71-5.71-5.71s-5.71,2.56-5.71,5.71h-1c0-3.7,3.01-6.71,6.71-6.71s6.71,3.01,6.71,6.71Z"/><polygon class="ao" points="430.28 93.43 455.08 107.64 404.44 107.64 396.02 93.43 430.28 93.43"/><path class="w" d="M140.95,82.88c-1.98-.1-16.42,9.33-14.85,13.24s10.15,13.39,26.39,13.39h190.2c16.45,0,9.46-10.16,15.34-13.39,5.87-3.23,5.01,.28,6.67-5.96s-53.16-7.78-63.87-7.29c-10.71,.5-105.92,4.96-113.06-1.44-7.14-6.4-46.81,1.44-46.81,1.44Z"/><g><path class="a`" d="M172.73,64.28c2.55-2.96,5.85-5.18,9.2-7.15,3.39-1.94,6.95-3.57,10.59-4.99,3.64-1.44,7.4-2.54,11.19-3.46,3.8-.91,7.65-1.64,11.54-2.06,7.77-.84,15.59-.92,23.37-.78,3.89,.07,7.78,.2,11.66,.11,.97-.03,1.94-.03,2.91-.11l1.45-.09,1.44-.17c1.91-.28,3.84-.66,5.56-1.59-1.67,1.03-3.61,1.51-5.52,1.86l-1.45,.23-1.46,.15c-.97,.12-1.95,.15-2.92,.22-3.9,.18-7.79,.14-11.68,.17-7.77,.02-15.55,.1-23.25,1.01-3.85,.39-7.67,1.07-11.44,1.95-3.77,.87-7.49,1.98-11.14,3.3-3.64,1.32-7.21,2.86-10.62,4.7-3.42,1.82-6.73,3.92-9.44,6.73Z"/><path class="a`" d="M268.96,5.44c.69-.71,1.77-.94,2.74-.82,.99,.1,1.94,.43,2.83,.83,.9,.4,1.75,.91,2.57,1.45,.82,.55,1.6,1.12,2.37,1.77l-.26-.09c3.9-.31,7.81-.49,11.72-.74,3.9-.25,7.82-.37,11.72-.57l-.19,.06c2.39-1.37,4.82-2.64,7.25-3.93,1.21-.65,2.45-1.26,3.69-1.85,.62-.3,1.24-.59,1.87-.87,.63-.26,1.26-.58,1.95-.67-.67,.15-1.26,.53-1.87,.84-.61,.32-1.2,.66-1.8,.99l-3.56,2.06-7.09,4.18-.09,.05h-.1c-3.91,.22-7.81,.51-11.72,.67-3.91,.16-7.82,.39-11.73,.49h-.15l-.1-.09c-1.41-1.28-2.97-2.44-4.65-3.35-.84-.44-1.73-.83-2.67-.99-.92-.16-1.95-.05-2.71,.58Z"/><g><path class="aa" d="M302.67,7.7S316.21-.14,317.22,0c1.01,.14-3.78,8.05-4.9,11.7-1.11,3.65-.45,4.41-1.03,5.78-.58,1.37,2.88,6.18,1.15,10.16-1.73,3.98-.74,8.16-2.24,11.04,0,0,1.73,1.64,2.04,6.29,.32,4.65,1.73,5.24-.09,11.31-1.82,6.07-2.07,14.72,2.08,16.65,4.14,1.93,4.84,2.19,13.85,3.41,9.01,1.22,9.16,3.36,16.67,3,7.51-.36,5.34,2.73,12.21,1.66,6.87-1.08,13.65,3.52,7.73,9.19h-15.34s.17,3.1-2.93,3.75h-71.88c-7.21,0-37.02-3.75-52.31-3.75s-34.85-1.9-45.06-1.52c-10.21,.38-18.15-.03-20.13,1.52-1.98,1.55-.14,2.13-2.69,3.33-2.55,1.2-8.08,3.61-10.21,2.19-2.13-1.42-2.32-3.37-2.79-2.96s-6.85,3.19-7.99-.68-1.7-2.78-.71-5.45,.71,0,.71,0c0,0-4.11-5.78,1.13-9.04s10.92-2.13,20.84-4.9c9.92-2.76,11.8-1.93,17.38-8.37,5.58-6.44,23.09-15.32,44.03-17.33,20.95-2.01,37.91,1.18,44.88-2.97,6.97-4.15,8.03-14.91,8.07-19.52s1.24-3.81,0-6.76c-1.24-2.95-3.96-9.37-.76-12.26,3.2-2.89,10.27,3.49,10.27,3.49,0,0,17.81-.9,23.45-1.23Z"/><g class="al"><g class="an"><path class="a`" d="M268.5,12.56c-.04-1.41-.08-2.81-.12-4.22,2,1.33,4.3,2.21,6.67,2.57,1.04,.64,1.19,2.32,.29,3.14,2.2-2.03,5.04-3.36,8.01-3.76-.63,1.92-2.05,3.56-3.86,4.47l11.61-4.47c-1.23,2.2-3.23,3.95-5.56,4.9,4.36-1.12,8.55-2.92,12.37-5.32l.11,3.08c1.44-1.13,2.87-2.27,4.31-3.4-.65,1.26-1.3,2.52-1.94,3.78,3.2-1.13,5.96-3.44,7.63-6.39-.32,1.56-.63,3.11-.95,4.67,4.28-5.2,8.56-10.39,12.84-15.59-10.31,6.61-23.34,8.81-35.24,5.96-3.16-.76-6.31-1.86-9.56-1.82-3.25,.04-6.77,1.56-7.99,4.58-1.22,3.02,1.2,7.2,4.43,6.74"/></g><g class="an"><path class="a`" d="M272.16,22.69c.74,11.17-4.83,22.56-14.12,28.82,1.11-1.38,2.22-2.75,3.32-4.13-3.13,2.36-7.03,3.68-10.95,3.71,.73-.53,1.46-1.06,2.19-1.6-14.44,5.06-29.77,7.6-45.07,7.48,7.03-2.12,14.07-4.24,21.1-6.35-7.81,1.72-15.63,3.44-23.44,5.16,1.44-.9,2.87-1.79,4.31-2.69-10.31,.76-20.35,4.92-28.19,11.67-5.36,1.34-10.71,2.68-16.07,4.01,.46-.47,.93-.93,1.39-1.4-5.36,3.8-11.75,6.13-18.3,6.67,18.28-13.29,37.29-26.92,59.42-31.51,10.49-2.18,21.33-2.22,31.87-4.16,10.54-1.94,21.27-6.19,27.75-14.72"/></g></g></g></g></g></g></g></svg>