<?xml version="1.0" encoding="UTF-8"?><svg xmlns="http://www.w3.org/2000/svg" xmlns:xlink="http://www.w3.org/1999/xlink" viewBox="0 0 517.62 291.69"><defs><style>.ct{stroke:url(#ch);}.ct,.cu,.cv,.cw,.cx,.cy,.d`,.da,.db,.dc,.dd,.de,.df,.dg,.dh,.di,.dj,.dk,.dl,.dm,.dn,.do,.dp,.dq,.dr,.ds,.dt,.du,.dv,.dw,.dx,.dy,.e`,.ea,.eb{fill:none;}.ct,.cu,.cv,.cw,.cx,.cy,.d`,.da,.db,.dc,.dd,.de,.df,.dg,.dh,.di,.dj,.dk,.dl,.dm,.dn,.do,.dp,.dq,.ds,.dt,.du,.dv,.dw,.dx,.dy,.e`,.ea,.eb{stroke-miterlimit:10;}.ct,.cu,.cx,.cy,.dc,.de,.di,.dk,.dl,.dq,.ds,.eb{stroke-width:.79px;}.ec{fill:url(#be);}.ed{fill:url(#t);}.ee,.ef{fill:#fff;}.cu{stroke:url(#cf);}.eg{fill:url(#ca);}.cv{stroke:url(#c`);}.cv,.cw,.d`,.da,.dd,.df,.dg,.dn,.dp,.dv,.dx,.dy{stroke-width:.69px;}.eh{fill:url(#ai);}.cw{stroke:url(#bt);}.cx{stroke:url(#ce);}.ei{fill:url(#l);}.ej{fill:url(#ak);}.ej,.ek,.el,.em,.en,.eo{opacity:.4;}.cy{stroke:url(#ao);}.ep{fill:#23c8c4;}.ek{fill:url(#o);}.eq{fill:url(#bl);}.er{fill:url(#cm);}.es{fill:url(#bp);}.et{fill:url(#af);}.eu{fill:url(#br);}.d`{stroke:url(#bv);}.ev{fill:url(#aq);}.ew{fill:url(#u);}.ex{clip-path:url(#cq);}.ey{isolation:isolate;}.f`{fill:url(#b`);}.fa{fill:url(#v);}.fb{fill:url(#av);}.fc{fill:url(#a`);}.fd{fill:url(#m);}.el{fill:url(#bg);}.da{stroke:url(#bs);}.fe{fill:url(#aw);}.em{fill:url(#bq);}.ff{fill:url(#bm);}.fg{fill:url(#co);}.fg,.fh{mix-blend-mode:multiply;}.fi{fill:url(#ba);}.db{stroke:url(#bh);}.db,.dh,.dj,.dm,.do,.dt,.dw,.ea{stroke-width:.76px;}.dc{stroke:url(#am);}.fj{fill:url(#bd);}.fk{fill:url(#f);}.fl{fill:url(#ae);}.dd{stroke:url(#ab);}.fm{fill:url(#bo);}.ef{filter:url(#cr);}.de{stroke:url(#ap);}.fn{fill:url(#g);}.fo{fill:url(#bb);}.df{stroke:url(#ag);}.en{fill:url(#cc);}.dg{stroke:url(#ac);}.fp{fill:url(#cb);}.fq{fill:url(#au);}.dh{stroke:url(#bj);}.fr{fill:url(#bf);}.di{stroke:url(#as);}.fs{fill:url(#i);}.dj{stroke:url(#r);}.dk{stroke:url(#cg);}.eo{fill:url(#y);}.dl{stroke:url(#at);}.dm{stroke:url(#s);}.ft{fill:url(#bc);}.dn{stroke:url(#ah);}.fu{fill:url(#aj);}.fv{fill:url(#ci);}.fw{fill:url(#ar);}.do{stroke:url(#bi);}.fx{fill:url(#h);}.dp{stroke:url(#bu);}.dq{stroke:url(#an);}.fy{fill:url(#d);}.g`{fill:url(#e);}.ds{stroke:url(#cl);}.ga{fill:url(#bw);}.gb{fill:url(#x);}.dt{stroke:url(#p);}.gc{fill:url(#bx);}.gd{fill:#0d0f4d;}.ge{fill:url(#bn);}.du{stroke:#000004;stroke-width:.79px;}.gf{fill:url(#n);}.gg{mix-blend-mode:overlay;}.gh{fill:url(#cj);}.gi{fill:url(#w);}.dv{stroke:url(#aa);}.gj{fill:url(#al);}.dw{stroke:url(#bk);}.gk{fill:url(#cp);}.gl{fill:url(#j);}.fh{fill:url(#cn);}.gm{fill:url(#ax);}.dx{stroke:url(#by);}.dy{stroke:url(#ad);}.gn{fill:url(#ay);}.e`{stroke:#23c8c4;}.go{fill:url(#k);}.ea{stroke:url(#q);}.gp{fill:url(#cd);}.eb{stroke:url(#ck);}</style><linearGradient id="d" x1="206.41" y1="-122.08" x2="138.58" y2="81.43" gradientTransform="matrix(1, 0, 0, 1, 0, 0)" gradientUnits="userSpaceOnUse"><stop offset="0" stop-color="#840ae9"/><stop offset=".41" stop-color="#3608aa"/><stop offset=".73" stop-color="#190a6e"/><stop offset="1" stop-color="#070c24"/></linearGradient><linearGradient id="e" x1="-173.54" y1="150.59" x2="101.45" y2="133.07" gradientTransform="translate(-.11 270.34) scale(1 -1)" xlink:href="#d"/><linearGradient id="f" x1="56.39" y1="357.22" x2="64.55" y2="225.77" gradientTransform="translate(-3.68 270.18) scale(1 -1)" xlink:href="#d"/><linearGradient id="g" x1="237.12" y1="277.04" x2="39.49" y2="145.13" gradientTransform="translate(-3.68 331.24) scale(1 -1)" xlink:href="#d"/><linearGradient id="h" x1="237.12" y1="219.69" x2="39.49" y2="87.78" gradientTransform="translate(-3.68 216.53) scale(1 -1)" xlink:href="#d"/><linearGradient id="i" x1="15.34" y1="204.39" x2="76.57" y2="204.39" gradientTransform="translate(1.43 408.79) scale(1 -1)" xlink:href="#d"/><linearGradient id="j" x1="46.25" y1="204.39" x2="89.56" y2="204.39" gradientTransform="translate(-29.78 408.79) scale(1 -1)" gradientUnits="userSpaceOnUse"><stop offset="0" stop-color="#6000c9"/><stop offset=".41" stop-color="#1c0180"/><stop offset=".73" stop-color="#05013b"/><stop offset="1" stop-color="#01091b"/></linearGradient><linearGradient id="k" x1="17.62" y1="189.86" x2="65.33" y2="217.29" gradientTransform="translate(-16.21 390.66) rotate(17.08) scale(1 -1)" xlink:href="#d"/><linearGradient id="l" x1="-23.01" y1="333.09" x2="-13.23" y2="333.09" gradientTransform="translate(-2.56 -65.89) rotate(162.91) scale(.84 -.86)" xlink:href="#d"/><linearGradient id="m" x1="-12.86" y1="333.29" x2="-3.07" y2="333.29" gradientTransform="translate(-2.56 -65.89) rotate(162.91) scale(.84 -.86)" xlink:href="#d"/><linearGradient id="n" x1="29.07" y1="163.68" x2="68.96" y2="205.08" gradientTransform="translate(2.75 406.02) scale(1 -1)" xlink:href="#d"/><linearGradient id="o" x1="37.37" y1="155.69" x2="77.26" y2="197.09" gradientTransform="translate(-29.24 406.02) scale(1 -1)" gradientUnits="userSpaceOnUse"><stop offset="0" stop-color="#7308c9"/><stop offset=".41" stop-color="#2c078a"/><stop offset=".73" stop-color="#11064e"/><stop offset="1" stop-color="#010104"/></linearGradient><linearGradient id="p" x1="58.26" y1="186.64" x2="76.6" y2="186.64" gradientTransform="translate(136.68) rotate(-180) scale(1 -1)" xlink:href="#d"/><linearGradient id="q" x1="58.26" y1="224.41" x2="76.6" y2="224.41" gradientTransform="translate(136.68) rotate(-180) scale(1 -1)" xlink:href="#d"/><linearGradient id="r" x1="76.6" y1="220.94" x2="89.86" y2="220.94" gradientTransform="translate(136.68) rotate(-180) scale(1 -1)" xlink:href="#d"/><linearGradient id="s" x1="76.6" y1="191.73" x2="89.86" y2="191.73" gradientTransform="translate(136.68) rotate(-180) scale(1 -1)" xlink:href="#d"/><linearGradient id="t" x1="11.23" y1="138.78" x2="72.46" y2="138.78" gradientTransform="translate(9.66 277.57) scale(1 -1)" xlink:href="#j"/><linearGradient id="u" x1="42.14" y1="138.78" x2="85.44" y2="138.78" gradientTransform="translate(-21.55 277.57) scale(1 -1)" xlink:href="#d"/><linearGradient id="v" x1="710.05" y1="127.09" x2="748.52" y2="149.21" gradientTransform="translate(-694.15)" xlink:href="#d"/><linearGradient id="w" x1="731.94" y1="26.66" x2="749.74" y2="26.66" gradientTransform="translate(-554.91 -65.89) rotate(17.09) scale(.84 .86)" xlink:href="#d"/><linearGradient id="x" x1="741.92" y1="26.32" x2="759.72" y2="26.32" gradientTransform="translate(-554.91 -65.89) rotate(17.09) scale(.84 .86)" xlink:href="#d"/><linearGradient id="y" x1="26.77" y1="100.2" x2="64.75" y2="139.63" gradientTransform="translate(10.98 275.3) scale(1 -1)" xlink:href="#o"/><linearGradient id="a`" x1="36.18" y1="93.37" x2="73.51" y2="132.11" gradientTransform="translate(-21.01 275.3) scale(1 -1)" xlink:href="#d"/><linearGradient id="aa" x1="54.14" y1="124.28" x2="72.49" y2="124.28" gradientTransform="translate(136.68) rotate(-180) scale(1 -1)" xlink:href="#d"/><linearGradient id="ab" x1="46.49" y1="155.14" x2="64.84" y2="155.14" gradientTransform="translate(136.68) rotate(-180) scale(1 -1)" xlink:href="#d"/><linearGradient id="ac" x1="72.49" y1="152.3" x2="85.74" y2="152.3" gradientTransform="translate(136.68) rotate(-180) scale(1 -1)" xlink:href="#d"/><linearGradient id="ad" x1="72.49" y1="128.44" x2="85.74" y2="128.44" gradientTransform="translate(136.68) rotate(-180) scale(1 -1)" xlink:href="#d"/><linearGradient id="ae" x1="9.5" y1="138.78" x2="52.81" y2="138.78" gradientTransform="translate(43.72 277.57) scale(1 -1)" xlink:href="#d"/><linearGradient id="af" x1="3.54" y1="93.37" x2="40.87" y2="132.11" gradientTransform="translate(44.26 275.3) scale(1 -1)" xlink:href="#d"/><linearGradient id="ag" x1="39.85" y1="152.3" x2="53.11" y2="152.3" gradientTransform="translate(136.68) rotate(-180) scale(1 -1)" xlink:href="#d"/><linearGradient id="ah" x1="39.85" y1="128.44" x2="53.11" y2="128.44" gradientTransform="translate(136.68) rotate(-180) scale(1 -1)" xlink:href="#d"/><linearGradient id="ai" x1="382.95" y1="-341.77" x2="444.18" y2="-341.77" gradientTransform="translate(-376.02 -263.77) scale(1 -1)" xlink:href="#j"/><linearGradient id="aj" x1="413.86" y1="-352.43" x2="457.17" y2="-352.43" gradientTransform="translate(-380.97 -290.03) scale(1 -1)" xlink:href="#d"/><linearGradient id="ak" x1="395.87" y1="-383.44" x2="436.61" y2="-341.15" gradientTransform="translate(-373.86 -264.61) scale(1 -1)" xlink:href="#o"/><linearGradient id="al" x1="403.67" y1="-402.6" x2="444.7" y2="-360.02" gradientTransform="translate(-379.2 -291.26) scale(1 -1)" xlink:href="#d"/><linearGradient id="am" x1="425.86" y1="-360.98" x2="444.21" y2="-360.98" gradientTransform="translate(-282.56 513.24) rotate(-90) scale(1 -1)" xlink:href="#d"/><linearGradient id="an" x1="425.86" y1="-320.12" x2="444.21" y2="-320.12" gradientTransform="translate(-282.56 513.24) rotate(-90) scale(1 -1)" xlink:href="#d"/><linearGradient id="ao" x1="444.21" y1="-334.53" x2="457.46" y2="-334.53" gradientTransform="translate(-282.56 513.24) rotate(-90) scale(1 -1)" xlink:href="#d"/><linearGradient id="ap" x1="444.21" y1="-366.13" x2="457.46" y2="-366.13" gradientTransform="translate(-282.56 513.24) rotate(-90) scale(1 -1)" xlink:href="#d"/><linearGradient id="aq" x1="382.26" y1="-353.49" x2="425.57" y2="-353.49" gradientTransform="translate(-348.31 -259.49) scale(1 -1)" xlink:href="#d"/><linearGradient id="ar" x1="372.07" y1="-403.66" x2="413.1" y2="-361.08" gradientTransform="translate(-346.54 -260.72) scale(1 -1)" xlink:href="#d"/><linearGradient id="as" x1="412.61" y1="-335.59" x2="425.86" y2="-335.59" gradientTransform="translate(-282.56 513.24) rotate(-90) scale(1 -1)" xlink:href="#d"/><linearGradient id="at" x1="412.61" y1="-367.19" x2="425.86" y2="-367.19" gradientTransform="translate(-282.56 513.24) rotate(-90) scale(1 -1)" xlink:href="#d"/><linearGradient id="au" x1="88.34" y1="-157.37" x2="77.63" y2="42.17" xlink:href="#d"/><linearGradient id="av" x1="533.58" y1="-122.08" x2="465.75" y2="81.43" gradientTransform="translate(845.24) rotate(-180) scale(1 -1)" xlink:href="#d"/><linearGradient id="aw" x1="-500.71" y1="150.59" x2="-225.72" y2="133.07" gradientTransform="translate(708.56)" xlink:href="#d"/><linearGradient id="ax" x1="-270.78" y1="357.22" x2="-262.62" y2="225.77" gradientTransform="translate(708.56)" xlink:href="#d"/><linearGradient id="ay" x1="-90.05" y1="277.04" x2="-287.68" y2="145.13" gradientTransform="translate(708.56)" xlink:href="#d"/><linearGradient id="b`" x1="-90.05" y1="219.69" x2="-287.68" y2="87.78" gradientTransform="translate(708.56)" xlink:href="#d"/><linearGradient id="ba" x1="-311.82" y1="204.39" x2="-250.6" y2="204.39" gradientTransform="translate(708.56)" xlink:href="#d"/><linearGradient id="bb" x1="-280.92" x2="-237.61" gradientTransform="translate(708.56)" xlink:href="#j"/><linearGradient id="bc" x1="-309.55" y1="189.86" x2="-261.84" y2="217.29" gradientTransform="translate(635.45 -73.15) rotate(-17.08)" xlink:href="#d"/><linearGradient id="bd" x1="-396.96" y1="444.38" x2="-387.18" y2="444.38" gradientTransform="translate(847.8 -65.89) rotate(17.09) scale(.84 .86)" xlink:href="#d"/><linearGradient id="be" x1="-386.81" y1="444.58" x2="-377.02" y2="444.58" gradientTransform="translate(847.8 -65.89) rotate(17.09) scale(.84 .86)" xlink:href="#d"/><linearGradient id="bf" x1="-298.1" y1="163.68" x2="-258.21" y2="205.08" gradientTransform="translate(708.56)" xlink:href="#d"/><linearGradient id="bg" x1="-289.8" y1="155.69" x2="-249.91" y2="197.09" gradientTransform="translate(708.56)" xlink:href="#o"/><linearGradient id="bh" x1="-268.91" y1="186.64" x2="-250.57" y2="186.64" gradientTransform="translate(708.56)" xlink:href="#d"/><linearGradient id="bi" x1="-268.91" y1="224.41" x2="-250.57" y2="224.41" gradientTransform="translate(708.56)" xlink:href="#d"/><linearGradient id="bj" x1="-250.57" y1="220.94" x2="-237.31" y2="220.94" gradientTransform="translate(708.56)" xlink:href="#d"/><linearGradient id="bk" x1="-250.57" y1="191.73" x2="-237.31" y2="191.73" gradientTransform="translate(708.56)" xlink:href="#d"/><linearGradient id="bl" x1="-315.94" y1="138.78" x2="-254.71" y2="138.78" gradientTransform="translate(708.56)" xlink:href="#j"/><linearGradient id="bm" x1="-285.03" y1="138.78" x2="-241.72" y2="138.78" gradientTransform="translate(708.56)" xlink:href="#d"/><linearGradient id="bn" x1="1037.22" y1="127.09" x2="1075.69" y2="149.21" gradientTransform="translate(1539.38) rotate(-180) scale(1 -1)" xlink:href="#d"/><linearGradient id="bo" x1="1105.89" y1="-84.63" x2="1123.69" y2="-84.63" gradientTransform="translate(1400.14 -65.89) rotate(162.91) scale(.84 -.86)" xlink:href="#d"/><linearGradient id="bp" x1="1115.87" y1="-84.97" x2="1133.67" y2="-84.97" gradientTransform="translate(1400.14 -65.89) rotate(162.91) scale(.84 -.86)" xlink:href="#d"/><linearGradient id="bq" x1="-300.4" y1="100.2" x2="-262.42" y2="139.63" gradientTransform="translate(708.56)" xlink:href="#o"/><linearGradient id="br" x1="-290.99" y1="93.37" x2="-253.66" y2="132.11" gradientTransform="translate(708.56)" xlink:href="#d"/><linearGradient id="bs" x1="-273.03" y1="124.28" x2="-254.68" y2="124.28" gradientTransform="translate(708.56)" xlink:href="#d"/><linearGradient id="bt" x1="-280.68" y1="155.14" x2="-262.33" y2="155.14" gradientTransform="translate(708.56)" xlink:href="#d"/><linearGradient id="bu" x1="-254.68" y1="152.3" x2="-241.43" y2="152.3" gradientTransform="translate(708.56)" xlink:href="#d"/><linearGradient id="bv" x1="-254.68" y1="128.44" x2="-241.43" y2="128.44" gradientTransform="translate(708.56)" xlink:href="#d"/><linearGradient id="bw" x1="-317.67" y1="138.78" x2="-274.36" y2="138.78" gradientTransform="translate(708.56)" xlink:href="#d"/><linearGradient id="bx" x1="-323.63" y1="93.37" x2="-286.3" y2="132.11" gradientTransform="translate(708.56)" xlink:href="#d"/><linearGradient id="by" x1="-287.32" y1="152.3" x2="-274.06" y2="152.3" gradientTransform="translate(708.56)" xlink:href="#d"/><linearGradient id="c`" x1="-287.32" y1="128.44" x2="-274.06" y2="128.44" gradientTransform="translate(708.56)" xlink:href="#d"/><linearGradient id="ca" x1="382.95" y1="-668.94" x2="444.18" y2="-668.94" gradientTransform="translate(23.62 746.94)" xlink:href="#j"/><linearGradient id="cb" x1="413.86" y1="-679.6" x2="457.17" y2="-679.6" gradientTransform="translate(-2.64 742)" xlink:href="#d"/><linearGradient id="cc" x1="395.87" y1="-710.6" x2="436.61" y2="-668.32" gradientTransform="translate(22.78 749.1)" xlink:href="#o"/><linearGradient id="cd" x1="403.67" y1="-729.77" x2="444.7" y2="-687.19" gradientTransform="translate(-3.87 743.77)" xlink:href="#d"/><linearGradient id="ce" x1="425.86" y1="-688.14" x2="444.21" y2="-688.14" gradientTransform="translate(1127.8 513.24) rotate(-90)" xlink:href="#d"/><linearGradient id="cf" x1="425.86" y1="-647.29" x2="444.21" y2="-647.29" gradientTransform="translate(1127.8 513.24) rotate(-90)" xlink:href="#d"/><linearGradient id="cg" x1="444.21" y1="-661.7" x2="457.46" y2="-661.7" gradientTransform="translate(1127.8 513.24) rotate(-90)" xlink:href="#d"/><linearGradient id="ch" x1="444.21" y1="-693.3" x2="457.46" y2="-693.3" gradientTransform="translate(1127.8 513.24) rotate(-90)" xlink:href="#d"/><linearGradient id="ci" x1="382.26" y1="-680.66" x2="425.57" y2="-680.66" gradientTransform="translate(27.9 774.66)" xlink:href="#d"/><linearGradient id="cj" x1="372.07" y1="-730.83" x2="413.1" y2="-688.25" gradientTransform="translate(26.67 776.43)" xlink:href="#d"/><linearGradient id="ck" x1="412.61" y1="-662.76" x2="425.86" y2="-662.76" gradientTransform="translate(1127.8 513.24) rotate(-90)" xlink:href="#d"/><linearGradient id="cl" x1="412.61" y1="-694.36" x2="425.86" y2="-694.36" gradientTransform="translate(1127.8 513.24) rotate(-90)" xlink:href="#d"/><linearGradient id="cm" x1="415.51" y1="-157.37" x2="404.8" y2="42.17" gradientTransform="translate(845.24) rotate(-180) scale(1 -1)" xlink:href="#d"/><radialGradient id="cn" cx="97.83" cy="212.51" fx="97.83" fy="212.51" r="97.83" gradientTransform="translate(0 81.96) scale(1 .65)" gradientUnits="userSpaceOnUse"><stop offset=".02" stop-color="#110024"/><stop offset=".49" stop-color="#07179b" stop-opacity=".46"/><stop offset="1" stop-color="#002cff" stop-opacity="0"/></radialGradient><radialGradient id="co" cx="419.79" cy="223.79" fx="419.79" fy="223.79" r="97.83" xlink:href="#cn"/><linearGradient id="cp" x1="257.51" y1="366.86" x2="257.51" y2="106.66" gradientTransform="matrix(1, 0, 0, 1, 0, 0)" gradientUnits="userSpaceOnUse"><stop offset="0" stop-color="#002cff"/><stop offset=".11" stop-color="#0128ee"/><stop offset=".33" stop-color="#041fc3"/><stop offset=".63" stop-color="#0a117d"/><stop offset=".98" stop-color="#110024"/></linearGradient><clipPath id="cq"><rect class="dr" x="155.35" y="7.24" width="204.31" height="259.35"/></clipPath><filter id="cr" filterUnits="userSpaceOnUse"><feOffset dx="0" dy="0"/><feGaussianBlur result="cs" stdDeviation="15.85"/><feFlood flood-color="#1fdeff" flood-opacity=".75"/><feComposite in2="cs" operator="in"/><feComposite in="SourceGraphic"/></filter></defs><g class="ey"><g id="a"/><g id="b"><g id="c"><g><g><g><polygon class="fy" points="113.01 242 133.79 221.84 133.79 13.45 113.01 32.09 113.01 242"/><g><rect class="g`" x="23.56" y="30.22" width="89.45" height="209.91" transform="translate(136.56 270.34) rotate(180)"/><line class="e`" x1="113.01" y1="240.13" x2="113.01" y2="30.22"/><rect class="fk" x="30.76" y="42.29" width="71.47" height="185.6" transform="translate(132.99 270.18) rotate(180)"/><g><rect class="fn" x="30.76" y="157.98" width="71.47" height="15.28" transform="translate(132.99 331.24) rotate(180)"/><rect class="fx" x="30.76" y="100.62" width="71.47" height="15.28" transform="translate(132.99 216.53) rotate(180)"/></g><g><rect class="fs" x="59.69" y="180.9" width="18.74" height="46.99" transform="translate(138.11 408.79) rotate(180)"/><rect class="gl" x="46.82" y="180.9" width="13.25" height="46.99" transform="translate(106.9 408.79) rotate(180)"/><rect class="go" x="84.03" y="186.52" width="11.08" height="40.58" transform="translate(235.95 378.19) rotate(162.92)"/><polygon class="ei" points="86.49 186.44 88.91 185.79 100.83 224.58 98.41 225.23 86.49 186.44"/><polygon class="fd" points="78.42 189.1 80.84 188.44 92.76 227.24 90.35 227.89 78.42 189.1"/><rect class="gf" x="62.77" y="200.64" width="13.9" height="4.73" transform="translate(139.43 406.02) rotate(180)"/><rect class="ek" x="49.17" y="200.64" width="9.1" height="4.73" transform="translate(107.44 406.02) rotate(180)"/><line class="dt" x1="78.42" y1="186.64" x2="60.08" y2="186.64"/><line class="ea" x1="78.42" y1="224.41" x2="60.08" y2="224.41"/><line class="dj" x1="60.08" y1="220.94" x2="46.82" y2="220.94"/><line class="dm" x1="60.08" y1="191.73" x2="46.82" y2="191.73"/></g><g><rect class="ed" x="63.8" y="119.59" width="18.74" height="38.39" transform="translate(146.34 277.57) rotate(180)"/><rect class="ew" x="50.94" y="119.59" width="13.25" height="38.39" transform="translate(115.13 277.57) rotate(180)"/><g><polygon class="fa" points="50.94 126.24 40.34 123.58 28.42 155.27 39.01 157.93 50.94 126.24"/><polygon class="gi" points="42.76 124.11 40.34 123.58 28.42 155.27 30.84 155.81 42.76 124.11"/><polygon class="gb" points="50.83 126.28 48.41 125.75 36.49 157.44 38.91 157.98 50.83 126.28"/></g><rect class="eo" x="66.88" y="135.72" width="13.9" height="3.86" transform="translate(147.66 275.3) rotate(180)"/><rect class="fc" x="53.28" y="135.72" width="9.1" height="3.86" transform="translate(115.67 275.3) rotate(180)"/><line class="dv" x1="82.54" y1="124.28" x2="64.19" y2="124.28"/><line class="dd" x1="90.19" y1="155.14" x2="71.84" y2="155.14"/><line class="dg" x1="64.19" y1="152.3" x2="50.94" y2="152.3"/><line class="dy" x1="64.19" y1="128.44" x2="50.94" y2="128.44"/><rect class="fl" x="83.57" y="119.59" width="13.25" height="38.39" transform="translate(180.4 277.57) rotate(180)"/><rect class="et" x="85.92" y="135.72" width="9.1" height="3.86" transform="translate(180.94 275.3) rotate(180)"/><line class="df" x1="96.83" y1="152.3" x2="83.57" y2="152.3"/><line class="dn" x1="96.83" y1="128.44" x2="83.57" y2="128.44"/></g><g><rect class="eh" x="49.84" y="52.59" width="18.74" height="50.83" transform="translate(-18.79 137.21) rotate(-90)"/><rect class="fu" x="63.24" y="36.98" width="13.25" height="50.83" transform="translate(7.47 132.27) rotate(-90)"/><rect class="ej" x="53.76" y="76.11" width="13.9" height="5.12" transform="translate(-17.95 139.37) rotate(-90)"/><rect class="gj" x="66.82" y="60.11" width="9.1" height="5.12" transform="translate(8.7 134.04) rotate(-90)"/><line class="dc" x1="78.41" y1="87.37" x2="78.41" y2="69.02"/><line class="dq" x1="37.56" y1="87.37" x2="37.56" y2="69.02"/><line class="cy" x1="51.97" y1="69.02" x2="51.97" y2="55.77"/><line class="de" x1="83.57" y1="69.02" x2="83.57" y2="55.77"/><rect class="ev" x="64.3" y="68.58" width="13.25" height="50.83" transform="translate(-23.07 164.93) rotate(-90)"/><rect class="fw" x="67.88" y="91.71" width="9.1" height="5.12" transform="translate(-21.84 166.7) rotate(-90)"/><line class="di" x1="53.03" y1="100.62" x2="53.03" y2="87.37"/><line class="dl" x1="84.63" y1="100.62" x2="84.63" y2="87.37"/></g></g><polyline class="fq" points="23.56 32.09 26.22 30.48 50.94 13.45 133.79 13.45 113.01 32.09"/></g><g><polygon class="fb" points="405.06 242 384.27 221.84 384.27 13.45 405.06 32.09 405.06 242"/><g><rect class="fe" x="405.06" y="30.22" width="89.45" height="209.91"/><rect class="gm" x="415.83" y="42.29" width="71.47" height="185.6"/><g><rect class="gn" x="415.83" y="157.98" width="71.47" height="15.28"/><rect class="f`" x="415.83" y="100.62" width="71.47" height="15.28"/></g><g><rect class="fi" x="439.64" y="180.9" width="18.74" height="46.99"/><rect class="fo" x="457.99" y="180.9" width="13.25" height="46.99"/><rect class="ft" x="422.95" y="186.52" width="11.08" height="40.58" transform="translate(79.66 -116.75) rotate(17.08)"/><polygon class="fj" points="431.58 186.44 429.16 185.79 417.23 224.58 419.65 225.23 431.58 186.44"/><polygon class="ec" points="439.64 189.1 437.22 188.44 425.3 227.24 427.72 227.89 439.64 189.1"/><rect class="fr" x="441.4" y="200.64" width="13.9" height="4.73"/><rect class="el" x="459.8" y="200.64" width="9.1" height="4.73"/><line class="db" x1="439.64" y1="186.64" x2="457.99" y2="186.64"/><line class="do" x1="439.64" y1="224.41" x2="457.99" y2="224.41"/><line class="dh" x1="457.99" y1="220.94" x2="471.24" y2="220.94"/><line class="dw" x1="457.99" y1="191.73" x2="471.24" y2="191.73"/></g><g><rect class="eq" x="435.53" y="119.59" width="18.74" height="38.39"/><rect class="ff" x="453.88" y="119.59" width="13.25" height="38.39"/><g><polygon class="ge" points="467.13 126.24 477.72 123.58 489.65 155.27 479.05 157.93 467.13 126.24"/><polygon class="fm" points="475.3 124.11 477.72 123.58 489.65 155.27 487.23 155.81 475.3 124.11"/><polygon class="es" points="467.24 126.28 469.66 125.75 481.58 157.44 479.16 157.98 467.24 126.28"/></g><rect class="em" x="437.29" y="135.72" width="13.9" height="3.86"/><rect class="eu" x="455.68" y="135.72" width="9.1" height="3.86"/><line class="da" x1="435.53" y1="124.28" x2="453.88" y2="124.28"/><line class="cw" x1="427.88" y1="155.14" x2="446.22" y2="155.14"/><line class="dp" x1="453.88" y1="152.3" x2="467.13" y2="152.3"/><line class="d`" x1="453.88" y1="128.44" x2="467.13" y2="128.44"/><rect class="ga" x="421.24" y="119.59" width="13.25" height="38.39"/><rect class="gc" x="423.04" y="135.72" width="9.1" height="3.86"/><line class="dx" x1="421.24" y1="152.3" x2="434.49" y2="152.3"/><line class="cv" x1="421.24" y1="128.44" x2="434.49" y2="128.44"/></g><g><rect class="eg" x="449.49" y="52.59" width="18.74" height="50.83" transform="translate(380.85 536.86) rotate(-90)"/><rect class="fp" x="441.57" y="36.98" width="13.25" height="50.83" transform="translate(385.8 510.59) rotate(-90)"/><rect class="en" x="450.41" y="76.11" width="13.9" height="5.12" transform="translate(378.69 536.02) rotate(-90)"/><rect class="gp" x="442.15" y="60.11" width="9.1" height="5.12" transform="translate(384.03 509.37) rotate(-90)"/><line class="cx" x1="439.65" y1="87.37" x2="439.65" y2="69.02"/><line class="cu" x1="480.51" y1="87.37" x2="480.51" y2="69.02"/><line class="dk" x1="466.1" y1="69.02" x2="466.1" y2="55.77"/><line class="ct" x1="434.5" y1="69.02" x2="434.5" y2="55.77"/><rect class="fv" x="440.51" y="68.58" width="13.25" height="50.83" transform="translate(353.14 541.13) rotate(-90)"/><rect class="gh" x="441.09" y="91.71" width="9.1" height="5.12" transform="translate(351.37 539.91) rotate(-90)"/><line class="eb" x1="465.04" y1="100.62" x2="465.04" y2="87.37"/><line class="ds" x1="433.44" y1="100.62" x2="433.44" y2="87.37"/></g></g><polyline class="er" points="494.51 32.09 491.85 30.48 467.13 13.45 384.27 13.45 405.06 32.09"/></g></g><line class="e`" x1="404.29" y1="240.13" x2="404.29" y2="30.22"/></g><g><ellipse class="fh" cx="97.83" cy="220.53" rx="97.83" ry="63.8"/><ellipse class="fg" cx="419.79" cy="227.89" rx="97.83" ry="63.8"/><g><rect class="du" x="148.65" y=".4" width="220.77" height="281.41"/><g><rect class="gk" x="155.35" y="7.24" width="204.31" height="259.35"/><g class="ex"><path class="ef" d="M360.53,133.31c-5.34-2.52-11.31-3.94-17.61-3.94-22.81,0-41.3,18.49-41.3,41.3s18.49,41.3,41.3,41.3c6.3,0,12.27-1.42,17.61-3.94v-74.71Z"/></g><g><g><g><g class="gg"><rect class="ee" x="169.51" y="15.64" width=".8" height="4.16"/><rect class="ee" x="160.7" y="26.42" width=".8" height="4.38"/><rect class="ee" x="190.02" y="18.73" width=".8" height="5.93"/><rect class="ee" x="183.93" y="39.78" width=".8" height="4.62"/><rect class="ee" x="180.15" y="16.65" width=".8" height="10.89"/><rect class="ee" x="230.29" y="16.68" width=".8" height="6.19"/><rect class="ee" x="249.95" y="14.95" width=".8" height="15.4"/><rect class="ee" x="240.68" y="37.29" width=".8" height="8.03"/><rect class="ee" x="216.17" y="25.72" width=".8" height="3.39"/><rect class="ee" x="155.04" y="60.93" width=".8" height="9.51"/><rect class="ee" x="223.63" y="35.34" width=".8" height="7.16"/><rect class="ee" x="171.07" y="38.4" width=".8" height="4.45"/><rect class="ee" x="251.73" y="60.93" width=".8" height="10.94"/></g><g class="gg"><rect class="ee" x="221.91" y="60.7" width=".8" height="3.85"/><rect class="ee" x="233.65" y="63.69" width=".8" height="4.16"/><rect class="ee" x="229.88" y="73.41" width=".8" height="4.38"/><rect class="ee" x="256.48" y="63.96" width=".8" height="5.93"/><rect class="ee" x="225.14" y="92.87" width=".8" height="5.93"/><rect class="ee" x="246.92" y="81.94" width=".8" height="4.62"/><rect class="ee" x="254.19" y="92.43" width=".8" height="4.62"/><rect class="ee" x="242.53" y="66.65" width=".8" height="10.89"/><rect class="ee" x="213.84" y="85.39" width=".8" height="11.44"/><rect class="ee" x="215.31" y="66.92" width=".8" height="7.16"/><rect class="ee" x="237.62" y="93.83" width=".8" height="4.45"/></g><g class="gg"><rect class="ee" x="174.48" y="69.13" width=".8" height="6.19"/><rect class="ee" x="189.22" y="64.53" width=".8" height="15.4"/><rect class="ee" x="178.93" y="88.47" width=".8" height="8.03"/><rect class="ee" x="165.07" y="82.71" width=".8" height="5.35"/></g></g><g><g class="gg"><rect class="ee" x="265.2" y="13.71" width=".8" height="3.85"/><rect class="ee" x="281.96" y="15.64" width=".8" height="4.16"/><rect class="ee" x="273.16" y="26.42" width=".8" height="4.38"/><rect class="ee" x="302.48" y="18.73" width=".8" height="5.93"/><rect class="ee" x="296.39" y="39.78" width=".8" height="4.62"/><rect class="ee" x="292.61" y="16.65" width=".8" height="10.89"/><rect class="ee" x="260.15" y="58.69" width=".8" height="4.48"/><rect class="ee" x="342.74" y="16.68" width=".8" height="6.19"/><rect class="ee" x="353.14" y="37.29" width=".8" height="8.03"/><rect class="ee" x="328.63" y="25.72" width=".8" height="3.39"/><rect class="ee" x="267.5" y="60.93" width=".8" height="9.51"/><rect class="ee" x="257.73" y="89.33" width=".8" height="5.19"/><rect class="ee" x="261.27" y="30.09" width=".8" height="11.44"/><rect class="ee" x="336.09" y="35.34" width=".8" height="7.16"/><rect class="ee" x="283.53" y="38.4" width=".8" height="4.45"/></g><g class="gg"><rect class="ee" x="334.37" y="60.7" width=".8" height="3.85"/><rect class="ee" x="346.11" y="63.69" width=".8" height="4.16"/><rect class="ee" x="342.33" y="73.41" width=".8" height="4.38"/><rect class="ee" x="337.6" y="92.87" width=".8" height="5.93"/><rect class="ee" x="359.38" y="81.94" width=".8" height="4.62"/><rect class="ee" x="354.99" y="66.65" width=".8" height="10.89"/><rect class="ee" x="326.3" y="85.39" width=".8" height="11.44"/><rect class="ee" x="327.77" y="66.92" width=".8" height="7.16"/><rect class="ee" x="350.08" y="93.83" width=".8" height="4.45"/></g><g class="gg"><rect class="ee" x="286.93" y="69.13" width=".8" height="6.19"/><rect class="ee" x="301.68" y="64.53" width=".8" height="15.4"/><rect class="ee" x="291.39" y="88.47" width=".8" height="8.03"/><rect class="ee" x="277.52" y="82.71" width=".8" height="5.35"/><rect class="ee" x="264.25" y="78.38" width=".8" height="3.39"/></g></g></g><g><g><g class="gg"><rect class="ee" x="169.51" y="108.72" width=".8" height="4.16"/><rect class="ee" x="160.7" y="119.5" width=".8" height="4.38"/><rect class="ee" x="190.02" y="111.82" width=".8" height="5.93"/><rect class="ee" x="183.93" y="132.86" width=".8" height="4.62"/><rect class="ee" x="180.15" y="109.74" width=".8" height="10.89"/><rect class="ee" x="230.29" y="109.76" width=".8" height="6.19"/><rect class="ee" x="249.95" y="108.04" width=".8" height="15.4"/><rect class="ee" x="240.68" y="130.37" width=".8" height="8.03"/><rect class="ee" x="216.17" y="118.81" width=".8" height="3.39"/><rect class="ee" x="155.04" y="154.01" width=".8" height="9.51"/><rect class="ee" x="223.63" y="128.42" width=".8" height="7.16"/><rect class="ee" x="171.07" y="131.49" width=".8" height="4.45"/><rect class="ee" x="251.73" y="154.01" width=".8" height="10.94"/></g><g class="gg"><rect class="ee" x="221.91" y="153.79" width=".8" height="3.85"/><rect class="ee" x="233.65" y="156.78" width=".8" height="4.16"/><rect class="ee" x="229.88" y="166.49" width=".8" height="4.38"/><rect class="ee" x="256.48" y="157.04" width=".8" height="5.93"/><rect class="ee" x="225.14" y="185.95" width=".8" height="5.93"/><rect class="ee" x="246.92" y="175.02" width=".8" height="4.62"/><rect class="ee" x="254.19" y="185.52" width=".8" height="4.62"/><rect class="ee" x="242.53" y="159.73" width=".8" height="10.89"/><rect class="ee" x="213.84" y="178.47" width=".8" height="11.44"/><rect class="ee" x="215.31" y="160" width=".8" height="7.16"/><rect class="ee" x="237.62" y="186.91" width=".8" height="4.45"/></g><g class="gg"><rect class="ee" x="174.48" y="162.22" width=".8" height="6.19"/><rect class="ee" x="189.22" y="157.61" width=".8" height="15.4"/><rect class="ee" x="178.93" y="181.56" width=".8" height="8.03"/><rect class="ee" x="165.07" y="175.8" width=".8" height="5.35"/></g></g><g><g class="gg"><rect class="ee" x="265.2" y="106.8" width=".8" height="3.85"/><rect class="ee" x="281.96" y="108.72" width=".8" height="4.16"/><rect class="ee" x="273.16" y="119.5" width=".8" height="4.38"/><rect class="ee" x="302.48" y="111.82" width=".8" height="5.93"/><rect class="ee" x="296.39" y="132.86" width=".8" height="4.62"/><rect class="ee" x="292.61" y="109.74" width=".8" height="10.89"/><rect class="ee" x="260.15" y="151.77" width=".8" height="4.48"/><rect class="ee" x="342.74" y="109.76" width=".8" height="6.19"/><rect class="ee" x="353.14" y="130.37" width=".8" height="8.03"/><rect class="ee" x="328.63" y="118.81" width=".8" height="3.39"/><rect class="ee" x="267.5" y="154.01" width=".8" height="9.51"/><rect class="ee" x="257.73" y="182.42" width=".8" height="5.19"/><rect class="ee" x="261.27" y="123.17" width=".8" height="11.44"/><rect class="ee" x="336.09" y="128.42" width=".8" height="7.16"/><rect class="ee" x="283.53" y="131.49" width=".8" height="4.45"/></g><g class="gg"><rect class="ee" x="334.37" y="153.79" width=".8" height="3.85"/><rect class="ee" x="346.11" y="156.78" width=".8" height="4.16"/><rect class="ee" x="342.33" y="166.49" width=".8" height="4.38"/><rect class="ee" x="337.6" y="185.95" width=".8" height="5.93"/><rect class="ee" x="359.38" y="175.02" width=".8" height="4.62"/><rect class="ee" x="354.99" y="159.73" width=".8" height="10.89"/><rect class="ee" x="326.3" y="178.47" width=".8" height="11.44"/><rect class="ee" x="327.77" y="160" width=".8" height="7.16"/><rect class="ee" x="350.08" y="186.91" width=".8" height="4.45"/></g><g class="gg"><rect class="ee" x="286.93" y="162.22" width=".8" height="6.19"/><rect class="ee" x="301.68" y="157.61" width=".8" height="15.4"/><rect class="ee" x="291.39" y="181.56" width=".8" height="8.03"/><rect class="ee" x="277.52" y="175.8" width=".8" height="5.35"/><rect class="ee" x="264.25" y="171.47" width=".8" height="3.39"/></g></g></g><g><g><g class="gg"><rect class="ee" x="169.51" y="194.08" width=".8" height="4.16"/><rect class="ee" x="160.7" y="204.86" width=".8" height="4.38"/><rect class="ee" x="190.02" y="197.17" width=".8" height="5.93"/><rect class="ee" x="183.93" y="218.22" width=".8" height="4.62"/><rect class="ee" x="180.15" y="195.1" width=".8" height="10.89"/><rect class="ee" x="230.29" y="195.12" width=".8" height="6.19"/><rect class="ee" x="249.95" y="193.39" width=".8" height="15.4"/><rect class="ee" x="240.68" y="215.73" width=".8" height="8.03"/><rect class="ee" x="216.17" y="204.16" width=".8" height="3.39"/><rect class="ee" x="155.04" y="239.37" width=".8" height="9.51"/><rect class="ee" x="223.63" y="213.78" width=".8" height="7.16"/><rect class="ee" x="171.07" y="216.84" width=".8" height="4.45"/><rect class="ee" x="251.73" y="239.37" width=".8" height="10.94"/></g><g class="gg"><rect class="ee" x="221.91" y="239.14" width=".8" height="3.85"/><rect class="ee" x="233.65" y="242.13" width=".8" height="4.16"/><rect class="ee" x="229.88" y="251.85" width=".8" height="4.38"/><rect class="ee" x="256.48" y="242.4" width=".8" height="5.93"/><rect class="ee" x="246.92" y="260.38" width=".8" height="4.62"/><rect class="ee" x="242.53" y="245.09" width=".8" height="10.89"/><rect class="ee" x="213.84" y="263.83" width=".8" height="3.34"/><rect class="ee" x="215.31" y="245.36" width=".8" height="7.16"/></g><g class="gg"><rect class="ee" x="174.48" y="247.57" width=".8" height="6.19"/><rect class="ee" x="189.22" y="242.97" width=".8" height="15.4"/><rect class="ee" x="202.83" y="217.53" width=".8" height="15.4"/><rect class="ee" x="165.07" y="261.15" width=".8" height="5.35"/></g></g><g><g class="gg"><rect class="ee" x="265.2" y="192.15" width=".8" height="3.85"/><rect class="ee" x="281.96" y="194.08" width=".8" height="4.16"/><rect class="ee" x="273.16" y="204.86" width=".8" height="4.38"/><rect class="ee" x="302.48" y="197.17" width=".8" height="5.93"/><rect class="ee" x="296.39" y="218.22" width=".8" height="4.62"/><rect class="ee" x="292.61" y="195.1" width=".8" height="10.89"/><rect class="ee" x="260.15" y="237.13" width=".8" height="4.48"/><rect class="ee" x="342.74" y="195.12" width=".8" height="6.19"/><rect class="ee" x="353.14" y="215.73" width=".8" height="8.03"/><rect class="ee" x="328.63" y="204.16" width=".8" height="3.39"/><rect class="ee" x="267.5" y="239.37" width=".8" height="9.51"/><rect class="ee" x="261.27" y="208.53" width=".8" height="11.44"/><rect class="ee" x="336.09" y="213.78" width=".8" height="7.16"/><rect class="ee" x="283.53" y="216.84" width=".8" height="4.45"/></g><g class="gg"><rect class="ee" x="334.37" y="239.14" width=".8" height="3.85"/><rect class="ee" x="346.11" y="242.13" width=".8" height="4.16"/><rect class="ee" x="342.33" y="251.85" width=".8" height="4.38"/><rect class="ee" x="359.38" y="260.38" width=".8" height="4.62"/><rect class="ee" x="354.99" y="245.09" width=".8" height="10.89"/><rect class="ee" x="326.3" y="263.83" width=".8" height="3.34"/><rect class="ee" x="327.77" y="245.36" width=".8" height="7.16"/></g><g class="gg"><rect class="ee" x="286.93" y="247.57" width=".8" height="6.19"/><rect class="ee" x="301.68" y="242.97" width=".8" height="15.4"/><rect class="ee" x="277.52" y="261.15" width=".8" height="5.35"/><rect class="ee" x="264.25" y="256.82" width=".8" height="3.39"/></g></g></g></g><polygon class="ep" points="289.09 99.49 225.11 99.49 225.11 7.24 226.74 7.24 226.74 97.96 289.09 97.96 289.09 99.49"/><polygon class="ep" points="289.09 187.13 225.11 187.13 225.11 104.51 226.74 104.51 226.74 185.6 289.09 185.6 289.09 187.13"/><polygon class="ep" points="219.18 99.49 155.2 99.49 155.2 7.24 156.84 7.24 156.84 97.96 219.18 97.96 219.18 99.49"/><polygon class="ep" points="156.84 190.23 155.2 190.23 155.2 266.73 219.18 266.73 219.18 265.2 156.84 265.2 156.84 190.23"/><polygon class="ep" points="219.18 187.13 155.2 187.13 155.2 104.51 156.84 104.51 156.84 185.6 219.18 185.6 219.18 187.13"/><polygon class="ep" points="297.56 99.49 361.53 99.49 361.53 7.24 359.9 7.24 359.9 97.96 297.56 97.96 297.56 99.49"/><polygon class="ep" points="359.9 190.23 361.53 190.23 361.53 266.73 297.56 266.73 297.56 265.2 359.9 265.2 359.9 190.23"/><polygon class="ep" points="297.56 187.13 361.53 187.13 361.53 104.51 359.9 104.51 359.9 185.6 297.56 185.6 297.56 187.13"/><path class="gd" d="M366.8,104.51v-5.79h-71.88V7.24h-5.84V98.73h-63.16V7.24h-5.84V98.73h-68.82v5.79h68.82v81.85h-68.82v5.79h68.82v77.69h5.84v-77.69h63.16v77.69h5.84v-77.69h71.88v-5.79h-71.88V104.51h71.88Zm-77.71,81.85h-63.16V104.51h63.16v81.85Z"/></g></g></g></g></g></g></svg>