<svg xmlns="http://www.w3.org/2000/svg" viewBox="0 0 265.45 159.11"><defs><style>.cls-1{fill:#fff;}</style></defs><g id="Layer_2" data-name="Layer 2"><g id="L1"><path class="cls-1" d="M79,61.69a2.6,2.6,0,0,1,.18-.45,4.36,4.36,0,0,1,.58-.9,1.91,1.91,0,0,1,.46-.39.55.55,0,0,1,.31-.07.34.34,0,0,1,.25.17.72.72,0,0,1,.1.35v.14a1.32,1.32,0,0,0-.22-.4c-.09-.09-.18-.07-.32,0a2.07,2.07,0,0,0-.37.36c-.25.28-.48.58-.66.8Z"/><path class="cls-1" d="M82.82,61.57a2.91,2.91,0,0,0-.22-.44,4.18,4.18,0,0,0-.66-.85,1.87,1.87,0,0,0-.49-.34.5.5,0,0,0-.32,0,.39.39,0,0,0-.23.18.86.86,0,0,0-.07.37c0,.09,0,.14,0,.14a1.88,1.88,0,0,1,.19-.42c.08-.1.18-.09.32,0a2.19,2.19,0,0,1,.41.32l.72.74Z"/><path class="cls-1" d="M83.62,64.69a2.07,2.07,0,0,1,0-.35,3,3,0,0,1,.22-.72,1.51,1.51,0,0,1,.24-.36.38.38,0,0,1,.21-.1.27.27,0,0,1,.2.06.46.46,0,0,1,.13.23l0,.09a1.39,1.39,0,0,0-.23-.23c-.07-.05-.14,0-.21.07a1,1,0,0,0-.19.32c-.12.24-.22.48-.3.68Z"/><path class="cls-1" d="M86.24,63.87a2.45,2.45,0,0,0-.23-.26,2.84,2.84,0,0,0-.61-.45A1,1,0,0,0,85,63a.29.29,0,0,0-.22,0,.25.25,0,0,0-.12.17.5.5,0,0,0,0,.26l0,.09a2.44,2.44,0,0,1,0-.32c0-.08.1-.1.22-.07a2.37,2.37,0,0,1,.34.15c.23.12.46.27.63.37Z"/><path class="cls-1" d="M104,66a3.55,3.55,0,0,1,0-.51,4.72,4.72,0,0,1,.34-1.08,2,2,0,0,1,.36-.52.56.56,0,0,1,.29-.16.39.39,0,0,1,.31.1.83.83,0,0,1,.2.34,1.11,1.11,0,0,0,0,.13,2.06,2.06,0,0,0-.34-.35c-.11-.06-.21,0-.32.12a1.77,1.77,0,0,0-.28.47c-.17.35-.32.72-.44,1S104,66,104,66Z"/><path class="cls-1" d="M107.87,64.78a4.38,4.38,0,0,0-.35-.39,4.67,4.67,0,0,0-.91-.67,2,2,0,0,0-.6-.21.56.56,0,0,0-.33.05.36.36,0,0,0-.18.25.74.74,0,0,0,0,.39,1.11,1.11,0,0,0,0,.13,1.23,1.23,0,0,1,.07-.47c0-.12.15-.14.32-.1a2.39,2.39,0,0,1,.51.21l.94.55Z"/><path class="cls-1" d="M236.54,7.91a2.6,2.6,0,0,1,.18-.45,4.36,4.36,0,0,1,.58-.9,1.59,1.59,0,0,1,.46-.39.53.53,0,0,1,.31-.07.36.36,0,0,1,.25.17.86.86,0,0,1,.1.35v.14a1.32,1.32,0,0,0-.22-.4c-.09-.09-.19-.07-.32,0a1.82,1.82,0,0,0-.38.36c-.24.28-.48.58-.66.8Z"/><path class="cls-1" d="M240.41,7.79a2.91,2.91,0,0,0-.22-.44,4.18,4.18,0,0,0-.66-.85,1.87,1.87,0,0,0-.49-.34.5.5,0,0,0-.32,0,.36.36,0,0,0-.23.18.73.73,0,0,0-.07.37.79.79,0,0,0,0,.14,1.28,1.28,0,0,1,.18-.42c.08-.1.18-.09.32,0a1.69,1.69,0,0,1,.41.32c.27.26.53.54.73.74S240.41,7.79,240.41,7.79Z"/><path class="cls-1" d="M241.21,10.91a2.74,2.74,0,0,1,0-.35,3.12,3.12,0,0,1,.23-.72,1.08,1.08,0,0,1,.24-.36.35.35,0,0,1,.2-.1.27.27,0,0,1,.2.06.59.59,0,0,1,.14.23.66.66,0,0,0,0,.09.86.86,0,0,0-.22-.23c-.08,0-.14,0-.22.07a1.59,1.59,0,0,0-.19.32c-.11.24-.21.48-.29.68Z"/><path class="cls-1" d="M243.83,10.09a2.07,2.07,0,0,0-.24-.26,2.61,2.61,0,0,0-.61-.45.91.91,0,0,0-.4-.14.29.29,0,0,0-.22,0,.27.27,0,0,0-.13.17.61.61,0,0,0,0,.26l0,.09a.91.91,0,0,1,.05-.32c0-.08.1-.1.21-.07a1.68,1.68,0,0,1,.34.15c.23.12.47.27.64.37Z"/><path class="cls-1" d="M261.55,12.21a3,3,0,0,1,.06-.51,4.64,4.64,0,0,1,.33-1.08,2.3,2.3,0,0,1,.36-.52.55.55,0,0,1,.3-.16.37.37,0,0,1,.3.1.65.65,0,0,1,.2.34.93.93,0,0,1,0,.13,1.77,1.77,0,0,0-.33-.35c-.12-.06-.21,0-.33.12a2.09,2.09,0,0,0-.28.47c-.17.35-.32.72-.44,1S261.55,12.21,261.55,12.21Z"/><path class="cls-1" d="M265.45,11a3,3,0,0,0-.35-.39,4.29,4.29,0,0,0-.9-.67,2,2,0,0,0-.6-.21.54.54,0,0,0-.33,0,.38.38,0,0,0-.19.25.72.72,0,0,0,0,.39,1.11,1.11,0,0,0,.05.13,1.33,1.33,0,0,1,.06-.47c.06-.12.16-.14.33-.1a2.56,2.56,0,0,1,.5.21c.35.19.69.4.95.55Z"/><path class="cls-1" d="M199.72,154.81a4.24,4.24,0,0,1,.18-.45,4.05,4.05,0,0,1,.59-.9,1.59,1.59,0,0,1,.46-.39.51.51,0,0,1,.31-.07.38.38,0,0,1,.25.16.88.88,0,0,1,.09.36c0,.09,0,.14,0,.14a2.23,2.23,0,0,0-.22-.4c-.09-.09-.19-.07-.32,0a1.82,1.82,0,0,0-.38.36c-.24.28-.48.58-.66.8Z"/><path class="cls-1" d="M203.59,154.68a3.15,3.15,0,0,0-.22-.43,4.18,4.18,0,0,0-.66-.85,1.59,1.59,0,0,0-.49-.34.47.47,0,0,0-.31,0,.36.36,0,0,0-.24.18.7.7,0,0,0-.06.37.79.79,0,0,0,0,.14,1.19,1.19,0,0,1,.18-.42c.08-.1.18-.09.32,0a1.91,1.91,0,0,1,.41.32l.72.74C203.45,154.55,203.59,154.68,203.59,154.68Z"/><path class="cls-1" d="M204.39,157.81a2.07,2.07,0,0,1,0-.35,2.7,2.7,0,0,1,.23-.72,1.08,1.08,0,0,1,.24-.36.32.32,0,0,1,.2-.1.27.27,0,0,1,.2.06.46.46,0,0,1,.13.23l0,.09a1.12,1.12,0,0,0-.22-.23c-.08-.05-.15,0-.22.07a1.23,1.23,0,0,0-.19.32c-.11.24-.22.48-.3.68Z"/><path class="cls-1" d="M207,157s-.09-.11-.24-.26a2.84,2.84,0,0,0-.61-.45,1,1,0,0,0-.4-.14.29.29,0,0,0-.22,0,.24.24,0,0,0-.13.17.65.65,0,0,0,0,.26.41.41,0,0,0,0,.09,1,1,0,0,1,0-.32c0-.08.11-.1.22-.07a1.68,1.68,0,0,1,.34.15c.23.12.46.26.64.37Z"/><path class="cls-1" d="M224.74,159.11a3,3,0,0,1,.06-.51,4.21,4.21,0,0,1,.33-1.08,2,2,0,0,1,.36-.52.55.55,0,0,1,.3-.16.38.38,0,0,1,.3.1.83.83,0,0,1,.2.34.93.93,0,0,1,0,.13,2.06,2.06,0,0,0-.34-.35c-.11-.06-.21,0-.32.12a2.09,2.09,0,0,0-.28.47c-.17.34-.32.72-.44,1S224.74,159.11,224.74,159.11Z"/><path class="cls-1" d="M228.64,157.9a3,3,0,0,0-.35-.39,4.13,4.13,0,0,0-.91-.67,2,2,0,0,0-.59-.21.58.58,0,0,0-.34.05.36.36,0,0,0-.18.25.74.74,0,0,0,0,.39,1.11,1.11,0,0,0,0,.13,2,2,0,0,1,.07-.47c.05-.12.16-.14.32-.1a2.39,2.39,0,0,1,.51.21l.94.55Z"/><path class="cls-1" d="M0,1.81a3,3,0,0,1,.18-.45A4.36,4.36,0,0,1,.76.46,1.91,1.91,0,0,1,1.22.07.55.55,0,0,1,1.53,0a.39.39,0,0,1,.25.17.73.73,0,0,1,.1.36V.66a1.32,1.32,0,0,0-.22-.4c-.09-.09-.18-.07-.32,0A2.48,2.48,0,0,0,1,.64c-.25.28-.48.58-.66.8Z"/><path class="cls-1" d="M3.87,1.69a3.15,3.15,0,0,0-.22-.43A3.7,3.7,0,0,0,3,.41,1.69,1.69,0,0,0,2.5.06a.5.5,0,0,0-.32,0A.37.37,0,0,0,2,.21a.8.8,0,0,0-.07.36c0,.09,0,.14,0,.14A1.88,1.88,0,0,1,2.08.29c.08-.1.18-.09.32,0A3.55,3.55,0,0,1,2.81.6c.26.26.52.54.72.75Z"/><path class="cls-1" d="M4.67,4.81a1.92,1.92,0,0,1,0-.34,3,3,0,0,1,.22-.73,1.74,1.74,0,0,1,.24-.36.38.38,0,0,1,.21-.1.24.24,0,0,1,.2.07.48.48,0,0,1,.13.22l0,.09a1.39,1.39,0,0,0-.23-.23c-.07,0-.14,0-.22.08a1.15,1.15,0,0,0-.18.31c-.12.24-.22.49-.3.68Z"/><path class="cls-1" d="M7.29,4a2.45,2.45,0,0,0-.23-.26,2.84,2.84,0,0,0-.61-.45A1.17,1.17,0,0,0,6,3.14a.34.34,0,0,0-.22,0,.25.25,0,0,0-.12.17.49.49,0,0,0,0,.26l0,.09a1.33,1.33,0,0,1,0-.32c0-.08.1-.09.22-.07a2.37,2.37,0,0,1,.34.15c.23.12.46.27.63.37Z"/><path class="cls-1" d="M25,6.12a3.44,3.44,0,0,1,.05-.51,4.63,4.63,0,0,1,.34-1.09A1.8,1.8,0,0,1,25.77,4a.48.48,0,0,1,.29-.15.35.35,0,0,1,.31.09.79.79,0,0,1,.19.34.83.83,0,0,1,0,.14,1.14,1.14,0,0,0-.33-.35c-.12-.07-.21,0-.32.11a1.77,1.77,0,0,0-.28.47c-.17.35-.32.72-.44,1S25,6.12,25,6.12Z"/><path class="cls-1" d="M28.92,4.9a3.67,3.67,0,0,0-.35-.38,4.68,4.68,0,0,0-.91-.68,2,2,0,0,0-.6-.21.56.56,0,0,0-.33.05.41.41,0,0,0-.19.26.81.81,0,0,0,0,.38,1,1,0,0,0,.05.14A1.27,1.27,0,0,1,26.7,4c.05-.12.15-.14.32-.1a2.39,2.39,0,0,1,.51.21c.34.19.68.4.94.56Z"/></g></g></svg>