<svg xmlns="http://www.w3.org/2000/svg" viewBox="0 0 307.28 159.53"><defs><style>.cls-1{fill:#0d1a20;}.cls-2{fill:#c1272d;}.cls-3{fill:#fff;}.cls-4{fill:#bbc76e;}.cls-5{fill:#283444;}</style></defs><g id="Layer_2" data-name="Layer 2"><g id="L2"><rect class="cls-1" x="107.07" y="135.34" width="1.79" height="24.2"/><rect class="cls-1" x="107.35" y="134.43" width="1.23" height="6.16" transform="translate(245.48 29.54) rotate(90)"/><rect class="cls-1" x="107.35" y="138.87" width="1.23" height="6.16" transform="translate(249.92 33.98) rotate(90)"/><rect class="cls-1" x="122.65" y="135.34" width="1.79" height="24.2"/><rect class="cls-1" x="122.93" y="134.43" width="1.23" height="6.16" transform="translate(261.05 13.96) rotate(90)"/><rect class="cls-1" x="122.93" y="138.87" width="1.23" height="6.16" transform="translate(265.5 18.41) rotate(90)"/><rect class="cls-1" x="140.13" y="135.34" width="1.79" height="24.2"/><rect class="cls-1" x="140.4" y="134.43" width="1.23" height="6.16" transform="translate(278.53 -3.51) rotate(90)"/><rect class="cls-1" x="140.4" y="138.87" width="1.23" height="6.16" transform="translate(282.97 0.93) rotate(90)"/><rect class="cls-1" x="190.65" y="135.34" width="1.79" height="24.2"/><rect class="cls-1" x="190.93" y="134.43" width="1.23" height="6.16" transform="translate(329.05 -54.03) rotate(90)"/><rect class="cls-1" x="190.93" y="138.87" width="1.23" height="6.16" transform="translate(333.49 -49.59) rotate(90)"/><rect class="cls-1" x="264.17" y="135.34" width="1.79" height="24.2"/><rect class="cls-1" x="264.44" y="134.43" width="1.23" height="6.16" transform="translate(402.57 -127.55) rotate(90)"/><rect class="cls-1" x="264.44" y="138.87" width="1.23" height="6.16" transform="translate(407.01 -123.11) rotate(90)"/><rect class="cls-1" x="159.59" width="1.17" height="46.99" transform="translate(320.35 46.99) rotate(180)"/><rect class="cls-1" x="159.59" y="41.32" width="1.17" height="6.91" transform="translate(204.95 -115.4) rotate(90)"/><rect class="cls-1" x="159.59" y="37.07" width="1.17" height="6.91" transform="translate(200.7 -119.65) rotate(90)"/><rect class="cls-1" x="159.59" y="29.25" width="1.17" height="4.92" transform="translate(191.88 -128.47) rotate(90)"/><rect class="cls-1" x="159.59" y="25" width="1.17" height="4.92" transform="translate(187.63 -132.72) rotate(90)"/><rect class="cls-2" x="159.59" width="1.17" height="1.34" transform="translate(320.35 1.34) rotate(180)"/><rect class="cls-2" x="159.59" y="2.47" width="1.17" height="1.34" transform="translate(320.35 6.28) rotate(180)"/><rect class="cls-2" x="159.59" y="5" width="1.17" height="1.34" transform="translate(320.35 11.34) rotate(180)"/><rect class="cls-3" x="156.55" y="26.87" width="1.17" height="1.17" transform="translate(314.27 54.91) rotate(180)"/><rect class="cls-3" x="162.63" y="26.87" width="1.17" height="1.17" transform="translate(326.44 54.91) rotate(180)"/><rect class="cls-1" x="290.37" y="80.84" width="1.51" height="10.55" transform="translate(582.25 172.22) rotate(180)"/><rect class="cls-2" x="290.37" y="78.65" width="1.51" height="2.18" transform="translate(582.25 159.49) rotate(180)"/><rect class="cls-2" x="290.37" y="82.34" width="1.51" height="2.18" transform="translate(582.25 166.86) rotate(180)"/><rect class="cls-1" x="44.27" y="82.46" width="1.51" height="10.55" transform="translate(90.05 175.46) rotate(180)"/><rect class="cls-2" x="44.27" y="80.27" width="1.51" height="2.18" transform="translate(90.05 162.73) rotate(180)"/><rect class="cls-2" x="44.27" y="83.96" width="1.51" height="2.18" transform="translate(90.05 170.1) rotate(180)"/><rect class="cls-1" x="271.91" y="123.42" width="0.5" height="9.83" transform="translate(544.32 256.67) rotate(180)"/><rect class="cls-1" x="270.34" y="121.85" width="1.01" height="3.14" transform="translate(394.26 -147.42) rotate(90)"/><rect class="cls-3" x="269.28" y="123.26" width="2.64" height="0.66" transform="translate(541.19 247.19) rotate(180)"/><rect class="cls-1" x="260.58" y="123.42" width="0.5" height="9.83" transform="translate(521.66 256.67) rotate(180)"/><rect class="cls-1" x="259.01" y="121.85" width="1.01" height="3.14" transform="translate(382.93 -136.09) rotate(90)"/><rect class="cls-3" x="257.95" y="123.26" width="2.64" height="0.66" transform="translate(518.53 247.19) rotate(180)"/><rect class="cls-1" x="148.04" y="116.47" width="0.5" height="9.82" transform="translate(296.59 242.76) rotate(180)"/><rect class="cls-1" x="146.47" y="114.9" width="1.01" height="3.14" transform="translate(263.44 -30.51) rotate(90)"/><rect class="cls-3" x="145.41" y="116.31" width="2.64" height="0.66" transform="translate(293.45 233.28) rotate(180)"/><rect class="cls-1" x="136.71" y="116.47" width="0.5" height="9.82" transform="translate(273.93 242.76) rotate(180)"/><rect class="cls-1" x="135.14" y="114.9" width="1.01" height="3.14" transform="translate(252.11 -19.18) rotate(90)"/><rect class="cls-3" x="134.08" y="116.31" width="2.64" height="0.66" transform="translate(270.79 233.28) rotate(180)"/><rect class="cls-1" x="122.39" y="116.47" width="0.5" height="9.82" transform="translate(245.28 242.76) rotate(180)"/><rect class="cls-1" x="120.82" y="114.9" width="1.01" height="3.14" transform="translate(237.79 -4.86) rotate(90)"/><rect class="cls-3" x="119.75" y="116.31" width="2.64" height="0.66" transform="translate(242.14 233.28) rotate(180)"/><rect class="cls-1" x="111.06" y="116.47" width="0.5" height="9.82" transform="translate(222.62 242.76) rotate(180)"/><rect class="cls-1" x="109.49" y="114.9" width="1.01" height="3.14" transform="translate(226.46 6.47) rotate(90)"/><rect class="cls-3" x="108.42" y="116.31" width="2.64" height="0.66" transform="translate(219.48 233.28) rotate(180)"/><rect class="cls-1" x="40.42" y="126.96" width="0.5" height="9.82" transform="translate(81.34 263.75) rotate(180)"/><rect class="cls-1" x="38.85" y="125.4" width="1.01" height="3.14" transform="translate(166.32 87.61) rotate(90)"/><rect class="cls-3" x="37.79" y="126.81" width="2.64" height="0.66" transform="translate(78.21 254.28) rotate(180)"/><rect class="cls-1" x="264.69" y="99.07" width="0.5" height="9.83" transform="translate(529.89 207.96) rotate(180)"/><rect class="cls-1" x="263.12" y="97.5" width="1.01" height="3.14" transform="translate(362.69 -164.56) rotate(90)"/><rect class="cls-3" x="262.06" y="98.91" width="2.64" height="0.66" transform="translate(526.75 198.48) rotate(180)"/><rect class="cls-1" x="276.35" y="90.73" width="30.94" height="62.51" transform="translate(583.63 243.97) rotate(180)"/><rect class="cls-4" x="297.24" y="94.23" width="4.62" height="8.28" transform="translate(599.1 196.73) rotate(180)"/><rect class="cls-5" x="301.11" y="94.23" width="0.75" height="8.28" transform="translate(602.96 196.73) rotate(180)"/><rect class="cls-4" x="285.76" y="94.23" width="4.62" height="8.28" transform="translate(576.14 196.73) rotate(180)"/><rect class="cls-5" x="289.63" y="94.23" width="0.75" height="8.28" transform="translate(580.01 196.73) rotate(180)"/><rect class="cls-4" x="297.24" y="107.87" width="4.62" height="8.28" transform="translate(599.1 224.02) rotate(180)"/><rect class="cls-5" x="301.11" y="107.87" width="0.75" height="8.28" transform="translate(602.96 224.02) rotate(180)"/><rect class="cls-4" x="285.76" y="107.87" width="4.62" height="8.28" transform="translate(576.14 224.02) rotate(180)"/><rect class="cls-5" x="289.63" y="107.87" width="0.75" height="8.28" transform="translate(580.01 224.02) rotate(180)"/><rect class="cls-4" x="297.24" y="121.99" width="4.62" height="8.28" transform="translate(599.1 252.25) rotate(180)"/><rect class="cls-5" x="301.11" y="121.99" width="0.75" height="8.28" transform="translate(602.96 252.25) rotate(180)"/><rect class="cls-4" x="285.76" y="121.99" width="4.62" height="8.28" transform="translate(576.14 252.25) rotate(180)"/><rect class="cls-5" x="289.63" y="121.99" width="0.75" height="8.28" transform="translate(580.01 252.25) rotate(180)"/><rect class="cls-1" x="0.21" y="90.73" width="28.92" height="62.51" transform="translate(29.35 243.97) rotate(180)"/><rect class="cls-4" x="19.75" y="94.23" width="4.32" height="8.28" transform="translate(43.81 196.73) rotate(180)"/><rect class="cls-5" x="23.36" y="94.23" width="0.7" height="8.28" transform="translate(47.43 196.73) rotate(180)"/><rect class="cls-4" x="9.02" y="94.23" width="4.32" height="8.28" transform="translate(22.35 196.73) rotate(180)"/><rect class="cls-5" x="12.63" y="94.23" width="0.7" height="8.28" transform="translate(25.97 196.73) rotate(180)"/><rect class="cls-4" x="19.75" y="107.87" width="4.32" height="8.28" transform="translate(43.81 224.02) rotate(180)"/><rect class="cls-5" x="23.36" y="107.87" width="0.7" height="8.28" transform="translate(47.43 224.02) rotate(180)"/><rect class="cls-4" x="9.02" y="107.87" width="4.32" height="8.28" transform="translate(22.35 224.02) rotate(180)"/><rect class="cls-5" x="12.63" y="107.87" width="0.7" height="8.28" transform="translate(25.97 224.02) rotate(180)"/><rect class="cls-4" x="19.75" y="121.99" width="4.32" height="8.28" transform="translate(43.81 252.25) rotate(180)"/><rect class="cls-5" x="23.36" y="121.99" width="0.7" height="8.28" transform="translate(47.43 252.25) rotate(180)"/><rect class="cls-4" x="9.02" y="121.99" width="4.32" height="8.28" transform="translate(22.35 252.25) rotate(180)"/><rect class="cls-5" x="12.63" y="121.99" width="0.7" height="8.28" transform="translate(25.97 252.25) rotate(180)"/><rect class="cls-1" x="155.71" y="46.82" width="28.92" height="62.51" transform="translate(340.34 156.15) rotate(180)"/><rect class="cls-4" x="175.24" y="50.32" width="4.32" height="8.28" transform="translate(354.8 108.91) rotate(180)"/><rect class="cls-5" x="178.86" y="50.32" width="0.7" height="8.28" transform="translate(358.41 108.91) rotate(180)"/><rect class="cls-4" x="164.51" y="50.32" width="4.32" height="8.28" transform="translate(333.34 108.91) rotate(180)"/><rect class="cls-5" x="168.13" y="50.32" width="0.7" height="8.28" transform="translate(336.95 108.91) rotate(180)"/><rect class="cls-4" x="175.24" y="63.96" width="4.32" height="8.28" transform="translate(354.8 136.2) rotate(180)"/><rect class="cls-5" x="178.86" y="63.96" width="0.7" height="8.28" transform="translate(358.41 136.2) rotate(180)"/><rect class="cls-4" x="164.51" y="63.96" width="4.32" height="8.28" transform="translate(333.34 136.2) rotate(180)"/><rect class="cls-5" x="168.13" y="63.96" width="0.7" height="8.28" transform="translate(336.95 136.2) rotate(180)"/><rect class="cls-4" x="175.24" y="78.08" width="4.32" height="8.28" transform="translate(354.8 164.43) rotate(180)"/><rect class="cls-5" x="178.86" y="78.08" width="0.7" height="8.28" transform="translate(358.41 164.43) rotate(180)"/><rect class="cls-4" x="164.51" y="78.08" width="4.32" height="8.28" transform="translate(333.34 164.43) rotate(180)"/><rect class="cls-5" x="168.13" y="78.08" width="0.7" height="8.28" transform="translate(336.95 164.43) rotate(180)"/><rect class="cls-1" x="155.71" y="90.73" width="28.92" height="62.51" transform="translate(340.34 243.97) rotate(180)"/><rect class="cls-4" x="175.24" y="94.23" width="4.32" height="8.28" transform="translate(354.8 196.73) rotate(180)"/><rect class="cls-5" x="178.86" y="94.23" width="0.7" height="8.28" transform="translate(358.41 196.73) rotate(180)"/><rect class="cls-4" x="164.51" y="94.23" width="4.32" height="8.28" transform="translate(333.34 196.73) rotate(180)"/><rect class="cls-5" x="168.13" y="94.23" width="0.7" height="8.28" transform="translate(336.95 196.73) rotate(180)"/><rect class="cls-4" x="175.24" y="107.87" width="4.32" height="8.28" transform="translate(354.8 224.02) rotate(180)"/><rect class="cls-5" x="178.86" y="107.87" width="0.7" height="8.28" transform="translate(358.41 224.02) rotate(180)"/><rect class="cls-4" x="164.51" y="107.87" width="4.32" height="8.28" transform="translate(333.34 224.02) rotate(180)"/><rect class="cls-5" x="168.13" y="107.87" width="0.7" height="8.28" transform="translate(336.95 224.02) rotate(180)"/><rect class="cls-4" x="175.24" y="121.99" width="4.32" height="8.28" transform="translate(354.8 252.25) rotate(180)"/><rect class="cls-5" x="178.86" y="121.99" width="0.7" height="8.28" transform="translate(358.41 252.25) rotate(180)"/><rect class="cls-4" x="164.51" y="121.99" width="4.32" height="8.28" transform="translate(333.34 252.25) rotate(180)"/><rect class="cls-5" x="168.13" y="121.99" width="0.7" height="8.28" transform="translate(336.95 252.25) rotate(180)"/><path class="cls-1" d="M197.92,90.73v62.51H253V90.73Zm46.93,4.21h4.32v5.94h-4.32Zm-10.73,9.79h4.32v5.94h-4.32Zm-11,10.13h4.32v5.94h-4.32Zm0-10.13h4.32v5.94h-4.32Zm-10.73-9.79h4.32v5.94h-4.32Zm-10.57,19.92h4.31v5.94h-4.31Zm0-19.92h4.31v5.94h-4.31Z"/><rect class="cls-5" x="248.47" y="94.94" width="0.7" height="5.94" transform="translate(497.63 195.83) rotate(180)"/><rect class="cls-4" x="234.12" y="94.94" width="4.32" height="5.94" transform="translate(472.56 195.83) rotate(180)"/><rect class="cls-5" x="237.74" y="94.94" width="0.7" height="5.94" transform="translate(476.18 195.83) rotate(180)"/><rect class="cls-4" x="244.85" y="104.73" width="4.32" height="5.94" transform="translate(494.02 215.41) rotate(180)"/><rect class="cls-5" x="248.47" y="104.73" width="0.7" height="5.94" transform="translate(497.63 215.41) rotate(180)"/><rect class="cls-5" x="237.74" y="104.73" width="0.7" height="5.94" transform="translate(476.18 215.41) rotate(180)"/><rect class="cls-4" x="244.85" y="114.86" width="4.32" height="5.94" transform="translate(494.02 235.66) rotate(180)"/><rect class="cls-5" x="248.47" y="114.86" width="0.7" height="5.94" transform="translate(497.63 235.66) rotate(180)"/><rect class="cls-4" x="234.12" y="114.86" width="4.32" height="5.94" transform="translate(472.56 235.66) rotate(180)"/><rect class="cls-5" x="237.74" y="114.86" width="0.7" height="5.94" transform="translate(476.18 235.66) rotate(180)"/><rect class="cls-4" x="223.08" y="94.94" width="4.32" height="5.94" transform="translate(450.48 195.83) rotate(180)"/><rect class="cls-5" x="226.7" y="94.94" width="0.7" height="5.94" transform="translate(454.09 195.83) rotate(180)"/><rect class="cls-5" x="215.97" y="94.94" width="0.7" height="5.94" transform="translate(432.63 195.83) rotate(180)"/><rect class="cls-5" x="226.7" y="104.73" width="0.7" height="5.94" transform="translate(454.09 215.41) rotate(180)"/><rect class="cls-4" x="212.35" y="104.73" width="4.32" height="5.94" transform="translate(429.02 215.41) rotate(180)"/><rect class="cls-5" x="215.97" y="104.73" width="0.7" height="5.94" transform="translate(432.63 215.41) rotate(180)"/><rect class="cls-5" x="226.7" y="114.86" width="0.7" height="5.94" transform="translate(454.09 235.66) rotate(180)"/><rect class="cls-4" x="212.35" y="114.86" width="4.32" height="5.94" transform="translate(429.02 235.66) rotate(180)"/><rect class="cls-5" x="215.97" y="114.86" width="0.7" height="5.94" transform="translate(432.63 235.66) rotate(180)"/><rect class="cls-5" x="205.39" y="94.94" width="0.7" height="5.94" transform="translate(411.49 195.83) rotate(180)"/><rect class="cls-4" x="201.78" y="104.73" width="4.32" height="5.94" transform="translate(407.87 215.41) rotate(180)"/><rect class="cls-5" x="205.39" y="104.73" width="0.7" height="5.94" transform="translate(411.49 215.41) rotate(180)"/><rect class="cls-5" x="205.39" y="114.86" width="0.7" height="5.94" transform="translate(411.49 235.66) rotate(180)"/><path class="cls-1" d="M43.37,90.73v62.51h55.1V90.73Zm8.17,10.15H47.22V94.94h4.32Zm10.73,9.79H58v-5.94h4.32Zm11,10.13H69v-5.94h4.32Zm0-10.13H69v-5.94h4.32ZM84,100.88H79.72V94.94H84ZM94.61,120.8H90.3v-5.94h4.31Zm0-19.92H90.3V94.94h4.31Z"/><rect class="cls-5" x="47.22" y="94.94" width="0.7" height="5.94"/><rect class="cls-4" x="57.95" y="94.94" width="4.32" height="5.94"/><rect class="cls-5" x="57.95" y="94.94" width="0.7" height="5.94"/><rect class="cls-4" x="47.22" y="104.73" width="4.32" height="5.94"/><rect class="cls-5" x="47.22" y="104.73" width="0.7" height="5.94"/><rect class="cls-5" x="57.95" y="104.73" width="0.7" height="5.94"/><rect class="cls-4" x="47.22" y="114.86" width="4.32" height="5.94"/><rect class="cls-5" x="47.22" y="114.86" width="0.7" height="5.94"/><rect class="cls-4" x="57.95" y="114.86" width="4.32" height="5.94"/><rect class="cls-5" x="57.95" y="114.86" width="0.7" height="5.94"/><rect class="cls-4" x="68.99" y="94.94" width="4.32" height="5.94"/><rect class="cls-5" x="68.99" y="94.94" width="0.7" height="5.94"/><rect class="cls-5" x="79.72" y="94.94" width="0.7" height="5.94"/><rect class="cls-5" x="68.99" y="104.73" width="0.7" height="5.94"/><rect class="cls-4" x="79.72" y="104.73" width="4.32" height="5.94"/><rect class="cls-5" x="79.72" y="104.73" width="0.7" height="5.94"/><rect class="cls-5" x="68.99" y="114.86" width="0.7" height="5.94"/><rect class="cls-4" x="79.72" y="114.86" width="4.32" height="5.94"/><rect class="cls-5" x="79.72" y="114.86" width="0.7" height="5.94"/><rect class="cls-5" x="90.3" y="94.94" width="0.7" height="5.94"/><rect class="cls-4" x="90.3" y="104.73" width="4.32" height="5.94"/><rect class="cls-5" x="90.3" y="104.73" width="0.7" height="5.94"/><rect class="cls-5" x="90.3" y="114.86" width="0.7" height="5.94"/><rect class="cls-1" x="253.03" y="111.15" width="23.32" height="3.71" transform="translate(529.37 226) rotate(180)"/><rect class="cls-1" x="253.03" y="107.24" width="23.32" height="1.27" transform="translate(529.37 215.74) rotate(180)"/><rect class="cls-1" x="251.5" y="109.39" width="4.31" height="1.27" transform="translate(363.69 -143.63) rotate(90)"/><rect class="cls-1" x="256.7" y="107.87" width="1.27" height="4.31"/><rect class="cls-1" x="260.38" y="107.87" width="1.27" height="4.31"/><rect class="cls-1" x="264.05" y="107.87" width="1.27" height="4.31"/><rect class="cls-1" x="267.73" y="107.87" width="1.27" height="4.31"/><rect class="cls-1" x="271.4" y="107.87" width="1.27" height="4.31"/><rect class="cls-1" x="273.55" y="109.39" width="4.31" height="1.27" transform="translate(385.74 -165.68) rotate(90)"/><rect class="cls-1" x="181.9" y="126.23" width="23.32" height="3.71" transform="translate(387.13 256.16) rotate(180)"/><rect class="cls-1" x="181.9" y="122.31" width="23.32" height="1.27" transform="translate(387.13 245.9) rotate(180)"/><rect class="cls-1" x="180.38" y="124.47" width="4.31" height="1.27" transform="translate(307.65 -57.43) rotate(90)"/><rect class="cls-1" x="185.58" y="122.95" width="1.27" height="4.31"/><rect class="cls-1" x="189.25" y="122.95" width="1.27" height="4.31"/><rect class="cls-1" x="192.93" y="122.95" width="1.27" height="4.31"/><rect class="cls-1" x="196.6" y="122.95" width="1.27" height="4.31"/><rect class="cls-1" x="200.28" y="122.95" width="1.27" height="4.31"/><rect class="cls-1" x="202.43" y="124.47" width="4.31" height="1.27" transform="translate(329.7 -79.48) rotate(90)"/><rect class="cls-1" x="133.18" y="126.23" width="23.32" height="3.71" transform="translate(289.69 256.16) rotate(180)"/><rect class="cls-1" x="133.18" y="122.31" width="23.32" height="1.27" transform="translate(289.69 245.9) rotate(180)"/><rect class="cls-1" x="131.66" y="124.47" width="4.31" height="1.27" transform="translate(258.92 -8.71) rotate(90)"/><rect class="cls-1" x="136.86" y="122.95" width="1.27" height="4.31"/><rect class="cls-1" x="140.53" y="122.95" width="1.27" height="4.31"/><rect class="cls-1" x="144.21" y="122.95" width="1.27" height="4.31"/><rect class="cls-1" x="147.88" y="122.95" width="1.27" height="4.31"/><rect class="cls-1" x="151.56" y="122.95" width="1.27" height="4.31"/><rect class="cls-1" x="153.71" y="124.47" width="4.31" height="1.27" transform="translate(280.97 -30.76) rotate(90)"/><rect class="cls-1" x="110.72" y="126.23" width="23.32" height="3.71" transform="translate(244.77 256.16) rotate(180)"/><rect class="cls-1" x="110.72" y="122.31" width="23.32" height="1.27" transform="translate(244.77 245.9) rotate(180)"/><rect class="cls-1" x="109.2" y="124.47" width="4.31" height="1.27" transform="translate(236.47 13.75) rotate(90)"/><rect class="cls-1" x="114.4" y="122.95" width="1.27" height="4.31"/><rect class="cls-1" x="118.07" y="122.95" width="1.27" height="4.31"/><rect class="cls-1" x="121.75" y="122.95" width="1.27" height="4.31"/><rect class="cls-1" x="125.42" y="122.95" width="1.27" height="4.31"/><rect class="cls-1" x="129.1" y="122.95" width="1.27" height="4.31"/><rect class="cls-1" x="131.25" y="124.47" width="4.31" height="1.27" transform="translate(258.51 -8.3) rotate(90)"/><rect class="cls-1" x="88.69" y="126.23" width="23.32" height="3.71" transform="translate(200.71 256.16) rotate(180)"/><rect class="cls-1" x="88.69" y="122.31" width="23.32" height="1.27" transform="translate(200.71 245.9) rotate(180)"/><rect class="cls-1" x="87.17" y="124.47" width="4.31" height="1.27" transform="translate(214.44 35.78) rotate(90)"/><rect class="cls-1" x="92.37" y="122.95" width="1.27" height="4.31"/><rect class="cls-1" x="96.04" y="122.95" width="1.27" height="4.31"/><rect class="cls-1" x="99.72" y="122.95" width="1.27" height="4.31"/><rect class="cls-1" x="103.39" y="122.95" width="1.27" height="4.31"/><rect class="cls-1" x="107.07" y="122.95" width="1.27" height="4.31"/><rect class="cls-1" x="109.22" y="124.47" width="4.31" height="1.27" transform="translate(236.49 13.73) rotate(90)"/><rect class="cls-1" x="44.49" y="137.56" width="23.32" height="3.71" transform="translate(112.3 278.84) rotate(180)"/><rect class="cls-1" x="44.49" y="133.65" width="23.32" height="1.27" transform="translate(112.3 268.57) rotate(180)"/><rect class="cls-1" x="42.97" y="135.81" width="4.31" height="1.27" transform="translate(181.57 91.32) rotate(90)"/><rect class="cls-1" x="48.16" y="134.29" width="1.27" height="4.31"/><rect class="cls-1" x="51.84" y="134.29" width="1.27" height="4.31"/><rect class="cls-1" x="55.51" y="134.29" width="1.27" height="4.31"/><rect class="cls-1" x="59.19" y="134.29" width="1.27" height="4.31"/><rect class="cls-1" x="62.86" y="134.29" width="1.27" height="4.31"/><rect class="cls-1" x="65.02" y="135.81" width="4.31" height="1.27" transform="translate(203.62 69.27) rotate(90)"/><rect class="cls-1" x="22.03" y="137.56" width="23.32" height="3.71" transform="translate(67.38 278.84) rotate(180)"/><rect class="cls-1" x="22.03" y="133.65" width="23.32" height="1.27" transform="translate(67.38 268.57) rotate(180)"/><rect class="cls-1" x="20.51" y="135.81" width="4.31" height="1.27" transform="translate(159.11 113.78) rotate(90)"/><rect class="cls-1" x="25.7" y="134.29" width="1.27" height="4.31"/><rect class="cls-1" x="29.38" y="134.29" width="1.27" height="4.31"/><rect class="cls-1" x="33.05" y="134.29" width="1.27" height="4.31"/><rect class="cls-1" x="36.73" y="134.29" width="1.27" height="4.31"/><rect class="cls-1" x="40.4" y="134.29" width="1.27" height="4.31"/><rect class="cls-1" x="42.56" y="135.81" width="4.31" height="1.27" transform="translate(181.16 91.73) rotate(90)"/><rect class="cls-1" y="137.56" width="23.32" height="3.71" transform="translate(23.32 278.84) rotate(180)"/><rect class="cls-1" y="133.65" width="23.32" height="1.27" transform="translate(23.32 268.57) rotate(180)"/><rect class="cls-1" x="-1.52" y="135.81" width="4.31" height="1.27" transform="translate(137.08 135.81) rotate(90)"/><rect class="cls-1" x="3.67" y="134.29" width="1.27" height="4.31"/><rect class="cls-1" x="7.35" y="134.29" width="1.27" height="4.31"/><rect class="cls-1" x="11.02" y="134.29" width="1.27" height="4.31"/><rect class="cls-1" x="14.7" y="134.29" width="1.27" height="4.31"/><rect class="cls-1" x="18.37" y="134.29" width="1.27" height="4.31"/><rect class="cls-1" x="20.53" y="135.81" width="4.31" height="1.27" transform="translate(159.13 113.76) rotate(90)"/><rect class="cls-1" x="253.03" y="133.48" width="23.32" height="3.71" transform="translate(529.37 270.67) rotate(180)"/><rect class="cls-1" x="253.03" y="129.57" width="23.32" height="1.27" transform="translate(529.37 260.41) rotate(180)"/><rect class="cls-1" x="251.5" y="131.73" width="4.31" height="1.27" transform="translate(386.02 -121.3) rotate(90)"/><rect class="cls-1" x="256.7" y="130.2" width="1.27" height="4.31"/><rect class="cls-1" x="260.38" y="130.2" width="1.27" height="4.31"/><rect class="cls-1" x="264.05" y="130.2" width="1.27" height="4.31"/><rect class="cls-1" x="267.73" y="130.2" width="1.27" height="4.31"/><rect class="cls-1" x="271.4" y="130.2" width="1.27" height="4.31"/><rect class="cls-1" x="273.55" y="131.73" width="4.31" height="1.27" transform="translate(408.07 -143.35) rotate(90)"/><rect class="cls-1" x="96.66" y="82.46" width="1.51" height="10.55" transform="translate(194.83 175.46) rotate(180)"/><rect class="cls-2" x="96.66" y="80.27" width="1.51" height="2.18" transform="translate(194.83 162.73) rotate(180)"/><rect class="cls-2" x="96.66" y="83.96" width="1.51" height="2.18" transform="translate(194.83 170.1) rotate(180)"/></g></g></svg>