<svg xmlns="http://www.w3.org/2000/svg" viewBox="0 0 198.12 142.11"><defs><style>.cls-1{fill:#132c33;}.cls-2{fill:#fff;}.cls-3{fill:#946375;}</style></defs><g id="Layer_2" data-name="Layer 2"><g id="L3"><rect class="cls-1" x="139.76" y="46.85" width="0.56" height="4.75" transform="translate(280.09 98.44) rotate(180)"/><rect class="cls-1" x="131.19" y="46.85" width="0.56" height="4.75" transform="translate(262.94 98.44) rotate(180)"/><rect class="cls-1" x="139.76" y="54.67" width="0.56" height="4.75" transform="translate(280.09 114.09) rotate(180)"/><rect class="cls-1" x="131.19" y="54.67" width="0.56" height="4.75" transform="translate(262.94 114.09) rotate(180)"/><rect class="cls-1" x="139.76" y="62.76" width="0.56" height="4.75" transform="translate(280.09 130.27) rotate(180)"/><rect class="cls-1" x="131.19" y="62.76" width="0.56" height="4.75" transform="translate(262.94 130.27) rotate(180)"/><rect class="cls-1" x="122.37" y="46.85" width="0.56" height="4.75" transform="translate(245.3 98.44) rotate(180)"/><rect class="cls-1" x="113.8" y="46.85" width="0.56" height="4.75" transform="translate(228.15 98.44) rotate(180)"/><rect class="cls-1" x="122.37" y="54.67" width="0.56" height="4.75" transform="translate(245.3 114.09) rotate(180)"/><rect class="cls-1" x="113.8" y="54.67" width="0.56" height="4.75" transform="translate(228.15 114.09) rotate(180)"/><rect class="cls-1" x="122.37" y="62.76" width="0.56" height="4.75" transform="translate(245.3 130.27) rotate(180)"/><rect class="cls-1" x="113.8" y="62.76" width="0.56" height="4.75" transform="translate(228.15 130.27) rotate(180)"/><rect class="cls-1" x="105.35" y="46.85" width="0.56" height="4.75" transform="translate(211.25 98.44) rotate(180)"/><path class="cls-1" d="M99.37,43.48v50h44v-50Zm37.51,19.28h3.44v4.75h-3.44Zm0-8.09h3.44v4.75h-3.44Zm0-7.82h3.44V51.6h-3.44ZM128.3,62.76h3.45v4.75H128.3Zm0-8.09h3.45v4.75H128.3Zm0-7.82h3.45V51.6H128.3Zm-8.82,15.91h3.45v4.75h-3.45Zm0-8.09h3.45v4.75h-3.45Zm0-7.82h3.45V51.6h-3.45Zm-8.57,15.91h3.44v4.75h-3.44Zm0-8.09h3.44v4.75h-3.44Zm0-7.82h3.44V51.6h-3.44Zm-8.45,15.91h3.44v4.75h-3.44Zm0-8.09h3.44v4.75h-3.44Zm0-7.82h3.44V51.6h-3.44Z"/><rect class="cls-1" x="105.35" y="54.67" width="0.56" height="4.75" transform="translate(211.25 114.09) rotate(180)"/><rect class="cls-1" x="105.35" y="62.76" width="0.56" height="4.75" transform="translate(211.25 130.27) rotate(180)"/><rect class="cls-1" x="165.63" y="89.76" width="27.6" height="52.35" transform="translate(358.86 231.87) rotate(180)"/><rect class="cls-1" x="43.21" y="89.76" width="27.6" height="52.35" transform="translate(114.02 231.87) rotate(180)"/><rect class="cls-1" y="89.76" width="27.6" height="52.35" transform="translate(27.6 231.87) rotate(180)"/><rect class="cls-1" x="99.37" y="89.76" width="28.22" height="52.35" transform="translate(226.97 231.87) rotate(180)"/><path class="cls-1" d="M165.63,54.87V91h27.6V54.87Zm23.12,15.71h2.19v3h-2.19Zm0-5.13h2.19v3h-2.19Zm0-5h2.19v3h-2.19Zm-4.26,10.1h2.19v3h-2.19Zm0-5.13h2.19v3h-2.19Zm0-5h2.19v3h-2.19Zm-3.78,10.1h2.19v3h-2.19Zm0-5.13h2.19v3h-2.19Zm0-5h2.19v3h-2.19Zm-4.26,10.1h2.19v3h-2.19Zm0-5.13h2.19v3h-2.19Zm0-5h2.19v3h-2.19Zm-4.38,10.1h2.19v3h-2.19Zm0-5.13h2.19v3h-2.19Zm0-5h2.19v3h-2.19Zm-4.26,10.1H170v3h-2.19Zm0-5.13H170v3h-2.19Zm0-5H170v3h-2.19Z"/><path class="cls-1" d="M43.21,56.57V92.72h27.6V56.57ZM66.33,72.28h2.19v3H66.33Zm0-5.13h2.19v3H66.33Zm0-5h2.19v3H66.33ZM62.07,72.28h2.19v3H62.07Zm0-5.13h2.19v3H62.07Zm0-5h2.19v3H62.07ZM58.29,72.28h2.19v3H58.29Zm0-5.13h2.19v3H58.29Zm0-5h2.19v3H58.29ZM54,72.28h2.19v3H54Zm0-5.13h2.19v3H54Zm0-5h2.19v3H54ZM49.65,72.28h2.19v3H49.65Zm0-5.13h2.19v3H49.65Zm0-5h2.19v3H49.65ZM45.39,72.28h2.19v3H45.39Zm0-5.13h2.19v3H45.39Zm0-5h2.19v3H45.39Z"/><path class="cls-1" d="M0,56.57V92.72H27.6V56.57ZM23.13,72.28h2.18v3H23.13Zm0-5.13h2.18v3H23.13Zm0-5h2.18v3H23.13ZM18.87,72.28h2.18v3H18.87Zm0-5.13h2.18v3H18.87Zm0-5h2.18v3H18.87ZM15.08,72.28h2.19v3H15.08Zm0-5.13h2.19v3H15.08Zm0-5h2.19v3H15.08ZM10.82,72.28H13v3H10.82Zm0-5.13H13v3H10.82Zm0-5H13v3H10.82ZM6.44,72.28H8.63v3H6.44Zm0-5.13H8.63v3H6.44Zm0-5H8.63v3H6.44ZM2.18,72.28H4.37v3H2.18Zm0-5.13H4.37v3H2.18Zm0-5H4.37v3H2.18Z"/><rect class="cls-1" x="151.79" y="74.64" width="15.6" height="2.48" transform="translate(319.19 151.77) rotate(180)"/><rect class="cls-1" x="151.79" y="72.03" width="15.6" height="0.85" transform="translate(319.19 144.9) rotate(180)"/><rect class="cls-1" x="150.78" y="73.47" width="2.89" height="0.85" transform="translate(226.11 -78.33) rotate(90)"/><rect class="cls-1" x="154.25" y="72.45" width="0.85" height="2.89"/><rect class="cls-1" x="156.71" y="72.45" width="0.85" height="2.89"/><rect class="cls-1" x="159.17" y="72.45" width="0.85" height="2.89"/><rect class="cls-1" x="161.63" y="72.45" width="0.85" height="2.89"/><rect class="cls-1" x="164.09" y="72.45" width="0.85" height="2.89"/><rect class="cls-1" x="165.53" y="73.47" width="2.89" height="0.85" transform="translate(240.87 -93.08) rotate(90)"/><rect class="cls-1" x="137.04" y="74.64" width="15.6" height="2.48" transform="translate(289.69 151.77) rotate(180)"/><rect class="cls-1" x="137.04" y="72.03" width="15.6" height="0.85" transform="translate(289.69 144.9) rotate(180)"/><rect class="cls-1" x="136.03" y="73.47" width="2.89" height="0.85" transform="translate(211.36 -63.57) rotate(90)"/><rect class="cls-1" x="139.5" y="72.45" width="0.85" height="2.89"/><rect class="cls-1" x="141.96" y="72.45" width="0.85" height="2.89"/><rect class="cls-1" x="144.42" y="72.45" width="0.85" height="2.89"/><rect class="cls-1" x="146.88" y="72.45" width="0.85" height="2.89"/><rect class="cls-1" x="149.34" y="72.45" width="0.85" height="2.89"/><rect class="cls-1" x="150.78" y="73.47" width="2.89" height="0.85" transform="translate(226.11 -78.33) rotate(90)"/><rect class="cls-1" x="170.99" y="54.93" width="15.6" height="2.48" transform="translate(357.59 112.35) rotate(180)"/><rect class="cls-1" x="170.99" y="52.32" width="15.6" height="0.85" transform="translate(357.59 105.48) rotate(180)"/><rect class="cls-1" x="169.98" y="53.76" width="2.89" height="0.85" transform="translate(225.6 -117.23) rotate(90)"/><rect class="cls-1" x="173.45" y="52.74" width="0.85" height="2.89"/><rect class="cls-1" x="175.91" y="52.74" width="0.85" height="2.89"/><rect class="cls-1" x="178.37" y="52.74" width="0.85" height="2.89"/><rect class="cls-1" x="180.83" y="52.74" width="0.85" height="2.89"/><rect class="cls-1" x="183.29" y="52.74" width="0.85" height="2.89"/><rect class="cls-1" x="184.73" y="53.76" width="2.89" height="0.85" transform="translate(240.35 -131.99) rotate(90)"/><rect class="cls-1" x="27.6" y="62.9" width="15.6" height="2.48" transform="translate(70.81 128.27) rotate(180)"/><rect class="cls-1" x="27.6" y="60.28" width="15.6" height="0.85" transform="translate(70.81 121.41) rotate(180)"/><rect class="cls-1" x="26.59" y="61.72" width="2.89" height="0.85" transform="translate(90.18 34.12) rotate(90)"/><rect class="cls-1" x="30.06" y="60.7" width="0.85" height="2.89"/><rect class="cls-1" x="32.52" y="60.7" width="0.85" height="2.89"/><rect class="cls-1" x="34.98" y="60.7" width="0.85" height="2.89"/><rect class="cls-1" x="37.44" y="60.7" width="0.85" height="2.89"/><rect class="cls-1" x="39.9" y="60.7" width="0.85" height="2.89"/><rect class="cls-1" x="41.34" y="61.72" width="2.89" height="0.85" transform="translate(104.93 19.37) rotate(90)"/><rect class="cls-1" x="27.6" y="71.86" width="15.6" height="2.48" transform="translate(70.81 146.2) rotate(180)"/><rect class="cls-1" x="27.6" y="69.24" width="15.6" height="0.85" transform="translate(70.81 139.33) rotate(180)"/><rect class="cls-1" x="26.59" y="70.68" width="2.89" height="0.85" transform="translate(99.14 43.08) rotate(90)"/><rect class="cls-1" x="30.06" y="69.67" width="0.85" height="2.89"/><rect class="cls-1" x="32.52" y="69.67" width="0.85" height="2.89"/><rect class="cls-1" x="34.98" y="69.67" width="0.85" height="2.89"/><rect class="cls-1" x="37.44" y="69.67" width="0.85" height="2.89"/><rect class="cls-1" x="39.9" y="69.67" width="0.85" height="2.89"/><rect class="cls-1" x="41.34" y="70.68" width="2.89" height="0.85" transform="translate(113.89 28.33) rotate(90)"/><rect class="cls-1" x="27.6" y="80.97" width="15.6" height="2.48" transform="translate(70.81 164.42) rotate(180)"/><rect class="cls-1" x="27.6" y="78.35" width="15.6" height="0.85" transform="translate(70.81 157.55) rotate(180)"/><rect class="cls-1" x="26.59" y="79.79" width="2.89" height="0.85" transform="translate(108.25 52.19) rotate(90)"/><rect class="cls-1" x="30.06" y="78.78" width="0.85" height="2.89"/><rect class="cls-1" x="32.52" y="78.78" width="0.85" height="2.89"/><rect class="cls-1" x="34.98" y="78.78" width="0.85" height="2.89"/><rect class="cls-1" x="37.44" y="78.78" width="0.85" height="2.89"/><rect class="cls-1" x="39.9" y="78.78" width="0.85" height="2.89"/><rect class="cls-1" x="41.34" y="79.79" width="2.89" height="0.85" transform="translate(123 37.44) rotate(90)"/><rect class="cls-1" x="112.85" y="41.47" width="15.6" height="5.11" transform="translate(241.29 88.06) rotate(180)"/><rect class="cls-1" x="112.85" y="36.09" width="15.6" height="1.75" transform="translate(241.29 73.92) rotate(180)"/><rect class="cls-1" x="110.3" y="39.51" width="5.94" height="0.85" transform="translate(153.2 -73.34) rotate(90)"/><rect class="cls-1" x="115.3" y="36.96" width="0.85" height="5.94"/><rect class="cls-1" x="117.76" y="36.96" width="0.85" height="5.94"/><rect class="cls-1" x="120.22" y="36.96" width="0.85" height="5.94"/><rect class="cls-1" x="122.68" y="36.96" width="0.85" height="5.94"/><rect class="cls-1" x="125.14" y="36.96" width="0.85" height="5.94"/><rect class="cls-1" x="125.05" y="39.51" width="5.94" height="0.85" transform="translate(167.96 -88.09) rotate(90)"/><rect class="cls-1" x="39.99" y="55.77" width="0.29" height="5.74" transform="translate(80.26 117.29) rotate(180)"/><rect class="cls-1" x="39.07" y="54.86" width="0.59" height="1.83" transform="translate(95.14 16.41) rotate(90)"/><rect class="cls-2" x="38.45" y="55.68" width="1.54" height="0.39" transform="translate(78.43 111.75) rotate(180)"/><rect class="cls-1" x="30.69" y="55.77" width="0.29" height="5.74" transform="translate(61.66 117.29) rotate(180)"/><rect class="cls-1" x="29.77" y="54.86" width="0.59" height="1.83" transform="translate(85.84 25.71) rotate(90)"/><rect class="cls-2" x="29.15" y="55.68" width="1.54" height="0.39" transform="translate(59.83 111.75) rotate(180)"/><rect class="cls-1" x="159.3" y="67.85" width="0.29" height="5.74" transform="translate(318.9 141.45) rotate(180)"/><rect class="cls-1" x="158.39" y="66.94" width="0.59" height="1.83" transform="translate(226.53 -90.83) rotate(90)"/><rect class="cls-2" x="157.76" y="67.76" width="1.54" height="0.39" transform="translate(317.07 135.91) rotate(180)"/><rect class="cls-1" x="150" y="67.85" width="0.29" height="5.74" transform="translate(300.3 141.45) rotate(180)"/><rect class="cls-1" x="149.09" y="66.94" width="0.59" height="1.83" transform="translate(217.23 -81.53) rotate(90)"/><rect class="cls-2" x="148.46" y="67.76" width="1.54" height="0.39" transform="translate(298.47 135.91) rotate(180)"/><rect class="cls-1" x="185.83" y="47.72" width="0.29" height="5.74" transform="translate(371.96 101.18) rotate(180)"/><rect class="cls-1" x="184.92" y="46.8" width="0.59" height="1.83" transform="translate(232.93 -137.49) rotate(90)"/><rect class="cls-2" x="184.29" y="47.63" width="1.54" height="0.39" transform="translate(370.13 95.64) rotate(180)"/><rect class="cls-1" x="178.66" y="47.72" width="0.29" height="5.74" transform="translate(357.62 101.18) rotate(180)"/><rect class="cls-1" x="177.74" y="46.8" width="0.59" height="1.83" transform="translate(225.76 -130.32) rotate(90)"/><rect class="cls-2" x="177.12" y="47.63" width="1.54" height="0.39" transform="translate(355.78 95.64) rotate(180)"/><rect class="cls-1" x="171.62" y="47.72" width="0.29" height="5.74" transform="translate(343.53 101.18) rotate(180)"/><rect class="cls-1" x="170.7" y="46.8" width="0.59" height="1.83" transform="translate(218.71 -123.27) rotate(90)"/><rect class="cls-2" x="170.08" y="47.63" width="1.54" height="0.39" transform="translate(341.69 95.64) rotate(180)"/><rect class="cls-1" x="20.69" y="52.04" width="0.29" height="5.74" transform="translate(41.66 109.82) rotate(180)"/><rect class="cls-1" x="19.77" y="51.12" width="0.59" height="1.83" transform="translate(72.1 31.98) rotate(90)"/><rect class="cls-2" x="19.15" y="51.95" width="1.54" height="0.39" transform="translate(39.83 104.28) rotate(180)"/><rect class="cls-1" x="13.51" y="52.04" width="0.29" height="5.74" transform="translate(27.32 109.82) rotate(180)"/><rect class="cls-1" x="12.6" y="51.12" width="0.59" height="1.83" transform="translate(64.93 39.15) rotate(90)"/><rect class="cls-2" x="11.97" y="51.95" width="1.54" height="0.39" transform="translate(25.49 104.28) rotate(180)"/><rect class="cls-1" x="6.47" y="52.04" width="0.29" height="5.74" transform="translate(13.23 109.82) rotate(180)"/><rect class="cls-1" x="5.55" y="51.12" width="0.59" height="1.83" transform="translate(57.88 46.19) rotate(90)"/><rect class="cls-2" x="4.93" y="51.95" width="1.54" height="0.39" transform="translate(11.4 104.28) rotate(180)"/><rect class="cls-3" x="198.01" y="17.05" width="0.11" height="2.19" transform="translate(396.12 36.3) rotate(180)"/><rect class="cls-3" x="197.65" y="16.7" width="0.22" height="0.7" transform="translate(214.82 -180.72) rotate(90)"/><rect class="cls-2" x="197.42" y="17.02" width="0.59" height="0.15" transform="translate(395.42 34.18) rotate(180)"/><rect class="cls-3" x="191.46" y="17.05" width="0.11" height="2.19" transform="translate(383.03 36.3) rotate(180)"/><rect class="cls-3" x="191.11" y="16.7" width="0.22" height="0.7" transform="translate(208.27 -174.17) rotate(90)"/><rect class="cls-2" x="190.87" y="17.02" width="0.59" height="0.15" transform="translate(382.33 34.18) rotate(180)"/><rect class="cls-3" x="183.98" y="14.27" width="0.11" height="2.19" transform="translate(368.07 30.72) rotate(180)"/><rect class="cls-3" x="183.63" y="13.92" width="0.22" height="0.7" transform="translate(198 -169.47) rotate(90)"/><rect class="cls-2" x="183.39" y="14.23" width="0.59" height="0.15" transform="translate(367.37 28.61) rotate(180)"/><rect class="cls-3" x="177.43" y="14.27" width="0.11" height="2.19" transform="translate(354.98 30.72) rotate(180)"/><rect class="cls-3" x="177.08" y="13.92" width="0.22" height="0.7" transform="translate(191.46 -162.93) rotate(90)"/><rect class="cls-2" x="176.85" y="14.23" width="0.59" height="0.15" transform="translate(354.28 28.61) rotate(180)"/><rect class="cls-3" x="115.42" y="26.04" width="0.11" height="2.19" transform="translate(230.96 54.27) rotate(180)"/><rect class="cls-3" x="115.07" y="25.69" width="0.22" height="0.7" transform="translate(141.23 -89.15) rotate(90)"/><rect class="cls-2" x="114.84" y="26" width="0.59" height="0.15" transform="translate(230.26 52.16) rotate(180)"/><rect class="cls-3" x="108.88" y="26.04" width="0.11" height="2.19" transform="translate(217.87 54.27) rotate(180)"/><rect class="cls-3" x="108.53" y="25.69" width="0.22" height="0.7" transform="translate(134.68 -82.6) rotate(90)"/><rect class="cls-2" x="108.29" y="26" width="0.59" height="0.15" transform="translate(217.17 52.16) rotate(180)"/><rect class="cls-3" x="94.32" y="0.11" width="0.11" height="2.19" transform="translate(188.75 2.42) rotate(180)"/><rect class="cls-3" x="93.97" y="-0.24" width="0.22" height="0.7" transform="translate(94.19 -93.97) rotate(90)"/><rect class="cls-2" x="93.73" y="0.08" width="0.59" height="0.15" transform="translate(188.05 0.3) rotate(180)"/><rect class="cls-3" x="87.78" y="0.11" width="0.11" height="2.19" transform="translate(175.66 2.42) rotate(180)"/><rect class="cls-3" x="87.43" y="-0.24" width="0.22" height="0.7" transform="translate(87.65 -87.43) rotate(90)"/><rect class="cls-2" x="87.19" y="0.08" width="0.59" height="0.15" transform="translate(174.96 0.3) rotate(180)"/><rect class="cls-3" x="197.3" y="30.71" width="0.11" height="2.19" transform="translate(394.71 63.61) rotate(180)"/><rect class="cls-3" x="196.95" y="30.36" width="0.22" height="0.7" transform="translate(227.77 -166.35) rotate(90)"/><rect class="cls-2" x="196.71" y="30.67" width="0.59" height="0.15" transform="translate(394.01 61.49) rotate(180)"/><rect class="cls-3" x="190.75" y="30.71" width="0.11" height="2.19" transform="translate(381.62 63.61) rotate(180)"/><rect class="cls-3" x="190.4" y="30.36" width="0.22" height="0.7" transform="translate(221.22 -159.81) rotate(90)"/><rect class="cls-2" x="190.17" y="30.67" width="0.59" height="0.15" transform="translate(380.92 61.49) rotate(180)"/></g></g></svg>