<svg xmlns="http://www.w3.org/2000/svg" viewBox="0 0 312.97 163.64"><defs><style>.cls-1{fill:#57515d;}.cls-2{fill:#8a8c74;}.cls-3{fill:#3f3747;}.cls-4{fill:#283444;}.cls-5{fill:#c1272d;}</style></defs><g id="Layer_2" data-name="Layer 2"><g id="L4"><path class="cls-1" d="M0,54.34v41H31.31v-41ZM26.23,72.17h2.48v3.41H26.23Zm0-5.83h2.48v3.42H26.23Zm0-5.62h2.48v3.41H26.23ZM21.4,72.17h2.48v3.41H21.4Zm0-5.83h2.48v3.42H21.4Zm0-5.62h2.48v3.41H21.4ZM17.11,72.17h2.48v3.41H17.11Zm0-5.83h2.48v3.42H17.11Zm-4.83-5.62h2.48v3.41H12.28ZM23.14,89h5.57v3.41H23.14Zm0-5.82h5.57v3.41H23.14Zm0-5.63h5.57v3.42H23.14ZM12.28,89h5.57v3.41H12.28Zm0-5.82h5.57v3.41H12.28Zm0-5.63h5.57v3.42H12.28Z"/><rect class="cls-1" x="228.15" y="55.58" width="18.19" height="39.3"/><rect class="cls-2" x="231.34" y="57.77" width="2.71" height="5.21"/><rect class="cls-3" x="231.34" y="57.77" width="0.44" height="5.21"/><rect class="cls-2" x="238.09" y="57.77" width="2.71" height="5.21"/><rect class="cls-3" x="238.09" y="57.77" width="0.44" height="5.21"/><rect class="cls-2" x="231.34" y="66.35" width="2.71" height="5.21"/><rect class="cls-3" x="231.34" y="66.35" width="0.44" height="5.21"/><rect class="cls-2" x="238.09" y="66.35" width="2.71" height="5.21"/><rect class="cls-3" x="238.09" y="66.35" width="0.44" height="5.21"/><rect class="cls-2" x="231.34" y="75.23" width="2.71" height="5.21"/><rect class="cls-3" x="231.34" y="75.23" width="0.44" height="5.21"/><rect class="cls-2" x="238.09" y="75.23" width="2.71" height="5.21"/><rect class="cls-3" x="238.09" y="75.23" width="0.44" height="5.21"/><rect class="cls-1" x="228.15" y="94.43" width="18.19" height="39.3"/><rect class="cls-2" x="231.34" y="96.62" width="2.71" height="5.21"/><rect class="cls-3" x="231.34" y="96.62" width="0.44" height="5.21"/><rect class="cls-2" x="238.09" y="96.62" width="2.71" height="5.21"/><rect class="cls-3" x="238.09" y="96.62" width="0.44" height="5.21"/><rect class="cls-2" x="231.34" y="105.2" width="2.71" height="5.21"/><rect class="cls-3" x="231.34" y="105.2" width="0.44" height="5.21"/><rect class="cls-2" x="238.09" y="105.2" width="2.71" height="5.21"/><rect class="cls-3" x="238.09" y="105.2" width="0.44" height="5.21"/><rect class="cls-2" x="231.34" y="114.08" width="2.71" height="5.21"/><rect class="cls-3" x="231.34" y="114.08" width="0.44" height="5.21"/><rect class="cls-2" x="238.09" y="114.08" width="2.71" height="5.21"/><rect class="cls-3" x="238.09" y="114.08" width="0.44" height="5.21"/><rect class="cls-1" x="41.77" y="9.48" width="21.2" height="45.81" transform="translate(104.73 64.77) rotate(180)"/><rect class="cls-2" x="56.08" y="12.04" width="3.16" height="6.07" transform="translate(115.33 30.15) rotate(180)"/><rect class="cls-4" x="58.73" y="12.04" width="0.51" height="6.07" transform="translate(117.98 30.15) rotate(180)"/><rect class="cls-2" x="48.22" y="12.04" width="3.16" height="6.07" transform="translate(99.61 30.15) rotate(180)"/><rect class="cls-4" x="50.87" y="12.04" width="0.51" height="6.07" transform="translate(102.26 30.15) rotate(180)"/><rect class="cls-2" x="56.08" y="22.04" width="3.16" height="6.07" transform="translate(115.33 50.15) rotate(180)"/><rect class="cls-4" x="58.73" y="22.04" width="0.51" height="6.07" transform="translate(117.98 50.15) rotate(180)"/><rect class="cls-2" x="48.22" y="22.04" width="3.16" height="6.07" transform="translate(99.61 50.15) rotate(180)"/><rect class="cls-4" x="50.87" y="22.04" width="0.51" height="6.07" transform="translate(102.26 50.15) rotate(180)"/><rect class="cls-2" x="56.08" y="32.38" width="3.16" height="6.07" transform="translate(115.33 70.84) rotate(180)"/><rect class="cls-4" x="58.73" y="32.38" width="0.51" height="6.07" transform="translate(117.98 70.84) rotate(180)"/><rect class="cls-2" x="48.22" y="32.38" width="3.16" height="6.07" transform="translate(99.61 70.84) rotate(180)"/><rect class="cls-4" x="50.87" y="32.38" width="0.51" height="6.07" transform="translate(102.26 70.84) rotate(180)"/><rect class="cls-1" x="41.77" y="41.66" width="21.2" height="45.81" transform="translate(104.73 129.12) rotate(180)"/><rect class="cls-2" x="56.08" y="44.22" width="3.16" height="6.07" transform="translate(115.33 94.51) rotate(180)"/><rect class="cls-4" x="58.73" y="44.22" width="0.51" height="6.07" transform="translate(117.98 94.51) rotate(180)"/><rect class="cls-2" x="48.22" y="44.22" width="3.16" height="6.07" transform="translate(99.61 94.51) rotate(180)"/><rect class="cls-4" x="50.87" y="44.22" width="0.51" height="6.07" transform="translate(102.26 94.51) rotate(180)"/><rect class="cls-2" x="56.08" y="54.22" width="3.16" height="6.07" transform="translate(115.33 114.51) rotate(180)"/><rect class="cls-4" x="58.73" y="54.22" width="0.51" height="6.07" transform="translate(117.98 114.51) rotate(180)"/><rect class="cls-2" x="48.22" y="54.22" width="3.16" height="6.07" transform="translate(99.61 114.51) rotate(180)"/><rect class="cls-4" x="50.87" y="54.22" width="0.51" height="6.07" transform="translate(102.26 114.51) rotate(180)"/><rect class="cls-2" x="56.08" y="64.56" width="3.16" height="6.07" transform="translate(115.33 135.19) rotate(180)"/><rect class="cls-4" x="58.73" y="64.56" width="0.51" height="6.07" transform="translate(117.98 135.19) rotate(180)"/><rect class="cls-2" x="48.22" y="64.56" width="3.16" height="6.07" transform="translate(99.61 135.19) rotate(180)"/><rect class="cls-4" x="50.87" y="64.56" width="0.51" height="6.07" transform="translate(102.26 135.19) rotate(180)"/><rect class="cls-1" x="41.77" y="85.66" width="21.2" height="45.81" transform="translate(104.73 217.12) rotate(180)"/><rect class="cls-2" x="56.08" y="88.22" width="3.16" height="6.07" transform="translate(115.33 182.5) rotate(180)"/><rect class="cls-4" x="58.73" y="88.22" width="0.51" height="6.07" transform="translate(117.98 182.5) rotate(180)"/><rect class="cls-2" x="48.22" y="88.22" width="3.16" height="6.07" transform="translate(99.61 182.5) rotate(180)"/><rect class="cls-4" x="50.87" y="88.22" width="0.51" height="6.07" transform="translate(102.26 182.5) rotate(180)"/><rect class="cls-2" x="56.08" y="98.22" width="3.16" height="6.07" transform="translate(115.33 202.5) rotate(180)"/><rect class="cls-4" x="58.73" y="98.22" width="0.51" height="6.07" transform="translate(117.98 202.5) rotate(180)"/><rect class="cls-2" x="48.22" y="98.22" width="3.16" height="6.07" transform="translate(99.61 202.5) rotate(180)"/><rect class="cls-4" x="50.87" y="98.22" width="0.51" height="6.07" transform="translate(102.26 202.5) rotate(180)"/><rect class="cls-2" x="56.08" y="108.56" width="3.16" height="6.07" transform="translate(115.33 223.19) rotate(180)"/><rect class="cls-4" x="58.73" y="108.56" width="0.51" height="6.07" transform="translate(117.98 223.19) rotate(180)"/><rect class="cls-2" x="48.22" y="108.56" width="3.16" height="6.07" transform="translate(99.61 223.19) rotate(180)"/><rect class="cls-4" x="50.87" y="108.56" width="0.51" height="6.07" transform="translate(102.26 223.19) rotate(180)"/><rect class="cls-1" x="41.77" y="117.83" width="21.2" height="45.81" transform="translate(104.73 281.48) rotate(180)"/><rect class="cls-2" x="56.08" y="120.4" width="3.16" height="6.07" transform="translate(115.33 246.86) rotate(180)"/><rect class="cls-4" x="58.73" y="120.4" width="0.51" height="6.07" transform="translate(117.98 246.86) rotate(180)"/><rect class="cls-2" x="48.22" y="120.4" width="3.16" height="6.07" transform="translate(99.61 246.86) rotate(180)"/><rect class="cls-4" x="50.87" y="120.4" width="0.51" height="6.07" transform="translate(102.26 246.86) rotate(180)"/><rect class="cls-2" x="56.08" y="130.4" width="3.16" height="6.07" transform="translate(115.33 266.86) rotate(180)"/><rect class="cls-4" x="58.73" y="130.4" width="0.51" height="6.07" transform="translate(117.98 266.86) rotate(180)"/><rect class="cls-2" x="48.22" y="130.4" width="3.16" height="6.07" transform="translate(99.61 266.86) rotate(180)"/><rect class="cls-4" x="50.87" y="130.4" width="0.51" height="6.07" transform="translate(102.26 266.86) rotate(180)"/><rect class="cls-2" x="56.08" y="140.74" width="3.16" height="6.07" transform="translate(115.33 287.55) rotate(180)"/><rect class="cls-4" x="58.73" y="140.74" width="0.51" height="6.07" transform="translate(117.98 287.55) rotate(180)"/><rect class="cls-2" x="48.22" y="140.74" width="3.16" height="6.07" transform="translate(99.61 287.55) rotate(180)"/><rect class="cls-4" x="50.87" y="140.74" width="0.51" height="6.07" transform="translate(102.26 287.55) rotate(180)"/><path class="cls-1" d="M261,55.58v39.3h34.65V55.58ZM266.14,62h-2.71V58.23h2.71Zm6.75,6.16h-2.71V64.38h2.71Zm6.94,6.36h-2.71V70.75h2.71Zm0-6.36h-2.71V64.38h2.71ZM286.58,62h-2.72V58.23h2.72Zm6.65,12.52h-2.72V70.75h2.72Zm0-12.52h-2.72V58.23h2.72Z"/><rect class="cls-3" x="263.43" y="58.23" width="0.44" height="3.74"/><rect class="cls-2" x="270.18" y="58.23" width="2.71" height="3.74"/><rect class="cls-3" x="270.18" y="58.23" width="0.44" height="3.74"/><rect class="cls-2" x="263.43" y="64.38" width="2.71" height="3.74"/><rect class="cls-3" x="263.43" y="64.38" width="0.44" height="3.74"/><rect class="cls-3" x="270.18" y="64.38" width="0.44" height="3.74"/><rect class="cls-2" x="263.43" y="70.75" width="2.71" height="3.74"/><rect class="cls-3" x="263.43" y="70.75" width="0.44" height="3.74"/><rect class="cls-2" x="270.18" y="70.75" width="2.71" height="3.74"/><rect class="cls-3" x="270.18" y="70.75" width="0.44" height="3.74"/><rect class="cls-2" x="277.12" y="58.23" width="2.71" height="3.74"/><rect class="cls-3" x="277.12" y="58.23" width="0.44" height="3.74"/><rect class="cls-3" x="283.86" y="58.23" width="0.44" height="3.74"/><rect class="cls-3" x="277.12" y="64.38" width="0.44" height="3.74"/><rect class="cls-2" x="283.86" y="64.38" width="2.71" height="3.74"/><rect class="cls-3" x="283.86" y="64.38" width="0.44" height="3.74"/><rect class="cls-3" x="277.12" y="70.75" width="0.44" height="3.74"/><rect class="cls-2" x="283.86" y="70.75" width="2.71" height="3.74"/><rect class="cls-3" x="283.86" y="70.75" width="0.44" height="3.74"/><rect class="cls-3" x="290.51" y="58.23" width="0.44" height="3.74"/><rect class="cls-2" x="290.51" y="64.38" width="2.71" height="3.74"/><rect class="cls-3" x="290.51" y="64.38" width="0.44" height="3.74"/><rect class="cls-3" x="290.51" y="70.75" width="0.44" height="3.74"/><rect class="cls-1" x="124.48" y="26.03" width="23.47" height="50.71"/><rect class="cls-2" x="128.59" y="28.87" width="3.5" height="6.72"/><rect class="cls-3" x="128.59" y="28.87" width="0.57" height="6.72"/><rect class="cls-2" x="137.3" y="28.87" width="3.5" height="6.72"/><rect class="cls-3" x="137.3" y="28.87" width="0.57" height="6.72"/><rect class="cls-2" x="128.59" y="39.94" width="3.5" height="6.72"/><rect class="cls-3" x="128.59" y="39.94" width="0.57" height="6.72"/><rect class="cls-2" x="137.3" y="39.94" width="3.5" height="6.72"/><rect class="cls-3" x="137.3" y="39.94" width="0.57" height="6.72"/><rect class="cls-2" x="128.59" y="51.39" width="3.5" height="6.72"/><rect class="cls-3" x="128.59" y="51.39" width="0.57" height="6.72"/><rect class="cls-2" x="137.3" y="51.39" width="3.5" height="6.72"/><rect class="cls-3" x="137.3" y="51.39" width="0.57" height="6.72"/><path class="cls-1" d="M158.36,23.79v39.3H193V23.79Zm5.14,6.39h-2.72V26.44h2.72Zm6.74,6.15h-2.71V32.6h2.71Zm6.94,6.37h-2.71V39h2.71Zm0-6.37h-2.71V32.6h2.71Zm6.75-6.15h-2.71V26.44h2.71Zm6.65,12.52h-2.71V39h2.71Zm0-12.52h-2.71V26.44h2.71Z"/><rect class="cls-3" x="160.78" y="26.44" width="0.44" height="3.74"/><rect class="cls-2" x="167.53" y="26.44" width="2.71" height="3.74"/><rect class="cls-3" x="167.53" y="26.44" width="0.44" height="3.74"/><rect class="cls-2" x="160.78" y="32.6" width="2.71" height="3.74"/><rect class="cls-3" x="160.78" y="32.6" width="0.44" height="3.74"/><rect class="cls-3" x="167.53" y="32.6" width="0.44" height="3.74"/><rect class="cls-2" x="160.78" y="38.96" width="2.71" height="3.74"/><rect class="cls-3" x="160.78" y="38.96" width="0.44" height="3.74"/><rect class="cls-2" x="167.53" y="38.96" width="2.71" height="3.74"/><rect class="cls-3" x="167.53" y="38.96" width="0.44" height="3.74"/><rect class="cls-2" x="174.47" y="26.44" width="2.71" height="3.74"/><rect class="cls-3" x="174.47" y="26.44" width="0.44" height="3.74"/><rect class="cls-3" x="181.22" y="26.44" width="0.44" height="3.74"/><rect class="cls-3" x="174.47" y="32.6" width="0.44" height="3.74"/><rect class="cls-2" x="181.22" y="32.6" width="2.71" height="3.74"/><rect class="cls-3" x="181.22" y="32.6" width="0.44" height="3.74"/><rect class="cls-3" x="174.47" y="38.96" width="0.44" height="3.74"/><rect class="cls-2" x="181.22" y="38.96" width="2.71" height="3.74"/><rect class="cls-3" x="181.22" y="38.96" width="0.44" height="3.74"/><rect class="cls-3" x="187.87" y="26.44" width="0.44" height="3.74"/><rect class="cls-2" x="187.87" y="32.6" width="2.71" height="3.74"/><rect class="cls-3" x="187.87" y="32.6" width="0.44" height="3.74"/><rect class="cls-3" x="187.87" y="38.96" width="0.44" height="3.74"/><path class="cls-1" d="M158.36,62.39v39.3H193V62.39Zm5.14,6.38h-2.72V65h2.72Zm6.74,6.15h-2.71V71.19h2.71Zm6.94,6.37h-2.71V77.56h2.71Zm0-6.37h-2.71V71.19h2.71Zm6.75-6.15h-2.71V65h2.71Zm6.65,12.52h-2.71V77.56h2.71Zm0-12.52h-2.71V65h2.71Z"/><rect class="cls-3" x="160.78" y="65.03" width="0.44" height="3.74"/><rect class="cls-2" x="167.53" y="65.03" width="2.71" height="3.74"/><rect class="cls-3" x="167.53" y="65.03" width="0.44" height="3.74"/><rect class="cls-2" x="160.78" y="71.19" width="2.71" height="3.74"/><rect class="cls-3" x="160.78" y="71.19" width="0.44" height="3.74"/><rect class="cls-3" x="167.53" y="71.19" width="0.44" height="3.74"/><rect class="cls-2" x="160.78" y="77.56" width="2.71" height="3.74"/><rect class="cls-3" x="160.78" y="77.56" width="0.44" height="3.74"/><rect class="cls-2" x="167.53" y="77.56" width="2.71" height="3.74"/><rect class="cls-3" x="167.53" y="77.56" width="0.44" height="3.74"/><rect class="cls-2" x="174.47" y="65.03" width="2.71" height="3.74"/><rect class="cls-3" x="174.47" y="65.03" width="0.44" height="3.74"/><rect class="cls-3" x="181.22" y="65.03" width="0.44" height="3.74"/><rect class="cls-3" x="174.47" y="71.19" width="0.44" height="3.74"/><rect class="cls-2" x="181.22" y="71.19" width="2.71" height="3.74"/><rect class="cls-3" x="181.22" y="71.19" width="0.44" height="3.74"/><rect class="cls-3" x="174.47" y="77.56" width="0.44" height="3.74"/><rect class="cls-2" x="181.22" y="77.56" width="2.71" height="3.74"/><rect class="cls-3" x="181.22" y="77.56" width="0.44" height="3.74"/><rect class="cls-3" x="187.87" y="65.03" width="0.44" height="3.74"/><rect class="cls-2" x="187.87" y="71.19" width="2.71" height="3.74"/><rect class="cls-3" x="187.87" y="71.19" width="0.44" height="3.74"/><rect class="cls-3" x="187.87" y="77.56" width="0.44" height="3.74"/><path class="cls-1" d="M124.41,74.83v39.3h34.65V74.83Zm5.14,6.38h-2.71V77.48h2.71Zm6.75,6.16h-2.71V83.63h2.71Zm6.94,6.36h-2.71V90h2.71Zm0-6.36h-2.71V83.63h2.71ZM150,81.21h-2.71V77.48H150Zm6.65,12.52h-2.72V90h2.72Zm0-12.52h-2.72V77.48h2.72Z"/><rect class="cls-3" x="126.84" y="77.48" width="0.44" height="3.74"/><rect class="cls-2" x="133.59" y="77.48" width="2.71" height="3.74"/><rect class="cls-3" x="133.59" y="77.48" width="0.44" height="3.74"/><rect class="cls-2" x="126.84" y="83.63" width="2.71" height="3.74"/><rect class="cls-3" x="126.84" y="83.63" width="0.44" height="3.74"/><rect class="cls-3" x="133.59" y="83.63" width="0.44" height="3.74"/><rect class="cls-2" x="126.84" y="90" width="2.71" height="3.74"/><rect class="cls-3" x="126.84" y="90" width="0.44" height="3.74"/><rect class="cls-2" x="133.59" y="90" width="2.71" height="3.74"/><rect class="cls-3" x="133.59" y="90" width="0.44" height="3.74"/><rect class="cls-2" x="140.53" y="77.48" width="2.71" height="3.74"/><rect class="cls-3" x="140.53" y="77.48" width="0.44" height="3.74"/><rect class="cls-3" x="147.28" y="77.48" width="0.44" height="3.74"/><rect class="cls-3" x="140.53" y="83.63" width="0.44" height="3.74"/><rect class="cls-2" x="147.28" y="83.63" width="2.71" height="3.74"/><rect class="cls-3" x="147.28" y="83.63" width="0.44" height="3.74"/><rect class="cls-3" x="140.53" y="90" width="0.44" height="3.74"/><rect class="cls-2" x="147.28" y="90" width="2.71" height="3.74"/><rect class="cls-3" x="147.28" y="90" width="0.44" height="3.74"/><rect class="cls-3" x="153.92" y="77.48" width="0.44" height="3.74"/><rect class="cls-2" x="153.92" y="83.63" width="2.71" height="3.74"/><rect class="cls-3" x="153.92" y="83.63" width="0.44" height="3.74"/><rect class="cls-3" x="153.92" y="90" width="0.44" height="3.74"/><path class="cls-1" d="M124.85,113.72v41.72H159.5V113.72ZM130,120.5h-2.71v-4H130Zm6.75,6.53H134v-4h2.72Zm6.94,6.76H141v-4h2.71Zm0-6.76H141v-4h2.71Zm6.75-6.53h-2.72v-4h2.72Zm6.64,13.29h-2.71v-4h2.71Zm0-13.29h-2.71v-4h2.71Z"/><rect class="cls-3" x="127.28" y="116.54" width="0.44" height="3.96"/><rect class="cls-2" x="134.02" y="116.54" width="2.71" height="3.96"/><rect class="cls-3" x="134.02" y="116.54" width="0.44" height="3.96"/><rect class="cls-2" x="127.28" y="123.07" width="2.71" height="3.96"/><rect class="cls-3" x="127.28" y="123.07" width="0.44" height="3.96"/><rect class="cls-3" x="134.02" y="123.07" width="0.44" height="3.96"/><rect class="cls-2" x="127.28" y="129.83" width="2.71" height="3.96"/><rect class="cls-3" x="127.28" y="129.83" width="0.44" height="3.96"/><rect class="cls-2" x="134.02" y="129.83" width="2.71" height="3.96"/><rect class="cls-3" x="134.02" y="129.83" width="0.44" height="3.96"/><rect class="cls-2" x="140.97" y="116.54" width="2.71" height="3.96"/><rect class="cls-3" x="140.97" y="116.54" width="0.44" height="3.96"/><rect class="cls-3" x="147.71" y="116.54" width="0.44" height="3.96"/><rect class="cls-3" x="140.97" y="123.07" width="0.44" height="3.96"/><rect class="cls-2" x="147.71" y="123.07" width="2.71" height="3.96"/><rect class="cls-3" x="147.71" y="123.07" width="0.44" height="3.96"/><rect class="cls-3" x="140.97" y="129.83" width="0.44" height="3.96"/><rect class="cls-2" x="147.71" y="129.83" width="2.71" height="3.96"/><rect class="cls-3" x="147.71" y="129.83" width="0.44" height="3.96"/><rect class="cls-3" x="154.36" y="116.54" width="0.44" height="3.96"/><rect class="cls-2" x="154.36" y="123.07" width="2.71" height="3.96"/><rect class="cls-3" x="154.36" y="123.07" width="0.44" height="3.96"/><rect class="cls-3" x="154.36" y="129.83" width="0.44" height="3.96"/><rect class="cls-1" x="141.86" y="31.13" width="18.12" height="2.88" transform="translate(301.85 65.15) rotate(180)"/><rect class="cls-1" x="141.86" y="28.1" width="18.12" height="0.99" transform="translate(301.85 57.18) rotate(180)"/><rect class="cls-1" x="140.68" y="29.77" width="3.35" height="0.99" transform="translate(172.62 -112.09) rotate(90)"/><rect class="cls-1" x="144.72" y="28.59" width="0.99" height="3.35"/><rect class="cls-1" x="147.57" y="28.59" width="0.99" height="3.35"/><rect class="cls-1" x="150.43" y="28.59" width="0.99" height="3.35"/><rect class="cls-1" x="153.28" y="28.59" width="0.99" height="3.35"/><rect class="cls-1" x="156.14" y="28.59" width="0.99" height="3.35"/><rect class="cls-1" x="157.81" y="29.77" width="3.35" height="0.99" transform="translate(189.75 -129.22) rotate(90)"/><rect class="cls-1" x="29.68" y="63.85" width="18.12" height="2.88" transform="translate(77.48 130.58) rotate(180)"/><rect class="cls-1" x="29.68" y="60.81" width="18.12" height="0.99" transform="translate(77.48 122.61) rotate(180)"/><rect class="cls-1" x="28.5" y="62.49" width="3.35" height="0.99" transform="translate(93.15 32.81) rotate(90)"/><rect class="cls-1" x="32.53" y="61.3" width="0.99" height="3.35"/><rect class="cls-1" x="35.39" y="61.3" width="0.99" height="3.35"/><rect class="cls-1" x="38.24" y="61.3" width="0.99" height="3.35"/><rect class="cls-1" x="41.1" y="61.3" width="0.99" height="3.35"/><rect class="cls-1" x="43.95" y="61.3" width="0.99" height="3.35"/><rect class="cls-1" x="45.63" y="62.49" width="3.35" height="0.99" transform="translate(110.28 15.68) rotate(90)"/><rect class="cls-1" x="166.77" y="22.51" width="18.12" height="2.88" transform="translate(351.66 47.9) rotate(180)"/><rect class="cls-1" x="166.77" y="19.47" width="18.12" height="0.99" transform="translate(351.66 39.93) rotate(180)"/><rect class="cls-1" x="165.59" y="21.15" width="3.35" height="0.99" transform="translate(188.9 -145.62) rotate(90)"/><rect class="cls-1" x="169.62" y="19.96" width="0.99" height="3.35"/><rect class="cls-1" x="172.48" y="19.96" width="0.99" height="3.35"/><rect class="cls-1" x="175.33" y="19.96" width="0.99" height="3.35"/><rect class="cls-1" x="178.19" y="19.96" width="0.99" height="3.35"/><rect class="cls-1" x="181.04" y="19.96" width="0.99" height="3.35"/><rect class="cls-1" x="182.72" y="21.15" width="3.35" height="0.99" transform="translate(206.03 -162.75) rotate(90)"/><rect class="cls-1" x="277.52" y="54.1" width="18.12" height="2.88" transform="translate(573.16 111.08) rotate(180)"/><rect class="cls-1" x="277.52" y="51.06" width="18.12" height="0.99" transform="translate(573.16 103.11) rotate(180)"/><rect class="cls-1" x="276.34" y="52.74" width="3.35" height="0.99" transform="translate(331.24 -224.78) rotate(90)"/><rect class="cls-1" x="280.37" y="51.55" width="0.99" height="3.35"/><rect class="cls-1" x="283.23" y="51.55" width="0.99" height="3.35"/><rect class="cls-1" x="286.08" y="51.55" width="0.99" height="3.35"/><rect class="cls-1" x="288.94" y="51.55" width="0.99" height="3.35"/><rect class="cls-1" x="291.79" y="51.55" width="0.99" height="3.35"/><rect class="cls-1" x="293.47" y="52.74" width="3.35" height="0.99" transform="translate(348.37 -241.91) rotate(90)"/><rect class="cls-1" x="294.85" y="71.43" width="18.12" height="2.88" transform="translate(607.82 145.75) rotate(180)"/><rect class="cls-1" x="294.85" y="68.39" width="18.12" height="0.99" transform="translate(607.82 137.78) rotate(180)"/><rect class="cls-1" x="293.67" y="70.07" width="3.35" height="0.99" transform="translate(365.91 -224.78) rotate(90)"/><rect class="cls-1" x="297.71" y="68.89" width="0.99" height="3.35"/><rect class="cls-1" x="300.56" y="68.89" width="0.99" height="3.35"/><rect class="cls-1" x="303.42" y="68.89" width="0.99" height="3.35"/><rect class="cls-1" x="306.27" y="68.89" width="0.99" height="3.35"/><rect class="cls-1" x="309.13" y="68.89" width="0.99" height="3.35"/><rect class="cls-1" x="310.8" y="70.07" width="3.35" height="0.99" transform="translate(383.04 -241.91) rotate(90)"/><rect class="cls-1" x="243.3" y="72.31" width="17.77" height="2.83"/><rect class="cls-1" x="243.3" y="69.33" width="17.77" height="0.97"/><rect class="cls-1" x="258.94" y="70.98" width="3.29" height="0.97" transform="translate(332.05 -189.13) rotate(90)"/><rect class="cls-1" x="257.3" y="69.82" width="0.97" height="3.29"/><rect class="cls-1" x="254.5" y="69.82" width="0.97" height="3.29"/><rect class="cls-1" x="251.7" y="69.82" width="0.97" height="3.29"/><rect class="cls-1" x="248.9" y="69.82" width="0.97" height="3.29"/><rect class="cls-1" x="246.1" y="69.82" width="0.97" height="3.29"/><rect class="cls-1" x="242.14" y="70.98" width="3.29" height="0.97" transform="translate(315.25 -172.32) rotate(90)"/><rect class="cls-1" x="59.43" y="2.12" width="1.47" height="10.23" transform="translate(120.34 14.47) rotate(180)"/><rect class="cls-5" x="59.43" width="1.47" height="2.12" transform="translate(120.34 2.12) rotate(180)"/><rect class="cls-5" x="59.43" y="3.57" width="1.47" height="2.12" transform="translate(120.34 9.27) rotate(180)"/><rect class="cls-1" x="129.29" y="17.86" width="1.47" height="10.23" transform="translate(260.04 45.96) rotate(180)"/><rect class="cls-5" x="129.29" y="15.75" width="1.47" height="2.12" transform="translate(260.04 33.61) rotate(180)"/><rect class="cls-5" x="129.29" y="19.32" width="1.47" height="2.12" transform="translate(260.04 40.76) rotate(180)"/><rect class="cls-1" x="271.19" y="46.39" width="1.47" height="10.23" transform="translate(543.85 103.01) rotate(180)"/><rect class="cls-5" x="271.19" y="44.27" width="1.47" height="2.12" transform="translate(543.85 90.66) rotate(180)"/><rect class="cls-5" x="271.19" y="47.85" width="1.47" height="2.12" transform="translate(543.85 97.81) rotate(180)"/></g></g></svg>