<svg xmlns="http://www.w3.org/2000/svg" viewBox="0 0 328.48 142.25"><defs><style>.cls-1{fill:#765463;}.cls-2{fill:#a4757d;}.cls-3{fill:#723d56;}</style></defs><g id="Layer_2" data-name="Layer 2"><g id="L5"><rect class="cls-1" x="72.51" y="98.12" width="20.42" height="44.13"/><rect class="cls-2" x="76.09" y="100.59" width="3.05" height="5.85"/><rect class="cls-3" x="76.09" y="100.59" width="0.49" height="5.85"/><rect class="cls-2" x="83.67" y="100.59" width="3.05" height="5.85"/><rect class="cls-3" x="83.67" y="100.59" width="0.49" height="5.85"/><rect class="cls-2" x="76.09" y="110.22" width="3.05" height="5.85"/><rect class="cls-3" x="76.09" y="110.22" width="0.49" height="5.85"/><rect class="cls-2" x="83.67" y="110.22" width="3.05" height="5.85"/><rect class="cls-3" x="83.67" y="110.22" width="0.49" height="5.85"/><rect class="cls-2" x="76.09" y="120.19" width="3.05" height="5.85"/><rect class="cls-3" x="76.09" y="120.19" width="0.49" height="5.85"/><rect class="cls-2" x="83.67" y="120.19" width="3.05" height="5.85"/><rect class="cls-3" x="83.67" y="120.19" width="0.49" height="5.85"/><path class="cls-1" d="M109.4,98.12v44.13h38.91V98.12Zm5.77,7.17h-3v-4.2h3Zm7.58,6.91h-3V108h3Zm7.79,7.15h-3v-4.2h3Zm0-7.15h-3V108h3Zm7.58-6.91h-3.05v-4.2h3.05Zm7.46,14.06h-3v-4.2h3Zm0-14.06h-3v-4.2h3Z"/><rect class="cls-3" x="112.12" y="101.09" width="0.49" height="4.19"/><rect class="cls-2" x="119.7" y="101.09" width="3.05" height="4.19"/><rect class="cls-3" x="119.7" y="101.09" width="0.49" height="4.19"/><rect class="cls-2" x="112.12" y="108.01" width="3.05" height="4.19"/><rect class="cls-3" x="112.12" y="108.01" width="0.49" height="4.19"/><rect class="cls-3" x="119.7" y="108.01" width="0.49" height="4.19"/><rect class="cls-2" x="112.12" y="115.15" width="3.05" height="4.19"/><rect class="cls-3" x="112.12" y="115.15" width="0.49" height="4.19"/><rect class="cls-2" x="119.7" y="115.15" width="3.05" height="4.19"/><rect class="cls-3" x="119.7" y="115.15" width="0.49" height="4.19"/><rect class="cls-2" x="127.5" y="101.09" width="3.05" height="4.19"/><rect class="cls-3" x="127.5" y="101.09" width="0.49" height="4.19"/><rect class="cls-3" x="135.07" y="101.09" width="0.49" height="4.19"/><rect class="cls-3" x="127.5" y="108.01" width="0.49" height="4.19"/><rect class="cls-2" x="135.07" y="108.01" width="3.05" height="4.19"/><rect class="cls-3" x="135.07" y="108.01" width="0.49" height="4.19"/><rect class="cls-3" x="127.5" y="115.15" width="0.49" height="4.19"/><rect class="cls-2" x="135.07" y="115.15" width="3.05" height="4.19"/><rect class="cls-3" x="135.07" y="115.15" width="0.49" height="4.19"/><rect class="cls-3" x="142.54" y="101.09" width="0.49" height="4.19"/><rect class="cls-2" x="142.54" y="108.01" width="3.05" height="4.19"/><rect class="cls-3" x="142.54" y="108.01" width="0.49" height="4.19"/><rect class="cls-3" x="142.54" y="115.15" width="0.49" height="4.19"/><path class="cls-1" d="M40.06,97.77V141.9H79V97.77Zm33.14,3h3v4.19h-3Zm-7.58,6.91h3v4.2h-3Zm-7.8,7.15h3V119h-3Zm0-7.15h3v4.2h-3Zm-7.57-6.91h3v4.19h-3ZM42.78,114.8h3V119h-3Zm0-14.06h3v4.19h-3Z"/><rect class="cls-3" x="75.75" y="100.74" width="0.49" height="4.19" transform="translate(151.99 205.67) rotate(180)"/><rect class="cls-2" x="65.62" y="100.74" width="3.05" height="4.19" transform="translate(134.29 205.67) rotate(180)"/><rect class="cls-3" x="68.17" y="100.74" width="0.49" height="4.19" transform="translate(136.84 205.67) rotate(180)"/><rect class="cls-2" x="73.2" y="107.65" width="3.05" height="4.19" transform="translate(149.44 219.5) rotate(180)"/><rect class="cls-3" x="75.75" y="107.65" width="0.49" height="4.19" transform="translate(151.99 219.5) rotate(180)"/><rect class="cls-3" x="68.17" y="107.65" width="0.49" height="4.19" transform="translate(136.84 219.5) rotate(180)"/><rect class="cls-2" x="73.2" y="114.8" width="3.05" height="4.19" transform="translate(149.44 233.79) rotate(180)"/><rect class="cls-3" x="75.75" y="114.8" width="0.49" height="4.19" transform="translate(151.99 233.79) rotate(180)"/><rect class="cls-2" x="65.62" y="114.8" width="3.05" height="4.19" transform="translate(134.29 233.79) rotate(180)"/><rect class="cls-3" x="68.17" y="114.8" width="0.49" height="4.19" transform="translate(136.84 233.79) rotate(180)"/><rect class="cls-2" x="57.82" y="100.74" width="3.05" height="4.19" transform="translate(118.69 205.67) rotate(180)"/><rect class="cls-3" x="60.38" y="100.74" width="0.49" height="4.19" transform="translate(121.25 205.67) rotate(180)"/><rect class="cls-3" x="52.8" y="100.74" width="0.49" height="4.19" transform="translate(106.1 205.67) rotate(180)"/><rect class="cls-3" x="60.38" y="107.65" width="0.49" height="4.19" transform="translate(121.25 219.5) rotate(180)"/><rect class="cls-2" x="50.25" y="107.65" width="3.05" height="4.19" transform="translate(103.54 219.5) rotate(180)"/><rect class="cls-3" x="52.8" y="107.65" width="0.49" height="4.19" transform="translate(106.1 219.5) rotate(180)"/><rect class="cls-3" x="60.38" y="114.8" width="0.49" height="4.19" transform="translate(121.25 233.79) rotate(180)"/><rect class="cls-2" x="50.25" y="114.8" width="3.05" height="4.19" transform="translate(103.54 233.79) rotate(180)"/><rect class="cls-3" x="52.8" y="114.8" width="0.49" height="4.19" transform="translate(106.1 233.79) rotate(180)"/><rect class="cls-3" x="45.34" y="100.74" width="0.49" height="4.19" transform="translate(91.16 205.67) rotate(180)"/><rect class="cls-2" x="42.78" y="107.65" width="3.05" height="4.19" transform="translate(88.61 219.5) rotate(180)"/><rect class="cls-3" x="45.34" y="107.65" width="0.49" height="4.19" transform="translate(91.16 219.5) rotate(180)"/><rect class="cls-3" x="45.34" y="114.8" width="0.49" height="4.19" transform="translate(91.16 233.79) rotate(180)"/><rect class="cls-1" x="92.93" y="112.53" width="16.47" height="2.62"/><rect class="cls-1" x="92.93" y="109.77" width="16.47" height="0.9"/><rect class="cls-1" x="107.43" y="111.3" width="3.05" height="0.9" transform="translate(220.7 2.79) rotate(90)"/><rect class="cls-1" x="105.91" y="110.22" width="0.9" height="3.05"/><rect class="cls-1" x="103.31" y="110.22" width="0.9" height="3.05"/><rect class="cls-1" x="100.72" y="110.22" width="0.9" height="3.05"/><rect class="cls-1" x="98.12" y="110.22" width="0.9" height="3.05"/><rect class="cls-1" x="95.53" y="110.22" width="0.9" height="3.05"/><rect class="cls-1" x="91.86" y="111.3" width="3.05" height="0.9" transform="translate(205.13 18.36) rotate(90)"/><rect class="cls-1" y="122.83" width="16.47" height="2.62"/><rect class="cls-1" y="120.06" width="16.47" height="0.9"/><rect class="cls-1" x="14.49" y="121.59" width="3.05" height="0.9" transform="translate(138.05 106.02) rotate(90)"/><rect class="cls-1" x="12.97" y="120.51" width="0.9" height="3.05"/><rect class="cls-1" x="10.38" y="120.51" width="0.9" height="3.05"/><rect class="cls-1" x="7.78" y="120.51" width="0.9" height="3.05"/><rect class="cls-1" x="5.19" y="120.51" width="0.9" height="3.05"/><rect class="cls-1" x="2.59" y="120.51" width="0.9" height="3.05"/><rect class="cls-1" x="-1.07" y="121.59" width="3.05" height="0.9" transform="translate(122.49 121.59) rotate(90)"/><rect class="cls-1" x="15.86" y="122.83" width="16.47" height="2.62"/><rect class="cls-1" x="15.86" y="120.06" width="16.47" height="0.9"/><rect class="cls-1" x="30.35" y="121.59" width="3.05" height="0.9" transform="translate(153.91 90.16) rotate(90)"/><rect class="cls-1" x="28.83" y="120.51" width="0.9" height="3.05"/><rect class="cls-1" x="26.24" y="120.51" width="0.9" height="3.05"/><rect class="cls-1" x="23.64" y="120.51" width="0.9" height="3.05"/><rect class="cls-1" x="21.05" y="120.51" width="0.9" height="3.05"/><rect class="cls-1" x="18.45" y="120.51" width="0.9" height="3.05"/><rect class="cls-1" x="14.78" y="121.59" width="3.05" height="0.9" transform="translate(138.34 105.73) rotate(90)"/><rect class="cls-1" x="31.41" y="122.83" width="16.47" height="2.62"/><rect class="cls-1" x="31.41" y="120.06" width="16.47" height="0.9"/><rect class="cls-1" x="45.91" y="121.59" width="3.05" height="0.9" transform="translate(169.46 74.61) rotate(90)"/><rect class="cls-1" x="44.38" y="120.51" width="0.9" height="3.05"/><rect class="cls-1" x="41.79" y="120.51" width="0.9" height="3.05"/><rect class="cls-1" x="39.2" y="120.51" width="0.9" height="3.05"/><rect class="cls-1" x="36.6" y="120.51" width="0.9" height="3.05"/><rect class="cls-1" x="34.01" y="120.51" width="0.9" height="3.05"/><rect class="cls-1" x="30.34" y="121.59" width="3.05" height="0.9" transform="translate(153.9 90.18) rotate(90)"/><rect class="cls-1" x="92.93" y="128.3" width="16.47" height="2.62"/><rect class="cls-1" x="92.93" y="125.54" width="16.47" height="0.9"/><rect class="cls-1" x="107.43" y="127.06" width="3.05" height="0.9" transform="translate(236.46 18.56) rotate(90)"/><rect class="cls-1" x="105.91" y="125.99" width="0.9" height="3.05"/><rect class="cls-1" x="103.31" y="125.99" width="0.9" height="3.05"/><rect class="cls-1" x="100.72" y="125.99" width="0.9" height="3.05"/><rect class="cls-1" x="98.12" y="125.99" width="0.9" height="3.05"/><rect class="cls-1" x="95.53" y="125.99" width="0.9" height="3.05"/><rect class="cls-1" x="91.86" y="127.06" width="3.05" height="0.9" transform="translate(220.9 34.13) rotate(90)"/><rect class="cls-1" x="5.27" width="22.04" height="47.64"/><rect class="cls-2" x="9.13" y="2.66" width="3.29" height="6.31"/><rect class="cls-3" x="9.13" y="2.66" width="0.53" height="6.31"/><rect class="cls-2" x="17.31" y="2.66" width="3.29" height="6.31"/><rect class="cls-3" x="17.31" y="2.66" width="0.53" height="6.31"/><rect class="cls-2" x="9.13" y="13.06" width="3.29" height="6.31"/><rect class="cls-3" x="9.13" y="13.06" width="0.53" height="6.31"/><rect class="cls-2" x="17.31" y="13.06" width="3.29" height="6.31"/><rect class="cls-3" x="17.31" y="13.06" width="0.53" height="6.31"/><rect class="cls-2" x="9.13" y="23.82" width="3.29" height="6.31"/><rect class="cls-3" x="9.13" y="23.82" width="0.53" height="6.31"/><rect class="cls-2" x="17.31" y="23.82" width="3.29" height="6.31"/><rect class="cls-3" x="17.31" y="23.82" width="0.53" height="6.31"/><rect class="cls-1" x="5.27" y="33.46" width="22.04" height="47.64"/><rect class="cls-2" x="9.13" y="36.13" width="3.29" height="6.31"/><rect class="cls-3" x="9.13" y="36.13" width="0.53" height="6.31"/><rect class="cls-2" x="17.31" y="36.13" width="3.29" height="6.31"/><rect class="cls-3" x="17.31" y="36.13" width="0.53" height="6.31"/><rect class="cls-2" x="9.13" y="46.53" width="3.29" height="6.31"/><rect class="cls-3" x="9.13" y="46.53" width="0.53" height="6.31"/><rect class="cls-2" x="17.31" y="46.53" width="3.29" height="6.31"/><rect class="cls-3" x="17.31" y="46.53" width="0.53" height="6.31"/><rect class="cls-2" x="9.13" y="57.28" width="3.29" height="6.31"/><rect class="cls-3" x="9.13" y="57.28" width="0.53" height="6.31"/><rect class="cls-2" x="17.31" y="57.28" width="3.29" height="6.31"/><rect class="cls-3" x="17.31" y="57.28" width="0.53" height="6.31"/><path class="cls-1" d="M133.86,28.93V76.39h38.91V28.93Zm5.77,7.71h-3V32.13h3Zm7.58,7.43h-3.05V39.56h3.05ZM155,51.76h-3V47.25h3Zm0-7.69h-3V39.56h3Zm7.58-7.43h-3.05V32.13h3.05ZM170,51.76h-3V47.25h3Zm0-15.12h-3V32.13h3Z"/><rect class="cls-3" x="136.58" y="32.13" width="0.49" height="4.51"/><rect class="cls-2" x="144.16" y="32.13" width="3.05" height="4.51"/><rect class="cls-3" x="144.16" y="32.13" width="0.49" height="4.51"/><rect class="cls-2" x="136.58" y="39.56" width="3.05" height="4.51"/><rect class="cls-3" x="136.58" y="39.56" width="0.49" height="4.51"/><rect class="cls-3" x="144.16" y="39.56" width="0.49" height="4.51"/><rect class="cls-2" x="136.58" y="47.25" width="3.05" height="4.51"/><rect class="cls-3" x="136.58" y="47.25" width="0.49" height="4.51"/><rect class="cls-2" x="144.16" y="47.25" width="3.05" height="4.51"/><rect class="cls-3" x="144.16" y="47.25" width="0.49" height="4.51"/><rect class="cls-2" x="151.96" y="32.13" width="3.05" height="4.51"/><rect class="cls-3" x="151.96" y="32.13" width="0.49" height="4.51"/><rect class="cls-3" x="159.53" y="32.13" width="0.49" height="4.51"/><rect class="cls-3" x="151.96" y="39.56" width="0.49" height="4.51"/><rect class="cls-2" x="159.53" y="39.56" width="3.05" height="4.51"/><rect class="cls-3" x="159.53" y="39.56" width="0.49" height="4.51"/><rect class="cls-3" x="151.96" y="47.25" width="0.49" height="4.51"/><rect class="cls-2" x="159.53" y="47.25" width="3.05" height="4.51"/><rect class="cls-3" x="159.53" y="47.25" width="0.49" height="4.51"/><rect class="cls-3" x="167" y="32.13" width="0.49" height="4.51"/><rect class="cls-2" x="167" y="39.56" width="3.05" height="4.51"/><rect class="cls-3" x="167" y="39.56" width="0.49" height="4.51"/><rect class="cls-3" x="167" y="47.25" width="0.49" height="4.51"/><rect class="cls-1" x="115.12" y="45.37" width="18.55" height="2.95"/><rect class="cls-1" x="115.12" y="42.26" width="18.55" height="1.01"/><rect class="cls-1" x="131.45" y="43.98" width="3.43" height="1.01" transform="translate(177.64 -88.68) rotate(90)"/><rect class="cls-1" x="129.73" y="42.77" width="1.01" height="3.43"/><rect class="cls-1" x="126.81" y="42.77" width="1.01" height="3.43"/><rect class="cls-1" x="123.89" y="42.77" width="1.01" height="3.43"/><rect class="cls-1" x="120.97" y="42.77" width="1.01" height="3.43"/><rect class="cls-1" x="118.04" y="42.77" width="1.01" height="3.43"/><rect class="cls-1" x="113.91" y="43.98" width="3.43" height="1.01" transform="translate(160.11 -71.14) rotate(90)"/><rect class="cls-1" x="27.69" y="60.52" width="17.77" height="2.83"/><rect class="cls-1" x="27.69" y="57.53" width="17.77" height="0.97"/><rect class="cls-1" x="43.34" y="59.18" width="3.29" height="0.97" transform="translate(104.64 14.68) rotate(90)"/><rect class="cls-1" x="41.7" y="58.02" width="0.97" height="3.29"/><rect class="cls-1" x="38.9" y="58.02" width="0.97" height="3.29"/><rect class="cls-1" x="36.09" y="58.02" width="0.97" height="3.29"/><rect class="cls-1" x="33.29" y="58.02" width="0.97" height="3.29"/><rect class="cls-1" x="30.49" y="58.02" width="0.97" height="3.29"/><rect class="cls-1" x="26.53" y="59.18" width="3.29" height="0.97" transform="translate(87.84 31.49) rotate(90)"/><rect class="cls-1" x="44.81" y="60.52" width="17.77" height="2.83"/><rect class="cls-1" x="44.81" y="57.53" width="17.77" height="0.97"/><rect class="cls-1" x="60.46" y="59.18" width="3.29" height="0.97" transform="translate(121.76 -2.44) rotate(90)"/><rect class="cls-1" x="58.81" y="58.02" width="0.97" height="3.29"/><rect class="cls-1" x="56.01" y="58.02" width="0.97" height="3.29"/><rect class="cls-1" x="53.21" y="58.02" width="0.97" height="3.29"/><rect class="cls-1" x="50.41" y="58.02" width="0.97" height="3.29"/><rect class="cls-1" x="47.61" y="58.02" width="0.97" height="3.29"/><rect class="cls-1" x="43.65" y="59.18" width="3.29" height="0.97" transform="translate(104.96 14.37) rotate(90)"/><rect class="cls-1" x="61.6" y="60.52" width="17.77" height="2.83"/><rect class="cls-1" x="61.6" y="57.53" width="17.77" height="0.97"/><rect class="cls-1" x="77.24" y="59.18" width="3.29" height="0.97" transform="translate(138.55 -19.22) rotate(90)"/><rect class="cls-1" x="75.6" y="58.02" width="0.97" height="3.29"/><rect class="cls-1" x="72.8" y="58.02" width="0.97" height="3.29"/><rect class="cls-1" x="70" y="58.02" width="0.97" height="3.29"/><rect class="cls-1" x="67.2" y="58.02" width="0.97" height="3.29"/><rect class="cls-1" x="64.4" y="58.02" width="0.97" height="3.29"/><rect class="cls-1" x="60.44" y="59.18" width="3.29" height="0.97" transform="translate(121.75 -2.42) rotate(90)"/><rect class="cls-1" x="115.12" y="63.14" width="18.55" height="2.95"/><rect class="cls-1" x="115.12" y="60.02" width="18.55" height="1.01"/><rect class="cls-1" x="131.45" y="61.74" width="3.43" height="1.01" transform="translate(195.41 -70.92) rotate(90)"/><rect class="cls-1" x="129.73" y="60.53" width="1.01" height="3.43"/><rect class="cls-1" x="126.81" y="60.53" width="1.01" height="3.43"/><rect class="cls-1" x="123.89" y="60.53" width="1.01" height="3.43"/><rect class="cls-1" x="120.97" y="60.53" width="1.01" height="3.43"/><rect class="cls-1" x="118.04" y="60.53" width="1.01" height="3.43"/><rect class="cls-1" x="113.91" y="61.74" width="3.43" height="1.01" transform="translate(177.87 -53.38) rotate(90)"/><rect class="cls-1" x="143.56" y="33.63" width="20.42" height="47.46"/><rect class="cls-2" x="147.15" y="36.29" width="3.05" height="6.29"/><rect class="cls-3" x="147.15" y="36.29" width="0.49" height="6.29"/><rect class="cls-2" x="154.72" y="36.29" width="3.05" height="6.29"/><rect class="cls-3" x="154.72" y="36.29" width="0.49" height="6.29"/><rect class="cls-2" x="147.15" y="46.65" width="3.05" height="6.29"/><rect class="cls-3" x="147.15" y="46.65" width="0.49" height="6.29"/><rect class="cls-2" x="154.72" y="46.65" width="3.05" height="6.29"/><rect class="cls-3" x="154.72" y="46.65" width="0.49" height="6.29"/><rect class="cls-2" x="147.15" y="57.36" width="3.05" height="6.29"/><rect class="cls-3" x="147.15" y="57.36" width="0.49" height="6.29"/><rect class="cls-2" x="154.72" y="57.36" width="3.05" height="6.29"/><rect class="cls-3" x="154.72" y="57.36" width="0.49" height="6.29"/><rect class="cls-1" x="228.74" y="0.29" width="20.42" height="47.46"/><rect class="cls-2" x="232.33" y="2.95" width="3.05" height="6.29"/><rect class="cls-3" x="232.33" y="2.95" width="0.49" height="6.29"/><rect class="cls-2" x="239.9" y="2.95" width="3.05" height="6.29"/><rect class="cls-3" x="239.9" y="2.95" width="0.49" height="6.29"/><rect class="cls-2" x="232.33" y="13.31" width="3.05" height="6.29"/><rect class="cls-3" x="232.33" y="13.31" width="0.49" height="6.29"/><rect class="cls-2" x="239.9" y="13.31" width="3.05" height="6.29"/><rect class="cls-3" x="239.9" y="13.31" width="0.49" height="6.29"/><rect class="cls-2" x="232.33" y="24.02" width="3.05" height="6.29"/><rect class="cls-3" x="232.33" y="24.02" width="0.49" height="6.29"/><rect class="cls-2" x="239.9" y="24.02" width="3.05" height="6.29"/><rect class="cls-3" x="239.9" y="24.02" width="0.49" height="6.29"/><rect class="cls-1" x="228.74" y="33.63" width="20.42" height="47.46"/><rect class="cls-2" x="232.33" y="36.29" width="3.05" height="6.29"/><rect class="cls-3" x="232.33" y="36.29" width="0.49" height="6.29"/><rect class="cls-2" x="239.9" y="36.29" width="3.05" height="6.29"/><rect class="cls-3" x="239.9" y="36.29" width="0.49" height="6.29"/><rect class="cls-2" x="232.33" y="46.65" width="3.05" height="6.29"/><rect class="cls-3" x="232.33" y="46.65" width="0.49" height="6.29"/><rect class="cls-2" x="239.9" y="46.65" width="3.05" height="6.29"/><rect class="cls-3" x="239.9" y="46.65" width="0.49" height="6.29"/><rect class="cls-2" x="232.33" y="57.36" width="3.05" height="6.29"/><rect class="cls-3" x="232.33" y="57.36" width="0.49" height="6.29"/><rect class="cls-2" x="239.9" y="57.36" width="3.05" height="6.29"/><rect class="cls-3" x="239.9" y="57.36" width="0.49" height="6.29"/><path class="cls-1" d="M180.45,33.63V81.09h38.91V33.63Zm5.77,7.71h-3V36.83h3Zm7.58,7.43h-3.05V44.26h3.05Zm7.79,7.69h-3V52h3Zm0-7.69h-3V44.26h3Zm7.58-7.43h-3V36.83h3Zm7.47,15.12h-3V52h3Zm0-15.12h-3V36.83h3Z"/><rect class="cls-3" x="183.18" y="36.83" width="0.49" height="4.51"/><rect class="cls-2" x="190.75" y="36.83" width="3.05" height="4.51"/><rect class="cls-3" x="190.75" y="36.83" width="0.49" height="4.51"/><rect class="cls-2" x="183.18" y="44.26" width="3.05" height="4.51"/><rect class="cls-3" x="183.18" y="44.26" width="0.49" height="4.51"/><rect class="cls-3" x="190.75" y="44.26" width="0.49" height="4.51"/><rect class="cls-2" x="183.18" y="51.95" width="3.05" height="4.51"/><rect class="cls-3" x="183.18" y="51.95" width="0.49" height="4.51"/><rect class="cls-2" x="190.75" y="51.95" width="3.05" height="4.51"/><rect class="cls-3" x="190.75" y="51.95" width="0.49" height="4.51"/><rect class="cls-2" x="198.55" y="36.83" width="3.05" height="4.51"/><rect class="cls-3" x="198.55" y="36.83" width="0.49" height="4.51"/><rect class="cls-3" x="206.12" y="36.83" width="0.49" height="4.51"/><rect class="cls-3" x="198.55" y="44.26" width="0.49" height="4.51"/><rect class="cls-2" x="206.12" y="44.26" width="3.05" height="4.51"/><rect class="cls-3" x="206.12" y="44.26" width="0.49" height="4.51"/><rect class="cls-3" x="198.55" y="51.95" width="0.49" height="4.51"/><rect class="cls-2" x="206.12" y="51.95" width="3.05" height="4.51"/><rect class="cls-3" x="206.12" y="51.95" width="0.49" height="4.51"/><rect class="cls-3" x="213.59" y="36.83" width="0.49" height="4.51"/><rect class="cls-2" x="213.59" y="44.26" width="3.05" height="4.51"/><rect class="cls-3" x="213.59" y="44.26" width="0.49" height="4.51"/><rect class="cls-3" x="213.59" y="51.95" width="0.49" height="4.51"/><path class="cls-1" d="M289.58,33.63V81.09h38.9V33.63Zm33.13,3.2h3.05v4.51h-3.05Zm-7.57,7.43h3v4.51h-3ZM307.34,52h3.05v4.51h-3.05Zm0-7.69h3.05v4.51h-3.05Zm-7.57-7.43h3v4.51h-3ZM292.3,52h3.05v4.51H292.3Zm0-15.12h3.05v4.51H292.3Z"/><rect class="cls-3" x="325.27" y="36.83" width="0.49" height="4.51" transform="translate(651.03 78.17) rotate(180)"/><rect class="cls-2" x="315.14" y="36.83" width="3.05" height="4.51" transform="translate(633.32 78.17) rotate(180)"/><rect class="cls-3" x="317.69" y="36.83" width="0.49" height="4.51" transform="translate(635.87 78.17) rotate(180)"/><rect class="cls-2" x="322.71" y="44.26" width="3.05" height="4.51" transform="translate(648.47 93.04) rotate(180)"/><rect class="cls-3" x="325.27" y="44.26" width="0.49" height="4.51" transform="translate(651.03 93.04) rotate(180)"/><rect class="cls-3" x="317.69" y="44.26" width="0.49" height="4.51" transform="translate(635.87 93.04) rotate(180)"/><rect class="cls-2" x="322.71" y="51.95" width="3.05" height="4.51" transform="translate(648.47 108.41) rotate(180)"/><rect class="cls-3" x="325.27" y="51.95" width="0.49" height="4.51" transform="translate(651.03 108.41) rotate(180)"/><rect class="cls-2" x="315.14" y="51.95" width="3.05" height="4.51" transform="translate(633.32 108.41) rotate(180)"/><rect class="cls-3" x="317.69" y="51.95" width="0.49" height="4.51" transform="translate(635.87 108.41) rotate(180)"/><rect class="cls-2" x="307.34" y="36.83" width="3.05" height="4.51" transform="translate(617.73 78.17) rotate(180)"/><rect class="cls-3" x="309.89" y="36.83" width="0.49" height="4.51" transform="translate(620.28 78.17) rotate(180)"/><rect class="cls-3" x="302.32" y="36.83" width="0.49" height="4.51" transform="translate(605.13 78.17) rotate(180)"/><rect class="cls-3" x="309.89" y="44.26" width="0.49" height="4.51" transform="translate(620.28 93.04) rotate(180)"/><rect class="cls-2" x="299.77" y="44.26" width="3.05" height="4.51" transform="translate(602.58 93.04) rotate(180)"/><rect class="cls-3" x="302.32" y="44.26" width="0.49" height="4.51" transform="translate(605.13 93.04) rotate(180)"/><rect class="cls-3" x="309.89" y="51.95" width="0.49" height="4.51" transform="translate(620.28 108.41) rotate(180)"/><rect class="cls-2" x="299.77" y="51.95" width="3.05" height="4.51" transform="translate(602.58 108.41) rotate(180)"/><rect class="cls-3" x="302.32" y="51.95" width="0.49" height="4.51" transform="translate(605.13 108.41) rotate(180)"/><rect class="cls-3" x="294.85" y="36.83" width="0.49" height="4.51" transform="translate(590.2 78.17) rotate(180)"/><rect class="cls-2" x="292.3" y="44.26" width="3.05" height="4.51" transform="translate(587.65 93.04) rotate(180)"/><rect class="cls-3" x="294.85" y="44.26" width="0.49" height="4.51" transform="translate(590.2 93.04) rotate(180)"/><rect class="cls-3" x="294.85" y="51.95" width="0.49" height="4.51" transform="translate(590.2 108.41) rotate(180)"/><rect class="cls-1" x="163.99" y="49.13" width="16.47" height="2.82"/><rect class="cls-1" x="163.99" y="46.16" width="16.47" height="0.97"/><rect class="cls-1" x="178.37" y="47.84" width="3.27" height="0.9" transform="translate(228.29 -131.72) rotate(90)"/><rect class="cls-1" x="176.96" y="46.65" width="0.9" height="3.27"/><rect class="cls-1" x="174.37" y="46.65" width="0.9" height="3.27"/><rect class="cls-1" x="171.77" y="46.65" width="0.9" height="3.27"/><rect class="cls-1" x="169.18" y="46.65" width="0.9" height="3.27"/><rect class="cls-1" x="166.58" y="46.65" width="0.9" height="3.27"/><rect class="cls-1" x="162.8" y="47.84" width="3.27" height="0.9" transform="translate(212.72 -116.15) rotate(90)"/><rect class="cls-1" x="214.2" y="60.58" width="16.47" height="2.82"/><rect class="cls-1" x="214.2" y="57.61" width="16.47" height="0.97"/><rect class="cls-1" x="228.58" y="59.28" width="3.27" height="0.9" transform="translate(289.95 -170.49) rotate(90)"/><rect class="cls-1" x="227.18" y="58.1" width="0.9" height="3.27"/><rect class="cls-1" x="224.58" y="58.1" width="0.9" height="3.27"/><rect class="cls-1" x="221.99" y="58.1" width="0.9" height="3.27"/><rect class="cls-1" x="219.39" y="58.1" width="0.9" height="3.27"/><rect class="cls-1" x="216.8" y="58.1" width="0.9" height="3.27"/><rect class="cls-1" x="213.01" y="59.28" width="3.27" height="0.9" transform="translate(274.38 -154.92) rotate(90)"/><rect class="cls-1" x="249.52" y="60.58" width="16.47" height="2.82"/><rect class="cls-1" x="249.52" y="57.61" width="16.47" height="0.97"/><rect class="cls-1" x="263.9" y="59.28" width="3.27" height="0.9" transform="translate(325.27 -205.8) rotate(90)"/><rect class="cls-1" x="262.49" y="58.1" width="0.9" height="3.27"/><rect class="cls-1" x="259.9" y="58.1" width="0.9" height="3.27"/><rect class="cls-1" x="257.3" y="58.1" width="0.9" height="3.27"/><rect class="cls-1" x="254.71" y="58.1" width="0.9" height="3.27"/><rect class="cls-1" x="252.11" y="58.1" width="0.9" height="3.27"/><rect class="cls-1" x="248.33" y="59.28" width="3.27" height="0.9" transform="translate(309.7 -190.23) rotate(90)"/><rect class="cls-1" x="265.38" y="60.58" width="16.47" height="2.82"/><rect class="cls-1" x="265.38" y="57.61" width="16.47" height="0.97"/><rect class="cls-1" x="279.76" y="59.28" width="3.27" height="0.9" transform="translate(341.13 -221.66) rotate(90)"/><rect class="cls-1" x="278.35" y="58.1" width="0.9" height="3.27"/><rect class="cls-1" x="275.75" y="58.1" width="0.9" height="3.27"/><rect class="cls-1" x="273.16" y="58.1" width="0.9" height="3.27"/><rect class="cls-1" x="270.57" y="58.1" width="0.9" height="3.27"/><rect class="cls-1" x="267.97" y="58.1" width="0.9" height="3.27"/><rect class="cls-1" x="264.19" y="59.28" width="3.27" height="0.9" transform="translate(325.56 -206.09) rotate(90)"/><rect class="cls-1" x="280.93" y="60.58" width="16.47" height="2.82"/><rect class="cls-1" x="280.93" y="57.61" width="16.47" height="0.97"/><rect class="cls-1" x="295.31" y="59.28" width="3.27" height="0.9" transform="translate(356.68 -237.21) rotate(90)"/><rect class="cls-1" x="293.9" y="58.1" width="0.9" height="3.27"/><rect class="cls-1" x="291.31" y="58.1" width="0.9" height="3.27"/><rect class="cls-1" x="288.71" y="58.1" width="0.9" height="3.27"/><rect class="cls-1" x="286.12" y="58.1" width="0.9" height="3.27"/><rect class="cls-1" x="283.52" y="58.1" width="0.9" height="3.27"/><rect class="cls-1" x="279.74" y="59.28" width="3.27" height="0.9" transform="translate(341.11 -221.64) rotate(90)"/><rect class="cls-1" x="163.99" y="66.09" width="16.47" height="2.82"/><rect class="cls-1" x="163.99" y="63.12" width="16.47" height="0.97"/><rect class="cls-1" x="178.37" y="64.79" width="3.27" height="0.9" transform="translate(245.25 -114.76) rotate(90)"/><rect class="cls-1" x="176.96" y="63.6" width="0.9" height="3.27"/><rect class="cls-1" x="174.37" y="63.6" width="0.9" height="3.27"/><rect class="cls-1" x="171.77" y="63.6" width="0.9" height="3.27"/><rect class="cls-1" x="169.18" y="63.6" width="0.9" height="3.27"/><rect class="cls-1" x="166.58" y="63.6" width="0.9" height="3.27"/><rect class="cls-1" x="162.8" y="64.79" width="3.27" height="0.9" transform="translate(229.68 -99.19) rotate(90)"/></g></g></svg>