<svg xmlns="http://www.w3.org/2000/svg" viewBox="0 0 315.15 141.66"><defs><style>.cls-1{fill:#946375;}.cls-2{fill:#c1272d;}.cls-3{fill:#765463;}</style></defs><g id="Layer_2" data-name="Layer 2"><g id="L6"><rect class="cls-1" x="94.89" y="11.44" width="0.59" height="4.14" transform="translate(190.37 27.02) rotate(180)"/><rect class="cls-2" x="94.89" y="10.59" width="0.59" height="0.86" transform="translate(190.37 22.03) rotate(180)"/><rect class="cls-2" x="94.89" y="12.03" width="0.59" height="0.86" transform="translate(190.37 24.92) rotate(180)"/><rect class="cls-1" x="215.43" y="2.22" width="0.59" height="4.14" transform="translate(431.45 8.58) rotate(180)"/><rect class="cls-2" x="215.43" y="1.37" width="0.59" height="0.86" transform="translate(431.45 3.59) rotate(180)"/><rect class="cls-2" x="215.43" y="2.81" width="0.59" height="0.86" transform="translate(431.45 6.48) rotate(180)"/><rect class="cls-1" x="216.07" y="8.17" width="0.39" height="3.6"/><rect class="cls-1" x="222.13" y="8.17" width="0.39" height="3.6"/><rect class="cls-1" x="216.07" y="14.11" width="0.39" height="3.6"/><rect class="cls-1" x="222.13" y="14.11" width="0.39" height="3.6"/><rect class="cls-1" x="216.07" y="20.25" width="0.39" height="3.6"/><rect class="cls-1" x="222.13" y="20.25" width="0.39" height="3.6"/><rect class="cls-1" x="228.35" y="8.17" width="0.39" height="3.6"/><rect class="cls-1" x="234.41" y="8.17" width="0.39" height="3.6"/><rect class="cls-1" x="228.35" y="14.11" width="0.39" height="3.6"/><rect class="cls-1" x="234.41" y="14.11" width="0.39" height="3.6"/><rect class="cls-1" x="228.35" y="20.25" width="0.39" height="3.6"/><rect class="cls-1" x="234.41" y="20.25" width="0.39" height="3.6"/><rect class="cls-1" x="240.37" y="8.17" width="0.39" height="3.6"/><path class="cls-1" d="M213.9,5.62V43.54H245V5.62Zm4.61,18.24h-2.44V20.25h2.44Zm0-6.15h-2.44v-3.6h2.44Zm0-5.94h-2.44V8.17h2.44Zm6.05,12.09h-2.43V20.25h2.43Zm0-6.15h-2.43v-3.6h2.43Zm0-5.94h-2.43V8.17h2.43Zm6.23,12.09h-2.44V20.25h2.44Zm0-6.15h-2.44v-3.6h2.44Zm0-5.94h-2.44V8.17h2.44Zm6.05,12.09h-2.43V20.25h2.43Zm0-6.15h-2.43v-3.6h2.43Zm0-5.94h-2.43V8.17h2.43Zm6,12.09h-2.44V20.25h2.44Zm0-6.15h-2.44v-3.6h2.44Zm0-5.94h-2.44V8.17h2.44Z"/><rect class="cls-1" x="240.37" y="14.11" width="0.39" height="3.6"/><rect class="cls-1" x="240.37" y="20.25" width="0.39" height="3.6"/><rect class="cls-1" x="178.72" y="40.75" width="19.49" height="39.75"/><rect class="cls-1" x="265.15" y="40.75" width="19.49" height="39.75"/><rect class="cls-1" x="295.66" y="40.75" width="19.49" height="39.75"/><rect class="cls-1" x="225.06" y="40.75" width="19.93" height="39.75"/><path class="cls-1" d="M178.72,14.26V41.7h19.49V14.26Zm3.16,14.21h-1.55V26.19h1.55Zm0-3.89h-1.55V22.29h1.55Zm0-3.77h-1.55V18.52h1.55Zm3,7.66h-1.55V26.19h1.55Zm0-3.89h-1.55V22.29h1.55Zm0-3.77h-1.55V18.52h1.55Zm2.67,7.66H186V26.19h1.55Zm0-3.89H186V22.29h1.55Zm0-3.77H186V18.52h1.55Zm3,7.66H189V26.19h1.54Zm0-3.89H189V22.29h1.54Zm0-3.77H189V18.52h1.54Zm3.1,7.66h-1.55V26.19h1.55Zm0-3.89h-1.55V22.29h1.55Zm0-3.77h-1.55V18.52h1.55Zm3,7.66h-1.54V26.19h1.54Zm0-3.89h-1.54V22.29h1.54Zm0-3.77h-1.54V18.52h1.54Z"/><path class="cls-1" d="M265.15,15.55V43h19.49V15.55Zm3.16,14.22h-1.54V27.48h1.54Zm0-3.9h-1.54V23.59h1.54Zm0-3.76h-1.54V19.82h1.54Zm3,7.66h-1.54V27.48h1.54Zm0-3.9h-1.54V23.59h1.54Zm0-3.76h-1.54V19.82h1.54ZM274,29.77h-1.54V27.48H274Zm0-3.9h-1.54V23.59H274Zm0-3.76h-1.54V19.82H274Zm3,7.66h-1.54V27.48H277Zm0-3.9h-1.54V23.59H277Zm0-3.76h-1.54V19.82H277Zm3.09,7.66h-1.54V27.48h1.54Zm0-3.9h-1.54V23.59h1.54Zm0-3.76h-1.54V19.82h1.54Zm3,7.66h-1.54V27.48h1.54Zm0-3.9h-1.54V23.59h1.54Zm0-3.76h-1.54V19.82h1.54Z"/><path class="cls-1" d="M295.66,15.55V43h19.49V15.55Zm3.16,14.22h-1.54V27.48h1.54Zm0-3.9h-1.54V23.59h1.54Zm0-3.76h-1.54V19.82h1.54Zm3,7.66h-1.55V27.48h1.55Zm0-3.9h-1.55V23.59h1.55Zm0-3.76h-1.55V19.82h1.55Zm2.67,7.66H303V27.48h1.55Zm0-3.9H303V23.59h1.55Zm0-3.76H303V19.82h1.55Zm3,7.66H306V27.48h1.55Zm0-3.9H306V23.59h1.55Zm0-3.76H306V19.82h1.55Zm3.09,7.66h-1.54V27.48h1.54Zm0-3.9h-1.54V23.59h1.54Zm0-3.76h-1.54V19.82h1.54Zm3,7.66h-1.55V27.48h1.55Zm0-3.9h-1.55V23.59h1.55Zm0-3.76h-1.55V19.82h1.55Z"/><rect class="cls-1" x="196.96" y="29.27" width="11.02" height="1.89"/><rect class="cls-1" x="196.96" y="27.29" width="11.02" height="0.65"/><rect class="cls-1" x="206.58" y="28.41" width="2.19" height="0.6" transform="translate(236.38 -178.97) rotate(90)"/><rect class="cls-1" x="205.64" y="27.61" width="0.6" height="2.19"/><rect class="cls-1" x="203.9" y="27.61" width="0.6" height="2.19"/><rect class="cls-1" x="202.16" y="27.61" width="0.6" height="2.19"/><rect class="cls-1" x="200.43" y="27.61" width="0.6" height="2.19"/><rect class="cls-1" x="198.69" y="27.61" width="0.6" height="2.19"/><rect class="cls-1" x="196.16" y="28.41" width="2.19" height="0.6" transform="translate(225.96 -168.55) rotate(90)"/><rect class="cls-1" x="207.37" y="29.27" width="11.02" height="1.89"/><rect class="cls-1" x="207.37" y="27.29" width="11.02" height="0.65"/><rect class="cls-1" x="216.99" y="28.41" width="2.19" height="0.6" transform="translate(246.79 -189.38) rotate(90)"/><rect class="cls-1" x="216.05" y="27.61" width="0.6" height="2.19"/><rect class="cls-1" x="214.32" y="27.61" width="0.6" height="2.19"/><rect class="cls-1" x="212.58" y="27.61" width="0.6" height="2.19"/><rect class="cls-1" x="210.84" y="27.61" width="0.6" height="2.19"/><rect class="cls-1" x="209.11" y="27.61" width="0.6" height="2.19"/><rect class="cls-1" x="206.58" y="28.41" width="2.19" height="0.6" transform="translate(236.38 -178.97) rotate(90)"/><rect class="cls-1" x="183.4" y="14.31" width="11.02" height="1.89"/><rect class="cls-1" x="183.4" y="12.32" width="11.02" height="0.65"/><rect class="cls-1" x="193.02" y="13.44" width="2.19" height="0.6" transform="translate(207.86 -180.38) rotate(90)"/><rect class="cls-1" x="192.08" y="12.64" width="0.6" height="2.19"/><rect class="cls-1" x="190.35" y="12.64" width="0.6" height="2.19"/><rect class="cls-1" x="188.61" y="12.64" width="0.6" height="2.19"/><rect class="cls-1" x="186.87" y="12.64" width="0.6" height="2.19"/><rect class="cls-1" x="185.14" y="12.64" width="0.6" height="2.19"/><rect class="cls-1" x="182.61" y="13.44" width="2.19" height="0.6" transform="translate(197.44 -169.96) rotate(90)"/><rect class="cls-1" x="284.64" y="20.35" width="11.02" height="1.89"/><rect class="cls-1" x="284.64" y="18.37" width="11.02" height="0.65"/><rect class="cls-1" x="294.26" y="19.49" width="2.19" height="0.6" transform="translate(315.14 -275.57) rotate(90)"/><rect class="cls-1" x="293.32" y="18.69" width="0.6" height="2.19"/><rect class="cls-1" x="291.59" y="18.69" width="0.6" height="2.19"/><rect class="cls-1" x="289.85" y="18.69" width="0.6" height="2.19"/><rect class="cls-1" x="288.11" y="18.69" width="0.6" height="2.19"/><rect class="cls-1" x="286.38" y="18.69" width="0.6" height="2.19"/><rect class="cls-1" x="283.85" y="19.49" width="2.19" height="0.6" transform="translate(304.73 -265.16) rotate(90)"/><rect class="cls-1" x="284.64" y="27.16" width="11.02" height="1.89"/><rect class="cls-1" x="284.64" y="25.17" width="11.02" height="0.65"/><rect class="cls-1" x="294.26" y="26.29" width="2.19" height="0.6" transform="translate(321.95 -268.77) rotate(90)"/><rect class="cls-1" x="293.32" y="25.5" width="0.6" height="2.19"/><rect class="cls-1" x="291.59" y="25.5" width="0.6" height="2.19"/><rect class="cls-1" x="289.85" y="25.5" width="0.6" height="2.19"/><rect class="cls-1" x="288.11" y="25.5" width="0.6" height="2.19"/><rect class="cls-1" x="286.38" y="25.5" width="0.6" height="2.19"/><rect class="cls-1" x="283.85" y="26.29" width="2.19" height="0.6" transform="translate(311.53 -258.35) rotate(90)"/><rect class="cls-1" x="284.64" y="34.08" width="11.02" height="1.89"/><rect class="cls-1" x="284.64" y="32.09" width="11.02" height="0.65"/><rect class="cls-1" x="294.26" y="33.21" width="2.19" height="0.6" transform="translate(328.87 -261.85) rotate(90)"/><rect class="cls-1" x="293.32" y="32.41" width="0.6" height="2.19"/><rect class="cls-1" x="291.59" y="32.41" width="0.6" height="2.19"/><rect class="cls-1" x="289.85" y="32.41" width="0.6" height="2.19"/><rect class="cls-1" x="288.11" y="32.41" width="0.6" height="2.19"/><rect class="cls-1" x="286.38" y="32.41" width="0.6" height="2.19"/><rect class="cls-1" x="283.85" y="33.21" width="2.19" height="0.6" transform="translate(318.45 -251.43) rotate(90)"/><rect class="cls-1" x="224.46" y="4.09" width="11.02" height="3.88"/><rect class="cls-1" x="224.46" width="11.02" height="1.33"/><rect class="cls-1" x="232.92" y="2.62" width="4.51" height="0.6" transform="translate(238.09 -232.25) rotate(90)"/><rect class="cls-1" x="233.14" y="0.66" width="0.6" height="4.51"/><rect class="cls-1" x="231.4" y="0.66" width="0.6" height="4.51"/><rect class="cls-1" x="229.66" y="0.66" width="0.6" height="4.51"/><rect class="cls-1" x="227.93" y="0.66" width="0.6" height="4.51"/><rect class="cls-1" x="226.19" y="0.66" width="0.6" height="4.51"/><rect class="cls-1" x="222.5" y="2.62" width="4.51" height="0.6" transform="translate(227.68 -221.84) rotate(90)"/><rect class="cls-1" x="169.48" y="3.47" width="0.39" height="3.6"/><rect class="cls-1" x="175.53" y="3.47" width="0.39" height="3.6"/><rect class="cls-1" x="169.48" y="9.41" width="0.39" height="3.6"/><rect class="cls-1" x="175.53" y="9.41" width="0.39" height="3.6"/><rect class="cls-1" x="169.48" y="15.55" width="0.39" height="3.6"/><rect class="cls-1" x="175.53" y="15.55" width="0.39" height="3.6"/><rect class="cls-1" x="181.76" y="3.47" width="0.39" height="3.6"/><rect class="cls-1" x="187.82" y="3.47" width="0.39" height="3.6"/><rect class="cls-1" x="181.76" y="9.41" width="0.39" height="3.6"/><rect class="cls-1" x="187.82" y="9.41" width="0.39" height="3.6"/><rect class="cls-1" x="181.76" y="15.55" width="0.39" height="3.6"/><rect class="cls-1" x="187.82" y="15.55" width="0.39" height="3.6"/><rect class="cls-1" x="193.78" y="3.47" width="0.39" height="3.6"/><path class="cls-1" d="M167.3.91V38.84h31.09V.91Zm4.61,18.24h-2.43v-3.6h2.43Zm0-6.14h-2.43V9.41h2.43Zm0-5.94h-2.43V3.47h2.43ZM178,19.15h-2.44v-3.6H178ZM178,13h-2.44V9.41H178Zm0-5.94h-2.44V3.47H178Zm6.23,12.08h-2.44v-3.6h2.44Zm0-6.14h-2.44V9.41h2.44Zm0-5.94h-2.44V3.47h2.44Zm6.05,12.08h-2.43v-3.6h2.43Zm0-6.14h-2.43V9.41h2.43Zm0-5.94h-2.43V3.47h2.43Zm6,12.08h-2.44v-3.6h2.44Zm0-6.14h-2.44V9.41h2.44Zm0-5.94h-2.44V3.47h2.44Z"/><rect class="cls-1" x="193.78" y="9.41" width="0.39" height="3.6"/><rect class="cls-1" x="193.78" y="15.55" width="0.39" height="3.6"/><rect class="cls-1" x="129.66" y="36.62" width="21.96" height="41.64"/><rect class="cls-1" x="43.28" y="40.61" width="21.04" height="39.9"/><rect class="cls-1" x="63.85" y="40.61" width="33.39" height="39.9"/><rect class="cls-1" y="40.61" width="21.51" height="39.9"/><path class="cls-1" d="M129.66,8.86V37.61h22V8.86Zm3.56,14.9h-1.74v-2.4h1.74Zm0-4.09h-1.74V17.28h1.74Zm0-3.94h-1.74v-2.4h1.74Zm3.39,8h-1.74v-2.4h1.74Zm0-4.09h-1.74V17.28h1.74Zm0-3.94h-1.74v-2.4h1.74Zm3,8h-1.74v-2.4h1.74Zm0-4.09h-1.74V17.28h1.74Zm0-3.94h-1.74v-2.4h1.74Zm3.38,8h-1.74v-2.4H143Zm0-4.09h-1.74V17.28H143Zm0-3.94h-1.74v-2.4H143Zm3.49,8h-1.74v-2.4h1.74Zm0-4.09h-1.74V17.28h1.74Zm0-3.94h-1.74v-2.4h1.74Zm3.39,8h-1.74v-2.4h1.74Zm0-4.09h-1.74V17.28h1.74Zm0-3.94h-1.74v-2.4h1.74Z"/><path class="cls-1" d="M43.28,15.32V42.87h21V15.32Zm3.41,14.27H45v-2.3h1.66Zm0-3.91H45v-2.3h1.66Zm0-3.78H45V19.6h1.66Zm3.25,7.69H48.27v-2.3h1.67Zm0-3.91H48.27v-2.3h1.67Zm0-3.78H48.27V19.6h1.67Zm2.88,7.69H51.15v-2.3h1.67Zm0-3.91H51.15v-2.3h1.67Zm0-3.78H51.15V19.6h1.67Zm3.25,7.69H54.4v-2.3h1.67Zm0-3.91H54.4v-2.3h1.67Zm0-3.78H54.4V19.6h1.67Zm3.34,7.69H57.74v-2.3h1.67Zm0-3.91H57.74v-2.3h1.67Zm0-3.78H57.74V19.6h1.67Zm3.24,7.69H61v-2.3h1.66Zm0-3.91H61v-2.3h1.66Zm0-3.78H61V19.6h1.66Z"/><path class="cls-1" d="M76.21,15.32V42.87h21V15.32Zm3.41,14.27H78v-2.3h1.67Zm0-3.91H78v-2.3h1.67Zm0-3.78H78V19.6h1.67Zm3.25,7.69H81.2v-2.3h1.67Zm0-3.91H81.2v-2.3h1.67Zm0-3.78H81.2V19.6h1.67Zm2.88,7.69H84.08v-2.3h1.67Zm0-3.91H84.08v-2.3h1.67Zm0-3.78H84.08V19.6h1.67ZM89,29.59H87.33v-2.3H89Zm0-3.91H87.33v-2.3H89Zm0-3.78H87.33V19.6H89Zm3.34,7.69H90.67v-2.3h1.67Zm0-3.91H90.67v-2.3h1.67Zm0-3.78H90.67V19.6h1.67Zm3.24,7.69H93.91v-2.3h1.67Zm0-3.91H93.91v-2.3h1.67Zm0-3.78H93.91V19.6h1.67Z"/><rect class="cls-3" x="5.81" y="59.93" width="17.77" height="2.83"/><rect class="cls-3" x="5.81" y="56.95" width="17.77" height="0.97"/><rect class="cls-3" x="21.46" y="58.59" width="3.29" height="0.97" transform="translate(82.18 35.97) rotate(90)"/><rect class="cls-3" x="19.82" y="57.43" width="0.97" height="3.29"/><rect class="cls-3" x="17.02" y="57.43" width="0.97" height="3.29"/><rect class="cls-3" x="14.22" y="57.43" width="0.97" height="3.29"/><rect class="cls-3" x="11.42" y="57.43" width="0.97" height="3.29"/><rect class="cls-3" x="8.61" y="57.43" width="0.97" height="3.29"/><rect class="cls-3" x="4.65" y="58.59" width="3.29" height="0.97" transform="translate(65.37 52.78) rotate(90)"/><rect class="cls-1" x="150.36" y="24.57" width="11.02" height="1.89"/><rect class="cls-1" x="150.36" y="22.58" width="11.02" height="0.65"/><rect class="cls-1" x="159.98" y="23.7" width="2.19" height="0.6" transform="translate(185.08 -137.08) rotate(90)"/><rect class="cls-1" x="159.04" y="22.91" width="0.6" height="2.19"/><rect class="cls-1" x="157.31" y="22.91" width="0.6" height="2.19"/><rect class="cls-1" x="155.57" y="22.91" width="0.6" height="2.19"/><rect class="cls-1" x="153.84" y="22.91" width="0.6" height="2.19"/><rect class="cls-1" x="152.1" y="22.91" width="0.6" height="2.19"/><rect class="cls-1" x="149.57" y="23.7" width="2.19" height="0.6" transform="translate(174.67 -126.66) rotate(90)"/><rect class="cls-1" x="160.78" y="24.57" width="11.02" height="1.89"/><rect class="cls-1" x="160.78" y="22.58" width="11.02" height="0.65"/><rect class="cls-1" x="170.4" y="23.7" width="2.19" height="0.6" transform="translate(195.5 -147.49) rotate(90)"/><rect class="cls-1" x="169.46" y="22.91" width="0.6" height="2.19"/><rect class="cls-1" x="167.72" y="22.91" width="0.6" height="2.19"/><rect class="cls-1" x="165.99" y="22.91" width="0.6" height="2.19"/><rect class="cls-1" x="164.25" y="22.91" width="0.6" height="2.19"/><rect class="cls-1" x="162.52" y="22.91" width="0.6" height="2.19"/><rect class="cls-1" x="159.98" y="23.7" width="2.19" height="0.6" transform="translate(185.08 -137.08) rotate(90)"/><rect class="cls-1" x="136.81" y="8.91" width="11.02" height="1.75"/><rect class="cls-1" x="136.81" y="7.06" width="11.02" height="0.6"/><rect class="cls-1" x="146.51" y="8.08" width="2.04" height="0.6" transform="translate(155.91 -139.14) rotate(90)"/><rect class="cls-1" x="145.49" y="7.36" width="0.6" height="2.04"/><rect class="cls-1" x="143.75" y="7.36" width="0.6" height="2.04"/><rect class="cls-1" x="142.02" y="7.36" width="0.6" height="2.04"/><rect class="cls-1" x="140.28" y="7.36" width="0.6" height="2.04"/><rect class="cls-1" x="138.55" y="7.36" width="0.6" height="2.04"/><rect class="cls-1" x="136.09" y="8.08" width="2.04" height="0.6" transform="translate(145.49 -128.73) rotate(90)"/><rect class="cls-1" x="145.02" y="80.03" width="0.39" height="3.6"/><rect class="cls-1" x="151.07" y="80.03" width="0.39" height="3.6"/><rect class="cls-1" x="145.02" y="85.97" width="0.39" height="3.6"/><rect class="cls-1" x="151.07" y="85.97" width="0.39" height="3.6"/><rect class="cls-1" x="145.02" y="92.11" width="0.39" height="3.6"/><rect class="cls-1" x="151.07" y="92.11" width="0.39" height="3.6"/><rect class="cls-1" x="157.3" y="80.03" width="0.39" height="3.6"/><rect class="cls-1" x="163.36" y="80.03" width="0.39" height="3.6"/><rect class="cls-1" x="157.3" y="85.97" width="0.39" height="3.6"/><rect class="cls-1" x="163.36" y="85.97" width="0.39" height="3.6"/><rect class="cls-1" x="157.3" y="92.11" width="0.39" height="3.6"/><rect class="cls-1" x="163.36" y="92.11" width="0.39" height="3.6"/><rect class="cls-1" x="169.32" y="80.03" width="0.39" height="3.6"/><path class="cls-1" d="M142.84,77.48V115.4h31.09V77.48Zm4.61,18.24H145V92.11h2.43Zm0-6.15H145V86h2.43Zm0-5.93H145V80h2.43Zm6.06,12.08h-2.44V92.11h2.44Zm0-6.15h-2.44V86h2.44Zm0-5.93h-2.44V80h2.44Zm6.23,12.08H157.3V92.11h2.44Zm0-6.15H157.3V86h2.44Zm0-5.93H157.3V80h2.44Zm6,12.08h-2.43V92.11h2.43Zm0-6.15h-2.43V86h2.43Zm0-5.93h-2.43V80h2.43Zm6,12.08h-2.44V92.11h2.44Zm0-6.15h-2.44V86h2.44Zm0-5.93h-2.44V80h2.44Z"/><rect class="cls-1" x="169.32" y="85.97" width="0.39" height="3.6"/><rect class="cls-1" x="169.32" y="92.11" width="0.39" height="3.6"/><rect class="cls-1" x="107.66" y="104.7" width="19.49" height="36.97"/><rect class="cls-1" x="46.14" y="104.34" width="19.49" height="36.97"/><path class="cls-1" d="M107.66,80.06v25.52h19.49V80.06Zm3.16,13.22h-1.54V91.16h1.54Zm0-3.62h-1.54V87.53h1.54Zm0-3.51h-1.54V84h1.54Zm3,7.13h-1.54V91.16h1.54Zm0-3.62h-1.54V87.53h1.54Zm0-3.51h-1.54V84h1.54Zm2.67,7.13H115V91.16h1.54Zm0-3.62H115V87.53h1.54Zm0-3.51H115V84h1.54Zm3,7.13H118V91.16h1.54Zm0-3.62H118V87.53h1.54Zm0-3.51H118V84h1.54Zm3.09,7.13h-1.54V91.16h1.54Zm0-3.62h-1.54V87.53h1.54Zm0-3.51h-1.54V84h1.54Zm3,7.13h-1.54V91.16h1.54Zm0-3.62h-1.54V87.53h1.54Zm0-3.51h-1.54V84h1.54Z"/><path class="cls-1" d="M46.14,80.91v25.52H65.63V80.91ZM49.3,94.13H47.76V92H49.3Zm0-3.62H47.76V88.38H49.3Zm0-3.5H47.76V84.88H49.3Zm3,7.12H50.77V92h1.54Zm0-3.62H50.77V88.38h1.54Zm0-3.5H50.77V84.88h1.54ZM55,94.13H53.44V92H55Zm0-3.62H53.44V88.38H55ZM55,87H53.44V84.88H55Zm3,7.12H56.44V92H58Zm0-3.62H56.44V88.38H58ZM58,87H56.44V84.88H58Zm3.09,7.12H59.54V92h1.54Zm0-3.62H59.54V88.38h1.54Zm0-3.5H59.54V84.88h1.54Zm3,7.12H62.55V92h1.54Zm0-3.62H62.55V88.38h1.54Zm0-3.5H62.55V84.88h1.54Z"/><rect class="cls-1" x="125.9" y="94.03" width="11.02" height="1.75"/><rect class="cls-1" x="125.9" y="92.18" width="11.02" height="0.6"/><rect class="cls-1" x="135.6" y="93.2" width="2.04" height="0.6" transform="translate(230.12 -43.12) rotate(90)"/><rect class="cls-1" x="134.58" y="92.48" width="0.6" height="2.04"/><rect class="cls-1" x="132.85" y="92.48" width="0.6" height="2.04"/><rect class="cls-1" x="131.11" y="92.48" width="0.6" height="2.04"/><rect class="cls-1" x="129.38" y="92.48" width="0.6" height="2.04"/><rect class="cls-1" x="127.64" y="92.48" width="0.6" height="2.04"/><rect class="cls-1" x="125.19" y="93.2" width="2.04" height="0.6" transform="translate(219.7 -32.71) rotate(90)"/><rect class="cls-1" x="136.32" y="94.03" width="11.02" height="1.75"/><rect class="cls-1" x="136.32" y="92.18" width="11.02" height="0.6"/><rect class="cls-1" x="146.02" y="93.2" width="2.04" height="0.6" transform="translate(240.53 -53.54) rotate(90)"/><rect class="cls-1" x="145" y="92.48" width="0.6" height="2.04"/><rect class="cls-1" x="143.26" y="92.48" width="0.6" height="2.04"/><rect class="cls-1" x="141.53" y="92.48" width="0.6" height="2.04"/><rect class="cls-1" x="139.79" y="92.48" width="0.6" height="2.04"/><rect class="cls-1" x="138.06" y="92.48" width="0.6" height="2.04"/><rect class="cls-1" x="135.6" y="93.2" width="2.04" height="0.6" transform="translate(230.12 -43.12) rotate(90)"/><rect class="cls-1" x="112.35" y="80.11" width="11.02" height="1.75"/><rect class="cls-1" x="112.35" y="78.26" width="11.02" height="0.6"/><rect class="cls-1" x="122.05" y="79.28" width="2.04" height="0.6" transform="translate(202.65 -43.48) rotate(90)"/><rect class="cls-1" x="121.03" y="78.56" width="0.6" height="2.04"/><rect class="cls-1" x="119.29" y="78.56" width="0.6" height="2.04"/><rect class="cls-1" x="117.56" y="78.56" width="0.6" height="2.04"/><rect class="cls-1" x="115.82" y="78.56" width="0.6" height="2.04"/><rect class="cls-1" x="114.09" y="78.56" width="0.6" height="2.04"/><rect class="cls-1" x="111.63" y="79.28" width="2.04" height="0.6" transform="translate(192.23 -33.07) rotate(90)"/><rect class="cls-1" x="64.32" y="20.14" width="11.89" height="1.89"/><rect class="cls-1" x="64.32" y="18.14" width="11.89" height="0.65"/><rect class="cls-1" x="74.78" y="19.24" width="2.2" height="0.65" transform="translate(95.45 -56.32) rotate(90)"/><rect class="cls-1" x="73.69" y="18.47" width="0.65" height="2.2"/><rect class="cls-1" x="71.81" y="18.47" width="0.65" height="2.2"/><rect class="cls-1" x="69.94" y="18.47" width="0.65" height="2.2"/><rect class="cls-1" x="68.06" y="18.47" width="0.65" height="2.2"/><rect class="cls-1" x="66.19" y="18.47" width="0.65" height="2.2"/><rect class="cls-1" x="63.54" y="19.24" width="2.2" height="0.65" transform="translate(84.21 -45.07) rotate(90)"/><rect class="cls-1" x="64.32" y="26.97" width="11.89" height="1.89"/><rect class="cls-1" x="64.32" y="24.98" width="11.89" height="0.65"/><rect class="cls-1" x="74.78" y="26.07" width="2.2" height="0.65" transform="translate(102.28 -49.48) rotate(90)"/><rect class="cls-1" x="73.69" y="25.3" width="0.65" height="2.2"/><rect class="cls-1" x="71.81" y="25.3" width="0.65" height="2.2"/><rect class="cls-1" x="69.94" y="25.3" width="0.65" height="2.2"/><rect class="cls-1" x="68.06" y="25.3" width="0.65" height="2.2"/><rect class="cls-1" x="66.19" y="25.3" width="0.65" height="2.2"/><rect class="cls-1" x="63.54" y="26.07" width="2.2" height="0.65" transform="translate(91.04 -38.24) rotate(90)"/><rect class="cls-1" x="64.32" y="33.91" width="11.89" height="1.89"/><rect class="cls-1" x="64.32" y="31.92" width="11.89" height="0.65"/><rect class="cls-1" x="74.78" y="33.02" width="2.2" height="0.65" transform="translate(109.23 -42.54) rotate(90)"/><rect class="cls-1" x="73.69" y="32.24" width="0.65" height="2.2"/><rect class="cls-1" x="71.81" y="32.24" width="0.65" height="2.2"/><rect class="cls-1" x="69.94" y="32.24" width="0.65" height="2.2"/><rect class="cls-1" x="68.06" y="32.24" width="0.65" height="2.2"/><rect class="cls-1" x="66.19" y="32.24" width="0.65" height="2.2"/><rect class="cls-1" x="63.54" y="33.02" width="2.2" height="0.65" transform="translate(97.98 -31.3) rotate(90)"/></g></g></svg>