<svg xmlns="http://www.w3.org/2000/svg" viewBox="0 0 288.82 145.76"><defs><style>.cls-1{fill:#946375;}.cls-2{fill:#c1272d;}.cls-3{fill:#a4757d;}.cls-4{fill:#ab857f;}.cls-5{fill:#a06572;}</style></defs><g id="Layer_2" data-name="Layer 2"><g id="L7"><rect class="cls-1" x="249.79" y="37" width="0.59" height="4.14" transform="translate(500.17 78.13) rotate(180)"/><rect class="cls-2" x="249.79" y="36.14" width="0.59" height="0.86" transform="translate(500.17 73.14) rotate(180)"/><rect class="cls-2" x="249.79" y="37.59" width="0.59" height="0.86" transform="translate(500.17 76.03) rotate(180)"/><rect class="cls-3" x="105.19" y="29.47" width="15.36" height="57.49"/><rect class="cls-4" x="107.88" y="32.69" width="2.29" height="7.62"/><rect class="cls-5" x="107.88" y="32.69" width="0.37" height="7.62"/><rect class="cls-4" x="113.58" y="32.69" width="2.29" height="7.62"/><rect class="cls-5" x="113.58" y="32.69" width="0.37" height="7.62"/><rect class="cls-4" x="107.88" y="45.24" width="2.29" height="7.62"/><rect class="cls-5" x="107.88" y="45.24" width="0.37" height="7.62"/><rect class="cls-4" x="113.58" y="45.24" width="2.29" height="7.62"/><rect class="cls-5" x="113.58" y="45.24" width="0.37" height="7.62"/><rect class="cls-4" x="107.88" y="58.22" width="2.29" height="7.62"/><rect class="cls-5" x="107.88" y="58.22" width="0.37" height="7.62"/><rect class="cls-4" x="113.58" y="58.22" width="2.29" height="7.62"/><rect class="cls-5" x="113.58" y="58.22" width="0.37" height="7.62"/><rect class="cls-3" x="169.24" y="3.56" width="15.36" height="33.19"/><rect class="cls-4" x="171.94" y="5.41" width="2.29" height="4.4"/><rect class="cls-5" x="171.94" y="5.41" width="0.37" height="4.4"/><rect class="cls-4" x="177.63" y="5.41" width="2.29" height="4.4"/><rect class="cls-5" x="177.63" y="5.41" width="0.37" height="4.4"/><rect class="cls-4" x="171.94" y="12.66" width="2.29" height="4.4"/><rect class="cls-5" x="171.94" y="12.66" width="0.37" height="4.4"/><rect class="cls-4" x="177.63" y="12.66" width="2.29" height="4.4"/><rect class="cls-5" x="177.63" y="12.66" width="0.37" height="4.4"/><rect class="cls-4" x="171.94" y="20.15" width="2.29" height="4.4"/><rect class="cls-5" x="171.94" y="20.15" width="0.37" height="4.4"/><rect class="cls-4" x="177.63" y="20.15" width="2.29" height="4.4"/><rect class="cls-5" x="177.63" y="20.15" width="0.37" height="4.4"/><rect class="cls-3" x="169.24" y="26.87" width="15.36" height="33.19"/><rect class="cls-4" x="171.94" y="28.72" width="2.29" height="4.4"/><rect class="cls-5" x="171.94" y="28.72" width="0.37" height="4.4"/><rect class="cls-4" x="177.63" y="28.72" width="2.29" height="4.4"/><rect class="cls-5" x="177.63" y="28.72" width="0.37" height="4.4"/><rect class="cls-4" x="171.94" y="35.97" width="2.29" height="4.4"/><rect class="cls-5" x="171.94" y="35.97" width="0.37" height="4.4"/><rect class="cls-4" x="177.63" y="35.97" width="2.29" height="4.4"/><rect class="cls-5" x="177.63" y="35.97" width="0.37" height="4.4"/><rect class="cls-4" x="171.94" y="43.46" width="2.29" height="4.4"/><rect class="cls-5" x="171.94" y="43.46" width="0.37" height="4.4"/><rect class="cls-4" x="177.63" y="43.46" width="2.29" height="4.4"/><rect class="cls-5" x="177.63" y="43.46" width="0.37" height="4.4"/><path class="cls-3" d="M132.93,26.87V60.06h29.26V26.87Zm4.34,5.39H135V29.11h2.29Zm5.69,5.2h-2.29V34.3H143Zm5.87,5.37h-2.3V39.68h2.3Zm0-5.37h-2.3V34.3h2.3Zm5.69-5.2h-2.29V29.11h2.29Zm5.62,10.57h-2.29V39.68h2.29Zm0-10.57h-2.29V29.11h2.29Z"/><rect class="cls-5" x="134.98" y="29.11" width="0.37" height="3.15"/><rect class="cls-4" x="140.67" y="29.11" width="2.29" height="3.15"/><rect class="cls-5" x="140.67" y="29.11" width="0.37" height="3.15"/><rect class="cls-4" x="134.98" y="34.3" width="2.29" height="3.15"/><rect class="cls-5" x="134.98" y="34.3" width="0.37" height="3.15"/><rect class="cls-5" x="140.67" y="34.3" width="0.37" height="3.15"/><rect class="cls-4" x="134.98" y="39.68" width="2.29" height="3.15"/><rect class="cls-5" x="134.98" y="39.68" width="0.37" height="3.15"/><rect class="cls-4" x="140.67" y="39.68" width="2.29" height="3.15"/><rect class="cls-5" x="140.67" y="39.68" width="0.37" height="3.15"/><rect class="cls-4" x="146.53" y="29.11" width="2.29" height="3.15"/><rect class="cls-5" x="146.53" y="29.11" width="0.37" height="3.15"/><rect class="cls-5" x="152.23" y="29.11" width="0.37" height="3.15"/><rect class="cls-5" x="146.53" y="34.3" width="0.37" height="3.15"/><rect class="cls-4" x="152.23" y="34.3" width="2.29" height="3.15"/><rect class="cls-5" x="152.23" y="34.3" width="0.37" height="3.15"/><rect class="cls-5" x="146.53" y="39.68" width="0.37" height="3.15"/><rect class="cls-4" x="152.23" y="39.68" width="2.29" height="3.15"/><rect class="cls-5" x="152.23" y="39.68" width="0.37" height="3.15"/><rect class="cls-5" x="157.85" y="29.11" width="0.37" height="3.15"/><rect class="cls-4" x="157.85" y="34.3" width="2.29" height="3.15"/><rect class="cls-5" x="157.85" y="34.3" width="0.37" height="3.15"/><rect class="cls-5" x="157.85" y="39.68" width="0.37" height="3.15"/><path class="cls-3" d="M215,26.87V60.06h29.26V26.87Zm24.92,2.24h2.29v3.15h-2.29Zm-5.7,5.19h2.29v3.16h-2.29Zm-5.86,5.38h2.29v3.15h-2.29Zm0-5.38h2.29v3.16h-2.29Zm-5.7-5.19h2.29v3.15h-2.29ZM217,39.68h2.29v3.15H217Zm0-10.57h2.29v3.15H217Z"/><rect class="cls-5" x="241.83" y="29.11" width="0.37" height="3.15" transform="translate(484.02 61.37) rotate(180)"/><rect class="cls-4" x="234.21" y="29.11" width="2.29" height="3.15" transform="translate(470.71 61.37) rotate(180)"/><rect class="cls-5" x="236.13" y="29.11" width="0.37" height="3.15" transform="translate(472.63 61.37) rotate(180)"/><rect class="cls-4" x="239.91" y="34.3" width="2.29" height="3.15" transform="translate(482.1 71.76) rotate(180)"/><rect class="cls-5" x="241.83" y="34.3" width="0.37" height="3.15" transform="translate(484.02 71.76) rotate(180)"/><rect class="cls-5" x="236.13" y="34.3" width="0.37" height="3.15" transform="translate(472.63 71.76) rotate(180)"/><rect class="cls-4" x="239.91" y="39.68" width="2.29" height="3.15" transform="translate(482.1 82.51) rotate(180)"/><rect class="cls-5" x="241.83" y="39.68" width="0.37" height="3.15" transform="translate(484.02 82.51) rotate(180)"/><rect class="cls-4" x="234.21" y="39.68" width="2.29" height="3.15" transform="translate(470.71 82.51) rotate(180)"/><rect class="cls-5" x="236.13" y="39.68" width="0.37" height="3.15" transform="translate(472.63 82.51) rotate(180)"/><rect class="cls-4" x="228.35" y="29.11" width="2.29" height="3.15" transform="translate(458.98 61.37) rotate(180)"/><rect class="cls-5" x="230.27" y="29.11" width="0.37" height="3.15" transform="translate(460.9 61.37) rotate(180)"/><rect class="cls-5" x="224.57" y="29.11" width="0.37" height="3.15" transform="translate(449.51 61.37) rotate(180)"/><rect class="cls-5" x="230.27" y="34.3" width="0.37" height="3.15" transform="translate(460.9 71.76) rotate(180)"/><rect class="cls-4" x="222.65" y="34.3" width="2.29" height="3.15" transform="translate(447.59 71.76) rotate(180)"/><rect class="cls-5" x="224.57" y="34.3" width="0.37" height="3.15" transform="translate(449.51 71.76) rotate(180)"/><rect class="cls-5" x="230.27" y="39.68" width="0.37" height="3.15" transform="translate(460.9 82.51) rotate(180)"/><rect class="cls-4" x="222.65" y="39.68" width="2.29" height="3.15" transform="translate(447.59 82.51) rotate(180)"/><rect class="cls-5" x="224.57" y="39.68" width="0.37" height="3.15" transform="translate(449.51 82.51) rotate(180)"/><rect class="cls-5" x="218.96" y="29.11" width="0.37" height="3.15" transform="translate(438.28 61.37) rotate(180)"/><rect class="cls-4" x="217.04" y="34.3" width="2.29" height="3.15" transform="translate(436.36 71.76) rotate(180)"/><rect class="cls-5" x="218.96" y="34.3" width="0.37" height="3.15" transform="translate(438.28 71.76) rotate(180)"/><rect class="cls-5" x="218.96" y="39.68" width="0.37" height="3.15" transform="translate(438.28 82.51) rotate(180)"/><rect class="cls-3" x="120.54" y="37.71" width="12.38" height="1.97"/><rect class="cls-3" x="120.54" y="35.63" width="12.38" height="0.68"/><rect class="cls-3" x="131.44" y="36.78" width="2.29" height="0.68" transform="translate(169.7 -95.48) rotate(90)"/><rect class="cls-3" x="130.3" y="35.97" width="0.68" height="2.29"/><rect class="cls-3" x="128.35" y="35.97" width="0.68" height="2.29"/><rect class="cls-3" x="126.4" y="35.97" width="0.67" height="2.29"/><rect class="cls-3" x="124.45" y="35.97" width="0.67" height="2.29"/><rect class="cls-3" x="122.5" y="35.97" width="0.67" height="2.29"/><rect class="cls-3" x="119.74" y="36.78" width="2.29" height="0.68" transform="translate(158 -83.77) rotate(90)"/><rect class="cls-3" x="70.15" y="23.78" width="15.36" height="57.49"/><rect class="cls-4" x="72.84" y="26.99" width="2.29" height="7.62"/><rect class="cls-5" x="72.84" y="26.99" width="0.37" height="7.62"/><rect class="cls-4" x="78.54" y="26.99" width="2.29" height="7.62"/><rect class="cls-5" x="78.54" y="26.99" width="0.37" height="7.62"/><rect class="cls-4" x="72.84" y="39.54" width="2.29" height="7.62"/><rect class="cls-5" x="72.84" y="39.54" width="0.37" height="7.62"/><rect class="cls-4" x="78.54" y="39.54" width="2.29" height="7.62"/><rect class="cls-5" x="78.54" y="39.54" width="0.37" height="7.62"/><rect class="cls-4" x="72.84" y="52.52" width="2.29" height="7.62"/><rect class="cls-5" x="72.84" y="52.52" width="0.37" height="7.62"/><rect class="cls-4" x="78.54" y="52.52" width="2.29" height="7.62"/><rect class="cls-5" x="78.54" y="52.52" width="0.37" height="7.62"/><rect class="cls-3" width="15.36" height="33.19"/><rect class="cls-4" x="2.69" y="1.86" width="2.29" height="4.4"/><rect class="cls-5" x="2.69" y="1.86" width="0.37" height="4.4"/><rect class="cls-4" x="8.39" y="1.86" width="2.29" height="4.4"/><rect class="cls-5" x="8.39" y="1.86" width="0.37" height="4.4"/><rect class="cls-4" x="2.69" y="9.1" width="2.29" height="4.4"/><rect class="cls-5" x="2.69" y="9.1" width="0.37" height="4.4"/><rect class="cls-4" x="8.39" y="9.1" width="2.29" height="4.4"/><rect class="cls-5" x="8.39" y="9.1" width="0.37" height="4.4"/><rect class="cls-4" x="2.69" y="16.59" width="2.29" height="4.4"/><rect class="cls-5" x="2.69" y="16.59" width="0.37" height="4.4"/><rect class="cls-4" x="8.39" y="16.59" width="2.29" height="4.4"/><rect class="cls-5" x="8.39" y="16.59" width="0.37" height="4.4"/><rect class="cls-3" y="23.31" width="15.36" height="33.19"/><rect class="cls-4" x="2.69" y="25.17" width="2.29" height="4.4"/><rect class="cls-5" x="2.69" y="25.17" width="0.37" height="4.4"/><rect class="cls-4" x="8.39" y="25.17" width="2.29" height="4.4"/><rect class="cls-5" x="8.39" y="25.17" width="0.37" height="4.4"/><rect class="cls-4" x="2.69" y="32.41" width="2.29" height="4.4"/><rect class="cls-5" x="2.69" y="32.41" width="0.37" height="4.4"/><rect class="cls-4" x="8.39" y="32.41" width="2.29" height="4.4"/><rect class="cls-5" x="8.39" y="32.41" width="0.37" height="4.4"/><rect class="cls-4" x="2.69" y="39.91" width="2.29" height="4.4"/><rect class="cls-5" x="2.69" y="39.91" width="0.37" height="4.4"/><rect class="cls-4" x="8.39" y="39.91" width="2.29" height="4.4"/><rect class="cls-5" x="8.39" y="39.91" width="0.37" height="4.4"/><path class="cls-3" d="M97.89,23.78V81.26h29.26V23.78Zm4.34,9.33H99.94V27.65h2.29Zm5.7,9h-2.29V36.65h2.29Zm5.86,9.31H111.5V46h2.29Zm0-9.31H111.5V36.65h2.29Zm5.7-9h-2.3V27.65h2.3Zm5.61,18.32h-2.29V46h2.29Zm0-18.32h-2.29V27.65h2.29Z"/><rect class="cls-5" x="99.94" y="27.65" width="0.37" height="5.46"/><rect class="cls-4" x="105.64" y="27.65" width="2.29" height="5.46"/><rect class="cls-5" x="105.64" y="27.65" width="0.37" height="5.46"/><rect class="cls-4" x="99.94" y="36.65" width="2.29" height="5.46"/><rect class="cls-5" x="99.94" y="36.65" width="0.37" height="5.46"/><rect class="cls-5" x="105.64" y="36.65" width="0.37" height="5.46"/><rect class="cls-4" x="99.94" y="45.96" width="2.29" height="5.46"/><rect class="cls-5" x="99.94" y="45.96" width="0.37" height="5.46"/><rect class="cls-4" x="105.64" y="45.96" width="2.29" height="5.46"/><rect class="cls-5" x="105.64" y="45.96" width="0.37" height="5.46"/><rect class="cls-4" x="111.5" y="27.65" width="2.29" height="5.46"/><rect class="cls-5" x="111.5" y="27.65" width="0.37" height="5.46"/><rect class="cls-5" x="117.19" y="27.65" width="0.37" height="5.46"/><rect class="cls-5" x="111.5" y="36.65" width="0.37" height="5.46"/><rect class="cls-4" x="117.19" y="36.65" width="2.29" height="5.46"/><rect class="cls-5" x="117.19" y="36.65" width="0.37" height="5.46"/><rect class="cls-5" x="111.5" y="45.96" width="0.37" height="5.46"/><rect class="cls-4" x="117.19" y="45.96" width="2.29" height="5.46"/><rect class="cls-5" x="117.19" y="45.96" width="0.37" height="5.46"/><rect class="cls-5" x="122.81" y="27.65" width="0.37" height="5.46"/><rect class="cls-4" x="122.81" y="36.65" width="2.29" height="5.46"/><rect class="cls-5" x="122.81" y="36.65" width="0.37" height="5.46"/><rect class="cls-5" x="122.81" y="45.96" width="0.37" height="5.46"/><rect class="cls-3" x="209.41" y="26.87" width="15.36" height="33.19"/><rect class="cls-4" x="212.1" y="28.72" width="2.29" height="4.4"/><rect class="cls-5" x="212.1" y="28.72" width="0.37" height="4.4"/><rect class="cls-4" x="217.8" y="28.72" width="2.29" height="4.4"/><rect class="cls-5" x="217.8" y="28.72" width="0.37" height="4.4"/><rect class="cls-4" x="212.1" y="35.97" width="2.29" height="4.4"/><rect class="cls-5" x="212.1" y="35.97" width="0.37" height="4.4"/><rect class="cls-4" x="217.8" y="35.97" width="2.29" height="4.4"/><rect class="cls-5" x="217.8" y="35.97" width="0.37" height="4.4"/><rect class="cls-4" x="212.1" y="43.46" width="2.29" height="4.4"/><rect class="cls-5" x="212.1" y="43.46" width="0.37" height="4.4"/><rect class="cls-4" x="217.8" y="43.46" width="2.29" height="4.4"/><rect class="cls-5" x="217.8" y="43.46" width="0.37" height="4.4"/><rect class="cls-3" x="273.46" y="3.56" width="15.36" height="33.19"/><rect class="cls-4" x="276.16" y="5.41" width="2.29" height="4.4"/><rect class="cls-5" x="276.16" y="5.41" width="0.37" height="4.4"/><rect class="cls-4" x="281.85" y="5.41" width="2.29" height="4.4"/><rect class="cls-5" x="281.85" y="5.41" width="0.37" height="4.4"/><rect class="cls-4" x="276.16" y="12.66" width="2.29" height="4.4"/><rect class="cls-5" x="276.16" y="12.66" width="0.37" height="4.4"/><rect class="cls-4" x="281.85" y="12.66" width="2.29" height="4.4"/><rect class="cls-5" x="281.85" y="12.66" width="0.37" height="4.4"/><rect class="cls-4" x="276.16" y="20.15" width="2.29" height="4.4"/><rect class="cls-5" x="276.16" y="20.15" width="0.37" height="4.4"/><rect class="cls-4" x="281.85" y="20.15" width="2.29" height="4.4"/><rect class="cls-5" x="281.85" y="20.15" width="0.37" height="4.4"/><rect class="cls-3" x="273.46" y="26.87" width="15.36" height="33.19"/><rect class="cls-4" x="276.16" y="28.72" width="2.29" height="4.4"/><rect class="cls-5" x="276.16" y="28.72" width="0.37" height="4.4"/><rect class="cls-4" x="281.85" y="28.72" width="2.29" height="4.4"/><rect class="cls-5" x="281.85" y="28.72" width="0.37" height="4.4"/><rect class="cls-4" x="276.16" y="35.97" width="2.29" height="4.4"/><rect class="cls-5" x="276.16" y="35.97" width="0.37" height="4.4"/><rect class="cls-4" x="281.85" y="35.97" width="2.29" height="4.4"/><rect class="cls-5" x="281.85" y="35.97" width="0.37" height="4.4"/><rect class="cls-4" x="276.16" y="43.46" width="2.29" height="4.4"/><rect class="cls-5" x="276.16" y="43.46" width="0.37" height="4.4"/><rect class="cls-4" x="281.85" y="43.46" width="2.29" height="4.4"/><rect class="cls-5" x="281.85" y="43.46" width="0.37" height="4.4"/><path class="cls-3" d="M237.15,26.87V60.06h29.26V26.87Zm4.34,5.39H239.2V29.11h2.29Zm5.7,5.2h-2.3V34.3h2.3Zm5.86,5.37h-2.29V39.68h2.29Zm0-5.37h-2.29V34.3h2.29Zm5.69-5.2h-2.29V29.11h2.29Zm5.62,10.57h-2.29V39.68h2.29Zm0-10.57h-2.29V29.11h2.29Z"/><rect class="cls-5" x="239.2" y="29.11" width="0.37" height="3.15"/><rect class="cls-4" x="244.89" y="29.11" width="2.29" height="3.15"/><rect class="cls-5" x="244.89" y="29.11" width="0.37" height="3.15"/><rect class="cls-4" x="239.2" y="34.3" width="2.29" height="3.15"/><rect class="cls-5" x="239.2" y="34.3" width="0.37" height="3.15"/><rect class="cls-5" x="244.89" y="34.3" width="0.37" height="3.15"/><rect class="cls-4" x="239.2" y="39.68" width="2.29" height="3.15"/><rect class="cls-5" x="239.2" y="39.68" width="0.37" height="3.15"/><rect class="cls-4" x="244.89" y="39.68" width="2.29" height="3.15"/><rect class="cls-5" x="244.89" y="39.68" width="0.37" height="3.15"/><rect class="cls-4" x="250.76" y="29.11" width="2.29" height="3.15"/><rect class="cls-5" x="250.76" y="29.11" width="0.37" height="3.15"/><rect class="cls-5" x="256.45" y="29.11" width="0.37" height="3.15"/><rect class="cls-5" x="250.76" y="34.3" width="0.37" height="3.15"/><rect class="cls-4" x="256.45" y="34.3" width="2.29" height="3.15"/><rect class="cls-5" x="256.45" y="34.3" width="0.37" height="3.15"/><rect class="cls-5" x="250.76" y="39.68" width="0.37" height="3.15"/><rect class="cls-4" x="256.45" y="39.68" width="2.29" height="3.15"/><rect class="cls-5" x="256.45" y="39.68" width="0.37" height="3.15"/><rect class="cls-5" x="262.07" y="29.11" width="0.37" height="3.15"/><rect class="cls-4" x="262.07" y="34.3" width="2.29" height="3.15"/><rect class="cls-5" x="262.07" y="34.3" width="0.37" height="3.15"/><rect class="cls-5" x="262.07" y="39.68" width="0.37" height="3.15"/><rect class="cls-3" x="224.77" y="37.71" width="12.38" height="1.97"/><rect class="cls-3" x="224.77" y="35.63" width="12.38" height="0.68"/><rect class="cls-3" x="235.67" y="36.78" width="2.29" height="0.68" transform="translate(273.93 -199.7) rotate(90)"/><rect class="cls-3" x="234.52" y="35.97" width="0.68" height="2.29"/><rect class="cls-3" x="232.57" y="35.97" width="0.68" height="2.29"/><rect class="cls-3" x="230.62" y="35.97" width="0.68" height="2.29"/><rect class="cls-3" x="228.67" y="35.97" width="0.67" height="2.29"/><rect class="cls-3" x="226.72" y="35.97" width="0.67" height="2.29"/><rect class="cls-3" x="223.96" y="36.78" width="2.29" height="0.68" transform="translate(262.22 -187.99) rotate(90)"/><path class="cls-3" d="M202.11,23.58V56.77h29.26V23.58ZM206.45,29h-2.29V25.82h2.29Zm5.7,5.2h-2.29V31h2.29ZM218,39.54h-2.29V36.39H218Zm0-5.37h-2.29V31H218Zm5.7-5.2h-2.29V25.82h2.29Zm5.61,10.57H227V36.39h2.29Zm0-10.57H227V25.82h2.29Z"/><rect class="cls-5" x="204.16" y="25.82" width="0.37" height="3.15"/><rect class="cls-4" x="209.86" y="25.82" width="2.29" height="3.15"/><rect class="cls-5" x="209.86" y="25.82" width="0.37" height="3.15"/><rect class="cls-4" x="204.16" y="31.01" width="2.29" height="3.15"/><rect class="cls-5" x="204.16" y="31.01" width="0.37" height="3.15"/><rect class="cls-5" x="209.86" y="31.01" width="0.37" height="3.15"/><rect class="cls-4" x="204.16" y="36.39" width="2.29" height="3.15"/><rect class="cls-5" x="204.16" y="36.39" width="0.37" height="3.15"/><rect class="cls-4" x="209.86" y="36.39" width="2.29" height="3.15"/><rect class="cls-5" x="209.86" y="36.39" width="0.37" height="3.15"/><rect class="cls-4" x="215.72" y="25.82" width="2.29" height="3.15"/><rect class="cls-5" x="215.72" y="25.82" width="0.37" height="3.15"/><rect class="cls-5" x="221.42" y="25.82" width="0.37" height="3.15"/><rect class="cls-5" x="215.72" y="31.01" width="0.37" height="3.15"/><rect class="cls-4" x="221.42" y="31.01" width="2.29" height="3.15"/><rect class="cls-5" x="221.42" y="31.01" width="0.37" height="3.15"/><rect class="cls-5" x="215.72" y="36.39" width="0.37" height="3.15"/><rect class="cls-4" x="221.42" y="36.39" width="2.29" height="3.15"/><rect class="cls-5" x="221.42" y="36.39" width="0.37" height="3.15"/><rect class="cls-5" x="227.03" y="25.82" width="0.37" height="3.15"/><rect class="cls-4" x="227.03" y="31.01" width="2.29" height="3.15"/><rect class="cls-5" x="227.03" y="31.01" width="0.37" height="3.15"/><rect class="cls-5" x="227.03" y="36.39" width="0.37" height="3.15"/><path class="cls-3" d="M45.75,23.31V80.8H75V23.31Zm24.91,3.88H73v5.46h-2.3Zm-5.69,9h2.29v5.46H65ZM59.11,45.5H61.4V51H59.11Zm0-9.31H61.4v5.46H59.11Zm-5.7-9H55.7v5.46H53.41ZM47.79,45.5h2.3V51h-2.3Zm0-18.31h2.3v5.46h-2.3Z"/><rect class="cls-5" x="72.58" y="27.19" width="0.37" height="5.46" transform="translate(145.54 59.84) rotate(180)"/><rect class="cls-4" x="64.97" y="27.19" width="2.29" height="5.46" transform="translate(132.23 59.84) rotate(180)"/><rect class="cls-5" x="66.89" y="27.19" width="0.37" height="5.46" transform="translate(134.15 59.84) rotate(180)"/><rect class="cls-4" x="70.66" y="36.19" width="2.29" height="5.46" transform="translate(143.62 77.84) rotate(180)"/><rect class="cls-5" x="72.58" y="36.19" width="0.37" height="5.46" transform="translate(145.54 77.84) rotate(180)"/><rect class="cls-5" x="66.89" y="36.19" width="0.37" height="5.46" transform="translate(134.15 77.84) rotate(180)"/><rect class="cls-4" x="70.66" y="45.5" width="2.29" height="5.46" transform="translate(143.62 96.47) rotate(180)"/><rect class="cls-5" x="72.58" y="45.5" width="0.37" height="5.46" transform="translate(145.54 96.47) rotate(180)"/><rect class="cls-4" x="64.97" y="45.5" width="2.29" height="5.46" transform="translate(132.23 96.47) rotate(180)"/><rect class="cls-5" x="66.89" y="45.5" width="0.37" height="5.46" transform="translate(134.15 96.47) rotate(180)"/><rect class="cls-4" x="59.11" y="27.19" width="2.29" height="5.46" transform="translate(120.5 59.84) rotate(180)"/><rect class="cls-5" x="61.03" y="27.19" width="0.37" height="5.46" transform="translate(122.42 59.84) rotate(180)"/><rect class="cls-5" x="55.33" y="27.19" width="0.37" height="5.46" transform="translate(111.03 59.84) rotate(180)"/><rect class="cls-5" x="61.03" y="36.19" width="0.37" height="5.46" transform="translate(122.42 77.84) rotate(180)"/><rect class="cls-4" x="53.41" y="36.19" width="2.29" height="5.46" transform="translate(109.11 77.84) rotate(180)"/><rect class="cls-5" x="55.33" y="36.19" width="0.37" height="5.46" transform="translate(111.03 77.84) rotate(180)"/><rect class="cls-5" x="61.03" y="45.5" width="0.37" height="5.46" transform="translate(122.42 96.47) rotate(180)"/><rect class="cls-4" x="53.41" y="45.5" width="2.29" height="5.46" transform="translate(109.11 96.47) rotate(180)"/><rect class="cls-5" x="55.33" y="45.5" width="0.37" height="5.46" transform="translate(111.03 96.47) rotate(180)"/><rect class="cls-5" x="49.71" y="27.19" width="0.37" height="5.46" transform="translate(99.8 59.84) rotate(180)"/><rect class="cls-4" x="47.79" y="36.19" width="2.29" height="5.46" transform="translate(97.88 77.84) rotate(180)"/><rect class="cls-5" x="49.71" y="36.19" width="0.37" height="5.46" transform="translate(99.8 77.84) rotate(180)"/><rect class="cls-5" x="49.71" y="45.5" width="0.37" height="5.46" transform="translate(99.8 96.47) rotate(180)"/><rect class="cls-3" x="85.51" y="34.42" width="12.38" height="1.97"/><rect class="cls-3" x="85.51" y="32.34" width="12.38" height="0.68"/><rect class="cls-3" x="96.41" y="33.49" width="2.29" height="0.68" transform="translate(131.38 -63.73) rotate(90)"/><rect class="cls-3" x="95.26" y="32.68" width="0.68" height="2.29"/><rect class="cls-3" x="93.31" y="32.68" width="0.68" height="2.29"/><rect class="cls-3" x="91.36" y="32.68" width="0.68" height="2.29"/><rect class="cls-3" x="89.41" y="32.68" width="0.67" height="2.29"/><rect class="cls-3" x="87.46" y="32.68" width="0.68" height="2.29"/><rect class="cls-3" x="84.7" y="33.49" width="2.29" height="0.68" transform="translate(119.67 -52.02) rotate(90)"/><rect class="cls-3" x="105.19" y="112.57" width="15.36" height="33.19"/><rect class="cls-4" x="107.88" y="114.43" width="2.29" height="4.4"/><rect class="cls-5" x="107.88" y="114.43" width="0.37" height="4.4"/><rect class="cls-4" x="113.58" y="114.43" width="2.29" height="4.4"/><rect class="cls-5" x="113.58" y="114.43" width="0.37" height="4.4"/><rect class="cls-4" x="107.88" y="121.67" width="2.29" height="4.4"/><rect class="cls-5" x="107.88" y="121.67" width="0.37" height="4.4"/><rect class="cls-4" x="113.58" y="121.67" width="2.29" height="4.4"/><rect class="cls-5" x="113.58" y="121.67" width="0.37" height="4.4"/><rect class="cls-4" x="107.88" y="129.17" width="2.29" height="4.4"/><rect class="cls-5" x="107.88" y="129.17" width="0.37" height="4.4"/><rect class="cls-4" x="113.58" y="129.17" width="2.29" height="4.4"/><rect class="cls-5" x="113.58" y="129.17" width="0.37" height="4.4"/><rect class="cls-3" x="70.15" y="109.28" width="15.36" height="33.19"/><rect class="cls-4" x="72.84" y="111.14" width="2.29" height="4.4"/><rect class="cls-5" x="72.84" y="111.14" width="0.37" height="4.4"/><rect class="cls-4" x="78.54" y="111.14" width="2.29" height="4.4"/><rect class="cls-5" x="78.54" y="111.14" width="0.37" height="4.4"/><rect class="cls-4" x="72.84" y="118.38" width="2.29" height="4.4"/><rect class="cls-5" x="72.84" y="118.38" width="0.37" height="4.4"/><rect class="cls-4" x="78.54" y="118.38" width="2.29" height="4.4"/><rect class="cls-5" x="78.54" y="118.38" width="0.37" height="4.4"/><rect class="cls-4" x="72.84" y="125.88" width="2.29" height="4.4"/><rect class="cls-5" x="72.84" y="125.88" width="0.37" height="4.4"/><rect class="cls-4" x="78.54" y="125.88" width="2.29" height="4.4"/><rect class="cls-5" x="78.54" y="125.88" width="0.37" height="4.4"/><rect class="cls-3" y="85.7" width="15.36" height="33.19"/><rect class="cls-4" x="2.69" y="87.56" width="2.29" height="4.4"/><rect class="cls-5" x="2.69" y="87.56" width="0.37" height="4.4"/><rect class="cls-4" x="8.39" y="87.56" width="2.29" height="4.4"/><rect class="cls-5" x="8.39" y="87.56" width="0.37" height="4.4"/><rect class="cls-4" x="2.69" y="94.8" width="2.29" height="4.4"/><rect class="cls-5" x="2.69" y="94.8" width="0.37" height="4.4"/><rect class="cls-4" x="8.39" y="94.8" width="2.29" height="4.4"/><rect class="cls-5" x="8.39" y="94.8" width="0.37" height="4.4"/><rect class="cls-4" x="2.69" y="102.3" width="2.29" height="4.4"/><rect class="cls-5" x="2.69" y="102.3" width="0.37" height="4.4"/><rect class="cls-4" x="8.39" y="102.3" width="2.29" height="4.4"/><rect class="cls-5" x="8.39" y="102.3" width="0.37" height="4.4"/><rect class="cls-3" y="109.02" width="15.36" height="33.19"/><rect class="cls-4" x="2.69" y="110.87" width="2.29" height="4.4"/><rect class="cls-5" x="2.69" y="110.87" width="0.37" height="4.4"/><rect class="cls-4" x="8.39" y="110.87" width="2.29" height="4.4"/><rect class="cls-5" x="8.39" y="110.87" width="0.37" height="4.4"/><rect class="cls-4" x="2.69" y="118.12" width="2.29" height="4.4"/><rect class="cls-5" x="2.69" y="118.12" width="0.37" height="4.4"/><rect class="cls-4" x="8.39" y="118.12" width="2.29" height="4.4"/><rect class="cls-5" x="8.39" y="118.12" width="0.37" height="4.4"/><rect class="cls-4" x="2.69" y="125.61" width="2.29" height="4.4"/><rect class="cls-5" x="2.69" y="125.61" width="0.37" height="4.4"/><rect class="cls-4" x="8.39" y="125.61" width="2.29" height="4.4"/><rect class="cls-5" x="8.39" y="125.61" width="0.37" height="4.4"/><path class="cls-3" d="M97.89,109.28v33.19h29.26V109.28Zm4.34,5.39H99.94v-3.15h2.29Zm5.7,5.2h-2.29v-3.15h2.29Zm5.86,5.38H111.5v-3.16h2.29Zm0-5.38H111.5v-3.15h2.29Zm5.7-5.2h-2.3v-3.15h2.3Zm5.61,10.58h-2.29v-3.16h2.29Zm0-10.58h-2.29v-3.15h2.29Z"/><rect class="cls-5" x="99.94" y="111.52" width="0.37" height="3.15"/><rect class="cls-4" x="105.64" y="111.52" width="2.29" height="3.15"/><rect class="cls-5" x="105.64" y="111.52" width="0.37" height="3.15"/><rect class="cls-4" x="99.94" y="116.72" width="2.29" height="3.15"/><rect class="cls-5" x="99.94" y="116.72" width="0.37" height="3.15"/><rect class="cls-5" x="105.64" y="116.72" width="0.37" height="3.15"/><rect class="cls-4" x="99.94" y="122.09" width="2.29" height="3.15"/><rect class="cls-5" x="99.94" y="122.09" width="0.37" height="3.15"/><rect class="cls-4" x="105.64" y="122.09" width="2.29" height="3.15"/><rect class="cls-5" x="105.64" y="122.09" width="0.37" height="3.15"/><rect class="cls-4" x="111.5" y="111.52" width="2.29" height="3.15"/><rect class="cls-5" x="111.5" y="111.52" width="0.37" height="3.15"/><rect class="cls-5" x="117.19" y="111.52" width="0.37" height="3.15"/><rect class="cls-5" x="111.5" y="116.72" width="0.37" height="3.15"/><rect class="cls-4" x="117.19" y="116.72" width="2.29" height="3.15"/><rect class="cls-5" x="117.19" y="116.72" width="0.37" height="3.15"/><rect class="cls-5" x="111.5" y="122.09" width="0.37" height="3.15"/><rect class="cls-4" x="117.19" y="122.09" width="2.29" height="3.15"/><rect class="cls-5" x="117.19" y="122.09" width="0.37" height="3.15"/><rect class="cls-5" x="122.81" y="111.52" width="0.37" height="3.15"/><rect class="cls-4" x="122.81" y="116.72" width="2.29" height="3.15"/><rect class="cls-5" x="122.81" y="116.72" width="0.37" height="3.15"/><rect class="cls-5" x="122.81" y="122.09" width="0.37" height="3.15"/><path class="cls-3" d="M45.75,109v33.19H75V109Zm24.91,2.23H73v3.16h-2.3ZM65,116.45h2.29v3.16H65Zm-5.86,5.38H61.4V125H59.11Zm0-5.38H61.4v3.16H59.11Zm-5.7-5.2H55.7v3.16H53.41Zm-5.62,10.58h2.3V125h-2.3Zm0-10.58h2.3v3.16h-2.3Z"/><rect class="cls-5" x="72.58" y="111.25" width="0.37" height="3.15" transform="translate(145.54 225.66) rotate(180)"/><rect class="cls-4" x="64.97" y="111.25" width="2.29" height="3.15" transform="translate(132.23 225.66) rotate(180)"/><rect class="cls-5" x="66.89" y="111.25" width="0.37" height="3.15" transform="translate(134.15 225.66) rotate(180)"/><rect class="cls-4" x="70.66" y="116.45" width="2.29" height="3.15" transform="translate(143.62 236.06) rotate(180)"/><rect class="cls-5" x="72.58" y="116.45" width="0.37" height="3.15" transform="translate(145.54 236.06) rotate(180)"/><rect class="cls-5" x="66.89" y="116.45" width="0.37" height="3.15" transform="translate(134.15 236.06) rotate(180)"/><rect class="cls-4" x="70.66" y="121.83" width="2.29" height="3.15" transform="translate(143.62 246.81) rotate(180)"/><rect class="cls-5" x="72.58" y="121.83" width="0.37" height="3.15" transform="translate(145.54 246.81) rotate(180)"/><rect class="cls-4" x="64.97" y="121.83" width="2.29" height="3.15" transform="translate(132.23 246.81) rotate(180)"/><rect class="cls-5" x="66.89" y="121.83" width="0.37" height="3.15" transform="translate(134.15 246.81) rotate(180)"/><rect class="cls-4" x="59.11" y="111.25" width="2.29" height="3.15" transform="translate(120.5 225.66) rotate(180)"/><rect class="cls-5" x="61.03" y="111.25" width="0.37" height="3.15" transform="translate(122.42 225.66) rotate(180)"/><rect class="cls-5" x="55.33" y="111.25" width="0.37" height="3.15" transform="translate(111.03 225.66) rotate(180)"/><rect class="cls-5" x="61.03" y="116.45" width="0.37" height="3.15" transform="translate(122.42 236.06) rotate(180)"/><rect class="cls-4" x="53.41" y="116.45" width="2.29" height="3.15" transform="translate(109.11 236.06) rotate(180)"/><rect class="cls-5" x="55.33" y="116.45" width="0.37" height="3.15" transform="translate(111.03 236.06) rotate(180)"/><rect class="cls-5" x="61.03" y="121.83" width="0.37" height="3.15" transform="translate(122.42 246.81) rotate(180)"/><rect class="cls-4" x="53.41" y="121.83" width="2.29" height="3.15" transform="translate(109.11 246.81) rotate(180)"/><rect class="cls-5" x="55.33" y="121.83" width="0.37" height="3.15" transform="translate(111.03 246.81) rotate(180)"/><rect class="cls-5" x="49.71" y="111.25" width="0.37" height="3.15" transform="translate(99.8 225.66) rotate(180)"/><rect class="cls-4" x="47.79" y="116.45" width="2.29" height="3.15" transform="translate(97.88 236.06) rotate(180)"/><rect class="cls-5" x="49.71" y="116.45" width="0.37" height="3.15" transform="translate(99.8 236.06) rotate(180)"/><rect class="cls-5" x="49.71" y="121.83" width="0.37" height="3.15" transform="translate(99.8 246.81) rotate(180)"/><rect class="cls-3" x="85.51" y="120.12" width="12.38" height="1.97"/><rect class="cls-3" x="85.51" y="118.05" width="12.38" height="0.67"/><rect class="cls-3" x="96.41" y="119.19" width="2.29" height="0.68" transform="translate(217.08 21.98) rotate(90)"/><rect class="cls-3" x="95.26" y="118.38" width="0.68" height="2.29"/><rect class="cls-3" x="93.31" y="118.38" width="0.68" height="2.29"/><rect class="cls-3" x="91.36" y="118.38" width="0.68" height="2.29"/><rect class="cls-3" x="89.41" y="118.38" width="0.67" height="2.29"/><rect class="cls-3" x="87.46" y="118.38" width="0.68" height="2.29"/><rect class="cls-3" x="84.7" y="119.19" width="2.29" height="0.68" transform="translate(205.37 33.68) rotate(90)"/></g></g></svg>