<svg xmlns="http://www.w3.org/2000/svg" viewBox="0 0 363.45 182.23"><defs><style>.cls-1{fill:#c18f9a;}.cls-2{fill:#a4757d;}.cls-3{fill:#a06572;}.cls-4{fill:#ab857f;}.cls-5{fill:#c1272d;}.cls-6{fill:#fff;}</style></defs><g id="Layer_2" data-name="Layer 2"><g id="L8"><rect class="cls-1" x="162.48" y="26.07" width="0.3" height="2.52"/><rect class="cls-1" x="167.04" y="26.07" width="0.3" height="2.52"/><rect class="cls-1" x="162.48" y="30.23" width="0.3" height="2.52"/><rect class="cls-1" x="167.04" y="30.23" width="0.3" height="2.52"/><rect class="cls-1" x="162.48" y="34.52" width="0.3" height="2.52"/><rect class="cls-1" x="167.04" y="34.52" width="0.3" height="2.52"/><rect class="cls-1" x="171.72" y="26.07" width="0.3" height="2.52"/><rect class="cls-1" x="176.27" y="26.07" width="0.3" height="2.52"/><rect class="cls-1" x="171.72" y="30.23" width="0.3" height="2.52"/><rect class="cls-1" x="176.27" y="30.23" width="0.3" height="2.52"/><rect class="cls-1" x="171.72" y="34.52" width="0.3" height="2.52"/><rect class="cls-1" x="176.27" y="34.52" width="0.3" height="2.52"/><rect class="cls-1" x="180.76" y="26.07" width="0.3" height="2.52"/><path class="cls-1" d="M160.85,24.29V50.8h23.38V24.29ZM164.32,37h-1.84V34.52h1.84Zm0-4.29h-1.84V30.23h1.84Zm0-4.16h-1.84V26.07h1.84ZM168.87,37H167V34.52h1.83Zm0-4.29H167V30.23h1.83Zm0-4.16H167V26.07h1.83ZM173.55,37h-1.83V34.52h1.83Zm0-4.29h-1.83V30.23h1.83Zm0-4.16h-1.83V26.07h1.83ZM178.1,37h-1.83V34.52h1.83Zm0-4.29h-1.83V30.23h1.83Zm0-4.16h-1.83V26.07h1.83ZM182.59,37h-1.83V34.52h1.83Zm0-4.29h-1.83V30.23h1.83Zm0-4.16h-1.83V26.07h1.83Z"/><rect class="cls-1" x="180.76" y="30.23" width="0.3" height="2.52"/><rect class="cls-1" x="180.76" y="34.52" width="0.3" height="2.52"/><rect class="cls-1" x="134.39" y="48.86" width="14.66" height="27.8"/><rect class="cls-1" x="199.39" y="48.86" width="14.66" height="27.8"/><rect class="cls-1" x="222.33" y="48.86" width="14.66" height="27.8"/><rect class="cls-1" x="169.24" y="48.86" width="14.99" height="27.8"/><path class="cls-1" d="M134.39,30.33V49.52h14.66V30.33Zm2.38,9.94h-1.16v-1.6h1.16Zm0-2.72h-1.16V36h1.16Zm0-2.64h-1.16v-1.6h1.16ZM139,40.27h-1.16v-1.6H139Zm0-2.72h-1.16V36H139Zm0-2.64h-1.16v-1.6H139Zm2,5.36h-1.16v-1.6H141Zm0-2.72h-1.16V36H141Zm0-2.64h-1.16v-1.6H141Zm2.26,5.36h-1.16v-1.6h1.16Zm0-2.72h-1.16V36h1.16Zm0-2.64h-1.16v-1.6h1.16Zm2.33,5.36h-1.16v-1.6h1.16Zm0-2.72h-1.16V36h1.16Zm0-2.64h-1.16v-1.6h1.16Zm2.26,5.36h-1.16v-1.6h1.16Zm0-2.72h-1.16V36h1.16Zm0-2.64h-1.16v-1.6h1.16Z"/><path class="cls-1" d="M199.39,31.23v19.2h14.66V31.23Zm2.38,10h-1.16v-1.6h1.16Zm0-2.73h-1.16v-1.6h1.16Zm0-2.63h-1.16v-1.6h1.16ZM204,41.18h-1.16v-1.6H204Zm0-2.73h-1.16v-1.6H204Zm0-2.63h-1.16v-1.6H204Zm2,5.36h-1.16v-1.6H206Zm0-2.73h-1.16v-1.6H206Zm0-2.63h-1.16v-1.6H206Zm2.26,5.36h-1.16v-1.6h1.16Zm0-2.73h-1.16v-1.6h1.16Zm0-2.63h-1.16v-1.6h1.16Zm2.33,5.36h-1.16v-1.6h1.16Zm0-2.73h-1.16v-1.6h1.16Zm0-2.63h-1.16v-1.6h1.16Zm2.26,5.36h-1.16v-1.6h1.16Zm0-2.73h-1.16v-1.6h1.16Zm0-2.63h-1.16v-1.6h1.16Z"/><path class="cls-1" d="M222.33,31.23v19.2H237V31.23Zm2.38,10h-1.16v-1.6h1.16Zm0-2.73h-1.16v-1.6h1.16Zm0-2.63h-1.16v-1.6h1.16ZM227,41.18h-1.16v-1.6H227Zm0-2.73h-1.16v-1.6H227Zm0-2.63h-1.16v-1.6H227Zm2,5.36h-1.16v-1.6H229Zm0-2.73h-1.16v-1.6H229Zm0-2.63h-1.16v-1.6H229Zm2.26,5.36h-1.16v-1.6h1.16Zm0-2.73h-1.16v-1.6h1.16Zm0-2.63h-1.16v-1.6h1.16Zm2.33,5.36h-1.16v-1.6h1.16Zm0-2.73h-1.16v-1.6h1.16Zm0-2.63h-1.16v-1.6h1.16Zm2.26,5.36h-1.16v-1.6h1.16Zm0-2.73h-1.16v-1.6h1.16Zm0-2.63h-1.16v-1.6h1.16Z"/><rect class="cls-1" x="148.11" y="40.83" width="8.28" height="1.32"/><rect class="cls-1" x="148.11" y="39.44" width="8.28" height="0.45"/><rect class="cls-1" x="155.4" y="40.21" width="1.53" height="0.45" transform="translate(196.6 -115.74) rotate(90)"/><rect class="cls-1" x="154.64" y="39.67" width="0.45" height="1.53"/><rect class="cls-1" x="153.33" y="39.67" width="0.45" height="1.53"/><rect class="cls-1" x="152.03" y="39.67" width="0.45" height="1.53"/><rect class="cls-1" x="150.72" y="39.67" width="0.45" height="1.53"/><rect class="cls-1" x="149.42" y="39.67" width="0.45" height="1.53"/><rect class="cls-1" x="147.57" y="40.21" width="1.53" height="0.45" transform="translate(188.77 -107.9) rotate(90)"/><rect class="cls-1" x="155.94" y="40.83" width="8.28" height="1.32"/><rect class="cls-1" x="155.94" y="39.44" width="8.28" height="0.45"/><rect class="cls-1" x="163.23" y="40.21" width="1.53" height="0.45" transform="translate(204.43 -123.57) rotate(90)"/><rect class="cls-1" x="162.47" y="39.67" width="0.45" height="1.53"/><rect class="cls-1" x="161.16" y="39.67" width="0.45" height="1.53"/><rect class="cls-1" x="159.86" y="39.67" width="0.45" height="1.53"/><rect class="cls-1" x="158.55" y="39.67" width="0.45" height="1.53"/><rect class="cls-1" x="157.25" y="39.67" width="0.45" height="1.53"/><rect class="cls-1" x="155.4" y="40.21" width="1.53" height="0.45" transform="translate(196.6 -115.74) rotate(90)"/><rect class="cls-1" x="137.92" y="30.36" width="8.28" height="1.32"/><rect class="cls-1" x="137.92" y="28.98" width="8.28" height="0.45"/><rect class="cls-1" x="145.21" y="29.74" width="1.53" height="0.45" transform="translate(175.94 -116.01) rotate(90)"/><rect class="cls-1" x="144.44" y="29.2" width="0.45" height="1.53"/><rect class="cls-1" x="143.14" y="29.2" width="0.45" height="1.53"/><rect class="cls-1" x="141.83" y="29.2" width="0.45" height="1.53"/><rect class="cls-1" x="140.53" y="29.2" width="0.45" height="1.53"/><rect class="cls-1" x="139.22" y="29.2" width="0.45" height="1.53"/><rect class="cls-1" x="137.38" y="29.74" width="1.53" height="0.45" transform="translate(168.11 -108.18) rotate(90)"/><rect class="cls-1" x="214.05" y="34.59" width="8.28" height="1.32"/><rect class="cls-1" x="214.05" y="33.2" width="8.28" height="0.45"/><rect class="cls-1" x="221.34" y="33.97" width="1.53" height="0.45" transform="translate(256.3 -187.91) rotate(90)"/><rect class="cls-1" x="220.58" y="33.43" width="0.45" height="1.53"/><rect class="cls-1" x="219.27" y="33.43" width="0.45" height="1.53"/><rect class="cls-1" x="217.96" y="33.43" width="0.45" height="1.53"/><rect class="cls-1" x="216.66" y="33.43" width="0.45" height="1.53"/><rect class="cls-1" x="215.35" y="33.43" width="0.45" height="1.53"/><rect class="cls-1" x="213.51" y="33.97" width="1.53" height="0.45" transform="translate(248.47 -180.08) rotate(90)"/><rect class="cls-1" x="214.05" y="39.35" width="8.28" height="1.32"/><rect class="cls-1" x="214.05" y="37.96" width="8.28" height="0.45"/><rect class="cls-1" x="221.34" y="38.73" width="1.53" height="0.45" transform="translate(261.06 -183.15) rotate(90)"/><rect class="cls-1" x="220.58" y="38.19" width="0.45" height="1.53"/><rect class="cls-1" x="219.27" y="38.19" width="0.45" height="1.53"/><rect class="cls-1" x="217.96" y="38.19" width="0.45" height="1.53"/><rect class="cls-1" x="216.66" y="38.19" width="0.45" height="1.53"/><rect class="cls-1" x="215.35" y="38.19" width="0.45" height="1.53"/><rect class="cls-1" x="213.51" y="38.73" width="1.53" height="0.45" transform="translate(253.23 -175.32) rotate(90)"/><rect class="cls-1" x="214.05" y="44.19" width="8.28" height="1.32"/><rect class="cls-1" x="214.05" y="42.8" width="8.28" height="0.45"/><rect class="cls-1" x="221.34" y="43.56" width="1.53" height="0.45" transform="translate(265.9 -178.32) rotate(90)"/><rect class="cls-1" x="220.58" y="43.02" width="0.45" height="1.53"/><rect class="cls-1" x="219.27" y="43.02" width="0.45" height="1.53"/><rect class="cls-1" x="217.96" y="43.02" width="0.45" height="1.53"/><rect class="cls-1" x="216.66" y="43.02" width="0.45" height="1.53"/><rect class="cls-1" x="215.35" y="43.02" width="0.45" height="1.53"/><rect class="cls-1" x="213.51" y="43.56" width="1.53" height="0.45" transform="translate(258.07 -170.48) rotate(90)"/><rect class="cls-1" x="127.45" y="22.78" width="0.3" height="2.52"/><rect class="cls-1" x="132" y="22.78" width="0.3" height="2.52"/><rect class="cls-1" x="127.45" y="26.94" width="0.3" height="2.52"/><rect class="cls-1" x="132" y="26.94" width="0.3" height="2.52"/><rect class="cls-1" x="127.45" y="31.23" width="0.3" height="2.52"/><rect class="cls-1" x="132" y="31.23" width="0.3" height="2.52"/><rect class="cls-1" x="136.68" y="22.78" width="0.3" height="2.52"/><rect class="cls-1" x="141.24" y="22.78" width="0.3" height="2.52"/><rect class="cls-1" x="136.68" y="26.94" width="0.3" height="2.52"/><rect class="cls-1" x="141.24" y="26.94" width="0.3" height="2.52"/><rect class="cls-1" x="136.68" y="31.23" width="0.3" height="2.52"/><rect class="cls-1" x="141.24" y="31.23" width="0.3" height="2.52"/><rect class="cls-1" x="145.72" y="22.78" width="0.3" height="2.52"/><path class="cls-1" d="M125.81,21V47.52h23.38V21Zm3.47,12.75h-1.83V31.23h1.83Zm0-4.29h-1.83V26.94h1.83Zm0-4.16h-1.83V22.78h1.83Zm4.55,8.45H132V31.23h1.83Zm0-4.29H132V26.94h1.83Zm0-4.16H132V22.78h1.83Zm4.68,8.45h-1.83V31.23h1.83Zm0-4.29h-1.83V26.94h1.83Zm0-4.16h-1.83V22.78h1.83Zm4.56,8.45h-1.83V31.23h1.83Zm0-4.29h-1.83V26.94h1.83Zm0-4.16h-1.83V22.78h1.83Zm4.48,8.45h-1.83V31.23h1.83Zm0-4.29h-1.83V26.94h1.83Zm0-4.16h-1.83V22.78h1.83Z"/><rect class="cls-1" x="145.72" y="26.94" width="0.3" height="2.52"/><rect class="cls-1" x="145.72" y="31.23" width="0.3" height="2.52"/><rect class="cls-1" x="30.15" y="45.3" width="14.66" height="27.8"/><rect class="cls-1" x="53.09" y="45.3" width="14.66" height="27.8"/><rect class="cls-1" y="45.3" width="14.99" height="27.8"/><path class="cls-1" d="M30.15,27.68V46.87H44.81V27.68Zm2.38,9.94H31.37V36h1.16Zm0-2.72H31.37V33.3h1.16Zm0-2.64H31.37v-1.6h1.16Zm2.26,5.36H33.63V36h1.16Zm0-2.72H33.63V33.3h1.16Zm0-2.64H33.63v-1.6h1.16Zm2,5.36H35.64V36H36.8Zm0-2.72H35.64V33.3H36.8Zm0-2.64H35.64v-1.6H36.8Zm2.26,5.36H37.9V36h1.16Zm0-2.72H37.9V33.3h1.16Zm0-2.64H37.9v-1.6h1.16Zm2.33,5.36H40.23V36h1.16Zm0-2.72H40.23V33.3h1.16Zm0-2.64H40.23v-1.6h1.16Zm2.26,5.36H42.49V36h1.16Zm0-2.72H42.49V33.3h1.16Zm0-2.64H42.49v-1.6h1.16Z"/><path class="cls-1" d="M53.09,27.68V46.87H67.75V27.68Zm2.38,9.94H54.31V36h1.16Zm0-2.72H54.31V33.3h1.16Zm0-2.64H54.31v-1.6h1.16Zm2.26,5.36H56.57V36h1.16Zm0-2.72H56.57V33.3h1.16Zm0-2.64H56.57v-1.6h1.16Zm2,5.36H58.58V36h1.16Zm0-2.72H58.58V33.3h1.16Zm0-2.64H58.58v-1.6h1.16ZM62,37.62H60.84V36H62Zm0-2.72H60.84V33.3H62Zm0-2.64H60.84v-1.6H62Zm2.33,5.36H63.17V36h1.16Zm0-2.72H63.17V33.3h1.16Zm0-2.64H63.17v-1.6h1.16Zm2.26,5.36H65.43V36h1.16Zm0-2.72H65.43V33.3h1.16Zm0-2.64H65.43v-1.6h1.16Z"/><rect class="cls-1" x="266.71" y="26.07" width="0.3" height="2.52"/><rect class="cls-1" x="271.26" y="26.07" width="0.3" height="2.52"/><rect class="cls-1" x="266.71" y="30.23" width="0.3" height="2.52"/><rect class="cls-1" x="271.26" y="30.23" width="0.3" height="2.52"/><rect class="cls-1" x="266.71" y="34.52" width="0.3" height="2.52"/><rect class="cls-1" x="271.26" y="34.52" width="0.3" height="2.52"/><rect class="cls-1" x="275.94" y="26.07" width="0.3" height="2.52"/><rect class="cls-1" x="280.49" y="26.07" width="0.3" height="2.52"/><rect class="cls-1" x="275.94" y="30.23" width="0.3" height="2.52"/><rect class="cls-1" x="280.49" y="30.23" width="0.3" height="2.52"/><rect class="cls-1" x="275.94" y="34.52" width="0.3" height="2.52"/><rect class="cls-1" x="280.49" y="34.52" width="0.3" height="2.52"/><rect class="cls-1" x="284.98" y="26.07" width="0.3" height="2.52"/><path class="cls-1" d="M265.07,24.29V50.8h23.38V24.29ZM268.54,37h-1.83V34.52h1.83Zm0-4.29h-1.83V30.23h1.83Zm0-4.16h-1.83V26.07h1.83ZM273.09,37h-1.83V34.52h1.83Zm0-4.29h-1.83V30.23h1.83Zm0-4.16h-1.83V26.07h1.83ZM277.77,37h-1.83V34.52h1.83Zm0-4.29h-1.83V30.23h1.83Zm0-4.16h-1.83V26.07h1.83ZM282.33,37h-1.84V34.52h1.84Zm0-4.29h-1.84V30.23h1.84Zm0-4.16h-1.84V26.07h1.84ZM286.81,37H285V34.52h1.83Zm0-4.29H285V30.23h1.83Zm0-4.16H285V26.07h1.83Z"/><rect class="cls-1" x="284.98" y="30.23" width="0.3" height="2.52"/><rect class="cls-1" x="284.98" y="34.52" width="0.3" height="2.52"/><rect class="cls-1" x="238.62" y="48.86" width="14.66" height="27.8"/><rect class="cls-1" x="303.61" y="48.86" width="14.66" height="27.8"/><rect class="cls-1" x="326.55" y="48.86" width="14.66" height="27.8"/><rect class="cls-1" x="273.46" y="48.86" width="14.99" height="27.8"/><path class="cls-1" d="M238.62,30.33V49.52h14.65V30.33ZM241,40.27h-1.16v-1.6H241Zm0-2.72h-1.16V36H241Zm0-2.64h-1.16v-1.6H241Zm2.26,5.36h-1.16v-1.6h1.16Zm0-2.72h-1.16V36h1.16Zm0-2.64h-1.16v-1.6h1.16Zm2,5.36H244.1v-1.6h1.16Zm0-2.72H244.1V36h1.16Zm0-2.64H244.1v-1.6h1.16Zm2.26,5.36h-1.16v-1.6h1.16Zm0-2.72h-1.16V36h1.16Zm0-2.64h-1.16v-1.6h1.16Zm2.33,5.36h-1.16v-1.6h1.16Zm0-2.72h-1.16V36h1.16Zm0-2.64h-1.16v-1.6h1.16Zm2.26,5.36H251v-1.6h1.16Zm0-2.72H251V36h1.16Zm0-2.64H251v-1.6h1.16Z"/><path class="cls-1" d="M303.61,31.23v19.2h14.66V31.23Zm2.38,10h-1.16v-1.6H306Zm0-2.73h-1.16v-1.6H306Zm0-2.63h-1.16v-1.6H306Zm2.26,5.36h-1.16v-1.6h1.16Zm0-2.73h-1.16v-1.6h1.16Zm0-2.63h-1.16v-1.6h1.16Zm2,5.36H309.1v-1.6h1.16Zm0-2.73H309.1v-1.6h1.16Zm0-2.63H309.1v-1.6h1.16Zm2.26,5.36h-1.16v-1.6h1.16Zm0-2.73h-1.16v-1.6h1.16Zm0-2.63h-1.16v-1.6h1.16Zm2.33,5.36h-1.16v-1.6h1.16Zm0-2.73h-1.16v-1.6h1.16Zm0-2.63h-1.16v-1.6h1.16Zm2.26,5.36H316v-1.6h1.16Zm0-2.73H316v-1.6h1.16Zm0-2.63H316v-1.6h1.16Z"/><path class="cls-1" d="M326.55,31.23v19.2h14.66V31.23Zm2.38,10h-1.16v-1.6h1.16Zm0-2.73h-1.16v-1.6h1.16Zm0-2.63h-1.16v-1.6h1.16Zm2.26,5.36H330v-1.6h1.16Zm0-2.73H330v-1.6h1.16Zm0-2.63H330v-1.6h1.16Zm2,5.36H332v-1.6h1.16Zm0-2.73H332v-1.6h1.16Zm0-2.63H332v-1.6h1.16Zm2.26,5.36H334.3v-1.6h1.16Zm0-2.73H334.3v-1.6h1.16Zm0-2.63H334.3v-1.6h1.16Zm2.33,5.36h-1.16v-1.6h1.16Zm0-2.73h-1.16v-1.6h1.16Zm0-2.63h-1.16v-1.6h1.16Zm2.26,5.36h-1.16v-1.6h1.16Zm0-2.73h-1.16v-1.6h1.16Zm0-2.63h-1.16v-1.6h1.16Z"/><path class="cls-2" d="M334.19,43.47V76.65h29.26V43.47Zm24.92,2.23h2.29v3.16h-2.29Zm-5.69,5.2h2.29v3.15h-2.29Zm-5.87,5.38h2.3v3.15h-2.3Zm0-5.38h2.3v3.15h-2.3Zm-5.69-5.2h2.29v3.16h-2.29Zm-5.62,10.58h2.29v3.15h-2.29Zm0-10.58h2.29v3.16h-2.29Z"/><rect class="cls-3" x="361.03" y="45.7" width="0.37" height="3.15" transform="translate(722.44 94.56) rotate(180)"/><rect class="cls-4" x="353.42" y="45.7" width="2.29" height="3.15" transform="translate(709.12 94.56) rotate(180)"/><rect class="cls-3" x="355.34" y="45.7" width="0.37" height="3.15" transform="translate(711.04 94.56) rotate(180)"/><rect class="cls-4" x="359.11" y="50.9" width="2.29" height="3.15" transform="translate(720.52 104.95) rotate(180)"/><rect class="cls-3" x="361.03" y="50.9" width="0.37" height="3.15" transform="translate(722.44 104.95) rotate(180)"/><rect class="cls-3" x="355.34" y="50.9" width="0.37" height="3.15" transform="translate(711.04 104.95) rotate(180)"/><rect class="cls-4" x="359.11" y="56.28" width="2.29" height="3.15" transform="translate(720.52 115.7) rotate(180)"/><rect class="cls-3" x="361.03" y="56.28" width="0.37" height="3.15" transform="translate(722.44 115.7) rotate(180)"/><rect class="cls-4" x="353.42" y="56.28" width="2.29" height="3.15" transform="translate(709.12 115.7) rotate(180)"/><rect class="cls-3" x="355.34" y="56.28" width="0.37" height="3.15" transform="translate(711.04 115.7) rotate(180)"/><rect class="cls-4" x="347.55" y="45.7" width="2.29" height="3.15" transform="translate(697.4 94.56) rotate(180)"/><rect class="cls-3" x="349.47" y="45.7" width="0.37" height="3.15" transform="translate(699.32 94.56) rotate(180)"/><rect class="cls-3" x="343.78" y="45.7" width="0.37" height="3.15" transform="translate(687.93 94.56) rotate(180)"/><rect class="cls-3" x="349.47" y="50.9" width="0.37" height="3.15" transform="translate(699.32 104.95) rotate(180)"/><rect class="cls-4" x="341.86" y="50.9" width="2.29" height="3.15" transform="translate(686.01 104.95) rotate(180)"/><rect class="cls-3" x="343.78" y="50.9" width="0.37" height="3.15" transform="translate(687.93 104.95) rotate(180)"/><rect class="cls-3" x="349.47" y="56.28" width="0.37" height="3.15" transform="translate(699.32 115.7) rotate(180)"/><rect class="cls-4" x="341.86" y="56.28" width="2.29" height="3.15" transform="translate(686.01 115.7) rotate(180)"/><rect class="cls-3" x="343.78" y="56.28" width="0.37" height="3.15" transform="translate(687.93 115.7) rotate(180)"/><rect class="cls-3" x="338.16" y="45.7" width="0.37" height="3.15" transform="translate(676.7 94.56) rotate(180)"/><rect class="cls-4" x="336.24" y="50.9" width="2.29" height="3.15" transform="translate(674.78 104.95) rotate(180)"/><rect class="cls-3" x="338.16" y="50.9" width="0.37" height="3.15" transform="translate(676.7 104.95) rotate(180)"/><rect class="cls-3" x="338.16" y="56.28" width="0.37" height="3.15" transform="translate(676.7 115.7) rotate(180)"/><rect class="cls-1" x="252.33" y="40.83" width="8.28" height="1.32"/><rect class="cls-1" x="252.33" y="39.44" width="8.28" height="0.45"/><rect class="cls-1" x="259.62" y="40.21" width="1.53" height="0.45" transform="translate(300.82 -219.96) rotate(90)"/><rect class="cls-1" x="258.86" y="39.67" width="0.45" height="1.53"/><rect class="cls-1" x="257.55" y="39.67" width="0.45" height="1.53"/><rect class="cls-1" x="256.25" y="39.67" width="0.45" height="1.53"/><rect class="cls-1" x="254.94" y="39.67" width="0.45" height="1.53"/><rect class="cls-1" x="253.64" y="39.67" width="0.45" height="1.53"/><rect class="cls-1" x="251.79" y="40.21" width="1.53" height="0.45" transform="translate(292.99 -212.13) rotate(90)"/><rect class="cls-1" x="260.16" y="40.83" width="8.28" height="1.32"/><rect class="cls-1" x="260.16" y="39.44" width="8.28" height="0.45"/><rect class="cls-1" x="267.46" y="40.21" width="1.53" height="0.45" transform="translate(308.66 -227.79) rotate(90)"/><rect class="cls-1" x="266.69" y="39.67" width="0.45" height="1.53"/><rect class="cls-1" x="265.39" y="39.67" width="0.45" height="1.53"/><rect class="cls-1" x="264.08" y="39.67" width="0.45" height="1.53"/><rect class="cls-1" x="262.78" y="39.67" width="0.45" height="1.53"/><rect class="cls-1" x="261.47" y="39.67" width="0.45" height="1.53"/><rect class="cls-1" x="259.62" y="40.21" width="1.53" height="0.45" transform="translate(300.82 -219.96) rotate(90)"/><rect class="cls-1" x="242.14" y="30.36" width="8.28" height="1.32"/><rect class="cls-1" x="242.14" y="28.98" width="8.28" height="0.45"/><rect class="cls-1" x="249.43" y="29.74" width="1.53" height="0.45" transform="translate(280.16 -220.23) rotate(90)"/><rect class="cls-1" x="248.67" y="29.2" width="0.45" height="1.53"/><rect class="cls-1" x="247.36" y="29.2" width="0.45" height="1.53"/><rect class="cls-1" x="246.05" y="29.2" width="0.45" height="1.53"/><rect class="cls-1" x="244.75" y="29.2" width="0.45" height="1.53"/><rect class="cls-1" x="243.44" y="29.2" width="0.45" height="1.53"/><rect class="cls-1" x="241.6" y="29.74" width="1.53" height="0.45" transform="translate(272.33 -212.4) rotate(90)"/><rect class="cls-1" x="318.27" y="34.59" width="8.28" height="1.32"/><rect class="cls-1" x="318.27" y="33.2" width="8.28" height="0.45"/><rect class="cls-1" x="325.56" y="33.97" width="1.53" height="0.45" transform="translate(360.52 -292.13) rotate(90)"/><rect class="cls-1" x="324.8" y="33.43" width="0.45" height="1.53"/><rect class="cls-1" x="323.49" y="33.43" width="0.45" height="1.53"/><rect class="cls-1" x="322.19" y="33.43" width="0.45" height="1.53"/><rect class="cls-1" x="320.88" y="33.43" width="0.45" height="1.53"/><rect class="cls-1" x="319.58" y="33.43" width="0.45" height="1.53"/><rect class="cls-1" x="317.73" y="33.97" width="1.53" height="0.45" transform="translate(352.69 -284.3) rotate(90)"/><rect class="cls-1" x="318.27" y="39.35" width="8.28" height="1.32"/><rect class="cls-1" x="318.27" y="37.96" width="8.28" height="0.45"/><rect class="cls-1" x="325.56" y="38.73" width="1.53" height="0.45" transform="translate(365.28 -287.38) rotate(90)"/><rect class="cls-1" x="324.8" y="38.19" width="0.45" height="1.53"/><rect class="cls-1" x="323.49" y="38.19" width="0.45" height="1.53"/><rect class="cls-1" x="322.19" y="38.19" width="0.45" height="1.53"/><rect class="cls-1" x="320.88" y="38.19" width="0.45" height="1.53"/><rect class="cls-1" x="319.58" y="38.19" width="0.45" height="1.53"/><rect class="cls-1" x="317.73" y="38.73" width="1.53" height="0.45" transform="translate(357.45 -279.54) rotate(90)"/><rect class="cls-1" x="318.27" y="44.19" width="8.28" height="1.32"/><rect class="cls-1" x="318.27" y="42.8" width="8.28" height="0.45"/><rect class="cls-1" x="325.56" y="43.56" width="1.53" height="0.45" transform="translate(370.12 -282.54) rotate(90)"/><rect class="cls-1" x="324.8" y="43.02" width="0.45" height="1.53"/><rect class="cls-1" x="323.49" y="43.02" width="0.45" height="1.53"/><rect class="cls-1" x="322.19" y="43.02" width="0.45" height="1.53"/><rect class="cls-1" x="320.88" y="43.02" width="0.45" height="1.53"/><rect class="cls-1" x="319.58" y="43.02" width="0.45" height="1.53"/><rect class="cls-1" x="317.73" y="43.56" width="1.53" height="0.45" transform="translate(362.29 -274.71) rotate(90)"/><rect class="cls-1" x="231.67" y="22.78" width="0.3" height="2.52"/><rect class="cls-1" x="236.22" y="22.78" width="0.3" height="2.52"/><rect class="cls-1" x="231.67" y="26.94" width="0.3" height="2.52"/><rect class="cls-1" x="236.22" y="26.94" width="0.3" height="2.52"/><rect class="cls-1" x="231.67" y="31.23" width="0.3" height="2.52"/><rect class="cls-1" x="236.22" y="31.23" width="0.3" height="2.52"/><rect class="cls-1" x="240.91" y="22.78" width="0.3" height="2.52"/><rect class="cls-1" x="245.46" y="22.78" width="0.3" height="2.52"/><rect class="cls-1" x="240.91" y="26.94" width="0.3" height="2.52"/><rect class="cls-1" x="245.46" y="26.94" width="0.3" height="2.52"/><rect class="cls-1" x="240.91" y="31.23" width="0.3" height="2.52"/><rect class="cls-1" x="245.46" y="31.23" width="0.3" height="2.52"/><rect class="cls-1" x="249.94" y="22.78" width="0.3" height="2.52"/><path class="cls-1" d="M230,21V47.52h23.38V21Zm3.47,12.75h-1.83V31.23h1.83Zm0-4.29h-1.83V26.94h1.83Zm0-4.16h-1.83V22.78h1.83Zm4.55,8.45h-1.83V31.23h1.83Zm0-4.29h-1.83V26.94h1.83Zm0-4.16h-1.83V22.78h1.83Zm4.69,8.45h-1.83V31.23h1.83Zm0-4.29h-1.83V26.94h1.83Zm0-4.16h-1.83V22.78h1.83Zm4.55,8.45h-1.83V31.23h1.83Zm0-4.29h-1.83V26.94h1.83Zm0-4.16h-1.83V22.78h1.83Zm4.48,8.45h-1.83V31.23h1.83Zm0-4.29h-1.83V26.94h1.83Zm0-4.16h-1.83V22.78h1.83Z"/><rect class="cls-1" x="249.94" y="26.94" width="0.3" height="2.52"/><rect class="cls-1" x="249.94" y="31.23" width="0.3" height="2.52"/><rect class="cls-1" x="44.81" y="31.04" width="8.28" height="1.32"/><rect class="cls-1" x="44.81" y="29.65" width="8.28" height="0.45"/><rect class="cls-1" x="52.1" y="30.41" width="1.53" height="0.45" transform="translate(83.5 -22.23) rotate(90)"/><rect class="cls-1" x="51.33" y="29.87" width="0.45" height="1.53"/><rect class="cls-1" x="50.03" y="29.87" width="0.45" height="1.53"/><rect class="cls-1" x="48.72" y="29.87" width="0.45" height="1.53"/><rect class="cls-1" x="47.42" y="29.87" width="0.45" height="1.53"/><rect class="cls-1" x="46.11" y="29.87" width="0.45" height="1.53"/><rect class="cls-1" x="44.27" y="30.41" width="1.53" height="0.45" transform="translate(75.67 -14.39) rotate(90)"/><rect class="cls-1" x="44.81" y="35.8" width="8.28" height="1.32"/><rect class="cls-1" x="44.81" y="34.41" width="8.28" height="0.45"/><rect class="cls-1" x="52.1" y="35.17" width="1.53" height="0.45" transform="translate(88.26 -17.47) rotate(90)"/><rect class="cls-1" x="51.33" y="34.63" width="0.45" height="1.53"/><rect class="cls-1" x="50.03" y="34.63" width="0.45" height="1.53"/><rect class="cls-1" x="48.72" y="34.63" width="0.45" height="1.53"/><rect class="cls-1" x="47.42" y="34.63" width="0.45" height="1.53"/><rect class="cls-1" x="46.11" y="34.63" width="0.45" height="1.53"/><rect class="cls-1" x="44.27" y="35.17" width="1.53" height="0.45" transform="translate(80.43 -9.63) rotate(90)"/><rect class="cls-1" x="44.81" y="40.63" width="8.28" height="1.32"/><rect class="cls-1" x="44.81" y="39.24" width="8.28" height="0.45"/><rect class="cls-1" x="52.1" y="40.01" width="1.53" height="0.45" transform="translate(93.1 -12.63) rotate(90)"/><rect class="cls-1" x="51.33" y="39.47" width="0.45" height="1.53"/><rect class="cls-1" x="50.03" y="39.47" width="0.45" height="1.53"/><rect class="cls-1" x="48.72" y="39.47" width="0.45" height="1.53"/><rect class="cls-1" x="47.42" y="39.47" width="0.45" height="1.53"/><rect class="cls-1" x="46.11" y="39.47" width="0.45" height="1.53"/><rect class="cls-1" x="44.27" y="40.01" width="1.53" height="0.45" transform="translate(85.27 -4.8) rotate(90)"/><rect class="cls-1" x="134.39" y="134.56" width="14.66" height="27.8"/><path class="cls-1" d="M134.39,116v19.19h14.66V116Zm2.38,9.94h-1.16v-1.6h1.16Zm0-2.72h-1.16v-1.6h1.16Zm0-2.64h-1.16V119h1.16ZM139,126h-1.16v-1.6H139Zm0-2.72h-1.16v-1.6H139Zm0-2.64h-1.16V119H139Zm2,5.36h-1.16v-1.6H141Zm0-2.72h-1.16v-1.6H141Zm0-2.64h-1.16V119H141ZM143.3,126h-1.16v-1.6h1.16Zm0-2.72h-1.16v-1.6h1.16Zm0-2.64h-1.16V119h1.16Zm2.33,5.36h-1.16v-1.6h1.16Zm0-2.72h-1.16v-1.6h1.16Zm0-2.64h-1.16V119h1.16Zm2.26,5.36h-1.16v-1.6h1.16Zm0-2.72h-1.16v-1.6h1.16Zm0-2.64h-1.16V119h1.16Z"/><rect class="cls-1" x="127.45" y="108.49" width="0.3" height="2.52"/><rect class="cls-1" x="132" y="108.49" width="0.3" height="2.52"/><rect class="cls-1" x="127.45" y="112.64" width="0.3" height="2.52"/><rect class="cls-1" x="132" y="112.64" width="0.3" height="2.52"/><rect class="cls-1" x="127.45" y="116.94" width="0.3" height="2.52"/><rect class="cls-1" x="132" y="116.94" width="0.3" height="2.52"/><rect class="cls-1" x="136.68" y="108.49" width="0.3" height="2.52"/><rect class="cls-1" x="141.24" y="108.49" width="0.3" height="2.52"/><rect class="cls-1" x="136.68" y="112.64" width="0.3" height="2.52"/><rect class="cls-1" x="141.24" y="112.64" width="0.3" height="2.52"/><rect class="cls-1" x="136.68" y="116.94" width="0.3" height="2.52"/><rect class="cls-1" x="141.24" y="116.94" width="0.3" height="2.52"/><rect class="cls-1" x="145.72" y="108.49" width="0.3" height="2.52"/><path class="cls-1" d="M125.81,106.7v26.52h23.38V106.7Zm3.47,12.76h-1.83v-2.52h1.83Zm0-4.3h-1.83v-2.52h1.83Zm0-4.15h-1.83v-2.52h1.83Zm4.55,8.45H132v-2.52h1.83Zm0-4.3H132v-2.52h1.83Zm0-4.15H132v-2.52h1.83Zm4.68,8.45h-1.83v-2.52h1.83Zm0-4.3h-1.83v-2.52h1.83Zm0-4.15h-1.83v-2.52h1.83Zm4.56,8.45h-1.83v-2.52h1.83Zm0-4.3h-1.83v-2.52h1.83Zm0-4.15h-1.83v-2.52h1.83Zm4.48,8.45h-1.83v-2.52h1.83Zm0-4.3h-1.83v-2.52h1.83Zm0-4.15h-1.83v-2.52h1.83Z"/><rect class="cls-1" x="145.72" y="112.64" width="0.3" height="2.52"/><rect class="cls-1" x="145.72" y="116.94" width="0.3" height="2.52"/><rect class="cls-1" x="99.36" y="131.27" width="14.66" height="27.8"/><rect class="cls-1" x="30.15" y="130.16" width="14.66" height="52.07"/><rect class="cls-1" x="53.09" y="131" width="14.66" height="27.8"/><rect class="cls-1" y="131" width="14.99" height="27.8"/><path class="cls-1" d="M99.36,112.74v19.19H114V112.74Zm2.37,9.94h-1.16v-1.59h1.16Zm0-2.72h-1.16v-1.6h1.16Zm0-2.63h-1.16v-1.6h1.16Zm2.26,5.35h-1.16v-1.59H104Zm0-2.72h-1.16v-1.6H104Zm0-2.63h-1.16v-1.6H104Zm2,5.35h-1.16v-1.59H106Zm0-2.72h-1.16v-1.6H106Zm0-2.63h-1.16v-1.6H106Zm2.26,5.35H107.1v-1.59h1.16Zm0-2.72H107.1v-1.6h1.16Zm0-2.63H107.1v-1.6h1.16Zm2.33,5.35h-1.16v-1.59h1.16Zm0-2.72h-1.16v-1.6h1.16Zm0-2.63h-1.16v-1.6h1.16Zm2.26,5.35h-1.16v-1.59h1.16Zm0-2.72h-1.16v-1.6h1.16Zm0-2.63h-1.16v-1.6h1.16Z"/><path class="cls-1" d="M30.15,113.38v19.19H44.81V113.38Zm2.38,9.94H31.37v-1.59h1.16Zm0-2.72H31.37V119h1.16Zm0-2.64H31.37v-1.59h1.16Zm2.26,5.36H33.63v-1.59h1.16Zm0-2.72H33.63V119h1.16Zm0-2.64H33.63v-1.59h1.16Zm2,5.36H35.64v-1.59H36.8Zm0-2.72H35.64V119H36.8Zm0-2.64H35.64v-1.59H36.8Zm2.26,5.36H37.9v-1.59h1.16Zm0-2.72H37.9V119h1.16Zm0-2.64H37.9v-1.59h1.16Zm2.33,5.36H40.23v-1.59h1.16Zm0-2.72H40.23V119h1.16Zm0-2.64H40.23v-1.59h1.16Zm2.26,5.36H42.49v-1.59h1.16Zm0-2.72H42.49V119h1.16Zm0-2.64H42.49v-1.59h1.16Z"/><path class="cls-1" d="M53.09,113.38v19.19H67.75V113.38Zm2.38,9.94H54.31v-1.59h1.16Zm0-2.72H54.31V119h1.16Zm0-2.64H54.31v-1.59h1.16Zm2.26,5.36H56.57v-1.59h1.16Zm0-2.72H56.57V119h1.16Zm0-2.64H56.57v-1.59h1.16Zm2,5.36H58.58v-1.59h1.16Zm0-2.72H58.58V119h1.16Zm0-2.64H58.58v-1.59h1.16ZM62,123.32H60.84v-1.59H62Zm0-2.72H60.84V119H62ZM62,118H60.84v-1.59H62Zm2.33,5.36H63.17v-1.59h1.16Zm0-2.72H63.17V119h1.16Zm0-2.64H63.17v-1.59h1.16Zm2.26,5.36H65.43v-1.59h1.16Zm0-2.72H65.43V119h1.16Zm0-2.64H65.43v-1.59h1.16Z"/><rect class="cls-1" x="113.07" y="123.24" width="8.28" height="1.32"/><rect class="cls-1" x="113.07" y="121.86" width="8.28" height="0.45"/><rect class="cls-1" x="120.36" y="122.62" width="1.53" height="0.45" transform="translate(243.98 1.72) rotate(90)"/><rect class="cls-1" x="119.6" y="122.08" width="0.45" height="1.53"/><rect class="cls-1" x="118.29" y="122.08" width="0.45" height="1.53"/><rect class="cls-1" x="116.99" y="122.08" width="0.45" height="1.53"/><rect class="cls-1" x="115.68" y="122.08" width="0.45" height="1.53"/><rect class="cls-1" x="114.38" y="122.08" width="0.45" height="1.53"/><rect class="cls-1" x="112.53" y="122.62" width="1.53" height="0.45" transform="translate(236.15 9.55) rotate(90)"/><rect class="cls-1" x="120.91" y="123.24" width="8.28" height="1.32"/><rect class="cls-1" x="120.91" y="121.86" width="8.28" height="0.45"/><rect class="cls-1" x="128.2" y="122.62" width="1.53" height="0.45" transform="translate(251.81 -6.12) rotate(90)"/><rect class="cls-1" x="127.43" y="122.08" width="0.45" height="1.53"/><rect class="cls-1" x="126.13" y="122.08" width="0.45" height="1.53"/><rect class="cls-1" x="124.82" y="122.08" width="0.45" height="1.53"/><rect class="cls-1" x="123.52" y="122.08" width="0.45" height="1.53"/><rect class="cls-1" x="122.21" y="122.08" width="0.45" height="1.53"/><rect class="cls-1" x="120.36" y="122.62" width="1.53" height="0.45" transform="translate(243.98 1.72) rotate(90)"/><rect class="cls-1" x="102.88" y="112.78" width="8.28" height="1.32"/><rect class="cls-1" x="102.88" y="111.39" width="8.28" height="0.45"/><rect class="cls-1" x="110.17" y="112.16" width="1.53" height="0.45" transform="translate(223.32 1.44) rotate(90)"/><rect class="cls-1" x="109.41" y="111.62" width="0.45" height="1.53"/><rect class="cls-1" x="108.1" y="111.62" width="0.45" height="1.53"/><rect class="cls-1" x="106.8" y="111.62" width="0.45" height="1.53"/><rect class="cls-1" x="105.49" y="111.62" width="0.45" height="1.53"/><rect class="cls-1" x="104.18" y="111.62" width="0.45" height="1.53"/><rect class="cls-1" x="102.34" y="112.16" width="1.53" height="0.45" transform="translate(215.49 9.28) rotate(90)"/><rect class="cls-1" x="44.81" y="116.74" width="8.28" height="1.32"/><rect class="cls-1" x="44.81" y="115.35" width="8.28" height="0.45"/><rect class="cls-1" x="52.1" y="116.12" width="1.53" height="0.45" transform="translate(169.21 63.48) rotate(90)"/><rect class="cls-1" x="51.33" y="115.58" width="0.45" height="1.53"/><rect class="cls-1" x="50.03" y="115.58" width="0.45" height="1.53"/><rect class="cls-1" x="48.72" y="115.58" width="0.45" height="1.53"/><rect class="cls-1" x="47.42" y="115.58" width="0.45" height="1.53"/><rect class="cls-1" x="46.11" y="115.58" width="0.45" height="1.53"/><rect class="cls-1" x="44.27" y="116.12" width="1.53" height="0.45" transform="translate(161.38 71.31) rotate(90)"/><rect class="cls-1" x="44.81" y="121.5" width="8.28" height="1.32"/><rect class="cls-1" x="44.81" y="120.11" width="8.28" height="0.45"/><rect class="cls-1" x="52.1" y="120.88" width="1.53" height="0.45" transform="translate(173.97 68.24) rotate(90)"/><rect class="cls-1" x="51.33" y="120.34" width="0.45" height="1.53"/><rect class="cls-1" x="50.03" y="120.34" width="0.45" height="1.53"/><rect class="cls-1" x="48.72" y="120.34" width="0.45" height="1.53"/><rect class="cls-1" x="47.42" y="120.34" width="0.45" height="1.53"/><rect class="cls-1" x="46.11" y="120.34" width="0.45" height="1.53"/><rect class="cls-1" x="44.27" y="120.88" width="1.53" height="0.45" transform="translate(166.13 76.07) rotate(90)"/><rect class="cls-1" x="44.81" y="126.34" width="8.28" height="1.32"/><rect class="cls-1" x="44.81" y="124.95" width="8.28" height="0.45"/><rect class="cls-1" x="52.1" y="125.71" width="1.53" height="0.45" transform="translate(178.8 73.07) rotate(90)"/><rect class="cls-1" x="51.33" y="125.17" width="0.45" height="1.53"/><rect class="cls-1" x="50.03" y="125.17" width="0.45" height="1.53"/><rect class="cls-1" x="48.72" y="125.17" width="0.45" height="1.53"/><rect class="cls-1" x="47.42" y="125.17" width="0.45" height="1.53"/><rect class="cls-1" x="46.11" y="125.17" width="0.45" height="1.53"/><rect class="cls-1" x="44.27" y="125.71" width="1.53" height="0.45" transform="translate(170.97 80.91) rotate(90)"/><rect class="cls-1" x="244.8" width="0.52" height="21" transform="translate(490.13 21) rotate(180)"/><rect class="cls-1" x="244.8" y="18.46" width="0.52" height="3.09" transform="translate(265.07 -225.06) rotate(90)"/><rect class="cls-1" x="244.8" y="16.56" width="0.52" height="3.09" transform="translate(263.17 -226.96) rotate(90)"/><rect class="cls-1" x="244.8" y="13.07" width="0.52" height="2.2" transform="translate(259.23 -230.9) rotate(90)"/><rect class="cls-1" x="244.8" y="11.17" width="0.52" height="2.2" transform="translate(257.33 -232.8) rotate(90)"/><rect class="cls-5" x="244.8" width="0.52" height="0.6" transform="translate(490.13 0.6) rotate(180)"/><rect class="cls-5" x="244.8" y="1.1" width="0.52" height="0.6" transform="translate(490.13 2.81) rotate(180)"/><rect class="cls-5" x="244.8" y="2.23" width="0.52" height="0.6" transform="translate(490.13 5.07) rotate(180)"/><rect class="cls-6" x="243.44" y="12.01" width="0.52" height="0.52" transform="translate(487.41 24.54) rotate(180)"/><rect class="cls-6" x="246.16" y="12.01" width="0.52" height="0.52" transform="translate(492.85 24.54) rotate(180)"/></g></g></svg>