<svg xmlns="http://www.w3.org/2000/svg" xmlns:xlink="http://www.w3.org/1999/xlink" viewBox="0 0 956.25 241.03"><defs><style>.cls-1{isolation:isolate;}.cls-2{fill:#130716;}.cls-3{fill:#1d0b20;}.cls-4,.cls-5,.cls-6,.cls-7,.cls-8{mix-blend-mode:multiply;opacity:0.29;}.cls-4{fill:url(#Áåçûìÿííûé_ãðàäèåíò_249);}.cls-5{fill:url(#Áåçûìÿííûé_ãðàäèåíò_249-2);}.cls-6{fill:url(#Áåçûìÿííûé_ãðàäèåíò_249-3);}.cls-7{fill:url(#Áåçûìÿííûé_ãðàäèåíò_267);}.cls-8{fill:url(#Áåçûìÿííûé_ãðàäèåíò_267-2);}</style><linearGradient id="Áåçûìÿííûé_ãðàäèåíò_249" x1="805.25" y1="156.92" x2="881.69" y2="233.37" gradientUnits="userSpaceOnUse"><stop offset="0"/><stop offset="0.11" stop-color="#050505"/><stop offset="0.23" stop-color="#121212"/><stop offset="0.36" stop-color="#292929"/><stop offset="0.5" stop-color="#484848"/><stop offset="0.64" stop-color="#707070"/><stop offset="0.78" stop-color="#a2a2a2"/><stop offset="0.92" stop-color="#dbdbdb"/><stop offset="1" stop-color="#fff"/></linearGradient><linearGradient id="Áåçûìÿííûé_ãðàäèåíò_249-2" x1="890.29" y1="180.38" x2="956.25" y2="180.38" xlink:href="#Áåçûìÿííûé_ãðàäèåíò_249"/><linearGradient id="Áåçûìÿííûé_ãðàäèåíò_249-3" x1="701.86" y1="205.66" x2="722.2" y2="205.66" xlink:href="#Áåçûìÿííûé_ãðàäèåíò_249"/><linearGradient id="Áåçûìÿííûé_ãðàäèåíò_267" y1="172.71" x2="81.98" y2="172.71" gradientUnits="userSpaceOnUse"><stop offset="0" stop-color="#fff"/><stop offset="0.08" stop-color="#dbdbdb"/><stop offset="0.22" stop-color="#a2a2a2"/><stop offset="0.36" stop-color="#707070"/><stop offset="0.5" stop-color="#484848"/><stop offset="0.64" stop-color="#292929"/><stop offset="0.77" stop-color="#121212"/><stop offset="0.89" stop-color="#050505"/><stop offset="1"/></linearGradient><linearGradient id="Áåçûìÿííûé_ãðàäèåíò_267-2" x1="195.53" y1="231" x2="195.53" y2="146.16" xlink:href="#Áåçûìÿííûé_ãðàäèåíò_267"/></defs><g class="cls-1"><g id="Layer_2" data-name="Layer 2"><g id="L1"><path class="cls-2" d="M6.91,93.7s8.18-49,3.58-85.27c0,0,7.91,30.83,6.38,73.24,0,0,12.77-42.61,9.19-81.67,0,0,5.37,40.09-2,91.91,0,0,9.45-43.91,30.64-79.65,0,0-22.21,41.1-23.87,93.19S6.91,93.7,6.91,93.7Z"/><path class="cls-3" d="M291.34,231.32s-24.51-46.47-21.11-131.23c0,0,.34,63.31,23.49,127.65,0,0-11.57-59.57,2.73-115.74,0,0-1.36,36.77,10.55,89.19,0,0-7.15-44.59,8.17-96.68,0,0-9.53,44.94,5.11,122.21,0,0,9.87-49,6.81-89.87,0,0,7.14,40.85,6.46,94.47Z"/><path class="cls-3" d="M344.79,231.06s-4.43-10.46,3.74-42.8c0,0,3.41,28.25,1.36,43.06Z"/><path class="cls-3" d="M663.76,183.83c6.46,25.53,2.55,45.28,2.55,45.28-22-60.6-22.3-101.79-22.3-101.79-4.54,44.86,11.76,87.24,17.29,100.06-21.23-25.92-28.63-58.87-28.63-58.87,3.74,35.06,18.72,54.13,18.72,54.13a100,100,0,0,1-29.62-34.38,138.58,138.58,0,0,0,26.9,42.8l14.39.23s13.29,0,13.29,0C674.31,200.85,663.76,183.83,663.76,183.83Z"/><path class="cls-3" d="M732.07,231.32s9.53-70.3-9.87-104c0,0,13.62,15.32,17.36,78.64,0,0,8.17-44.26,5.45-78.64,0,0,10.89,60.42,3.74,103.74Z"/><path class="cls-3" d="M754.54,231.32s17-95.49,4.77-163.92c0,0,18.39,61.62-.17,163.92Z"/><path class="cls-2" d="M0,85.53s30.15,5.11,46.49,28.09c0,0,4.85-18.81,0-32.94,0,0,32.08,18,24.6,49.19,0,0,10.21-1.19,23.65-9.36,0,0,1,12.43-15.14,25.7,0,0,20.76,2.39,26.72,23.32,0,0-6-6.13-17.53-7l3.74,7a24.87,24.87,0,0,1,17.7,3.24c8.51,5.44,12.26,3.23,12.26,3.23s-5.11,13.28-18.38,13.28A81.18,81.18,0,0,1,113,199.49c5.44,7.15,9.53,4.6,9.53,4.6s-8.85,17-30.64,6.29c0,0,7.83,10.6.85,20.62H88.79s-1.19-6-5.28-7.85c0,0,2.89,4.47.85,7.85H0Z"/><path class="cls-2" d="M176.57,161.62S163.3,145.28,189.47,130a15.62,15.62,0,0,0,0,9.95c1.79,5.62,1.27,13,1.27,13l5.24.76s9.19-7.34,25.15,2.14c0,0-1.15-.61-4.85,3.1s-5.37,4.08-5.37,4.08a16.41,16.41,0,0,0,10.22-.64,24.91,24.91,0,0,1-7,9.58s3.95,3.83,10.72,1c0,0-6.38,15.19-19.28,14.3a19.32,19.32,0,0,1,7.15,7.15c3.19,5.23,7.15,4.21,7.15,4.21s-1,6-4.08,7.15c0,0,5.49,1,9.95,9.57,0,0-5.49-8-1.27-20a4.3,4.3,0,0,0,2.81,3.45c2.55.89,5.36,1.66,6.12,3.44,0,0-3.19-4.34-1.53-15.7,0,0,4.72-1.4,7.28,1.53,0,0-.39-4.34,7.53-11.36s5.23-8.3,5.23-8.3,10.09,9.32,6.9,27.71c0,0,1.15-1,6.89-1.41a11.61,11.61,0,0,0,8.55-4.59s1.66,22.21-17.36,27.19c0,0,3.07.12,8,.76s10.35-2.17,10.35-2.17.51,9.83-8.3,15.13H148.62a31.49,31.49,0,0,1-17.36-12.45s6.89.26,10.21-4.08,5.62-5.62,5.62-5.62-6.39,4.34-18.9,0c0,0,5.75-2,6.26-7.34s2.17-7.91,2.17-7.91a5.64,5.64,0,0,0-4.47,4.53s-.77-19.15,14-22.09c0,0-.51-1.27-3.32-.51,0,0,0-15.06,13.41-17.74,0,0-.77-2.94,2.42-7.28a13.57,13.57,0,0,0,2.94-8.17,9.36,9.36,0,0,0,4.89,7.55c7.41,4.09,9.15,13,9.15,13Z"/><path class="cls-2" d="M670,182.3s2.93,2.68,9.19,2.93,10.21-1.66,12.89,0c0,0-1.15-8.68-6.26-13.53,0,0,16.73.05,25.54,13.56a17.38,17.38,0,0,1,2.93-9.09c3.07-4.72,0-10,0-10s18.9,13.41,7,25.66c0,0,9.2,2,9.07,16,0,0-.64-2-4.6-1.66,0,0,5.87,10.34-1.91,24.89h-5.49a8.32,8.32,0,0,0-2.17-4.59s.13,1.66-2.3,4.59H700.14s-2.62-2.29-2.24-7.53c0,0-4.72,2.94-12.76,2.81,0,0-1.28-6.89,4.46-13.91C689.6,212.43,672.12,209.11,670,182.3Z"/><path class="cls-2" d="M762.75,128.17s6.13,10.47,25,15.83c0,0-1-3.83,1.28-17S787.77,106,787.77,106s19.79,4.59,30.9,27.57a21.57,21.57,0,0,1,9.32-5.62c6.13-1.91,5.49-8.17,5.49-8.17s7.91,14.43,3.83,25.28c0,0,1.78-.51,11.49,2S864.5,139,864.5,139s-.26,13.83-5.36,21.11c0,0,19.91.89,18.89,29.23,0,0-2.3-3.58-9.83-2.68s-14.55-2.55-14.55-2.55l.25,2.17s6.51-.64,11.62,7.4a54.47,54.47,0,0,0,11.74,13s-9.06,2-14.55-.89c0,0,5.24,2,11.11,11.49s17.61,5.49,17.61,5.49-3.7,7.14-11.74,8.29h-97a7,7,0,0,0,2.17-5.1s-10-.51-18.38,3.7c0,0-3.83-7.66.76-17.87,0,0-12.76.25-19.91-9.32,0,0,5,2.42,12.12-2.17s7.28-11.24,12.52-12.9c0,0-17.62-2.93-29.11,2,0,0,4.85-19.92,28-25.41C770.8,164,753.56,149.74,762.75,128.17Z"/><path class="cls-4" d="M829.08,165.81s.27-11.56,5.59-16.69c0,0-11.28,3.56-12.81,19.39,0,0-6.84-5.57-4.34-17.36,0,0-8.74,15.45,2.65,25.59,0,0-18,5.15-28.81-5.93,0,0,5.06,9.53,12.17,12.17,0,0-13.63.34-20.12,19,0,0,12.41-10.93,26.45-5.21,0,0-16.6,5.72-19.66,22.31,0,0,8.43-9.19,18.13-6.89s-4.8,18.83-4.8,18.83l18.12.06h58c8-1.15,11.74-8.29,11.74-8.29s-11.74,3.95-17.61-5.49c-5.05-8.12-9.62-10.77-10.8-11.35l-.31-.14.31.14c5.51,2.71,14.24.75,14.24.75a54.47,54.47,0,0,1-11.74-13c-5.11-8-11.62-7.4-11.62-7.4l-.25-2.17s7,3.44,14.55,2.55,9.83,2.68,9.83,2.68c1-28.34-18.89-29.23-18.89-29.23,5.1-7.28,5.36-21.11,5.36-21.11S864.13,162.34,829.08,165.81Z"/><path class="cls-2" d="M889,223.92s-28.59-13.28-50.72-82c0,0,13.36,40.85,42.6,67.74s0-5.11,0-5.11S857.32,177.78,855,101.27c0,0,9.56,72.27,37.3,95.75s7.67-25.53,7.67-25.53-1.27-38,7-72.43c0,0-4.64,43.16,3.87,78.56s-9.19,51.4-9.19,51.4Z"/><path class="cls-2" d="M880.67,211.57s-3.07,11.41,6,19.49l41.25-.06V102.38a16,16,0,0,0-12.83,13.53s-11.49-10.46-3.06-21.7c0,0-26.3,10.22-20.56,38.3,0,0-8.36-1.53-11.26-14,0,0-4.18,25.79,11.26,30.38,0,0-9.83,1.71-13.4-9.87,0,0-3.32,24.17,11.23,26,0,0-7.4,11.49,2.17,24.25s-3.19,21.19-3.19,21.19,9.19,7.15,20.94-4.34C909.18,206,900.92,225.79,880.67,211.57Z"/><path class="cls-5" d="M921.41,134.47s5.59,11.74,2.25,22.47c0,0-16,.68-22.36-11.24,0,0,3,16.85,17.33,16.94,0,0-7.8,6.64-19.41,0,0,0,5.28,10.64,18.9,7.06,0,0-12,8.85-6.15,29.62,0,0,3.19-10.55,9.44-13.11s9.3,40-22.19,44.79,30.3,10.19,31.32,10,26-6.81,25.7-15.83S930,119.74,930,119.74l-2.21,26S927.25,140.09,921.41,134.47Z"/><path class="cls-2" d="M126.91,87.67s-16.85,89.78,13.28,143.65h11.75S119.77,184.85,147.85,71c0,0-22,61.69-15.66,109.5C132.19,180.48,123.85,155.93,126.91,87.67Z"/><path class="cls-6" d="M701.86,196s9.45,1.23,12.38,6.34c0,0-.51-7.79-2.42-11.62,0,0,3.9,3.58,4.44,7.41,0,0,1.09-4.19,3.47-5.7,0,0-3.87,7.1,2.47,11.89,0,0-3.19.06-4.77-2.36a23.62,23.62,0,0,1-1.17,18.64s.83-9.32-4.23-13.66c0,0-6.21,1-10.17,8.8,0,0,.77-10,7.79-11.42C709.65,204.32,707.09,197.82,701.86,196Z"/><path class="cls-7" d="M69.11,231c-29.16-6.75-27-20.11-27-20.11C53.38,219.57,82,214.72,82,214.72c-36.26,0-39.83-23.4-39.83-23.4,6.89,8.25,26.78,2.51,26.78,2.51S36,186.89,49.55,178.69s28.34-1.75,28.34-1.75c-14.29-11.49-40.08-14.15-40.08-14.15,7.66-.86,19.06-10.14,19.06-10.14-18,6.86-31.32,2.38-31.32,2.38,12.77-5.06,16.6-14.61,16.6-14.61a47.17,47.17,0,0,1-29.81,12.23c2.22-14.2-6.22-29.39-12.34-38.22V231Z"/><path class="cls-8" d="M241.79,222.38c4.46.13,9.59-4.82,9.59-4.82-5.36,1.3-8.42,0-8.42,0a31.05,31.05,0,0,1,9.57-13.74c-8,3.52-12.13,11.41-12.13,11.41,1.54-4.34,0-10.21,0-10.21a11,11,0,0,1-3.58,9.45c-9.57-2.81-13.86-12.26-13.87-12.28A22.75,22.75,0,0,0,225,214.14c.23.39.46.79.68,1.22a10.3,10.3,0,0,1-.68-1.22c-4.32-7.42-9.27-8.35-9.27-8.35s18.51,11.36-3.07,16.47-32-18.44-32-18.44c15.32,10.29,27.06,2.82,27.06,2.82-24.38,2.13-27.06-16.55-27.06-16.55,7.53,2.29,16.6-2.8,16.6-2.8a27.4,27.4,0,0,1-13.92-.79c13.15-1.66,14.3-13.52,14.3-13.52-5.49,5.11-15.44,6.2-15.44,6.2-6.88-5.68-4.48-14.63-4.48-14.63a7.54,7.54,0,0,0-2.68,6.39c-15.68-5.1-15.06-19-14-24.78a15.74,15.74,0,0,1-2.29,4.35c-3.19,4.34-2.42,7.28-2.42,7.28-13.41,2.68-13.41,17.74-13.41,17.74,2.81-.76,3.32.51,3.32.51-14.81,2.94-14,22.09-14,22.09a5.64,5.64,0,0,1,4.47-4.53s-1.66,2.55-2.17,7.91-6.26,7.34-6.26,7.34c11.51,4,17.82.65,18.76.09l.14-.09-.14.09a23,23,0,0,0-5.48,5.53c-3.32,4.34-10.21,4.08-10.21,4.08A31.49,31.49,0,0,0,148.62,231H262.73l.14-.13C252.28,231.82,241.79,222.38,241.79,222.38Z"/></g></g></g></svg>