<svg xmlns="http://www.w3.org/2000/svg" xmlns:xlink="http://www.w3.org/1999/xlink" viewBox="0 0 929.23 427.53"><defs><style>.cls-1{isolation:isolate;}.cls-2{fill:url(#Áåçûìÿííûé_ãðàäèåíò_174);}.cls-3{fill:url(#Áåçûìÿííûé_ãðàäèåíò_295);}.cls-4{fill:url(#Áåçûìÿííûé_ãðàäèåíò_295-2);}.cls-10,.cls-11,.cls-12,.cls-13,.cls-14,.cls-16,.cls-18,.cls-5,.cls-7,.cls-9{mix-blend-mode:multiply;}.cls-16,.cls-18,.cls-5,.cls-7{opacity:0.49;}.cls-5{fill:url(#Áåçûìÿííûé_ãðàäèåíò_253);}.cls-6{fill:url(#Áåçûìÿííûé_ãðàäèåíò_175);}.cls-7{fill:url(#Áåçûìÿííûé_ãðàäèåíò_253-2);}.cls-8{fill:url(#Áåçûìÿííûé_ãðàäèåíò_295-3);}.cls-10,.cls-11,.cls-12,.cls-13,.cls-14,.cls-9{opacity:0.33;}.cls-9{fill:url(#Áåçûìÿííûé_ãðàäèåíò_255);}.cls-10{fill:url(#Áåçûìÿííûé_ãðàäèåíò_255-2);}.cls-11{fill:url(#Áåçûìÿííûé_ãðàäèåíò_255-3);}.cls-12{fill:url(#Áåçûìÿííûé_ãðàäèåíò_255-4);}.cls-13{fill:url(#Áåçûìÿííûé_ãðàäèåíò_255-5);}.cls-14{fill:url(#Áåçûìÿííûé_ãðàäèåíò_255-6);}.cls-15{fill:url(#Áåçûìÿííûé_ãðàäèåíò_269);}.cls-16{fill:url(#Áåçûìÿííûé_ãðàäèåíò_253-3);}.cls-17{fill:#1d0b20;}.cls-18{fill:url(#Áåçûìÿííûé_ãðàäèåíò_261);}</style><linearGradient id="Áåçûìÿííûé_ãðàäèåíò_174" x1="621.38" y1="226.96" x2="928.15" y2="226.96" gradientUnits="userSpaceOnUse"><stop offset="0" stop-color="#c167d3"/><stop offset="0.25" stop-color="#bf66d0"/><stop offset="0.42" stop-color="#b761c7"/><stop offset="0.56" stop-color="#a959b8"/><stop offset="0.69" stop-color="#974da3"/><stop offset="0.81" stop-color="#7e3f87"/><stop offset="0.92" stop-color="#612d66"/><stop offset="1" stop-color="#481e4a"/></linearGradient><linearGradient id="Áåçûìÿííûé_ãðàäèåíò_295" x1="762.32" y1="427.53" x2="762.32" y2="26.93" gradientUnits="userSpaceOnUse"><stop offset="0" stop-color="#481e4a"/><stop offset="0.12" stop-color="#401b41"/><stop offset="0.45" stop-color="#311530"/><stop offset="0.68" stop-color="#2b132a"/></linearGradient><linearGradient id="Áåçûìÿííûé_ãðàäèåíò_295-2" x1="884.81" y1="354.76" x2="884.81" y2="33.06" xlink:href="#Áåçûìÿííûé_ãðàäèåíò_295"/><linearGradient id="Áåçûìÿííûé_ãðàäèåíò_253" x1="821.9" y1="427.53" x2="821.9" y2="26.93" gradientUnits="userSpaceOnUse"><stop offset="0" stop-color="#2b132a"/><stop offset="1" stop-color="#fff"/></linearGradient><linearGradient id="Áåçûìÿííûé_ãðàäèåíò_175" y1="227.23" x2="527.33" y2="227.23" gradientUnits="userSpaceOnUse"><stop offset="0" stop-color="#481e4a"/><stop offset="0.07" stop-color="#5d2b62"/><stop offset="0.19" stop-color="#7b3d84"/><stop offset="0.31" stop-color="#954ca1"/><stop offset="0.45" stop-color="#a858b7"/><stop offset="0.6" stop-color="#b661c7"/><stop offset="0.77" stop-color="#be65d0"/><stop offset="1" stop-color="#c167d3"/></linearGradient><linearGradient id="Áåçûìÿííûé_ãðàäèåíò_253-2" x1="881.66" y1="354.76" x2="881.66" y2="33.06" xlink:href="#Áåçûìÿííûé_ãðàäèåíò_253"/><linearGradient id="Áåçûìÿííûé_ãðàäèåíò_295-3" x1="220.44" y1="427.28" x2="220.44" y2="27.87" xlink:href="#Áåçûìÿííûé_ãðàäèåíò_295"/><linearGradient id="Áåçûìÿííûé_ãðàäèåíò_255" x1="372.8" y1="124.83" x2="372.8" y2="46.34" gradientUnits="userSpaceOnUse"><stop offset="0" stop-color="#2b132a"/><stop offset="0.12" stop-color="#2f182e"/><stop offset="0.25" stop-color="#3b253a"/><stop offset="0.38" stop-color="#4f3b4e"/><stop offset="0.52" stop-color="#6b5a6a"/><stop offset="0.66" stop-color="#8e828e"/><stop offset="0.81" stop-color="#bab2ba"/><stop offset="0.95" stop-color="#edebed"/><stop offset="1" stop-color="#fff"/></linearGradient><linearGradient id="Áåçûìÿííûé_ãðàäèåíò_255-2" x1="101.8" y1="112.43" x2="101.8" y2="31.79" xlink:href="#Áåçûìÿííûé_ãðàäèåíò_255"/><linearGradient id="Áåçûìÿííûé_ãðàäèåíò_255-3" x1="299.12" y1="98" x2="299.12" y2="57.32" xlink:href="#Áåçûìÿííûé_ãðàäèåíò_255"/><linearGradient id="Áåçûìÿííûé_ãðàäèåíò_255-4" x1="159.06" y1="88.41" x2="159.06" y2="27.87" xlink:href="#Áåçûìÿííûé_ãðàäèåíò_255"/><linearGradient id="Áåçûìÿííûé_ãðàäèåíò_255-5" x1="39.91" y1="164.74" x2="39.91" y2="35.22" xlink:href="#Áåçûìÿííûé_ãðàäèåíò_255"/><linearGradient id="Áåçûìÿííûé_ãðàäèåíò_255-6" x1="255.95" y1="100.62" x2="255.95" y2="33.83" xlink:href="#Áåçûìÿííûé_ãðàäèåíò_255"/><linearGradient id="Áåçûìÿííûé_ãðàäèåíò_269" x1="850.19" y1="397.08" x2="475.25" y2="397.08" gradientUnits="userSpaceOnUse"><stop offset="0" stop-color="#a71afe"/><stop offset="1" stop-color="#fff"/></linearGradient><linearGradient id="Áåçûìÿííûé_ãðàäèåíò_253-3" x1="189.88" y1="427.21" x2="189.88" y2="41.23" xlink:href="#Áåçûìÿííûé_ãðàäèåíò_253"/><linearGradient id="Áåçûìÿííûé_ãðàäèåíò_261" x1="853.21" y1="427.53" x2="853.21" y2="26.93" gradientUnits="userSpaceOnUse"><stop offset="0" stop-color="#fff"/><stop offset="1" stop-color="#2b132a"/></linearGradient></defs><g class="cls-1"><g id="Layer_2" data-name="Layer 2"><g id="L2"><path class="cls-2" d="M647.93,58.59l3.3,7.64.1.22c-16.67,16.64-37.78,44.07-17.68,61.43a44.3,44.3,0,0,0-12.27,17.52s11.3-5,21.51-6.54c0,0-13,14-11,27.06s22.22-9.44,22.22-9.44-6.9,10.21,4.08,11.23c4.51.42,14.83-4.22,28.93-10.15,22,9.43,61.55,24.75,76.52,19.89,21.19-6.9,45.45-15.83,45.45-15.83s11.14,21,13.44,33.8-7.4,39.07-14.55,58.22-.26,13,.76,20.68,14.3,152.93,14.3,152.93h52.53c-15.65-94.46-36.19-150.89-35.42-160.59s11-65.11,12.51-79.41-7.4-1.53-7.4-14.55c0-10.67-4.8-39.5-2.6-56.73q5.6.82,11.11,2.18a69.68,69.68,0,0,0-10.74-4.6,23.39,23.39,0,0,1,2.23-7,46,46,0,0,1,3.45-5.32c2.58,1.36,6.59,3.57,11.46,6.56,2.77,17.71,6.12,32.17,9.85,41.4,4.85,12,.26,21.45-6.64,49.92a302,302,0,0,0-7.87,52.69c-3.7-.72-6.94,1.56-4.89,11.52s42,115.59,42,115.59l3.91-24.44L894.3,326.4s-1.28-27.32,4.93-53.1,7.58-19.15,5.78-29.53c-.7-4.07-.42-9.83.18-15.33,13.3,11.75,23,10.51,23,10.51V69a159.32,159.32,0,0,0-17.9-4.82L911,52.88a74.42,74.42,0,0,1,17.12,4V29.35H655.74a93.65,93.65,0,0,0-10.86,9.84c-4.1-6.81-7.22-12.26-7.22-12.26l-5.58-.27,8.18,17.14C624.27,65.32,647.93,58.59,647.93,58.59Zm192.15-2.06c3.12-.51,6.55-1,10.22-1.55l1.46,3.56q-5.67,0-11.73.22C840.05,58,840.06,57.25,840.08,56.53Zm17.91,2-1.52-4.4c5.52-.68,11.42-1.29,17.45-1.72l-2.24,6.66Q865.17,58.72,858,58.58ZM789.28,84.77l.17,0Zm-6.76,18.08c-4.69-.26-9.62-.43-14.82-.5,0,0,3.82-1.27,9.95-2.75C780.25,100.59,781.73,101.72,782.52,102.85Zm12,28.9c-5.92-1.86-15.79-6.31-24.92-10.66,5.26-1.28,10.89-2.48,16.76-3.5ZM725.26,51.4a102.74,102.74,0,0,0,4.46,9.27,150.25,150.25,0,0,0-13.38,8.66c-6.05,4.41-11.4,6-15.74,6.19A54.9,54.9,0,0,1,700,64.14c6.86-4.73,15.43-10.07,21.44-11.83C722.66,52,724,51.65,725.26,51.4Zm27.51,32.65a64.22,64.22,0,0,1-9.74-8.8,134.89,134.89,0,0,1,21.43-8.45l3,7.44C763.1,77,758.16,80.22,752.77,84.05Zm-5.38,3.79c-.5.33-1,.66-1.48,1l-21.52,7.53a26.59,26.59,0,0,1-10.82-1.39l-.6-.73A167.85,167.85,0,0,1,739.65,77C743.4,82.54,746.49,86.66,747.39,87.84ZM781.83,66c-.35-.89-.68-1.76-1-2.59q3.66-.43,7.35-.53S785.89,63.86,781.83,66ZM750,50.6a166.82,166.82,0,0,0-18,8.75,86.7,86.7,0,0,1-3.88-8.43A107.56,107.56,0,0,1,750,50.6ZM696.31,66.75A42.55,42.55,0,0,1,694.72,75a16.61,16.61,0,0,1-6-2.61S691.85,70,696.31,66.75Zm-40.7-10.6c6.4-1.93,11.71-4,11.71-4s-3.79,2.93-9.08,7.72C657.41,58.75,656.52,57.49,655.61,56.15ZM762.89,170.93c-11.12,3.07-23.06-2.57-23.06-2.57,3.32-6.89-7.79-25.51-7.79-25.51l-2.3,1.53s16.73,27.3.9,22.45c-8.83-2.71-23.78-8.27-35.27-12.67,19.29-7.83,43.91-16.58,70-18.91a134.76,134.76,0,0,0-34.91-1.5,242.59,242.59,0,0,1,27.58-9.6,198,198,0,0,1,19.82,9.23c18.89,10.21,23.49,12.26,23.49,12.26s3.92,5.76,3.92,7.81S774,167.87,762.89,170.93Zm71.41,7.9c-5.88,1.79-17.11-35-28.34-56.43-1.1-2.08-2.26-4.45-3.48-7a178.66,178.66,0,0,1,25.53-.79C832.8,143.76,837.64,177.81,834.3,178.83ZM797.35,104c-1.07-2.47-2.16-5-3.24-7.57a139.53,139.53,0,0,1,16.34-1.35s-7.46-1.41-17.87-2.32c-.47-1.13-.94-2.25-1.4-3.38a237,237,0,0,1,32.7,1c1,5.41,2.06,11.74,3.19,18.5A232.83,232.83,0,0,0,797.35,104Zm43.07-2.55a78.27,78.27,0,0,1-.57-8.76c2.62.5,5.25,1.05,7.88,1.68C844.26,100.79,841.07,105.23,840.42,101.47Zm9.21-1.4q1.73-2.2,3.62-4.26,2.73.76,5.43,1.63c.13.93.25,1.86.38,2.77A81.1,81.1,0,0,1,849.63,100.07ZM898.94,139c-2.64,2.21-4.85,4.08-4.81,4.07s.63-2.85,1.59-7.44Q897.35,137.26,898.94,139Zm-14.81-4.32a79.31,79.31,0,0,1-2.91-12.08c2.34,1.88,4.7,3.86,7,5.94C886.43,134,884.92,136.62,884.13,134.66Zm13.23,113.87c-2.55,11.75-8,35.07-8,35.07-4.22-18.21-4.2-50.24-2.35-77.87a111.6,111.6,0,0,0,12.31,16.83C899.17,231.33,898.73,242.24,897.36,248.53ZM896,152.59a28,28,0,0,1,7.7-8.13,95.69,95.69,0,0,1,14.16,22.74A211.1,211.1,0,0,1,896,152.59Zm5.21-90.12c-6.27-1.07-13.48-2-21.62-2.77,1-2.67,1.95-5.31,2.77-7.72,6.61-.27,13.24-.29,19.59.08C901.84,55.24,901.58,58.75,901.22,62.47Z"/><path class="cls-3" d="M641.13,27.21s17.66,30.87,24.29,37.51,28.35,16.85,31.66,12.77,3.58-24.67,3.58-24.67h3.57s-1.78,17,0,23.65,16.26,22.72,16.26,22.72l30.64-10.72s-20.34-26.3-24.94-44.17,2-3.58,2-3.58,5.85,27.56,28.09,43.66,14.81-9.45,14.81-9.45l-8.94-22L779,49.91s19.15,51.32,30.38,72.77,22.47,58.21,28.34,56.42S824.23,73.42,824.23,73.42l-6.89-20.7,26.55-9.19s-1.53,49.28,0,58.21,17.36-28.32,17.36-28.32L848,41.23h7.4l10.21,29.62,6.13-1.28,9.19-27.32h8.17s-7.15,23.75-13,33.2-20.17,18.38-27.32,31.4,0,53.11,0,66.13,8.94.25,7.41,14.55-11.75,69.7-12.51,79.4,19.77,66.13,35.42,160.6H826.53s-13.28-145.28-14.3-152.94-7.91-1.53-.76-20.68S828.32,208.47,826,195.7s-14-36.77-14-36.77-24.26,8.94-45.45,15.83S675.38,151,675.38,151l7.41-2.81s35.49,14,51.32,18.89-1.79-23.48-1.79-23.48l1.14-.76a1.31,1.31,0,0,1,1.87.43c2.53,4.38,10.79,19.48,8,25.35,0,0,10.68,3.83,21.81.76s43-16.08,43-18.12-3.32-5.37-3.32-5.37-4.6-2-23.49-12.25a227.39,227.39,0,0,0-39.06-16.09l9.19-6.89s33.19,17.17,46.46,21.35l-13-22.62s9.87-9.45-16.12-12-44.9,4.34-44.9,4.34l-65.1-26.29-4.09-8.94L635.55,26.93Z"/><path class="cls-4" d="M915.13,44l-1.54,22.21s-15.87,77.07-16,77.08S911,132,911,132l5.11,8.52a28.22,28.22,0,0,0-18.55,15.83c-6,13.28-12.6,93.89-4.81,127.5,0,0,5.49-23.33,8-35.07s1.87-39.58,1.87-39.58l8.6,3.07s-4.61,21.36-2.82,31.74.43,3.75-5.78,29.53-4.94,53.11-4.94,53.11l2.3,28.08-16.59-9.19s-27.32-72-29.36-81.95,1.27-13.28,4.85-10.73a308.12,308.12,0,0,1,7.91-53.49c6.89-28.47,11.49-37.91,6.64-49.91s-9.06-32.82-12.19-58.16l18.57-.57s4.44,36,7.71,44.17,19.1-62.8,17.82-89.61S915.13,44,915.13,44Z"/><path class="cls-5" d="M853,335.19,840.15,267.7,836,273.83l11.6,72.39-15.13-72.39,18.6-53.69c2.31-13.8,4.43-26.71,5.06-32.61.58-5.41-.34-6.95-1.71-7.47L853,181.23l.78,6.28L832,249.83l18.21-62.13-2.89-4.94,1.44-9.78c0-13-7.15-53.11,0-66.13,3-5.45,7.24-10.17,11.59-14.53l-.1-1.47-14.12,13.62-2.22,7.15v-9.88a130.74,130.74,0,0,1-.67-15.35l-5.29,1.4v6.47l2.9,1.53L842,107.53l-2.21,4.94-.17,8.17-1.53-9,2-2.56-1.36-10.21-3.41-2.55-.68-9.88-3.57-.85,6.12,36.6,3.58,1.75L844.57,169l-5.78-41.88-3.24-2-7.49-40.51-1.92-.66c2.76,15.36,7.84,44.58,10.67,66.63L841.17,169l.85,22.47-6.81-6.13-5.68-16.89c-5.78-12.18-12.94-32.07-20.11-45.75-1.83-3.51-3.88-7.82-6-12.56l-6.83,1,2.84,7.15,4.65,2.56,17.87,36.93L801.17,122l-4.94-3.24-3.4-7.66-6.63.54,5.69,9.88,3,1.67,7.49,12.43-24.68-9.37-2-3.63c-3.42-1.61-6.79-3.24-9.88-4.76l-1,.22,6.55,7.82,22.39,8,11.11,10.32-15-10-20.17-6.38c3.84,1.73,7.82,3.67,11.75,5.79,18.89,10.21,23.49,12.25,23.49,12.25l6.72,3.32,14.64,21.45L825,174.59l12.93,23.15L821.42,252l6.13,15.32-.17,55-4.76-56-6.3-13.79,16.17-52.42-10.21-24.68,1.19-3.58-11.24-16-31.15,10.68-11.15,7.1C790.23,167,812,158.93,812,158.93s11.74,24,14,36.77-7.4,39.06-14.55,58.21-.26,13,.76,20.68,14.3,152.94,14.3,152.94h52.53c-11.76-71-26.27-120.46-32.44-144.81Z"/><path class="cls-6" d="M511.68,47.17a87.74,87.74,0,0,0-6.89-16.94H179.16a22.82,22.82,0,0,0-4.81-2.85h-7.49l-1.31,2.85H0V194.64c22.73-6.6,43.67-23.09,59.64-38.94,5.29,7.07,12.88,14.87,17.35,17.55,0,0,1.53,11-1,47.75s-5.87,43.15,3.83,55.4,3.57,29.62-3.58,61,21.2,89.3,21.2,89.3l49.74.36s-22.68-49.32-17.32-99.1c0,0,14-17.36,22.72-30.39s18.6-74.31,18.6-74.31l-2.3-.39s-5.19,31.85-7,35.53-10.38-14.21-10.38-14.21l-1.66,1.66s6.81,10.87,9,16-8.17,27.83-13.92,33.06-20.17,19.41-20.17,19.41-4.34-22.94-5.87-35.7-3.06-10.56,3.92-32.86,8.55-23.25,14.85-26.66,139-62.07,194.72-102.64c13.84,11.94,18.91,23,18.91,23A56.33,56.33,0,0,0,355,118.21c2.21,4.43,2.21,11.4,2.21,11.4a44,44,0,0,0,8.56-19.48c9.89-1.67,20.93-3.39,31.53-4.74C412.89,112,420,118.21,420,118.21A50.38,50.38,0,0,0,413,103.65c8.92-.8,16.78-1.12,22.38-.63v-2a1.64,1.64,0,0,0-1.57-1.65c-3.45-.16-12.31-.47-24.13-.17a84.51,84.51,0,0,0-15.47-14.45c3.66-1.42,7.32-2.68,10.87-3.68,41.27,13.6,44.42,38.36,44.51,42.25.19-27.79-12.76-44.94-12.76-44.94,15.15,12.43,17.78,22.13,17.78,22.13,3.91-17.7-8.59-35.58-8.59-35.58,35.58,5.62,60.42,11.79,60.42,11.79C505,74.85,504,75.06,504,75.06c7-2.88,9.37-8.78,9.5-15.38C513.53,59.68,514,58.23,511.68,47.17Zm-233.27,6a47.64,47.64,0,0,1,5,.49,97.49,97.49,0,0,1,27.41,16.38,21.24,21.24,0,0,1-1,6.22c-2.36,6.8-20.76-19-20.76-19l-2.43.25S297.61,73,302.35,77.26c-4.91-1.26-10.8-2.65-17.9-4.16-5.21-1.1-9.74-2.29-13.67-3.5a31.89,31.89,0,0,0,2.3-12Zm-5.54-.15a3.34,3.34,0,0,1-2.79,0C271.06,53.06,272,53.06,272.87,53.06Zm-10.72.42c.11,2.76-.24,5.33-1.49,7.05-.53.72-1.6,2.09-3.13,3.94-9.87-4.85-11.89-9-11.89-9C251.92,54.46,257.42,53.84,262.15,53.48Zm-93.48,15a19.29,19.29,0,0,0,4.2,2.11,45.93,45.93,0,0,0-6.3,1.79Q167.64,70.32,168.67,68.44Zm-51.54-27,1.1.27-1.32.68C117,42.06,117.06,41.75,117.13,41.43ZM52.22,95.37c-1.79,1.49-3.55,3-5.22,4.54a107,107,0,0,0-11.37,2.56c-.78-.76-1.56-1.54-2.35-2.32C38.35,96.86,45,92.74,52.11,88.81,52.15,91.07,52.19,93.27,52.22,95.37Zm-.77-47.25c.1,6.34.23,14.77.37,23.51A125.62,125.62,0,0,0,28.11,86.89c-1.55,1.31-3,2.48-4.36,3.54-3.76-3.92-7.12-7.51-9.49-10.06C20.9,71.38,33.26,57.47,51.45,48.12ZM28,104.89c-1.41.51-2.84,1.06-4.26,1.66,0,0,1.28-.91,3.48-2.41ZM8.45,89.19s.36-.67,1.07-1.83l8,7.52C4.62,103.07,4,96,8.45,89.19Zm-3.83,71-1.79-2.3a484.81,484.81,0,0,0,47.81-27.09c.87,3.55,1.33,7.68,2.26,11.6A251.06,251.06,0,0,1,4.62,160.17ZM59.09,68.1c-.52-8.79-1-16.89-1.37-22.92a88.85,88.85,0,0,1,42.35-6.6c-.48,3.46-1.13,8.1-1.87,13.49l-9.07,4.69A230.77,230.77,0,0,0,59.09,68.1ZM60,84.64A121.23,121.23,0,0,1,75.85,78s-7.22,4.71-15.58,11C60.2,87.55,60.11,86.1,60,84.64Zm.56,10.2A338.74,338.74,0,0,1,94.87,76c-.56,4.08-1.14,8.23-1.7,12.34a206.81,206.81,0,0,0-32.54,7.19C60.62,95.32,60.6,95.08,60.59,94.84Zm7,39.77c-1.89-2.73-3.48-6.47-4.63-12.3,16-11.61,24.61-20.65,29.19-26.55-1.26,9.18-2.46,17.87-3.41,24.89A201.77,201.77,0,0,1,67.59,134.61Zm7.87,7.32-1.76-1.32c7.28-8.42,12.45-15.4,14.88-18.8-.66,4.93-1.2,8.95-1.55,11.61C84.65,151.81,82.61,147.38,75.46,141.93Zm34.38,21.79c-19.4,55.49-23.15,84.09-23.15,84.09s0-38.81,8.51-61.28,4.43-24.85,4.43-24.85,6.14-54.5,12.43-93.32a366.51,366.51,0,0,1,43-15C142.35,81.82,122.33,128,109.84,163.72ZM123,187c-1.5-9,20.21-66.91,38.38-104.32a167,167,0,0,0,52.16-2.92l.23-.06-.23.06c-10.93,2.54-28,14.28-28,14.28A274.84,274.84,0,0,1,237,87.55c-13.59,14.32-30.29,30-42.6,35.66l-2-9.47s.25-2.68-6.64,2.43c0,0,3.24,8.63-4.94,15.37s-4.85,8.78-10.72,15.16S125,199.3,123,187Zm167.1-87.32c-1.15,5.87,2.17,19.66-3.19,24.26s-119.23,60.76-128.42,63.57c-7.76,2.37,65.68-72.45,94.69-99.77a157.58,157.58,0,0,1,39.65,7A14.21,14.21,0,0,0,290.05,99.72Zm7.79,18.64s.35-15.88,1.72-21.19a118.62,118.62,0,0,1,18.47,9C307.61,112.68,297.84,118.36,297.84,118.36Zm14.88-38.21.18-.09c1.3-.46,1.38-3.56,1-7.33A82.9,82.9,0,0,1,325,84.85S322.45,83.12,312.72,80.15ZM347,78.1a58.22,58.22,0,0,0-11.53-5.76c-10.21-14-27.32-24.26-27.32-24.26s18.38.26,27.32,8.17c6,5.3,10.25,14.14,12.41,19.41C347.63,76.49,347.34,77.31,347,78.1Zm34.3-2.72-1.07.71c-1.65-.85-2.63-1.28-2.63-1.28C378.9,75,380.13,75.18,381.34,75.38ZM366.19,103a31.46,31.46,0,0,0-.52-4.52l3.69-2c5.59,1.32,10.68,2.76,15.28,4.26C378.67,101.23,372.47,102,366.19,103Zm21.56-22.6c-1.39-.87-2.69-1.64-3.87-2.31l2.44-1.77q3.66.7,7,1.51Q390.62,79,387.75,80.35Z"/><path class="cls-7" d="M889.08,188.38l-5.87-6.64-6,15.83,3.41,7L877.59,242,883,256.64l1.77,62.12-5.75-60.25L873,245.4l5.11-38.3L875,201.32l8.68-46.3L874,144l-9.09-28.24c2.5,14.23,5.4,25.9,8.58,33.77,4.85,12,.25,21.44-6.64,49.91a315.1,315.1,0,0,0-7.41,46.19l9.2-28.78,6.21-12.26-7.47,53.29-5.64,13.61,24.17,65.18-31.82-73c2,9.95,29.36,81.95,29.36,81.95l16.59,9.19-2.3-28.08s-1.27-27.32,4.94-53.11c5.62-23.35,7.27-20.11,6.2-27l-12.24,35.94L906,244.72V218.85l-3.24-.28c0,9.18-.35,22.87-1.95,30.24-1.07,4.9-2.64,11.81-4.12,18.21l-3,20.26,1.54,3.82v26.47l-2.51-25-4.47-3.06-1.62-31.83,2.59-11.42c-.19-12.81.25-26.51,1.08-39.32l-8.83,34.57Z"/><path class="cls-8" d="M5.46,87.19S40.43,120,44.52,125s3.32,15.32,6.64,23,16.09,21.95,22.47,25.78c0,0,1.53,11-1,47.75s-5.88,43.15,3.83,55.4,3.57,29.62-3.58,61,21.19,89.3,21.19,89.3l48.54.07s-21.47-49-16.11-98.81c0,0,14-17.37,22.72-30.39s22-74.8,22-74.8l-2.3-.39s-7.4,32.58-9.19,36.27-8.17-15-8.17-15l-1.66,1.66s3.45,11.36,5.62,16.47-8.17,27.83-13.92,33.06-20.17,19.41-20.17,19.41S117,291.87,115.5,279.1s-3.06-10.55,3.92-32.85,8-23.83,14.29-27.23,143-64.62,198.47-105.19c0,0,76.94-14.9,103.24-12.6V100a2.29,2.29,0,0,0-2.31-2.29c-9.62.07-47.73.83-82.21,7.9,0,0,42.87-29.7,65.88-28.59S422.65,68,422.65,68s-31.92,4.6-64.6,28.6c0,0,26.81-23.49,39.32-28.6s8.94-8.94,8.94-8.94S363.22,82.18,350.9,97.4s13.28-46.21,13.28-46.21l-11-4.85s-8.68,35.74-14.81,43.15-43.91,29.36-43.91,29.36.36-16.42,1.79-21.45,9.7-15.57,13.27-16.85,1.28-23.23,1.28-23.23l-1.28.25s.58,12.6-1.78,19.41-18.64-19.66-18.64-19.66l-2.43.25s8.56,17.36,12.9,20.68-11.75,16.09-12.9,22,2.17,19.66-3.19,24.26S164.27,185.23,155.08,188,250.82,85.15,260.52,78.76s9.19-20.68,9.19-20.68l15.83-13-3.83-4.34s-2,7.66-11.49,12.51-5.36-19.4-5.36-19.4L255.67,40S261.48,55.28,257.3,61s-43,52-66.22,62.68l.51-9.7s0-2.81-6.9,2.3A19,19,0,0,1,177.54,132c-8.17,6.73-4.85,8.78-10.72,15.16s-45.19,52.6-47.23,40.34S158.9,71.36,175.25,53.74,171,27.87,171,27.87H163.5s-37.62,80.85-57,136.34S83.33,248.3,83.33,248.3s0-38.81,8.51-61.28,4.43-24.85,4.43-24.85S109.54,44.38,117,31.79l-19.4.68s-11.58,83.06-14,101.44-4.42,14-11.57,8.51-12.94-8.51-14.3-36.08-4.09-71.12-4.09-71.12l-5.78,2.35s1,69.45,1.36,77.62S7.31,77,7.31,77Z"/><path class="cls-9" d="M435.42,101.23V100a2.29,2.29,0,0,0-2.31-2.29c-9.62.07-47.73.83-82.21,7.9,0,0,42.87-29.7,65.88-28.59S422.65,68,422.65,68s-31.92,4.6-64.6,28.6c0,0,26.81-23.49,39.32-28.6s8.94-8.94,8.94-8.94S363.22,82.18,350.9,97.4s13.28-46.21,13.28-46.21l-11-4.85s-8.68,35.74-14.81,43.15c-3.46,4.19-17.06,13-28.21,19.92,23.39-2.68,6,15.24,5.82,15.42,5.91-3.79,11.36-7.48,16.18-11C332.18,113.83,409.12,98.93,435.42,101.23Z"/><path class="cls-10" d="M104.42,97.54c4.14-29.72,9-59.74,12.61-65.75l-19.4.68s-6.82,48.9-11.06,80C90.47,96.46,104.42,97.54,104.42,97.54Z"/><path class="cls-11" d="M296.93,95.68c2.43-5.39,9.41-14,12.61-15.13,3.58-1.27,1.28-23.23,1.28-23.23l-1.28.25s.58,12.6-1.78,19.41-18.64-19.66-18.64-19.66l-2.43.25s8.56,17.36,12.9,20.68c3.85,3-8.39,13.34-12,19.75C296.78,91.53,297.41,93.71,296.93,95.68Z"/><path class="cls-12" d="M157.16,84.89c7-14.54,13.51-26.22,18.09-31.15C191.59,36.13,171,27.87,171,27.87H163.5s-12.57,27-26.93,60.54C154.39,72.89,157.15,84.86,157.16,84.89Z"/><path class="cls-13" d="M74.37,144.23c-.7-.57-1.45-1.18-2.27-1.81C65,137,59.16,133.91,57.8,106.34s-4.09-71.12-4.09-71.12l-5.78,2.35s1,69.45,1.36,77.62S7.31,77,7.31,77L5.46,87.19S40.43,120,44.52,125s3.32,15.32,6.64,23c1.94,4.47,7.09,11.19,12.31,16.78C56.9,152,74.37,144.23,74.37,144.23Z"/><path class="cls-14" d="M236.93,100.62C248.84,89,258,80.44,260.52,78.76c9.7-6.38,9.19-20.68,9.19-20.68l15.83-13-3.83-4.34s-2,7.66-11.49,12.51-5.36-19.4-5.36-19.4L255.67,40S261.48,55.28,257.3,61c-2.35,3.23-15.64,19.24-31,34.55C251.15,83.41,236.93,100.62,236.93,100.62Z"/><polygon class="cls-15" points="839.67 383.62 850.19 390.66 830.16 406.88 475.25 410.54 836.75 391.37 839.67 383.62"/><path class="cls-16" d="M216.11,166.55,198.39,185l-65.88,23.7,63.16-26.09,18-18,60.4-34.69c-15.88,8.47-48.59,24.82-75.8,38.06l-22,16-30,11.94,7.49-17.78,16.88-9.85c8.79-9.52,20.26-21.46,32.08-33.51l28.66-33.19-28.34,24.51,23.27-30.51c-11.93,11.93-25.1,23.43-35.27,28.13l.51-9.7s0-2.81-6.9,2.3a18.8,18.8,0,0,1-4.8,13.45l11.36,1.44-42.73,43.57-10.38,23.49-17,10.43-16,37.57,6.81,34.05-2.39,9,6.13,62.78L99.33,396l-16-29.53,24.85-86.12L101,247.62l12.84-38.94L108.18,200l7.15-30.73,17.18-35,6.56-8c12.41-30.82,27.68-63.33,36.18-72.5,4.53-4.88,6.21-9,6.29-12.51H157.39c-6.74,14.85-18.1,40.31-29.29,67.25l-8.51,29L131.33,123l-20.08,46.21L92.86,249.32l7.49,28.56L82.11,331.5l11.77-54.61L87,251.7l5.41-43c-7.32,26.22-9.08,39.62-9.08,39.62s0-38.81,8.51-61.28,4.43-24.85,4.43-24.85,3.62-32.14,8.15-64.63l-10.2,46.69-6.46,12.15,3.69,7.83-8.12,34.38,2.38-33.7L82,158.4l5.79-11.55L91.45,77c-3.17,22.88-6.6,47.83-7.78,56.93-2.38,18.39-4.42,14-11.57,8.51-3.88-2.95-7.36-5.21-9.94-11l5.54,14.4,15.63,20.78-4.08,54.13V169.23s-22.81-15.91-25.2-19.32-6.46-17.29-6.46-17.29c1,4.88,1.52,10.62,3.57,15.34,3.32,7.66,16.09,21.95,22.47,25.78,0,0,1.53,11-1,47.75s-5.88,43.15,3.83,55.4,3.57,29.62-3.58,61,21.19,89.3,21.19,89.3h48.63s-21.55-48.93-16.2-98.7l-6.84,23.54,5.09-37.73,13.62-15.94c-6.66,6.3-17,16.43-17,16.43S117,291.87,115.5,279.1s-3.06-10.55,3.92-32.85,8-23.83,14.29-27.23c6-3.25,130.77-59.15,190.39-99.52l8.08-5.67-16.68,1.36Z"/><path class="cls-17" d="M506.14,27.21H1.35V191.62c49.26-14.3,90.15-75.07,90.15-75.07C53,146.42,6,157.15,6,157.15l-1.79-2.3c85-42.64,94.21-70,94.21-70a202.4,202.4,0,0,0-38.8,8.43C110.9,60.38,163.25,48.64,163.25,48.64c-3.32,14.29,11,18.89,11,18.89-12.51,2.55-22.46,10.72-22.46,10.72,33,5.58,60.39-.81,63.08-1.47l.24-.06-.24.06c-10.93,2.54-29.38,17.3-29.38,17.3,136.17-34,167.15,42.39,167.15,42.39a56.33,56.33,0,0,0,3.74-21.28c2.21,4.43,2.21,11.4,2.21,11.4,13.79-18.55,7.66-34.21,7.66-34.21,38.47,8.17,52.77,23,52.77,23-8-28.26-40-43.57-40-43.57,67.46,9.84,70.53,44.4,70.64,49,.19-27.78-11.41-45.44-11.41-45.44C453.37,87.79,455.08,98,455.08,98c3.91-17.7-7.66-36.09-7.66-36.09,35.57,5.62,59.06,14.81,59.06,14.81a16.21,16.21,0,0,0-3.4-3.06C524,65,506.14,27.21,506.14,27.21ZM48.35,96.89a110.54,110.54,0,0,0-23.23,6.64S55.25,82.08,77.2,74.93C77.2,74.93,60.35,85.91,48.35,96.89ZM90.48,53.74s-38,10.73-61,30.13S4.39,94.44,9.8,86.17c0,0,36-66.64,109.79-47.49ZM285.8,70.08C252.1,62.93,247,52.47,247,52.47c25-4.09,37.79-1.79,37.79-1.79a98.29,98.29,0,0,1,41.61,31.15S319.5,77.23,285.8,70.08Zm51.06-.76c-10.21-14-27.32-24.26-27.32-24.26s18.39.26,27.32,8.17S350.9,77,350.9,77C345.54,72.38,336.86,69.32,336.86,69.32Z"/><path class="cls-18" d="M845.8,119.81c.38-5.34,1.26-9.9,2.94-13C852,101,856.63,96,861.32,91.33c5.74-5.65,11.51-10.69,14.74-15.88,5.87-9.45,13-33.2,13-33.2h-8.17l-9.19,27.32-6.13,1.28L855.38,41.23H848l13.27,32.19s-15.83,37.26-17.36,28.32,0-58.21,0-58.21l-26.55,9.19,6.89,20.7s4.41,23.62,8.39,48.52C836.2,118.75,841.36,115.84,845.8,119.81Z"/><path class="cls-17" d="M823.64,57.66s71.77-15.92,105.59-2.9V27.21H656.83s-15.32,11.38-21.45,24.66,33-1.83,33-1.83-64.11,49.41-33.67,75.7A55.43,55.43,0,0,0,623,144.13s10.72-5.88,20.94-7.41c0,0-13,14-11,27.07s22.21-9.45,22.21-9.45-6.89,10.21,4.09,11.23S714.19,137,765,135.19a85.6,85.6,0,0,0-33.45-3.57s66.9-30.9,122.81-13.54c0,0-25.11-17.1-85.57-17.87a116.22,116.22,0,0,1,41.66-5.11s-24-6.89-46.47-4.59c0,0,9.44-6.13,26.55-7.92a31.07,31.07,0,0,0-11.74,5.62s47.49-5.88,87.32,9.32a73.2,73.2,0,0,1-19.41,0s54.38,25.92,72.26,67.53c0,0-28.09-16.08-33.71-26.81,0,0-8.17,15.58-4.59,32.17a38.05,38.05,0,0,1-1.53-22.72s-13.43,18.64,8.47,55.15,41.63,34,41.63,34V66.9C919.4,63.51,882.54,52.75,823.64,57.66ZM689.85,70.25S711,53.57,722.53,50.17s28.6-1.7,28.6-1.7a170.07,170.07,0,0,0-33.71,18.72C701.08,79.1,689.85,70.25,689.85,70.25Zm61.28,13.62c-22.47,16.34-37.45,8.51-37.45,8.51s36.43-30.62,75.57-31.65C789.25,60.73,773.59,67.53,751.13,83.87Z"/><path class="cls-17" d="M226.31,79.79s-8.68,111,20.68,127.66S265.12,65.93,265.12,65.93h-1.71s6.09,135.64-12.59,139.76S232.44,97.66,235.16,77,226.31,79.79,226.31,79.79Z"/><path class="cls-17" d="M246.17,77s-2.13,74.39,25.09,76.56S292.69,41.23,292.69,41.23h-2.38s3.74,101.19-17.7,107.66-19.24-83-19.24-83Z"/><path class="cls-17" d="M43.5,113.17s4.14,99.72-42.19,123.89v6.12s49-22.8,45.25-125.61Z"/><path class="cls-17" d="M769.17,119.77s-1.7,76.14,19.4,80.2,32-130.4,32-130.4h-3.06S813.92,175.4,791,193.43,772.57,23.28,772.57,23.28h-3.43Z"/><path class="cls-17" d="M853.48,87.28s-11.46,186,75.75,186.55v-3.07s-77.34,14.3-69.62-185.19Z"/><path class="cls-17" d="M487.65,7.28S472,170.35,571.78,168.64c107.45-1.83,99.59-148.42,99.59-148.42l-.73,76.93s-6.65,91.24,36.13,91.24S737.93,19.33,737.93,19.33l-3.6-.81s11.89,154.89-26.61,165.1S679,78.52,679,78.52l-8.57-62L666,17.94s7.06,141.88-88.09,146.86S490.5,0,490.5,0L480.38,4.9Z"/></g></g></g></svg>