<svg xmlns="http://www.w3.org/2000/svg" xmlns:xlink="http://www.w3.org/1999/xlink" viewBox="0 0 925.67 223.11"><defs><style>.cls-1{isolation:isolate;}.cls-2{mix-blend-mode:screen;opacity:0.61;}.cls-3{fill:url(#Áåçûìÿííûé_ãðàäèåíò_284);}.cls-4{fill:url(#Áåçûìÿííûé_ãðàäèåíò_284-2);}.cls-5{fill:url(#Áåçûìÿííûé_ãðàäèåíò_284-3);}.cls-6{fill:url(#Áåçûìÿííûé_ãðàäèåíò_284-4);}.cls-7{fill:url(#Áåçûìÿííûé_ãðàäèåíò_284-5);}.cls-8{fill:url(#Áåçûìÿííûé_ãðàäèåíò_284-6);}</style><linearGradient id="Áåçûìÿííûé_ãðàäèåíò_284" x1="340.68" y1="-109.11" x2="585.56" y2="315.05" gradientUnits="userSpaceOnUse"><stop offset="0"/><stop offset="1" stop-color="#a71afe"/></linearGradient><linearGradient id="Áåçûìÿííûé_ãðàäèåíò_284-2" x1="95.61" y1="99.79" x2="161.07" y2="213.16" xlink:href="#Áåçûìÿííûé_ãðàäèåíò_284"/><linearGradient id="Áåçûìÿííûé_ãðàäèåíò_284-3" x1="726.52" y1="-53.19" x2="820.98" y2="110.4" xlink:href="#Áåçûìÿííûé_ãðàäèåíò_284"/><linearGradient id="Áåçûìÿííûé_ãðàäèåíò_284-4" x1="874.71" y1="196.22" x2="884.62" y2="213.38" xlink:href="#Áåçûìÿííûé_ãðàäèåíò_284"/><linearGradient id="Áåçûìÿííûé_ãðàäèåíò_284-5" x1="638.83" y1="133.64" x2="712.59" y2="261.4" xlink:href="#Áåçûìÿííûé_ãðàäèåíò_284"/><linearGradient id="Áåçûìÿííûé_ãðàäèåíò_284-6" x1="446.25" y1="135.85" x2="479.21" y2="192.94" xlink:href="#Áåçûìÿííûé_ãðàäèåíò_284"/></defs><g class="cls-1"><g id="Layer_2" data-name="Layer 2"><g id="L3"><g class="cls-2"><path class="cls-3" d="M0,87.58c11.86-5.34,24.27-9.74,35.46-16.23,19.53-11.3,38.22-24,57.42-35.91,21.83-13.5,44.47-25.36,69.66-31.34C187.89-1.92,213-2,237.41,8.51c13.82,6,29.65,19.39,36.44,30.91-1.88-1.75-3-2.7-4-3.73-24.3-24.67-54-32.43-87.53-27.63-26.25,3.76-49.11,15.65-70.37,30.71C96,50.09,80.63,62.3,65,74.06c-5.53,4.16-11.17,8.16-16.49,12.81l3.75-2C73,74.2,93.33,62.69,114.52,53c24.21-11.09,49.84-17.89,76.65-19.11,19-.87,37.56,1.76,54.91,10C269.73,55.1,278.22,77,268.25,101.32c-2.47,6-6.12,11.61-9.22,17.39,4-3.32,7.87-6.85,12-10,19.32-14.82,41.55-21.06,65.54-20.87,15.77.12,31.55,1.35,47.31,2.31a114.78,114.78,0,0,0,71.7-19.22C469,62.07,481.81,52.3,495.13,43.34a278.06,278.06,0,0,1,26-15.89c27.72-14.56,56.09-15,84.44-2,30.08,13.78,55.85,33.66,78.17,57.91,22.11,24,48.73,35.94,81.35,29.8a114.48,114.48,0,0,0,50.79-23.29C823,84.17,822,78,813.67,74.32a41.94,41.94,0,0,0-10.86-3c-5.6-.82-10.31.87-13.23,6.21a33.87,33.87,0,0,1-3,3.93c.19-7.38,3.44-12.39,10.2-13.43,7.55-1.15,15.4-1.9,22.94-1.1,12.9,1.36,20.11,15,14.47,26.72-2.08,4.33-5.84,7.88-9,11.66-1.21,1.44-2.88,2.51-4,4.33,1.27-.53,2.58-1,3.8-1.62,16.77-8.73,33.57-17.42,50.29-26.26,15.25-8.05,30.54-15.94,47.36-20.32,1-.26,2-.36,3-.54V84.45c-19.74,5.32-38.17,14-56.73,22.32-24.26,10.86-49.07,20-75.6,23.44-10.6,1.38-21.39,1.49-31.94,3.17-25.91,4.11-49.85-.45-71.88-14.76-3.45-2.24-6.83-4.6-10.25-6.9a324.77,324.77,0,0,0,24,23.4c23.46,20.73,50.89,30.72,82.24,29.68a178.26,178.26,0,0,0,75.89-19.73c22.89-11.68,43.22-27.32,64.28-41.81V115.8c-21.48,13.84-42.21,28.94-65.58,39.62-25.79,11.78-52.8,17.8-81.25,16.88-30.25-1-56.69-11.79-78.48-32.5-15.39-14.63-29.16-31-44-46.13-14.14-14.44-31-24.61-50.83-29.32a4.22,4.22,0,0,0-1.9,0c11.75,4.17,22.43,10,31,19.19,11,11.82,18,25.47,16.56,42-1.54,18-11.92,30.12-28,37.06-19.81,8.56-40.16,8.33-60.27.87-10.12-3.76-17.68-10.92-23.07-20.29-5.68-9.86-5.58-19.75.7-29.19,10.08-15.15,24.44-23,42.58-24.14,2.65-.16,5.29-.51,7.93-.77,5.1,1.55,10.31,2.79,15.26,4.71,8.21,3.18,15.3,8,19.41,16.16,6.11,12.12,0,24.7-13.29,27.2a44.16,44.16,0,0,1-22.77-2c-4.3-1.48-8-4-10.09-8.19a24.38,24.38,0,0,1-1.32-4.7l1-.29c.41.76.87,1.49,1.22,2.28,2.28,5.28,6.58,8.2,12,7.72A35.5,35.5,0,0,0,605.58,128c5.46-2.92,5.68-6.84,1.48-11.48-4.53-5-10.33-7.94-16.71-9.73-16.51-4.61-31.35-2.11-43.35,11-6.62,7.2-7.75,15.45-3.5,24.28,4.83,10.08,12.53,17.25,23.38,19.91,22,5.4,42.37,1.32,60.11-12.85,13.27-10.61,16.31-25.27,9.3-40.82s-18.63-26.42-34-33.12c-23.86-10.4-48.61-11.42-73.56-4.84-8.16,2.15-15.83,6.14-23.08,9,1.9-1.34,4.39-3.36,7.12-5,16.35-9.71,34.34-13.76,53.1-14.11,10.79-.19,21.6,1.3,32.4,1.38A95.87,95.87,0,0,1,627.5,66.2C641,70.6,653,78,665,85.49c11,7,22.09,13.89,33.41,20.37,5.2,3,11,4.86,16.21,7.07-10.66-8.57-21.66-17-32.22-26-23.6-20-48.67-37.73-76.9-50.7-29.1-13.37-57.63-12.81-85.44,3.55-8,4.7-15.76,9.74-23.47,14.86C485,62.3,473.86,70.49,462.18,77.88c-23.16,14.66-48.45,21.77-76,19.7-11.32-.86-22.6-2.22-33.9-3.38-19.9-2-39.63-2.08-58.74,5.08a96.85,96.85,0,0,0-29.1,17,5.5,5.5,0,0,0,2.24-.44c23.53-8.91,47.78-11.31,72.36-6.26,15.29,3.14,30.25,7.92,45.32,12.08,10.3,2.84,20.67,4.83,31.28,2.2,20.44-5.06,39.23-13.41,54.63-28.25a31.43,31.43,0,0,1,17.54-9c-2.13,3.24-4.59,6.61-6.65,10.2-3,5.32-5.66,10.88-8.67,16.22-15.14,26.77-47.18,42-77.53,36.6-7-1.23-13.74-3.35-20.6-5.07,12,6.53,23.95,13.81,36.92,17.58,27.37,7.94,52.32,2.73,72.13-19.17,6.73-7.45,12.74-15.55,19.05-23.38,11.29-14,24.76-25.42,41-33.25,14.26-6.86,28.58-7.27,42.76.43-3.75-1-7.46-2.28-11.25-3.1-10.12-2.21-19.75-.33-28.9,4.15-17.32,8.49-31.47,20.81-43.19,36.07-6.51,8.49-12.78,17.22-19.91,25.18-23,25.69-61.53,32.27-91.53,15.32a466.89,466.89,0,0,1-40.89-26.1c-14.47-10.3-30.43-14.63-48-15.41,5.06,1.32,10,2.35,14.73,3.93s9.45,3.7,14.12,5.69c15.82,6.78,21.94,30.46,11.39,44.06A21.66,21.66,0,0,1,327.52,185c-15,1.6-26.89-4.9-37.43-14.78,8.78,4.75,17.9,8,28.47,7.24l-9.65-8.64c4.7,1.08,8.39,2.38,12.16,2.68,4.81.37,6.76-2.28,5.47-6.94-2.08-7.55-6.78-12.94-13.63-16.85-9.6-5.48-20-8.06-30.77-9.62-23.89-3.47-46.09.42-65.45,15.64-6.87,5.4-13.26,11.41-19.81,17.21-9.45,8.36-20.16,14.41-32.47,17.33-17,4-33.74,3.16-49.57-4.88-22.28-11.31-27.36-34.2-12.22-54.13,7.09-9.31,15.95-15.5,30.89-22.46-5.51.76-11,1.32-16.52,2.32C98.46,112.5,81.56,120.48,64.5,128c-15.16,6.7-30.35,13.46-47,15.52-5.76.72-11.66.35-17.49.48v-1.57c19.21-.75,36.31-7.82,52.46-17.61,8.82-5.34,17.24-11.34,26.17-16.47,11.4-6.56,22.82-13.24,34.79-18.6,15.71-7,32.37-10.38,49.64-6.8,14.81,3.07,26.65,10.38,31.27,25.72,6.82,22.62-12.76,49.06-36.85,50.24-5.46.27-10.73-.21-15.28-3.62-3.58-2.68-4.54-5.82-2.91-9,1.77,4.5,4,6.68,8.9,7.91,10.26,2.56,19.44-.07,27.37-6.76,4.2-3.54,5.6-8.49,4.41-13.86-1.42-6.42-5.39-11.27-10.5-16.09,4.35,13,3.45,22.49-2.63,27,.58-1,1-1.65,1.33-2.32,5.68-10.89-.12-24.13-12-26.81a31,31,0,0,0-11.23-.57c-15.72,2.36-27.8,10.71-36.7,23.69A24.14,24.14,0,0,0,104,155.59c1.43,11.08,8.39,18,17.71,22.85,16,8.23,32.57,8.28,49.41,2.8,12-3.91,21.36-11.8,30.25-20.37,9.23-8.9,18.78-17.36,30.21-23.46a59.2,59.2,0,0,0,9.87-6.75,66.57,66.57,0,0,0,22.22-35.57c5-19.44-2.25-35-20.26-43.73-11.92-5.79-24.68-8.34-37.79-9.21-20.05-1.32-39.52,2.15-58.75,7.48C118.71,57.42,93,70.57,67.52,84.48c-17.6,9.62-35.8,18.16-53.86,26.9-4.27,2.06-9.09,3-13.66,4.42Zm248.13,42,46.44-10.13C278.33,119.42,262.33,120.53,248.13,129.59Z"/><path class="cls-4" d="M0,155c19.52-4.79,39-5.14,58.36.78a63.28,63.28,0,0,1,30.72,20.94c-19.53-15.53-42-13.8-64.62-11.24,12.36,3.3,22,11.07,32,18.48,13.23,9.89,27,18.91,43.11,23.38,21.53,6,42.49,3.28,62.62-5.76,22.67-10.17,42.88-24.24,61.63-40.46,7.57-6.54,15.54-12.33,25.72-14.19a26.89,26.89,0,0,1,16.16,1.52c-18-4.06-30.63,5.29-42.32,16.88-.1.09-.18.19-.28.27-13.23,11.23-26,23-39.79,33.54-17.17,13.1-36.61,21.32-58.43,23.5-19.79,2-38.23-2.29-55.45-11.61a272.31,272.31,0,0,1-28.75-18.19c-10.66-7.64-22-12.22-35.26-12A30.54,30.54,0,0,1,0,180.07Z"/><path class="cls-5" d="M925.67,50c-8.44-3.37-16.72-7.29-25.37-10-30.41-9.6-60.26-6.68-89.57,5-13.69,5.43-27.33,11-41.06,16.33C736.81,74,705.27,70.73,675.72,52c-13.38-8.51-25.72-18.7-38.38-28.32A192.83,192.83,0,0,1,619.8,8.43c1.08.66,2.19,1.29,3.26,2,14.7,9.45,29.22,19.2,44.15,28.29A126.28,126.28,0,0,0,706.6,54.53c17.48,3.75,34.56,1.81,51.18-4.3,14.8-5.43,29.38-11.47,44.19-16.89C843.92,18,884.2,22.13,922.86,44.14a22.23,22.23,0,0,0,2.81,1.12Z"/><path class="cls-6" d="M925.67,189.48c-2.57,1.47-5.2,2.84-7.69,4.42-19.46,12.34-40.2,21.48-63.15,24.87-8,1.17-16,1.76-23.63,2.57,12-2.32,24.47-4.11,36.6-7.21,20.11-5.15,37.58-15.85,54.29-27.83,1.15-.83,2.38-1.54,3.58-2.31Z"/><path class="cls-7" d="M560.9,178.63a45.49,45.49,0,0,0,20.79,11.62,46.52,46.52,0,0,0,32.39-3.56c7.57-3.78,14.73-8.39,22.21-12.36,8.16-4.35,16.3-8.83,24.78-12.49,17.85-7.7,35.58-6.71,52.91,2,13.73,6.93,25.82,16.23,37.59,26,2.71,2.25,5.43,4.5,8.09,6.81,9.29,8.12,19.17,15.24,30.86,19.73-4.47-1.59-9.12-2.82-13.4-4.83-12.27-5.76-24.32-12-36.59-17.74-10.38-4.86-20.85-9.56-31.48-13.85-13-5.26-26.21-4.94-39.39-.17-13,4.71-25.88,9.76-39.09,13.74-18.41,5.55-36.68,3.6-54.43-3.38A32.69,32.69,0,0,1,560.9,178.63Z"/><path class="cls-8" d="M383.31,172.19c4.95,3,9.75,6.3,14.87,9,21.3,11.12,42.56,11.17,63.39-1.2,8.75-5.19,17.12-11,25.69-16.5,9.37-6,18.95-11.57,30.12-13.55,7.78-1.38,15.36-1.09,22.24,3.45a15.76,15.76,0,0,1,3.26,2.81c-5.52-1.76-10.69-.66-15.38,1.94-9.35,5.18-18.53,10.65-27.69,16.14-9.83,5.91-19.22,12.66-29.41,17.85-22.79,11.6-45.39,10.28-66.9-3.61-7.25-4.68-13.86-10.37-20.76-15.6Z"/></g></g></g></g></svg>