<svg xmlns="http://www.w3.org/2000/svg" xmlns:xlink="http://www.w3.org/1999/xlink" viewBox="0 0 822.36 383.86"><defs><style>.cls-1{isolation:isolate;}.cls-2{fill:#ffa1fe;}.cls-11,.cls-12,.cls-13,.cls-14,.cls-15,.cls-16,.cls-17,.cls-18,.cls-19,.cls-20,.cls-21,.cls-22,.cls-23,.cls-24,.cls-25,.cls-26,.cls-27,.cls-28,.cls-29,.cls-3,.cls-30,.cls-31,.cls-32,.cls-33,.cls-34,.cls-35,.cls-36,.cls-37,.cls-38,.cls-39,.cls-4,.cls-40,.cls-41,.cls-42,.cls-43,.cls-44,.cls-45,.cls-46,.cls-47,.cls-48,.cls-49,.cls-50,.cls-51,.cls-52,.cls-53,.cls-54,.cls-55,.cls-56,.cls-57,.cls-58,.cls-59,.cls-6,.cls-60,.cls-61,.cls-62,.cls-63,.cls-64,.cls-65,.cls-66,.cls-67,.cls-68,.cls-69,.cls-7,.cls-70,.cls-71,.cls-72,.cls-73,.cls-74,.cls-75,.cls-76,.cls-77,.cls-78,.cls-79,.cls-8,.cls-80,.cls-81,.cls-82,.cls-83,.cls-9{mix-blend-mode:screen;}.cls-3{fill:url(#Áåçûìÿííûé_ãðàäèåíò_320);}.cls-4{fill:url(#Áåçûìÿííûé_ãðàäèåíò_320-2);}.cls-5{opacity:0.36;}.cls-6{fill:url(#Áåçûìÿííûé_ãðàäèåíò_320-3);}.cls-7{fill:url(#Áåçûìÿííûé_ãðàäèåíò_320-4);}.cls-8{fill:url(#Áåçûìÿííûé_ãðàäèåíò_320-5);}.cls-9{fill:url(#Áåçûìÿííûé_ãðàäèåíò_320-6);}.cls-10{opacity:0.5;}.cls-11{fill:url(#Áåçûìÿííûé_ãðàäèåíò_320-7);}.cls-12{fill:url(#Áåçûìÿííûé_ãðàäèåíò_320-8);}.cls-13{fill:url(#Áåçûìÿííûé_ãðàäèåíò_320-9);}.cls-14{fill:url(#Áåçûìÿííûé_ãðàäèåíò_320-10);}.cls-15{fill:url(#Áåçûìÿííûé_ãðàäèåíò_320-11);}.cls-16{fill:url(#Áåçûìÿííûé_ãðàäèåíò_320-12);}.cls-17{fill:url(#Áåçûìÿííûé_ãðàäèåíò_320-13);}.cls-18{fill:url(#Áåçûìÿííûé_ãðàäèåíò_320-14);}.cls-19{fill:url(#Áåçûìÿííûé_ãðàäèåíò_320-15);}.cls-20{fill:url(#Áåçûìÿííûé_ãðàäèåíò_320-16);}.cls-21{fill:url(#Áåçûìÿííûé_ãðàäèåíò_320-17);}.cls-22{fill:url(#Áåçûìÿííûé_ãðàäèåíò_320-18);}.cls-23{fill:url(#Áåçûìÿííûé_ãðàäèåíò_320-19);}.cls-24{fill:url(#Áåçûìÿííûé_ãðàäèåíò_320-20);}.cls-25{fill:url(#Áåçûìÿííûé_ãðàäèåíò_320-21);}.cls-26{fill:url(#Áåçûìÿííûé_ãðàäèåíò_320-22);}.cls-27{fill:url(#Áåçûìÿííûé_ãðàäèåíò_320-23);}.cls-28{fill:url(#Áåçûìÿííûé_ãðàäèåíò_320-24);}.cls-29{fill:url(#Áåçûìÿííûé_ãðàäèåíò_320-25);}.cls-30{fill:url(#Áåçûìÿííûé_ãðàäèåíò_320-26);}.cls-31{fill:url(#Áåçûìÿííûé_ãðàäèåíò_320-27);}.cls-32{fill:url(#Áåçûìÿííûé_ãðàäèåíò_320-28);}.cls-33{fill:url(#Áåçûìÿííûé_ãðàäèåíò_320-29);}.cls-34{fill:url(#Áåçûìÿííûé_ãðàäèåíò_320-30);}.cls-35{fill:url(#Áåçûìÿííûé_ãðàäèåíò_320-31);}.cls-36{fill:url(#Áåçûìÿííûé_ãðàäèåíò_320-32);}.cls-37{fill:url(#Áåçûìÿííûé_ãðàäèåíò_320-33);}.cls-38{fill:url(#Áåçûìÿííûé_ãðàäèåíò_320-34);}.cls-39{fill:url(#Áåçûìÿííûé_ãðàäèåíò_320-35);}.cls-40{fill:url(#Áåçûìÿííûé_ãðàäèåíò_320-36);}.cls-41{fill:url(#Áåçûìÿííûé_ãðàäèåíò_320-37);}.cls-42{fill:url(#Áåçûìÿííûé_ãðàäèåíò_320-38);}.cls-43{fill:url(#Áåçûìÿííûé_ãðàäèåíò_320-39);}.cls-44{fill:url(#Áåçûìÿííûé_ãðàäèåíò_320-40);}.cls-45{fill:url(#Áåçûìÿííûé_ãðàäèåíò_320-41);}.cls-46{fill:url(#Áåçûìÿííûé_ãðàäèåíò_320-42);}.cls-47{fill:url(#Áåçûìÿííûé_ãðàäèåíò_320-43);}.cls-48{fill:url(#Áåçûìÿííûé_ãðàäèåíò_320-44);}.cls-49{fill:url(#Áåçûìÿííûé_ãðàäèåíò_320-45);}.cls-50{fill:url(#Áåçûìÿííûé_ãðàäèåíò_320-46);}.cls-51{fill:url(#Áåçûìÿííûé_ãðàäèåíò_320-47);}.cls-52{fill:url(#Áåçûìÿííûé_ãðàäèåíò_320-48);}.cls-53{fill:url(#Áåçûìÿííûé_ãðàäèåíò_320-49);}.cls-54{fill:url(#Áåçûìÿííûé_ãðàäèåíò_320-50);}.cls-55{fill:url(#Áåçûìÿííûé_ãðàäèåíò_320-51);}.cls-56{fill:url(#Áåçûìÿííûé_ãðàäèåíò_320-52);}.cls-57{fill:url(#Áåçûìÿííûé_ãðàäèåíò_320-53);}.cls-58{fill:url(#Áåçûìÿííûé_ãðàäèåíò_320-54);}.cls-59{fill:url(#Áåçûìÿííûé_ãðàäèåíò_320-55);}.cls-60{fill:url(#Áåçûìÿííûé_ãðàäèåíò_320-56);}.cls-61{fill:url(#Áåçûìÿííûé_ãðàäèåíò_320-57);}.cls-62{fill:url(#Áåçûìÿííûé_ãðàäèåíò_320-58);}.cls-63{fill:url(#Áåçûìÿííûé_ãðàäèåíò_320-59);}.cls-64{fill:url(#Áåçûìÿííûé_ãðàäèåíò_320-60);}.cls-65{fill:url(#Áåçûìÿííûé_ãðàäèåíò_320-61);}.cls-66{fill:url(#Áåçûìÿííûé_ãðàäèåíò_320-62);}.cls-67{fill:url(#Áåçûìÿííûé_ãðàäèåíò_320-63);}.cls-68{fill:url(#Áåçûìÿííûé_ãðàäèåíò_320-64);}.cls-69{fill:url(#Áåçûìÿííûé_ãðàäèåíò_320-65);}.cls-70{fill:url(#Áåçûìÿííûé_ãðàäèåíò_320-66);}.cls-71{fill:url(#Áåçûìÿííûé_ãðàäèåíò_320-67);}.cls-72{fill:url(#Áåçûìÿííûé_ãðàäèåíò_320-68);}.cls-73{fill:url(#Áåçûìÿííûé_ãðàäèåíò_320-69);}.cls-74{fill:url(#Áåçûìÿííûé_ãðàäèåíò_320-70);}.cls-75{fill:url(#Áåçûìÿííûé_ãðàäèåíò_320-71);}.cls-76{fill:url(#Áåçûìÿííûé_ãðàäèåíò_320-72);}.cls-77{fill:url(#Áåçûìÿííûé_ãðàäèåíò_320-73);}.cls-78{fill:url(#Áåçûìÿííûé_ãðàäèåíò_320-74);}.cls-79{fill:url(#Áåçûìÿííûé_ãðàäèåíò_320-75);}.cls-80{fill:url(#Áåçûìÿííûé_ãðàäèåíò_320-76);}.cls-81{fill:url(#Áåçûìÿííûé_ãðàäèåíò_320-77);}.cls-82{fill:url(#Áåçûìÿííûé_ãðàäèåíò_320-78);}.cls-83{fill:url(#Áåçûìÿííûé_ãðàäèåíò_320-79);}</style><radialGradient id="Áåçûìÿííûé_ãðàäèåíò_320" cx="79.69" cy="293.77" r="19.11" gradientUnits="userSpaceOnUse"><stop offset="0" stop-color="#a71afe"/><stop offset="0.03" stop-color="#9f19f1"/><stop offset="0.25" stop-color="#6f11a9"/><stop offset="0.44" stop-color="#480b6d"/><stop offset="0.62" stop-color="#29063e"/><stop offset="0.78" stop-color="#12031c"/><stop offset="0.91" stop-color="#050107"/><stop offset="1"/></radialGradient><radialGradient id="Áåçûìÿííûé_ãðàäèåíò_320-2" cx="44.95" cy="257.74" r="19.11" xlink:href="#Áåçûìÿííûé_ãðàäèåíò_320"/><radialGradient id="Áåçûìÿííûé_ãðàäèåíò_320-3" cx="221.16" cy="208.06" r="9.99" gradientTransform="translate(391.24 -43.48) rotate(80.81)" xlink:href="#Áåçûìÿííûé_ãðàäèåíò_320"/><radialGradient id="Áåçûìÿííûé_ãðàäèåíò_320-4" cx="573.57" cy="211.4" r="10.13" gradientTransform="translate(646.84 -395.48) rotate(76.65)" xlink:href="#Áåçûìÿííûé_ãðàäèåíò_320"/><radialGradient id="Áåçûìÿííûé_ãðàäèåíò_320-5" cx="233.07" cy="185.32" r="9.99" gradientTransform="translate(199.3 -110.53) rotate(45)" xlink:href="#Áåçûìÿííûé_ãðàäèåíò_320"/><radialGradient id="Áåçûìÿííûé_ãðàäèåíò_320-6" cx="269.11" cy="200.17" r="9.99" gradientTransform="translate(401.75 -107.88) rotate(76.65)" xlink:href="#Áåçûìÿííûé_ãðàäèåíò_320"/><radialGradient id="Áåçûìÿííûé_ãðàäèåíò_320-7" cx="42.64" cy="208.84" r="10.13" gradientTransform="translate(160.16 31.02) rotate(45)" xlink:href="#Áåçûìÿííûé_ãðàäèåíò_320"/><radialGradient id="Áåçûìÿííûé_ãðàäèåíò_320-8" cx="23.77" cy="129.26" r="10.13" gradientTransform="translate(143.67 75.44) rotate(76.24)" xlink:href="#Áåçûìÿííûé_ãðàäèåíò_320"/><radialGradient id="Áåçûìÿííûé_ãðàäèåíò_320-9" cx="42.64" cy="109.55" r="10.13" xlink:href="#Áåçûìÿííûé_ãðàäèåíò_320"/><radialGradient id="Áåçûìÿííûé_ãðàäèåíò_320-10" cx="107.59" cy="57.42" r="10.13" gradientTransform="translate(138.63 -60.52) rotate(76.65)" xlink:href="#Áåçûìÿííûé_ãðàäèåíò_320"/><radialGradient id="Áåçûìÿííûé_ãðàäèåíò_320-11" cx="109.29" cy="12.54" r="10.13" xlink:href="#Áåçûìÿííûé_ãðàäèåíò_320"/><radialGradient id="Áåçûìÿííûé_ãðàäèåíò_320-12" cx="294.96" cy="104.39" r="9.99" gradientTransform="translate(328.44 -206.7) rotate(76.65)" xlink:href="#Áåçûìÿííûé_ãðàäèåíò_320"/><radialGradient id="Áåçûìÿííûé_ãðàäèåíò_320-13" cx="323.05" cy="82.26" r="9.99" gradientTransform="translate(328.51 -251.05) rotate(76.65)" xlink:href="#Áåçûìÿííûé_ãðàäèåíò_320"/><radialGradient id="Áåçûìÿííûé_ãðàäèåíò_320-14" cx="368.7" cy="147.18" r="9.99" gradientTransform="translate(212.06 -217.6) rotate(45)" xlink:href="#Áåçûìÿííûé_ãðàäèåíò_320"/><radialGradient id="Áåçûìÿííûé_ãðàäèåíò_320-15" cx="290.03" cy="224.26" r="9.99" gradientTransform="translate(243.52 -139.4) rotate(45)" xlink:href="#Áåçûìÿííûé_ãðàäèåíò_320"/><radialGradient id="Áåçûìÿííûé_ãðàäèåíò_320-16" cx="319.35" cy="255.71" r="9.99" gradientTransform="translate(495.26 -113.66) rotate(76.78)" xlink:href="#Áåçûìÿííûé_ãðàäèåíò_320"/><radialGradient id="Áåçûìÿííûé_ãðàäèåíò_320-17" cx="328.74" cy="205.73" r="10.13" xlink:href="#Áåçûìÿííûé_ãðàäèåíò_320"/><radialGradient id="Áåçûìÿííûé_ãðàäèåíò_320-18" cx="627.53" cy="155.39" r="10.13" xlink:href="#Áåçûìÿííûé_ãðàäèåíò_320"/><radialGradient id="Áåçûìÿííûé_ãðàäèåíò_320-19" cx="595.68" cy="189.96" r="10.13" gradientTransform="translate(620.08 -434.8) rotate(74.55)" xlink:href="#Áåçûìÿííûé_ãðàäèåíò_320"/><radialGradient id="Áåçûìÿííûé_ãðàäèåíò_320-20" cx="658.76" cy="208.45" r="10.13" gradientTransform="translate(758.61 -475.25) rotate(80.75)" xlink:href="#Áåçûìÿííûé_ãðàäèåíò_320"/><radialGradient id="Áåçûìÿííûé_ãðàäèåíò_320-21" cx="674.21" cy="232.73" r="10.13" gradientTransform="translate(746.61 -476.83) rotate(76.78)" xlink:href="#Áåçûìÿííûé_ãðàäèåíò_320"/><radialGradient id="Áåçûìÿííûé_ãðàäèåíò_320-22" cx="742.27" cy="164.68" r="10.13" gradientTransform="translate(732.87 -595.58) rotate(76.78)" xlink:href="#Áåçûìÿííûé_ãðàäèåíò_320"/><radialGradient id="Áåçûìÿííûé_ãðàäèåíò_320-23" cx="758.48" cy="92.47" r="10.13" xlink:href="#Áåçûìÿííûé_ãðàäèåíò_320"/><radialGradient id="Áåçûìÿííûé_ãðàäèåíò_320-24" cx="334.13" cy="177.61" r="9.99" gradientTransform="translate(456.12 -180.59) rotate(80.81)" xlink:href="#Áåçûìÿííûé_ãðàäèåíò_320"/><radialGradient id="Áåçûìÿííûé_ãðàäèåíò_320-25" cx="199.65" cy="151.32" r="9.99" gradientTransform="translate(149.6 -94.14) rotate(41.32)" xlink:href="#Áåçûìÿííûé_ãðàäèåíò_320"/><radialGradient id="Áåçûìÿííûé_ãðàäèåíò_320-26" cx="76.49" cy="204.24" r="19.11" xlink:href="#Áåçûìÿííûé_ãðàäèåíò_320"/><radialGradient id="Áåçûìÿííûé_ãðàäèåíò_320-27" cx="23.77" cy="173.84" r="19.11" xlink:href="#Áåçûìÿííûé_ãðàäèåíò_320"/><radialGradient id="Áåçûìÿííûé_ãðàäèåíò_320-28" cx="134.02" cy="92.47" r="19.11" xlink:href="#Áåçûìÿííûé_ãðàäèåíò_320"/><radialGradient id="Áåçûìÿííûé_ãðàäèåíò_320-29" cx="158.13" cy="51.94" r="19.11" xlink:href="#Áåçûìÿííûé_ãðàäèåíò_320"/><radialGradient id="Áåçûìÿííûé_ãðàäèåíò_320-30" cx="163.36" cy="189.29" r="19.11" xlink:href="#Áåçûìÿííûé_ãðàäèåíò_320"/><radialGradient id="Áåçûìÿííûé_ãðàäèåíò_320-31" cx="252.73" cy="286.78" r="19.11" xlink:href="#Áåçûìÿííûé_ãðàäèåíò_320"/><radialGradient id="Áåçûìÿííûé_ãðàäèåíò_320-32" cx="291.8" cy="148.66" r="19.11" xlink:href="#Áåçûìÿííûé_ãðàäèåíò_320"/><radialGradient id="Áåçûìÿííûé_ãðàäèåíò_320-33" cx="377.21" cy="214.02" r="19.11" xlink:href="#Áåçûìÿííûé_ãðàäèåíò_320"/><radialGradient id="Áåçûìÿííûé_ãðàäèåíò_320-34" cx="396.76" cy="299.22" r="19.11" xlink:href="#Áåçûìÿííûé_ãðàäèåíò_320"/><radialGradient id="Áåçûìÿííûé_ãðàäèåíò_320-35" cx="354.38" cy="291.81" r="19.11" gradientTransform="translate(585.23 -104.99) rotate(80.72)" xlink:href="#Áåçûìÿííûé_ãðàäèåíò_320"/><radialGradient id="Áåçûìÿííûé_ãðàäèåíò_320-36" cx="687.68" cy="280.06" r="19.11" gradientTransform="translate(162.35 -244.7) rotate(22.81)" xlink:href="#Áåçûìÿííûé_ãðàäèåíò_320"/><radialGradient id="Áåçûìÿííûé_ãðàäèåíò_320-37" cx="742.27" cy="314.33" r="19.11" xlink:href="#Áåçûìÿííûé_ãðàäèåíò_320"/><radialGradient id="Áåçûìÿííûé_ãðàäèåíò_320-38" cx="799.8" cy="285.38" r="19.11" xlink:href="#Áåçûìÿííûé_ãðàäèåíò_320"/><radialGradient id="Áåçûìÿííûé_ãðàäèåíò_320-39" cx="792.42" cy="242.06" r="9.89" gradientTransform="translate(845.02 -584.83) rotate(76.65)" xlink:href="#Áåçûìÿííûé_ãðàäèåíò_320"/><radialGradient id="Áåçûìÿííûé_ãðàäèåíò_320-40" cx="745.47" cy="221.25" r="9.89" xlink:href="#Áåçûìÿííûé_ãðàäèåíò_320"/><radialGradient id="Áåçûìÿííûé_ãðàäèåíò_320-41" cx="776.3" cy="140.5" r="9.89" gradientTransform="translate(735.55 -647.36) rotate(76.78)" xlink:href="#Áåçûìÿííûé_ãðàäèåíò_320"/><radialGradient id="Áåçûìÿííûé_ãðàäèåíò_320-42" cx="803.38" cy="108.04" r="9.89" xlink:href="#Áåçûìÿííûé_ãðàäèåíò_320"/><radialGradient id="Áåçûìÿííûé_ãðàäèåíò_320-43" cx="687.15" cy="334.58" r="9.89" gradientTransform="translate(437.84 -387.9) rotate(45)" xlink:href="#Áåçûìÿííûé_ãðàäèåíò_320"/><radialGradient id="Áåçûìÿííûé_ãðàäèåíò_320-44" cx="658.76" cy="307.85" r="9.89" gradientTransform="translate(856.72 -391.83) rotate(80.75)" xlink:href="#Áåçûìÿííûé_ãðàäèåíò_320"/><radialGradient id="Áåçûìÿííûé_ãðàäèåíò_320-45" cx="335.22" cy="190.76" r="9.89" xlink:href="#Áåçûìÿííûé_ãðàäèåíò_320"/><radialGradient id="Áåçûìÿííûé_ãðàäèåíò_320-46" cx="298.81" cy="203.94" r="9.89" gradientTransform="translate(429.01 -133.59) rotate(76.78)" xlink:href="#Áåçûìÿííûé_ãðàäèåíò_320"/><radialGradient id="Áåçûìÿííûé_ãðàäèåíò_320-47" cx="329.13" cy="262.15" r="9.89" gradientTransform="translate(281.77 -155.95) rotate(45)" xlink:href="#Áåçûìÿííûé_ãðàäèåíò_320"/><radialGradient id="Áåçûìÿííûé_ãðàäèåíò_320-48" cx="300.33" cy="242.09" r="9.89" xlink:href="#Áåçûìÿííûé_ãðàäèåíò_320"/><radialGradient id="Áåçûìÿííûé_ãðàäèåíò_320-49" cx="292.78" cy="284.05" r="9.89" xlink:href="#Áåçûìÿííûé_ãðàäèåíò_320"/><radialGradient id="Áåçûìÿííûé_ãðàäèåíò_320-50" cx="272.11" cy="236.58" r="9.89" xlink:href="#Áåçûìÿííûé_ãðàäèåíò_320"/><radialGradient id="Áåçûìÿííûé_ãðàäèåíò_320-51" cx="417.4" cy="330.26" r="19.1" gradientTransform="matrix(-0.71, -0.71, 0.71, -0.71, 424.28, 891.41)" xlink:href="#Áåçûìÿííûé_ãðàäèåíò_320"/><radialGradient id="Áåçûìÿííûé_ãðàäèåíò_320-52" cx="351.45" cy="412.49" r="19.1" gradientTransform="matrix(-0.63, -0.77, 0.77, -0.63, 299.2, 795.72)" xlink:href="#Áåçûìÿííûé_ãðàäèåíò_320"/><radialGradient id="Áåçûìÿííûé_ãðàäèåíò_320-53" cx="318.06" cy="361.77" r="9.89" gradientTransform="translate(870.21 524.13) rotate(159.31)" xlink:href="#Áåçûìÿííûé_ãðàäèåíò_320"/><radialGradient id="Áåçûìÿííûé_ãðàäèåíò_320-54" cx="289.67" cy="335.04" r="9.89" gradientTransform="translate(870.21 524.13) rotate(159.31)" xlink:href="#Áåçûìÿííûé_ãðàäèåíò_320"/><radialGradient id="Áåçûìÿííûé_ãðàäèåíò_320-55" cx="148.33" cy="335.6" r="9.89" xlink:href="#Áåçûìÿííûé_ãðàäèåíò_320"/><radialGradient id="Áåçûìÿííûé_ãðàäèåíò_320-56" cx="10.96" cy="332.79" r="9.89" xlink:href="#Áåçûìÿííûé_ãðàäèåíò_320"/><radialGradient id="Áåçûìÿííûé_ãðàäèåíò_320-57" cx="82.18" cy="166.37" r="9.89" gradientTransform="translate(226.02 49.15) rotate(77.11)" xlink:href="#Áåçûìÿííûé_ãðàäèåíò_320"/><radialGradient id="Áåçûìÿííûé_ãðàäèåíò_320-58" cx="119.94" cy="308.87" r="9.89" gradientTransform="translate(393.2 121.48) rotate(76.78)" xlink:href="#Áåçûìÿííûé_ãðàäèåíò_320"/><radialGradient id="Áåçûìÿííûé_ãðàäèåíò_320-59" cx="13.27" cy="278.81" r="9.89" gradientTransform="translate(281.37 201.14) rotate(76.57)" xlink:href="#Áåçûìÿííûé_ãðàäèåíò_320"/><radialGradient id="Áåçûìÿííûé_ãðàäèåíò_320-60" cx="77.9" cy="250.06" r="9.89" gradientTransform="translate(102.35 -10.71) rotate(22.66)" xlink:href="#Áåçûìÿííûé_ãðàäèåíò_320"/><radialGradient id="Áåçûìÿííûé_ãðàäèåíò_320-61" cx="103.04" cy="265.14" r="9.89" gradientTransform="translate(217.66 4.8) rotate(45)" xlink:href="#Áåçûìÿííûé_ãðàäèåíò_320"/><radialGradient id="Áåçûìÿííûé_ãðàäèåíò_320-62" cx="781.45" cy="209.32" r="19.11" xlink:href="#Áåçûìÿííûé_ãðàäèåíò_320"/><radialGradient id="Áåçûìÿííûé_ãðàäèåíò_320-63" cx="801.18" cy="164.3" r="19.11" xlink:href="#Áåçûìÿííûé_ãðàäèåíò_320"/><radialGradient id="Áåçûìÿííûé_ãðàäèåíò_320-64" cx="682.04" cy="129.54" r="19.11" xlink:href="#Áåçûìÿííûé_ãðàäèåíò_320"/><radialGradient id="Áåçûìÿííûé_ãðàäèåíò_320-65" cx="704.33" cy="81.3" r="19.11" gradientTransform="translate(86.6 -266.69) rotate(22.81)" xlink:href="#Áåçûìÿííûé_ãðàäèåíò_320"/><radialGradient id="Áåçûìÿííûé_ãðàäèåíò_320-66" cx="396.96" cy="113.7" r="9.57" gradientTransform="translate(445.83 -296.32) rotate(80.81)" xlink:href="#Áåçûìÿííûé_ãðàäèåíò_320"/><radialGradient id="Áåçûìÿííûé_ãðàäèåíò_320-67" cx="471.86" cy="42.59" r="9.57" xlink:href="#Áåçûìÿííûé_ãðàäèåíò_320"/><radialGradient id="Áåçûìÿííûé_ãðàäèåíò_320-68" cx="499.95" cy="72.72" r="9.57" xlink:href="#Áåçûìÿííûé_ãðàäèåíò_320"/><radialGradient id="Áåçûìÿííûé_ãðàäèåíò_320-69" cx="508.94" cy="24.84" r="9.7" gradientTransform="translate(166.63 -352.6) rotate(45)" xlink:href="#Áåçûìÿííûé_ãðàäèåíò_320"/><radialGradient id="Áåçûìÿííûé_ãðàäèåíò_320-70" cx="436.13" cy="102.48" r="18.3" gradientTransform="translate(200.21 -278.37) rotate(45)" xlink:href="#Áåçûìÿííûé_ãðàäèåíò_320"/><radialGradient id="Áåçûìÿííûé_ãðàäèåíò_320-71" cx="405.12" cy="177.73" r="18.3" gradientTransform="translate(244.33 -234.41) rotate(45)" xlink:href="#Áåçûìÿííûé_ãðàäèåíò_320"/><radialGradient id="Áåçûìÿííûé_ãðàäèåíò_320-72" cx="487.86" cy="137.11" r="18.3" gradientTransform="translate(239.84 -304.81) rotate(45)" xlink:href="#Áåçûìÿííûé_ãðàäèåíò_320"/><radialGradient id="Áåçûìÿííûé_ãðàäèåíò_320-73" cx="533.5" cy="107.3" r="18.3" gradientTransform="translate(516.47 -436.62) rotate(76.83)" xlink:href="#Áåçûìÿííûé_ãðàäèåíò_320"/><radialGradient id="Áåçûìÿííûé_ãðàäèåíò_320-74" cx="515.15" cy="10.5" r="9.47" xlink:href="#Áåçûìÿííûé_ãðàäèåíò_320"/><radialGradient id="Áåçûìÿííûé_ãðàäèåíò_320-75" cx="480.26" cy="23.13" r="9.47" gradientTransform="translate(422.85 -454.25) rotate(80.39)" xlink:href="#Áåçûìÿííûé_ãðàäèåíò_320"/><radialGradient id="Áåçûìÿííûé_ãðàäèåíò_320-76" cx="509.31" cy="78.89" r="9.47" xlink:href="#Áåçûìÿííûé_ãðàäèåíò_320"/><radialGradient id="Áåçûìÿííûé_ãðàäèåíò_320-77" cx="481.72" cy="59.67" r="9.47" gradientTransform="translate(58.87 -178.69) rotate(22.35)" xlink:href="#Áåçûìÿííûé_ãðàäèåíò_320"/><radialGradient id="Áåçûìÿííûé_ãðàäèåíò_320-78" cx="474.49" cy="99.87" r="9.47" xlink:href="#Áåçûìÿííûé_ãðàäèåíò_320"/><radialGradient id="Áåçûìÿííûé_ãðàäèåíò_320-79" cx="454.69" cy="54.4" r="9.47" xlink:href="#Áåçûìÿííûé_ãðàäèåíò_320"/></defs><g class="cls-1"><g id="Layer_2" data-name="Layer 2"><g id="L4"><path class="cls-2" d="M82.89,293.77a3.2,3.2,0,1,1-3.2-3.19A3.2,3.2,0,0,1,82.89,293.77Z"/><circle class="cls-3" cx="79.69" cy="293.77" r="21.18"/><path class="cls-2" d="M48.15,257.74a3.2,3.2,0,1,1-3.2-3.2A3.2,3.2,0,0,1,48.15,257.74Z"/><circle class="cls-4" cx="44.95" cy="257.74" r="21.18"/><g class="cls-5"><circle class="cls-2" cx="221.16" cy="208.06" r="1.67"/><circle class="cls-6" cx="221.16" cy="208.06" r="11.08" transform="matrix(0.16, -0.99, 0.99, 0.16, -19.54, 393.17)"/></g><g class="cls-5"><path class="cls-2" d="M575.26,211.4a1.7,1.7,0,1,1-1.69-1.69A1.7,1.7,0,0,1,575.26,211.4Z"/><circle class="cls-7" cx="573.57" cy="211.4" r="11.23" transform="translate(235.46 720.67) rotate(-76.65)"/></g><g class="cls-5"><circle class="cls-2" cx="233.07" cy="185.32" r="1.67"/><circle class="cls-8" cx="233.07" cy="185.32" r="11.08" transform="translate(-62.77 219.09) rotate(-45)"/></g><g class="cls-5"><circle class="cls-2" cx="269.11" cy="200.17" r="1.67"/><circle class="cls-9" cx="269.11" cy="200.17" r="11.08" transform="translate(12.22 415.8) rotate(-76.65)"/></g><g class="cls-10"><path class="cls-2" d="M44.34,208.84a1.7,1.7,0,1,1-1.7-1.69A1.7,1.7,0,0,1,44.34,208.84Z"/><circle class="cls-11" cx="42.64" cy="208.84" r="11.23" transform="translate(-135.19 91.32) rotate(-45)"/></g><g class="cls-10"><path class="cls-2" d="M25.46,129.26a1.7,1.7,0,1,1-1.69-1.69A1.7,1.7,0,0,1,25.46,129.26Z"/><circle class="cls-12" cx="23.77" cy="129.26" r="11.23" transform="translate(-107.44 121.61) rotate(-76.24)"/></g><g class="cls-10"><path class="cls-2" d="M44.34,109.55a1.7,1.7,0,1,1-1.7-1.69A1.7,1.7,0,0,1,44.34,109.55Z"/><circle class="cls-13" cx="42.64" cy="109.55" r="11.23"/></g><g class="cls-10"><path class="cls-2" d="M109.29,57.42a1.7,1.7,0,1,1-1.7-1.69A1.7,1.7,0,0,1,109.29,57.42Z"/><circle class="cls-14" cx="107.59" cy="57.42" r="11.23" transform="translate(26.88 148.85) rotate(-76.65)"/></g><g class="cls-10"><path class="cls-2" d="M111,12.54a1.7,1.7,0,1,1-1.7-1.7A1.7,1.7,0,0,1,111,12.54Z"/><circle class="cls-15" cx="109.29" cy="12.54" r="11.23"/></g><g class="cls-5"><circle class="cls-2" cx="294.96" cy="104.39" r="1.67"/><circle class="cls-16" cx="294.96" cy="104.39" r="11.08" transform="translate(125.29 367.29) rotate(-76.65)"/></g><g class="cls-5"><circle class="cls-2" cx="323.05" cy="82.26" r="1.67"/><circle class="cls-17" cx="323.05" cy="82.26" r="11.08" transform="translate(168.44 377.59) rotate(-76.65)"/></g><g class="cls-5"><circle class="cls-2" cx="368.7" cy="147.18" r="1.67"/><circle class="cls-18" cx="368.7" cy="147.18" r="11.08" transform="translate(3.92 303.82) rotate(-45)"/></g><g class="cls-5"><circle class="cls-2" cx="290.03" cy="224.26" r="1.67"/><circle class="cls-19" cx="290.03" cy="224.26" r="11.08" transform="translate(-73.63 270.77) rotate(-45)"/></g><g class="cls-5"><circle class="cls-2" cx="319.35" cy="255.71" r="1.67"/><circle class="cls-20" cx="319.35" cy="255.71" r="11.08" transform="translate(-2.61 508.13) rotate(-76.78)"/></g><g class="cls-5"><circle class="cls-2" cx="328.74" cy="205.73" r="1.7"/><circle class="cls-21" cx="328.74" cy="205.73" r="11.23"/></g><g class="cls-5"><path class="cls-2" d="M629.23,155.39a1.7,1.7,0,1,1-1.7-1.69A1.7,1.7,0,0,1,629.23,155.39Z"/><circle class="cls-22" cx="627.53" cy="155.39" r="11.23"/></g><g class="cls-5"><path class="cls-2" d="M597.38,190a1.7,1.7,0,1,1-1.7-1.7A1.7,1.7,0,0,1,597.38,190Z"/><circle class="cls-23" cx="595.68" cy="189.96" r="11.23" transform="translate(253.89 713.51) rotate(-74.55)"/></g><g class="cls-5"><path class="cls-2" d="M660.46,208.45a1.7,1.7,0,1,1-1.7-1.69A1.7,1.7,0,0,1,660.46,208.45Z"/><circle class="cls-24" cx="658.76" cy="208.45" r="11.23" transform="translate(347.13 825.14) rotate(-80.75)"/></g><g class="cls-5"><path class="cls-2" d="M675.9,232.73a1.7,1.7,0,1,1-1.7-1.69A1.7,1.7,0,0,1,675.9,232.73Z"/><circle class="cls-25" cx="674.21" cy="232.73" r="11.23" transform="translate(293.48 835.86) rotate(-76.78)"/></g><g class="cls-10"><path class="cls-2" d="M744,164.68a1.7,1.7,0,1,1-1.7-1.7A1.7,1.7,0,0,1,744,164.68Z"/><circle class="cls-26" cx="742.27" cy="164.68" r="11.23" transform="translate(412.23 849.63) rotate(-76.78)"/></g><g class="cls-10"><path class="cls-2" d="M760.18,92.47a1.7,1.7,0,1,1-1.7-1.7A1.7,1.7,0,0,1,760.18,92.47Z"/><circle class="cls-27" cx="758.48" cy="92.47" r="11.23"/></g><g class="cls-5"><path class="cls-2" d="M335.8,177.61a1.68,1.68,0,1,1-1.67-1.67A1.67,1.67,0,0,1,335.8,177.61Z"/><circle class="cls-28" cx="334.13" cy="177.61" r="11.08" transform="translate(105.46 479.1) rotate(-80.81)"/></g><g class="cls-5"><circle class="cls-2" cx="199.65" cy="151.32" r="1.67"/><circle class="cls-29" cx="199.65" cy="151.32" r="11.08" transform="translate(-50.21 169.48) rotate(-41.32)"/></g><path class="cls-2" d="M79.69,204.24a3.2,3.2,0,1,1-3.2-3.19A3.2,3.2,0,0,1,79.69,204.24Z"/><circle class="cls-30" cx="76.49" cy="204.24" r="21.18"/><path class="cls-2" d="M27,173.84a3.2,3.2,0,1,1-3.2-3.2A3.2,3.2,0,0,1,27,173.84Z"/><circle class="cls-31" cx="23.77" cy="173.84" r="21.18"/><path class="cls-2" d="M137.22,92.47a3.2,3.2,0,1,1-3.2-3.2A3.2,3.2,0,0,1,137.22,92.47Z"/><circle class="cls-32" cx="134.02" cy="92.47" r="21.18"/><path class="cls-2" d="M161.33,51.94a3.2,3.2,0,1,1-3.2-3.2A3.19,3.19,0,0,1,161.33,51.94Z"/><circle class="cls-33" cx="158.13" cy="51.94" r="21.18"/><circle class="cls-2" cx="163.36" cy="189.29" r="3.2"/><circle class="cls-34" cx="163.36" cy="189.29" r="21.18"/><path class="cls-2" d="M255.93,286.78a3.2,3.2,0,1,1-3.2-3.2A3.2,3.2,0,0,1,255.93,286.78Z"/><circle class="cls-35" cx="252.73" cy="286.78" r="21.18"/><path class="cls-2" d="M295,148.66a3.2,3.2,0,1,1-3.2-3.2A3.2,3.2,0,0,1,295,148.66Z"/><circle class="cls-36" cx="291.8" cy="148.66" r="21.18"/><path class="cls-2" d="M380.41,214a3.2,3.2,0,1,1-3.2-3.2A3.2,3.2,0,0,1,380.41,214Z"/><circle class="cls-37" cx="377.21" cy="214.02" r="21.18"/><path class="cls-2" d="M400,299.22a3.2,3.2,0,1,1-3.2-3.2A3.19,3.19,0,0,1,400,299.22Z"/><circle class="cls-38" cx="396.76" cy="299.22" r="21.18"/><path class="cls-2" d="M357.58,291.81a3.2,3.2,0,1,1-3.2-3.2A3.2,3.2,0,0,1,357.58,291.81Z"/><circle class="cls-39" cx="354.38" cy="291.81" r="21.18" transform="translate(9.25 594.5) rotate(-80.72)"/><path class="cls-2" d="M690.88,280.06a3.2,3.2,0,1,1-3.2-3.2A3.2,3.2,0,0,1,690.88,280.06Z"/><circle class="cls-40" cx="687.68" cy="280.06" r="21.18" transform="translate(-54.79 288.5) rotate(-22.81)"/><path class="cls-2" d="M745.47,314.33a3.2,3.2,0,1,1-3.2-3.19A3.2,3.2,0,0,1,745.47,314.33Z"/><circle class="cls-41" cx="742.27" cy="314.33" r="21.18"/><path class="cls-2" d="M803,285.38a3.2,3.2,0,1,1-3.19-3.2A3.19,3.19,0,0,1,803,285.38Z"/><circle class="cls-42" cx="799.8" cy="285.38" r="21.18"/><path class="cls-2" d="M794.07,242.06a1.66,1.66,0,1,1-1.65-1.66A1.66,1.66,0,0,1,794.07,242.06Z"/><circle class="cls-43" cx="792.42" cy="242.06" r="10.96" transform="translate(373.98 957.2) rotate(-76.65)"/><path class="cls-2" d="M747.13,221.25a1.66,1.66,0,1,1-1.66-1.65A1.66,1.66,0,0,1,747.13,221.25Z"/><circle class="cls-44" cx="745.47" cy="221.25" r="10.96"/><path class="cls-2" d="M778,140.5a1.66,1.66,0,1,1-1.65-1.66A1.65,1.65,0,0,1,778,140.5Z"/><circle class="cls-45" cx="776.3" cy="140.5" r="10.96" transform="translate(462 864.1) rotate(-76.78)"/><circle class="cls-2" cx="803.38" cy="108.04" r="1.66"/><circle class="cls-46" cx="803.38" cy="108.04" r="10.96"/><path class="cls-2" d="M688.81,334.58a1.66,1.66,0,1,1-1.66-1.66A1.65,1.65,0,0,1,688.81,334.58Z"/><circle class="cls-47" cx="687.15" cy="334.58" r="10.96" transform="translate(-35.32 583.89) rotate(-45)"/><path class="cls-2" d="M660.42,307.85a1.66,1.66,0,1,1-1.66-1.66A1.65,1.65,0,0,1,660.42,307.85Z"/><circle class="cls-48" cx="658.76" cy="307.85" r="10.96" transform="matrix(0.16, -0.99, 0.99, 0.16, 249.03, 908.56)"/><path class="cls-2" d="M336.88,190.76a1.66,1.66,0,1,1-1.66-1.65A1.66,1.66,0,0,1,336.88,190.76Z"/><circle class="cls-49" cx="335.22" cy="190.76" r="10.96"/><path class="cls-2" d="M300.46,203.94a1.66,1.66,0,1,1-1.65-1.66A1.65,1.65,0,0,1,300.46,203.94Z"/><circle class="cls-50" cx="298.81" cy="203.94" r="10.96" transform="translate(31.94 448.19) rotate(-76.78)"/><path class="cls-2" d="M330.79,262.15a1.66,1.66,0,1,1-1.66-1.66A1.67,1.67,0,0,1,330.79,262.15Z"/><circle class="cls-51" cx="329.13" cy="262.15" r="10.96" transform="translate(-88.97 309.51) rotate(-45)"/><circle class="cls-2" cx="300.33" cy="242.09" r="1.66"/><circle class="cls-52" cx="300.33" cy="242.09" r="10.96"/><circle class="cls-2" cx="292.78" cy="284.05" r="1.66"/><circle class="cls-53" cx="292.78" cy="284.05" r="10.96"/><circle class="cls-2" cx="272.11" cy="236.58" r="1.66"/><circle class="cls-54" cx="272.11" cy="236.58" r="10.96"/><path class="cls-2" d="M360,363.81a3.2,3.2,0,1,1,4.12,1.86A3.2,3.2,0,0,1,360,363.81Z"/><circle class="cls-55" cx="363.02" cy="362.68" r="21.18" transform="translate(-116.81 544.57) rotate(-65.73)"/><path class="cls-2" d="M392.66,263.58a3.2,3.2,0,1,1,4.12,1.86A3.2,3.2,0,0,1,392.66,263.58Z"/><circle class="cls-56" cx="395.65" cy="262.45" r="21.18" transform="translate(20.61 553.59) rotate(-71.38)"/><path class="cls-2" d="M443.26,298.68a1.66,1.66,0,1,1,2.14,1A1.67,1.67,0,0,1,443.26,298.68Z"/><path class="cls-57" d="M434.56,302a11,11,0,1,1,14.13,6.38A11,11,0,0,1,434.56,302Z"/><path class="cls-2" d="M479.27,313.65a1.66,1.66,0,1,1,2.13,1A1.67,1.67,0,0,1,479.27,313.65Z"/><path class="cls-58" d="M470.56,316.94a11,11,0,1,1,14.13,6.38A11,11,0,0,1,470.56,316.94Z"/><circle class="cls-2" cx="148.33" cy="335.6" r="1.66"/><circle class="cls-59" cx="148.33" cy="335.6" r="10.96"/><path class="cls-2" d="M12.62,332.79A1.66,1.66,0,1,1,11,331.13,1.65,1.65,0,0,1,12.62,332.79Z"/><circle class="cls-60" cx="10.96" cy="332.79" r="10.96"/><path class="cls-2" d="M83.83,166.37a1.66,1.66,0,1,1-1.65-1.65A1.65,1.65,0,0,1,83.83,166.37Z"/><circle class="cls-61" cx="82.18" cy="166.37" r="10.96" transform="translate(-98.34 209.36) rotate(-77.11)"/><path class="cls-2" d="M121.59,308.87a1.66,1.66,0,1,1-1.65-1.65A1.65,1.65,0,0,1,121.59,308.87Z"/><circle class="cls-62" cx="119.94" cy="308.87" r="10.96" transform="translate(-208.18 355) rotate(-76.78)"/><path class="cls-2" d="M14.92,278.81a1.66,1.66,0,1,1-1.65-1.65A1.65,1.65,0,0,1,14.92,278.81Z"/><circle class="cls-63" cx="13.27" cy="278.81" r="10.96" transform="translate(-261 226.95) rotate(-76.57)"/><path class="cls-2" d="M79.56,250.06a1.66,1.66,0,1,1-1.66-1.66A1.65,1.65,0,0,1,79.56,250.06Z"/><circle class="cls-64" cx="77.9" cy="250.06" r="10.96" transform="translate(-90.32 49.31) rotate(-22.66)"/><circle class="cls-2" cx="103.04" cy="265.14" r="1.66"/><circle class="cls-65" cx="103.04" cy="265.14" r="10.96" transform="translate(-157.3 150.51) rotate(-45)"/><circle class="cls-2" cx="781.45" cy="209.32" r="3.2"/><circle class="cls-66" cx="781.45" cy="209.32" r="21.18"/><path class="cls-2" d="M804.37,164.3a3.2,3.2,0,1,1-3.19-3.2A3.19,3.19,0,0,1,804.37,164.3Z"/><circle class="cls-67" cx="801.18" cy="164.3" r="21.18"/><path class="cls-2" d="M685.24,129.54a3.2,3.2,0,1,1-3.2-3.2A3.2,3.2,0,0,1,685.24,129.54Z"/><circle class="cls-68" cx="682.04" cy="129.54" r="21.18"/><path class="cls-2" d="M707.52,81.3a3.2,3.2,0,1,1-3.19-3.2A3.19,3.19,0,0,1,707.52,81.3Z"/><circle class="cls-69" cx="704.33" cy="81.3" r="21.18" transform="translate(23.56 279.41) rotate(-22.81)"/><g class="cls-5"><path class="cls-2" d="M398.57,113.7a1.61,1.61,0,1,1-1.61-1.6A1.6,1.6,0,0,1,398.57,113.7Z"/><circle class="cls-70" cx="396.96" cy="113.7" r="10.61" transform="translate(221.34 487.42) rotate(-80.81)"/></g><g class="cls-5"><path class="cls-2" d="M473.46,42.59a1.6,1.6,0,1,1-1.6-1.6A1.6,1.6,0,0,1,473.46,42.59Z"/><circle class="cls-71" cx="471.86" cy="42.59" r="10.61"/></g><g class="cls-5"><path class="cls-2" d="M501.55,72.72a1.61,1.61,0,1,1-1.6-1.61A1.6,1.6,0,0,1,501.55,72.72Z"/><circle class="cls-72" cx="499.95" cy="72.72" r="10.61"/></g><g class="cls-5"><path class="cls-2" d="M510.56,24.84a1.63,1.63,0,1,1-1.62-1.63A1.63,1.63,0,0,1,510.56,24.84Z"/><circle class="cls-73" cx="508.94" cy="24.84" r="10.76" transform="translate(131.5 367.15) rotate(-45)"/></g><path class="cls-2" d="M439.19,102.48a3.07,3.07,0,1,1-3.06-3.06A3.06,3.06,0,0,1,439.19,102.48Z"/><circle class="cls-74" cx="436.13" cy="102.48" r="20.29" transform="translate(55.27 338.41) rotate(-45)"/><path class="cls-2" d="M408.18,177.73a3.06,3.06,0,1,1-3.06-3.06A3.06,3.06,0,0,1,408.18,177.73Z"/><circle class="cls-75" cx="405.12" cy="177.73" r="20.29" transform="translate(-7.02 338.52) rotate(-45)"/><circle class="cls-2" cx="487.86" cy="137.11" r="3.06"/><circle class="cls-76" cx="487.86" cy="137.11" r="20.29" transform="translate(45.94 385.13) rotate(-45)"/><path class="cls-2" d="M536.57,107.3a3.07,3.07,0,1,1-3.07-3.06A3.06,3.06,0,0,1,536.57,107.3Z"/><circle class="cls-77" cx="533.5" cy="107.3" r="20.29" transform="translate(307.51 602.34) rotate(-76.83)"/><path class="cls-2" d="M516.73,10.5a1.59,1.59,0,1,1-1.58-1.58A1.59,1.59,0,0,1,516.73,10.5Z"/><circle class="cls-78" cx="515.15" cy="10.5" r="10.5"/><path class="cls-2" d="M481.85,23.13a1.59,1.59,0,1,1-1.59-1.59A1.59,1.59,0,0,1,481.85,23.13Z"/><circle class="cls-79" cx="480.26" cy="23.13" r="10.5" transform="translate(377.25 492.78) rotate(-80.39)"/><path class="cls-2" d="M510.9,78.89a1.59,1.59,0,1,1-1.59-1.59A1.59,1.59,0,0,1,510.9,78.89Z"/><circle class="cls-80" cx="509.31" cy="78.89" r="10.5"/><path class="cls-2" d="M483.31,59.67a1.59,1.59,0,1,1-1.59-1.59A1.59,1.59,0,0,1,483.31,59.67Z"/><circle class="cls-81" cx="481.72" cy="59.67" r="10.5" transform="matrix(0.92, -0.38, 0.38, 0.92, 13.5, 187.65)"/><path class="cls-2" d="M476.07,99.87a1.59,1.59,0,1,1-1.58-1.59A1.59,1.59,0,0,1,476.07,99.87Z"/><circle class="cls-82" cx="474.49" cy="99.87" r="10.5"/><path class="cls-2" d="M456.28,54.4a1.59,1.59,0,1,1-1.59-1.59A1.59,1.59,0,0,1,456.28,54.4Z"/><circle class="cls-83" cx="454.69" cy="54.4" r="10.5"/></g></g></g></svg>