<svg xmlns="http://www.w3.org/2000/svg" xmlns:xlink="http://www.w3.org/1999/xlink" viewBox="0 0 924.57 268.1"><defs><style>.cls-1,.cls-46,.cls-47,.cls-48,.cls-49,.cls-50,.cls-51,.cls-52,.cls-53,.cls-54,.cls-55,.cls-60,.cls-61,.cls-62,.cls-63,.cls-64,.cls-65,.cls-66{mix-blend-mode:screen;}.cls-1{fill:url(#Áåçûìÿííûé_ãðàäèåíò_74);}.cls-2{isolation:isolate;}.cls-3{fill:#481e4a;}.cls-4{fill:#381a3d;}.cls-5{fill:url(#Áåçûìÿííûé_ãðàäèåíò_10);}.cls-10,.cls-11,.cls-12,.cls-13,.cls-14,.cls-15,.cls-16,.cls-17,.cls-18,.cls-19,.cls-20,.cls-22,.cls-23,.cls-24,.cls-43,.cls-56,.cls-57,.cls-58,.cls-59,.cls-6,.cls-67,.cls-68,.cls-69,.cls-7,.cls-70,.cls-71,.cls-72,.cls-8,.cls-9{mix-blend-mode:color-dodge;}.cls-6{fill:url(#Áåçûìÿííûé_ãðàäèåíò_18);}.cls-7{fill:url(#Áåçûìÿííûé_ãðàäèåíò_5);}.cls-8{fill:url(#Áåçûìÿííûé_ãðàäèåíò_109);}.cls-9{fill:url(#Áåçûìÿííûé_ãðàäèåíò_109-2);}.cls-10{fill:url(#Áåçûìÿííûé_ãðàäèåíò_109-3);}.cls-11{fill:url(#Áåçûìÿííûé_ãðàäèåíò_109-4);}.cls-12{fill:url(#Áåçûìÿííûé_ãðàäèåíò_109-5);}.cls-13{fill:url(#Áåçûìÿííûé_ãðàäèåíò_109-6);}.cls-14{fill:url(#Áåçûìÿííûé_ãðàäèåíò_108);}.cls-15{fill:url(#Áåçûìÿííûé_ãðàäèåíò_108-2);}.cls-16{fill:url(#Áåçûìÿííûé_ãðàäèåíò_108-3);}.cls-17{fill:url(#Áåçûìÿííûé_ãðàäèåíò_19);}.cls-18{fill:url(#Áåçûìÿííûé_ãðàäèåíò_108-4);}.cls-19{fill:url(#Áåçûìÿííûé_ãðàäèåíò_108-5);}.cls-20{fill:url(#Áåçûìÿííûé_ãðàäèåíò_108-6);}.cls-21{fill:#a71afe;opacity:0.54;}.cls-21,.cls-25,.cls-26,.cls-27,.cls-28,.cls-29,.cls-30,.cls-31,.cls-32,.cls-33,.cls-34,.cls-35,.cls-36,.cls-37,.cls-38,.cls-39,.cls-40,.cls-41,.cls-42{mix-blend-mode:multiply;}.cls-22{fill:url(#Áåçûìÿííûé_ãðàäèåíò_22);}.cls-23{fill:url(#Áåçûìÿííûé_ãðàäèåíò_14);}.cls-24{fill:url(#Áåçûìÿííûé_ãðàäèåíò_17);}.cls-25{fill:url(#Áåçûìÿííûé_ãðàäèåíò_269);}.cls-26{fill:url(#Áåçûìÿííûé_ãðàäèåíò_269-2);}.cls-27{fill:url(#Áåçûìÿííûé_ãðàäèåíò_269-3);}.cls-28{fill:url(#Áåçûìÿííûé_ãðàäèåíò_269-4);}.cls-29{fill:url(#Áåçûìÿííûé_ãðàäèåíò_269-5);}.cls-30{fill:url(#Áåçûìÿííûé_ãðàäèåíò_81);}.cls-31{fill:url(#Áåçûìÿííûé_ãðàäèåíò_81-2);}.cls-32{fill:url(#Áåçûìÿííûé_ãðàäèåíò_269-6);}.cls-33{fill:url(#Áåçûìÿííûé_ãðàäèåíò_269-7);}.cls-34{fill:url(#Áåçûìÿííûé_ãðàäèåíò_81-3);}.cls-35{fill:url(#Áåçûìÿííûé_ãðàäèåíò_91);}.cls-36{fill:url(#Áåçûìÿííûé_ãðàäèåíò_81-4);}.cls-37{fill:url(#Áåçûìÿííûé_ãðàäèåíò_81-5);}.cls-38{fill:url(#Áåçûìÿííûé_ãðàäèåíò_269-8);}.cls-39{fill:url(#Áåçûìÿííûé_ãðàäèåíò_90);}.cls-40{fill:url(#Áåçûìÿííûé_ãðàäèåíò_92);}.cls-41{fill:url(#Áåçûìÿííûé_ãðàäèåíò_269-9);}.cls-42{fill:url(#Áåçûìÿííûé_ãðàäèåíò_269-10);}.cls-43{fill:url(#Áåçûìÿííûé_ãðàäèåíò_59);}.cls-44{opacity:0.85;}.cls-45{clip-path:url(#clip-path);}.cls-46,.cls-47,.cls-48{opacity:0.53;}.cls-46{fill:url(#Áåçûìÿííûé_ãðàäèåíò_437);}.cls-47{fill:url(#Áåçûìÿííûé_ãðàäèåíò_437-2);}.cls-48{fill:url(#Áåçûìÿííûé_ãðàäèåíò_437-3);}.cls-49{fill:url(#Áåçûìÿííûé_ãðàäèåíò_11);}.cls-50{fill:url(#Áåçûìÿííûé_ãðàäèåíò_47);}.cls-51,.cls-55{opacity:0.56;}.cls-51{fill:url(#Áåçûìÿííûé_ãðàäèåíò_11-2);}.cls-52,.cls-53{opacity:0.63;}.cls-52{fill:url(#Áåçûìÿííûé_ãðàäèåíò_11-3);}.cls-53{fill:url(#Áåçûìÿííûé_ãðàäèåíò_52);}.cls-54{fill:url(#Áåçûìÿííûé_ãðàäèåíò_11-4);}.cls-55{fill:url(#Áåçûìÿííûé_ãðàäèåíò_47-2);}.cls-56,.cls-57,.cls-58,.cls-59,.cls-67,.cls-68,.cls-69,.cls-70,.cls-71,.cls-72{opacity:0.67;}.cls-56{fill:url(#Áåçûìÿííûé_ãðàäèåíò_76);}.cls-57{fill:url(#Áåçûìÿííûé_ãðàäèåíò_76-2);}.cls-58{fill:url(#Áåçûìÿííûé_ãðàäèåíò_76-3);}.cls-59{fill:url(#Áåçûìÿííûé_ãðàäèåíò_76-4);}.cls-60{fill:url(#Áåçûìÿííûé_ãðàäèåíò_178);}.cls-61{fill:url(#Áåçûìÿííûé_ãðàäèåíò_178-2);}.cls-62{fill:url(#Áåçûìÿííûé_ãðàäèåíò_178-3);}.cls-63{fill:url(#Áåçûìÿííûé_ãðàäèåíò_178-4);}.cls-64{fill:url(#Áåçûìÿííûé_ãðàäèåíò_178-5);}.cls-65{fill:url(#Áåçûìÿííûé_ãðàäèåíò_178-6);}.cls-66{fill:url(#Áåçûìÿííûé_ãðàäèåíò_178-7);}.cls-67{fill:url(#Áåçûìÿííûé_ãðàäèåíò_179);}.cls-68{fill:url(#Áåçûìÿííûé_ãðàäèåíò_179-2);}.cls-69{fill:#0cf;}.cls-70{fill:url(#Áåçûìÿííûé_ãðàäèåíò_179-3);}.cls-71{fill:url(#Áåçûìÿííûé_ãðàäèåíò_179-4);}.cls-72{fill:url(#Áåçûìÿííûé_ãðàäèåíò_179-5);}</style><linearGradient id="Áåçûìÿííûé_ãðàäèåíò_74" x1="511.01" y1="180.84" x2="511.01" y2="93.04" gradientUnits="userSpaceOnUse"><stop offset="0.32" stop-color="#ea45fe"/><stop offset="1"/></linearGradient><linearGradient id="Áåçûìÿííûé_ãðàäèåíò_10" x1="510.08" y1="251.43" x2="510.08" y2="98.17" gradientUnits="userSpaceOnUse"><stop offset="0" stop-color="#7e1ad1"/><stop offset="0.68" stop-color="#a71afe"/></linearGradient><linearGradient id="Áåçûìÿííûé_ãðàäèåíò_18" x1="500.78" y1="171.56" x2="418.77" y2="171.56" gradientUnits="userSpaceOnUse"><stop offset="0"/><stop offset="1" stop-color="#a7b3fe"/></linearGradient><linearGradient id="Áåçûìÿííûé_ãðàäèåíò_5" x1="363.29" y1="178.67" x2="271.68" y2="178.67" gradientUnits="userSpaceOnUse"><stop offset="0" stop-color="#a7b3fe"/><stop offset="1"/></linearGradient><linearGradient id="Áåçûìÿííûé_ãðàäèåíò_109" x1="169.29" y1="182.75" x2="264.29" y2="182.75" gradientUnits="userSpaceOnUse"><stop offset="0"/><stop offset="0.09" stop-color="#070507"/><stop offset="0.22" stop-color="#1c131c"/><stop offset="0.38" stop-color="#3e2a3e"/><stop offset="0.55" stop-color="#6d496d"/><stop offset="0.75" stop-color="#a971a9"/><stop offset="0.96" stop-color="#f1a2f1"/><stop offset="1" stop-color="#ffabfe"/></linearGradient><linearGradient id="Áåçûìÿííûé_ãðàäèåíò_109-2" x1="264.29" y1="183.2" x2="286.01" y2="183.2" xlink:href="#Áåçûìÿííûé_ãðàäèåíò_109"/><linearGradient id="Áåçûìÿííûé_ãðàäèåíò_109-3" x1="275.8" y1="176.04" x2="296.14" y2="176.04" xlink:href="#Áåçûìÿííûé_ãðàäèåíò_109"/><linearGradient id="Áåçûìÿííûé_ãðàäèåíò_109-4" x1="341.72" y1="160.48" x2="372.4" y2="160.48" xlink:href="#Áåçûìÿííûé_ãðàäèåíò_109"/><linearGradient id="Áåçûìÿííûé_ãðàäèåíò_109-5" x1="355.04" y1="154.35" x2="395.04" y2="154.35" xlink:href="#Áåçûìÿííûé_ãðàäèåíò_109"/><linearGradient id="Áåçûìÿííûé_ãðàäèåíò_109-6" x1="329.6" y1="178.67" x2="345.59" y2="178.67" xlink:href="#Áåçûìÿííûé_ãðàäèåíò_109"/><linearGradient id="Áåçûìÿííûé_ãðàäèåíò_108" x1="411.04" y1="149.7" x2="502.55" y2="149.7" gradientUnits="userSpaceOnUse"><stop offset="0" stop-color="#ffabfe"/><stop offset="0.04" stop-color="#f1a2f1"/><stop offset="0.25" stop-color="#a971a9"/><stop offset="0.45" stop-color="#6d496d"/><stop offset="0.62" stop-color="#3e2a3e"/><stop offset="0.78" stop-color="#1c131c"/><stop offset="0.91" stop-color="#070507"/><stop offset="1"/></linearGradient><linearGradient id="Áåçûìÿííûé_ãðàäèåíò_108-2" x1="422.87" y1="144.24" x2="505.48" y2="144.24" xlink:href="#Áåçûìÿííûé_ãðàäèåíò_108"/><linearGradient id="Áåçûìÿííûé_ãðàäèåíò_108-3" x1="419.24" y1="119.92" x2="427.32" y2="117.92" xlink:href="#Áåçûìÿííûé_ãðàäèåíò_108"/><linearGradient id="Áåçûìÿííûé_ãðàäèåíò_19" x1="515.32" y1="180.67" x2="531.72" y2="180.67" gradientUnits="userSpaceOnUse"><stop offset="0" stop-color="#ffabfe"/><stop offset="1"/></linearGradient><linearGradient id="Áåçûìÿííûé_ãðàäèåíò_108-4" x1="524.23" y1="192.53" x2="547.2" y2="192.53" xlink:href="#Áåçûìÿííûé_ãðàäèåíò_108"/><linearGradient id="Áåçûìÿííûé_ãðàäèåíò_108-5" x1="539.89" y1="184.83" x2="565.76" y2="184.83" xlink:href="#Áåçûìÿííûé_ãðàäèåíò_108"/><linearGradient id="Áåçûìÿííûé_ãðàäèåíò_108-6" x1="583.97" y1="186.43" x2="696.07" y2="186.43" xlink:href="#Áåçûìÿííûé_ãðàäèåíò_108"/><linearGradient id="Áåçûìÿííûé_ãðàäèåíò_22" x1="513.61" y1="119.27" x2="424.36" y2="119.27" gradientUnits="userSpaceOnUse"><stop offset="0.58"/><stop offset="0.63" stop-color="#030304"/><stop offset="0.68" stop-color="#0a0b10"/><stop offset="0.74" stop-color="#181924"/><stop offset="0.79" stop-color="#2a2d40"/><stop offset="0.84" stop-color="#424664"/><stop offset="0.9" stop-color="#5f6590"/><stop offset="0.95" stop-color="#8089c3"/><stop offset="1" stop-color="#a7b3fe"/></linearGradient><linearGradient id="Áåçûìÿííûé_ãðàäèåíò_14" x1="395.44" y1="165.57" x2="349.67" y2="171.89" gradientUnits="userSpaceOnUse"><stop offset="0.16" stop-color="#a7b3fe"/><stop offset="0.21" stop-color="#9aa6eb"/><stop offset="0.38" stop-color="#6c74a5"/><stop offset="0.54" stop-color="#464b6a"/><stop offset="0.69" stop-color="#282a3c"/><stop offset="0.82" stop-color="#12131b"/><stop offset="0.93" stop-color="#050507"/><stop offset="1"/></linearGradient><linearGradient id="Áåçûìÿííûé_ãðàäèåíò_17" x1="735.87" y1="197.23" x2="523.95" y2="197.23" gradientUnits="userSpaceOnUse"><stop offset="0.38"/><stop offset="1" stop-color="#a7b3fe"/></linearGradient><linearGradient id="Áåçûìÿííûé_ãðàäèåíò_269" x1="421.29" y1="179.3" x2="518.64" y2="174.9" gradientUnits="userSpaceOnUse"><stop offset="0" stop-color="#a71afe"/><stop offset="1" stop-color="#fff"/></linearGradient><linearGradient id="Áåçûìÿííûé_ãðàäèåíò_269-2" x1="280.21" y1="183.08" x2="262.62" y2="182.34" xlink:href="#Áåçûìÿííûé_ãðàäèåíò_269"/><linearGradient id="Áåçûìÿííûé_ãðàäèåíò_269-3" x1="295.18" y1="182.72" x2="273.91" y2="181.82" xlink:href="#Áåçûìÿííûé_ãðàäèåíò_269"/><linearGradient id="Áåçûìÿííûé_ãðàäèåíò_269-4" x1="368.83" y1="176.04" x2="342.92" y2="174.95" xlink:href="#Áåçûìÿííûé_ãðàäèåíò_269"/><linearGradient id="Áåçûìÿííûé_ãðàäèåíò_269-5" x1="382.28" y1="175.38" x2="352.89" y2="174.14" xlink:href="#Áåçûìÿííûé_ãðàäèåíò_269"/><linearGradient id="Áåçûìÿííûé_ãðàäèåíò_81" x1="515.5" y1="150.99" x2="425.89" y2="147.21" gradientUnits="userSpaceOnUse"><stop offset="0" stop-color="#fff"/><stop offset="1" stop-color="#a71afe"/></linearGradient><linearGradient id="Áåçûìÿííûé_ãðàäèåíò_81-2" x1="504.28" y1="167.61" x2="417.72" y2="163.96" xlink:href="#Áåçûìÿííûé_ãðàäèåíò_81"/><linearGradient id="Áåçûìÿííûé_ãðàäèåíò_269-6" x1="544.02" y1="192.82" x2="527.32" y2="192.12" xlink:href="#Áåçûìÿííûé_ãðàäèåíò_269"/><linearGradient id="Áåçûìÿííûé_ãðàäèåíò_269-7" x1="561.76" y1="189.38" x2="540.11" y2="188.47" xlink:href="#Áåçûìÿííûé_ãðàäèåíò_269"/><linearGradient id="Áåçûìÿííûé_ãðàäèåíò_81-3" x1="720.22" y1="189.9" x2="585.78" y2="184.23" xlink:href="#Áåçûìÿííûé_ãðàäèåíò_81"/><linearGradient id="Áåçûìÿííûé_ãðàäèåíò_91" x1="409.88" y1="168.94" x2="409.88" y2="71.89" gradientUnits="userSpaceOnUse"><stop offset="0" stop-color="#fff"/><stop offset="0.31" stop-color="#e5bcff"/><stop offset="1" stop-color="#a71afe"/></linearGradient><linearGradient id="Áåçûìÿííûé_ãðàäèåíò_81-4" x1="820.25" y1="208.51" x2="582.58" y2="198.49" xlink:href="#Áåçûìÿííûé_ãðàäèåíò_81"/><linearGradient id="Áåçûìÿííûé_ãðàäèåíò_81-5" x1="621.39" y1="185.72" x2="534.36" y2="190.28" xlink:href="#Áåçûìÿííûé_ãðàäèåíò_81"/><linearGradient id="Áåçûìÿííûé_ãðàäèåíò_269-8" x1="245.12" y1="185.43" x2="143.79" y2="181.16" xlink:href="#Áåçûìÿííûé_ãðàäèåíò_269"/><linearGradient id="Áåçûìÿííûé_ãðàäèåíò_90" x1="414.63" y1="166.64" x2="414.63" y2="69.59" gradientUnits="userSpaceOnUse"><stop offset="0" stop-color="#fff"/><stop offset="0.11" stop-color="#fdfaff"/><stop offset="0.24" stop-color="#f7ebff"/><stop offset="0.38" stop-color="#eed2ff"/><stop offset="0.54" stop-color="#e0afff"/><stop offset="0.7" stop-color="#cf82fe"/><stop offset="0.86" stop-color="#ba4cfe"/><stop offset="1" stop-color="#a71afe"/></linearGradient><linearGradient id="Áåçûìÿííûé_ãðàäèåíò_92" x1="397.05" y1="266.2" x2="397.05" y2="9.56" gradientUnits="userSpaceOnUse"><stop offset="0" stop-color="#fff"/><stop offset="0.09" stop-color="#fbf5ff"/><stop offset="0.25" stop-color="#f0d9ff"/><stop offset="0.46" stop-color="#dfacff"/><stop offset="0.71" stop-color="#c76dfe"/><stop offset="0.98" stop-color="#a91ffe"/><stop offset="1" stop-color="#a71afe"/></linearGradient><linearGradient id="Áåçûìÿííûé_ãðàäèåíò_269-9" x1="398.14" y1="221.97" x2="274.54" y2="114.36" xlink:href="#Áåçûìÿííûé_ãðàäèåíò_269"/><linearGradient id="Áåçûìÿííûé_ãðàäèåíò_269-10" x1="274.46" y1="182.34" x2="119.01" y2="182.34" xlink:href="#Áåçûìÿííûé_ãðàäèåíò_269"/><linearGradient id="Áåçûìÿííûé_ãðàäèåíò_59" x1="474.56" y1="234.99" x2="466.28" y2="98.29" gradientUnits="userSpaceOnUse"><stop offset="0" stop-color="#fff9fe"/><stop offset="0.01" stop-color="#fff7fe"/><stop offset="0.35" stop-color="#ffbffe"/><stop offset="0.64" stop-color="#ff96ff"/><stop offset="0.86" stop-color="#ff7dff"/><stop offset="1" stop-color="#ff74ff"/></linearGradient><clipPath id="clip-path"><path class="cls-1" d="M224.15,201.68s35.57,3.28,72-4.4S349.92,194,349.92,194l-1.22-6.51s6.34-4.79,19.61-4.23,19.38-8,19.38-8l.94-10.83s4.26.05,11.38-3.38,12.16-3.45,12.16-3.45V163s13.68,9.69,29.68,8.62S475,174.43,490.94,180s27.78,4.11,27.78,4.11l-1.47,5.23s27.84,11.7,55.88,7.53,58.4,10.12,79.13,8.76,55.79-3.56,73.49,3.19,69.82,2.43,69.82,2.43l2.3,7.48-112.06,5-1.53-7.47-287.71-2.43-1.53,9.6-76.29-4.29Z"/></clipPath><linearGradient id="Áåçûìÿííûé_ãðàäèåíò_437" x1="414.63" y1="179.28" x2="414.8" y2="124.03" gradientTransform="translate(853.12 365.6) rotate(180)" gradientUnits="userSpaceOnUse"><stop offset="0"/><stop offset="0.04" stop-color="#020404"/><stop offset="0.09" stop-color="#081111"/><stop offset="0.14" stop-color="#112727"/><stop offset="0.19" stop-color="#1e4646"/><stop offset="0.24" stop-color="#2f6d6d"/><stop offset="0.29" stop-color="#449d9d"/><stop offset="0.34" stop-color="#5cd4d4"/><stop offset="0.37" stop-color="#6fffff"/><stop offset="0.44" stop-color="#63e2e2"/><stop offset="0.57" stop-color="#439999"/><stop offset="0.77" stop-color="#102626"/><stop offset="0.84"/></linearGradient><linearGradient id="Áåçûìÿííûé_ãðàäèåíò_437-2" x1="551.54" y1="212.05" x2="551.65" y2="178.46" gradientTransform="translate(1011.2 377.48) rotate(180)" xlink:href="#Áåçûìÿííûé_ãðàäèåíò_437"/><linearGradient id="Áåçûìÿííûé_ãðàäèåíò_437-3" x1="574.29" y1="221.21" x2="574.35" y2="202.28" gradientTransform="translate(1011.2 377.48) rotate(180)" xlink:href="#Áåçûìÿííûé_ãðàäèåíò_437"/><linearGradient id="Áåçûìÿííûé_ãðàäèåíò_11" x1="711.55" y1="251.43" x2="711.55" y2="98.17" gradientUnits="userSpaceOnUse"><stop offset="0.32" stop-color="#a71afe"/><stop offset="1"/></linearGradient><linearGradient id="Áåçûìÿííûé_ãðàäèåíò_47" x1="427.28" y1="198.19" x2="660.88" y2="187.65" gradientUnits="userSpaceOnUse"><stop offset="0" stop-color="#a71afe"/><stop offset="1"/></linearGradient><linearGradient id="Áåçûìÿííûé_ãðàäèåíò_11-2" x1="362.67" y1="244.82" x2="247.09" y2="144.18" xlink:href="#Áåçûìÿííûé_ãðàäèåíò_11"/><linearGradient id="Áåçûìÿííûé_ãðàäèåíò_11-3" x1="401.19" y1="225.14" x2="462.22" y2="222.38" xlink:href="#Áåçûìÿííûé_ãðàäèåíò_11"/><linearGradient id="Áåçûìÿííûé_ãðàäèåíò_52" x1="528.51" y1="227.07" x2="762.11" y2="216.53" gradientUnits="userSpaceOnUse"><stop offset="0.33"/><stop offset="0.68" stop-color="#a71afe"/></linearGradient><linearGradient id="Áåçûìÿííûé_ãðàäèåíò_11-4" x1="258.77" y1="238.9" x2="216.42" y2="143.97" xlink:href="#Áåçûìÿííûé_ãðàäèåíò_11"/><linearGradient id="Áåçûìÿííûé_ãðàäèåíò_47-2" x1="428.68" y1="138.92" x2="493.67" y2="99.98" xlink:href="#Áåçûìÿííûé_ãðàäèåíò_47"/><linearGradient id="Áåçûìÿííûé_ãðàäèåíò_76" x1="405.49" y1="75.16" x2="405.49" y2="7.75" gradientUnits="userSpaceOnUse"><stop offset="0" stop-color="#0cf"/><stop offset="0.4" stop-color="#007a99"/><stop offset="1"/></linearGradient><linearGradient id="Áåçûìÿííûé_ãðàäèåíò_76-2" x1="735.57" y1="140.49" x2="735.57" y2="59.15" xlink:href="#Áåçûìÿííûé_ãðàäèåíò_76"/><linearGradient id="Áåçûìÿííûé_ãðàäèåíò_76-3" x1="536.61" y1="130.45" x2="536.61" y2="28.5" xlink:href="#Áåçûìÿííûé_ãðàäèåíò_76"/><linearGradient id="Áåçûìÿííûé_ãðàäèåíò_76-4" x1="257.66" y1="139.45" x2="257.66" y2="63.28" xlink:href="#Áåçûìÿííûé_ãðàäèåíò_76"/><radialGradient id="Áåçûìÿííûé_ãðàäèåíò_178" cx="257.74" cy="98.17" r="48.51" gradientUnits="userSpaceOnUse"><stop offset="0" stop-color="#0cf"/><stop offset="0.08" stop-color="#00b4e2"/><stop offset="0.28" stop-color="#007e9e"/><stop offset="0.46" stop-color="#005166"/><stop offset="0.63" stop-color="#002e3a"/><stop offset="0.78" stop-color="#00151a"/><stop offset="0.91" stop-color="#000607"/><stop offset="1"/></radialGradient><radialGradient id="Áåçûìÿííûé_ãðàäèåíò_178-2" cx="417.68" cy="48.51" r="48.51" gradientTransform="translate(47.94 -151.74) rotate(21.81)" xlink:href="#Áåçûìÿííûé_ãðàäèåíò_178"/><radialGradient id="Áåçûìÿííûé_ãðàäèåíò_178-3" cx="539.89" cy="89.94" r="48.51" xlink:href="#Áåçûìÿííûé_ãðàäèåíò_178"/><radialGradient id="Áåçûìÿííûé_ãðàäèåíò_178-4" cx="747.57" cy="102.72" r="48.51" xlink:href="#Áåçûìÿííûé_ãðàäèåíò_178"/><radialGradient id="Áåçûìÿííûé_ãðàäèåíò_178-5" cx="731.9" cy="67.68" r="48.52" gradientTransform="translate(-532.51 129.9) scale(1.74 0.17)" xlink:href="#Áåçûìÿííûé_ãðàäèåíò_178"/><radialGradient id="Áåçûìÿííûé_ãðàäèåíò_178-6" cx="610.63" cy="-24.59" r="48.52" gradientTransform="translate(53.23 129.9) scale(0.8 0.17)" xlink:href="#Áåçûìÿííûé_ãðàäèåíò_178"/><radialGradient id="Áåçûìÿííûé_ãðàäèåíò_178-7" cx="260.84" cy="41.69" r="48.52" gradientTransform="translate(-148.45 129.9) scale(1.55 0.17)" xlink:href="#Áåçûìÿííûé_ãðàäèåíò_178"/><linearGradient id="Áåçûìÿííûé_ãðàäèåíò_179" x1="258.97" y1="139.45" x2="258.97" y2="63.28" gradientUnits="userSpaceOnUse"><stop offset="0"/><stop offset="0.6" stop-color="#007a99"/><stop offset="1" stop-color="#0cf"/></linearGradient><linearGradient id="Áåçûìÿííûé_ãðàäèåíò_179-2" x1="220.99" y1="139.45" x2="220.99" y2="63.28" xlink:href="#Áåçûìÿííûé_ãðàäèåíò_179"/><linearGradient id="Áåçûìÿííûé_ãðàäèåíò_179-3" x1="405.05" y1="75.16" x2="405.05" y2="7.75" xlink:href="#Áåçûìÿííûé_ãðàäèåíò_179"/><linearGradient id="Áåçûìÿííûé_ãðàäèåíò_179-4" x1="732.48" y1="140.49" x2="732.48" y2="59.15" xlink:href="#Áåçûìÿííûé_ãðàäèåíò_179"/><linearGradient id="Áåçûìÿííûé_ãðàäèåíò_179-5" x1="534.68" y1="130.45" x2="534.68" y2="28.5" xlink:href="#Áåçûìÿííûé_ãðàäèåíò_179"/></defs><g class="cls-2"><g id="Layer_2" data-name="Layer 2"><g id="L5"><path class="cls-3" d="M501.5,97.38l-51.31,8.19-8.28-7.4C309.37,99.41,179.05,97,68.23,86.88-.23,80.63,0,88.16,0,88.16V268.1H924.57v-184C800.53,88.47,651.25,94.85,501.5,97.38Z"/><path class="cls-4" d="M924.49,208.67c-12.86-4.62,1.06-34.1-40.52-32.59l-60.19,14.09L116,181.87l16.7,40c-5.89-1-9.23-1.64-9.23-1.64C-5.93,215.22,0,268.1,0,268.1H924.57ZM343.42,246.88c-51-.17-133.46-12.26-181.59-20.1,72.52,3.62,271.22,12.58,395.7,9C488,239.68,396.18,247.06,343.42,246.88Zm286.73-13.32c-7.92-.23-17.88-.12-29.35.23q4.8-.33,9.29-.7c36.43-3,67.57-5.63,93.63-7.82C679.7,230.24,652.75,234.24,630.15,233.56Z"/><polygon class="cls-5" points="473.93 251.43 913.81 246.88 904.85 146.27 527.89 151.52 692.29 143.05 412.17 128.32 513.87 122.63 417.68 110.77 450.19 105.57 441.91 98.17 351.29 110.77 395.04 114.71 236.14 132.29 339.04 136.16 106.87 155.9 106.36 179.92 318.75 219.15 527.89 230.92 396.57 213.84 684.28 216.27 594.95 227.82 848.88 216.41 848.88 231.54 473.93 251.43"/><polygon class="cls-6" points="692.29 143.05 412.17 128.32 412.17 163 409.33 183.25 404.74 213.91 510.08 214.8 527.89 151.52 692.29 143.05"/><polygon class="cls-7" points="339.04 136.16 106.87 155.9 106.36 179.92 318.75 219.15 355.04 221.19 339.04 136.16"/><polygon class="cls-8" points="169.29 160.69 234.12 160.69 264.29 204.82 257.66 203.31 232.53 163 169.29 160.69"/><polygon class="cls-9" points="264.29 153.3 286.01 213.1 279.07 211.82 264.29 153.3"/><polygon class="cls-10" points="275.8 149.62 296.14 197.28 291.89 202.46 275.8 149.62"/><polygon class="cls-11" points="341.72 123.28 372.4 197.68 367.63 197.68 341.72 123.28"/><polygon class="cls-12" points="355.04 140.71 384.06 181.35 395.04 114.71 385.41 193.99 355.04 140.71"/><polygon class="cls-13" points="339.04 136.16 345.32 197.68 355.04 221.19 339.04 136.16"/><polygon class="cls-14" points="412.17 128.32 418.4 161.72 428.32 155 502.55 166.7 428.71 157.75 411.04 171.08 412.17 163 412.17 128.32"/><polygon class="cls-15" points="446.35 151.31 422.87 137.87 431.21 137.18 505.48 150.42 428.47 139.46 446.35 151.31"/><polygon class="cls-16" points="417.68 110.77 426 127.78 421.75 127.78 417.68 110.77"/><polygon class="cls-17" points="527.89 151.52 523.18 193.99 511.49 209.81 527.89 151.52"/><polygon class="cls-18" points="547.2 170.12 524.23 206.67 526.78 214.94 547.2 170.12"/><polygon class="cls-19" points="539.89 206.67 545.95 192.13 565.76 163 539.89 206.67"/><polygon class="cls-20" points="618.77 215.72 583.97 175.24 608.26 157.15 696.07 180.75 606.61 161.72 589.59 174.2 618.77 215.72"/><polygon class="cls-21" points="677.42 161.03 680.73 169.03 769.33 182.74 771.88 177.13 677.42 161.03"/><polygon class="cls-22" points="417.68 110.77 421.75 127.78 513.87 122.63 417.68 110.77"/><polygon class="cls-23" points="236.14 132.29 339.04 136.16 355.04 221.19 318.75 219.15 381.93 222.71 395.04 114.71 236.14 132.29"/><polygon class="cls-24" points="904.85 146.27 527.89 151.52 510.08 214.8 684.28 216.27 685.81 223.74 594.95 227.82 848.88 216.41 848.88 231.54 672.81 240.88 787.75 248.19 911.11 246.91 913.01 237.88 904.85 146.27"/><polygon class="cls-21" points="696.88 161.03 771.88 174.75 763.17 169.03 703.67 159.27 696.88 161.03"/><polygon class="cls-21" points="469.08 137.18 473.19 140.71 542.44 147.9 552.82 144.33 469.08 137.18"/><polygon class="cls-21" points="321.27 149.62 327.59 144.33 330.87 189.06 324.21 187.47 321.27 149.62"/><polygon class="cls-21" points="330.87 157.15 333.64 182.34 336.02 178.67 333.44 157.15 330.87 157.15"/><polygon class="cls-21" points="359.68 127.78 376.01 159.82 378.44 151.76 366.03 122.85 359.68 127.78"/><polygon class="cls-21" points="373.08 133.18 381.93 149.37 384.06 147.46 378.57 127.78 373.08 133.18"/><polygon class="cls-25" points="428.47 139.46 446.35 151.31 505.48 167.05 428.71 157.75 411.04 171.08 404.74 213.91 510.08 214.8 527.32 153.52 428.47 139.46"/><polygon class="cls-26" points="264.29 153.3 271.97 204.33 281.32 212.24 278.48 205.75 264.29 153.3"/><polygon class="cls-27" points="275.8 149.62 291.12 212.24 296.64 215.07 275.8 149.62"/><polygon class="cls-28" points="345.32 133.59 345.54 134.6 361.85 206.63 370.53 217.57 367.63 197.68 345.32 133.59"/><polygon class="cls-29" points="355.04 140.71 378.7 193.22 379.97 208.8 385.41 193.99 355.04 140.71"/><polygon class="cls-30" points="446.35 151.31 443.8 145.92 525.71 159.27 527.32 153.52 428.47 139.46 446.35 151.31"/><polygon class="cls-31" points="419.88 164.41 430.53 161.72 515.5 174.75 505.48 167.05 428.71 157.75 419.88 164.41"/><polygon class="cls-32" points="547.2 170.12 532.02 214.99 526.78 214.94 547.2 170.12"/><polygon class="cls-33" points="565.76 163 540.89 215.06 539.89 206.67 565.76 163"/><polygon class="cls-34" points="613.9 208.8 600.8 176.08 607.97 170.59 684.28 194.88 624.65 170.59 738.13 189.69 606.61 161.72 589.59 174.2 613.9 208.8"/><polygon class="cls-35" points="420.57 122.85 392.72 133.8 391.44 144.33 412.17 134.82 412.17 128.32 424.89 128.99 428.32 127.42 421.75 127.78 420.57 122.85"/><polygon class="cls-36" points="606.61 161.72 589.59 174.2 618.77 215.72 684.28 216.27 685.81 223.74 594.95 227.82 848.88 216.41 848.88 231.54 717.21 238.53 849.89 247.54 851.67 213.84 606.61 161.72"/><polygon class="cls-37" points="565.76 163 539.89 206.67 547.2 170.12 526.78 214.94 549.45 215.13 565.76 163"/><polygon class="cls-38" points="147.21 160.69 230.7 169.53 257.66 207.87 257.66 203.31 232.53 163 147.21 160.69"/><polygon class="cls-39" points="418.53 114.33 417.68 110.77 422.8 111.4 436.31 102.12 394.42 119.83 392.95 131.89 418.53 114.33"/><polygon class="cls-40" points="412.17 145.92 390.3 153.72 381.93 222.71 395.04 223.44 396.57 213.84 404.74 213.91 412.17 163 412.17 145.92"/><polygon class="cls-41" points="385.41 193.99 355.04 140.71 372.4 197.68 367.63 197.68 340.83 120.71 236.14 132.29 339.04 136.16 355.04 221.19 381.93 222.71 385.41 193.99"/><polygon class="cls-42" points="275.8 149.62 286.01 205.75 278.48 205.75 264.29 153.3 268.35 205.75 257.66 203.31 232.53 163 115.38 159.82 110.77 180.74 296.64 215.07 291.89 202.46 275.8 149.62"/><polygon class="cls-43" points="262.11 208.69 352.72 208.89 350.58 197.51 385.41 193.99 387.27 178.67 412.17 163 409.33 183.25 513.87 201.36 511.49 209.81 684.28 216.27 396.57 213.84 395.04 223.44 318.75 219.15 262.11 208.69"/><g class="cls-44"><path class="cls-1" d="M224.15,201.68s35.57,3.28,72-4.4S349.92,194,349.92,194l-1.22-6.51s6.34-4.79,19.61-4.23,19.38-8,19.38-8l.94-10.83s4.26.05,11.38-3.38,12.16-3.45,12.16-3.45V163s13.68,9.69,29.68,8.62S475,174.43,490.94,180s27.78,4.11,27.78,4.11l-1.47,5.23s27.84,11.7,55.88,7.53,58.4,10.12,79.13,8.76,55.79-3.56,73.49,3.19,69.82,2.43,69.82,2.43l2.3,7.48-112.06,5-1.53-7.47-287.71-2.43-1.53,9.6-76.29-4.29Z"/><g class="cls-45"><path class="cls-46" d="M326.45,203c27.58,3.44,7.89,10.47-6.06,12.36-5.24.71-11.88-.43-20.24-2.13a14,14,0,0,0,5,1.86c15.23,2.94,34.75,1.21,47.11,2.63,8.62,1,15.84,6.73,19.43,10.13,1.39-.54,3.16-1.09,4.19-1.6,2.86-1.42,31.74-.85,28.24,2.77-1.53,1.59-20.31,2.33-30,1.35L405,233.81c-6.38-2.32,4.3-5.64,11.4-6.08,8.73-.54,11.85,1.06,18.25,3.06,6.15,1.91-2.58,6-19.34,4.69l12.14,2.74c1.67-1.73,8.12-3.35,12.94-3.65,8.73-.54,11.85,1.06,18.25,3.05,3.39,1.06,2.25,2.77-2.26,3.87l53.34-5.79a124.15,124.15,0,0,1-13.74-.41c-9.68-1-1.11-2.7,1.74-4.12s31.74-.84,28.25,2.77l27.47-4.36c-8.74-.3-6.92-2.78-17.41-7.24-12.77-5.42-.46-6.49,18-5.71,9.91.41,13.52-1.37,19.12-.18l3.48-2.14a76.51,76.51,0,0,1-9.57,1.93c-8.36,1.13-20.3-2.45-37.12-5.51-15.13-2.76,9.57-8.87,34.75-7.58l-6-1.7c-4.74.46-12.63.5-22.34,1.29s-22.9-3.8-21.94-5.33c.48-.78,11.36-1.87,22.68-2.15l-2.89-.82-.31,0c-9.36.37-20.31-.2-34.28,2.13s-24.27-2.6-20-4.9c2.59-1.39,13.68-4.37,26.07-5.42,0,0-17.66-.36-50.07.4,1.71.13,3.41.3,5.09.51,27.57,3.45,7.89,10.47-6.07,12.36-8.36,1.13-20.31-2.45-37.13-5.51-9.44-1.72-3.36-4.75,8.66-6.47q-11.17.41-23.76,1c6.17,2.05,11.6,5,5.91,6.59-9.55,2.65-10.56,0-21.24-2.92-2.38-.64-2.52-1.75-1.59-2.83L375,190c-39,2.19-60.12,7.22-70,12.25A132.45,132.45,0,0,1,326.45,203Zm12.89,12.49c-9.68-1-1.12-2.7,1.74-4.12s31.74-.84,28.25,2.77C367.79,215.71,349,216.45,339.34,215.47Zm44.46,9.4c-7.08.36-34.12-6.92-15.26-9.67s17.11.16,30.81,3.4C406.4,220.27,390.87,224.51,383.8,224.87Zm11-12.13c4.29-2.3,31.74-9,50-4,8.74,2.36,13.64,6.42,4.28,6.79s-20.31-.21-34.27,2.12S390.53,215,394.81,212.74Zm28.72,13.81c-5.39,1.75-32,.74-23.16-4.32s58.36-9.21,65.69-3.18c2.56,2.11-1.91,4.93-14,4.86S428.93,224.79,423.53,226.55Zm39.36-18.24c20.31-2.22,16.88.61,28.59,4.19,6,1.84-11.85,5.64-19.07,5.81S442.57,210.54,462.89,208.31Zm11.42,28.12c-15.55,1.91-14-.83-34-5.15s-9.84-6.15,8.89-6.62,32.65.18,40.3,4.39C494.59,231.82,489.86,234.52,474.31,236.43Zm36.81-6.71c-8.36,1.13-20.31-2.45-37.13-5.51s15.62-10.29,43.2-6.85S525.08,227.83,511.12,229.72Zm18.41-15.6c-1.54,1.59-20.31,2.33-30,1.35s-1.11-2.7,1.75-4.12S533,210.51,529.53,214.12Zm-39.45-16.26c18.7.52,31.44,1.88,34,6.35,1.7,3-6,5.32-23.27,6.37s-12.58-1.54-27-6.77S471.38,197.34,490.08,197.86Zm-38.89,2.47c8.73-.54,11.85,1.06,18.25,3.06s-3.65,6.46-22.38,4.41S442.46,200.87,451.19,200.33Zm-44.39-3.27c18.86-2.75,17.12.16,30.81,3.4,7.05,1.67-8.48,5.91-15.55,6.27S387.94,199.8,406.8,197.06Zm-20.88,16.21c-8.36,1.13-20.3-2.45-37.12-5.52s15.61-10.29,43.19-6.84S399.88,211.37,385.92,213.27Zm-60.77-15.56c8.89-5.06,58.37-9.2,65.7-3.17,2.56,2.11-1.91,4.93-14,4.86s-23.17.88-28.56,2.63S316.27,202.78,325.15,197.71Z"/><path class="cls-47" d="M527.67,188.63c-16.77-2.09-4.8-6.36,3.69-7.51,3.18-.43,7.22.26,12.3,1.29a8.59,8.59,0,0,0-3-1.13c-9.26-1.78-21.13-.74-28.64-1.6-5.24-.6-9.63-4.09-11.82-6.16-.84.33-1.92.67-2.54,1-1.74.86-19.3.51-17.18-1.69.94-1,12.35-1.41,18.24-.82l-18.78-2.1c3.88,1.41-2.61,3.43-6.93,3.69-5.31.33-7.21-.64-11.1-1.86s1.57-3.63,11.76-2.85l-7.38-1.67c-1,1.06-4.94,2-7.87,2.23-5.31.32-7.2-.65-11.09-1.86-2.07-.64-1.37-1.68,1.37-2.36l-32.43,3.53a76.92,76.92,0,0,1,8.35.25c5.89.59.68,1.64-1.06,2.5s-19.29.52-17.17-1.68l-16.71,2.65c5.32.18,4.21,1.69,10.59,4.4,7.76,3.3.28,3.95-11,3.47-6-.25-8.22.83-11.63.11l-2.11,1.3a49.39,49.39,0,0,1,5.81-1.17c5.09-.69,12.35,1.49,22.58,3.35,9.19,1.68-5.82,5.39-21.13,4.61l3.61,1c2.88-.28,7.68-.3,13.59-.78s13.92,2.31,13.34,3.24c-.3.47-6.91,1.13-13.79,1.3l1.75.51.19,0c5.7-.22,12.35.13,20.84-1.29s14.76,1.58,12.16,3c-1.58.84-8.32,2.65-15.85,3.29,0,0,10.74.22,30.44-.24-1-.08-2.07-.18-3.09-.31-16.77-2.1-4.8-6.37,3.69-7.52,5.08-.68,12.35,1.49,22.57,3.36,5.74,1,2.05,2.88-5.26,3.93,4.53-.17,9.34-.36,14.45-.6-3.76-1.24-7.06-3-3.6-4,5.81-1.62,6.42,0,12.92,1.77,1.44.39,1.53,1.06,1,1.72l6.41-.34c23.7-1.34,36.55-4.4,42.56-7.45A80.75,80.75,0,0,1,527.67,188.63ZM519.84,181c5.88.59.67,1.64-1.06,2.5s-19.3.51-17.18-1.68C502.54,180.89,514,180.44,519.84,181Zm-27-5.72c4.3-.21,20.74,4.21,9.27,5.88s-10.4-.1-18.73-2.07C479.06,178.12,488.51,175.54,492.81,175.32Zm-6.7,7.38c-2.61,1.39-19.3,5.44-30.39,2.44-5.32-1.43-8.3-3.9-2.61-4.12s12.35.12,20.84-1.3S488.71,181.3,486.11,182.7Zm-17.47-8.4c3.28-1.07,19.49-.45,14.09,2.63s-35.49,5.6-39.94,1.93c-1.56-1.28,1.16-3,8.49-3S465.36,175.37,468.64,174.3Zm-23.92,11.09c-12.35,1.35-10.27-.37-17.39-2.55-3.66-1.12,7.2-3.43,11.6-3.53S457.07,184,444.72,185.39Zm-7-17.1c9.46-1.16,8.49.51,20.65,3.14s6,3.73-5.41,4-19.85-.11-24.5-2.67C425.44,171.1,428.32,169.46,437.77,168.29Zm-22.38,4.08c5.08-.69,12.35,1.49,22.57,3.35s-9.49,6.26-26.26,4.17S406.9,173.52,415.39,172.37Zm-11.19,9.49c.93-1,12.35-1.42,18.23-.82s.68,1.64-1.06,2.5S402.07,184.05,404.2,181.86Zm24,9.89c-11.37-.32-19.12-1.15-20.68-3.87-1-1.79,3.65-3.23,14.15-3.87s7.65.94,16.41,4.12S439.55,192.06,428.18,191.75Zm23.65-1.51c-5.31.33-7.21-.64-11.1-1.86s2.22-3.93,13.61-2.68S457.14,189.91,451.83,190.24Zm27,2c-11.47,1.67-10.41-.09-18.74-2.07-4.28-1,5.16-3.59,9.46-3.81S490.28,190.56,478.82,192.23Zm12.69-9.85c5.09-.69,12.35,1.49,22.58,3.35s-9.5,6.26-26.27,4.16S483,183.53,491.51,182.38Zm37,9.45c-5.4,3.08-35.49,5.6-39.94,1.93-1.56-1.28,1.16-3,8.49-2.95s14.09-.54,17.37-1.6S533.86,188.76,528.46,191.83Z"/><path class="cls-48" d="M475.25,169.35c-9.45-1.18-2.71-3.59,2.08-4.24a22.79,22.79,0,0,1,6.93.73,4.76,4.76,0,0,0-1.7-.63c-5.22-1-11.91-.42-16.15-.91a12.39,12.39,0,0,1-6.66-3.47c-.47.19-1.08.38-1.43.55-1,.49-10.88.29-9.68-.95.52-.54,7-.8,10.28-.46l-10.59-1.19c2.19.8-1.47,1.94-3.91,2.09-3,.18-4.06-.37-6.25-1.05s.88-2,6.63-1.61l-4.16-.94c-.58.6-2.79,1.15-4.44,1.25-3,.19-4.06-.36-6.25-1-1.17-.37-.78-.95.77-1.33l-18.28,2a45.26,45.26,0,0,1,4.71.15c3.32.33.38.92-.6,1.41s-10.88.29-9.68-.95l-9.42,1.49c3,.11,2.38,1,6,2.48,4.38,1.86.16,2.23-6.18,2-3.4-.14-4.63.47-6.55.06l-1.2.74a27.26,27.26,0,0,1,3.28-.67c2.87-.38,7,.84,12.73,1.89,5.18.95-3.28,3-11.91,2.6l2,.58c1.62-.15,4.33-.17,7.65-.44s7.85,1.3,7.52,1.83c-.16.26-3.89.64-7.77.73l1,.29h.11a80,80,0,0,0,11.74-.73c4.79-.8,8.33.89,6.86,1.68a32.34,32.34,0,0,1-8.94,1.86s6.06.12,17.16-.14c-.58-.05-1.16-.1-1.74-.18-9.45-1.18-2.7-3.58,2.08-4.23,2.87-.39,7,.84,12.72,1.89,3.24.59,1.16,1.63-3,2.22,2.55-.1,5.27-.21,8.14-.34-2.11-.7-4-1.72-2-2.26,3.27-.91,3.61,0,7.28,1,.81.22.86.6.54,1l3.61-.19c13.36-.75,20.61-2.48,24-4.2A46.65,46.65,0,0,1,475.25,169.35Zm-4.42-4.28c3.32.33.38.92-.6,1.41s-10.87.29-9.68-.95C461.08,165,467.52,164.73,470.83,165.07Zm-15.24-3.22c2.43-.13,11.7,2.37,5.23,3.31s-5.86,0-10.56-1.17C447.85,163.42,453.17,162,455.59,161.85ZM451.82,166c-1.47.78-10.88,3.06-17.13,1.37-3-.81-4.68-2.2-1.47-2.32a80.19,80.19,0,0,0,11.75-.73C449.75,163.53,453.29,165.22,451.82,166ZM442,161.27c1.85-.6,11-.25,7.95,1.48s-20,3.16-22.52,1.09c-.88-.72.65-1.69,4.79-1.67A37.47,37.47,0,0,0,442,161.27Zm-13.48,6.25c-7,.77-5.79-.21-9.8-1.43-2.07-.64,4.06-1.94,6.53-2S435.45,166.76,428.49,167.52Zm-3.92-9.63c5.33-.66,4.79.28,11.64,1.76s3.37,2.11-3,2.27-11.19-.06-13.81-1.5C417.62,159.46,419.24,158.54,424.57,157.89ZM412,160.18c2.86-.38,7,.84,12.72,1.89s-5.35,3.53-14.8,2.35S407.17,160.83,412,160.18Zm-6.32,5.35c.53-.54,7-.8,10.28-.46s.38.92-.59,1.41S404.45,166.77,405.64,165.53Zm13.53,5.58c-6.41-.18-10.78-.65-11.66-2.18-.58-1,2.05-1.83,8-2.18s4.31.52,9.24,2.32S425.57,171.28,419.17,171.11Zm13.33-.85c-3,.18-4.07-.37-6.26-1s1.25-2.22,7.67-1.51S435.49,170.07,432.5,170.26Zm15.21,1.12c-6.47.94-5.87-.06-10.56-1.17-2.42-.57,2.91-2,5.33-2.14S454.17,170.44,447.71,171.38Zm7.16-5.56c2.86-.38,7,.84,12.72,1.89s-5.35,3.53-14.8,2.35S450.08,166.47,454.87,165.82Zm20.82,5.33c-3,1.74-20,3.16-22.51,1.09-.88-.72.65-1.69,4.78-1.66s7.94-.3,9.79-.91S478.74,169.42,475.69,171.15Z"/></g></g><polygon class="cls-49" points="904.85 146.27 527.89 151.52 510.08 214.8 684.28 216.27 685.81 223.74 594.95 227.82 848.88 216.41 848.88 231.54 672.81 240.88 787.75 248.19 911.11 246.91 913.01 237.88 904.85 146.27"/><polygon class="cls-50" points="904.85 146.27 527.89 151.52 692.29 143.05 412.17 128.32 412.17 163 409.33 183.25 404.74 213.91 510.08 214.8 684.28 216.27 685.81 223.74 594.95 227.82 848.88 216.41 848.88 231.54 672.81 240.88 787.75 248.19 911.11 246.91 913.01 237.88 904.85 146.27"/><polygon class="cls-51" points="236.14 132.29 339.04 136.16 106.87 155.9 106.36 179.92 318.75 219.15 381.93 222.71 395.04 114.71 236.14 132.29"/><polygon class="cls-52" points="527.89 230.92 395.04 223.44 396.57 213.84 527.89 230.92"/><polygon class="cls-53" points="684.28 216.27 594.95 227.82 685.81 223.74 684.28 216.27"/><polygon class="cls-54" points="339.04 136.16 106.87 155.9 106.36 179.92 318.75 219.15 355.04 221.19 339.04 136.16"/><polygon class="cls-55" points="417.68 110.77 421.75 127.78 513.87 122.63 417.68 110.77"/><path class="cls-56" d="M365.06,55.66c-2.81,1.81-5.62,3.63-8.44,5.42a9.3,9.3,0,0,1-1.45.62c0-.56-.05-1.12,0-1.68a1.81,1.81,0,0,0-.07-1c-1.85,1.41-3.69,2.82-5.55,4.2a4.61,4.61,0,0,1-1.07.43,3.41,3.41,0,0,1,.13-1.13c4-7.61,10.6-12.36,18.11-16.06a12.47,12.47,0,0,1,5.7-1.33c2.88,0,5.76-.14,8.64-.24s5.12-1.44,7.45-2.68a147.17,147.17,0,0,1,14.75-7,45.75,45.75,0,0,1,9.51-2.35c-1.29-.26-2.6-.5-3.88-.81-.32-.07-.58-.39-.87-.6.3-.18.59-.5.9-.52,2.18-.16,4.37-.26,6.63-.38a4,4,0,0,1-.48-.44c-.17-.22-.47-.59-.4-.69a1.08,1.08,0,0,1,.76-.5,11.17,11.17,0,0,1,2.66.39c2.93,1,5.82,2.05,8.85,3.12L428,31.27c-1-.75-1.92-1.47-2.88-2.17-1.87-1.37-3.82-2.64-5.6-4.12a18.85,18.85,0,0,1-2.76-3.2,3.74,3.74,0,0,1-.36-1.39,5.22,5.22,0,0,1,1.42,0c4.76,1.28,9.52,2.59,14.28,3.89.25.07.5.1,1.05.2-.39-.54-.66-.88-.89-1.25-1.24-2-2.5-4-3.67-6.05a4.31,4.31,0,0,1-.19-1.64,6.14,6.14,0,0,1,1.68.22,46.63,46.63,0,0,1,10.86,6.63c2,1.61,4,3.2,5.94,4.92a13.66,13.66,0,0,1,2.35,3,3,3,0,0,0,2.53,1.75c3,.2,4.25-.19,7.21.44,1.19.25,3,0,3.52,1.43.46,1.29-.73,2.15-1.57,2.87A5,5,0,0,1,458.25,38c-2.88.35-4,1-6.85,1.28a9,9,0,0,0-5.06,2.05c-.88.74-2,1.2-2.85,2a20.8,20.8,0,0,0-2.1,2.64c-.76,1-1.45,2-2.29,2.89a35.78,35.78,0,0,1-2.7,2.35l.1.36a4.84,4.84,0,0,0,1.49-.15q2.79-1.17,5.51-2.49c2.63-1.27,5.24-2.59,7.84-3.9a2.59,2.59,0,0,1,3.27.52c2.2,2.05,4.5,4,6.69,6a1.5,1.5,0,0,1,.28,1.4,1.86,1.86,0,0,1-2.31.93,5.86,5.86,0,0,1-1.53-.93c-1.42-1.13-2.82-2.3-4.2-3.47a2.92,2.92,0,0,0-3.4-.27c-1.6,1-3.2,2-4.81,3.15,2-.89,3,.36,3.73,1.78s1.4,3.12,2.19,4.64a6.1,6.1,0,0,0,1.52,2,2.81,2.81,0,0,1,1,3.13c-.12.46-.94.88-1.53,1.06a1.67,1.67,0,0,1-2.24-.69c-.62-1.23-1.23-2.46-1.8-3.71a4.16,4.16,0,0,0-5.38-2.12C439,60,435.31,62,431.56,63.66c-2.3,1-4.67,1.94-7,2.93-1.16.49-1.7,0-2.17-1-1.37-3-2.83-6-4.28-9-.53.15-.94.25-1.34.38a4,4,0,0,1-4.19-.87,14.19,14.19,0,0,1-1.15-1c-1.95-2.2-4.57-2.77-7.31-3-.3,0-.71.35-.91.64-1,1.53-2.1,3-3,4.63a7.56,7.56,0,0,1-5.26,3.81c-3.12.56-4.91,2.47-6.22,5.19a30.63,30.63,0,0,1-2.63,3.84c-.64,3-4.67,7.27-6.29,2.92.95-1.76,1.76-3.25,2.55-4.76,1.35-2.57,2.91-5,5.56-6.4.52-.27,1.09-.43,1.61-.69a9.41,9.41,0,0,0,5.33-6.86c-1.67,1.49-3.14,2.73-4.53,4a6.17,6.17,0,0,1-3.93,1.7,7.48,7.48,0,0,0-4.51,2l-6.93,6.17a3.53,3.53,0,0,0-1.25,2.12c-.18,1.47-4,4.48-5.64,4.74-1.07.16-1.37-.28-.93-1.26a10.83,10.83,0,0,1,1.1-1.89c3.09-4.34,6.18-8.69,9.35-13,.45-.61,1.37-.85,2-1.31s1.57-.81,1.91-1.46a53.28,53.28,0,0,0,2-5,4.36,4.36,0,0,0-1.37-.13,19.85,19.85,0,0,1-6.64.51,4.86,4.86,0,0,0-4.74,2.09c-1,1.2-1.94,2.38-3,3.52a4.18,4.18,0,0,1-1.21,1.12,6.49,6.49,0,0,1-1.42.26,7.48,7.48,0,0,1-.19-1.4,5.5,5.5,0,0,1,.32-1.22Zm60.71,2.57.11.41,5.33-.92a13,13,0,0,0-2.33-1.29c-2.47-1.17-2.7-1-3.15,1.68A.56.56,0,0,0,425.77,58.23Z"/><path class="cls-57" d="M757.64,113.88c-2.23,4.6-4.4,8.84-6.36,13.17a45.11,45.11,0,0,0-2.23,6.55c-.47,1.69.63,2.86,2.34,3.18a4.57,4.57,0,0,1,2.27,1.42c.68.76,0,1.47-.72,1.58-2.15.31-4.33.47-6.5.59-.28,0-.77-.6-.85-1-.4-2.1-.76-4.21-1-6.33a4.1,4.1,0,0,1,.4-1.92c1.76-4.29,3.56-8.56,5.35-12.83.11-.28.2-.57.28-.82-.6,0-1.25.18-1.67,0s-.39-.87-.67-1.62c-6.52,2.14-11.35-2.2-16.89-5,.31,1.15.57,2.08.82,3a5.57,5.57,0,0,1-2.35,6.66c-1,.73-2.06,1.42-3.12,2.07s-2.17,1.24-3.39,1.93c.63.84,1.3,1.65,1.87,2.52,1.6,2.42,3.19,4.84,4.7,7.31a4.67,4.67,0,0,1,.66,2.26,1.76,1.76,0,0,1-.93,1.28,1.57,1.57,0,0,1-1.37-.39c-3.61-3.82-7.39-7.51-9.54-12.47-.66-1.53-.68-2.06.63-3.1,1.61-1.27,3.29-2.45,4.86-3.77s1.53-1.93.18-3.43c-.63-.7-1.29-1.35-2.08-2.18-.87,1.22-1.64,2.29-2.39,3.37-1,1.38-1.85,2.85-2.94,4.14a18.27,18.27,0,0,1-2.61,2.16c-.34.27-.85.46-1,.81-1.61,3.71-3.17,7.44-4.79,11.28,1.68-.43,2.75.48,3.53,1.85.52.93.14,1.59-.94,1.61-2.36.06-4.72.11-7.08.11-1.09,0-1.35-.69-1.12-1.65.67-2.82,1.37-5.63,2-8.45.51-2.21,1-4.44,1.42-6.67a2,2,0,0,1,2.19-1.88,4.9,4.9,0,0,0,.54,0c3.39-.44,4-1.18,3.83-4.6-.08-1.42-.2-2.84-.31-4.47-.88.53-1.68,1-2.5,1.49a30.37,30.37,0,0,0-10,8.3c-1,1.31-1.56,1.16-2.1-.42l-5.6,3.13a5.75,5.75,0,0,1-1.21.56,1.22,1.22,0,0,1-1-.12,1.13,1.13,0,0,1,0-1,11.78,11.78,0,0,1,.86-1.43l-.25-.29-7.66,5.48a11.58,11.58,0,0,1-1,.84,6.76,6.76,0,0,1-1.28.38,3.52,3.52,0,0,1,.1-1.43,19.52,19.52,0,0,1,2-3.12c1.35-1.59,2.82-3.07,4.43-4.8-1.1.46-2,.89-2.94,1.2a4.61,4.61,0,0,1-1.34,0c.16-.46.18-1,.49-1.34A26.75,26.75,0,0,1,694.84,111l.64-.19a1.56,1.56,0,0,0,.26-.21,19.51,19.51,0,0,1-2.53-1,1.41,1.41,0,0,1-.66-1.1,1.38,1.38,0,0,1,1.05-.77c1.69,0,3.39,0,5.08.13a20.08,20.08,0,0,0,12.23-3,72.05,72.05,0,0,1,12.56-6.46c5.33-1.92,10.48-4.52,16.21-5.28,2.87-.39,5.72-.93,8.57-1.42a8.22,8.22,0,0,0,1-.33A20.62,20.62,0,0,1,748,89.67a5.54,5.54,0,0,1-.43-1.16,4.61,4.61,0,0,1,1.34-.26,7.82,7.82,0,0,1,1.47.33c-.31-.69-1.11-1.63-.91-2.23.39-1.15,1.69-.71,2.6-.57,1.93.3,3.84.77,5.77,1.15a3.33,3.33,0,0,0,1.57,0,7.73,7.73,0,0,1-1.34-1.12,6.23,6.23,0,0,1-.68-1.45,12,12,0,0,1,1.52-.54,4.48,4.48,0,0,0,1.09-.17L757.68,82c-1.58-1.16-3.18-2.3-4.72-3.51a7.25,7.25,0,0,1-1.85-1.9,2.62,2.62,0,0,1-.24-2.1c.18-.41,1.21-.7,1.81-.61,3.31.45,6.6,1,9.89,1.58l.41.06c0-2-.1-3.94,0-5.87s.67-2,2.21-1a37.25,37.25,0,0,1,8.57,7.61,2.73,2.73,0,0,0,1.26.67,7.2,7.2,0,0,1,4.74,4.55,1.53,1.53,0,0,0,1,.85c2.42.43,4.85.71,7.26,1.16.81.15,2.06.5,2.21,1,.2.69-.36,1.7-.8,2.45A4.62,4.62,0,0,1,786.14,89c-3,.69-6,1.48-9.08,2.25a3.45,3.45,0,0,0-3,2.94c-.34,2.11-1,4.17-1.35,6.27a7.8,7.8,0,0,1-4.63,6.13,2.52,2.52,0,0,0-1.63,2.81c.11,2.49,0,5,.06,7.5a4,4,0,0,0,.56,1.87,123.14,123.14,0,0,0,12.55,16.64,3,3,0,0,0,1.65.59,2.72,2.72,0,0,1,1.72,4,1.35,1.35,0,0,1-.9.45,22,22,0,0,1-4.52-.1,3.93,3.93,0,0,1-2.37-1.65,32.19,32.19,0,0,0-4.09-5.36,82.35,82.35,0,0,1-6.69-8.84c-1.76-2.57-3.26-5.33-4.9-8C759,115.7,758.44,115,757.64,113.88Z"/><path class="cls-58" d="M513.74,107.22a.73.73,0,0,1-.42.19,2.07,2.07,0,0,1-1.25-.25c-.2-.17-.17-.86,0-1.14a18.62,18.62,0,0,1,2.39-3.23,26.5,26.5,0,0,0,6.59-10.49c2.1-6.23,6.34-10.52,11.73-13.91.5-.32,1-.61,1.59-.93-1.72-1.45-3.22-3.27-5.14-4.16s-4.51-1.06-6.81-1.41c-1.84-.27-3.74-.21-5.56-.56s-3-1.93-4-3.44c-.49-.74.11-1.2.92-1.45,3.44-1,6.86-2.13,10.28-3.21a1.67,1.67,0,0,0,1.32-1.54,6,6,0,0,1,2.42-4.17,1.45,1.45,0,0,0,.62-1.75,42.36,42.36,0,0,1-1.28-13,5.33,5.33,0,0,1,.46-1.38c.46.26,1.09.4,1.35.78,2.37,3.57,4.69,7.18,7,10.79a4.64,4.64,0,0,0,.88,1.18c-.15-2.52-.33-5-.45-7.56-.09-1.9-.16-3.82-.12-5.72a5.47,5.47,0,0,1,.67-1.7c.51.39,1.25.66,1.5,1.18,1.47,3,3,6.08,4.17,9.23a91.54,91.54,0,0,1,2.78,8.79,6.17,6.17,0,0,1,.12,3.32c-.58,1.81.59,3.08,1,4.57,0,.21.72.31,1.11.36,3,.39,6.1.75,9.14,1.12a2,2,0,0,1,.75.21,6.75,6.75,0,0,1,.82.7c-.3.21-.57.54-.89.61-1.56.34-3.13.61-5.08,1,1.08.67,1.88,1.11,2.63,1.62a22,22,0,0,1,1.95,1.51c.76.68,1.17,1.45.11,2.27,1.36,2.68,2.72,5.29,4,7.94a6.12,6.12,0,0,1,.26,1.8c-.58-.15-1.16-.29-1.73-.45a3.34,3.34,0,0,1-.63-.36c.09.68.11,1.21.22,1.71a12,12,0,0,1-.51,6.78c-1.24,3.61-2.51,7.2-3.63,10.85a16.64,16.64,0,0,0-.76,4.58c0,4,.12,8.07.13,12.11,0,2.38-.07,4.77-.21,7.15a2.1,2.1,0,0,1-.79,1.49c-1.79,1.08-3.82,1.15-5.91,1.25,0-1.28,0-2.3,1.22-2.93a1.76,1.76,0,0,0,.62-1.3c.09-6.42.13-12.85.21-19.27,0-1-.39-1.44-1.59-1.65-.24,1.12-.51,2.23-.7,3.35q-1.5,9-3,18.09a1.6,1.6,0,0,1-1.49,1.53l-6.5.75a14.6,14.6,0,0,1,1.31-2.86c.36-.45,1.19-.51,1.76-.82s1.12-.53,1.18-.89a44.7,44.7,0,0,0-.21-17.7,11.62,11.62,0,0,0-.59-1.52c-1.57,3.9-4.71,7-3.29,11.52a38.09,38.09,0,0,1,1.08,4.61c.06.37-.31.85-.56,1.22-.08.12-.41.08-.62.09-2.35,0-3.44.64-3.07-3a23.18,23.18,0,0,0,0-5.2,11.63,11.63,0,0,1,1.53-7.38c2.15-3.68.88-6.92-1-10.14-.2-.35-.65-.55-1-.82l-.27.19c.2,1,.36,2.11.62,3.14a9.17,9.17,0,0,1-.24,4.87c-1.12,3.82-2.48,7.59-2.51,11.65,0,1.53,0,3,1.22,4.18,1,1,.65,1.73-.7,2.14-3.11.93-3.19.9-3.44-2.3a51.93,51.93,0,0,1-.32-7.15,43.21,43.21,0,0,1,1.29-7.65,8.38,8.38,0,0,0-.34-5.2,40.44,40.44,0,0,0-2.49-5.41,7.58,7.58,0,0,0,0,1.72,17,17,0,0,1-.36,7.73c-.31,1.38-.78,1.52-1.76.87l-4.79,9.54a5.34,5.34,0,0,1-.82,1.32,4,4,0,0,1-1.15.61c-.18-.4-.53-.83-.49-1.21.13-1.59.38-3.18.64-5.15-1.14,1.77-2.06,3.27-3.06,4.71a4.32,4.32,0,0,1-1.13.86c-.17-.44-.56-.92-.49-1.31C512.7,111.93,513.24,109.55,513.74,107.22Z"/><path class="cls-59" d="M283.62,101.44l-6.38,7.64a11.62,11.62,0,0,0,1,1c3.19,2.89,6.39,5.78,9.61,8.63,2.93,2.6,3,3,1,6.32-.58.92-1.2,1.82-1.78,2.74a4.19,4.19,0,0,1-4.93,1.86,1.46,1.46,0,0,1-.66-1.3c.58-1.44,1.05-2.95,2.72-3.69a2.07,2.07,0,0,0,.36-3.45c-3.64-2.8-7.32-5.55-11-8.32l-.44.21a8.12,8.12,0,0,0,0,1.78c.4,1.68.8,3.37,1.35,5,1.7,5,3.47,10.08,5.2,15.08.61,0,1,0,1.39,0a3.41,3.41,0,0,1,3.65,3.06c0,.41-.64,1.27-1,1.28a44.37,44.37,0,0,1-6.21-.27c-.46,0-.94-.94-1.2-1.53-2-4.77-4-9.57-6.06-14.35-.61-1.46-1.29-2.89-1.91-4.34-.44-1-1.44-2-.57-3.27.1-.15-.1-.56-.25-.8a11.42,11.42,0,0,0-.88-1.19c-.76-.92-1.37-2.25-2.34-2.6s-2.12.45-3.19.78-1.51.09-1.88-1c-.82-2.31-1.92-2.82-4.23-2.16-1,.3-2,.72-3.24,1.16,1,3,1.88,5.9,3,8.74a2.86,2.86,0,0,1-.66,3.48c-.25.24-.47.51-.7.77-2.75,2.93-2.53,2.38-.25,5.4.59.78,1.32,1.47,2,2.21a4.22,4.22,0,0,0,3.95,1.5,4.68,4.68,0,0,1,2.93.94c1,.72.67,1.72-.57,2a7.4,7.4,0,0,1-2.21.14c-1.63-.09-3.26-.18-4.87-.42a4.17,4.17,0,0,1-2.14-.91c-2.74-2.56-5.41-5.2-8.08-7.85-.88-.87-.77-1.51.46-2.11a29.77,29.77,0,0,0,4-2.48,1.6,1.6,0,0,0,.42-2.45l-4.3-6.12c-.9,1.16-1.61,2-2.28,2.93-1.19,1.58-2.41,3.14-3.52,4.78a7.26,7.26,0,0,1-5.69,3.54,4.16,4.16,0,0,0-2.45,1.18c-2.81,2.85-5.51,5.81-8.15,8.62.56,1.08,1,2,1.49,2.87s.09,1.32-.78,1.53c-1.82.43-3.64.92-5.48,1.3-1,.21-1.42-.25-1.06-1.26a6.52,6.52,0,0,1,.33-.83c2.34-4.52,4.67-9.05,7-13.56a8.35,8.35,0,0,1,1.58-1.94,1.59,1.59,0,0,1,1.16-.38c2.25.32,3.65-.28,4.14-2.45.69-3,1-6.14,1.48-9.21.21-1.42.44-2.84.52-4.27a1.83,1.83,0,0,0-.67-1.35,1.09,1.09,0,0,0-1.75.32c-1.08,1.71-2.19,3.41-3.36,5.06-1.43,2-2.89,4-4.42,6a7.13,7.13,0,0,1-1.61,1.16L220.13,115c-.55.47-1.18,1-1.83,1.53-.31.25-.69.68-1,.63-1.62-.24-2,1.16-2.9,2-1.59,1.43-3.26,2.78-4.9,4.16l-.44-.32a7.51,7.51,0,0,1,.19-1.17c3.2-10.35,9.75-18.24,18.28-24.57a18.35,18.35,0,0,1,6.17-2.79c6.54-1.75,13.14-3.25,19.68-4.83,0,0-.12-.21-.41-.68l9.65-2.38L252.52,85c0-.16,0-.32,0-.48h11.72l.12-.39-8.18-2.93c6.09.37,11.69,2.45,17.16,4.84A86.32,86.32,0,0,1,287.87,72.8a45.65,45.65,0,0,1,4.29-2.64,6.12,6.12,0,0,1,1.64-.33,5.26,5.26,0,0,1,.17,1.69c-.67,3-1.42,6-2.15,8.93-.15.6-.31,1.19-.57,2.19l1.61-.88c3.4-1.81,6.8-3.64,10.23-5.41a4.85,4.85,0,0,1,1.6-.2c-.11.56-.05,1.24-.36,1.65-2.63,3.53-5.24,7.07-8,10.48-1.66,2-1.34,3.65,1.2,4.3,2.2.56,4.46.91,6.65,1.48,2.56.67,2.64,1.25.95,3.21a6.29,6.29,0,0,1-5.46,2.34c-3.66-.19-7.32-.15-11-.35a2.58,2.58,0,0,0-3.08,2.22,2.77,2.77,0,0,1-.28.84,9.86,9.86,0,0,1-.77.94c-.2-.35-.4-.7-.59-1.06C283.86,102,283.8,101.85,283.62,101.44Z"/><circle class="cls-60" cx="257.74" cy="98.17" r="48.51"/><circle class="cls-61" cx="417.68" cy="48.51" r="48.51" transform="translate(11.88 158.69) rotate(-21.81)"/><circle class="cls-62" cx="539.89" cy="89.94" r="48.51"/><circle class="cls-63" cx="747.57" cy="102.72" r="48.51"/><ellipse class="cls-64" cx="738.28" cy="141.72" rx="84.23" ry="8.48"/><ellipse class="cls-65" cx="541.13" cy="125.6" rx="38.76" ry="8.48"/><ellipse class="cls-66" cx="255.98" cy="137.18" rx="75.22" ry="8.48"/><path class="cls-67" d="M286.22,97.18c-1.45,2.63-4.9,4.94-4.9,4.94-3.54,6.42-4.37,2.17-4.37,2.17-3.32,6.18-4.72,3.68-4.72,3.68s1.91,17.72-1.41,10.8-6.38-8.78-9.57-9.62-.61-2.35-.61-2.35c-13.89,3.06-12.28-.66-12.28-.66s-8.05,12.66-11.08,12.63-3.73-10.18-4.26-13.27c-.08,1.43-.31,2.85-.52,4.27-.46,3.07-.79,6.18-1.48,9.21-.49,2.17-1.89,2.77-4.14,2.45a1.59,1.59,0,0,0-1.16.38,8.35,8.35,0,0,0-1.58,1.94c-2.38,4.51-4.71,9-7,13.56a6.52,6.52,0,0,0-.33.83c-.36,1,.07,1.47,1.06,1.26,1.84-.38,3.66-.87,5.48-1.3.87-.21,1.17-.72.78-1.53s-.93-1.79-1.49-2.87c2.64-2.81,5.34-5.77,8.15-8.62a4.16,4.16,0,0,1,2.45-1.18,7.26,7.26,0,0,0,5.69-3.54c1.11-1.64,2.33-3.2,3.52-4.78.67-.9,1.38-1.77,2.28-2.93l4.3,6.12a1.6,1.6,0,0,1-.42,2.45,29.77,29.77,0,0,1-4,2.48c-1.23.6-1.34,1.24-.46,2.11,2.67,2.65,5.34,5.29,8.08,7.85a4.17,4.17,0,0,0,2.14.91c1.61.24,3.24.33,4.87.42a7.4,7.4,0,0,0,2.21-.14c1.24-.29,1.57-1.29.57-2a4.68,4.68,0,0,0-2.93-.94,4.22,4.22,0,0,1-3.95-1.5c-.65-.74-1.38-1.43-2-2.21-2.28-3-2.5-2.47.25-5.4.23-.26.45-.53.7-.77a2.86,2.86,0,0,0,.66-3.48c-1.09-2.84-2-5.76-3-8.74,1.21-.44,2.21-.86,3.24-1.16,2.31-.66,3.41-.15,4.23,2.16.37,1.06.91,1.27,1.88,1s2.33-1.09,3.19-.78,1.58,1.68,2.34,2.6a11.42,11.42,0,0,1,.88,1.19c.15.24.35.65.25.8-.87,1.3.13,2.24.57,3.27.62,1.45,1.3,2.88,1.91,4.34,2,4.78,4,9.58,6.06,14.35.26.59.74,1.48,1.2,1.53a44.37,44.37,0,0,0,6.21.27c.36,0,1-.87,1-1.28a3.41,3.41,0,0,0-3.65-3.06c-.39,0-.78,0-1.39,0-1.73-5-3.5-10-5.2-15.08-.55-1.64-.95-3.33-1.35-5a8.12,8.12,0,0,1,0-1.78l.44-.21c3.66,2.77,7.34,5.52,11,8.32a2.07,2.07,0,0,1-.36,3.45c-1.67.74-2.14,2.25-2.72,3.69a1.46,1.46,0,0,0,.66,1.3,4.19,4.19,0,0,0,4.93-1.86c.58-.92,1.2-1.82,1.78-2.74,2.06-3.27,2-3.72-1-6.32-3.22-2.85-6.42-5.74-9.61-8.63a11.62,11.62,0,0,1-1-1l6.38-7.64c.18.41.24.59.33.76.19.36.39.71.59,1.06a8.87,8.87,0,0,0,.77-1,2.63,2.63,0,0,0,.28-.83,2.58,2.58,0,0,1,3.08-2.22c3.66.2,7.32.16,11,.35a8,8,0,0,0,1.65-.08C288.5,99.27,287.68,94.54,286.22,97.18Z"/><path class="cls-68" d="M209.27,121.75a7.51,7.51,0,0,0-.19,1.17l.44.32c1.64-1.38,3.31-2.73,4.9-4.16.88-.8,1.28-2.2,2.9-2,.29,0,.67-.38,1-.63.65-.52,1.28-1.06,1.83-1.53l1.08,1.68a7.13,7.13,0,0,0,1.61-1.16c1.53-1.94,3-3.93,4.42-6,1.17-1.65,2.28-3.35,3.36-5.06a1.09,1.09,0,0,1,1.75-.32,1.81,1.81,0,0,1,.55.78,9.08,9.08,0,0,0-1.69-3.91s-5.45,11-7.41,10.5,0-3.7,0-3.7-9.38,11.26-7,3.83,10.76-14.47,10.76-14.47C219,103.51,212.47,111.4,209.27,121.75Z"/><path class="cls-69" d="M287.8,89.94s1.92-1.09,3.45-.41a1.38,1.38,0,0,1,.64,2.09S291.46,89.85,287.8,89.94Z"/><path class="cls-69" d="M441.15,31.37s1.92-1.09,3.45-.41a1.37,1.37,0,0,1,.64,2.08S444.81,31.28,441.15,31.37Z"/><path class="cls-69" d="M529.22,63.75s1.16-1.88,2.83-2a1.37,1.37,0,0,1,1.56,1.52S532.39,61.91,529.22,63.75Z"/><path class="cls-69" d="M772.4,82s1.92-1.09,3.45-.41a1.37,1.37,0,0,1,.64,2.08S776.06,81.89,772.4,82Z"/><path class="cls-70" d="M348.57,62.52a3.41,3.41,0,0,0-.13,1.13,4.61,4.61,0,0,0,1.07-.43c1.86-1.38,3.7-2.79,5.55-4.2a1.81,1.81,0,0,1,.07,1c0,.56,0,1.12,0,1.68a9.3,9.3,0,0,0,1.45-.62c2.82-1.79,5.63-3.61,8.44-5.42a4,4,0,0,0,.26.32A5.5,5.5,0,0,0,365,57.2a7.48,7.48,0,0,0,.19,1.4,6.49,6.49,0,0,0,1.42-.26,4.18,4.18,0,0,0,1.21-1.12c1-1.14,2-2.32,3-3.52a4.86,4.86,0,0,1,4.74-2.09,20.11,20.11,0,0,0,6.64-.51,4.36,4.36,0,0,1,1.37.13,53.28,53.28,0,0,1-2,5c-.34.65-1.24,1-1.91,1.46s-1.6.7-2,1.31c-3.17,4.28-6.26,8.63-9.35,13a10.83,10.83,0,0,0-1.1,1.89c-.44,1-.14,1.42.93,1.26,1.66-.26,5.46-3.27,5.64-4.74a3.53,3.53,0,0,1,1.25-2.12l6.93-6.17a7.48,7.48,0,0,1,4.51-2,6.17,6.17,0,0,0,3.93-1.7c1.39-1.32,2.86-2.56,4.53-4a9.41,9.41,0,0,1-5.33,6.86c-.52.26-1.09.42-1.61.69-2.65,1.44-4.21,3.83-5.56,6.4-.79,1.51-1.6,3-2.55,4.76,1.62,4.35,5.65.13,6.29-2.92a30.63,30.63,0,0,0,2.63-3.84c1.31-2.72,3.1-4.63,6.22-5.19a7.56,7.56,0,0,0,5.26-3.81c.95-1.58,2-3.1,3-4.63.2-.29.61-.66.91-.64,2.74.19,5.36.76,7.31,3a14.19,14.19,0,0,0,1.15,1,4,4,0,0,0,4.19.87c.4-.13.81-.23,1.34-.38,1.45,3,2.91,6,4.28,9,.47,1,1,1.54,2.17,1,2.33-1,4.7-1.88,7-2.92C435.31,62,439,60,442.77,58.44a4.16,4.16,0,0,1,5.38,2.12c.57,1.25,1.18,2.48,1.8,3.71a1.67,1.67,0,0,0,2.24.69c.59-.18,1.41-.6,1.53-1.06a2.81,2.81,0,0,0-1-3.13,6.1,6.1,0,0,1-1.52-2c-.79-1.52-1.39-3.13-2.19-4.64s-1.69-2.67-3.73-1.78c1.61-1.18,3.21-2.17,4.81-3.15a2.92,2.92,0,0,1,3.4.27c1.38,1.17,2.78,2.34,4.2,3.47a5.86,5.86,0,0,0,1.53.93,1.86,1.86,0,0,0,2.31-.93,1.5,1.5,0,0,0-.28-1.4c-2.19-2-4.49-4-6.69-6a2.59,2.59,0,0,0-3.27-.52c-2.6,1.31-5.21,2.63-7.84,3.9q-2.72,1.32-5.51,2.49a4.84,4.84,0,0,1-1.49.15c0-.12-.06-.24-.1-.36a35.78,35.78,0,0,0,2.7-2.35c.84-.89,1.53-1.92,2.29-2.89a20.8,20.8,0,0,1,2.1-2.64c.84-.78,2-1.24,2.85-2a9,9,0,0,1,5.06-2.05A25.63,25.63,0,0,0,455,38.6a28.53,28.53,0,0,1-11.65-.74A93.64,93.64,0,0,0,437,48.51c-4.34,8.1-4.34,3.22-4.34,3.22-4,5.18-6,.51-6,.51s-2.3,10.52-5.37,7.11-1.27-8.21-1.27-8.21c-10.09,2.68-15.7-.9-15.7-.9C397,56.37,398,51.73,398,51.73s-14.42,10.39-14.55,6.91,2.55-11,2.55-11c-12.89,5.49-13.59,1.66-13.59,1.66s-3.4,6.55-5.31,5.57,1.43-5,1.43-5-11.38,8-10.36,3.76,14.24-8.56,14.24-8.56a12.47,12.47,0,0,0-5.7,1.33C359.17,50.16,352.6,54.91,348.57,62.52Zm80.31-6.09a13,13,0,0,1,2.33,1.29l-5.33.92-.11-.41a.56.56,0,0,1,0-.12C426.18,55.38,426.41,55.26,428.88,56.43Z"/><path class="cls-71" d="M683.68,117.58c-.31.3-.33.88-.49,1.34a4.62,4.62,0,0,0,1.34,0c.94-.31,1.84-.74,2.94-1.2-1.61,1.73-3.08,3.21-4.43,4.8a19.52,19.52,0,0,0-2,3.12,3.52,3.52,0,0,0-.1,1.43,6.76,6.76,0,0,0,1.28-.38,11.58,11.58,0,0,0,1-.84l7.66-5.48.25.29a11.78,11.78,0,0,0-.86,1.43,1.13,1.13,0,0,0,0,1,1.22,1.22,0,0,0,1,.12,5.75,5.75,0,0,0,1.21-.56l5.6-3.13c.54,1.58,1.09,1.73,2.1.42a30.37,30.37,0,0,1,10-8.3c.82-.44,1.62-1,2.5-1.49.11,1.63.23,3,.31,4.47.19,3.42-.44,4.16-3.83,4.6a4.9,4.9,0,0,1-.54,0,2,2,0,0,0-2.19,1.88c-.45,2.23-.91,4.46-1.42,6.67-.65,2.82-1.35,5.63-2,8.45-.23,1,0,1.65,1.12,1.65,2.36,0,4.72-.05,7.08-.11,1.08,0,1.46-.68.94-1.61-.78-1.37-1.85-2.28-3.53-1.85,1.62-3.84,3.18-7.57,4.79-11.28.15-.35.66-.54,1-.81a18.27,18.27,0,0,0,2.61-2.16c1.09-1.29,2-2.76,2.94-4.14.75-1.08,1.52-2.15,2.39-3.37.79.83,1.45,1.48,2.08,2.18,1.35,1.5,1.36,2.12-.18,3.43s-3.25,2.5-4.86,3.77c-1.31,1-1.29,1.57-.63,3.1,2.15,5,5.93,8.65,9.54,12.47a1.57,1.57,0,0,0,1.37.39,1.76,1.76,0,0,0,.93-1.28,4.67,4.67,0,0,0-.66-2.26c-1.51-2.47-3.1-4.89-4.7-7.31-.57-.87-1.24-1.68-1.87-2.52,1.22-.69,2.33-1.28,3.39-1.93s2.11-1.34,3.12-2.07a5.57,5.57,0,0,0,2.35-6.66c-.25-.93-.51-1.86-.82-3,5.54,2.78,10.37,7.12,16.89,5,.28.75.34,1.43.67,1.62s1.07,0,1.67,0c-.08.25-.17.54-.28.82-1.79,4.27-3.59,8.54-5.35,12.83a4.1,4.1,0,0,0-.4,1.92c.25,2.12.61,4.23,1,6.33.08.38.57,1,.85,1,2.17-.12,4.35-.28,6.5-.59.73-.11,1.4-.82.72-1.58a4.57,4.57,0,0,0-2.27-1.42c-1.71-.32-2.81-1.49-2.34-3.18a45.11,45.11,0,0,1,2.23-6.55c2-4.33,4.13-8.57,6.36-13.17.8,1.1,1.4,1.82,1.89,2.61,1.64,2.65,3.14,5.41,4.9,8a82.35,82.35,0,0,0,6.69,8.84,32.19,32.19,0,0,1,4.09,5.36,3.93,3.93,0,0,0,2.37,1.65,22,22,0,0,0,4.52.1,1.35,1.35,0,0,0,.9-.45,2.72,2.72,0,0,0-1.72-4,3,3,0,0,1-1.65-.59,123.14,123.14,0,0,1-12.55-16.64,4,4,0,0,1-.56-1.87c-.07-2.5.05-5-.06-7.5a2.52,2.52,0,0,1,1.63-2.81,7.8,7.8,0,0,0,4.63-6.13c.39-2.1,1-4.16,1.35-6.27a3.45,3.45,0,0,1,3-2.94c2.34-.6,4.68-1.19,7-1.75-8.17,1-13.33-4.13-13.08,4.9.25,9.37-4,10.59-4,10.59-2.17,7.46-4,4.29-4,4.29-3.83,5.87-4-.13-4-.13s-5.74,11.11-7.25,10.59,1.07-8.93,1.07-8.93-1.22.89-8.77,2a17.65,17.65,0,0,1-12.93-3.4c-7.32,2.68-8,0-8,0s-6.51,10.08-8.3,9-.51-11.32-.51-11.32-6.51,4.59-9.19,6.38,0-2.71,0-2.71-7.21,8.71-8.81,7.54,2-5.08,2-5.08-8.3,6.38-9.58,4.85,6.57-7.31,6.57-7.31l-.64.19A26.75,26.75,0,0,0,683.68,117.58Z"/><path class="cls-72" d="M512.08,106c-.18.28-.21,1,0,1.14a2.07,2.07,0,0,0,1.25.25.73.73,0,0,0,.42-.19c-.5,2.33-1,4.71-1.48,7.11-.07.39.32.87.49,1.31a4.32,4.32,0,0,0,1.13-.86c1-1.44,1.92-2.94,3.06-4.71-.26,2-.51,3.56-.64,5.15,0,.38.31.81.49,1.21a4,4,0,0,0,1.15-.61,5.34,5.34,0,0,0,.82-1.32l4.79-9.54c1,.65,1.45.51,1.76-.87a17,17,0,0,0,.36-7.73,7.58,7.58,0,0,1,0-1.72,40.44,40.44,0,0,1,2.49,5.41,8.38,8.38,0,0,1,.34,5.2,43.21,43.21,0,0,0-1.29,7.65,51.93,51.93,0,0,0,.32,7.15c.25,3.2.33,3.23,3.44,2.3,1.35-.41,1.69-1.15.7-2.14-1.26-1.23-1.23-2.65-1.22-4.18,0-4.06,1.39-7.83,2.51-11.65a9.17,9.17,0,0,0,.24-4.87c-.26-1-.42-2.09-.62-3.14l.27-.19c.33.27.78.47,1,.82,1.85,3.22,3.12,6.46,1,10.14a11.63,11.63,0,0,0-1.53,7.38,23.18,23.18,0,0,1,0,5.2c-.37,3.59.72,3,3.07,3,.21,0,.54,0,.62-.09.25-.37.62-.85.56-1.22a38.09,38.09,0,0,0-1.08-4.61c-1.42-4.52,1.72-7.62,3.29-11.52a11.62,11.62,0,0,1,.59,1.52,44.7,44.7,0,0,1,.21,17.7c-.06.36-.74.66-1.18.89s-1.4.37-1.76.82a14.6,14.6,0,0,0-1.31,2.86l6.5-.75a1.6,1.6,0,0,0,1.49-1.53q1.47-9,3-18.09c.19-1.12.46-2.23.7-3.35,1.2.21,1.6.7,1.59,1.65-.08,6.42-.12,12.85-.21,19.27a1.76,1.76,0,0,1-.62,1.3c-1.2.63-1.2,1.65-1.22,2.93,2.09-.1,4.12-.17,5.91-1.25a2.1,2.1,0,0,0,.79-1.49c.14-2.38.22-4.77.21-7.15,0-4-.18-8.07-.13-12.11a16.64,16.64,0,0,1,.76-4.58c.75-2.46,1.58-4.89,2.41-7.31-2.06,4.78-4.68,9-6,7.81-1.79-1.66,1-5.27,1-5.27-4.59,3.54-10.08,4.38-12.55,0s.93-8.26.93-8.26-4.34,4.72-4.85-.9a11.25,11.25,0,0,1,3-8.75c-.72.69-3.39,3-3.39-.18,0-3.7,4.3-7.15,4.3-7.15A6.27,6.27,0,0,1,533.61,70a31.61,31.61,0,0,1-11.18,1.86c2.3.35,4.75.47,6.81,1.41s3.42,2.71,5.14,4.16c-3.58,3.78.19,5.72.19,5.72s-5.75-.13-7.25,3.19a10.13,10.13,0,0,1-3.86,4.6s.39,4.21.36,8.13-2.4,10-4.06,9c-1.14-.7-.23-3.74.45-5.59-.63,1.41-1.67,3.18-2.49,2-1-1.38,1-6.69,2-8.94a27,27,0,0,1-5.23,7.21A18.62,18.62,0,0,0,512.08,106Z"/></g></g></g></svg>