<svg xmlns="http://www.w3.org/2000/svg" xmlns:xlink="http://www.w3.org/1999/xlink" viewBox="0 0 924.57 252.58"><defs><style>.cls-1,.cls-46,.cls-47,.cls-48,.cls-49,.cls-50,.cls-51,.cls-52,.cls-53,.cls-54,.cls-55,.cls-60,.cls-61,.cls-62{mix-blend-mode:screen;}.cls-1{fill:url(#Áåçûìÿííûé_ãðàäèåíò_74);}.cls-2{isolation:isolate;}.cls-3{fill:#481e4a;}.cls-4{fill:#381a3d;}.cls-5{fill:url(#Áåçûìÿííûé_ãðàäèåíò_10);}.cls-10,.cls-11,.cls-12,.cls-13,.cls-14,.cls-15,.cls-16,.cls-17,.cls-18,.cls-19,.cls-20,.cls-22,.cls-23,.cls-24,.cls-43,.cls-56,.cls-57,.cls-58,.cls-59,.cls-6,.cls-63,.cls-64,.cls-65,.cls-66,.cls-67,.cls-68,.cls-7,.cls-8,.cls-9{mix-blend-mode:color-dodge;}.cls-6{fill:url(#Áåçûìÿííûé_ãðàäèåíò_18);}.cls-7{fill:url(#Áåçûìÿííûé_ãðàäèåíò_5);}.cls-8{fill:url(#Áåçûìÿííûé_ãðàäèåíò_109);}.cls-9{fill:url(#Áåçûìÿííûé_ãðàäèåíò_109-2);}.cls-10{fill:url(#Áåçûìÿííûé_ãðàäèåíò_109-3);}.cls-11{fill:url(#Áåçûìÿííûé_ãðàäèåíò_109-4);}.cls-12{fill:url(#Áåçûìÿííûé_ãðàäèåíò_109-5);}.cls-13{fill:url(#Áåçûìÿííûé_ãðàäèåíò_109-6);}.cls-14{fill:url(#Áåçûìÿííûé_ãðàäèåíò_108);}.cls-15{fill:url(#Áåçûìÿííûé_ãðàäèåíò_108-2);}.cls-16{fill:url(#Áåçûìÿííûé_ãðàäèåíò_108-3);}.cls-17{fill:url(#Áåçûìÿííûé_ãðàäèåíò_19);}.cls-18{fill:url(#Áåçûìÿííûé_ãðàäèåíò_108-4);}.cls-19{fill:url(#Áåçûìÿííûé_ãðàäèåíò_108-5);}.cls-20{fill:url(#Áåçûìÿííûé_ãðàäèåíò_108-6);}.cls-21{fill:#a71afe;opacity:0.54;}.cls-21,.cls-25,.cls-26,.cls-27,.cls-28,.cls-29,.cls-30,.cls-31,.cls-32,.cls-33,.cls-34,.cls-35,.cls-36,.cls-37,.cls-38,.cls-39,.cls-40,.cls-41,.cls-42{mix-blend-mode:multiply;}.cls-22{fill:url(#Áåçûìÿííûé_ãðàäèåíò_22);}.cls-23{fill:url(#Áåçûìÿííûé_ãðàäèåíò_14);}.cls-24{fill:url(#Áåçûìÿííûé_ãðàäèåíò_17);}.cls-25{fill:url(#Áåçûìÿííûé_ãðàäèåíò_269);}.cls-26{fill:url(#Áåçûìÿííûé_ãðàäèåíò_269-2);}.cls-27{fill:url(#Áåçûìÿííûé_ãðàäèåíò_269-3);}.cls-28{fill:url(#Áåçûìÿííûé_ãðàäèåíò_269-4);}.cls-29{fill:url(#Áåçûìÿííûé_ãðàäèåíò_269-5);}.cls-30{fill:url(#Áåçûìÿííûé_ãðàäèåíò_81);}.cls-31{fill:url(#Áåçûìÿííûé_ãðàäèåíò_81-2);}.cls-32{fill:url(#Áåçûìÿííûé_ãðàäèåíò_269-6);}.cls-33{fill:url(#Áåçûìÿííûé_ãðàäèåíò_269-7);}.cls-34{fill:url(#Áåçûìÿííûé_ãðàäèåíò_81-3);}.cls-35{fill:url(#Áåçûìÿííûé_ãðàäèåíò_91);}.cls-36{fill:url(#Áåçûìÿííûé_ãðàäèåíò_81-4);}.cls-37{fill:url(#Áåçûìÿííûé_ãðàäèåíò_81-5);}.cls-38{fill:url(#Áåçûìÿííûé_ãðàäèåíò_269-8);}.cls-39{fill:url(#Áåçûìÿííûé_ãðàäèåíò_90);}.cls-40{fill:url(#Áåçûìÿííûé_ãðàäèåíò_92);}.cls-41{fill:url(#Áåçûìÿííûé_ãðàäèåíò_269-9);}.cls-42{fill:url(#Áåçûìÿííûé_ãðàäèåíò_269-10);}.cls-43{fill:url(#Áåçûìÿííûé_ãðàäèåíò_59);}.cls-44{opacity:0.85;}.cls-45{clip-path:url(#clip-path);}.cls-46,.cls-47,.cls-48{opacity:0.53;}.cls-46{fill:url(#Áåçûìÿííûé_ãðàäèåíò_437);}.cls-47{fill:url(#Áåçûìÿííûé_ãðàäèåíò_437-2);}.cls-48{fill:url(#Áåçûìÿííûé_ãðàäèåíò_437-3);}.cls-49{fill:url(#Áåçûìÿííûé_ãðàäèåíò_11);}.cls-50{fill:url(#Áåçûìÿííûé_ãðàäèåíò_47);}.cls-51,.cls-55{opacity:0.56;}.cls-51{fill:url(#Áåçûìÿííûé_ãðàäèåíò_11-2);}.cls-52,.cls-53{opacity:0.63;}.cls-52{fill:url(#Áåçûìÿííûé_ãðàäèåíò_11-3);}.cls-53{fill:url(#Áåçûìÿííûé_ãðàäèåíò_52);}.cls-54{fill:url(#Áåçûìÿííûé_ãðàäèåíò_11-4);}.cls-55{fill:url(#Áåçûìÿííûé_ãðàäèåíò_47-2);}.cls-56,.cls-57,.cls-58,.cls-59,.cls-63,.cls-64,.cls-65,.cls-66,.cls-67,.cls-68{opacity:0.67;}.cls-56{fill:url(#Áåçûìÿííûé_ãðàäèåíò_76);}.cls-57{fill:url(#Áåçûìÿííûé_ãðàäèåíò_76-2);}.cls-58{fill:url(#Áåçûìÿííûé_ãðàäèåíò_76-3);}.cls-59{fill:url(#Áåçûìÿííûé_ãðàäèåíò_76-4);}.cls-60{fill:url(#Áåçûìÿííûé_ãðàäèåíò_178);}.cls-61{fill:url(#Áåçûìÿííûé_ãðàäèåíò_178-2);}.cls-62{fill:url(#Áåçûìÿííûé_ãðàäèåíò_178-3);}.cls-63{fill:url(#Áåçûìÿííûé_ãðàäèåíò_179);}.cls-64{fill:url(#Áåçûìÿííûé_ãðàäèåíò_179-2);}.cls-65{fill:#0cf;}.cls-66{fill:url(#Áåçûìÿííûé_ãðàäèåíò_179-3);}.cls-67{fill:url(#Áåçûìÿííûé_ãðàäèåíò_179-4);}.cls-68{fill:url(#Áåçûìÿííûé_ãðàäèåíò_179-5);}</style><linearGradient id="Áåçûìÿííûé_ãðàäèåíò_74" x1="511.01" y1="165.33" x2="511.01" y2="77.53" gradientUnits="userSpaceOnUse"><stop offset="0.32" stop-color="#ea45fe"/><stop offset="1"/></linearGradient><linearGradient id="Áåçûìÿííûé_ãðàäèåíò_10" x1="510.08" y1="235.91" x2="510.08" y2="82.66" gradientUnits="userSpaceOnUse"><stop offset="0" stop-color="#7e1ad1"/><stop offset="0.68" stop-color="#a71afe"/></linearGradient><linearGradient id="Áåçûìÿííûé_ãðàäèåíò_18" x1="500.78" y1="156.05" x2="418.77" y2="156.05" gradientUnits="userSpaceOnUse"><stop offset="0"/><stop offset="1" stop-color="#a7b3fe"/></linearGradient><linearGradient id="Áåçûìÿííûé_ãðàäèåíò_5" x1="363.29" y1="163.16" x2="271.68" y2="163.16" gradientUnits="userSpaceOnUse"><stop offset="0" stop-color="#a7b3fe"/><stop offset="1"/></linearGradient><linearGradient id="Áåçûìÿííûé_ãðàäèåíò_109" x1="169.29" y1="167.24" x2="264.29" y2="167.24" gradientUnits="userSpaceOnUse"><stop offset="0"/><stop offset="0.09" stop-color="#070507"/><stop offset="0.22" stop-color="#1c131c"/><stop offset="0.38" stop-color="#3e2a3e"/><stop offset="0.55" stop-color="#6d496d"/><stop offset="0.75" stop-color="#a971a9"/><stop offset="0.96" stop-color="#f1a2f1"/><stop offset="1" stop-color="#ffabfe"/></linearGradient><linearGradient id="Áåçûìÿííûé_ãðàäèåíò_109-2" x1="264.29" y1="167.69" x2="286.01" y2="167.69" xlink:href="#Áåçûìÿííûé_ãðàäèåíò_109"/><linearGradient id="Áåçûìÿííûé_ãðàäèåíò_109-3" x1="275.8" y1="160.52" x2="296.14" y2="160.52" xlink:href="#Áåçûìÿííûé_ãðàäèåíò_109"/><linearGradient id="Áåçûìÿííûé_ãðàäèåíò_109-4" x1="341.72" y1="144.96" x2="372.4" y2="144.96" xlink:href="#Áåçûìÿííûé_ãðàäèåíò_109"/><linearGradient id="Áåçûìÿííûé_ãðàäèåíò_109-5" x1="355.04" y1="138.84" x2="395.04" y2="138.84" xlink:href="#Áåçûìÿííûé_ãðàäèåíò_109"/><linearGradient id="Áåçûìÿííûé_ãðàäèåíò_109-6" x1="329.6" y1="163.16" x2="345.59" y2="163.16" xlink:href="#Áåçûìÿííûé_ãðàäèåíò_109"/><linearGradient id="Áåçûìÿííûé_ãðàäèåíò_108" x1="411.04" y1="134.19" x2="502.55" y2="134.19" gradientUnits="userSpaceOnUse"><stop offset="0" stop-color="#ffabfe"/><stop offset="0.04" stop-color="#f1a2f1"/><stop offset="0.25" stop-color="#a971a9"/><stop offset="0.45" stop-color="#6d496d"/><stop offset="0.62" stop-color="#3e2a3e"/><stop offset="0.78" stop-color="#1c131c"/><stop offset="0.91" stop-color="#070507"/><stop offset="1"/></linearGradient><linearGradient id="Áåçûìÿííûé_ãðàäèåíò_108-2" x1="422.87" y1="128.73" x2="505.48" y2="128.73" xlink:href="#Áåçûìÿííûé_ãðàäèåíò_108"/><linearGradient id="Áåçûìÿííûé_ãðàäèåíò_108-3" x1="419.24" y1="104.41" x2="427.32" y2="102.4" xlink:href="#Áåçûìÿííûé_ãðàäèåíò_108"/><linearGradient id="Áåçûìÿííûé_ãðàäèåíò_19" x1="515.32" y1="165.15" x2="531.72" y2="165.15" gradientUnits="userSpaceOnUse"><stop offset="0" stop-color="#ffabfe"/><stop offset="1"/></linearGradient><linearGradient id="Áåçûìÿííûé_ãðàäèåíò_108-4" x1="524.23" y1="177.02" x2="547.2" y2="177.02" xlink:href="#Áåçûìÿííûé_ãðàäèåíò_108"/><linearGradient id="Áåçûìÿííûé_ãðàäèåíò_108-5" x1="539.89" y1="169.32" x2="565.76" y2="169.32" xlink:href="#Áåçûìÿííûé_ãðàäèåíò_108"/><linearGradient id="Áåçûìÿííûé_ãðàäèåíò_108-6" x1="583.97" y1="170.92" x2="696.07" y2="170.92" xlink:href="#Áåçûìÿííûé_ãðàäèåíò_108"/><linearGradient id="Áåçûìÿííûé_ãðàäèåíò_22" x1="513.61" y1="103.76" x2="424.36" y2="103.76" gradientUnits="userSpaceOnUse"><stop offset="0.58"/><stop offset="0.63" stop-color="#030304"/><stop offset="0.68" stop-color="#0a0b10"/><stop offset="0.74" stop-color="#181924"/><stop offset="0.79" stop-color="#2a2d40"/><stop offset="0.84" stop-color="#424664"/><stop offset="0.9" stop-color="#5f6590"/><stop offset="0.95" stop-color="#8089c3"/><stop offset="1" stop-color="#a7b3fe"/></linearGradient><linearGradient id="Áåçûìÿííûé_ãðàäèåíò_14" x1="395.44" y1="150.06" x2="349.67" y2="156.38" gradientUnits="userSpaceOnUse"><stop offset="0.16" stop-color="#a7b3fe"/><stop offset="0.21" stop-color="#9aa6eb"/><stop offset="0.38" stop-color="#6c74a5"/><stop offset="0.54" stop-color="#464b6a"/><stop offset="0.69" stop-color="#282a3c"/><stop offset="0.82" stop-color="#12131b"/><stop offset="0.93" stop-color="#050507"/><stop offset="1"/></linearGradient><linearGradient id="Áåçûìÿííûé_ãðàäèåíò_17" x1="735.87" y1="181.71" x2="523.95" y2="181.71" gradientUnits="userSpaceOnUse"><stop offset="0.38"/><stop offset="1" stop-color="#a7b3fe"/></linearGradient><linearGradient id="Áåçûìÿííûé_ãðàäèåíò_269" x1="421.29" y1="163.78" x2="518.64" y2="159.39" gradientUnits="userSpaceOnUse"><stop offset="0" stop-color="#a71afe"/><stop offset="1" stop-color="#fff"/></linearGradient><linearGradient id="Áåçûìÿííûé_ãðàäèåíò_269-2" x1="280.21" y1="167.57" x2="262.62" y2="166.82" xlink:href="#Áåçûìÿííûé_ãðàäèåíò_269"/><linearGradient id="Áåçûìÿííûé_ãðàäèåíò_269-3" x1="295.18" y1="167.21" x2="273.91" y2="166.31" xlink:href="#Áåçûìÿííûé_ãðàäèåíò_269"/><linearGradient id="Áåçûìÿííûé_ãðàäèåíò_269-4" x1="368.83" y1="160.53" x2="342.92" y2="159.44" xlink:href="#Áåçûìÿííûé_ãðàäèåíò_269"/><linearGradient id="Áåçûìÿííûé_ãðàäèåíò_269-5" x1="382.28" y1="159.86" x2="352.89" y2="158.62" xlink:href="#Áåçûìÿííûé_ãðàäèåíò_269"/><linearGradient id="Áåçûìÿííûé_ãðàäèåíò_81" x1="515.5" y1="135.47" x2="425.89" y2="131.69" gradientUnits="userSpaceOnUse"><stop offset="0" stop-color="#fff"/><stop offset="1" stop-color="#a71afe"/></linearGradient><linearGradient id="Áåçûìÿííûé_ãðàäèåíò_81-2" x1="504.28" y1="152.1" x2="417.72" y2="148.45" xlink:href="#Áåçûìÿííûé_ãðàäèåíò_81"/><linearGradient id="Áåçûìÿííûé_ãðàäèåíò_269-6" x1="544.02" y1="177.31" x2="527.32" y2="176.61" xlink:href="#Áåçûìÿííûé_ãðàäèåíò_269"/><linearGradient id="Áåçûìÿííûé_ãðàäèåíò_269-7" x1="561.76" y1="173.87" x2="540.11" y2="172.96" xlink:href="#Áåçûìÿííûé_ãðàäèåíò_269"/><linearGradient id="Áåçûìÿííûé_ãðàäèåíò_81-3" x1="720.22" y1="174.39" x2="585.78" y2="168.71" xlink:href="#Áåçûìÿííûé_ãðàäèåíò_81"/><linearGradient id="Áåçûìÿííûé_ãðàäèåíò_91" x1="409.88" y1="153.42" x2="409.88" y2="56.38" gradientUnits="userSpaceOnUse"><stop offset="0" stop-color="#fff"/><stop offset="0.31" stop-color="#e5bcff"/><stop offset="1" stop-color="#a71afe"/></linearGradient><linearGradient id="Áåçûìÿííûé_ãðàäèåíò_81-4" x1="820.25" y1="193" x2="582.58" y2="182.97" xlink:href="#Áåçûìÿííûé_ãðàäèåíò_81"/><linearGradient id="Áåçûìÿííûé_ãðàäèåíò_81-5" x1="621.39" y1="170.21" x2="534.36" y2="174.77" xlink:href="#Áåçûìÿííûé_ãðàäèåíò_81"/><linearGradient id="Áåçûìÿííûé_ãðàäèåíò_269-8" x1="245.12" y1="169.92" x2="143.79" y2="165.64" xlink:href="#Áåçûìÿííûé_ãðàäèåíò_269"/><linearGradient id="Áåçûìÿííûé_ãðàäèåíò_90" x1="414.63" y1="151.12" x2="414.63" y2="54.08" gradientUnits="userSpaceOnUse"><stop offset="0" stop-color="#fff"/><stop offset="0.11" stop-color="#fdfaff"/><stop offset="0.24" stop-color="#f7ebff"/><stop offset="0.38" stop-color="#eed2ff"/><stop offset="0.54" stop-color="#e0afff"/><stop offset="0.7" stop-color="#cf82fe"/><stop offset="0.86" stop-color="#ba4cfe"/><stop offset="1" stop-color="#a71afe"/></linearGradient><linearGradient id="Áåçûìÿííûé_ãðàäèåíò_92" x1="397.05" y1="250.68" x2="397.05" y2="-5.95" gradientUnits="userSpaceOnUse"><stop offset="0" stop-color="#fff"/><stop offset="0.09" stop-color="#fbf5ff"/><stop offset="0.25" stop-color="#f0d9ff"/><stop offset="0.46" stop-color="#dfacff"/><stop offset="0.71" stop-color="#c76dfe"/><stop offset="0.98" stop-color="#a91ffe"/><stop offset="1" stop-color="#a71afe"/></linearGradient><linearGradient id="Áåçûìÿííûé_ãðàäèåíò_269-9" x1="398.14" y1="206.46" x2="274.54" y2="98.84" xlink:href="#Áåçûìÿííûé_ãðàäèåíò_269"/><linearGradient id="Áåçûìÿííûé_ãðàäèåíò_269-10" x1="274.46" y1="166.83" x2="119.01" y2="166.83" xlink:href="#Áåçûìÿííûé_ãðàäèåíò_269"/><linearGradient id="Áåçûìÿííûé_ãðàäèåíò_59" x1="474.56" y1="219.47" x2="466.28" y2="82.78" gradientUnits="userSpaceOnUse"><stop offset="0" stop-color="#fff9fe"/><stop offset="0.01" stop-color="#fff7fe"/><stop offset="0.35" stop-color="#ffbffe"/><stop offset="0.64" stop-color="#ff96ff"/><stop offset="0.86" stop-color="#ff7dff"/><stop offset="1" stop-color="#ff74ff"/></linearGradient><clipPath id="clip-path"><path class="cls-1" d="M224.15,186.16s35.57,3.28,72-4.39,53.78-3.29,53.78-3.29L348.7,172s6.34-4.79,19.61-4.22,19.38-8,19.38-8l.94-10.82s4.26,0,11.38-3.38,12.16-3.45,12.16-3.45v5.41s13.68,9.7,29.68,8.62,33.17,2.82,49.09,8.36,27.78,4.11,27.78,4.11l-1.47,5.24s27.84,11.7,55.88,7.52,58.4,10.12,79.13,8.76,55.79-3.55,73.49,3.19,69.82,2.44,69.82,2.44l2.3,7.47-112.06,5-1.53-7.47-287.71-2.43-1.53,9.6-76.29-4.29Z"/></clipPath><linearGradient id="Áåçûìÿííûé_ãðàäèåíò_437" x1="414.63" y1="163.76" x2="414.8" y2="108.51" gradientTransform="translate(853.12 334.57) rotate(180)" gradientUnits="userSpaceOnUse"><stop offset="0"/><stop offset="0.04" stop-color="#020404"/><stop offset="0.09" stop-color="#081111"/><stop offset="0.14" stop-color="#112727"/><stop offset="0.19" stop-color="#1e4646"/><stop offset="0.24" stop-color="#2f6d6d"/><stop offset="0.29" stop-color="#449d9d"/><stop offset="0.34" stop-color="#5cd4d4"/><stop offset="0.37" stop-color="#6fffff"/><stop offset="0.44" stop-color="#63e2e2"/><stop offset="0.57" stop-color="#439999"/><stop offset="0.77" stop-color="#102626"/><stop offset="0.84"/></linearGradient><linearGradient id="Áåçûìÿííûé_ãðàäèåíò_437-2" x1="551.54" y1="196.54" x2="551.65" y2="162.94" gradientTransform="translate(1011.2 346.46) rotate(180)" xlink:href="#Áåçûìÿííûé_ãðàäèåíò_437"/><linearGradient id="Áåçûìÿííûé_ãðàäèåíò_437-3" x1="574.29" y1="205.7" x2="574.35" y2="186.76" gradientTransform="translate(1011.2 346.46) rotate(180)" xlink:href="#Áåçûìÿííûé_ãðàäèåíò_437"/><linearGradient id="Áåçûìÿííûé_ãðàäèåíò_11" x1="711.55" y1="235.91" x2="711.55" y2="82.66" gradientUnits="userSpaceOnUse"><stop offset="0.32" stop-color="#a71afe"/><stop offset="1"/></linearGradient><linearGradient id="Áåçûìÿííûé_ãðàäèåíò_47" x1="427.28" y1="182.68" x2="660.88" y2="172.14" gradientUnits="userSpaceOnUse"><stop offset="0" stop-color="#a71afe"/><stop offset="1"/></linearGradient><linearGradient id="Áåçûìÿííûé_ãðàäèåíò_11-2" x1="362.67" y1="229.3" x2="247.09" y2="128.67" xlink:href="#Áåçûìÿííûé_ãðàäèåíò_11"/><linearGradient id="Áåçûìÿííûé_ãðàäèåíò_11-3" x1="401.19" y1="209.62" x2="462.22" y2="206.87" xlink:href="#Áåçûìÿííûé_ãðàäèåíò_11"/><linearGradient id="Áåçûìÿííûé_ãðàäèåíò_52" x1="528.51" y1="211.55" x2="762.11" y2="201.01" gradientUnits="userSpaceOnUse"><stop offset="0.33"/><stop offset="0.68" stop-color="#a71afe"/></linearGradient><linearGradient id="Áåçûìÿííûé_ãðàäèåíò_11-4" x1="258.77" y1="223.39" x2="216.42" y2="128.45" xlink:href="#Áåçûìÿííûé_ãðàäèåíò_11"/><linearGradient id="Áåçûìÿííûé_ãðàäèåíò_47-2" x1="428.68" y1="123.41" x2="493.67" y2="84.46" xlink:href="#Áåçûìÿííûé_ãðàäèåíò_47"/><linearGradient id="Áåçûìÿííûé_ãðàäèåíò_76" x1="405.49" y1="59.65" x2="405.49" y2="-7.76" gradientUnits="userSpaceOnUse"><stop offset="0" stop-color="#0cf"/><stop offset="0.4" stop-color="#007a99"/><stop offset="1"/></linearGradient><linearGradient id="Áåçûìÿííûé_ãðàäèåíò_76-2" x1="735.57" y1="124.97" x2="735.57" y2="43.64" xlink:href="#Áåçûìÿííûé_ãðàäèåíò_76"/><linearGradient id="Áåçûìÿííûé_ãðàäèåíò_76-3" x1="536.61" y1="114.94" x2="536.61" y2="12.99" xlink:href="#Áåçûìÿííûé_ãðàäèåíò_76"/><linearGradient id="Áåçûìÿííûé_ãðàäèåíò_76-4" x1="257.66" y1="123.94" x2="257.66" y2="47.77" xlink:href="#Áåçûìÿííûé_ãðàäèåíò_76"/><radialGradient id="Áåçûìÿííûé_ãðàäèåíò_178" cx="731.9" cy="52.16" r="48.52" gradientTransform="translate(-532.51 117.09) scale(1.74 0.17)" gradientUnits="userSpaceOnUse"><stop offset="0" stop-color="#0cf"/><stop offset="0.08" stop-color="#00b4e2"/><stop offset="0.28" stop-color="#007e9e"/><stop offset="0.46" stop-color="#005166"/><stop offset="0.63" stop-color="#002e3a"/><stop offset="0.78" stop-color="#00151a"/><stop offset="0.91" stop-color="#000607"/><stop offset="1"/></radialGradient><radialGradient id="Áåçûìÿííûé_ãðàäèåíò_178-2" cx="610.63" cy="-40.11" r="48.52" gradientTransform="translate(53.23 117.09) scale(0.8 0.17)" xlink:href="#Áåçûìÿííûé_ãðàäèåíò_178"/><radialGradient id="Áåçûìÿííûé_ãðàäèåíò_178-3" cx="260.84" cy="26.18" r="48.52" gradientTransform="translate(-148.45 117.09) scale(1.55 0.17)" xlink:href="#Áåçûìÿííûé_ãðàäèåíò_178"/><linearGradient id="Áåçûìÿííûé_ãðàäèåíò_179" x1="258.97" y1="123.94" x2="258.97" y2="47.77" gradientUnits="userSpaceOnUse"><stop offset="0"/><stop offset="0.6" stop-color="#007a99"/><stop offset="1" stop-color="#0cf"/></linearGradient><linearGradient id="Áåçûìÿííûé_ãðàäèåíò_179-2" x1="220.99" y1="123.94" x2="220.99" y2="47.77" xlink:href="#Áåçûìÿííûé_ãðàäèåíò_179"/><linearGradient id="Áåçûìÿííûé_ãðàäèåíò_179-3" x1="405.05" y1="59.65" x2="405.05" y2="-7.76" xlink:href="#Áåçûìÿííûé_ãðàäèåíò_179"/><linearGradient id="Áåçûìÿííûé_ãðàäèåíò_179-4" x1="732.48" y1="124.97" x2="732.48" y2="43.64" xlink:href="#Áåçûìÿííûé_ãðàäèåíò_179"/><linearGradient id="Áåçûìÿííûé_ãðàäèåíò_179-5" x1="534.68" y1="114.94" x2="534.68" y2="12.99" xlink:href="#Áåçûìÿííûé_ãðàäèåíò_179"/></defs><g class="cls-2"><g id="Layer_2" data-name="Layer 2"><g id="L5"><path class="cls-3" d="M501.5,81.87l-51.31,8.19-8.28-7.4C309.37,83.9,179.05,81.5,68.23,71.37-.23,65.11,0,72.65,0,72.65V252.58H924.57v-184C800.53,73,651.25,79.34,501.5,81.87Z"/><path class="cls-4" d="M924.49,193.16c-12.86-4.62,1.06-34.1-40.52-32.59l-60.19,14.09L116,166.35l16.7,40c-5.89-1-9.23-1.64-9.23-1.64C-5.93,199.71,0,252.58,0,252.58H924.57ZM343.42,231.37c-51-.17-133.46-12.27-181.59-20.1,72.52,3.62,271.22,12.57,395.7,9C488,224.17,396.18,231.55,343.42,231.37Zm286.73-13.32c-7.92-.24-17.88-.13-29.35.23q4.8-.33,9.29-.7c36.43-3,67.57-5.63,93.63-7.83C679.7,214.73,652.75,218.73,630.15,218.05Z"/><polygon class="cls-5" points="473.93 235.91 913.81 231.37 904.85 130.75 527.89 136.01 692.29 127.54 412.17 112.81 513.87 107.11 417.68 95.25 450.19 90.06 441.91 82.66 351.29 95.25 395.04 99.2 236.14 116.78 339.04 120.64 106.87 140.39 106.36 164.41 318.75 203.63 527.89 215.41 396.57 198.33 684.28 200.76 594.95 212.31 848.88 200.9 848.88 216.03 473.93 235.91"/><polygon class="cls-6" points="692.29 127.54 412.17 112.81 412.17 147.48 409.33 167.74 404.74 198.4 510.08 199.29 527.89 136.01 692.29 127.54"/><polygon class="cls-7" points="339.04 120.64 106.87 140.39 106.36 164.41 318.75 203.63 355.04 205.68 339.04 120.64"/><polygon class="cls-8" points="169.29 145.17 234.12 145.17 264.29 189.31 257.66 187.79 232.53 147.48 169.29 145.17"/><polygon class="cls-9" points="264.29 137.79 286.01 197.59 279.07 196.31 264.29 137.79"/><polygon class="cls-10" points="275.8 134.1 296.14 181.77 291.89 186.94 275.8 134.1"/><polygon class="cls-11" points="341.72 107.76 372.4 182.16 367.63 182.16 341.72 107.76"/><polygon class="cls-12" points="355.04 125.19 384.06 165.84 395.04 99.2 385.41 178.47 355.04 125.19"/><polygon class="cls-13" points="339.04 120.64 345.32 182.16 355.04 205.68 339.04 120.64"/><polygon class="cls-14" points="412.17 112.81 418.4 146.21 428.32 139.48 502.55 151.19 428.71 142.24 411.04 155.57 412.17 147.48 412.17 112.81"/><polygon class="cls-15" points="446.35 135.79 422.87 122.36 431.21 121.67 505.48 134.9 428.47 123.95 446.35 135.79"/><polygon class="cls-16" points="417.68 95.25 426 112.27 421.75 112.27 417.68 95.25"/><polygon class="cls-17" points="527.89 136.01 523.18 178.47 511.49 194.3 527.89 136.01"/><polygon class="cls-18" points="547.2 154.6 524.23 191.16 526.78 199.43 547.2 154.6"/><polygon class="cls-19" points="539.89 191.16 545.95 176.62 565.76 147.48 539.89 191.16"/><polygon class="cls-20" points="618.77 200.2 583.97 159.72 608.26 141.63 696.07 165.23 606.61 146.21 589.59 158.69 618.77 200.2"/><polygon class="cls-21" points="677.42 145.52 680.73 153.52 769.33 167.22 771.88 161.62 677.42 145.52"/><polygon class="cls-22" points="417.68 95.25 421.75 112.27 513.87 107.11 417.68 95.25"/><polygon class="cls-23" points="236.14 116.78 339.04 120.64 355.04 205.68 318.75 203.63 381.93 207.19 395.04 99.2 236.14 116.78"/><polygon class="cls-24" points="904.85 130.75 527.89 136.01 510.08 199.29 684.28 200.76 685.81 208.22 594.95 212.31 848.88 200.9 848.88 216.03 672.81 225.37 787.75 232.67 911.11 231.4 913.01 222.37 904.85 130.75"/><polygon class="cls-21" points="696.88 145.52 771.88 159.24 763.17 153.52 703.67 143.75 696.88 145.52"/><polygon class="cls-21" points="469.08 121.67 473.19 125.19 542.44 132.39 552.82 128.82 469.08 121.67"/><polygon class="cls-21" points="321.27 134.1 327.59 128.82 330.87 173.55 324.21 171.96 321.27 134.1"/><polygon class="cls-21" points="330.87 141.63 333.64 166.83 336.02 163.16 333.44 141.63 330.87 141.63"/><polygon class="cls-21" points="359.68 112.27 376.01 144.31 378.44 136.25 366.03 107.34 359.68 112.27"/><polygon class="cls-21" points="373.08 117.67 381.93 133.85 384.06 131.95 378.57 112.27 373.08 117.67"/><polygon class="cls-25" points="428.47 123.95 446.35 135.79 505.48 151.54 428.71 142.24 411.04 155.57 404.74 198.4 510.08 199.29 527.32 138.01 428.47 123.95"/><polygon class="cls-26" points="264.29 137.79 271.97 188.82 281.32 196.72 278.48 190.24 264.29 137.79"/><polygon class="cls-27" points="275.8 134.1 291.12 196.72 296.64 199.55 275.8 134.1"/><polygon class="cls-28" points="345.32 118.08 345.54 119.09 361.85 191.11 370.53 202.06 367.63 182.16 345.32 118.08"/><polygon class="cls-29" points="355.04 125.19 378.7 177.71 379.97 193.28 385.41 178.47 355.04 125.19"/><polygon class="cls-30" points="446.35 135.79 443.8 130.41 525.71 143.75 527.32 138.01 428.47 123.95 446.35 135.79"/><polygon class="cls-31" points="419.88 148.9 430.53 146.21 515.5 159.24 505.48 151.54 428.71 142.24 419.88 148.9"/><polygon class="cls-32" points="547.2 154.6 532.02 199.47 526.78 199.43 547.2 154.6"/><polygon class="cls-33" points="565.76 147.48 540.89 199.55 539.89 191.16 565.76 147.48"/><polygon class="cls-34" points="613.9 193.28 600.8 160.57 607.97 155.08 684.28 179.37 624.65 155.08 738.13 174.18 606.61 146.21 589.59 158.69 613.9 193.28"/><polygon class="cls-35" points="420.57 107.34 392.72 118.29 391.44 128.82 412.17 119.31 412.17 112.81 424.89 113.48 428.32 111.9 421.75 112.27 420.57 107.34"/><polygon class="cls-36" points="606.61 146.21 589.59 158.69 618.77 200.2 684.28 200.76 685.81 208.22 594.95 212.31 848.88 200.9 848.88 216.03 717.21 223.01 849.89 232.03 851.67 198.33 606.61 146.21"/><polygon class="cls-37" points="565.76 147.48 539.89 191.16 547.2 154.6 526.78 199.43 549.45 199.62 565.76 147.48"/><polygon class="cls-38" points="147.21 145.17 230.7 154.02 257.66 192.35 257.66 187.79 232.53 147.48 147.21 145.17"/><polygon class="cls-39" points="418.53 98.81 417.68 95.25 422.8 95.88 436.31 86.6 394.42 104.32 392.95 116.37 418.53 98.81"/><polygon class="cls-40" points="412.17 130.41 390.3 138.21 381.93 207.19 395.04 207.93 396.57 198.33 404.74 198.4 412.17 147.48 412.17 130.41"/><polygon class="cls-41" points="385.41 178.47 355.04 125.19 372.4 182.16 367.63 182.16 340.83 105.19 236.14 116.78 339.04 120.64 355.04 205.68 381.93 207.19 385.41 178.47"/><polygon class="cls-42" points="275.8 134.1 286.01 190.24 278.48 190.24 264.29 137.79 268.35 190.24 257.66 187.79 232.53 147.48 115.38 144.31 110.77 165.22 296.64 199.55 291.89 186.94 275.8 134.1"/><polygon class="cls-43" points="262.11 193.17 352.72 193.38 350.58 182 385.41 178.47 387.27 163.16 412.17 147.48 409.33 167.74 513.87 185.84 511.49 194.3 684.28 200.76 396.57 198.33 395.04 207.93 318.75 203.63 262.11 193.17"/><g class="cls-44"><path class="cls-1" d="M224.15,186.16s35.57,3.28,72-4.39,53.78-3.29,53.78-3.29L348.7,172s6.34-4.79,19.61-4.22,19.38-8,19.38-8l.94-10.82s4.26,0,11.38-3.38,12.16-3.45,12.16-3.45v5.41s13.68,9.7,29.68,8.62,33.17,2.82,49.09,8.36,27.78,4.11,27.78,4.11l-1.47,5.24s27.84,11.7,55.88,7.52,58.4,10.12,79.13,8.76,55.79-3.55,73.49,3.19,69.82,2.44,69.82,2.44l2.3,7.47-112.06,5-1.53-7.47-287.71-2.43-1.53,9.6-76.29-4.29Z"/><g class="cls-45"><path class="cls-46" d="M326.45,187.47c27.58,3.44,7.89,10.46-6.06,12.35-5.24.71-11.88-.42-20.24-2.13a13.77,13.77,0,0,0,5,1.86c15.23,2.94,34.75,1.22,47.11,2.64,8.62,1,15.84,6.73,19.43,10.13,1.39-.54,3.16-1.1,4.19-1.61,2.86-1.41,31.74-.84,28.24,2.77-1.53,1.59-20.31,2.33-30,1.35L405,218.3c-6.38-2.33,4.3-5.64,11.4-6.08,8.73-.54,11.85,1.06,18.25,3.05,6.15,1.92-2.58,6-19.34,4.7l12.14,2.74c1.67-1.74,8.12-3.36,12.94-3.66,8.73-.54,11.85,1.07,18.25,3.06,3.39,1.06,2.25,2.77-2.26,3.87l53.34-5.79a129.26,129.26,0,0,1-13.74-.41c-9.68-1-1.11-2.71,1.74-4.12s31.74-.85,28.25,2.76l27.47-4.35c-8.74-.3-6.92-2.79-17.41-7.24-12.77-5.42-.46-6.49,18-5.72,9.91.42,13.52-1.36,19.12-.17l3.48-2.14a78.35,78.35,0,0,1-9.57,1.93c-8.36,1.13-20.3-2.45-37.12-5.52-15.13-2.75,9.57-8.86,34.75-7.57l-6-1.7c-4.74.46-12.63.49-22.34,1.29s-22.9-3.8-21.94-5.33c.48-.78,11.36-1.87,22.68-2.15l-2.89-.83-.31,0c-9.36.37-20.31-.21-34.28,2.12s-24.27-2.6-20-4.89c2.59-1.39,13.68-4.38,26.07-5.42,0,0-17.66-.36-50.07.4,1.71.13,3.41.3,5.09.51,27.57,3.44,7.89,10.47-6.07,12.36-8.36,1.13-20.31-2.45-37.13-5.52-9.44-1.72-3.36-4.75,8.66-6.47q-11.17.42-23.76,1c6.17,2,11.6,5,5.91,6.58-9.55,2.66-10.56,0-21.24-2.91-2.38-.64-2.52-1.75-1.59-2.84l-10.54.57c-39,2.19-60.12,7.23-70,12.25A132.47,132.47,0,0,1,326.45,187.47ZM339.34,200c-9.68-1-1.12-2.7,1.74-4.12s31.74-.84,28.25,2.77C367.79,200.2,349,200.94,339.34,200Zm44.46,9.4c-7.08.35-34.12-6.93-15.26-9.67s17.11.16,30.81,3.4C406.4,204.76,390.87,209,383.8,209.36Zm11-12.14c4.29-2.29,31.74-8.94,50-4,8.74,2.36,13.64,6.41,4.28,6.78s-20.31-.2-34.27,2.13S390.53,199.52,394.81,197.22ZM423.53,211c-5.39,1.76-32,.75-23.16-4.32s58.36-9.2,65.69-3.17c2.56,2.11-1.91,4.93-14,4.86S428.93,209.28,423.53,211Zm39.36-18.23c20.31-2.23,16.88.61,28.59,4.19,6,1.84-11.85,5.64-19.07,5.81S442.57,195,462.89,192.8Zm11.42,28.12c-15.55,1.91-14-.84-34-5.16s-9.84-6.14,8.89-6.62,32.65.19,40.3,4.39C494.59,216.31,489.86,219,474.31,220.92Zm36.81-6.71c-8.36,1.13-20.31-2.45-37.13-5.51s15.62-10.29,43.2-6.85S525.08,212.32,511.12,214.21Zm18.41-15.6c-1.54,1.59-20.31,2.33-30,1.35s-1.11-2.7,1.75-4.12S533,195,529.53,198.61Zm-39.45-16.27c18.7.52,31.44,1.89,34,6.36,1.7,3-6,5.32-23.27,6.36s-12.58-1.53-27-6.76S471.38,181.82,490.08,182.34Zm-38.89,2.48c8.73-.54,11.85,1.06,18.25,3.05s-3.65,6.47-22.38,4.42S442.46,185.36,451.19,184.82Zm-44.39-3.28c18.86-2.74,17.12.16,30.81,3.41,7.05,1.67-8.48,5.9-15.55,6.26S387.94,184.29,406.8,181.54Zm-20.88,16.21c-8.36,1.13-20.3-2.45-37.12-5.51S364.41,182,392,185.39,399.88,195.86,385.92,197.75ZM325.15,182.2c8.89-5.07,58.37-9.21,65.7-3.17,2.56,2.1-1.91,4.93-14,4.86s-23.17.88-28.56,2.63S316.27,187.26,325.15,182.2Z"/><path class="cls-47" d="M527.67,173.12c-16.77-2.1-4.8-6.37,3.69-7.52,3.18-.43,7.22.27,12.3,1.3a8.4,8.4,0,0,0-3-1.13c-9.26-1.79-21.13-.74-28.64-1.6-5.24-.6-9.63-4.09-11.82-6.16-.84.33-1.92.66-2.54,1-1.74.87-19.3.52-17.18-1.68.94-1,12.35-1.42,18.24-.82l-18.78-2.11c3.88,1.42-2.61,3.43-6.93,3.7-5.31.33-7.21-.65-11.1-1.86s1.57-3.63,11.76-2.85l-7.38-1.67c-1,1.06-4.94,2-7.87,2.22-5.31.33-7.2-.64-11.09-1.86-2.07-.64-1.37-1.68,1.37-2.35l-32.43,3.52a76.92,76.92,0,0,1,8.35.25c5.89.6.68,1.65-1.06,2.51s-19.29.51-17.17-1.68l-16.71,2.64c5.32.19,4.21,1.7,10.59,4.41,7.76,3.29.28,3.94-11,3.47-6-.25-8.22.83-11.63.11l-2.11,1.3a45.63,45.63,0,0,1,5.81-1.17c5.09-.69,12.35,1.48,22.58,3.35,9.19,1.67-5.82,5.39-21.13,4.6l3.61,1c2.88-.28,7.68-.3,13.59-.78s13.92,2.3,13.34,3.24c-.3.47-6.91,1.13-13.79,1.3l1.75.5h.19c5.7-.23,12.35.12,20.84-1.29s14.76,1.58,12.16,3c-1.58.85-8.32,2.66-15.85,3.3,0,0,10.74.22,30.44-.24-1-.09-2.07-.19-3.09-.32-16.77-2.09-4.8-6.36,3.69-7.51,5.08-.69,12.35,1.49,22.57,3.35,5.74,1.05,2.05,2.89-5.26,3.94q6.79-.25,14.45-.6c-3.76-1.25-7.06-3-3.6-4,5.81-1.61,6.42,0,12.92,1.77,1.44.39,1.53,1.07,1,1.73,2.1-.11,4.23-.22,6.41-.35,23.7-1.33,36.55-4.39,42.56-7.45A79.59,79.59,0,0,1,527.67,173.12Zm-7.83-7.6c5.88.6.67,1.64-1.06,2.51s-19.3.51-17.18-1.69C502.54,165.38,514,164.93,519.84,165.52Zm-27-5.71c4.3-.22,20.74,4.21,9.27,5.88s-10.4-.1-18.73-2.07C479.06,162.6,488.51,160,492.81,159.81Zm-6.7,7.38c-2.61,1.39-19.3,5.44-30.39,2.44-5.32-1.44-8.3-3.9-2.61-4.13s12.35.13,20.84-1.29S488.71,165.79,486.11,167.19Zm-17.47-8.4c3.28-1.07,19.49-.45,14.09,2.63s-35.49,5.59-39.94,1.93c-1.56-1.29,1.16-3,8.49-3S465.36,159.86,468.64,158.79Zm-23.92,11.08c-12.35,1.36-10.27-.36-17.39-2.54-3.66-1.12,7.2-3.43,11.6-3.53S457.07,168.52,444.72,169.87Zm-7-17.09c9.46-1.16,8.49.51,20.65,3.13s6,3.74-5.41,4-19.85-.11-24.5-2.67C425.44,155.58,428.32,153.94,437.77,152.78Zm-22.38,4.08c5.08-.69,12.35,1.49,22.57,3.35s-9.49,6.26-26.26,4.16S406.9,158,415.39,156.86Zm-11.19,9.48c.93-1,12.35-1.41,18.23-.82s.68,1.65-1.06,2.51S402.07,168.54,404.2,166.34Zm24,9.89c-11.37-.31-19.12-1.14-20.68-3.86-1-1.8,3.65-3.24,14.15-3.87s7.65.93,16.41,4.11S439.55,176.55,428.18,176.23Zm23.65-1.5c-5.31.33-7.21-.65-11.1-1.86s2.22-3.93,13.61-2.68S457.14,174.4,451.83,174.73Zm27,2c-11.47,1.67-10.41-.1-18.74-2.07-4.28-1,5.16-3.59,9.46-3.81S490.28,175.05,478.82,176.72Zm12.69-9.85c5.09-.69,12.35,1.48,22.58,3.35s-9.5,6.25-26.27,4.16S483,168,491.51,166.87Zm37,9.45c-5.4,3.08-35.49,5.6-39.94,1.93-1.56-1.28,1.16-3,8.49-3s14.09-.53,17.37-1.6S533.86,173.24,528.46,176.32Z"/><path class="cls-48" d="M475.25,153.84c-9.45-1.18-2.71-3.59,2.08-4.24a22.79,22.79,0,0,1,6.93.73,5,5,0,0,0-1.7-.64c-5.22-1-11.91-.41-16.15-.9a12.52,12.52,0,0,1-6.66-3.47c-.47.18-1.08.37-1.43.55-1,.48-10.88.29-9.68-1,.52-.55,7-.8,10.28-.46l-10.59-1.19c2.19.8-1.47,1.93-3.91,2.08-3,.19-4.06-.36-6.25-1s.88-2.05,6.63-1.61l-4.16-.94c-.58.59-2.79,1.15-4.44,1.25-3,.19-4.06-.36-6.25-1-1.17-.36-.78-1,.77-1.32l-18.28,2a42.86,42.86,0,0,1,4.71.14c3.32.34.38.93-.6,1.41s-10.88.29-9.68-.94l-9.42,1.49c3,.1,2.38.95,6,2.48,4.38,1.86.16,2.23-6.18,2-3.4-.14-4.63.47-6.55.06l-1.2.73a29.3,29.3,0,0,1,3.28-.66c2.87-.39,7,.84,12.73,1.89,5.18.95-3.28,3-11.91,2.6l2,.58c1.62-.16,4.33-.17,7.65-.44s7.85,1.3,7.52,1.83c-.16.26-3.89.64-7.77.73l1,.28h.11a80,80,0,0,0,11.74-.73c4.79-.8,8.33.89,6.86,1.68a32.86,32.86,0,0,1-8.94,1.85s6.06.13,17.16-.13l-1.74-.18c-9.45-1.18-2.7-3.59,2.08-4.23,2.87-.39,7,.83,12.72,1.88,3.24.59,1.16,1.63-3,2.22,2.55-.09,5.27-.2,8.14-.34-2.11-.7-4-1.71-2-2.25,3.27-.91,3.61,0,7.28,1,.81.22.86.6.54,1l3.61-.2c13.36-.75,20.61-2.47,24-4.2A45.45,45.45,0,0,1,475.25,153.84Zm-4.42-4.29c3.32.34.38.93-.6,1.42s-10.87.29-9.68-.95C461.08,149.47,467.52,149.22,470.83,149.55Zm-15.24-3.22c2.43-.12,11.7,2.38,5.23,3.32s-5.86-.06-10.56-1.17C447.85,147.91,453.17,146.46,455.59,146.33Zm-3.77,4.16c-1.47.79-10.88,3.07-17.13,1.38-3-.81-4.68-2.2-1.47-2.33a78.82,78.82,0,0,0,11.75-.73C449.75,148,453.29,149.7,451.82,150.49ZM442,145.76c1.85-.6,11-.26,7.95,1.48s-20,3.16-22.52,1.09c-.88-.72.65-1.69,4.79-1.67S440.13,146.36,442,145.76ZM428.49,152c-7,.76-5.79-.21-9.8-1.44-2.07-.63,4.06-1.93,6.53-2S435.45,151.24,428.49,152Zm-3.92-9.64c5.33-.65,4.79.29,11.64,1.77s3.37,2.1-3,2.27-11.19-.07-13.81-1.51C417.62,144,419.24,143,424.57,142.37ZM412,144.67c2.86-.39,7,.84,12.72,1.89s-5.35,3.53-14.8,2.35S407.17,145.32,412,144.67ZM405.64,150c.53-.55,7-.8,10.28-.47s.38.93-.59,1.42S404.45,151.26,405.64,150Zm13.53,5.57c-6.41-.18-10.78-.64-11.66-2.18-.58-1,2.05-1.82,8-2.18s4.31.53,9.24,2.32S425.57,155.77,419.17,155.59Zm13.33-.85c-3,.19-4.07-.36-6.26-1s1.25-2.22,7.67-1.52S435.49,154.56,432.5,154.74Zm15.21,1.13c-6.47.94-5.87-.06-10.56-1.17-2.42-.57,2.91-2,5.33-2.15S454.17,154.93,447.71,155.87Zm7.16-5.56c2.86-.39,7,.84,12.72,1.89s-5.35,3.53-14.8,2.35S450.08,151,454.87,150.31Zm20.82,5.33c-3,1.74-20,3.16-22.51,1.09-.88-.72.65-1.69,4.78-1.67a37.55,37.55,0,0,0,9.79-.9C469.6,153.56,478.74,153.91,475.69,155.64Z"/></g></g><polygon class="cls-49" points="904.85 130.75 527.89 136.01 510.08 199.29 684.28 200.76 685.81 208.22 594.95 212.31 848.88 200.9 848.88 216.03 672.81 225.37 787.75 232.67 911.11 231.4 913.01 222.37 904.85 130.75"/><polygon class="cls-50" points="904.85 130.75 527.89 136.01 692.29 127.54 412.17 112.81 412.17 147.48 409.33 167.74 404.74 198.4 510.08 199.29 684.28 200.76 685.81 208.22 594.95 212.31 848.88 200.9 848.88 216.03 672.81 225.37 787.75 232.67 911.11 231.4 913.01 222.37 904.85 130.75"/><polygon class="cls-51" points="236.14 116.78 339.04 120.64 106.87 140.39 106.36 164.41 318.75 203.63 381.93 207.19 395.04 99.2 236.14 116.78"/><polygon class="cls-52" points="527.89 215.41 395.04 207.93 396.57 198.33 527.89 215.41"/><polygon class="cls-53" points="684.28 200.76 594.95 212.31 685.81 208.22 684.28 200.76"/><polygon class="cls-54" points="339.04 120.64 106.87 140.39 106.36 164.41 318.75 203.63 355.04 205.68 339.04 120.64"/><polygon class="cls-55" points="417.68 95.25 421.75 112.27 513.87 107.11 417.68 95.25"/><path class="cls-56" d="M365.06,40.15c-2.81,1.81-5.62,3.63-8.44,5.42a9.26,9.26,0,0,1-1.45.61c0-.55-.05-1.11,0-1.67a1.81,1.81,0,0,0-.07-1c-1.85,1.4-3.69,2.82-5.55,4.2a4.61,4.61,0,0,1-1.07.43,3.47,3.47,0,0,1,.13-1.14c4-7.61,10.6-12.35,18.11-16a12.47,12.47,0,0,1,5.7-1.33c2.88,0,5.76-.15,8.64-.24s5.12-1.45,7.45-2.68a147.17,147.17,0,0,1,14.75-7,45.13,45.13,0,0,1,9.51-2.35c-1.29-.27-2.6-.5-3.88-.81A3,3,0,0,1,408,16c.3-.18.59-.5.9-.52,2.18-.17,4.37-.26,6.63-.39a3.28,3.28,0,0,1-.48-.43c-.17-.22-.47-.6-.4-.7a1.07,1.07,0,0,1,.76-.49,10.68,10.68,0,0,1,2.66.39c2.93,1,5.82,2,8.85,3.12L428,15.75c-1-.74-1.92-1.46-2.88-2.16-1.87-1.37-3.82-2.64-5.6-4.12a18.85,18.85,0,0,1-2.76-3.2,3.74,3.74,0,0,1-.36-1.39,4.85,4.85,0,0,1,1.42,0c4.76,1.27,9.52,2.59,14.28,3.89.25.06.5.09,1.05.19-.39-.53-.66-.87-.89-1.24-1.24-2-2.5-4-3.67-6.05A4.33,4.33,0,0,1,428.35,0,5.78,5.78,0,0,1,430,.22a46.63,46.63,0,0,1,10.86,6.63c2,1.61,4,3.19,5.94,4.92a13.84,13.84,0,0,1,2.35,3,3,3,0,0,0,2.53,1.75c3,.21,4.25-.19,7.21.45,1.19.25,3,0,3.52,1.43.46,1.28-.73,2.15-1.57,2.87a4.93,4.93,0,0,1-2.62,1.17c-2.88.36-4,1-6.85,1.28a9.11,9.11,0,0,0-5.06,2.05c-.88.75-2,1.21-2.85,2a20.7,20.7,0,0,0-2.1,2.63c-.76,1-1.45,2-2.29,2.9a35.78,35.78,0,0,1-2.7,2.35l.1.36a5.17,5.17,0,0,0,1.49-.15q2.79-1.18,5.51-2.49c2.63-1.27,5.24-2.59,7.84-3.9a2.59,2.59,0,0,1,3.27.51c2.2,2.06,4.5,4,6.69,6.05a1.49,1.49,0,0,1,.28,1.4,1.86,1.86,0,0,1-2.31.93,6.14,6.14,0,0,1-1.53-.93q-2.13-1.71-4.2-3.48a2.91,2.91,0,0,0-3.4-.26c-1.6,1-3.2,2-4.81,3.14,2-.89,3,.36,3.73,1.78s1.4,3.13,2.19,4.65a6.21,6.21,0,0,0,1.52,2,2.8,2.8,0,0,1,1,3.12c-.12.47-.94.88-1.53,1.07a1.67,1.67,0,0,1-2.24-.7c-.62-1.22-1.23-2.45-1.8-3.7a4.16,4.16,0,0,0-5.38-2.12c-3.8,1.59-7.46,3.51-11.21,5.22-2.3,1-4.67,1.93-7,2.92-1.16.49-1.7,0-2.17-1-1.37-3-2.83-6-4.28-9-.53.15-.94.25-1.34.38a4,4,0,0,1-4.19-.87c-.38-.35-.81-.66-1.15-1-1.95-2.2-4.57-2.77-7.31-3-.3,0-.71.35-.91.64-1,1.52-2.1,3.05-3,4.63a7.56,7.56,0,0,1-5.26,3.81c-3.12.56-4.91,2.47-6.22,5.19a30.56,30.56,0,0,1-2.63,3.83c-.64,3.06-4.67,7.27-6.29,2.93.95-1.76,1.76-3.25,2.55-4.76,1.35-2.58,2.91-5,5.56-6.4.52-.27,1.09-.43,1.61-.69a9.41,9.41,0,0,0,5.33-6.86c-1.67,1.48-3.14,2.73-4.53,4.05a6.22,6.22,0,0,1-3.93,1.7,7.48,7.48,0,0,0-4.51,2l-6.93,6.17a3.51,3.51,0,0,0-1.25,2.11c-.18,1.48-4,4.48-5.64,4.74-1.07.17-1.37-.27-.93-1.26a10.83,10.83,0,0,1,1.1-1.89c3.09-4.34,6.18-8.68,9.35-13,.45-.61,1.37-.85,2-1.31s1.57-.82,1.91-1.46c.8-1.55,1.33-3.23,2-5a4.36,4.36,0,0,0-1.37-.13,20.11,20.11,0,0,1-6.64.51,4.84,4.84,0,0,0-4.74,2.09c-1,1.2-1.94,2.38-3,3.52a4,4,0,0,1-1.21,1.11,6,6,0,0,1-1.42.27,7.59,7.59,0,0,1-.19-1.4,5.5,5.5,0,0,1,.32-1.22Zm60.71,2.57c0,.13.07.27.11.41l5.33-.92a12.42,12.42,0,0,0-2.33-1.29c-2.47-1.18-2.7-1.05-3.15,1.68A.84.84,0,0,0,425.77,42.72Z"/><path class="cls-57" d="M757.64,98.37c-2.23,4.6-4.4,8.83-6.36,13.17a45.11,45.11,0,0,0-2.23,6.55c-.47,1.69.63,2.86,2.34,3.18a4.5,4.5,0,0,1,2.27,1.42c.68.75,0,1.47-.72,1.57-2.15.31-4.33.48-6.5.59-.28,0-.77-.59-.85-1-.4-2.1-.76-4.21-1-6.34a4.06,4.06,0,0,1,.4-1.91c1.76-4.29,3.56-8.56,5.35-12.84.11-.27.2-.57.28-.81-.6,0-1.25.18-1.67-.06s-.39-.87-.67-1.61c-6.52,2.14-11.35-2.2-16.89-5l.82,3a5.57,5.57,0,0,1-2.35,6.66c-1,.73-2.06,1.42-3.12,2.07s-2.17,1.23-3.39,1.92c.63.85,1.3,1.66,1.87,2.53,1.6,2.42,3.19,4.84,4.7,7.31a4.6,4.6,0,0,1,.66,2.25,1.75,1.75,0,0,1-.93,1.28,1.54,1.54,0,0,1-1.37-.38c-3.61-3.82-7.39-7.51-9.54-12.47-.66-1.53-.68-2.07.63-3.1,1.61-1.27,3.29-2.45,4.86-3.77s1.53-1.93.18-3.44c-.63-.69-1.29-1.34-2.08-2.17-.87,1.22-1.64,2.29-2.39,3.36-1,1.39-1.85,2.86-2.94,4.15a17.56,17.56,0,0,1-2.61,2.15c-.34.28-.85.46-1,.81-1.61,3.71-3.17,7.45-4.79,11.28,1.68-.43,2.75.48,3.53,1.86.52.93.14,1.58-.94,1.61-2.36.06-4.72.11-7.08.11-1.09,0-1.35-.7-1.12-1.65.67-2.82,1.37-5.63,2-8.45.51-2.22,1-4.44,1.42-6.67a2,2,0,0,1,2.19-1.88,4.9,4.9,0,0,0,.54,0c3.39-.44,4-1.18,3.83-4.6-.08-1.43-.2-2.85-.31-4.47-.88.53-1.68,1-2.5,1.49a30.34,30.34,0,0,0-10,8.29c-1,1.32-1.56,1.17-2.1-.41l-5.6,3.13a5.75,5.75,0,0,1-1.21.56,1.18,1.18,0,0,1-1-.13,1.1,1.1,0,0,1,0-1,10.43,10.43,0,0,1,.86-1.43l-.25-.29-7.66,5.48a10,10,0,0,1-1,.83,6.12,6.12,0,0,1-1.28.39,3.52,3.52,0,0,1,.1-1.43,18.67,18.67,0,0,1,2-3.12c1.35-1.59,2.82-3.08,4.43-4.81-1.1.46-2,.89-2.94,1.2a4,4,0,0,1-1.34,0c.16-.45.18-1,.49-1.33a26.87,26.87,0,0,1,11.16-6.63c.21-.06.43-.11.64-.19a1.05,1.05,0,0,0,.26-.2,19.51,19.51,0,0,1-2.53-1,1.41,1.41,0,0,1-.66-1.11,1.39,1.39,0,0,1,1.05-.76c1.69,0,3.39,0,5.08.12a20.08,20.08,0,0,0,12.23-3,72.8,72.8,0,0,1,12.56-6.47c5.33-1.92,10.48-4.51,16.21-5.28,2.87-.38,5.72-.93,8.57-1.41a8.22,8.22,0,0,0,1-.33A20.62,20.62,0,0,1,748,74.16a5.54,5.54,0,0,1-.43-1.16,5,5,0,0,1,1.34-.27,8.55,8.55,0,0,1,1.47.34c-.31-.69-1.11-1.63-.91-2.24.39-1.14,1.69-.7,2.6-.56,1.93.3,3.84.76,5.77,1.15a3.34,3.34,0,0,0,1.57,0,7.68,7.68,0,0,1-1.34-1.11,6.43,6.43,0,0,1-.68-1.45,13.79,13.79,0,0,1,1.52-.55,3.68,3.68,0,0,0,1.09-.17l-2.32-1.68c-1.58-1.17-3.18-2.3-4.72-3.52A7.07,7.07,0,0,1,751.11,61a2.62,2.62,0,0,1-.24-2.1c.18-.41,1.21-.7,1.81-.62,3.31.46,6.6,1,9.89,1.59L763,60c0-2-.1-3.94,0-5.87s.67-2,2.21-1a37,37,0,0,1,8.57,7.61,2.83,2.83,0,0,0,1.26.67,7.16,7.16,0,0,1,4.74,4.55,1.53,1.53,0,0,0,1,.85c2.42.42,4.85.71,7.26,1.16.81.15,2.06.49,2.21,1,.2.69-.36,1.7-.8,2.46a4.62,4.62,0,0,1-3.28,2.08c-3,.69-6,1.47-9.08,2.24a3.47,3.47,0,0,0-3,3c-.34,2.11-1,4.17-1.35,6.27a7.83,7.83,0,0,1-4.63,6.13,2.52,2.52,0,0,0-1.63,2.81c.11,2.49,0,5,.06,7.49a4,4,0,0,0,.56,1.87,123.86,123.86,0,0,0,12.55,16.65,2.94,2.94,0,0,0,1.65.58,2.73,2.73,0,0,1,1.72,4,1.3,1.3,0,0,1-.9.44,21.29,21.29,0,0,1-4.52-.09,4,4,0,0,1-2.37-1.66,33,33,0,0,0-4.09-5.36,80.4,80.4,0,0,1-6.69-8.84c-1.76-2.57-3.26-5.32-4.9-8C759,100.19,758.44,99.47,757.64,98.37Z"/><path class="cls-58" d="M513.74,91.7a.79.79,0,0,1-.42.2,2.07,2.07,0,0,1-1.25-.25,1.23,1.23,0,0,1,0-1.15,18.62,18.62,0,0,1,2.39-3.23,26.53,26.53,0,0,0,6.59-10.48c2.1-6.24,6.34-10.53,11.73-13.92.5-.32,1-.6,1.59-.92-1.72-1.45-3.22-3.28-5.14-4.16s-4.51-1.06-6.81-1.41c-1.84-.28-3.74-.21-5.56-.56s-3-1.93-4-3.44c-.49-.74.11-1.21.92-1.45,3.44-1,6.86-2.13,10.28-3.21a1.69,1.69,0,0,0,1.32-1.55A6,6,0,0,1,527.79,42a1.45,1.45,0,0,0,.62-1.75,42.39,42.39,0,0,1-1.28-13,5.21,5.21,0,0,1,.46-1.38c.46.25,1.09.39,1.35.78,2.37,3.57,4.69,7.18,7,10.79a4.64,4.64,0,0,0,.88,1.18c-.15-2.52-.33-5-.45-7.56-.09-1.91-.16-3.82-.12-5.72a5.38,5.38,0,0,1,.67-1.7c.51.38,1.25.66,1.5,1.17,1.47,3,3,6.09,4.17,9.23,1.11,2.86,2,5.83,2.78,8.79a6.2,6.2,0,0,1,.12,3.33c-.58,1.81.59,3.08,1,4.57,0,.21.72.31,1.11.36l9.14,1.12a1.86,1.86,0,0,1,.75.21,7.68,7.68,0,0,1,.82.69c-.3.22-.57.55-.89.62-1.56.34-3.13.61-5.08,1,1.08.66,1.88,1.11,2.63,1.62a18.81,18.81,0,0,1,1.95,1.51c.76.68,1.17,1.44.11,2.26,1.36,2.69,2.72,5.3,4,8a6.1,6.1,0,0,1,.26,1.79c-.58-.14-1.16-.28-1.73-.44a3.34,3.34,0,0,1-.63-.36c.09.68.11,1.2.22,1.71a12,12,0,0,1-.51,6.78c-1.24,3.6-2.51,7.2-3.63,10.84a16.64,16.64,0,0,0-.76,4.59c0,4,.12,8.07.13,12.1,0,2.39-.07,4.77-.21,7.15a2.12,2.12,0,0,1-.79,1.5c-1.79,1.08-3.82,1.15-5.91,1.25,0-1.28,0-2.3,1.22-2.94a1.74,1.74,0,0,0,.62-1.3c.09-6.42.13-12.84.21-19.26,0-1-.39-1.44-1.59-1.66-.24,1.13-.51,2.24-.7,3.36q-1.5,9-3,18.08a1.58,1.58,0,0,1-1.49,1.53l-6.5.76a14.6,14.6,0,0,1,1.31-2.86c.36-.45,1.19-.51,1.76-.82s1.12-.53,1.18-.89a44.7,44.7,0,0,0-.21-17.7,11.09,11.09,0,0,0-.59-1.52c-1.57,3.89-4.71,7-3.29,11.51a38.24,38.24,0,0,1,1.08,4.62c.06.37-.31.84-.56,1.22-.08.11-.41.08-.62.08-2.35,0-3.44.64-3.07-3a23.19,23.19,0,0,0,0-5.2,11.63,11.63,0,0,1,1.53-7.38c2.15-3.67.88-6.91-1-10.13-.2-.35-.65-.55-1-.82l-.27.19c.2,1,.36,2.1.62,3.14a9.13,9.13,0,0,1-.24,4.86c-1.12,3.82-2.48,7.59-2.51,11.66,0,1.53,0,2.94,1.22,4.18,1,1,.65,1.72-.7,2.13-3.11.94-3.19.91-3.44-2.3a51.85,51.85,0,0,1-.32-7.14,43.21,43.21,0,0,1,1.29-7.65,8.38,8.38,0,0,0-.34-5.2,40.44,40.44,0,0,0-2.49-5.41,7.59,7.59,0,0,0,0,1.72,17,17,0,0,1-.36,7.73c-.31,1.38-.78,1.51-1.76.86L518.76,99a5.53,5.53,0,0,1-.82,1.32,4.2,4.2,0,0,1-1.15.61c-.18-.41-.53-.83-.49-1.22.13-1.59.38-3.17.64-5.14-1.14,1.77-2.06,3.26-3.06,4.7a4.32,4.32,0,0,1-1.13.86c-.17-.43-.56-.91-.49-1.3C512.7,96.42,513.24,94,513.74,91.7Z"/><path class="cls-59" d="M283.62,85.93l-6.38,7.64a11.62,11.62,0,0,0,1,1.05c3.19,2.89,6.39,5.78,9.61,8.63,2.93,2.59,3,3,1,6.32-.58.92-1.2,1.81-1.78,2.74a4.19,4.19,0,0,1-4.93,1.86,1.47,1.47,0,0,1-.66-1.3c.58-1.44,1.05-3,2.72-3.7a2.06,2.06,0,0,0,.36-3.44c-3.64-2.8-7.32-5.55-11-8.32l-.44.21a8.14,8.14,0,0,0,0,1.78c.4,1.68.8,3.37,1.35,5,1.7,5.06,3.47,10.08,5.2,15.09.61,0,1,0,1.39,0a3.41,3.41,0,0,1,3.65,3.06c0,.41-.64,1.27-1,1.28a44.37,44.37,0,0,1-6.21-.27c-.46-.06-.94-.94-1.2-1.54-2-4.77-4-9.56-6.06-14.34-.61-1.46-1.29-2.89-1.91-4.34-.44-1-1.44-2-.57-3.27.1-.15-.1-.57-.25-.8a12.72,12.72,0,0,0-.88-1.2c-.76-.91-1.37-2.24-2.34-2.59s-2.12.45-3.19.78-1.51.08-1.88-1c-.82-2.3-1.92-2.82-4.23-2.15-1,.3-2,.72-3.24,1.15,1,3,1.88,5.91,3,8.75a2.86,2.86,0,0,1-.66,3.48c-.25.23-.47.51-.7.76-2.75,2.94-2.53,2.39-.25,5.4.59.79,1.32,1.47,2,2.22a4.24,4.24,0,0,0,3.95,1.49,4.69,4.69,0,0,1,2.93,1c1,.72.67,1.71-.57,2a7.75,7.75,0,0,1-2.21.13c-1.63-.09-3.26-.18-4.87-.42a4.16,4.16,0,0,1-2.14-.9c-2.74-2.56-5.41-5.2-8.08-7.85-.88-.87-.77-1.51.46-2.11a29.77,29.77,0,0,0,4-2.48,1.6,1.6,0,0,0,.42-2.45l-4.3-6.12c-.9,1.15-1.61,2-2.28,2.92-1.19,1.59-2.41,3.15-3.52,4.79a7.25,7.25,0,0,1-5.69,3.53,4.28,4.28,0,0,0-2.45,1.18c-2.81,2.85-5.51,5.81-8.15,8.63.56,1.07,1,2,1.49,2.86s.09,1.33-.78,1.53c-1.82.44-3.64.92-5.48,1.31-1,.21-1.42-.25-1.06-1.27a5.85,5.85,0,0,1,.33-.82c2.34-4.52,4.67-9.06,7-13.56a8.15,8.15,0,0,1,1.58-1.94,1.59,1.59,0,0,1,1.16-.38c2.25.32,3.65-.29,4.14-2.46.69-3,1-6.13,1.48-9.2.21-1.42.44-2.84.52-4.27a1.81,1.81,0,0,0-.67-1.35,1.09,1.09,0,0,0-1.75.31c-1.08,1.72-2.19,3.41-3.36,5.07-1.43,2-2.89,4-4.42,6a7.09,7.09,0,0,1-1.61,1.15l-1.08-1.67c-.55.46-1.18,1-1.83,1.53-.31.25-.69.67-1,.63-1.62-.25-2,1.16-2.9,2-1.59,1.44-3.26,2.79-4.9,4.17l-.44-.32a7.84,7.84,0,0,1,.19-1.18C212.47,95.89,219,88,227.55,81.66a18.55,18.55,0,0,1,6.17-2.79c6.54-1.74,13.14-3.24,19.68-4.82,0,0-.12-.21-.41-.68L262.64,71l-10.12-1.5c0-.16,0-.32,0-.48h11.72l.12-.39-8.18-2.93c6.09.36,11.69,2.45,17.16,4.84a85.89,85.89,0,0,1,14.48-13.23,43.65,43.65,0,0,1,4.29-2.64,5.43,5.43,0,0,1,1.64-.33A5.26,5.26,0,0,1,294,56c-.67,3-1.42,6-2.15,8.93-.15.59-.31,1.19-.57,2.19l1.61-.88c3.4-1.81,6.8-3.64,10.23-5.41a4.85,4.85,0,0,1,1.6-.2c-.11.55-.05,1.23-.36,1.64-2.63,3.53-5.24,7.08-8,10.49-1.66,2-1.34,3.64,1.2,4.29,2.2.56,4.46.92,6.65,1.49,2.56.67,2.64,1.25.95,3.2a6.27,6.27,0,0,1-5.46,2.35c-3.66-.19-7.32-.15-11-.36A2.59,2.59,0,0,0,285.59,86a2.6,2.6,0,0,1-.28.84,11.42,11.42,0,0,1-.77,1L284,86.69C283.86,86.52,283.8,86.34,283.62,85.93Z"/><ellipse class="cls-60" cx="738.28" cy="126.21" rx="84.23" ry="8.48"/><ellipse class="cls-61" cx="541.13" cy="110.09" rx="38.76" ry="8.48"/><ellipse class="cls-62" cx="255.98" cy="121.67" rx="75.22" ry="8.48"/><path class="cls-63" d="M286.22,81.66c-1.45,2.64-4.9,4.94-4.9,4.94C277.78,93,277,88.78,277,88.78c-3.32,6.18-4.72,3.68-4.72,3.68s1.91,17.72-1.41,10.79-6.38-8.77-9.57-9.61-.61-2.36-.61-2.36c-13.89,3.07-12.28-.65-12.28-.65s-8.05,12.65-11.08,12.62S233.55,93.07,233,90c-.08,1.43-.31,2.85-.52,4.27-.46,3.07-.79,6.18-1.48,9.2-.49,2.17-1.89,2.78-4.14,2.46a1.59,1.59,0,0,0-1.16.38,8.15,8.15,0,0,0-1.58,1.94c-2.38,4.5-4.71,9-7,13.56a5.85,5.85,0,0,0-.33.82c-.36,1,.07,1.48,1.06,1.27,1.84-.39,3.66-.87,5.48-1.31.87-.2,1.17-.71.78-1.53s-.93-1.79-1.49-2.86c2.64-2.82,5.34-5.78,8.15-8.63a4.28,4.28,0,0,1,2.45-1.18,7.25,7.25,0,0,0,5.69-3.53c1.11-1.64,2.33-3.2,3.52-4.79.67-.89,1.38-1.77,2.28-2.92l4.3,6.12a1.6,1.6,0,0,1-.42,2.45,29.77,29.77,0,0,1-4,2.48c-1.23.6-1.34,1.24-.46,2.11,2.67,2.65,5.34,5.29,8.08,7.85a4.16,4.16,0,0,0,2.14.9c1.61.24,3.24.33,4.87.42a7.75,7.75,0,0,0,2.21-.13c1.24-.3,1.57-1.29.57-2a4.69,4.69,0,0,0-2.93-1,4.24,4.24,0,0,1-3.95-1.49c-.65-.75-1.38-1.43-2-2.22-2.28-3-2.5-2.46.25-5.4.23-.25.45-.53.7-.76a2.86,2.86,0,0,0,.66-3.48c-1.09-2.84-2-5.76-3-8.75,1.21-.43,2.21-.85,3.24-1.15,2.31-.67,3.41-.15,4.23,2.15.37,1.06.91,1.28,1.88,1s2.33-1.09,3.19-.78,1.58,1.68,2.34,2.59a12.72,12.72,0,0,1,.88,1.2c.15.23.35.65.25.8-.87,1.29.13,2.23.57,3.27.62,1.45,1.3,2.88,1.91,4.34,2,4.78,4,9.57,6.06,14.34.26.6.74,1.48,1.2,1.54a44.37,44.37,0,0,0,6.21.27c.36,0,1-.87,1-1.28a3.41,3.41,0,0,0-3.65-3.06c-.39,0-.78,0-1.39,0-1.73-5-3.5-10-5.2-15.09-.55-1.63-.95-3.32-1.35-5a8.14,8.14,0,0,1,0-1.78l.44-.21c3.66,2.77,7.34,5.52,11,8.32a2.06,2.06,0,0,1-.36,3.44c-1.67.74-2.14,2.26-2.72,3.7a1.47,1.47,0,0,0,.66,1.3,4.19,4.19,0,0,0,4.93-1.86c.58-.93,1.2-1.82,1.78-2.74,2.06-3.27,2-3.73-1-6.32-3.22-2.85-6.42-5.74-9.61-8.63a11.62,11.62,0,0,1-1-1.05l6.38-7.64c.18.41.24.59.33.76l.59,1.06a11.42,11.42,0,0,0,.77-1,2.6,2.6,0,0,0,.28-.84,2.59,2.59,0,0,1,3.08-2.22c3.66.21,7.32.17,11,.36A7.38,7.38,0,0,0,301.3,84C288.5,83.76,287.68,79,286.22,81.66Z"/><path class="cls-64" d="M209.27,106.23a7.84,7.84,0,0,0-.19,1.18l.44.32c1.64-1.38,3.31-2.73,4.9-4.17.88-.79,1.28-2.2,2.9-2,.29,0,.67-.38,1-.63.65-.52,1.28-1.07,1.83-1.53l1.08,1.67a7.09,7.09,0,0,0,1.61-1.15c1.53-1.94,3-3.93,4.42-6,1.17-1.66,2.28-3.35,3.36-5.07a1.09,1.09,0,0,1,1.75-.31,1.81,1.81,0,0,1,.55.78,9.08,9.08,0,0,0-1.69-3.91s-5.45,11-7.41,10.5,0-3.71,0-3.71-9.38,11.26-7,3.84,10.76-14.48,10.76-14.48C219,88,212.47,95.89,209.27,106.23Z"/><path class="cls-65" d="M287.8,74.43s1.92-1.09,3.45-.41a1.37,1.37,0,0,1,.64,2.08S291.46,74.34,287.8,74.43Z"/><path class="cls-65" d="M441.15,15.86s1.92-1.1,3.45-.41a1.37,1.37,0,0,1,.64,2.08S444.81,15.77,441.15,15.86Z"/><path class="cls-65" d="M529.22,48.23s1.16-1.87,2.83-2a1.37,1.37,0,0,1,1.56,1.52S532.39,46.4,529.22,48.23Z"/><path class="cls-65" d="M772.4,66.47s1.92-1.1,3.45-.42a1.38,1.38,0,0,1,.64,2.09S776.06,66.38,772.4,66.47Z"/><path class="cls-66" d="M348.57,47a3.47,3.47,0,0,0-.13,1.14,4.61,4.61,0,0,0,1.07-.43c1.86-1.38,3.7-2.8,5.55-4.2a1.81,1.81,0,0,1,.07,1c0,.56,0,1.12,0,1.67a9.26,9.26,0,0,0,1.45-.61c2.82-1.79,5.63-3.61,8.44-5.42l.26.32a5.5,5.5,0,0,0-.32,1.22,7.59,7.59,0,0,0,.19,1.4,6,6,0,0,0,1.42-.27,4,4,0,0,0,1.21-1.11c1-1.14,2-2.32,3-3.52a4.84,4.84,0,0,1,4.74-2.09,20.11,20.11,0,0,0,6.64-.51,4.36,4.36,0,0,1,1.37.13c-.7,1.78-1.23,3.46-2,5-.34.64-1.24,1-1.91,1.46s-1.6.7-2,1.31c-3.17,4.28-6.26,8.62-9.35,13a10.83,10.83,0,0,0-1.1,1.89c-.44,1-.14,1.43.93,1.26,1.66-.26,5.46-3.26,5.64-4.74a3.51,3.51,0,0,1,1.25-2.11l6.93-6.17a7.48,7.48,0,0,1,4.51-2,6.22,6.22,0,0,0,3.93-1.7c1.39-1.32,2.86-2.57,4.53-4.05a9.41,9.41,0,0,1-5.33,6.86c-.52.26-1.09.42-1.61.69-2.65,1.43-4.21,3.82-5.56,6.4-.79,1.51-1.6,3-2.55,4.76,1.62,4.34,5.65.13,6.29-2.93a30.56,30.56,0,0,0,2.63-3.83c1.31-2.72,3.1-4.63,6.22-5.19a7.56,7.56,0,0,0,5.26-3.81c.95-1.58,2-3.11,3-4.63.2-.29.61-.66.91-.64,2.74.19,5.36.76,7.31,3,.34.38.77.69,1.15,1a4,4,0,0,0,4.19.87c.4-.13.81-.23,1.34-.38,1.45,3,2.91,6,4.28,9,.47,1,1,1.53,2.17,1,2.33-1,4.7-1.88,7-2.93,3.75-1.7,7.41-3.62,11.21-5.21a4.16,4.16,0,0,1,5.38,2.12c.57,1.25,1.18,2.48,1.8,3.7a1.67,1.67,0,0,0,2.24.7c.59-.19,1.41-.6,1.53-1.07a2.8,2.8,0,0,0-1-3.12,6.21,6.21,0,0,1-1.52-2c-.79-1.52-1.39-3.13-2.19-4.65s-1.69-2.67-3.73-1.78c1.61-1.17,3.21-2.16,4.81-3.14a2.91,2.91,0,0,1,3.4.26q2.07,1.77,4.2,3.48a6.14,6.14,0,0,0,1.53.93,1.86,1.86,0,0,0,2.31-.93,1.49,1.49,0,0,0-.28-1.4c-2.19-2-4.49-4-6.69-6.05a2.59,2.59,0,0,0-3.27-.51c-2.6,1.31-5.21,2.63-7.84,3.9q-2.72,1.3-5.51,2.49a5.17,5.17,0,0,1-1.49.15c0-.12-.06-.24-.1-.36a35.78,35.78,0,0,0,2.7-2.35c.84-.89,1.53-1.92,2.29-2.9a20.7,20.7,0,0,1,2.1-2.63c.84-.78,2-1.24,2.85-2a9.11,9.11,0,0,1,5.06-2.05,25.78,25.78,0,0,0,3.57-.65,28.74,28.74,0,0,1-11.65-.74A93.64,93.64,0,0,0,437,33c-4.34,8.1-4.34,3.22-4.34,3.22-4,5.18-6,.51-6,.51s-2.3,10.51-5.37,7.11-1.27-8.22-1.27-8.22c-10.09,2.69-15.7-.89-15.7-.89C397,40.86,398,36.22,398,36.22s-14.42,10.38-14.55,6.91,2.55-11,2.55-11c-12.89,5.49-13.59,1.66-13.59,1.66s-3.4,6.55-5.31,5.57,1.43-5,1.43-5-11.38,8-10.36,3.76,14.24-8.56,14.24-8.56a12.47,12.47,0,0,0-5.7,1.33C359.17,34.65,352.6,39.39,348.57,47Zm80.31-6.08a12.42,12.42,0,0,1,2.33,1.29l-5.33.92c0-.14-.07-.28-.11-.41a.84.84,0,0,1,0-.12C426.18,39.87,426.41,39.74,428.88,40.92Z"/><path class="cls-67" d="M683.68,102.07c-.31.29-.33.88-.49,1.33a4,4,0,0,0,1.34,0c.94-.31,1.84-.74,2.94-1.2-1.61,1.73-3.08,3.22-4.43,4.81a18.67,18.67,0,0,0-2,3.12,3.52,3.52,0,0,0-.1,1.43,6.12,6.12,0,0,0,1.28-.39,10,10,0,0,0,1-.83l7.66-5.48.25.29a10.43,10.43,0,0,0-.86,1.43,1.1,1.1,0,0,0,0,1,1.18,1.18,0,0,0,1,.13,5.75,5.75,0,0,0,1.21-.56L698,104c.54,1.58,1.09,1.73,2.1.41a30.34,30.34,0,0,1,10-8.29c.82-.45,1.62-1,2.5-1.49.11,1.62.23,3,.31,4.47.19,3.42-.44,4.16-3.83,4.6a4.9,4.9,0,0,1-.54,0,2,2,0,0,0-2.19,1.88c-.45,2.23-.91,4.45-1.42,6.67-.65,2.82-1.35,5.63-2,8.45-.23,1,0,1.65,1.12,1.65,2.36,0,4.72,0,7.08-.11,1.08,0,1.46-.68.94-1.61-.78-1.38-1.85-2.29-3.53-1.86,1.62-3.83,3.18-7.57,4.79-11.28.15-.35.66-.53,1-.81a17.56,17.56,0,0,0,2.61-2.15c1.09-1.29,2-2.76,2.94-4.15.75-1.07,1.52-2.14,2.39-3.36.79.83,1.45,1.48,2.08,2.17,1.35,1.51,1.36,2.13-.18,3.44s-3.25,2.5-4.86,3.77c-1.31,1-1.29,1.57-.63,3.1,2.15,5,5.93,8.65,9.54,12.47a1.54,1.54,0,0,0,1.37.38,1.75,1.75,0,0,0,.93-1.28,4.6,4.6,0,0,0-.66-2.25c-1.51-2.47-3.1-4.89-4.7-7.31-.57-.87-1.24-1.68-1.87-2.53,1.22-.69,2.33-1.27,3.39-1.92s2.11-1.34,3.12-2.07a5.57,5.57,0,0,0,2.35-6.66l-.82-3c5.54,2.79,10.37,7.13,16.89,5,.28.74.34,1.43.67,1.61s1.07.06,1.67.06c-.08.24-.17.54-.28.81-1.79,4.28-3.59,8.55-5.35,12.84a4.06,4.06,0,0,0-.4,1.91c.25,2.13.61,4.24,1,6.34.08.38.57,1,.85,1,2.17-.11,4.35-.28,6.5-.59.73-.1,1.4-.82.72-1.57a4.5,4.5,0,0,0-2.27-1.42c-1.71-.32-2.81-1.49-2.34-3.18a45.11,45.11,0,0,1,2.23-6.55c2-4.34,4.13-8.57,6.36-13.17.8,1.1,1.4,1.82,1.89,2.61,1.64,2.65,3.14,5.4,4.9,8a80.4,80.4,0,0,0,6.69,8.84,33,33,0,0,1,4.09,5.36,4,4,0,0,0,2.37,1.66,21.29,21.29,0,0,0,4.52.09,1.3,1.3,0,0,0,.9-.44,2.73,2.73,0,0,0-1.72-4,2.94,2.94,0,0,1-1.65-.58,123.86,123.86,0,0,1-12.55-16.65,4,4,0,0,1-.56-1.87c-.07-2.5.05-5-.06-7.49a2.52,2.52,0,0,1,1.63-2.81,7.83,7.83,0,0,0,4.63-6.13c.39-2.1,1-4.16,1.35-6.27a3.47,3.47,0,0,1,3-3c2.34-.59,4.68-1.18,7-1.75-8.17,1-13.33-4.12-13.08,4.9.25,9.38-4,10.6-4,10.6-2.17,7.46-4,4.28-4,4.28-3.83,5.88-4-.12-4-.12s-5.74,11.1-7.25,10.59,1.07-8.93,1.07-8.93-1.22.89-8.77,2a17.63,17.63,0,0,1-12.93-3.41c-7.32,2.68-8,0-8,0s-6.51,10.09-8.3,9-.51-11.33-.51-11.33-6.51,4.6-9.19,6.39,0-2.72,0-2.72S698,104,696.44,102.8s2-5.09,2-5.09-8.3,6.39-9.58,4.85,6.57-7.31,6.57-7.31c-.21.08-.43.13-.64.19A26.87,26.87,0,0,0,683.68,102.07Z"/><path class="cls-68" d="M512.08,90.5a1.23,1.23,0,0,0,0,1.15,2.07,2.07,0,0,0,1.25.25.79.79,0,0,0,.42-.2c-.5,2.34-1,4.72-1.48,7.12-.07.39.32.87.49,1.3a4.32,4.32,0,0,0,1.13-.86c1-1.44,1.92-2.93,3.06-4.7-.26,2-.51,3.55-.64,5.14,0,.39.31.81.49,1.22a4.2,4.2,0,0,0,1.15-.61,5.53,5.53,0,0,0,.82-1.32l4.79-9.55c1,.65,1.45.52,1.76-.86a17,17,0,0,0,.36-7.73,7.59,7.59,0,0,1,0-1.72,40.44,40.44,0,0,1,2.49,5.41,8.38,8.38,0,0,1,.34,5.2,43.21,43.21,0,0,0-1.29,7.65,51.85,51.85,0,0,0,.32,7.14c.25,3.21.33,3.24,3.44,2.3,1.35-.41,1.69-1.15.7-2.13-1.26-1.24-1.23-2.65-1.22-4.18,0-4.07,1.39-7.84,2.51-11.66a9.13,9.13,0,0,0,.24-4.86c-.26-1-.42-2.09-.62-3.14l.27-.19c.33.27.78.47,1,.82,1.85,3.22,3.12,6.46,1,10.13A11.63,11.63,0,0,0,533.25,99a23.19,23.19,0,0,1,0,5.2c-.37,3.59.72,3,3.07,3,.21,0,.54,0,.62-.08.25-.38.62-.85.56-1.22a38.24,38.24,0,0,0-1.08-4.62c-1.42-4.52,1.72-7.62,3.29-11.51a11.09,11.09,0,0,1,.59,1.52,44.7,44.7,0,0,1,.21,17.7c-.06.36-.74.66-1.18.89s-1.4.37-1.76.82a14.6,14.6,0,0,0-1.31,2.86l6.5-.76a1.58,1.58,0,0,0,1.49-1.53q1.47-9,3-18.08c.19-1.12.46-2.23.7-3.36,1.2.22,1.6.71,1.59,1.66-.08,6.42-.12,12.84-.21,19.26a1.74,1.74,0,0,1-.62,1.3c-1.2.64-1.2,1.66-1.22,2.94,2.09-.1,4.12-.17,5.91-1.25a2.12,2.12,0,0,0,.79-1.5c.14-2.38.22-4.76.21-7.15,0-4-.18-8.07-.13-12.1a16.64,16.64,0,0,1,.76-4.59c.75-2.45,1.58-4.88,2.41-7.31-2.06,4.79-4.68,9-6,7.82-1.79-1.66,1-5.27,1-5.27-4.59,3.54-10.08,4.38-12.55,0s.93-8.26.93-8.26-4.34,4.72-4.85-.9a11.25,11.25,0,0,1,3-8.75c-.72.69-3.39,3-3.39-.18,0-3.7,4.3-7.15,4.3-7.15a6.27,6.27,0,0,1-6.28-3.83,31.61,31.61,0,0,1-11.18,1.86c2.3.35,4.75.47,6.81,1.41s3.42,2.71,5.14,4.16c-3.58,3.78.19,5.72.19,5.72s-5.75-.13-7.25,3.19a10.07,10.07,0,0,1-3.86,4.59s.39,4.22.36,8.14-2.4,10-4.06,9c-1.14-.7-.23-3.75.45-5.59-.63,1.4-1.67,3.18-2.49,2-1-1.38,1-6.69,2-9a26.81,26.81,0,0,1-5.23,7.21A18.62,18.62,0,0,0,512.08,90.5Z"/></g></g></g></svg>