<svg xmlns="http://www.w3.org/2000/svg" xmlns:xlink="http://www.w3.org/1999/xlink" viewBox="0 0 924.57 305.6"><defs><style>.cls-1,.cls-100,.cls-101,.cls-102,.cls-103,.cls-104,.cls-105,.cls-106,.cls-107,.cls-108,.cls-109,.cls-110,.cls-111,.cls-112,.cls-113,.cls-114,.cls-115,.cls-46,.cls-47,.cls-48,.cls-49,.cls-50,.cls-51,.cls-52,.cls-53,.cls-54,.cls-55,.cls-56,.cls-61,.cls-62,.cls-63,.cls-64,.cls-65,.cls-66,.cls-67,.cls-76,.cls-77,.cls-78,.cls-79,.cls-80,.cls-81,.cls-82,.cls-83,.cls-84,.cls-85,.cls-86,.cls-87,.cls-88,.cls-89,.cls-90,.cls-91,.cls-92,.cls-93,.cls-94,.cls-95,.cls-96,.cls-97,.cls-98,.cls-99{mix-blend-mode:screen;}.cls-1{fill:url(#Áåçûìÿííûé_ãðàäèåíò_74);}.cls-2{isolation:isolate;}.cls-3{fill:#481e4a;}.cls-4{fill:#381a3d;}.cls-5{fill:url(#Áåçûìÿííûé_ãðàäèåíò_10);}.cls-10,.cls-11,.cls-12,.cls-13,.cls-14,.cls-15,.cls-16,.cls-17,.cls-18,.cls-19,.cls-20,.cls-22,.cls-23,.cls-24,.cls-43,.cls-57,.cls-58,.cls-59,.cls-6,.cls-60,.cls-68,.cls-69,.cls-7,.cls-70,.cls-71,.cls-72,.cls-73,.cls-8,.cls-9{mix-blend-mode:color-dodge;}.cls-6{fill:url(#Áåçûìÿííûé_ãðàäèåíò_18);}.cls-7{fill:url(#Áåçûìÿííûé_ãðàäèåíò_5);}.cls-8{fill:url(#Áåçûìÿííûé_ãðàäèåíò_109);}.cls-9{fill:url(#Áåçûìÿííûé_ãðàäèåíò_109-2);}.cls-10{fill:url(#Áåçûìÿííûé_ãðàäèåíò_109-3);}.cls-11{fill:url(#Áåçûìÿííûé_ãðàäèåíò_109-4);}.cls-12{fill:url(#Áåçûìÿííûé_ãðàäèåíò_109-5);}.cls-13{fill:url(#Áåçûìÿííûé_ãðàäèåíò_109-6);}.cls-14{fill:url(#Áåçûìÿííûé_ãðàäèåíò_108);}.cls-15{fill:url(#Áåçûìÿííûé_ãðàäèåíò_108-2);}.cls-16{fill:url(#Áåçûìÿííûé_ãðàäèåíò_108-3);}.cls-17{fill:url(#Áåçûìÿííûé_ãðàäèåíò_19);}.cls-18{fill:url(#Áåçûìÿííûé_ãðàäèåíò_108-4);}.cls-19{fill:url(#Áåçûìÿííûé_ãðàäèåíò_108-5);}.cls-20{fill:url(#Áåçûìÿííûé_ãðàäèåíò_108-6);}.cls-21{fill:#a71afe;opacity:0.54;}.cls-21,.cls-25,.cls-26,.cls-27,.cls-28,.cls-29,.cls-30,.cls-31,.cls-32,.cls-33,.cls-34,.cls-35,.cls-36,.cls-37,.cls-38,.cls-39,.cls-40,.cls-41,.cls-42{mix-blend-mode:multiply;}.cls-22{fill:url(#Áåçûìÿííûé_ãðàäèåíò_22);}.cls-23{fill:url(#Áåçûìÿííûé_ãðàäèåíò_14);}.cls-24{fill:url(#Áåçûìÿííûé_ãðàäèåíò_17);}.cls-25{fill:url(#Áåçûìÿííûé_ãðàäèåíò_269);}.cls-26{fill:url(#Áåçûìÿííûé_ãðàäèåíò_269-2);}.cls-27{fill:url(#Áåçûìÿííûé_ãðàäèåíò_269-3);}.cls-28{fill:url(#Áåçûìÿííûé_ãðàäèåíò_269-4);}.cls-29{fill:url(#Áåçûìÿííûé_ãðàäèåíò_269-5);}.cls-30{fill:url(#Áåçûìÿííûé_ãðàäèåíò_81);}.cls-31{fill:url(#Áåçûìÿííûé_ãðàäèåíò_81-2);}.cls-32{fill:url(#Áåçûìÿííûé_ãðàäèåíò_269-6);}.cls-33{fill:url(#Áåçûìÿííûé_ãðàäèåíò_269-7);}.cls-34{fill:url(#Áåçûìÿííûé_ãðàäèåíò_81-3);}.cls-35{fill:url(#Áåçûìÿííûé_ãðàäèåíò_91);}.cls-36{fill:url(#Áåçûìÿííûé_ãðàäèåíò_81-4);}.cls-37{fill:url(#Áåçûìÿííûé_ãðàäèåíò_81-5);}.cls-38{fill:url(#Áåçûìÿííûé_ãðàäèåíò_269-8);}.cls-39{fill:url(#Áåçûìÿííûé_ãðàäèåíò_90);}.cls-40{fill:url(#Áåçûìÿííûé_ãðàäèåíò_92);}.cls-41{fill:url(#Áåçûìÿííûé_ãðàäèåíò_269-9);}.cls-42{fill:url(#Áåçûìÿííûé_ãðàäèåíò_269-10);}.cls-43{fill:url(#Áåçûìÿííûé_ãðàäèåíò_59);}.cls-44{opacity:0.85;}.cls-45{clip-path:url(#clip-path);}.cls-46,.cls-47,.cls-48{opacity:0.53;}.cls-46{fill:url(#Áåçûìÿííûé_ãðàäèåíò_437);}.cls-47{fill:url(#Áåçûìÿííûé_ãðàäèåíò_437-2);}.cls-48{fill:url(#Áåçûìÿííûé_ãðàäèåíò_437-3);}.cls-49{fill:url(#Áåçûìÿííûé_ãðàäèåíò_260);}.cls-50{fill:url(#Áåçûìÿííûé_ãðàäèåíò_11);}.cls-51{fill:url(#Áåçûìÿííûé_ãðàäèåíò_47);}.cls-52,.cls-56{opacity:0.56;}.cls-52{fill:url(#Áåçûìÿííûé_ãðàäèåíò_11-2);}.cls-53,.cls-54{opacity:0.63;}.cls-53{fill:url(#Áåçûìÿííûé_ãðàäèåíò_11-3);}.cls-54{fill:url(#Áåçûìÿííûé_ãðàäèåíò_52);}.cls-55{fill:url(#Áåçûìÿííûé_ãðàäèåíò_11-4);}.cls-56{fill:url(#Áåçûìÿííûé_ãðàäèåíò_47-2);}.cls-57,.cls-58,.cls-59,.cls-60,.cls-68,.cls-69,.cls-70,.cls-71,.cls-72,.cls-73{opacity:0.67;}.cls-57{fill:url(#Áåçûìÿííûé_ãðàäèåíò_76);}.cls-58{fill:url(#Áåçûìÿííûé_ãðàäèåíò_76-2);}.cls-59{fill:url(#Áåçûìÿííûé_ãðàäèåíò_76-3);}.cls-60{fill:url(#Áåçûìÿííûé_ãðàäèåíò_76-4);}.cls-61{fill:url(#Áåçûìÿííûé_ãðàäèåíò_178);}.cls-62{fill:url(#Áåçûìÿííûé_ãðàäèåíò_178-2);}.cls-63{fill:url(#Áåçûìÿííûé_ãðàäèåíò_178-3);}.cls-64{fill:url(#Áåçûìÿííûé_ãðàäèåíò_178-4);}.cls-65{fill:url(#Áåçûìÿííûé_ãðàäèåíò_178-5);}.cls-66{fill:url(#Áåçûìÿííûé_ãðàäèåíò_178-6);}.cls-67{fill:url(#Áåçûìÿííûé_ãðàäèåíò_178-7);}.cls-68{fill:url(#Áåçûìÿííûé_ãðàäèåíò_179);}.cls-69{fill:url(#Áåçûìÿííûé_ãðàäèåíò_179-2);}.cls-70{fill:#0cf;}.cls-71{fill:url(#Áåçûìÿííûé_ãðàäèåíò_179-3);}.cls-72{fill:url(#Áåçûìÿííûé_ãðàäèåíò_179-4);}.cls-73{fill:url(#Áåçûìÿííûé_ãðàäèåíò_179-5);}.cls-74{opacity:0.36;}.cls-75{fill:#00fffe;}.cls-76{fill:url(#Áåçûìÿííûé_ãðàäèåíò_191);}.cls-77{fill:url(#Áåçûìÿííûé_ãðàäèåíò_191-2);}.cls-78{fill:url(#Áåçûìÿííûé_ãðàäèåíò_191-3);}.cls-79{fill:url(#Áåçûìÿííûé_ãðàäèåíò_191-4);}.cls-80{fill:url(#Áåçûìÿííûé_ãðàäèåíò_191-5);}.cls-81{fill:url(#Áåçûìÿííûé_ãðàäèåíò_191-6);}.cls-82{fill:url(#Áåçûìÿííûé_ãðàäèåíò_191-7);}.cls-83{fill:url(#Áåçûìÿííûé_ãðàäèåíò_191-8);}.cls-84{fill:url(#Áåçûìÿííûé_ãðàäèåíò_191-9);}.cls-85{fill:url(#Áåçûìÿííûé_ãðàäèåíò_191-10);}.cls-86{fill:url(#Áåçûìÿííûé_ãðàäèåíò_191-11);}.cls-87{fill:url(#Áåçûìÿííûé_ãðàäèåíò_191-12);}.cls-88{fill:url(#Áåçûìÿííûé_ãðàäèåíò_191-13);}.cls-89{fill:url(#Áåçûìÿííûé_ãðàäèåíò_191-14);}.cls-90{fill:url(#Áåçûìÿííûé_ãðàäèåíò_191-15);}.cls-91{fill:url(#Áåçûìÿííûé_ãðàäèåíò_191-16);}.cls-92{fill:url(#Áåçûìÿííûé_ãðàäèåíò_191-17);}.cls-93{fill:url(#Áåçûìÿííûé_ãðàäèåíò_191-18);}.cls-94{fill:url(#Áåçûìÿííûé_ãðàäèåíò_191-19);}.cls-95{fill:url(#Áåçûìÿííûé_ãðàäèåíò_191-20);}.cls-96{fill:url(#Áåçûìÿííûé_ãðàäèåíò_191-21);}.cls-97{fill:url(#Áåçûìÿííûé_ãðàäèåíò_191-22);}.cls-98{fill:url(#Áåçûìÿííûé_ãðàäèåíò_191-23);}.cls-99{fill:url(#Áåçûìÿííûé_ãðàäèåíò_191-24);}.cls-100{fill:url(#Áåçûìÿííûé_ãðàäèåíò_191-25);}.cls-101{fill:url(#Áåçûìÿííûé_ãðàäèåíò_191-26);}.cls-102{fill:url(#Áåçûìÿííûé_ãðàäèåíò_191-27);}.cls-103{fill:url(#Áåçûìÿííûé_ãðàäèåíò_191-28);}.cls-104{fill:url(#Áåçûìÿííûé_ãðàäèåíò_191-29);}.cls-105{fill:url(#Áåçûìÿííûé_ãðàäèåíò_191-30);}.cls-106{fill:url(#Áåçûìÿííûé_ãðàäèåíò_191-31);}.cls-107{fill:url(#Áåçûìÿííûé_ãðàäèåíò_191-32);}.cls-108{fill:url(#Áåçûìÿííûé_ãðàäèåíò_191-33);}.cls-109{fill:url(#Áåçûìÿííûé_ãðàäèåíò_191-34);}.cls-110{fill:url(#Áåçûìÿííûé_ãðàäèåíò_191-35);}.cls-111{fill:url(#Áåçûìÿííûé_ãðàäèåíò_191-36);}.cls-112{fill:url(#Áåçûìÿííûé_ãðàäèåíò_191-37);}.cls-113{fill:url(#Áåçûìÿííûé_ãðàäèåíò_191-38);}.cls-114{fill:url(#Áåçûìÿííûé_ãðàäèåíò_191-39);}.cls-115{fill:url(#Áåçûìÿííûé_ãðàäèåíò_191-40);}</style><linearGradient id="Áåçûìÿííûé_ãðàäèåíò_74" x1="511.01" y1="218.35" x2="511.01" y2="130.55" gradientUnits="userSpaceOnUse"><stop offset="0.32" stop-color="#ea45fe"/><stop offset="1"/></linearGradient><linearGradient id="Áåçûìÿííûé_ãðàäèåíò_10" x1="510.08" y1="288.93" x2="510.08" y2="135.68" gradientUnits="userSpaceOnUse"><stop offset="0" stop-color="#7e1ad1"/><stop offset="0.68" stop-color="#a71afe"/></linearGradient><linearGradient id="Áåçûìÿííûé_ãðàäèåíò_18" x1="500.78" y1="209.07" x2="418.77" y2="209.07" gradientUnits="userSpaceOnUse"><stop offset="0"/><stop offset="1" stop-color="#a7b3fe"/></linearGradient><linearGradient id="Áåçûìÿííûé_ãðàäèåíò_5" x1="363.29" y1="216.18" x2="271.68" y2="216.18" gradientUnits="userSpaceOnUse"><stop offset="0" stop-color="#a7b3fe"/><stop offset="1"/></linearGradient><linearGradient id="Áåçûìÿííûé_ãðàäèåíò_109" x1="169.29" y1="220.26" x2="264.29" y2="220.26" gradientUnits="userSpaceOnUse"><stop offset="0"/><stop offset="0.09" stop-color="#070507"/><stop offset="0.22" stop-color="#1c131c"/><stop offset="0.38" stop-color="#3e2a3e"/><stop offset="0.55" stop-color="#6d496d"/><stop offset="0.75" stop-color="#a971a9"/><stop offset="0.96" stop-color="#f1a2f1"/><stop offset="1" stop-color="#ffabfe"/></linearGradient><linearGradient id="Áåçûìÿííûé_ãðàäèåíò_109-2" x1="264.29" y1="220.71" x2="286.01" y2="220.71" xlink:href="#Áåçûìÿííûé_ãðàäèåíò_109"/><linearGradient id="Áåçûìÿííûé_ãðàäèåíò_109-3" x1="275.8" y1="213.54" x2="296.14" y2="213.54" xlink:href="#Áåçûìÿííûé_ãðàäèåíò_109"/><linearGradient id="Áåçûìÿííûé_ãðàäèåíò_109-4" x1="341.72" y1="197.99" x2="372.4" y2="197.99" xlink:href="#Áåçûìÿííûé_ãðàäèåíò_109"/><linearGradient id="Áåçûìÿííûé_ãðàäèåíò_109-5" x1="355.04" y1="191.86" x2="395.04" y2="191.86" xlink:href="#Áåçûìÿííûé_ãðàäèåíò_109"/><linearGradient id="Áåçûìÿííûé_ãðàäèåíò_109-6" x1="329.6" y1="216.18" x2="345.59" y2="216.18" xlink:href="#Áåçûìÿííûé_ãðàäèåíò_109"/><linearGradient id="Áåçûìÿííûé_ãðàäèåíò_108" x1="411.04" y1="187.21" x2="502.55" y2="187.21" gradientUnits="userSpaceOnUse"><stop offset="0" stop-color="#ffabfe"/><stop offset="0.04" stop-color="#f1a2f1"/><stop offset="0.25" stop-color="#a971a9"/><stop offset="0.45" stop-color="#6d496d"/><stop offset="0.62" stop-color="#3e2a3e"/><stop offset="0.78" stop-color="#1c131c"/><stop offset="0.91" stop-color="#070507"/><stop offset="1"/></linearGradient><linearGradient id="Áåçûìÿííûé_ãðàäèåíò_108-2" x1="422.87" y1="181.75" x2="505.48" y2="181.75" xlink:href="#Áåçûìÿííûé_ãðàäèåíò_108"/><linearGradient id="Áåçûìÿííûé_ãðàäèåíò_108-3" x1="419.24" y1="157.43" x2="427.32" y2="155.42" xlink:href="#Áåçûìÿííûé_ãðàäèåíò_108"/><linearGradient id="Áåçûìÿííûé_ãðàäèåíò_19" x1="515.32" y1="218.17" x2="531.72" y2="218.17" gradientUnits="userSpaceOnUse"><stop offset="0" stop-color="#ffabfe"/><stop offset="1"/></linearGradient><linearGradient id="Áåçûìÿííûé_ãðàäèåíò_108-4" x1="524.23" y1="230.04" x2="547.2" y2="230.04" xlink:href="#Áåçûìÿííûé_ãðàäèåíò_108"/><linearGradient id="Áåçûìÿííûé_ãðàäèåíò_108-5" x1="539.89" y1="222.34" x2="565.76" y2="222.34" xlink:href="#Áåçûìÿííûé_ãðàäèåíò_108"/><linearGradient id="Áåçûìÿííûé_ãðàäèåíò_108-6" x1="583.97" y1="223.94" x2="696.07" y2="223.94" xlink:href="#Áåçûìÿííûé_ãðàäèåíò_108"/><linearGradient id="Áåçûìÿííûé_ãðàäèåíò_22" x1="513.61" y1="156.78" x2="424.36" y2="156.78" gradientUnits="userSpaceOnUse"><stop offset="0.58"/><stop offset="0.63" stop-color="#030304"/><stop offset="0.68" stop-color="#0a0b10"/><stop offset="0.74" stop-color="#181924"/><stop offset="0.79" stop-color="#2a2d40"/><stop offset="0.84" stop-color="#424664"/><stop offset="0.9" stop-color="#5f6590"/><stop offset="0.95" stop-color="#8089c3"/><stop offset="1" stop-color="#a7b3fe"/></linearGradient><linearGradient id="Áåçûìÿííûé_ãðàäèåíò_14" x1="395.44" y1="203.08" x2="349.67" y2="209.4" gradientUnits="userSpaceOnUse"><stop offset="0.16" stop-color="#a7b3fe"/><stop offset="0.21" stop-color="#9aa6eb"/><stop offset="0.38" stop-color="#6c74a5"/><stop offset="0.54" stop-color="#464b6a"/><stop offset="0.69" stop-color="#282a3c"/><stop offset="0.82" stop-color="#12131b"/><stop offset="0.93" stop-color="#050507"/><stop offset="1"/></linearGradient><linearGradient id="Áåçûìÿííûé_ãðàäèåíò_17" x1="735.87" y1="234.73" x2="523.95" y2="234.73" gradientUnits="userSpaceOnUse"><stop offset="0.38"/><stop offset="1" stop-color="#a7b3fe"/></linearGradient><linearGradient id="Áåçûìÿííûé_ãðàäèåíò_269" x1="421.29" y1="216.8" x2="518.64" y2="212.41" gradientUnits="userSpaceOnUse"><stop offset="0" stop-color="#a71afe"/><stop offset="1" stop-color="#fff"/></linearGradient><linearGradient id="Áåçûìÿííûé_ãðàäèåíò_269-2" x1="280.21" y1="220.59" x2="262.62" y2="219.85" xlink:href="#Áåçûìÿííûé_ãðàäèåíò_269"/><linearGradient id="Áåçûìÿííûé_ãðàäèåíò_269-3" x1="295.18" y1="220.23" x2="273.91" y2="219.33" xlink:href="#Áåçûìÿííûé_ãðàäèåíò_269"/><linearGradient id="Áåçûìÿííûé_ãðàäèåíò_269-4" x1="368.83" y1="213.55" x2="342.92" y2="212.46" xlink:href="#Áåçûìÿííûé_ãðàäèåíò_269"/><linearGradient id="Áåçûìÿííûé_ãðàäèåíò_269-5" x1="382.28" y1="212.88" x2="352.89" y2="211.64" xlink:href="#Áåçûìÿííûé_ãðàäèåíò_269"/><linearGradient id="Áåçûìÿííûé_ãðàäèåíò_81" x1="515.5" y1="188.49" x2="425.89" y2="184.71" gradientUnits="userSpaceOnUse"><stop offset="0" stop-color="#fff"/><stop offset="1" stop-color="#a71afe"/></linearGradient><linearGradient id="Áåçûìÿííûé_ãðàäèåíò_81-2" x1="504.28" y1="205.12" x2="417.72" y2="201.47" xlink:href="#Áåçûìÿííûé_ãðàäèåíò_81"/><linearGradient id="Áåçûìÿííûé_ãðàäèåíò_269-6" x1="544.02" y1="230.33" x2="527.32" y2="229.63" xlink:href="#Áåçûìÿííûé_ãðàäèåíò_269"/><linearGradient id="Áåçûìÿííûé_ãðàäèåíò_269-7" x1="561.76" y1="226.89" x2="540.11" y2="225.98" xlink:href="#Áåçûìÿííûé_ãðàäèåíò_269"/><linearGradient id="Áåçûìÿííûé_ãðàäèåíò_81-3" x1="720.22" y1="227.41" x2="585.78" y2="221.74" xlink:href="#Áåçûìÿííûé_ãðàäèåíò_81"/><linearGradient id="Áåçûìÿííûé_ãðàäèåíò_91" x1="409.88" y1="206.44" x2="409.88" y2="109.4" gradientUnits="userSpaceOnUse"><stop offset="0" stop-color="#fff"/><stop offset="0.31" stop-color="#e5bcff"/><stop offset="1" stop-color="#a71afe"/></linearGradient><linearGradient id="Áåçûìÿííûé_ãðàäèåíò_81-4" x1="820.25" y1="246.02" x2="582.58" y2="236" xlink:href="#Áåçûìÿííûé_ãðàäèåíò_81"/><linearGradient id="Áåçûìÿííûé_ãðàäèåíò_81-5" x1="621.39" y1="223.23" x2="534.36" y2="227.79" xlink:href="#Áåçûìÿííûé_ãðàäèåíò_81"/><linearGradient id="Áåçûìÿííûé_ãðàäèåíò_269-8" x1="245.12" y1="222.94" x2="143.79" y2="218.67" xlink:href="#Áåçûìÿííûé_ãðàäèåíò_269"/><linearGradient id="Áåçûìÿííûé_ãðàäèåíò_90" x1="414.63" y1="204.15" x2="414.63" y2="107.1" gradientUnits="userSpaceOnUse"><stop offset="0" stop-color="#fff"/><stop offset="0.11" stop-color="#fdfaff"/><stop offset="0.24" stop-color="#f7ebff"/><stop offset="0.38" stop-color="#eed2ff"/><stop offset="0.54" stop-color="#e0afff"/><stop offset="0.7" stop-color="#cf82fe"/><stop offset="0.86" stop-color="#ba4cfe"/><stop offset="1" stop-color="#a71afe"/></linearGradient><linearGradient id="Áåçûìÿííûé_ãðàäèåíò_92" x1="397.05" y1="303.7" x2="397.05" y2="47.07" gradientUnits="userSpaceOnUse"><stop offset="0" stop-color="#fff"/><stop offset="0.09" stop-color="#fbf5ff"/><stop offset="0.25" stop-color="#f0d9ff"/><stop offset="0.46" stop-color="#dfacff"/><stop offset="0.71" stop-color="#c76dfe"/><stop offset="0.98" stop-color="#a91ffe"/><stop offset="1" stop-color="#a71afe"/></linearGradient><linearGradient id="Áåçûìÿííûé_ãðàäèåíò_269-9" x1="398.14" y1="259.48" x2="274.54" y2="151.86" xlink:href="#Áåçûìÿííûé_ãðàäèåíò_269"/><linearGradient id="Áåçûìÿííûé_ãðàäèåíò_269-10" x1="274.46" y1="219.85" x2="119.01" y2="219.85" xlink:href="#Áåçûìÿííûé_ãðàäèåíò_269"/><linearGradient id="Áåçûìÿííûé_ãðàäèåíò_59" x1="474.56" y1="272.49" x2="466.28" y2="135.8" gradientUnits="userSpaceOnUse"><stop offset="0" stop-color="#fff9fe"/><stop offset="0.01" stop-color="#fff7fe"/><stop offset="0.35" stop-color="#ffbffe"/><stop offset="0.64" stop-color="#ff96ff"/><stop offset="0.86" stop-color="#ff7dff"/><stop offset="1" stop-color="#ff74ff"/></linearGradient><clipPath id="clip-path"><path class="cls-1" d="M224.15,239.18s35.57,3.29,72-4.39,53.78-3.29,53.78-3.29L348.7,225s6.34-4.79,19.61-4.22,19.38-8,19.38-8l.94-10.82s4.26.05,11.38-3.38,12.16-3.45,12.16-3.45v5.41s13.68,9.7,29.68,8.62,33.17,2.82,49.09,8.37,27.78,4.1,27.78,4.1l-1.47,5.24s27.84,11.7,55.88,7.52,58.4,10.13,79.13,8.76,55.79-3.55,73.49,3.2,69.82,2.43,69.82,2.43l2.3,7.47-112.06,5-1.53-7.47-287.71-2.43L395,261l-76.29-4.29Z"/></clipPath><linearGradient id="Áåçûìÿííûé_ãðàäèåíò_437" x1="414.63" y1="216.78" x2="414.8" y2="161.54" gradientTransform="translate(853.12 440.61) rotate(180)" gradientUnits="userSpaceOnUse"><stop offset="0"/><stop offset="0.04" stop-color="#020404"/><stop offset="0.09" stop-color="#081111"/><stop offset="0.14" stop-color="#112727"/><stop offset="0.19" stop-color="#1e4646"/><stop offset="0.24" stop-color="#2f6d6d"/><stop offset="0.29" stop-color="#449d9d"/><stop offset="0.34" stop-color="#5cd4d4"/><stop offset="0.37" stop-color="#6fffff"/><stop offset="0.44" stop-color="#63e2e2"/><stop offset="0.57" stop-color="#439999"/><stop offset="0.77" stop-color="#102626"/><stop offset="0.84"/></linearGradient><linearGradient id="Áåçûìÿííûé_ãðàäèåíò_437-2" x1="551.54" y1="249.56" x2="551.65" y2="215.97" gradientTransform="translate(1011.2 452.5) rotate(180)" xlink:href="#Áåçûìÿííûé_ãðàäèåíò_437"/><linearGradient id="Áåçûìÿííûé_ãðàäèåíò_437-3" x1="574.29" y1="258.72" x2="574.35" y2="239.78" gradientTransform="translate(1011.2 452.5) rotate(180)" xlink:href="#Áåçûìÿííûé_ãðàäèåíò_437"/><linearGradient id="Áåçûìÿííûé_ãðàäèåíò_260" x1="510.08" y1="263.35" x2="510.08" y2="182.13" gradientUnits="userSpaceOnUse"><stop offset="0" stop-color="#a7fffe"/><stop offset="0.28" stop-color="#6faaa9"/><stop offset="0.54" stop-color="#406161"/><stop offset="0.75" stop-color="#1d2d2c"/><stop offset="0.91" stop-color="#080c0c"/><stop offset="1"/></linearGradient><linearGradient id="Áåçûìÿííûé_ãðàäèåíò_11" x1="711.55" y1="288.93" x2="711.55" y2="135.68" gradientUnits="userSpaceOnUse"><stop offset="0.32" stop-color="#a71afe"/><stop offset="1"/></linearGradient><linearGradient id="Áåçûìÿííûé_ãðàäèåíò_47" x1="427.28" y1="235.7" x2="660.88" y2="225.16" gradientUnits="userSpaceOnUse"><stop offset="0" stop-color="#a71afe"/><stop offset="1"/></linearGradient><linearGradient id="Áåçûìÿííûé_ãðàäèåíò_11-2" x1="362.67" y1="282.32" x2="247.09" y2="181.69" xlink:href="#Áåçûìÿííûé_ãðàäèåíò_11"/><linearGradient id="Áåçûìÿííûé_ãðàäèåíò_11-3" x1="401.19" y1="262.64" x2="462.22" y2="259.89" xlink:href="#Áåçûìÿííûé_ãðàäèåíò_11"/><linearGradient id="Áåçûìÿííûé_ãðàäèåíò_52" x1="528.51" y1="264.58" x2="762.11" y2="254.04" gradientUnits="userSpaceOnUse"><stop offset="0.33"/><stop offset="0.68" stop-color="#a71afe"/></linearGradient><linearGradient id="Áåçûìÿííûé_ãðàäèåíò_11-4" x1="258.77" y1="276.41" x2="216.42" y2="181.47" xlink:href="#Áåçûìÿííûé_ãðàäèåíò_11"/><linearGradient id="Áåçûìÿííûé_ãðàäèåíò_47-2" x1="428.68" y1="176.43" x2="493.67" y2="137.48" xlink:href="#Áåçûìÿííûé_ãðàäèåíò_47"/><linearGradient id="Áåçûìÿííûé_ãðàäèåíò_76" x1="405.49" y1="112.67" x2="405.49" y2="45.26" gradientUnits="userSpaceOnUse"><stop offset="0" stop-color="#0cf"/><stop offset="0.4" stop-color="#007a99"/><stop offset="1"/></linearGradient><linearGradient id="Áåçûìÿííûé_ãðàäèåíò_76-2" x1="735.57" y1="178" x2="735.57" y2="96.66" xlink:href="#Áåçûìÿííûé_ãðàäèåíò_76"/><linearGradient id="Áåçûìÿííûé_ãðàäèåíò_76-3" x1="536.61" y1="167.96" x2="536.61" y2="66.01" xlink:href="#Áåçûìÿííûé_ãðàäèåíò_76"/><linearGradient id="Áåçûìÿííûé_ãðàäèåíò_76-4" x1="257.66" y1="176.96" x2="257.66" y2="100.79" xlink:href="#Áåçûìÿííûé_ãðàäèåíò_76"/><radialGradient id="Áåçûìÿííûé_ãðàäèåíò_178" cx="257.74" cy="135.68" r="48.51" gradientUnits="userSpaceOnUse"><stop offset="0" stop-color="#0cf"/><stop offset="0.08" stop-color="#00b4e2"/><stop offset="0.28" stop-color="#007e9e"/><stop offset="0.46" stop-color="#005166"/><stop offset="0.63" stop-color="#002e3a"/><stop offset="0.78" stop-color="#00151a"/><stop offset="0.91" stop-color="#000607"/><stop offset="1"/></radialGradient><radialGradient id="Áåçûìÿííûé_ãðàäèåíò_178-2" cx="417.68" cy="86.02" r="48.51" gradientTransform="translate(61.88 -149.05) rotate(21.81)" xlink:href="#Áåçûìÿííûé_ãðàäèåíò_178"/><radialGradient id="Áåçûìÿííûé_ãðàäèåíò_178-3" cx="539.89" cy="127.45" r="48.51" xlink:href="#Áåçûìÿííûé_ãðàäèåíò_178"/><radialGradient id="Áåçûìÿííûé_ãðàäèåíò_178-4" cx="747.57" cy="140.22" r="48.51" xlink:href="#Áåçûìÿííûé_ãðàäèåíò_178"/><radialGradient id="Áåçûìÿííûé_ãðàäèåíò_178-5" cx="731.9" cy="105.18" r="48.52" gradientTransform="translate(-532.51 160.85) scale(1.74 0.17)" xlink:href="#Áåçûìÿííûé_ãðàäèåíò_178"/><radialGradient id="Áåçûìÿííûé_ãðàäèåíò_178-6" cx="610.63" cy="12.91" r="48.52" gradientTransform="translate(53.23 160.85) scale(0.8 0.17)" xlink:href="#Áåçûìÿííûé_ãðàäèåíò_178"/><radialGradient id="Áåçûìÿííûé_ãðàäèåíò_178-7" cx="260.84" cy="79.2" r="48.52" gradientTransform="translate(-148.45 160.85) scale(1.55 0.17)" xlink:href="#Áåçûìÿííûé_ãðàäèåíò_178"/><linearGradient id="Áåçûìÿííûé_ãðàäèåíò_179" x1="258.97" y1="176.96" x2="258.97" y2="100.79" gradientUnits="userSpaceOnUse"><stop offset="0"/><stop offset="0.6" stop-color="#007a99"/><stop offset="1" stop-color="#0cf"/></linearGradient><linearGradient id="Áåçûìÿííûé_ãðàäèåíò_179-2" x1="220.99" y1="176.96" x2="220.99" y2="100.79" xlink:href="#Áåçûìÿííûé_ãðàäèåíò_179"/><linearGradient id="Áåçûìÿííûé_ãðàäèåíò_179-3" x1="405.05" y1="112.67" x2="405.05" y2="45.26" xlink:href="#Áåçûìÿííûé_ãðàäèåíò_179"/><linearGradient id="Áåçûìÿííûé_ãðàäèåíò_179-4" x1="732.48" y1="178" x2="732.48" y2="96.66" xlink:href="#Áåçûìÿííûé_ãðàäèåíò_179"/><linearGradient id="Áåçûìÿííûé_ãðàäèåíò_179-5" x1="534.68" y1="167.96" x2="534.68" y2="66.01" xlink:href="#Áåçûìÿííûé_ãðàäèåíò_179"/><radialGradient id="Áåçûìÿííûé_ãðàäèåíò_191" cx="732.94" cy="136.97" r="4.75" gradientUnits="userSpaceOnUse"><stop offset="0" stop-color="#47fffe"/><stop offset="0.04" stop-color="#43f1f1"/><stop offset="0.25" stop-color="#2fa9a9"/><stop offset="0.45" stop-color="#1e6d6d"/><stop offset="0.62" stop-color="#113e3e"/><stop offset="0.78" stop-color="#081c1c"/><stop offset="0.91" stop-color="#020707"/><stop offset="1"/></radialGradient><radialGradient id="Áåçûìÿííûé_ãðàäèåíò_191-2" cx="744.23" cy="144.67" r="4.75" xlink:href="#Áåçûìÿííûé_ãðàäèåíò_191"/><radialGradient id="Áåçûìÿííûé_ãðàäèåíò_191-3" cx="754.72" cy="156.25" r="4.75" xlink:href="#Áåçûìÿííûé_ãðàäèåíò_191"/><radialGradient id="Áåçûìÿííûé_ãðàäèåíò_191-4" cx="761.83" cy="132.61" r="4.81" xlink:href="#Áåçûìÿííûé_ãðàäèåíò_191"/><radialGradient id="Áåçûìÿííûé_ãðàäèåíò_191-5" cx="764.39" cy="119.25" r="4.75" xlink:href="#Áåçûìÿííûé_ãðàäèåíò_191"/><radialGradient id="Áåçûìÿííûé_ãðàäèåíò_191-6" cx="772.4" cy="126.55" r="4.7" xlink:href="#Áåçûìÿííûé_ãðàäèåíò_191"/><radialGradient id="Áåçûìÿííûé_ãðàäèåíò_191-7" cx="747.61" cy="131.76" r="4.7" xlink:href="#Áåçûìÿííûé_ãðàäèåíò_191"/><radialGradient id="Áåçûìÿííûé_ãðàäèåíò_191-8" cx="762.8" cy="144.56" r="4.7" xlink:href="#Áåçûìÿííûé_ãðàäèåíò_191"/><radialGradient id="Áåçûìÿííûé_ãðàäèåíò_191-9" cx="725.52" cy="144.67" r="4.7" xlink:href="#Áåçûìÿííûé_ãðàäèåíò_191"/><radialGradient id="Áåçûìÿííûé_ãðàäèåíò_191-10" cx="715.46" cy="151.09" r="4.7" xlink:href="#Áåçûìÿííûé_ãðàäèåíò_191"/><radialGradient id="Áåçûìÿííûé_ãðàäèåíò_191-11" cx="528.9" cy="127.06" r="4.75" xlink:href="#Áåçûìÿííûé_ãðàäèåíò_191"/><radialGradient id="Áåçûìÿííûé_ãðàäèåíò_191-12" cx="540.19" cy="134.77" r="4.75" xlink:href="#Áåçûìÿííûé_ãðàäèåíò_191"/><radialGradient id="Áåçûìÿííûé_ãðàäèåíò_191-13" cx="550.67" cy="146.35" r="4.75" xlink:href="#Áåçûìÿííûé_ãðàäèåíò_191"/><radialGradient id="Áåçûìÿííûé_ãðàäèåíò_191-14" cx="529.22" cy="145.55" r="4.81" xlink:href="#Áåçûìÿííûé_ãðàäèåíò_191"/><radialGradient id="Áåçûìÿííûé_ãðàäèåíò_191-15" cx="537.57" cy="95.8" r="4.75" xlink:href="#Áåçûìÿííûé_ãðàäèåíò_191"/><radialGradient id="Áåçûìÿííûé_ãðàäèåíò_191-16" cx="555.88" cy="119.45" r="4.7" xlink:href="#Áåçûìÿííûé_ãðàäèåíò_191"/><radialGradient id="Áåçûìÿííûé_ãðàäèåíò_191-17" cx="543.56" cy="121.85" r="4.7" xlink:href="#Áåçûìÿííûé_ãðàäèåíò_191"/><radialGradient id="Áåçûìÿííûé_ãðàäèåíò_191-18" cx="550.67" cy="131.8" r="4.7" xlink:href="#Áåçûìÿííûé_ãðàäèåíò_191"/><radialGradient id="Áåçûìÿííûé_ãðàäèåíò_191-19" cx="542.78" cy="111.05" r="4.7" xlink:href="#Áåçûìÿííûé_ãðàäèåíò_191"/><radialGradient id="Áåçûìÿííûé_ãðàäèåíò_191-20" cx="516.63" cy="143.25" r="4.7" xlink:href="#Áåçûìÿííûé_ãðàäèåíò_191"/><radialGradient id="Áåçûìÿííûé_ãðàäèåíò_191-21" cx="400.24" cy="82.63" r="4.75" xlink:href="#Áåçûìÿííûé_ãðàäèåíò_191"/><radialGradient id="Áåçûìÿííûé_ãðàäèåíò_191-22" cx="411.53" cy="90.33" r="4.75" xlink:href="#Áåçûìÿííûé_ãðàäèåíò_191"/><radialGradient id="Áåçûìÿííûé_ãðàäèåíò_191-23" cx="429.92" cy="98.68" r="4.75" xlink:href="#Áåçûìÿííûé_ãðàäèåíò_191"/><radialGradient id="Áåçûìÿííûé_ãðàäèåíò_191-24" cx="394.98" cy="91.38" r="4.81" xlink:href="#Áåçûìÿííûé_ãðàäèåíò_191"/><radialGradient id="Áåçûìÿííûé_ãðàäèåíò_191-25" cx="438.12" cy="66.57" r="4.75" xlink:href="#Áåçûìÿííûé_ãðàäèåíò_191"/><radialGradient id="Áåçûìÿííûé_ãðàäèåíò_191-26" cx="438.12" cy="80.81" r="4.7" xlink:href="#Áåçûìÿííûé_ãðàäèåíò_191"/><radialGradient id="Áåçûìÿííûé_ãðàäèåíò_191-27" cx="414.91" cy="77.42" r="4.7" xlink:href="#Áåçûìÿííûé_ãðàäèåíò_191"/><radialGradient id="Áåçûìÿííûé_ãðàäèåíò_191-28" cx="426" cy="86.02" r="4.7" xlink:href="#Áåçûìÿííûé_ãðàäèåíò_191"/><radialGradient id="Áåçûìÿííûé_ãðàäèåíò_191-29" cx="426.79" cy="75.6" r="4.7" xlink:href="#Áåçûìÿííûé_ãðàäèåíò_191"/><radialGradient id="Áåçûìÿííûé_ãðàäèåíò_191-30" cx="385.41" cy="92.19" r="4.7" xlink:href="#Áåçûìÿííûé_ãðàäèåíò_191"/><radialGradient id="Áåçûìÿííûé_ãðàäèåíò_191-31" cx="238.55" cy="137.76" r="4.75" xlink:href="#Áåçûìÿííûé_ãðàäèåíò_191"/><radialGradient id="Áåçûìÿííûé_ãðàäèåíò_191-32" cx="249.84" cy="145.46" r="4.75" xlink:href="#Áåçûìÿííûé_ãðàäèåíò_191"/><radialGradient id="Áåçûìÿííûé_ãðàäèåíò_191-33" cx="270.31" cy="151.84" r="4.75" xlink:href="#Áåçûìÿííûé_ãðàäèåíò_191"/><radialGradient id="Áåçûìÿííûé_ãðàäèåíò_191-34" cx="236.14" cy="151.84" r="4.81" xlink:href="#Áåçûìÿííûé_ãðàäèåíò_191"/><radialGradient id="Áåçûìÿííûé_ãðàäèåíò_191-35" cx="281.63" cy="123.33" r="4.75" xlink:href="#Áåçûìÿííûé_ãðàäèåíò_191"/><radialGradient id="Áåçûìÿííûé_ãðàäèåíò_191-36" cx="285" cy="132.57" r="4.7" xlink:href="#Áåçûìÿííûé_ãðàäèåíò_191"/><radialGradient id="Áåçûìÿííûé_ãðàäèåíò_191-37" cx="253.22" cy="132.55" r="4.7" xlink:href="#Áåçûìÿííûé_ãðàäèåíò_191"/><radialGradient id="Áåçûìÿííûé_ãðàäèåíò_191-38" cx="273.15" cy="140.2" r="4.7" xlink:href="#Áåçûìÿííûé_ãðàäèåíò_191"/><radialGradient id="Áåçûìÿííûé_ãðàäèåíò_191-39" cx="261.83" cy="141.98" r="4.7" xlink:href="#Áåçûìÿííûé_ãðàäèåíò_191"/><radialGradient id="Áåçûìÿííûé_ãðàäèåíò_191-40" cx="223.72" cy="147.31" r="4.7" xlink:href="#Áåçûìÿííûé_ãðàäèåíò_191"/></defs><g class="cls-2"><g id="Layer_2" data-name="Layer 2"><g id="L5"><path class="cls-3" d="M501.5,134.89l-51.31,8.19-8.28-7.4c-132.54,1.24-262.86-1.16-373.68-11.29C-.23,118.14,0,125.67,0,125.67V305.6H924.57v-184C800.53,126,651.25,132.36,501.5,134.89Z"/><path class="cls-4" d="M924.49,246.18c-12.86-4.62,1.06-34.1-40.52-32.59l-60.19,14.09L116,219.38l16.7,40c-5.89-1-9.23-1.64-9.23-1.64C-5.93,252.73,0,305.6,0,305.6H924.57ZM343.42,284.39c-51-.17-133.46-12.27-181.59-20.1,72.52,3.62,271.22,12.57,395.7,9C488,277.19,396.18,284.57,343.42,284.39Zm286.73-13.32c-7.92-.23-17.88-.13-29.35.23q4.8-.33,9.29-.7c36.43-3,67.57-5.63,93.63-7.83C679.7,267.75,652.75,271.75,630.15,271.07Z"/><polygon class="cls-5" points="473.93 288.93 913.81 284.39 904.85 183.78 527.89 189.03 692.29 180.56 412.17 165.83 513.87 160.14 417.68 148.27 450.19 143.08 441.91 135.68 351.29 148.27 395.04 152.22 236.14 169.8 339.04 173.66 106.87 193.41 106.36 217.43 318.75 256.66 527.89 268.43 396.57 251.35 684.28 253.78 594.95 265.33 848.88 253.92 848.88 269.05 473.93 288.93"/><polygon class="cls-6" points="692.29 180.56 412.17 165.83 412.17 200.5 409.33 220.76 404.74 251.42 510.08 252.31 527.89 189.03 692.29 180.56"/><polygon class="cls-7" points="339.04 173.66 106.87 193.41 106.36 217.43 318.75 256.66 355.04 258.7 339.04 173.66"/><polygon class="cls-8" points="169.29 198.19 234.12 198.19 264.29 242.33 257.66 240.82 232.53 200.5 169.29 198.19"/><polygon class="cls-9" points="264.29 190.81 286.01 250.61 279.07 249.33 264.29 190.81"/><polygon class="cls-10" points="275.8 187.13 296.14 234.79 291.89 239.96 275.8 187.13"/><polygon class="cls-11" points="341.72 160.78 372.4 235.19 367.63 235.19 341.72 160.78"/><polygon class="cls-12" points="355.04 178.22 384.06 218.86 395.04 152.22 385.41 231.5 355.04 178.22"/><polygon class="cls-13" points="339.04 173.66 345.32 235.19 355.04 258.7 339.04 173.66"/><polygon class="cls-14" points="412.17 165.83 418.4 199.23 428.32 192.5 502.55 204.21 428.71 195.26 411.04 208.59 412.17 200.5 412.17 165.83"/><polygon class="cls-15" points="446.35 188.82 422.87 175.38 431.21 174.69 505.48 187.92 428.47 176.97 446.35 188.82"/><polygon class="cls-16" points="417.68 148.27 426 165.29 421.75 165.29 417.68 148.27"/><polygon class="cls-17" points="527.89 189.03 523.18 231.5 511.49 247.32 527.89 189.03"/><polygon class="cls-18" points="547.2 207.62 524.23 244.18 526.78 252.45 547.2 207.62"/><polygon class="cls-19" points="539.89 244.18 545.95 229.64 565.76 200.5 539.89 244.18"/><polygon class="cls-20" points="618.77 253.23 583.97 212.75 608.26 194.65 696.07 218.26 606.61 199.23 589.59 211.71 618.77 253.23"/><polygon class="cls-21" points="677.42 198.54 680.73 206.54 769.33 220.25 771.88 214.64 677.42 198.54"/><polygon class="cls-22" points="417.68 148.27 421.75 165.29 513.87 160.14 417.68 148.27"/><polygon class="cls-23" points="236.14 169.8 339.04 173.66 355.04 258.7 318.75 256.66 381.93 260.21 395.04 152.22 236.14 169.8"/><polygon class="cls-24" points="904.85 183.78 527.89 189.03 510.08 252.31 684.28 253.78 685.81 261.25 594.95 265.33 848.88 253.92 848.88 269.05 672.81 278.39 787.75 285.69 911.11 284.42 913.01 275.39 904.85 183.78"/><polygon class="cls-21" points="696.88 198.54 771.88 212.26 763.17 206.54 703.67 196.78 696.88 198.54"/><polygon class="cls-21" points="469.08 174.69 473.19 178.22 542.44 185.41 552.82 181.84 469.08 174.69"/><polygon class="cls-21" points="321.27 187.13 327.59 181.84 330.87 226.57 324.21 224.98 321.27 187.13"/><polygon class="cls-21" points="330.87 194.65 333.64 219.85 336.02 216.18 333.44 194.65 330.87 194.65"/><polygon class="cls-21" points="359.68 165.29 376.01 197.33 378.44 189.27 366.03 160.36 359.68 165.29"/><polygon class="cls-21" points="373.08 170.69 381.93 186.87 384.06 184.97 378.57 165.29 373.08 170.69"/><polygon class="cls-25" points="428.47 176.97 446.35 188.82 505.48 204.56 428.71 195.26 411.04 208.59 404.74 251.42 510.08 252.31 527.32 191.03 428.47 176.97"/><polygon class="cls-26" points="264.29 190.81 271.97 241.84 281.32 249.74 278.48 243.26 264.29 190.81"/><polygon class="cls-27" points="275.8 187.13 291.12 249.74 296.64 252.57 275.8 187.13"/><polygon class="cls-28" points="345.32 171.1 345.54 172.11 361.85 244.14 370.53 255.08 367.63 235.19 345.32 171.1"/><polygon class="cls-29" points="355.04 178.22 378.7 230.73 379.97 246.31 385.41 231.5 355.04 178.22"/><polygon class="cls-30" points="446.35 188.82 443.8 183.43 525.71 196.78 527.32 191.03 428.47 176.97 446.35 188.82"/><polygon class="cls-31" points="419.88 201.92 430.53 199.23 515.5 212.26 505.48 204.56 428.71 195.26 419.88 201.92"/><polygon class="cls-32" points="547.2 207.62 532.02 252.49 526.78 252.45 547.2 207.62"/><polygon class="cls-33" points="565.76 200.5 540.89 252.57 539.89 244.18 565.76 200.5"/><polygon class="cls-34" points="613.9 246.31 600.8 213.59 607.97 208.1 684.28 232.39 624.65 208.1 738.13 227.2 606.61 199.23 589.59 211.71 613.9 246.31"/><polygon class="cls-35" points="420.57 160.36 392.72 171.31 391.44 181.84 412.17 172.33 412.17 165.83 424.89 166.5 428.32 164.93 421.75 165.29 420.57 160.36"/><polygon class="cls-36" points="606.61 199.23 589.59 211.71 618.77 253.23 684.28 253.78 685.81 261.25 594.95 265.33 848.88 253.92 848.88 269.05 717.21 276.03 849.89 285.05 851.67 251.35 606.61 199.23"/><polygon class="cls-37" points="565.76 200.5 539.89 244.18 547.2 207.62 526.78 252.45 549.45 252.64 565.76 200.5"/><polygon class="cls-38" points="147.21 198.19 230.7 207.04 257.66 245.37 257.66 240.82 232.53 200.5 147.21 198.19"/><polygon class="cls-39" points="418.53 151.84 417.68 148.27 422.8 148.91 436.31 139.63 394.42 157.34 392.95 169.39 418.53 151.84"/><polygon class="cls-40" points="412.17 183.43 390.3 191.23 381.93 260.21 395.04 260.95 396.57 251.35 404.74 251.42 412.17 200.5 412.17 183.43"/><polygon class="cls-41" points="385.41 231.5 355.04 178.22 372.4 235.19 367.63 235.19 340.83 158.22 236.14 169.8 339.04 173.66 355.04 258.7 381.93 260.21 385.41 231.5"/><polygon class="cls-42" points="275.8 187.13 286.01 243.26 278.48 243.26 264.29 190.81 268.35 243.26 257.66 240.82 232.53 200.5 115.38 197.33 110.77 218.24 296.64 252.57 291.89 239.96 275.8 187.13"/><polygon class="cls-43" points="262.11 246.19 352.72 246.4 350.58 235.02 385.41 231.5 387.27 216.18 412.17 200.5 409.33 220.76 513.87 238.86 511.49 247.32 684.28 253.78 396.57 251.35 395.04 260.95 318.75 256.66 262.11 246.19"/><g class="cls-44"><path class="cls-1" d="M224.15,239.18s35.57,3.29,72-4.39,53.78-3.29,53.78-3.29L348.7,225s6.34-4.79,19.61-4.22,19.38-8,19.38-8l.94-10.82s4.26.05,11.38-3.38,12.16-3.45,12.16-3.45v5.41s13.68,9.7,29.68,8.62,33.17,2.82,49.09,8.37,27.78,4.1,27.78,4.1l-1.47,5.24s27.84,11.7,55.88,7.52,58.4,10.13,79.13,8.76,55.79-3.55,73.49,3.2,69.82,2.43,69.82,2.43l2.3,7.47-112.06,5-1.53-7.47-287.71-2.43L395,261l-76.29-4.29Z"/><g class="cls-45"><path class="cls-46" d="M326.45,240.49c27.58,3.44,7.89,10.47-6.06,12.36-5.24.7-11.88-.43-20.24-2.13a14,14,0,0,0,5,1.86c15.23,2.93,34.75,1.21,47.11,2.63,8.62,1,15.84,6.73,19.43,10.13,1.39-.54,3.16-1.09,4.19-1.61,2.86-1.41,31.74-.84,28.24,2.77-1.53,1.59-20.31,2.33-30,1.35L405,271.32c-6.38-2.33,4.3-5.64,11.4-6.08,8.73-.54,11.85,1.06,18.25,3.06,6.15,1.91-2.58,6-19.34,4.69l12.14,2.74c1.67-1.74,8.12-3.36,12.94-3.65,8.73-.55,11.85,1.06,18.25,3.05,3.39,1.06,2.25,2.77-2.26,3.87l53.34-5.79A129.26,129.26,0,0,1,496,272.8c-9.68-1-1.11-2.7,1.74-4.12s31.74-.85,28.25,2.77l27.47-4.36c-8.74-.3-6.92-2.79-17.41-7.24-12.77-5.42-.46-6.49,18-5.71,9.91.41,13.52-1.37,19.12-.18l3.48-2.14a78.35,78.35,0,0,1-9.57,1.93c-8.36,1.13-20.3-2.45-37.12-5.51-15.13-2.76,9.57-8.87,34.75-7.58l-6-1.7c-4.74.46-12.63.49-22.34,1.29s-22.9-3.8-21.94-5.33c.48-.78,11.36-1.87,22.68-2.15l-2.89-.82-.31,0c-9.36.37-20.31-.2-34.28,2.12s-24.27-2.6-20-4.89c2.59-1.39,13.68-4.37,26.07-5.42,0,0-17.66-.36-50.07.4,1.71.13,3.41.3,5.09.51,27.57,3.44,7.89,10.47-6.07,12.36-8.36,1.13-20.31-2.45-37.13-5.51-9.44-1.72-3.36-4.75,8.66-6.47q-11.17.41-23.76,1c6.17,2,11.6,5,5.91,6.58-9.55,2.66-10.56,0-21.24-2.91-2.38-.64-2.52-1.75-1.59-2.84l-10.54.57c-39,2.2-60.12,7.23-70,12.25A132.47,132.47,0,0,1,326.45,240.49ZM339.34,253c-9.68-1-1.12-2.7,1.74-4.12s31.74-.84,28.25,2.77C367.79,253.22,349,254,339.34,253Zm44.46,9.4c-7.08.36-34.12-6.92-15.26-9.67s17.11.16,30.81,3.4C406.4,257.78,390.87,262,383.8,262.38Zm11-12.13c4.29-2.3,31.74-8.95,50-4,8.74,2.36,13.64,6.41,4.28,6.78s-20.31-.2-34.27,2.13S390.53,252.54,394.81,250.25Zm28.72,13.81c-5.39,1.75-32,.74-23.16-4.33s58.36-9.2,65.69-3.17c2.56,2.11-1.91,4.93-14,4.86S428.93,262.3,423.53,264.06Zm39.36-18.24c20.31-2.23,16.88.61,28.59,4.19,6,1.84-11.85,5.64-19.07,5.81S442.57,248.05,462.89,245.82Zm11.42,28.12c-15.55,1.91-14-.83-34-5.16s-9.84-6.14,8.89-6.61,32.65.18,40.3,4.38C494.59,269.33,489.86,272,474.31,273.94Zm36.81-6.71c-8.36,1.13-20.31-2.45-37.13-5.51s15.62-10.29,43.2-6.85S525.08,265.34,511.12,267.23Zm18.41-15.6c-1.54,1.59-20.31,2.33-30,1.35s-1.11-2.7,1.75-4.12S533,248,529.53,251.63Zm-39.45-16.27c18.7.52,31.44,1.89,34,6.36,1.7,3-6,5.32-23.27,6.37s-12.58-1.54-27-6.77S471.38,234.85,490.08,235.36Zm-38.89,2.48c8.73-.54,11.85,1.06,18.25,3s-3.65,6.47-22.38,4.42S442.46,238.38,451.19,237.84Zm-44.39-3.27c18.86-2.75,17.12.15,30.81,3.4,7.05,1.67-8.48,5.91-15.55,6.26S387.94,237.31,406.8,234.57Zm-20.88,16.2c-8.36,1.14-20.3-2.44-37.12-5.51S364.41,235,392,238.41,399.88,248.88,385.92,250.77Zm-60.77-15.55c8.89-5.06,58.37-9.21,65.7-3.17,2.56,2.11-1.91,4.93-14,4.86s-23.17.88-28.56,2.63S316.27,240.29,325.15,235.22Z"/><path class="cls-47" d="M527.67,226.14c-16.77-2.09-4.8-6.36,3.69-7.51,3.18-.44,7.22.26,12.3,1.29a8.59,8.59,0,0,0-3-1.13c-9.26-1.79-21.13-.74-28.64-1.6-5.24-.6-9.63-4.09-11.82-6.16-.84.33-1.92.66-2.54,1-1.74.86-19.3.51-17.18-1.69.94-1,12.35-1.41,18.24-.82l-18.78-2.11c3.88,1.42-2.61,3.43-6.93,3.7-5.31.33-7.21-.65-11.1-1.86s1.57-3.63,11.76-2.85l-7.38-1.67c-1,1.06-4.94,2-7.87,2.22-5.31.33-7.2-.64-11.09-1.85-2.07-.65-1.37-1.69,1.37-2.36l-32.43,3.52a76.71,76.71,0,0,1,8.35.26c5.89.59.68,1.64-1.06,2.5s-19.29.51-17.17-1.68L389.66,210c5.32.19,4.21,1.7,10.59,4.41,7.76,3.29.28,3.94-11,3.47-6-.25-8.22.83-11.63.11l-2.11,1.3a45.63,45.63,0,0,1,5.81-1.17c5.09-.69,12.35,1.49,22.58,3.35,9.19,1.67-5.82,5.39-21.13,4.6l3.61,1c2.88-.28,7.68-.3,13.59-.78s13.92,2.3,13.34,3.24c-.3.47-6.91,1.13-13.79,1.3l1.75.5h.19c5.7-.23,12.35.12,20.84-1.29s14.76,1.58,12.16,3c-1.58.85-8.32,2.66-15.85,3.3,0,0,10.74.22,30.44-.24-1-.08-2.07-.19-3.09-.31-16.77-2.1-4.8-6.37,3.69-7.52,5.08-.69,12.35,1.49,22.57,3.35,5.74,1,2.05,2.89-5.26,3.94q6.79-.26,14.45-.6c-3.76-1.25-7.06-3-3.6-4,5.81-1.62,6.42,0,12.92,1.77,1.44.39,1.53,1.06,1,1.72,2.1-.11,4.23-.22,6.41-.35,23.7-1.33,36.55-4.39,42.56-7.44A80.75,80.75,0,0,1,527.67,226.14Zm-7.83-7.6c5.88.6.67,1.65-1.06,2.51s-19.3.51-17.18-1.69C502.54,218.4,514,218,519.84,218.54Zm-27-5.71c4.3-.22,20.74,4.21,9.27,5.88s-10.4-.1-18.73-2.07C479.06,215.62,488.51,213.05,492.81,212.83Zm-6.7,7.38c-2.61,1.39-19.3,5.44-30.39,2.44-5.32-1.44-8.3-3.9-2.61-4.13s12.35.13,20.84-1.29S488.71,218.81,486.11,220.21Zm-17.47-8.4c3.28-1.07,19.49-.45,14.09,2.63s-35.49,5.6-39.94,1.93c-1.56-1.28,1.16-3,8.49-3S465.36,212.88,468.64,211.81ZM444.72,222.9c-12.35,1.35-10.27-.37-17.39-2.55-3.66-1.12,7.2-3.43,11.6-3.53S457.07,221.54,444.72,222.9Zm-7-17.1c9.46-1.16,8.49.51,20.65,3.14s6,3.73-5.41,4-19.85-.11-24.5-2.67C425.44,208.6,428.32,207,437.77,205.8Zm-22.38,4.08c5.08-.69,12.35,1.49,22.57,3.35s-9.49,6.26-26.26,4.16S406.9,211,415.39,209.88Zm-11.19,9.48c.93-1,12.35-1.41,18.23-.82s.68,1.65-1.06,2.51S402.07,221.56,404.2,219.36Zm24,9.9c-11.37-.32-19.12-1.15-20.68-3.87-1-1.8,3.65-3.24,14.15-3.87s7.65.93,16.41,4.12S439.55,229.57,428.18,229.26Zm23.65-1.51c-5.31.33-7.21-.65-11.1-1.86s2.22-3.93,13.61-2.68S457.14,227.42,451.83,227.75Zm27,2c-11.47,1.67-10.41-.1-18.74-2.07-4.28-1,5.16-3.59,9.46-3.81S490.28,228.07,478.82,229.74Zm12.69-9.85c5.09-.69,12.35,1.48,22.58,3.35s-9.5,6.25-26.27,4.16S483,221,491.51,219.89Zm37,9.45c-5.4,3.08-35.49,5.6-39.94,1.93-1.56-1.28,1.16-3,8.49-3s14.09-.54,17.37-1.61S533.86,226.26,528.46,229.34Z"/><path class="cls-48" d="M475.25,206.86c-9.45-1.18-2.71-3.59,2.08-4.24a22.79,22.79,0,0,1,6.93.73,5,5,0,0,0-1.7-.64c-5.22-1-11.91-.41-16.15-.9a12.52,12.52,0,0,1-6.66-3.47c-.47.19-1.08.37-1.43.55-1,.49-10.88.29-9.68-.95.52-.54,7-.8,10.28-.46l-10.59-1.19c2.19.8-1.47,1.93-3.91,2.08-3,.19-4.06-.36-6.25-1s.88-2.05,6.63-1.61l-4.16-.94c-.58.59-2.79,1.15-4.44,1.25-3,.19-4.06-.36-6.25-1.05-1.17-.36-.78-.94.77-1.32l-18.28,2a42.86,42.86,0,0,1,4.71.14c3.32.34.38.93-.6,1.42s-10.88.29-9.68-.95l-9.42,1.49c3,.1,2.38,1,6,2.48,4.38,1.86.16,2.23-6.18,2-3.4-.14-4.63.47-6.55.06l-1.2.73a29.3,29.3,0,0,1,3.28-.66c2.87-.39,7,.84,12.73,1.89,5.18,1-3.28,3-11.91,2.6l2,.58c1.62-.16,4.33-.17,7.65-.44s7.85,1.3,7.52,1.83c-.16.26-3.89.64-7.77.73l1,.29h.11a80,80,0,0,0,11.74-.73c4.79-.8,8.33.89,6.86,1.68a32.47,32.47,0,0,1-8.94,1.85s6.06.13,17.16-.13q-.87-.07-1.74-.18c-9.45-1.18-2.7-3.59,2.08-4.23,2.87-.39,7,.84,12.72,1.89,3.24.59,1.16,1.62-3,2.21,2.55-.09,5.27-.2,8.14-.33-2.11-.71-4-1.72-2-2.26,3.27-.91,3.61,0,7.28,1,.81.22.86.6.54,1l3.61-.2c13.36-.75,20.61-2.47,24-4.19A46.65,46.65,0,0,1,475.25,206.86Zm-4.42-4.28c3.32.33.38.92-.6,1.41s-10.87.29-9.68-1C461.08,202.49,467.52,202.24,470.83,202.58Zm-15.24-3.22c2.43-.13,11.7,2.37,5.23,3.31s-5.86-.06-10.56-1.17C447.85,200.93,453.17,199.48,455.59,199.36Zm-3.77,4.15c-1.47.79-10.88,3.07-17.13,1.38-3-.81-4.68-2.2-1.47-2.33a78.82,78.82,0,0,0,11.75-.73C449.75,201,453.29,202.73,451.82,203.51ZM442,198.78c1.85-.6,11-.25,7.95,1.48s-20,3.16-22.52,1.09c-.88-.72.65-1.69,4.79-1.67A37.47,37.47,0,0,0,442,198.78ZM428.49,205c-7,.76-5.79-.21-9.8-1.44-2.07-.63,4.06-1.93,6.53-2S435.45,204.27,428.49,205Zm-3.92-9.64c5.33-.65,4.79.29,11.64,1.77s3.37,2.11-3,2.27-11.19-.07-13.81-1.51C417.62,197,419.24,196.05,424.57,195.39ZM412,197.69c2.86-.39,7,.84,12.72,1.89s-5.35,3.53-14.8,2.35S407.17,198.34,412,197.69ZM405.64,203c.53-.55,7-.8,10.28-.46s.38.92-.59,1.41S404.45,204.28,405.64,203Zm13.53,5.57c-6.41-.17-10.78-.64-11.66-2.18-.58-1,2.05-1.82,8-2.18s4.31.53,9.24,2.32S425.57,208.79,419.17,208.61Zm13.33-.84c-3,.18-4.07-.37-6.26-1.05s1.25-2.22,7.67-1.51S435.49,207.58,432.5,207.77Zm15.21,1.12c-6.47.94-5.87-.06-10.56-1.17-2.42-.57,2.91-2,5.33-2.15S454.17,208,447.71,208.89Zm7.16-5.56c2.86-.39,7,.84,12.72,1.89s-5.35,3.53-14.8,2.35S450.08,204,454.87,203.33Zm20.82,5.33c-3,1.74-20,3.16-22.51,1.09-.88-.72.65-1.69,4.78-1.67a37.55,37.55,0,0,0,9.79-.9C469.6,206.58,478.74,206.93,475.69,208.66Z"/></g></g><path class="cls-49" d="M894,188.82V172.65l8.85-40.85,1.31-38.89S887.77,66.77,807,62.51,659.91,23.25,535.21,3.22s-428.85,60-428.85,60V217.43l212.39,39.23,209.14,11.77L396.57,251.35l287.71,2.43L595,265.33l253.93-11.41v15.13l-63.54,3.37,64.56,12.63,63.91-.66Z"/><polygon class="cls-50" points="904.85 183.78 527.89 189.03 510.08 252.31 684.28 253.78 685.81 261.25 594.95 265.33 848.88 253.92 848.88 269.05 672.81 278.39 787.75 285.69 911.11 284.42 913.01 275.39 904.85 183.78"/><polygon class="cls-51" points="904.85 183.78 527.89 189.03 692.29 180.56 412.17 165.83 412.17 200.5 409.33 220.76 404.74 251.42 510.08 252.31 684.28 253.78 685.81 261.25 594.95 265.33 848.88 253.92 848.88 269.05 672.81 278.39 787.75 285.69 911.11 284.42 913.01 275.39 904.85 183.78"/><polygon class="cls-52" points="236.14 169.8 339.04 173.66 106.87 193.41 106.36 217.43 318.75 256.66 381.93 260.21 395.04 152.22 236.14 169.8"/><polygon class="cls-53" points="527.89 268.43 395.04 260.95 396.57 251.35 527.89 268.43"/><polygon class="cls-54" points="684.28 253.78 594.95 265.33 685.81 261.25 684.28 253.78"/><polygon class="cls-55" points="339.04 173.66 106.87 193.41 106.36 217.43 318.75 256.66 355.04 258.7 339.04 173.66"/><polygon class="cls-56" points="417.68 148.27 421.75 165.29 513.87 160.14 417.68 148.27"/><path class="cls-57" d="M365.06,93.17c-2.81,1.81-5.62,3.63-8.44,5.42a9.26,9.26,0,0,1-1.45.61c0-.55-.05-1.11,0-1.67a1.81,1.81,0,0,0-.07-1c-1.85,1.4-3.69,2.82-5.55,4.2a4.61,4.61,0,0,1-1.07.43,3.5,3.5,0,0,1,.13-1.14c4-7.6,10.6-12.35,18.11-16a12.47,12.47,0,0,1,5.7-1.33c2.88,0,5.76-.14,8.64-.24s5.12-1.45,7.45-2.68a147.17,147.17,0,0,1,14.75-7,45.75,45.75,0,0,1,9.51-2.35c-1.29-.27-2.6-.5-3.88-.81-.32-.07-.58-.39-.87-.6.3-.18.59-.5.9-.52,2.18-.16,4.37-.26,6.63-.39a3.28,3.28,0,0,1-.48-.43c-.17-.22-.47-.59-.4-.7a1.07,1.07,0,0,1,.76-.49,10.68,10.68,0,0,1,2.66.39c2.93,1,5.82,2,8.85,3.12L428,68.77c-1-.74-1.92-1.46-2.88-2.16-1.87-1.37-3.82-2.64-5.6-4.12a18.85,18.85,0,0,1-2.76-3.2,3.74,3.74,0,0,1-.36-1.39,4.85,4.85,0,0,1,1.42,0c4.76,1.27,9.52,2.59,14.28,3.89.25.07.5.09,1.05.19-.39-.53-.66-.87-.89-1.24-1.24-2-2.5-4-3.67-6.05a4.33,4.33,0,0,1-.19-1.64,6.14,6.14,0,0,1,1.68.22,46.63,46.63,0,0,1,10.86,6.63c2,1.61,4,3.19,5.94,4.92a13.84,13.84,0,0,1,2.35,3,3,3,0,0,0,2.53,1.75c3,.21,4.25-.18,7.21.45,1.19.25,3-.05,3.52,1.43.46,1.28-.73,2.15-1.57,2.87a4.93,4.93,0,0,1-2.62,1.17c-2.88.36-4,1-6.85,1.28a9.11,9.11,0,0,0-5.06,2c-.88.75-2,1.21-2.85,2a20.12,20.12,0,0,0-2.1,2.64c-.76,1-1.45,2-2.29,2.89a35.78,35.78,0,0,1-2.7,2.35l.1.36a5.17,5.17,0,0,0,1.49-.15c1.86-.79,3.7-1.61,5.51-2.49,2.63-1.27,5.24-2.59,7.84-3.9a2.59,2.59,0,0,1,3.27.51c2.2,2.06,4.5,4,6.69,6a1.49,1.49,0,0,1,.28,1.4,1.86,1.86,0,0,1-2.31.93,5.86,5.86,0,0,1-1.53-.93c-1.42-1.13-2.82-2.3-4.2-3.47a2.91,2.91,0,0,0-3.4-.27c-1.6,1-3.2,2-4.81,3.14,2-.89,3,.36,3.73,1.78s1.4,3.13,2.19,4.65a6.21,6.21,0,0,0,1.52,2,2.8,2.8,0,0,1,1,3.12c-.12.47-.94.89-1.53,1.07a1.67,1.67,0,0,1-2.24-.7c-.62-1.22-1.23-2.45-1.8-3.7A4.16,4.16,0,0,0,442.77,96c-3.8,1.59-7.46,3.51-11.21,5.22-2.3,1-4.67,1.93-7,2.92-1.16.49-1.7,0-2.17-1-1.37-3-2.83-6-4.28-9-.53.15-.94.25-1.34.38a4,4,0,0,1-4.19-.87,14.19,14.19,0,0,1-1.15-1c-1.95-2.2-4.57-2.77-7.31-3-.3,0-.71.35-.91.64-1,1.52-2.1,3.05-3,4.63a7.56,7.56,0,0,1-5.26,3.81c-3.12.56-4.91,2.47-6.22,5.19a30.56,30.56,0,0,1-2.63,3.83c-.64,3.06-4.67,7.27-6.29,2.93.95-1.76,1.76-3.25,2.55-4.76,1.35-2.57,2.91-5,5.56-6.4.52-.27,1.09-.43,1.61-.69a9.41,9.41,0,0,0,5.33-6.86c-1.67,1.48-3.14,2.73-4.53,4a6.22,6.22,0,0,1-3.93,1.7,7.48,7.48,0,0,0-4.51,2l-6.93,6.17a3.54,3.54,0,0,0-1.25,2.11c-.18,1.48-4,4.48-5.64,4.74-1.07.17-1.37-.27-.93-1.26a11.21,11.21,0,0,1,1.1-1.89c3.09-4.33,6.18-8.68,9.35-13,.45-.61,1.37-.85,2-1.31s1.57-.82,1.91-1.46c.8-1.55,1.33-3.23,2-5a4.36,4.36,0,0,0-1.37-.13,20.11,20.11,0,0,1-6.64.51,4.84,4.84,0,0,0-4.74,2.09c-1,1.2-1.94,2.38-3,3.52a4,4,0,0,1-1.21,1.11,6,6,0,0,1-1.42.27,7.59,7.59,0,0,1-.19-1.4,5.5,5.5,0,0,1,.32-1.22Zm60.71,2.57c0,.13.07.27.11.41l5.33-.92a13,13,0,0,0-2.33-1.29c-2.47-1.18-2.7-1-3.15,1.68A.56.56,0,0,0,425.77,95.74Z"/><path class="cls-58" d="M757.64,151.39c-2.23,4.6-4.4,8.84-6.36,13.17a45.11,45.11,0,0,0-2.23,6.55c-.47,1.69.63,2.86,2.34,3.18a4.57,4.57,0,0,1,2.27,1.42c.68.75,0,1.47-.72,1.57-2.15.31-4.33.48-6.5.6-.28,0-.77-.6-.85-1-.4-2.1-.76-4.21-1-6.34a4.06,4.06,0,0,1,.4-1.91c1.76-4.29,3.56-8.56,5.35-12.84.11-.27.2-.57.28-.81-.6,0-1.25.18-1.67-.05s-.39-.88-.67-1.62c-6.52,2.14-11.35-2.2-16.89-5l.82,3a5.57,5.57,0,0,1-2.35,6.66c-1,.73-2.06,1.42-3.12,2.07s-2.17,1.23-3.39,1.92c.63.85,1.3,1.66,1.87,2.53,1.6,2.42,3.19,4.84,4.7,7.31a4.61,4.61,0,0,1,.66,2.26,1.76,1.76,0,0,1-.93,1.28,1.57,1.57,0,0,1-1.37-.39c-3.61-3.82-7.39-7.51-9.54-12.47-.66-1.53-.68-2.06.63-3.1,1.61-1.27,3.29-2.45,4.86-3.77s1.53-1.93.18-3.43c-.63-.7-1.29-1.35-2.08-2.18-.87,1.22-1.64,2.29-2.39,3.36-1,1.39-1.85,2.86-2.94,4.15a18.27,18.27,0,0,1-2.61,2.16c-.34.27-.85.46-1,.81-1.61,3.71-3.17,7.44-4.79,11.27,1.68-.43,2.75.48,3.53,1.86.52.93.14,1.58-.94,1.61-2.36.06-4.72.11-7.08.11-1.09,0-1.35-.7-1.12-1.65.67-2.82,1.37-5.63,2-8.45.51-2.22,1-4.44,1.42-6.67a2,2,0,0,1,2.19-1.88,4.9,4.9,0,0,0,.54,0c3.39-.44,4-1.18,3.83-4.6-.08-1.42-.2-2.85-.31-4.47-.88.53-1.68,1-2.5,1.49a30.34,30.34,0,0,0-10,8.29c-1,1.32-1.56,1.17-2.1-.41l-5.6,3.13a5.75,5.75,0,0,1-1.21.56,1.22,1.22,0,0,1-1-.12,1.13,1.13,0,0,1,0-1,11.06,11.06,0,0,1,.86-1.43l-.25-.29-7.66,5.48a10,10,0,0,1-1,.83,6.12,6.12,0,0,1-1.28.39,3.52,3.52,0,0,1,.1-1.43,19.08,19.08,0,0,1,2-3.12c1.35-1.59,2.82-3.07,4.43-4.8-1.1.46-2,.89-2.94,1.19a4,4,0,0,1-1.34,0c.16-.45.18-1,.49-1.33a26.87,26.87,0,0,1,11.16-6.63c.21-.06.43-.11.64-.19a1.05,1.05,0,0,0,.26-.2,19.51,19.51,0,0,1-2.53-1,1.41,1.41,0,0,1-.66-1.11,1.39,1.39,0,0,1,1.05-.76c1.69,0,3.39,0,5.08.13a20.15,20.15,0,0,0,12.23-3,72.8,72.8,0,0,1,12.56-6.47c5.33-1.92,10.48-4.51,16.21-5.28,2.87-.38,5.72-.93,8.57-1.41a8.22,8.22,0,0,0,1-.33,20.62,20.62,0,0,1-1.27-1.67,5.54,5.54,0,0,1-.43-1.16,5,5,0,0,1,1.34-.27,8.55,8.55,0,0,1,1.47.34c-.31-.69-1.11-1.63-.91-2.24.39-1.14,1.69-.7,2.6-.56,1.93.3,3.84.76,5.77,1.15a3.46,3.46,0,0,0,1.57,0,8.2,8.2,0,0,1-1.34-1.12,6.43,6.43,0,0,1-.68-1.45,13.79,13.79,0,0,1,1.52-.55,4,4,0,0,0,1.09-.16l-2.32-1.69c-1.58-1.17-3.18-2.3-4.72-3.52a7.07,7.07,0,0,1-1.85-1.89,2.62,2.62,0,0,1-.24-2.1c.18-.41,1.21-.7,1.81-.62,3.31.46,6.6,1,9.89,1.59l.41.06c0-2-.1-3.94,0-5.87s.67-2,2.21-1a37.25,37.25,0,0,1,8.57,7.61,2.73,2.73,0,0,0,1.26.67,7.18,7.18,0,0,1,4.74,4.55,1.53,1.53,0,0,0,1,.85c2.42.43,4.85.71,7.26,1.16.81.15,2.06.5,2.21,1,.2.69-.36,1.7-.8,2.46a4.62,4.62,0,0,1-3.28,2.08c-3,.69-6,1.47-9.08,2.24a3.47,3.47,0,0,0-3,2.95c-.34,2.11-1,4.17-1.35,6.27a7.81,7.81,0,0,1-4.63,6.13,2.52,2.52,0,0,0-1.63,2.81c.11,2.49,0,5,.06,7.49a4,4,0,0,0,.56,1.87,123.23,123.23,0,0,0,12.55,16.65,2.87,2.87,0,0,0,1.65.58,2.74,2.74,0,0,1,1.72,4,1.3,1.3,0,0,1-.9.44,21.29,21.29,0,0,1-4.52-.09,3.91,3.91,0,0,1-2.37-1.66,33,33,0,0,0-4.09-5.36,81.25,81.25,0,0,1-6.69-8.83c-1.76-2.57-3.26-5.33-4.9-8C759,153.21,758.44,152.49,757.64,151.39Z"/><path class="cls-59" d="M513.74,144.72a.72.72,0,0,1-.42.2,2.07,2.07,0,0,1-1.25-.25,1.21,1.21,0,0,1,0-1.14,18.32,18.32,0,0,1,2.39-3.24,26.53,26.53,0,0,0,6.59-10.48c2.1-6.24,6.34-10.53,11.73-13.91.5-.32,1-.61,1.59-.93-1.72-1.45-3.22-3.28-5.14-4.16s-4.51-1.06-6.81-1.41c-1.84-.28-3.74-.21-5.56-.56s-3-1.93-4-3.44c-.49-.74.11-1.2.92-1.45,3.44-1,6.86-2.13,10.28-3.21a1.68,1.68,0,0,0,1.32-1.55A6,6,0,0,1,527.79,95a1.45,1.45,0,0,0,.62-1.75,42.39,42.39,0,0,1-1.28-13,5.33,5.33,0,0,1,.46-1.38c.46.26,1.09.39,1.35.78,2.37,3.57,4.69,7.18,7,10.79a4.64,4.64,0,0,0,.88,1.18c-.15-2.52-.33-5-.45-7.56-.09-1.91-.16-3.82-.12-5.72a5.38,5.38,0,0,1,.67-1.7c.51.39,1.25.66,1.5,1.18,1.47,3,3,6.08,4.17,9.22a91.74,91.74,0,0,1,2.78,8.8,6.17,6.17,0,0,1,.12,3.32c-.58,1.81.59,3.08,1,4.57,0,.21.72.31,1.11.36l9.14,1.12a1.86,1.86,0,0,1,.75.21,7.68,7.68,0,0,1,.82.69c-.3.22-.57.55-.89.62-1.56.34-3.13.61-5.08,1,1.08.66,1.88,1.11,2.63,1.62a20.3,20.3,0,0,1,1.95,1.51c.76.68,1.17,1.45.11,2.26,1.36,2.69,2.72,5.3,4,8a6.1,6.1,0,0,1,.26,1.79c-.58-.14-1.16-.28-1.73-.44a3.34,3.34,0,0,1-.63-.36c.09.68.11,1.21.22,1.71a12,12,0,0,1-.51,6.78c-1.24,3.6-2.51,7.2-3.63,10.84a16.64,16.64,0,0,0-.76,4.59c0,4,.12,8.07.13,12.11,0,2.38-.07,4.77-.21,7.14a2.1,2.1,0,0,1-.79,1.5c-1.79,1.08-3.82,1.15-5.91,1.25,0-1.28,0-2.3,1.22-2.94a1.74,1.74,0,0,0,.62-1.3c.09-6.42.13-12.84.21-19.26,0-1-.39-1.44-1.59-1.66-.24,1.13-.51,2.24-.7,3.36q-1.5,9-3,18.09a1.6,1.6,0,0,1-1.49,1.53c-2,.22-4.08.47-6.5.75a14.6,14.6,0,0,1,1.31-2.86c.36-.45,1.19-.51,1.76-.82s1.12-.53,1.18-.89a44.7,44.7,0,0,0-.21-17.7,11.62,11.62,0,0,0-.59-1.52c-1.57,3.89-4.71,7-3.29,11.51a38.69,38.69,0,0,1,1.08,4.62c.06.37-.31.84-.56,1.22-.08.11-.41.08-.62.08-2.35,0-3.44.65-3.07-2.95a23.1,23.1,0,0,0,0-5.19,11.64,11.64,0,0,1,1.53-7.39c2.15-3.67.88-6.91-1-10.13-.2-.35-.65-.55-1-.82l-.27.19c.2,1.05.36,2.11.62,3.14a9.17,9.17,0,0,1-.24,4.87c-1.12,3.81-2.48,7.58-2.51,11.65,0,1.53,0,2.94,1.22,4.18,1,1,.65,1.73-.7,2.13-3.11.94-3.19.91-3.44-2.3a51.71,51.71,0,0,1-.32-7.14,43.21,43.21,0,0,1,1.29-7.65,8.38,8.38,0,0,0-.34-5.2,40.44,40.44,0,0,0-2.49-5.41,7.58,7.58,0,0,0,0,1.72,17,17,0,0,1-.36,7.73c-.31,1.38-.78,1.51-1.76.87L518.76,152a5.53,5.53,0,0,1-.82,1.32,4.2,4.2,0,0,1-1.15.61c-.18-.41-.53-.83-.49-1.22.13-1.59.38-3.17.64-5.14-1.14,1.77-2.06,3.26-3.06,4.71a4.55,4.55,0,0,1-1.13.86c-.17-.44-.56-.92-.49-1.31C512.7,149.44,513.24,147.06,513.74,144.72Z"/><path class="cls-60" d="M283.62,139l-6.38,7.64a11.62,11.62,0,0,0,1,1c3.19,2.89,6.39,5.78,9.61,8.63,2.93,2.59,3,3,1,6.32-.58.92-1.2,1.81-1.78,2.74a4.19,4.19,0,0,1-4.93,1.86,1.47,1.47,0,0,1-.66-1.3c.58-1.44,1.05-2.95,2.72-3.69a2.07,2.07,0,0,0,.36-3.45c-3.64-2.8-7.32-5.55-11-8.32l-.44.21a8.13,8.13,0,0,0,0,1.78c.4,1.68.8,3.37,1.35,5,1.7,5.06,3.47,10.09,5.2,15.09.61,0,1,0,1.39,0a3.41,3.41,0,0,1,3.65,3.06c0,.41-.64,1.27-1,1.28a44.37,44.37,0,0,1-6.21-.27c-.46-.06-.94-.94-1.2-1.53-2-4.77-4-9.57-6.06-14.35-.61-1.46-1.29-2.89-1.91-4.34-.44-1-1.44-2-.57-3.27.1-.15-.1-.56-.25-.8a11.42,11.42,0,0,0-.88-1.19c-.76-.92-1.37-2.25-2.34-2.6s-2.12.45-3.19.78-1.51.08-1.88-1c-.82-2.3-1.92-2.81-4.23-2.15-1,.3-2,.72-3.24,1.15,1,3,1.88,5.91,3,8.75a2.86,2.86,0,0,1-.66,3.48c-.25.24-.47.51-.7.77-2.75,2.93-2.53,2.38-.25,5.39.59.79,1.32,1.47,2,2.22A4.22,4.22,0,0,0,259,169.4a4.69,4.69,0,0,1,2.93.95c1,.72.67,1.71-.57,2a7.75,7.75,0,0,1-2.21.14c-1.63-.09-3.26-.19-4.87-.43a4.16,4.16,0,0,1-2.14-.9c-2.74-2.56-5.41-5.2-8.08-7.85-.88-.87-.77-1.51.46-2.11a29.77,29.77,0,0,0,4-2.48,1.6,1.6,0,0,0,.42-2.45l-4.3-6.12c-.9,1.15-1.61,2-2.28,2.92-1.19,1.59-2.41,3.15-3.52,4.79a7.22,7.22,0,0,1-5.69,3.53,4.28,4.28,0,0,0-2.45,1.18c-2.81,2.85-5.51,5.82-8.15,8.63.56,1.08,1,2,1.49,2.86s.09,1.33-.78,1.53c-1.82.44-3.64.92-5.48,1.31-1,.21-1.42-.25-1.06-1.27a5.85,5.85,0,0,1,.33-.82c2.34-4.52,4.67-9.06,7-13.56a8.35,8.35,0,0,1,1.58-1.94,1.59,1.59,0,0,1,1.16-.38c2.25.32,3.65-.29,4.14-2.46.69-3,1-6.13,1.48-9.2.21-1.42.44-2.84.52-4.27a1.81,1.81,0,0,0-.67-1.35,1.09,1.09,0,0,0-1.75.31c-1.08,1.72-2.19,3.42-3.36,5.07-1.43,2-2.89,4-4.42,6a7.09,7.09,0,0,1-1.61,1.15l-1.08-1.67c-.55.46-1.18,1-1.83,1.53-.31.25-.69.67-1,.63-1.62-.24-2,1.16-2.9,2-1.59,1.43-3.26,2.78-4.9,4.16l-.44-.32a7.84,7.84,0,0,1,.19-1.18c3.2-10.34,9.75-18.23,18.28-24.57a18.55,18.55,0,0,1,6.17-2.79c6.54-1.74,13.14-3.24,19.68-4.82,0,0-.12-.21-.41-.68l9.65-2.39-10.12-1.5c0-.16,0-.32,0-.48h11.72l.12-.39-8.18-2.93c6.09.37,11.69,2.45,17.16,4.84a86.32,86.32,0,0,1,14.48-13.23,43.65,43.65,0,0,1,4.29-2.64,5.43,5.43,0,0,1,1.64-.33A5.26,5.26,0,0,1,294,109c-.67,3-1.42,6-2.15,8.93-.15.6-.31,1.19-.57,2.19l1.61-.88c3.4-1.81,6.8-3.64,10.23-5.41a4.85,4.85,0,0,1,1.6-.2,4.26,4.26,0,0,1-.36,1.65c-2.63,3.53-5.24,7.07-8,10.48-1.66,2-1.34,3.65,1.2,4.29,2.2.56,4.46.92,6.65,1.49,2.56.67,2.64,1.25.95,3.21a6.29,6.29,0,0,1-5.46,2.34c-3.66-.19-7.32-.15-11-.36a2.59,2.59,0,0,0-3.08,2.22,2.6,2.6,0,0,1-.28.84,10,10,0,0,1-.77,1l-.59-1.06C283.86,139.54,283.8,139.36,283.62,139Z"/><circle class="cls-61" cx="257.74" cy="135.68" r="48.51"/><circle class="cls-62" cx="417.68" cy="86.02" r="48.51" transform="translate(-2.06 161.37) rotate(-21.81)"/><circle class="cls-63" cx="539.89" cy="127.45" r="48.51"/><circle class="cls-64" cx="747.57" cy="140.22" r="48.51"/><ellipse class="cls-65" cx="738.28" cy="179.23" rx="84.23" ry="8.48"/><ellipse class="cls-66" cx="541.13" cy="163.11" rx="38.76" ry="8.48"/><ellipse class="cls-67" cx="255.98" cy="174.69" rx="75.22" ry="8.48"/><path class="cls-68" d="M286.22,134.68c-1.45,2.64-4.9,4.94-4.9,4.94-3.54,6.43-4.37,2.18-4.37,2.18-3.32,6.18-4.72,3.68-4.72,3.68s1.91,17.72-1.41,10.79-6.38-8.77-9.57-9.61-.61-2.35-.61-2.35c-13.89,3.06-12.28-.66-12.28-.66s-8.05,12.66-11.08,12.62S233.55,146.09,233,143c-.08,1.43-.31,2.85-.52,4.27-.46,3.07-.79,6.18-1.48,9.2-.49,2.17-1.89,2.78-4.14,2.46a1.59,1.59,0,0,0-1.16.38,8.35,8.35,0,0,0-1.58,1.94c-2.38,4.5-4.71,9-7,13.56a5.85,5.85,0,0,0-.33.82c-.36,1,.07,1.48,1.06,1.27,1.84-.39,3.66-.87,5.48-1.31.87-.2,1.17-.71.78-1.53s-.93-1.78-1.49-2.86c2.64-2.81,5.34-5.78,8.15-8.63a4.28,4.28,0,0,1,2.45-1.18,7.22,7.22,0,0,0,5.69-3.53c1.11-1.64,2.33-3.2,3.52-4.79.67-.89,1.38-1.77,2.28-2.92l4.3,6.12a1.6,1.6,0,0,1-.42,2.45,29.77,29.77,0,0,1-4,2.48c-1.23.6-1.34,1.24-.46,2.11,2.67,2.65,5.34,5.29,8.08,7.85a4.16,4.16,0,0,0,2.14.9c1.61.24,3.24.34,4.87.43a7.75,7.75,0,0,0,2.21-.14c1.24-.3,1.57-1.29.57-2a4.69,4.69,0,0,0-2.93-.95,4.22,4.22,0,0,1-3.95-1.49c-.65-.75-1.38-1.43-2-2.22-2.28-3-2.5-2.46.25-5.39.23-.26.45-.53.7-.77a2.86,2.86,0,0,0,.66-3.48c-1.09-2.84-2-5.76-3-8.75,1.21-.43,2.21-.85,3.24-1.15,2.31-.66,3.41-.15,4.23,2.15.37,1.06.91,1.28,1.88,1s2.33-1.09,3.19-.78,1.58,1.68,2.34,2.6a11.42,11.42,0,0,1,.88,1.19c.15.24.35.65.25.8-.87,1.3.13,2.23.57,3.27.62,1.45,1.3,2.88,1.91,4.34,2,4.78,4,9.58,6.06,14.35.26.59.74,1.47,1.2,1.53a44.37,44.37,0,0,0,6.21.27c.36,0,1-.87,1-1.28a3.41,3.41,0,0,0-3.65-3.06c-.39,0-.78,0-1.39,0-1.73-5-3.5-10-5.2-15.09-.55-1.63-.95-3.32-1.35-5a8.13,8.13,0,0,1,0-1.78l.44-.21c3.66,2.77,7.34,5.52,11,8.32a2.07,2.07,0,0,1-.36,3.45c-1.67.74-2.14,2.25-2.72,3.69a1.47,1.47,0,0,0,.66,1.3,4.19,4.19,0,0,0,4.93-1.86c.58-.93,1.2-1.82,1.78-2.74,2.06-3.27,2-3.73-1-6.32-3.22-2.85-6.42-5.74-9.61-8.63a11.62,11.62,0,0,1-1-1l6.38-7.64c.18.41.24.59.33.76l.59,1.06a10,10,0,0,0,.77-1,2.6,2.6,0,0,0,.28-.84,2.59,2.59,0,0,1,3.08-2.22c3.66.21,7.32.17,11,.36a7.38,7.38,0,0,0,1.65-.09C288.5,136.78,287.68,132.05,286.22,134.68Z"/><path class="cls-69" d="M209.27,159.25a7.84,7.84,0,0,0-.19,1.18l.44.32c1.64-1.38,3.31-2.73,4.9-4.16.88-.8,1.28-2.2,2.9-2,.29,0,.67-.38,1-.63.65-.52,1.28-1.07,1.83-1.53l1.08,1.67a7.09,7.09,0,0,0,1.61-1.15c1.53-1.94,3-3.93,4.42-6,1.17-1.65,2.28-3.35,3.36-5.07a1.09,1.09,0,0,1,1.75-.31,1.81,1.81,0,0,1,.55.78,9.08,9.08,0,0,0-1.69-3.91s-5.45,11-7.41,10.5,0-3.71,0-3.71-9.38,11.27-7,3.84,10.76-14.48,10.76-14.48C219,141,212.47,148.91,209.27,159.25Z"/><path class="cls-70" d="M287.8,127.45s1.92-1.09,3.45-.41a1.37,1.37,0,0,1,.64,2.08S291.46,127.36,287.8,127.45Z"/><path class="cls-70" d="M441.15,68.88s1.92-1.09,3.45-.41a1.37,1.37,0,0,1,.64,2.08S444.81,68.79,441.15,68.88Z"/><path class="cls-70" d="M529.22,101.25s1.16-1.87,2.83-2a1.37,1.37,0,0,1,1.56,1.52S532.39,99.42,529.22,101.25Z"/><path class="cls-70" d="M772.4,119.49s1.92-1.1,3.45-.41a1.37,1.37,0,0,1,.64,2.08S776.06,119.4,772.4,119.49Z"/><path class="cls-71" d="M348.57,100a3.5,3.5,0,0,0-.13,1.14,4.61,4.61,0,0,0,1.07-.43c1.86-1.38,3.7-2.8,5.55-4.2a1.81,1.81,0,0,1,.07,1c0,.56,0,1.12,0,1.67a9.26,9.26,0,0,0,1.45-.61c2.82-1.79,5.63-3.61,8.44-5.42.08.11.17.21.26.32a5.5,5.5,0,0,0-.32,1.22,7.59,7.59,0,0,0,.19,1.4,6,6,0,0,0,1.42-.27,4,4,0,0,0,1.21-1.11c1-1.14,2-2.32,3-3.52a4.84,4.84,0,0,1,4.74-2.09,20.11,20.11,0,0,0,6.64-.51,4.36,4.36,0,0,1,1.37.13c-.7,1.78-1.23,3.46-2,5-.34.64-1.24,1-1.91,1.46s-1.6.7-2,1.31c-3.17,4.28-6.26,8.63-9.35,13a11.21,11.21,0,0,0-1.1,1.89c-.44,1-.14,1.43.93,1.26,1.66-.26,5.46-3.26,5.64-4.74a3.54,3.54,0,0,1,1.25-2.11l6.93-6.17a7.48,7.48,0,0,1,4.51-2,6.22,6.22,0,0,0,3.93-1.7c1.39-1.32,2.86-2.57,4.53-4a9.41,9.41,0,0,1-5.33,6.86c-.52.26-1.09.42-1.61.69-2.65,1.43-4.21,3.83-5.56,6.4-.79,1.51-1.6,3-2.55,4.76,1.62,4.34,5.65.13,6.29-2.93a30.56,30.56,0,0,0,2.63-3.83c1.31-2.72,3.1-4.63,6.22-5.19a7.56,7.56,0,0,0,5.26-3.81c.95-1.58,2-3.11,3-4.63.2-.29.61-.66.91-.64,2.74.19,5.36.76,7.31,3a14.19,14.19,0,0,0,1.15,1,4,4,0,0,0,4.19.87c.4-.13.81-.23,1.34-.38,1.45,3,2.91,6,4.28,9,.47,1,1,1.53,2.17,1,2.33-1,4.7-1.88,7-2.92,3.75-1.71,7.41-3.63,11.21-5.22a4.16,4.16,0,0,1,5.38,2.12c.57,1.25,1.18,2.48,1.8,3.7a1.67,1.67,0,0,0,2.24.7c.59-.19,1.41-.6,1.53-1.07a2.8,2.8,0,0,0-1-3.12,6.21,6.21,0,0,1-1.52-2c-.79-1.52-1.39-3.13-2.19-4.65s-1.69-2.67-3.73-1.78c1.61-1.17,3.21-2.16,4.81-3.14a2.91,2.91,0,0,1,3.4.27c1.38,1.17,2.78,2.34,4.2,3.47a5.86,5.86,0,0,0,1.53.93,1.86,1.86,0,0,0,2.31-.93,1.49,1.49,0,0,0-.28-1.4c-2.19-2-4.49-4-6.69-6a2.59,2.59,0,0,0-3.27-.51c-2.6,1.31-5.21,2.63-7.84,3.9-1.81.88-3.65,1.7-5.51,2.49a5.17,5.17,0,0,1-1.49.15c0-.12-.06-.24-.1-.36a35.78,35.78,0,0,0,2.7-2.35c.84-.89,1.53-1.92,2.29-2.89a20.12,20.12,0,0,1,2.1-2.64c.84-.78,2-1.24,2.85-2a9.11,9.11,0,0,1,5.06-2,25.78,25.78,0,0,0,3.57-.65,28.74,28.74,0,0,1-11.65-.74A93.64,93.64,0,0,0,437,86c-4.34,8.1-4.34,3.22-4.34,3.22-4,5.18-6,.51-6,.51s-2.3,10.51-5.37,7.11-1.27-8.21-1.27-8.21c-10.09,2.68-15.7-.9-15.7-.9C397,93.88,398,89.24,398,89.24s-14.42,10.38-14.55,6.91,2.55-11,2.55-11c-12.89,5.49-13.59,1.66-13.59,1.66s-3.4,6.55-5.31,5.57,1.43-5,1.43-5-11.38,8-10.36,3.76,14.24-8.56,14.24-8.56a12.47,12.47,0,0,0-5.7,1.33C359.17,87.67,352.6,92.42,348.57,100Zm80.31-6.08a13,13,0,0,1,2.33,1.29l-5.33.92c0-.14-.07-.28-.11-.41a.56.56,0,0,1,0-.12C426.18,92.89,426.41,92.76,428.88,93.94Z"/><path class="cls-72" d="M683.68,155.09c-.31.3-.33.88-.49,1.33a4,4,0,0,0,1.34,0c.94-.3,1.84-.73,2.94-1.19-1.61,1.73-3.08,3.21-4.43,4.8a19.08,19.08,0,0,0-2,3.12,3.52,3.52,0,0,0-.1,1.43,6.12,6.12,0,0,0,1.28-.39,10,10,0,0,0,1-.83l7.66-5.48.25.29a11.06,11.06,0,0,0-.86,1.43,1.13,1.13,0,0,0,0,1,1.22,1.22,0,0,0,1,.12,5.75,5.75,0,0,0,1.21-.56L698,157c.54,1.58,1.09,1.73,2.1.41a30.34,30.34,0,0,1,10-8.29c.82-.45,1.62-1,2.5-1.49.11,1.62.23,3,.31,4.47.19,3.42-.44,4.16-3.83,4.6a4.9,4.9,0,0,1-.54,0,2,2,0,0,0-2.19,1.88c-.45,2.23-.91,4.45-1.42,6.67-.65,2.82-1.35,5.63-2,8.45-.23,1,0,1.65,1.12,1.65,2.36,0,4.72,0,7.08-.11,1.08,0,1.46-.68.94-1.61-.78-1.38-1.85-2.29-3.53-1.86,1.62-3.83,3.18-7.56,4.79-11.27.15-.35.66-.54,1-.81a18.27,18.27,0,0,0,2.61-2.16c1.09-1.29,2-2.76,2.94-4.15.75-1.07,1.52-2.14,2.39-3.36.79.83,1.45,1.48,2.08,2.18,1.35,1.5,1.36,2.12-.18,3.43s-3.25,2.5-4.86,3.77c-1.31,1-1.29,1.57-.63,3.1,2.15,5,5.93,8.65,9.54,12.47a1.57,1.57,0,0,0,1.37.39,1.76,1.76,0,0,0,.93-1.28,4.61,4.61,0,0,0-.66-2.26c-1.51-2.47-3.1-4.89-4.7-7.31-.57-.87-1.24-1.68-1.87-2.53,1.22-.69,2.33-1.27,3.39-1.92s2.11-1.34,3.12-2.07a5.57,5.57,0,0,0,2.35-6.66l-.82-3c5.54,2.79,10.37,7.13,16.89,5,.28.74.34,1.43.67,1.62s1.07.05,1.67.05c-.08.24-.17.54-.28.81-1.79,4.28-3.59,8.55-5.35,12.84a4.06,4.06,0,0,0-.4,1.91c.25,2.13.61,4.24,1,6.34.08.38.57,1,.85,1,2.17-.12,4.35-.29,6.5-.6.73-.1,1.4-.82.72-1.57a4.57,4.57,0,0,0-2.27-1.42c-1.71-.32-2.81-1.49-2.34-3.18a45.11,45.11,0,0,1,2.23-6.55c2-4.33,4.13-8.57,6.36-13.17.8,1.1,1.4,1.82,1.89,2.61,1.64,2.65,3.14,5.41,4.9,8a81.25,81.25,0,0,0,6.69,8.83,33,33,0,0,1,4.09,5.36,3.91,3.91,0,0,0,2.37,1.66,21.29,21.29,0,0,0,4.52.09,1.3,1.3,0,0,0,.9-.44,2.74,2.74,0,0,0-1.72-4,2.87,2.87,0,0,1-1.65-.58,123.23,123.23,0,0,1-12.55-16.65,4,4,0,0,1-.56-1.87c-.07-2.49.05-5-.06-7.49a2.52,2.52,0,0,1,1.63-2.81,7.81,7.81,0,0,0,4.63-6.13c.39-2.1,1-4.16,1.35-6.27a3.47,3.47,0,0,1,3-2.95c2.34-.59,4.68-1.18,7-1.74-8.17,1-13.33-4.13-13.08,4.89.25,9.38-4,10.6-4,10.6-2.17,7.46-4,4.29-4,4.29-3.83,5.87-4-.13-4-.13s-5.74,11.1-7.25,10.59,1.07-8.93,1.07-8.93-1.22.89-8.77,2a17.63,17.63,0,0,1-12.93-3.41c-7.32,2.68-8,0-8,0s-6.51,10.09-8.3,9-.51-11.32-.51-11.32-6.51,4.59-9.19,6.38,0-2.72,0-2.72-7.21,8.72-8.81,7.55,2-5.09,2-5.09-8.3,6.39-9.58,4.85,6.57-7.31,6.57-7.31c-.21.08-.43.13-.64.19A26.87,26.87,0,0,0,683.68,155.09Z"/><path class="cls-73" d="M512.08,143.53a1.21,1.21,0,0,0,0,1.14,2.07,2.07,0,0,0,1.25.25.72.72,0,0,0,.42-.2c-.5,2.34-1,4.72-1.48,7.12-.07.39.32.87.49,1.31a4.55,4.55,0,0,0,1.13-.86c1-1.45,1.92-2.94,3.06-4.71-.26,2-.51,3.55-.64,5.14,0,.39.31.81.49,1.22a4.2,4.2,0,0,0,1.15-.61,5.53,5.53,0,0,0,.82-1.32l4.79-9.54c1,.64,1.45.51,1.76-.87a17,17,0,0,0,.36-7.73,7.58,7.58,0,0,1,0-1.72,40.44,40.44,0,0,1,2.49,5.41,8.38,8.38,0,0,1,.34,5.2,43.21,43.21,0,0,0-1.29,7.65,51.71,51.71,0,0,0,.32,7.14c.25,3.21.33,3.24,3.44,2.3,1.35-.4,1.69-1.15.7-2.13-1.26-1.24-1.23-2.65-1.22-4.18,0-4.07,1.39-7.84,2.51-11.65a9.17,9.17,0,0,0,.24-4.87c-.26-1-.42-2.09-.62-3.14l.27-.19c.33.27.78.47,1,.82,1.85,3.22,3.12,6.46,1,10.13a11.64,11.64,0,0,0-1.53,7.39,23.1,23.1,0,0,1,0,5.19c-.37,3.6.72,3,3.07,2.95.21,0,.54,0,.62-.08.25-.38.62-.85.56-1.22a38.69,38.69,0,0,0-1.08-4.62c-1.42-4.51,1.72-7.62,3.29-11.51a11.62,11.62,0,0,1,.59,1.52,44.7,44.7,0,0,1,.21,17.7c-.06.36-.74.66-1.18.89s-1.4.37-1.76.82a14.6,14.6,0,0,0-1.31,2.86c2.42-.28,4.46-.53,6.5-.75a1.6,1.6,0,0,0,1.49-1.53q1.47-9,3-18.09c.19-1.12.46-2.23.7-3.36,1.2.22,1.6.71,1.59,1.66-.08,6.42-.12,12.84-.21,19.26a1.74,1.74,0,0,1-.62,1.3c-1.2.64-1.2,1.66-1.22,2.94,2.09-.1,4.12-.17,5.91-1.25a2.1,2.1,0,0,0,.79-1.5c.14-2.37.22-4.76.21-7.14,0-4-.18-8.08-.13-12.11a16.64,16.64,0,0,1,.76-4.59c.75-2.45,1.58-4.88,2.41-7.3-2.06,4.78-4.68,9-6,7.81-1.79-1.66,1-5.27,1-5.27-4.59,3.54-10.08,4.38-12.55,0s.93-8.26.93-8.26-4.34,4.72-4.85-.9a11.25,11.25,0,0,1,3-8.75c-.72.69-3.39,3-3.39-.18,0-3.7,4.3-7.15,4.3-7.15a6.27,6.27,0,0,1-6.28-3.83,31.61,31.61,0,0,1-11.18,1.86c2.3.35,4.75.47,6.81,1.41s3.42,2.71,5.14,4.16c-3.58,3.78.19,5.72.19,5.72s-5.75-.13-7.25,3.19a10.13,10.13,0,0,1-3.86,4.6s.39,4.21.36,8.13-2.4,10-4.06,9c-1.14-.7-.23-3.75.45-5.59-.63,1.4-1.67,3.18-2.49,2-1-1.38,1-6.69,2-8.95a26.81,26.81,0,0,1-5.23,7.21A18.32,18.32,0,0,0,512.08,143.53Z"/><g class="cls-74"><path class="cls-75" d="M733.74,137a.79.79,0,0,1-.8.79.79.79,0,0,1-.79-.79.79.79,0,0,1,.79-.8A.8.8,0,0,1,733.74,137Z"/><circle class="cls-76" cx="732.94" cy="136.97" r="5.26"/></g><g class="cls-74"><path class="cls-75" d="M745,144.67a.8.8,0,0,1-.8.8.79.79,0,0,1-.79-.8.79.79,0,0,1,.79-.79A.79.79,0,0,1,745,144.67Z"/><circle class="cls-77" cx="744.23" cy="144.67" r="5.26"/></g><g class="cls-74"><path class="cls-75" d="M755.51,156.25a.79.79,0,0,1-.79.8.8.8,0,0,1-.8-.8.79.79,0,0,1,.8-.79A.79.79,0,0,1,755.51,156.25Z"/><path class="cls-78" d="M760,156.25a5.27,5.27,0,1,1-5.26-5.26A5.27,5.27,0,0,1,760,156.25Z"/></g><g class="cls-74"><path class="cls-75" d="M762.63,132.61a.81.81,0,1,1-.8-.81A.8.8,0,0,1,762.63,132.61Z"/><path class="cls-79" d="M767.16,132.61a5.34,5.34,0,1,1-5.33-5.34A5.33,5.33,0,0,1,767.16,132.61Z"/></g><g class="cls-74"><path class="cls-75" d="M765.18,119.25a.79.79,0,0,1-.79.79.79.79,0,1,1,0-1.58A.79.79,0,0,1,765.18,119.25Z"/><circle class="cls-80" cx="764.39" cy="119.25" r="5.26"/></g><path class="cls-75" d="M773.19,126.55a.79.79,0,1,1-.79-.79A.8.8,0,0,1,773.19,126.55Z"/><path class="cls-81" d="M777.61,126.55a5.21,5.21,0,1,1-5.21-5.21A5.21,5.21,0,0,1,777.61,126.55Z"/><path class="cls-75" d="M748.39,131.76a.79.79,0,1,1-.78-.79A.78.78,0,0,1,748.39,131.76Z"/><path class="cls-82" d="M752.82,131.76a5.21,5.21,0,1,1-5.21-5.21A5.22,5.22,0,0,1,752.82,131.76Z"/><path class="cls-75" d="M763.59,144.56a.79.79,0,1,1-.79-.79A.79.79,0,0,1,763.59,144.56Z"/><path class="cls-83" d="M768,144.56a5.21,5.21,0,1,1-5.21-5.21A5.21,5.21,0,0,1,768,144.56Z"/><path class="cls-75" d="M726.3,144.67a.79.79,0,1,1-.78-.78A.78.78,0,0,1,726.3,144.67Z"/><path class="cls-84" d="M730.72,144.67a5.21,5.21,0,1,1-5.2-5.21A5.2,5.2,0,0,1,730.72,144.67Z"/><path class="cls-75" d="M716.25,151.09a.79.79,0,1,1-.79-.79A.78.78,0,0,1,716.25,151.09Z"/><path class="cls-85" d="M720.67,151.09a5.21,5.21,0,1,1-5.21-5.21A5.21,5.21,0,0,1,720.67,151.09Z"/><g class="cls-74"><path class="cls-75" d="M529.69,127.06a.79.79,0,0,1-.79.8.8.8,0,0,1-.8-.8.79.79,0,0,1,.8-.79A.79.79,0,0,1,529.69,127.06Z"/><circle class="cls-86" cx="528.9" cy="127.06" r="5.26"/></g><g class="cls-74"><path class="cls-75" d="M541,134.77a.79.79,0,0,1-1.58,0,.79.79,0,1,1,1.58,0Z"/><path class="cls-87" d="M545.45,134.77a5.26,5.26,0,1,1-5.26-5.27A5.26,5.26,0,0,1,545.45,134.77Z"/></g><g class="cls-74"><path class="cls-75" d="M551.47,146.35a.79.79,0,0,1-.8.79.79.79,0,0,1-.79-.79.79.79,0,0,1,.79-.8A.8.8,0,0,1,551.47,146.35Z"/><path class="cls-88" d="M555.94,146.35a5.27,5.27,0,1,1-5.27-5.27A5.27,5.27,0,0,1,555.94,146.35Z"/></g><g class="cls-74"><path class="cls-75" d="M530,145.55a.81.81,0,1,1-.81-.8A.81.81,0,0,1,530,145.55Z"/><circle class="cls-89" cx="529.22" cy="145.55" r="5.34"/></g><g class="cls-74"><path class="cls-75" d="M538.36,95.8a.79.79,0,0,1-.79.79.8.8,0,1,1,.79-.79Z"/><circle class="cls-90" cx="537.57" cy="95.8" r="5.26"/></g><path class="cls-75" d="M556.67,119.45a.79.79,0,1,1-.79-.79A.78.78,0,0,1,556.67,119.45Z"/><path class="cls-91" d="M561.09,119.45a5.21,5.21,0,1,1-5.21-5.21A5.21,5.21,0,0,1,561.09,119.45Z"/><circle class="cls-75" cx="543.56" cy="121.85" r="0.79"/><circle class="cls-92" cx="543.56" cy="121.85" r="5.21"/><path class="cls-75" d="M551.46,131.8a.79.79,0,1,1-.79-.79A.78.78,0,0,1,551.46,131.8Z"/><path class="cls-93" d="M555.88,131.8a5.21,5.21,0,1,1-5.21-5.21A5.2,5.2,0,0,1,555.88,131.8Z"/><path class="cls-75" d="M543.56,111.05a.79.79,0,1,1-.78-.79A.79.79,0,0,1,543.56,111.05Z"/><path class="cls-94" d="M548,111.05a5.21,5.21,0,1,1-5.2-5.21A5.2,5.2,0,0,1,548,111.05Z"/><path class="cls-75" d="M517.41,143.25a.79.79,0,1,1-.78-.78A.78.78,0,0,1,517.41,143.25Z"/><path class="cls-95" d="M521.84,143.25a5.21,5.21,0,1,1-5.21-5.21A5.21,5.21,0,0,1,521.84,143.25Z"/><g class="cls-74"><path class="cls-75" d="M401,82.63a.79.79,0,0,1-.8.79.79.79,0,0,1-.79-.79.79.79,0,0,1,.79-.8A.8.8,0,0,1,401,82.63Z"/><circle class="cls-96" cx="400.24" cy="82.63" r="5.26"/></g><g class="cls-74"><path class="cls-75" d="M412.33,90.33a.8.8,0,1,1-.8-.79A.8.8,0,0,1,412.33,90.33Z"/><path class="cls-97" d="M416.8,90.33a5.27,5.27,0,1,1-5.27-5.26A5.27,5.27,0,0,1,416.8,90.33Z"/></g><g class="cls-74"><path class="cls-75" d="M430.71,98.68a.79.79,0,0,1-.79.79.8.8,0,1,1,.79-.79Z"/><path class="cls-98" d="M435.18,98.68a5.26,5.26,0,1,1-5.26-5.27A5.26,5.26,0,0,1,435.18,98.68Z"/></g><g class="cls-74"><path class="cls-75" d="M395.78,91.38a.81.81,0,1,1-1.61,0,.81.81,0,1,1,1.61,0Z"/><path class="cls-99" d="M400.31,91.38A5.34,5.34,0,1,1,395,86,5.34,5.34,0,0,1,400.31,91.38Z"/></g><g class="cls-74"><path class="cls-75" d="M438.91,66.57a.8.8,0,1,1-.79-.79A.79.79,0,0,1,438.91,66.57Z"/><circle class="cls-100" cx="438.12" cy="66.57" r="5.26"/></g><path class="cls-75" d="M438.9,80.81a.79.79,0,1,1-1.57,0,.79.79,0,1,1,1.57,0Z"/><path class="cls-101" d="M443.32,80.81a5.21,5.21,0,1,1-5.2-5.21A5.2,5.2,0,0,1,443.32,80.81Z"/><circle class="cls-75" cx="414.91" cy="77.42" r="0.79"/><circle class="cls-102" cx="414.91" cy="77.42" r="5.21"/><path class="cls-75" d="M426.79,86a.79.79,0,1,1-.79-.79A.79.79,0,0,1,426.79,86Z"/><path class="cls-103" d="M431.21,86A5.21,5.21,0,1,1,426,80.81,5.21,5.21,0,0,1,431.21,86Z"/><path class="cls-75" d="M427.58,75.6a.79.79,0,1,1-1.58,0,.79.79,0,0,1,1.58,0Z"/><path class="cls-104" d="M432,75.6a5.21,5.21,0,1,1-5.21-5.21A5.21,5.21,0,0,1,432,75.6Z"/><path class="cls-75" d="M386.2,92.19a.79.79,0,1,1-.79-.79A.78.78,0,0,1,386.2,92.19Z"/><path class="cls-105" d="M390.62,92.19A5.21,5.21,0,1,1,385.41,87,5.2,5.2,0,0,1,390.62,92.19Z"/><g class="cls-74"><path class="cls-75" d="M239.35,137.76a.79.79,0,0,1-.8.79.79.79,0,0,1-.79-.79.79.79,0,0,1,.79-.8A.8.8,0,0,1,239.35,137.76Z"/><circle class="cls-106" cx="238.55" cy="137.76" r="5.26"/></g><g class="cls-74"><path class="cls-75" d="M250.64,145.46a.8.8,0,0,1-.8.8.79.79,0,0,1-.79-.8.79.79,0,0,1,.79-.79A.79.79,0,0,1,250.64,145.46Z"/><circle class="cls-107" cx="249.84" cy="145.46" r="5.26"/></g><g class="cls-74"><path class="cls-75" d="M271.1,151.84a.79.79,0,0,1-.79.8.8.8,0,0,1-.8-.8.79.79,0,0,1,.8-.79A.79.79,0,0,1,271.1,151.84Z"/><circle class="cls-108" cx="270.31" cy="151.84" r="5.26"/></g><g class="cls-74"><path class="cls-75" d="M236.94,151.84a.81.81,0,1,1-.8-.8A.8.8,0,0,1,236.94,151.84Z"/><path class="cls-109" d="M241.47,151.84a5.34,5.34,0,1,1-5.33-5.33A5.33,5.33,0,0,1,241.47,151.84Z"/></g><g class="cls-74"><path class="cls-75" d="M282.43,123.33a.8.8,0,0,1-.8.8.79.79,0,0,1-.79-.8.79.79,0,0,1,.79-.79A.79.79,0,0,1,282.43,123.33Z"/><circle class="cls-110" cx="281.63" cy="123.33" r="5.26"/></g><path class="cls-75" d="M285.78,132.57a.79.79,0,1,1-1.57,0,.79.79,0,1,1,1.57,0Z"/><path class="cls-111" d="M290.21,132.57a5.21,5.21,0,1,1-5.21-5.21A5.21,5.21,0,0,1,290.21,132.57Z"/><path class="cls-75" d="M254,132.55a.79.79,0,1,1-.78-.79A.78.78,0,0,1,254,132.55Z"/><path class="cls-112" d="M258.43,132.55a5.21,5.21,0,1,1-5.21-5.21A5.22,5.22,0,0,1,258.43,132.55Z"/><path class="cls-75" d="M273.93,140.2a.79.79,0,1,1-.78-.79A.78.78,0,0,1,273.93,140.2Z"/><path class="cls-113" d="M278.36,140.2a5.21,5.21,0,1,1-5.21-5.21A5.22,5.22,0,0,1,278.36,140.2Z"/><path class="cls-75" d="M262.61,142a.79.79,0,1,1-.78-.79A.78.78,0,0,1,262.61,142Z"/><path class="cls-114" d="M267,142a5.21,5.21,0,1,1-5.2-5.21A5.21,5.21,0,0,1,267,142Z"/><path class="cls-75" d="M224.51,147.31a.79.79,0,1,1-.79-.78A.79.79,0,0,1,224.51,147.31Z"/><path class="cls-115" d="M228.93,147.31a5.21,5.21,0,1,1-5.21-5.21A5.21,5.21,0,0,1,228.93,147.31Z"/></g></g></g></svg>