<svg xmlns="http://www.w3.org/2000/svg" xmlns:xlink="http://www.w3.org/1999/xlink" viewBox="0 0 924.52 401.43"><defs><style>.cls-1{isolation:isolate;}.cls-2{fill:#612b65;}.cls-3{fill:url(#Áåçûìÿííûé_ãðàäèåíò_270);}.cls-4{fill:url(#Áåçûìÿííûé_ãðàäèåíò_270-2);}.cls-5{fill:url(#Áåçûìÿííûé_ãðàäèåíò_270-3);}.cls-6{fill:url(#Áåçûìÿííûé_ãðàäèåíò_270-4);}.cls-7{fill:url(#Áåçûìÿííûé_ãðàäèåíò_270-5);}.cls-23,.cls-24,.cls-25,.cls-26,.cls-27,.cls-28,.cls-29,.cls-30,.cls-31,.cls-32,.cls-33,.cls-34,.cls-8{mix-blend-mode:multiply;}.cls-8{opacity:0.15;}.cls-9{fill:url(#Áåçûìÿííûé_ãðàäèåíò_253);}.cls-10{fill:url(#Áåçûìÿííûé_ãðàäèåíò_253-2);}.cls-11{fill:url(#Áåçûìÿííûé_ãðàäèåíò_253-3);}.cls-12{fill:url(#Áåçûìÿííûé_ãðàäèåíò_253-4);}.cls-13{fill:url(#Áåçûìÿííûé_ãðàäèåíò_253-5);}.cls-14{fill:url(#Áåçûìÿííûé_ãðàäèåíò_253-6);}.cls-15{fill:url(#Áåçûìÿííûé_ãðàäèåíò_253-7);}.cls-16{fill:url(#Áåçûìÿííûé_ãðàäèåíò_253-8);}.cls-17{fill:url(#Áåçûìÿííûé_ãðàäèåíò_253-9);}.cls-18{fill:url(#Áåçûìÿííûé_ãðàäèåíò_253-10);}.cls-19{fill:url(#Áåçûìÿííûé_ãðàäèåíò_253-11);}.cls-20{fill:url(#Áåçûìÿííûé_ãðàäèåíò_253-12);}.cls-21{fill:url(#Áåçûìÿííûé_ãðàäèåíò_253-13);}.cls-22{fill:url(#Áåçûìÿííûé_ãðàäèåíò_270-6);}.cls-23{fill:#2b132a;opacity:0.21;}.cls-24,.cls-25,.cls-26,.cls-27,.cls-28,.cls-29,.cls-30,.cls-31,.cls-32,.cls-33,.cls-34{opacity:0.49;}.cls-24{fill:url(#Áåçûìÿííûé_ãðàäèåíò_253-14);}.cls-25{fill:url(#Áåçûìÿííûé_ãðàäèåíò_253-15);}.cls-26{fill:url(#Áåçûìÿííûé_ãðàäèåíò_253-16);}.cls-27{fill:url(#Áåçûìÿííûé_ãðàäèåíò_261);}.cls-28{fill:url(#Áåçûìÿííûé_ãðàäèåíò_253-17);}.cls-29{fill:url(#Áåçûìÿííûé_ãðàäèåíò_261-2);}.cls-30{fill:url(#Áåçûìÿííûé_ãðàäèåíò_261-3);}.cls-31{fill:url(#Áåçûìÿííûé_ãðàäèåíò_261-4);}.cls-32{fill:url(#Áåçûìÿííûé_ãðàäèåíò_253-18);}.cls-33{fill:url(#Áåçûìÿííûé_ãðàäèåíò_261-5);}.cls-34{fill:url(#Áåçûìÿííûé_ãðàäèåíò_253-19);}</style><linearGradient id="Áåçûìÿííûé_ãðàäèåíò_270" x1="56.87" y1="284.81" x2="56.87" y2="15.77" gradientUnits="userSpaceOnUse"><stop offset="0" stop-color="#572960"/><stop offset="0.2" stop-color="#4f2354"/><stop offset="0.47" stop-color="#4a1f4c"/><stop offset="1" stop-color="#481e4a"/></linearGradient><linearGradient id="Áåçûìÿííûé_ãðàäèåíò_270-2" x1="147.16" y1="289.23" x2="147.16" y2="28.7" xlink:href="#Áåçûìÿííûé_ãðàäèåíò_270"/><linearGradient id="Áåçûìÿííûé_ãðàäèåíò_270-3" x1="803.43" y1="252.1" x2="803.43" y2="28.21" xlink:href="#Áåçûìÿííûé_ãðàäèåíò_270"/><linearGradient id="Áåçûìÿííûé_ãðàäèåíò_270-4" x1="896.74" y1="266.77" x2="896.74" y2="78.07" xlink:href="#Áåçûìÿííûé_ãðàäèåíò_270"/><linearGradient id="Áåçûìÿííûé_ãðàäèåíò_270-5" x1="253.06" y1="252.1" x2="253.06" y2="29.02" xlink:href="#Áåçûìÿííûé_ãðàäèåíò_270"/><linearGradient id="Áåçûìÿííûé_ãðàäèåíò_253" x1="33.75" y1="284.81" x2="33.75" y2="15.77" gradientUnits="userSpaceOnUse"><stop offset="0" stop-color="#2b132a"/><stop offset="1" stop-color="#fff"/></linearGradient><linearGradient id="Áåçûìÿííûé_ãðàäèåíò_253-2" x1="31.64" y1="284.81" x2="31.64" y2="15.77" xlink:href="#Áåçûìÿííûé_ãðàäèåíò_253"/><linearGradient id="Áåçûìÿííûé_ãðàäèåíò_253-3" x1="144.59" y1="289.23" x2="144.59" y2="28.7" xlink:href="#Áåçûìÿííûé_ãðàäèåíò_253"/><linearGradient id="Áåçûìÿííûé_ãðàäèåíò_253-4" x1="122.44" y1="289.23" x2="122.44" y2="28.7" xlink:href="#Áåçûìÿííûé_ãðàäèåíò_253"/><linearGradient id="Áåçûìÿííûé_ãðàäèåíò_253-5" x1="805.6" y1="252.1" x2="805.6" y2="28.21" xlink:href="#Áåçûìÿííûé_ãðàäèåíò_253"/><linearGradient id="Áåçûìÿííûé_ãðàäèåíò_253-6" x1="829.47" y1="252.1" x2="829.47" y2="28.21" xlink:href="#Áåçûìÿííûé_ãðàäèåíò_253"/><linearGradient id="Áåçûìÿííûé_ãðàäèåíò_253-7" x1="231.16" y1="252.1" x2="231.16" y2="29.02" xlink:href="#Áåçûìÿííûé_ãðàäèåíò_253"/><linearGradient id="Áåçûìÿííûé_ãðàäèåíò_253-8" x1="253.49" y1="252.1" x2="253.49" y2="29.02" xlink:href="#Áåçûìÿííûé_ãðàäèåíò_253"/><linearGradient id="Áåçûìÿííûé_ãðàäèåíò_253-9" x1="222.32" y1="252.1" x2="222.32" y2="29.02" xlink:href="#Áåçûìÿííûé_ãðàäèåíò_253"/><linearGradient id="Áåçûìÿííûé_ãðàäèåíò_253-10" x1="247.43" y1="252.1" x2="247.43" y2="29.02" xlink:href="#Áåçûìÿííûé_ãðàäèåíò_253"/><linearGradient id="Áåçûìÿííûé_ãðàäèåíò_253-11" x1="315.96" y1="252.1" x2="315.96" y2="29.02" xlink:href="#Áåçûìÿííûé_ãðàäèåíò_253"/><linearGradient id="Áåçûìÿííûé_ãðàäèåíò_253-12" x1="313.3" y1="252.1" x2="313.3" y2="29.02" xlink:href="#Áåçûìÿííûé_ãðàäèåíò_253"/><linearGradient id="Áåçûìÿííûé_ãðàäèåíò_253-13" x1="681.17" y1="263.48" x2="681.17" y2="29.92" xlink:href="#Áåçûìÿííûé_ãðàäèåíò_253"/><linearGradient id="Áåçûìÿííûé_ãðàäèåíò_270-6" x1="655.59" y1="262.33" x2="655.59" y2="12.7" xlink:href="#Áåçûìÿííûé_ãðàäèåíò_270"/><linearGradient id="Áåçûìÿííûé_ãðàäèåíò_253-14" x1="95.23" y1="279.6" x2="95.23" y2="208.59" xlink:href="#Áåçûìÿííûé_ãðàäèåíò_253"/><linearGradient id="Áåçûìÿííûé_ãðàäèåíò_253-15" x1="72.15" y1="170.03" x2="72.15" y2="107.89" xlink:href="#Áåçûìÿííûé_ãðàäèåíò_253"/><linearGradient id="Áåçûìÿííûé_ãðàäèåíò_253-16" x1="826.1" y1="282.6" x2="826.1" y2="231.28" xlink:href="#Áåçûìÿííûé_ãðàäèåíò_253"/><linearGradient id="Áåçûìÿííûé_ãðàäèåíò_261" x1="687.65" y1="401.75" x2="687.65" y2="1.15" gradientUnits="userSpaceOnUse"><stop offset="0" stop-color="#fff"/><stop offset="1" stop-color="#2b132a"/></linearGradient><linearGradient id="Áåçûìÿííûé_ãðàäèåíò_253-17" x1="832.79" y1="202.34" x2="832.79" y2="139.41" xlink:href="#Áåçûìÿííûé_ãðàäèåíò_253"/><linearGradient id="Áåçûìÿííûé_ãðàäèåíò_261-2" x1="761.99" y1="401.74" x2="761.99" y2="1.15" xlink:href="#Áåçûìÿííûé_ãðàäèåíò_261"/><linearGradient id="Áåçûìÿííûé_ãðàäèåíò_261-3" x1="720.59" y1="401.74" x2="720.59" y2="1.15" xlink:href="#Áåçûìÿííûé_ãðàäèåíò_261"/><linearGradient id="Áåçûìÿííûé_ãðàäèåíò_261-4" x1="901.34" y1="328.98" x2="901.34" y2="7.28" xlink:href="#Áåçûìÿííûé_ãðàäèåíò_261"/><linearGradient id="Áåçûìÿííûé_ãðàäèåíò_253-18" x1="870.94" y1="269.4" x2="870.94" y2="228.31" xlink:href="#Áåçûìÿííûé_ãðàäèåíò_253"/><linearGradient id="Áåçûìÿííûé_ãðàäèåíò_261-5" x1="872.43" y1="328.98" x2="872.43" y2="7.28" xlink:href="#Áåçûìÿííûé_ãðàäèåíò_261"/><linearGradient id="Áåçûìÿííûé_ãðàäèåíò_253-19" x1="891.53" y1="160.47" x2="891.53" y2="116.7" xlink:href="#Áåçûìÿííûé_ãðàäèåíò_253"/></defs><g class="cls-1"><g id="Layer_2" data-name="Layer 2"><g id="L6"><path class="cls-2" d="M0,102.77C150.07,140,394,173.67,657.37,225c39.17,7.63,267.15,176.46,267.15,176.46H0Z"/><path class="cls-3" d="M42.82,17.91s-26.89,94-28.93,115.41S35.68,241.91,25.12,272.21L6.91,278.68l50.55-5.45L15.25,284.81l86.13-7.49L52.7,279l54.12-11.91-43.23,3.4,23.15-7.15s-26.38,0-29.87-16.68-16.43-86.13-17.45-95.32S100,2.09,100,2.09L82,4,30.78,129.23,56.87,9.44Z"/><path class="cls-4" d="M152.44,33.57s-1.36,80.69-6.13,113.37-19.06,117.78-23.83,123.57S82,283.79,82,283.79l75.58-9.88L88.78,289.23l110.59-14.69-28.89.06,36.77-9.54-45.62,5.45,26.22-8.17s-39.11,12.85-36.43-6.47S179.33,183,188.53,164.3s23.83-69.45,23.83-122.56-8.17-8.17-8.17-8.17,3.74,79-43.92,154.22c0,0,1.36-29.28,12.26-71.49S190.23,88.51,197,39.59s-12.94-8.4-12.94-8.4a77,77,0,0,1-4.77,32.26c-6.46,17.44-10.21,22.18-15.65,42.79l8.51-87Z"/><path class="cls-5" d="M852.12,16.82s.89,58.08-2.39,74.52-44.81,82.83-58.09,97.47-15,36.76-18.72,44.93-33.36,10.12-33.36,10.12h45.27l-38.12,8.24h99.4L793.68,247l44.94-3.16s-35.74-1.6-41.53-6,32-1.7,32-1.7-32-4.86-26.21-25.07,37.35-54.94,49.24-72.63,14.45-26.5,15.1-70-2.39-51.65-2.39-51.65Z"/><polygon class="cls-6" points="893.43 262 912.41 177.23 902.92 83.63 881.07 68.47 881.07 266.77 893.43 262"/><path class="cls-7" d="M317.92,186.49c3.06-38.47,16-166.13,16-166.13L323,17.67l-6.47,85.08,3.06-79.07H315.2s-3.63,118.23-5.45,136.89-7.49,73.15-20.25,74.22c-14.07-1.8-35.12-6.58-35.57-19C253.26,197,264.81,123,264.81,123c6-17.87,23.49-102.64,23.49-102.64l-17,3.32s-17,74-19.74,90.8-14,112.86-17.36,111.15,4.42-31,3.74-55.82,7.15-126.34,7.15-126.34l-9.53,2.77s-9.19,144.68-9.87,157.27-21.11,34.62-37.75,34l29.15,4.09h-48.6l38.81,3.78-48.69,6.71,124.73-2.46-57.65-6.3,71.14,1.36L241,235.85h29.28L301.92,240H281.15l63,6.1-33-5.45,36.43-.63S314.86,225,317.92,186.49Z"/><g class="cls-8"><path class="cls-9" d="M26.52,228.21c.45,4.4.8,8.7,1,12.83L41,254.51Z"/><path class="cls-10" d="M46.48,244.09l-13-52.77L16.8,163.22c1.52,9.63,3.41,20.54,5.19,31.75Z"/><path class="cls-11" d="M138.55,195.32l8.61,17.32-11.95,53.17L154,212.64l-6.38-76.25c-.4,3.88-.82,7.43-1.28,10.55C144.63,158.47,141.76,176.53,138.55,195.32Z"/><path class="cls-12" d="M140,221.83l-5.27-4.8c-4.87,26.82-9.8,50.52-12.24,53.48-2,2.44-9.5,5.17-17.51,7.53l-.07,2.75,23.78-3.1Z"/><path class="cls-13" d="M785.34,208.43l-5.78,19.19,11.8-18.16,16.34-9.54c5.75-10.61,15-23,23.94-34.52Z"/><path class="cls-14" d="M829.26,158.17l4.89,4c7.11-9.12,13.77-17.5,18-23.75,6-8.88,9.58-15.51,11.78-25.4l-68.85,79.86Z"/><path class="cls-15" d="M233.43,219.62c.36-5,1.58-12.65,2.67-21.35l-8-34.83c-.78,12.43-1.45,23.19-1.9,30.57Z"/><path class="cls-16" d="M264.05,128l.76-5c.84-2.47,1.89-6.22,3.09-10.84l-26.28,75.47c-.87,6.06-1.72,11.79-2.54,16.88Z"/><path class="cls-17" d="M219.08,237.83l6.77-16-3.26-9a46.72,46.72,0,0,1-3.8,5.84c1.26,1.71,2.33,3.12,2.33,3.12Z"/><path class="cls-18" d="M237.24,215.25l18-20.64c.65-6.42,1.49-13.55,2.4-20.75l-19.2,34.69C238,211,237.61,213.24,237.24,215.25Z"/><path class="cls-19" d="M319.86,164.16c.42-4.6.88-9.53,1.37-14.7l-9.61-24c-.32,7.61-.63,14.57-.93,20.38Z"/><path class="cls-20" d="M318.22,199l-12-9.1c-.53,3.48-1.11,7-1.75,10.48l17.64,12.77A52.16,52.16,0,0,1,318.22,199Z"/><path class="cls-21" d="M674,208.43l11.75,9-1.53,20.44,8-20.44-12.17-11.22,4.16-43.57-13.18,22.07c-.28,4.58-.6,9.1-1,13.43l6.26-6.78Z"/></g><path class="cls-22" d="M756.31,132.29c9.24-13.4,18-34.56,8.85-90s-8.85-2.74-8.85-2.74,11.21,37,3.79,67.53-68.43,89.79-68.43,89.79l1-115.74-20.09,40.51s0,78.29-6.81,102.81A42.77,42.77,0,0,1,657,241.6l-2.87.27c.93,0,1.83,0,2.69-.08a30.73,30.73,0,0,1-6.29,5.43l-20.94-3.05,24.54-2.3c-11.72,0-27.32-3.34-22.16-22.89,8-30.3,9.7-28.94,8-48.85S633.94,0,633.94,0l-15,.94s6.72,133.61,9.1,147.91-8.51,64.41-11.91,35.78-14-69.48-15-94-.25-89.7-.25-89.7H580.1s2,73,5,97.87,7.49,62.64,4.09,81.7c-3.35,18.76-.12,59-47.07,58l45.36,1.63-42.21,3.74h49.36l-25.53,2.72L649.2,248a22.87,22.87,0,0,1-7.91,3H677l-39.53,6.81,36.57-1.4-32.45,5.94L738,258.81s-40.17-2.72-48.34-4.77,38.81-1.7,38.81-1.7-35.06-7.83-30.3-25.19S747.08,145.69,756.31,132.29Z"/><polygon class="cls-23" points="85.65 225.91 89.63 251.11 80.75 305.71 92.53 251.11 85.65 225.91"/><polygon class="cls-23" points="59.97 130.4 75.84 145.91 74.26 236.81 77.89 194.9 77.89 143.45 59.97 130.4"/><polygon class="cls-23" points="109.93 160.81 104.44 175.79 108.27 186.25 99.67 221.83 112.51 182.89 106.82 174.17 109.93 160.81"/><polygon class="cls-23" points="147.16 148.98 182.2 123.11 189.89 105.4 147.16 148.98"/><polygon class="cls-23" points="110.57 254.51 106.82 221.83 122.48 186.44 140.19 174.17 147.16 148.98 136.78 172.47 119.76 182.89 103.76 220.47 110.57 254.51"/><path class="cls-24" d="M69.47,217.39c-1.62,18.46-1.77,24.4,5.61,33.72a21.88,21.88,0,0,1,3.7,6.92c34.44,51.13,35.36-4.71,35.36-4.71-1.53-12.77-3.06-10.55,3.92-32.85,1.52-4.87,2.76-8.75,3.84-11.88C77.47,239.94,69.48,217.42,69.47,217.39Z"/><path class="cls-25" d="M72.27,148a.45.45,0,0,1,0,.1c3,25.07,10.9,23.73,16.08,19.7q1-3.44,2.12-6.53c8.51-22.46,4.43-24.85,4.43-24.85s1.15-10.18,3-24.86C82.49,136.14,59,119.8,46.44,107.89c.9,4.63,1.46,9.9,3.36,14.28C53.12,129.83,65.89,144.13,72.27,148Z"/><polygon class="cls-23" points="819.32 212.64 811.05 231.19 817.13 245.37 826.02 296.55 821.26 240.55 814.96 226.77 819.32 212.64"/><polygon class="cls-23" points="843.91 178.7 826.88 224.38 830.28 231.19 827.73 248.04 839.94 290.17 831.13 248.04 833.85 230.85 830.62 224.04 843.91 178.7"/><polygon class="cls-23" points="882.37 129.23 869.77 175.19 873.51 178.77 871.64 219.62 876.75 181.32 873.68 175.53 882.37 129.23"/><polygon class="cls-23" points="884.07 170.12 880.3 214.87 887.73 162.6 884.07 170.12"/><polygon class="cls-23" points="871.64 219.62 874.53 235.28 882.37 281.55 877.7 232.72 871.64 219.62"/><path class="cls-26" d="M842.28,241.15c.24-3.08,1.44-10.75,3-20.24-9,17.28-35.36,25-38.36,19.89.25,3.84,3.3,3.11,4,8,.11.89.4,3.65.81,7.81,15.31,50.07,34.67,13.62,33-2C843,247.84,842.11,243.32,842.28,241.15Z"/><path class="cls-27" d="M701.27,130.1c-10.9-4.14-19.84-7.67-19.84-7.67l-7.41,2.8s11.2,4.91,26,10.35C698.63,133,698.3,130.6,701.27,130.1Z"/><path class="cls-28" d="M854.6,163.35c.07-.58.14-1.12.19-1.61,1.53-14.29-7.4-1.53-7.4-14.55,0-2.42-.25-5.77-.61-9.71-1.9,7.51-5.3,10.77-9.29,11.5-.07,2.58-.41,4.13-1.08,4.34-1.46.44-3.24-1.49-5.27-4.95-10-3.21-20.52-15.22-20.52-15.22s11.74,24,14,36.76C840.74,220.1,854.6,163.36,854.6,163.35Z"/><path class="cls-29" d="M750.11,84.89l-9.19,6.9A226.87,226.87,0,0,1,780,107.87l1.42.77a21.05,21.05,0,0,1,1.66-7.79C768.24,94.27,750.11,84.89,750.11,84.89Z"/><path class="cls-30" d="M807,94.78c-11.33-22.51-29.3-70.65-29.3-70.65l-16.85,3.06,8.94,22S777.19,74.7,755,58.6s-28.08-43.66-28.08-43.66-6.64-14.3-2,3.57,24.94,44.17,24.94,44.17L719.13,73.4s-14.47-16.08-16.25-22.72,0-23.65,0-23.65H699.3s-.25,20.6-3.57,24.68-25-6.14-31.66-12.77-24.3-37.51-24.3-37.51l-5.58-.28,19.15,39.57,4.09,8.94L722.54,76s18.89-6.9,44.89-4.34,16.13,12,16.13,12l6.12,10.64C793.49,92.67,799,92.43,807,94.78Z"/><path class="cls-31" d="M912.24,40.47l1.53-22.21s-11-25.54-9.7,1.27c1,22.17-9.59,74.55-15.15,87.39a97,97,0,0,1,8.35,5.89C900.79,96.05,912.24,40.47,912.24,40.47Z"/><path class="cls-32" d="M857.6,227.11c-3.58-2.56-6.89.76-4.85,10.72.34,1.66,1.39,5.06,2.89,9.57,13.88,31,33.62,16.22,34.11,1.19a279,279,0,0,1-1.85-37.14c-.06.38-.11.77-.17,1.19C883.39,243.36,860.92,237.32,857.6,227.11Z"/><path class="cls-33" d="M864.82,96.66a71.68,71.68,0,0,1,20.06,7.86C881.87,92,878.54,65,878.54,65L860,65.55C861.38,77,863,87.47,864.82,96.66Z"/><path class="cls-34" d="M914.79,114.76l-5.11-8.52s-6.1,5.1-10.08,8.45c1.44,1.2,2.9,2.47,4.37,3.83-19.52,3.15-30.71-2.85-35.7-6.77a108.23,108.23,0,0,0,3.88,12,26.93,26.93,0,0,1,1.79,6.66c3.94,14.52,10.95,19.21,18.27,18.64,1.26-8.76,2.67-15.36,4-18.4A28.25,28.25,0,0,1,914.79,114.76Z"/></g></g></g></svg>