<svg xmlns="http://www.w3.org/2000/svg" xmlns:xlink="http://www.w3.org/1999/xlink" viewBox="0 0 924.52 402.09"><defs><style>.cls-1{isolation:isolate;}.cls-2{fill:#893b8c;}.cls-3{fill:#803d86;}.cls-10,.cls-4,.cls-6,.cls-7,.cls-8,.cls-9{mix-blend-mode:multiply;}.cls-4,.cls-6{opacity:0.15;}.cls-4{fill:url(#Áåçûìÿííûé_ãðàäèåíò_253);}.cls-5{fill:#79367f;}.cls-6{fill:url(#Áåçûìÿííûé_ãðàäèåíò_253-2);}.cls-7,.cls-8,.cls-9{opacity:0.49;}.cls-7{fill:url(#Áåçûìÿííûé_ãðàäèåíò_253-3);}.cls-8{fill:url(#Áåçûìÿííûé_ãðàäèåíò_253-4);}.cls-9{fill:url(#Áåçûìÿííûé_ãðàäèåíò_253-5);}.cls-10{fill:#2b132a;opacity:0.21;}</style><linearGradient id="Áåçûìÿííûé_ãðàäèåíò_253" x1="339" y1="179.28" x2="924.52" y2="179.28" gradientUnits="userSpaceOnUse"><stop offset="0" stop-color="#2b132a"/><stop offset="1" stop-color="#fff"/></linearGradient><linearGradient id="Áåçûìÿííûé_ãðàäèåíò_253-2" x1="0" y1="194.36" x2="637.41" y2="194.36" xlink:href="#Áåçûìÿííûé_ãðàäèåíò_253"/><linearGradient id="Áåçûìÿííûé_ãðàäèåíò_253-3" x1="731.6" y1="402.4" x2="731.6" y2="1.81" xlink:href="#Áåçûìÿííûé_ãðàäèåíò_253"/><linearGradient id="Áåçûìÿííûé_ãðàäèåíò_253-4" x1="779.56" y1="402.4" x2="779.56" y2="1.81" xlink:href="#Áåçûìÿííûé_ãðàäèåíò_253"/><linearGradient id="Áåçûìÿííûé_ãðàäèåíò_253-5" x1="874.34" y1="329.64" x2="874.34" y2="7.94" xlink:href="#Áåçûìÿííûé_ãðàäèåíò_253"/></defs><g class="cls-1"><g id="Layer_2" data-name="Layer 2"><g id="L7"><path class="cls-2" d="M366,5.27a201,201,0,0,0-13.94,58.61c-2.59,30.73-5.57,77.92-3.45,114.33,3.43,58.93-16.66-3.66-16.66-3.66S349,50.11,343.52,32.17s-34.38-8.42-34.38-8.42L300.28,172l-25.83-5.17S294.5,87.66,297.73,46.19,253,8.38,253,8.38l-45.61,5.86V165.4L201.9,165,195.09,17.16l-17.36-1.09L164.45,159.82l-8.8-5.45,2.68-130.62-16.68-1.33L139.44,155l-4.94-.64V23.75L100.79,29.1l18.39,130.81L103,154.37s-5-82.67-9.38-115.24S89.56,52.3,89.56,52.3L96,145.61H84.92L72.68,7.94,253,4.24h37.45l75.58,1Z"/><path class="cls-2" d="M548.24,1a176.49,176.49,0,0,1,13.94,54.51c2.58,28.59,5.56,72.47,3.44,106.34-3.43,54.81,16.66-3.41,16.66-3.41S565.26,42.66,570.71,26s34.38-7.83,34.38-7.83L613.94,156l25.83-4.81S619.73,77.59,616.49,39,661.26,3.85,661.26,3.85L706.88,9.3V149.89l5.44-.34L719.13,12l17.36-1,13.28,133.7,8.81-5.07L755.9,18.15l16.68-1.24,2.2,123.32,5-.6V18.15l33.7,5L795.05,144.79l16.15-5.16s4.95-76.89,9.38-107.18,4.08,12.25,4.08,12.25l-6.47,86.79h11.12L840.66,12.7,661.26,0H623.81L548.24,1Z"/><path class="cls-3" d="M259.38,193c181-26.14,479.05-64.49,665.14-77.62V402.09H0Z"/><path class="cls-4" d="M405.11,226c46.65,6.86,408.17,19.16,431.3,16.84,15.89-1.59,61.28-2.72,88.11-3.28V115.42c-18.29,1.3-37.69,2.83-57.93,4.58L547.93,180.56,762.35,153l22.46,8.28-78.64,5.81-123.4,42,116.84-31.88,163.9-10.12,2.22,22.3L538.21,218.93l-97.43-50.79c-35.42,4.63-69.62,9.24-101.78,13.67C351,197.4,374.07,221.44,405.11,226Z"/><path class="cls-5" d="M414.52,48.29s-14.39,45.45,5.25,172.08c0,0-4.32,9.93-10.34-2.32s-19.43-78.61,0-172.4L400,38.13S377.46,184,377.46,215.34c0,0-10.55,8.17-10.89-8.85S383,74.27,393.17,40.81s-4.13,0-4.13,0S356.36,168.7,349.55,205.47c0,0-11.58,8.51-12.6-6.47s31-147.15,31-147.15l2.72-25.92L334.91,10.1l-55.15,3.71-31,164.76S239.39,184,238,173.81s24.1-144,30.23-153.87-36.77-3.84-36.77-3.84l-8.51,186s-21.45,7.46-18.38-11.6,10.55-142.2,10.55-142.2l5.68-1.8s-9.08,131.74-5,138.21S226,40.81,226,40.81l-13.61-9.3-44.53-3.74-42.28,143-11.24,8.14L147.16,8l-12.08,5.11L95.52,131.71,86.4,112.19,112.51,8S157.71-.49,177,8s78.9-1.36,78.9-1.36L393.12,7l33.7,17.91L499,30.15s4.86,44.06,10.22,76.75,9.87,92.6-9.53,133.37S453,252.76,453,252.76,465,174.49,466,157.13,454.4,33.21,454.4,33.21l15,2.39s10.55,98,16.34,115.74-4.09,56.51-1,64.68,13.85-25.62,15.94-63S487.42,34.23,487.42,34.23l-49.68-6.12Z"/><path class="cls-6" d="M618,218.05l-201.21,2.23-225.7-2.59,254-8.44S173.23,214,94.74,179.36s69.57-41.71,69.57-41.71C102,126.16,46.49,115,0,103.43V285.3l637.41-63.53Z"/><path class="cls-7" d="M724.27,139.18l7.12,7.17c2.56.68,5.08,1.29,7.54,1.84l-9.55-7.28C727.79,140.38,726.07,139.8,724.27,139.18Z"/><polygon class="cls-8" points="795.05 80.53 774.6 25.35 764.08 27.26 787.9 80.19 795.05 80.53"/><path class="cls-9" d="M878.11,119.1,872,94.45l.34-14.94,4.43,2.38,4.32,33.53V87l.31-.94c-1.63-10.57-2.84-20.42-2.84-20.42l-9.81.3-1.42,28.51Z"/><polygon class="cls-10" points="793.51 98.06 805.43 111.34 811.05 123.6 801 110.49 793.51 98.06"/><polygon class="cls-10" points="832.47 90.6 832.47 100.21 835.39 106.06 842.57 139.18 837.43 101.98 834.2 99.94 832.47 90.6"/><polygon class="cls-10" points="847.39 147.85 843.91 156.45 846.62 164.96 845.27 174.71 848.83 162.57 845.94 157.64 847.39 147.85"/></g></g></g></svg>