<?xml version="1.0" encoding="UTF-8"?><svg xmlns="http://www.w3.org/2000/svg" xmlns:xlink="http://www.w3.org/1999/xlink" viewBox="0 0 84.92 85.45"><defs><style>.f{fill:#ffbe0c;}.f,.g,.h{opacity:.9;}.i{fill:#f11d28;}.g{fill:#f79e1e;}.h{fill:#fedc00;filter:url(#d);}</style><filter id="d" filterUnits="userSpaceOnUse"><feOffset dx="-2" dy="2"/><feGaussianBlur result="e" stdDeviation="0"/><feFlood flood-color="#020202" flood-opacity=".4"/><feComposite in2="e" operator="in"/><feComposite in="SourceGraphic"/></filter></defs><g id="a"/><g id="b"><g id="c"><circle class="i" cx="38.3" cy="47.08" r="28.56"/><path class="f" d="M31.78,48.48l-16.16,15.69-11.35,11.02c-.82,.8-2.2,.26-2.27-.89L.02,39.47v-.05c-.13-2.29,.51-4.55,1.83-6.43L21.85,4.41c.65-.93,2.07-.68,2.38,.39l3.87,15.36,5.51,21.85h0c.59,2.34-.11,4.8-1.83,6.47Z"/><path class="g" d="M80.25,64.55l-29.17,19.2-.04,.02c-1.92,1.26-4.2,1.84-6.49,1.64l-34.79-3.09c-1.14-.1-1.63-1.5-.81-2.3l11.35-11.02,16.16-15.69h.01c1.69-1.65,4.12-2.28,6.39-1.68l.13,.04,21.67,6.15,15.22,4.32s.02,.01,.03,.01c1.07,.33,1.28,1.78,.34,2.4Z"/><path class="h" d="M83.27,56.11s-.03,0-.05-.01l-16.72-4.75-21.68-6.15c-1.16-.33-2.18-.95-2.98-1.78-.8-.83-1.38-1.85-1.68-2.99l-.02-.06-5.51-21.85L30.39,1.67c-.26-1,.67-1.9,1.66-1.62l38.39,10.9c1.16,.33,2.18,.95,2.99,1.79,.81,.83,1.41,1.88,1.7,3.04l9.75,38.7c.25,.98-.64,1.87-1.61,1.63Z"/></g></g></svg>